<svg id="esv" width="450" height="156" preserveAspectRatio="xMidYMid" version="1.1" viewBox="0 0 450.0497 156.01848" xmlns="http://www.w3.org/2000/svg" xmlns:xlink="http://www.w3.org/1999/xlink">
 <path id="fHub" d="m50.28 99.51c23.71-17.05 46.87 1.912 47.11 24.1 0.08735 8.891-13.05 29.15-29.88 27.4-31.48-3.289-35.35-38.45-17.23-51.47z" style="fill:#ffffff;stroke-width:1.002"/>
 <path id="fWheel" d="m67.55 88.03c16.74 0 34.97 11.74 34.97 34.92 0.2998 16.37-14.51 33.07-33.64 33.07-19.49 0-34.57-14.83-34.57-34.29 0-20.03 17.2-33.7 33.22-33.7zm27.03 43.26c5.205-15.95-2.724-31.92-20.6-36.59-20.88-3.316-33.12 13.21-33.61 25.64-0.8525 14.32 8.788 24.51 18.75 28.11 17.89 5.632 32.48-6.209 35.46-17.17zm-36.7 14.51c2.512-4.984 4.611-8.765 7.345-13.45 0.7347-1.056 1.078-1.033 3.518 0.234 3.322 1.727 3.996 2.404 4.494 4.508 1.041 3.351 2.27 6.5 3.012 10.07-2.312 3.197-20.53 0.9649-18.37-1.377zm17.22 1.36c-0.6001-0.2518-1.829-1.371-2.108-1.915-0.4036-0.7958-2.27-9.094-2.088-9.273 0.1802-0.1837 0.7189-0.2029 1.033-0.03699 0.6211 0.3281 0.2173-0.4416-0.4824-0.9192-0.9515-0.6498-4.759-2.636-5.084-2.572-1.246 0.1451-7.426 11.92-7.617 13.55 0.1502 0.8166 0.5863 0.6564 0.5863-0.2151 0-0.4389 0.1474-0.8181 0.4805-1.233 1.463-2.39 5.643-12.15 6.788-11.22 0.4167 3e-3 1.931 0.771 2.255 1.145 1.472 4.657 1.841 7.121 2.956 11.64 0.32 0.8713-0.1073 2.042-0.1895 2.281 1.345 0.2401 3.752-0.964 3.468-1.22zm-1.282-16.9c2.143-1.894 4.539-3.143 6.788-3.212 1.987 0.3942 9.78 3.385 11.84 4.741 0.6111 1.774-6.124 10.96-11.01 13.5-2.409 2.38-6.202-11.88-7.617-15.02zm7.357 13.99c0.04727-0.3319-0.4518-0.1885-0.6509-0.2715-1.823-4.853-3.717-8.398-5.048-13.08 0.05382-0.4696 0.8667-0.962 2.044-1.236 1.33-0.4309 7.322 2.611 9.789 3.811 2.397 1.171 3.025 1.637 3.049 2.262 0.2691 0.09359 1.95-2.954 1.957-3.593-0.6235-0.01635-1.91 0.4601-3.086 0.4821-3.154-1.148-6.098-2.265-8.825-4.045 0.02457-0.182 0.2907-0.4543 0.5915-0.6049 0.8322-0.4167 0.6656-0.5811-0.5045-0.499-2.246 0.4529-3.977 1.287-5.562 2.755-0.4262 0.8518-0.4193 0.928 0.205 2.328 1.467 3.895 3.301 7.941 4.724 11.45 0.2012 0.5237 0.5936 1.064 0.7714 1.064 0.4396-0.08131 0.5817-0.4584 0.5471-0.815zm-37.88-15.41c5.953-1.163 14.49-2.996 16.21-2.371 1.138 1.258 2.067 5.89 1.27 7.568-0.7358 1.583-6.431 10.61-6.847 10.46-2.968-0.06279-13.12-13.22-10.63-15.67zm10.35 15.24c-1.337-2.391 3.122-6.997 5.322-10.64 0.4566-0.4189 0.8045-0.234 0.9963 0.53 0.1589 0.8 0.1744 0.6122 0.4813-0.02936-0.03641-3.192-0.06649-7.994-2.914-7.042-4.49 0.6345-9.275 1.336-13.12 2.403-0.2192 0.2236-0.04725 0.7994 0.1937 0.647 4.281-0.7576 8.825-1.858 12.91-2.336 1.344-0.2784 2.278 2.958 1.149 4.077-2 3.224-6.185 10.43-8.142 9.475-0.699-0.2262-0.2356 0.437 1.209 1.729 0.4823 0.6461 1.703 1.333 1.915 1.194zm12.31-16.73c1.13-1.319 3.057-0.9965 3.552 0.7643 0.1158 0.8637-0.3722 1.769-1.124 2.132-1.94 0.7439-3.456-1.206-2.428-2.898zm5.305-2.079c0.6899-1.831 2.437-1.461 2.896-1.038 1.255 0.7142 1.086 2.509 0.1362 3.146-1.534 1.088-3.548-0.334-3.032-2.107zm6.397-3.73c0-0.5374 0.6817-3.503 1.034-4.497 1.452-4.152 7.894-6.252 11.99-8.188 3.354 4.168 4.102 11.84 3.245 18.04-0.5953 1.372-17.58-2.512-16.27-5.351zm15.42 4.494c0-0.2483-0.2112-0.3224-1.18-0.4142-4.241-1.154-10.14-2.007-12.88-4.5 0.05918-0.8392 0.2814-1.521 0.514-2.325 0.1543-1.431 7.783-4.078 12.09-5.901 0.4363 0 0.7933-0.07224 0.7933-0.1607 0-0.343-1.549-3.562-1.683-3.468 0.1974 3.265-4.088 4.337-6.51 5.788-3.655 1.807-3.841 1.837-3.841 0.6429 0-0.5994-0.006033-0.6049-0.3388-0.2976-1.13 1.499-1.787 5.198-1.521 6.918 4.108 1.96 8.661 2.742 12.36 4.115 1.142 0.5408 2.125 0.2485 2.207-0.3973zm-31.51-2.779c0.69-0.7224 2.455-0.3409 2.848 0.647 0.7065 1.085-0.1091 2.872-1.795 2.849-2.063-0.25-2.367-2.664-1.054-3.496zm-19.1 1.35c-1.287 0.1358-0.815-13.64 5.065-18.1 4.493 4.192 11.7 9.659 12.13 11.87-0.5706 1.822-3.34 4.991-5.089 5.323-3.886 0.3347-8.402 0.924-12.11 0.9078zm0.7174-1.326c1.401-1.381 1.418-1.384 6.418-1.289 2.437 0.04648 4.615 0.1225 4.837 0.1697 0.4013 0.08453 0.3984 0.09396-0.2463 0.7673-0.7091 0.7406-0.6879 0.8069 0.1418 0.4418 0.9905-0.4353 3.596-3.24 4.26-4.584 0.5987-1.214 0.5917-1.23-1.469-3.134-2.239-2.173-4.853-4.407-6.99-6.319-1.577-1.556-2.446-1.999-2.687-1.361 3.434 3.449 7.87 6.733 10.74 9.918 0 0.3948-1.48 2.082-2.017 2.301-2.363 0.9792-13.08 0.6103-13.88-0.1183-0.1029 0.1049-0.1644 3.406-0.06817 3.671 0.7765 1.382 0.4574-0.07969 0.9684-0.4625zm28.57-3.412c0.05803-2.329 2.502-2.576 3.537-1.289 0.9532 1.873-0.4131 2.862-0.8533 2.949-1.477 0.4942-2.539-0.4702-2.683-1.661zm-9.983-2.305c0.6127-0.6796 2.093-1.16 3.025-0.00601 1.304 1.72-0.3963 3.167-1.245 3.191-1.975 0.03372-2.73-1.778-1.778-3.184zm5.075-0.615c-0.4101-1.912 1.068-2.68 2.051-2.604 2.228 0.3588 2.221 2.955 0.6786 3.721-0.7699 0.2537-1.835 0.4267-2.73-1.116zm3.108-9.049c-0.04771-1.427 1.612-12.07 2.333-11.96 3.097-0.2891 10.9 3.896 13.84 6.86 1.919 1.831 2.053 2.227 1.059 3.134-4.486 3.425-11.83 9.078-12.75 8.846-0.8243-0.3605-4.75-3.949-4.487-6.884zm5.527 5.933c3.697-2.622 7.88-5.455 11.16-8.203 0.1232-0.2347 0.1217-0.4409-0.004526-0.6821-0.2303-0.4389-0.5151-0.4431-0.6263-0.00953-4.111 3.365-7.278 5.869-11.4 8.466-1.908-2.022-1.787-3.666-1.459-5.225 1.274-3.636 1.646-10.62 2.898-10.73 0.3046-0.2273 0.2845-0.2581-0.3489-0.5329-1.077-0.4953-2.298-0.5608-3.442-0.6901-0.01881 0.3819 1.376 2.224 1.273 3.612-0.1723 2.426-0.8345 4.92-1.288 7.197-0.1759 1.173-0.4543 1.714-0.8833 1.714-0.4776-0.3238-0.7519-0.6796-1.161-1.123-0.0944 0.6491 0.1341 1.262 0.2961 1.838 1.462 2.115 3.066 5.238 4.978 4.371zm-8.27-18.12c0.2965 0.8472-0.4708 17.18-0.9992 17.38-1.101 0.2934-4.488 0.3598-6.735-0.05252-3.087-2.947-8.788-7.747-9.088-9.86 0.8339-3.201 11.86-8.376 16.83-7.463zm-1.262 16.53c0.4272-2.035 0.9471-9.754 0.6799-15.43-0.5353-0.09268-0.5737-0.02923-0.5875 0.9764-0.04205 4.994-0.5113 9.176-0.7484 13.7-1.805 0.3803-2.916 0.1256-3.877-1.215-2.796-3.609-7.706-8.259-7.653-9.965-0.8053 0.02631-2.275 1.963-2.623 2.634 0.5892 0.07026 1.193 0.1575 1.698 0.2496 2.737 2.288 5.165 5.162 7.034 8.114-0.5184 0.2982-1.065 0.1802-1.552-0.00677-0.273 0.172 0.1101 0.6429 0.7729 0.9497 0.4205 0.2576 4.92 0.6764 6.857-0.00236z" style="fill:#000000;stroke-width:1.002"/>
 <path id="rHub" d="m327 99.51c23.71-17.05 46.87 1.912 47.11 24.1 0.08734 8.891-13.05 29.15-29.88 27.4-31.48-3.289-35.35-38.45-17.23-51.47z" style="fill:#ffffff;stroke-width:1.002"/>
 <path id="rWheel" d="m344.2 88.03c16.74 0 34.97 11.74 34.97 34.92 0.2998 16.37-14.51 33.07-33.64 33.07-19.49 0-34.57-14.83-34.57-34.29 0-20.03 17.2-33.7 33.22-33.7zm27.03 43.26c5.205-15.95-2.724-31.92-20.6-36.59-20.88-3.316-33.12 13.21-33.61 25.64-0.8525 14.32 8.788 24.51 18.75 28.11 17.89 5.632 32.48-6.209 35.46-17.17zm-36.7 14.51c2.512-4.984 4.611-8.765 7.345-13.45 0.7347-1.056 1.078-1.033 3.518 0.234 3.322 1.727 3.996 2.404 4.494 4.508 1.041 3.351 2.27 6.5 3.012 10.07-2.312 3.197-20.53 0.9649-18.37-1.377zm17.22 1.36c-0.6001-0.2518-1.829-1.371-2.108-1.915-0.4036-0.7958-2.27-9.094-2.089-9.273 0.1802-0.1837 0.7189-0.2029 1.033-0.03699 0.6211 0.3281 0.2173-0.4416-0.4824-0.9192-0.9516-0.6498-4.759-2.636-5.084-2.572-1.246 0.1451-7.426 11.92-7.617 13.55 0.1502 0.8166 0.5863 0.6564 0.5863-0.2151 0-0.4389 0.1475-0.8181 0.4805-1.233 1.463-2.39 5.643-12.15 6.788-11.22 0.4167 3e-3 1.931 0.771 2.255 1.145 1.472 4.657 1.841 7.121 2.956 11.64 0.32 0.8713-0.1073 2.042-0.1895 2.281 1.345 0.2401 3.752-0.964 3.468-1.22zm-1.282-16.9c2.143-1.894 4.539-3.143 6.788-3.212 1.988 0.3942 9.78 3.385 11.84 4.741 0.6111 1.774-6.124 10.96-11.01 13.5-2.409 2.38-6.202-11.88-7.617-15.02zm7.357 13.99c0.04727-0.3319-0.4518-0.1885-0.6509-0.2715-1.823-4.853-3.717-8.398-5.048-13.08 0.05382-0.4696 0.8667-0.962 2.044-1.236 1.33-0.4309 7.322 2.611 9.789 3.811 2.397 1.171 3.025 1.637 3.049 2.262 0.2691 0.09359 1.95-2.954 1.957-3.593-0.6235-0.01635-1.91 0.4601-3.086 0.4821-3.154-1.148-6.098-2.265-8.825-4.045 0.02455-0.182 0.2907-0.4543 0.5915-0.6049 0.8322-0.4167 0.6657-0.5811-0.5045-0.499-2.246 0.4529-3.977 1.287-5.562 2.755-0.4262 0.8518-0.4193 0.928 0.205 2.328 1.467 3.895 3.301 7.941 4.724 11.45 0.2012 0.5237 0.5935 1.064 0.7715 1.064 0.4396-0.08131 0.5817-0.4584 0.5471-0.815zm-37.88-15.41c5.953-1.163 14.49-2.996 16.21-2.371 1.138 1.258 2.067 5.89 1.27 7.568-0.7358 1.583-6.431 10.61-6.847 10.46-2.968-0.06279-13.12-13.22-10.63-15.67zm10.35 15.24c-1.337-2.391 3.122-6.997 5.322-10.64 0.4566-0.4189 0.8045-0.234 0.9963 0.53 0.1589 0.8 0.1744 0.6122 0.4813-0.02936-0.03643-3.192-0.0665-7.994-2.914-7.042-4.49 0.6345-9.275 1.336-13.12 2.403-0.2192 0.2236-0.04724 0.7994 0.1937 0.647 4.281-0.7576 8.825-1.858 12.91-2.336 1.344-0.2784 2.278 2.958 1.149 4.077-2 3.224-6.185 10.43-8.142 9.475-0.699-0.2262-0.2355 0.437 1.209 1.729 0.4823 0.6461 1.703 1.333 1.915 1.194zm12.31-16.73c1.13-1.319 3.057-0.9965 3.552 0.7643 0.1158 0.8637-0.3723 1.769-1.124 2.132-1.94 0.7439-3.456-1.206-2.428-2.898zm5.305-2.079c0.6898-1.831 2.438-1.461 2.896-1.038 1.255 0.7142 1.087 2.509 0.1362 3.146-1.534 1.088-3.548-0.334-3.032-2.107zm6.397-3.73c0-0.5374 0.6817-3.503 1.034-4.497 1.452-4.152 7.894-6.252 11.99-8.188 3.354 4.168 4.102 11.84 3.245 18.04-0.5953 1.372-17.58-2.512-16.27-5.351zm15.42 4.494c0-0.2483-0.2111-0.3224-1.18-0.4142-4.241-1.154-10.14-2.007-12.88-4.5 0.05918-0.8392 0.2815-1.521 0.514-2.325 0.1543-1.431 7.783-4.078 12.09-5.901 0.4363 0 0.7933-0.07224 0.7933-0.1607 0-0.343-1.549-3.562-1.683-3.468 0.1974 3.265-4.088 4.337-6.51 5.788-3.655 1.807-3.841 1.837-3.841 0.6429 0-0.5994-0.00604-0.6049-0.3388-0.2976-1.13 1.499-1.787 5.198-1.521 6.918 4.108 1.96 8.661 2.742 12.37 4.115 1.142 0.5408 2.125 0.2485 2.207-0.3973zm-31.51-2.779c0.69-0.7224 2.455-0.3409 2.848 0.647 0.7064 1.085-0.1091 2.872-1.795 2.849-2.063-0.25-2.367-2.664-1.054-3.496zm-19.1 1.35c-1.287 0.1358-0.815-13.64 5.065-18.1 4.492 4.192 11.7 9.659 12.13 11.87-0.5707 1.822-3.34 4.991-5.089 5.323-3.886 0.3347-8.402 0.924-12.11 0.9078zm0.7174-1.326c1.401-1.381 1.418-1.384 6.418-1.289 2.437 0.04648 4.615 0.1225 4.837 0.1697 0.4014 0.08453 0.3983 0.09396-0.2463 0.7673-0.7091 0.7406-0.6879 0.8069 0.1418 0.4418 0.9905-0.4353 3.596-3.24 4.26-4.584 0.5986-1.214 0.5917-1.23-1.469-3.134-2.239-2.173-4.853-4.407-6.99-6.319-1.577-1.556-2.446-1.999-2.687-1.361 3.434 3.449 7.87 6.733 10.74 9.918 0 0.3948-1.48 2.082-2.017 2.301-2.363 0.9792-13.08 0.6103-13.88-0.1183-0.1029 0.1049-0.1644 3.406-0.06817 3.671 0.7765 1.382 0.4574-0.07969 0.9684-0.4625zm28.57-3.412c0.05804-2.329 2.502-2.576 3.537-1.289 0.9532 1.873-0.4131 2.862-0.8533 2.949-1.477 0.4942-2.539-0.4702-2.683-1.661zm-9.983-2.305c0.6127-0.6796 2.093-1.16 3.025-0.00601 1.304 1.72-0.3964 3.167-1.245 3.191-1.975 0.03372-2.73-1.778-1.778-3.184zm5.075-0.615c-0.4101-1.912 1.068-2.68 2.051-2.604 2.228 0.3588 2.221 2.955 0.6786 3.721-0.7699 0.2537-1.835 0.4267-2.73-1.116zm3.108-9.049c-0.04771-1.427 1.612-12.07 2.333-11.96 3.097-0.2891 10.9 3.896 13.84 6.86 1.919 1.831 2.053 2.227 1.059 3.134-4.486 3.424-11.83 9.078-12.75 8.846-0.8243-0.3605-4.75-3.949-4.487-6.884zm5.527 5.933c3.697-2.622 7.88-5.455 11.16-8.203 0.123-0.2347 0.1217-0.4409-0.00451-0.6821-0.2302-0.4389-0.515-0.4431-0.6263-0.00953-4.111 3.365-7.278 5.869-11.4 8.466-1.908-2.022-1.787-3.666-1.459-5.225 1.274-3.636 1.646-10.62 2.898-10.73 0.3046-0.2273 0.2845-0.2581-0.349-0.5329-1.077-0.4953-2.298-0.5608-3.442-0.6901-0.01882 0.3819 1.376 2.224 1.273 3.612-0.1723 2.426-0.8345 4.92-1.288 7.197-0.176 1.173-0.4543 1.714-0.8833 1.714-0.4776-0.3238-0.7519-0.6796-1.161-1.123-0.09442 0.6491 0.1341 1.262 0.296 1.838 1.462 2.115 3.066 5.238 4.978 4.371zm-8.27-18.12c0.2964 0.8472-0.4708 17.18-0.9992 17.38-1.101 0.2934-4.488 0.3598-6.735-0.05252-3.087-2.947-8.788-7.747-9.088-9.86 0.8339-3.201 11.86-8.376 16.83-7.463zm-1.262 16.53c0.4272-2.035 0.9471-9.754 0.6799-15.43-0.5353-0.09268-0.5738-0.02923-0.5875 0.9764-0.04205 4.994-0.5114 9.176-0.7484 13.7-1.805 0.3803-2.916 0.1256-3.877-1.215-2.796-3.609-7.706-8.259-7.653-9.965-0.8053 0.02631-2.275 1.963-2.623 2.634 0.5892 0.07026 1.193 0.1575 1.698 0.2496 2.737 2.288 5.165 5.162 7.034 8.114-0.5184 0.2982-1.065 0.1802-1.552-0.00677-0.273 0.172 0.1101 0.6429 0.773 0.9497 0.4205 0.2576 4.92 0.6764 6.857-0.00236z" style="fill:#000000;stroke-width:1.002"/>
 <path id="trim" d="m296.5 8.847c-6.788-0.1858-1.866-0.3852-5.244 0.003213-0.5433 1.498 4.879 26.9 7.319 40.35 4.796-0.258 4.003-0.5015 7.562-1.289 0.7225-6.252-9.129-34.8-9.636-39.06zm-286.6 56.96c-5.135 8.169-4.405 18.72-6.029 26.31 0.4931 1.404 12.66-3.777 14.12-4.666 1.629-8.013 9.799-19.03 9.799-19.04 9.838-1.157 14.68-3.522 18.25-8.992-7.056-4.951-30.2 0.3761-36.13 6.398zm203.1 62.88c-17.04 0.8401-94.82-2.775-101.1 2.892 35.28 2.551 87.46 0.09745 115.6-0.3813 24.39-0.8088 51.3-0.2093 75.23-2.327-0.3863-0.5312-1.337-1.282-3.112-1.595-5.568-0.9822-58.52 2.297-86.78 1.41zm188.8-126.7c-6.212-2.527-15.93 0.2727-20.79-1.069-50.23 0.06898-105-0.3776-142.2 1.083-7.959 0.5009-19.56 1.888-26.07 4.309 7.051 0.04124 182.5-1.812 193.5-1.323z" style="fill:#ffffff;stroke-width:1.002"/>
 <path id="brake" d="m422.7 11.98c1.193-0.6012 1.213-0.01442 7.651 9.744 5.732 8.962 11.87 21.82 14.02 29.09 1.563 4.575 2.48 20.68 1.143 21.46-0.4444 0.1305-4.888 1.724-5.748-0.2807-0.7576-1.764-0.1614-6.858-0.6305-11.42-0.9636-9.195-3.227-17.92-6.897-25.98-3.643-9.927-10.54-16.92-11.67-22.67z" style="fill:#8a112b;stroke-width:1.002"/>
 <path id="body" d="m231.1 2.232c-4.624 0.5445-13.75 1.492-22.03 4.11-9.526 0.1235-22.37 0.9908-28.17 1.657-1.238 0.142-4.057 0.2904-6.108 0.9707-0.8709 0.2885-0.4422-2.372-3.267-1.306 0.2773-3.64-1.274-3.202-5.054-1.004-1.939 2.042-0.07502 4.398-7.327 7.361-17.22 8.424-35.86 23.25-48.78 35.08-21.91 1.204-45.73 1.977-63.92 4.816-9.263 1.265-27.47 3.827-34.54 7.428-5.941 2.641-8.904 14.3-9.924 19.85-2.074 8.163-2.076 21.14-1.968 27.21 0.2217 11.72 1.354 12.6 3.526 15.89 2.424 6.413 6.395 5.274 9.684 9.707 0.2783 1.221 0.3805 5.054 1.338 5.601 5.118 0.9869 12.49 1.729 17.62 1.361-2.007-25.98-2.062-39.1 12.08-49.83 13-9.873 32.1-13.68 49.34-0.1436 10.1 7.923 11.47 16.55 14.64 28.7 0.2217 3.836 1.99 11.67 2.56 14.26 0.5612 0.2215 7.741 0.4054 15.24 0.2773 29.83 0.03544 61.45 0.6974 92.48 0.3327 28.61-0.6903 58.91-2.697 85.13-3.471 1.606-5.416 1.645-7.692 2.263-11.87 4.331-15.35 7.388-21.81 14.74-28.35 14.58-12.97 37.93-9.219 47.98-2.369 4.824 3.291 16.19 16.06 17.19 35.37 4.601-0.298 22.69-2.007 30.12-2.619 15.58-1.286 22.26-2.21 22.33-2.527 0.5387 0.02406 8.543-10.39 10.65-15.71 1.105-4.249 0.9886-8.237 1.03-11.32 0.1214-3.042 0.4139-7.362-1.243-9.03-1.488-2.366-1.9-1.483-2.475-2.731 0.2376-1.679-0.1181-3.133-0.5792-7.878l-5.14-0.261c-0.1118-2.722 0.3014-3.903-0.06814-5.773-0.8528-11.05 0.09527-9.425-1.822-17.58-2.22-6.476-8.116-20.02-9.838-22.97-3.931-6.588-3.988-6.742-7.734-12.62-0.316-1.086 3.595 0.008013 3.476 0.1552-2.531-3.894 0.733 0.9291 4.097-2.182-0.2752-1.254 1.673-5.252-4.914-5.759-4.571-0.428-11.83-0.1269-17.62-0.8214-3.362-1.806-2.096-2.593-7.637-3.788-21.34-0.9688-61.16-0.1813-96.09 0.4217-6.092 0.2212-64.91 0.01187-71.36 1.343zm164.5-0.7234c5.103-0.2478 5.422 1.486 9.248 2.896-76.07-0.5015-131.2-0.01546-191.7 1.738 1.897-0.556 12.67-2.336 18.27-3.168 4.082-0.9179 44.37-1.429 67.63-1.425 10.21-0.1038 90.68-0.554 96.55-0.04134zm-97.52 44.82c-1.645-10.8-3.787-22.02-6.403-35.25l-0.376-1.845c1.496 0.008401 2.846 0.08612 4.316 0.09678 5.489 16.57 6.783 25.18 9.645 36.72-0.2438 2.359-2.776 2.013-6.812 2.105zm-254.3 13.36c-2.25 3.625-3.814 4.962-7.021 5.652-8.288 1.027-11.78 1.9-13.87 4.871-4.251 4.312-3.823 12.12-9.626 18.18-1.981 0.7572-6.377 1.789-7.801 1.536 0.1726-3.319 3.239-22.5 4.99-23.62 13.26-6.256 21.35-5.062 33.31-6.626zm257.8 68.81c-27.89 1.726-72.68 1.672-83.26 2.228-10.93 0.151-24.45 0.3798-35.87 0.4554-25.37 0.02738-62.33 1.371-68.92 0.1138 0.3105-0.4811 1.713-1.306 2.634-0.9201 5.503 0.3963 53.53-0.2342 102-0.8386 30.9-0.3854 56.1-1.45 82.21-2.009z" style="fill:#000000;stroke-width:1.002"/>
 <path id="dDTrim" d="m214 10.84c-16.84-0.02033-37.5-0.4635-53.49 7.785-13.99 9.186-31.72 18.07-40.64 32.59 0.5286 1.299 1.399 2.348 2.861 2.963l89.87-3.205 0.1858-2.533-89.26 2.791c0.186-5.794 28.9-26.08 40.45-31.1 16.98-7.368 35.04-6.807 50.04-7.382zm-8.138 49.78-22.57 1.036 0.4153 3.941 24.55-0.7266zm5.51 34.26-92.79 1.517 1.874 7.983 91.21-5.138z" style="fill:#ffffff;stroke-width:1.002"/>
 <path id="dDoor" d="m214 11c-18.49 0.5401-26.88 0.894-32.7 1.977-13.84 1.992-24.52 7.541-35.67 15.44-7.199 5.645-17.55 13.15-23.82 20.37-0.7067 0.9611-3.994 5.376 3.948 4.817 11.95-0.29 26.55-0.8334 38.63-1.236 18.27-0.3834 29.4-1.285 48.18-1.68 0.01877-0.07853 0.1707-2.072 0.1707-2.072-42.11 0.9246-73.56 2.848-78.76 2.937-2.496 0.0431-11.71 1.045-11.09-0.3395 1.747-5.278 14.69-15.77 25.39-22.82 17.62-11.91 27.44-13.89 49.79-15.4 7.178-0.1938 8.079-0.2777 15.92-0.4679zm-7.913 51.02c-1.242-1.075-12.7-0.2832-16.15-0.0791-9.204 0.3889-5.137 3.682-3.641 3.173 7.101-0.7283 16.52 0.1134 20.14-1.153zm5.292 33.1c-13.45 0.2966-19.74 0.7423-32.67 0.9246-20.43 0.3606-40.94 0.6725-59.05 1.177 0.2125 7.684 1.279 6.539 8.476 5.783 32.03-1.762 54.98-3.284 83.41-3.879zm-88.82 29.46c-5.18-10.67-5.62-23.24-7.267-35.31-0.2673-11.52-1.257-23.66-0.45-34.23 0.5672-3.373 1.673-5.842 3.43-7.766 1.917-2.419 5.23-5.209 7.884-7.331 6.821-5.711 14.02-10.74 21.58-16.03 9.398-6.367 19.62-10.89 30.82-12.85 7.628-1.759 14.61-1.902 21.73-1.94l13.65-0.13c-0.03696 13.32-0.04002 27.94-1.496 42.87 0 0-1.021 19.42-1.135 30.15-0.06483 6.183-0.00896 12.07 0.2095 17.68 0.8798 12.77 2.119 14.99 3.871 24.4z" style="fill:#000000;stroke-width:1.002"/>
 <path id="rDIn" d="m297.6 121.3c1.942-21.06 4.997-43.74 1.503-66.06-2.497-15.97-5.405-32-8.505-47.79l-76.27 1.815c0.08367 7.941-0.04194 25.17-1.594 42.58-0.7114 11.05-1.189 24.47-1.277 30.18-0.1292 7.224-0.06619 13.08 0.2097 17.68 0.5386 9.171 1.849 14.66 3.872 24z" style="fill:#000000;stroke-width:1.002"/>
 <path id="rDTrim" d="m278.7 58.56c-4.289 0.8453-8.251 0.5804-8.048 2.985 0.374 1.26 2.955 1.381 9.384 1.134 4.05-0.5659 14.49-0.2534 14.52-2.007-0.1276-2.94-4.203-2.877-15.85-2.112zm-67.24 40.76 83.03-2.671c3.171-3.923 1.78-1.73 2.733-5.08l-85.88 3.428m1.195-44.01 0.1858-2.533 85.32-2.311 0.322 2.081zm1.39-38.23-3e-5 -1.91c25.78-0.5985 51.6-2.004 77.33-1.786l0.3838 2.168c-27.09-0.04937-54.53 1.007-77.67 1.53z" style="fill:#ffffff;stroke-width:1.002"/>
 <path id="rD" d="m212.7 48.63c30.58-0.6704 61.59-1.735 85.35-2.259l0.2965 1.774c-13.46 0.1457-83.11 2.718-85.81 2.552 0.01941-0.5284 0.1635-1.65 0.1707-2.068zm78.95-37.48c-26.28-0.317-53.53 0.6754-77.71 1.387l-0.00566-1.512c23.51-0.7407 51.19-1.941 77.36-1.791m-12.69 52.96c-8.237 0.3198-7.003 0.7886-7.058-2.033 3.363-1.446 19.24-2.012 21.69-1.129 0.5025 0.5077 1.15 1.922 0.3217 2.179-2.658 0.8244-11.13 0.4862-14.96 0.9812zm-67.4 32.96c30.25-0.6605 60.28-1.913 84.98-2.576 0.7175 0.4751-0.8462 1.902-2.922 2.912-30.11 0.9946-56.99 3.148-81.91 3.669zm86.78 26.56c1.942-21.06 4.997-44.14 1.503-66.46-2.497-15.97-5.505-32.3-8.604-48.09l-76.97 1.815c0.07162 7.941 0.05775 25.47-1.494 42.88-0.7114 11.05-1.189 24.47-1.277 30.18-0.1292 7.224-0.06619 13.08 0.2097 17.68 0.5387 9.171 1.849 15.06 3.872 24.4z" style="fill:#000000;stroke-width:1.002"/>
</svg>
