<svg width="595" height="159" version="1.1" viewBox="0 0 594.9671 159.0157" xmlns="http://www.w3.org/2000/svg" xmlns:xlink="http://www.w3.org/1999/xlink">
 <defs>
  <linearGradient id="linearGradientSlvr" x1="-1869" x2="-1869" y1="794.4" y2="828" gradientTransform="matrix(1.301,0,0,1.301,1365,-35.3)" gradientUnits="userSpaceOnUse">
   <stop style="stop-color:#696969" offset="0"/>
   <stop style="stop-color:#c7c7c9" offset=".17"/>
   <stop style="stop-color:#f9f9ff" offset=".36"/>
   <stop style="stop-color:#ccccce" offset=".73"/>
   <stop style="stop-color:#696969" offset="1"/>
  </linearGradient>
  <linearGradient id="linearGradient4792" x1="-1405" x2="-1405" y1="704.4" y2="781.4" gradientTransform="scale(.7835 1.276)" gradientUnits="userSpaceOnUse">
   <stop style="stop-color:#1c072d" offset="0"/>
   <stop style="stop-color:#5700aa" offset=".29"/>
   <stop style="stop-color:#4b127b" offset=".64"/>
   <stop style="stop-color:#290a43" offset="1"/>
  </linearGradient>
  <linearGradient id="linearGradient6138" x1="-794.1" x2="-794.1" y1="896" y2="998.9" gradientTransform="matrix(1.001 0 0 1.005 1184 -897.8)" gradientUnits="userSpaceOnUse" xlink:href="#linearGradientSlvr"/>
  <linearGradient id="linearGradient6142" x1="-1405" x2="-1405" y1="704.4" y2="781.4" gradientTransform="matrix(.7834 0 0 1.282 1182 -897.8)" gradientUnits="userSpaceOnUse" xlink:href="#linearGradient4792"/>
  <linearGradient id="linearGradient6146" x1="-1040" x2="-1040" y1="884.3" y2="1076" gradientTransform="matrix(.5121 0 0 .5141 726.4 -448.4)" gradientUnits="userSpaceOnUse">
   <stop style="stop-color:#141414" offset="0"/>
   <stop style="stop-color:#0a0a0a" offset=".15"/>
   <stop style="stop-color:#6d6d6d" offset=".3"/>
   <stop style="stop-color:#000000" offset=".44"/>
   <stop style="stop-color:#141414" offset=".62"/>
   <stop style="stop-color:#262626" offset=".75"/>
   <stop style="stop-color:#040404" offset="1"/>
  </linearGradient>
  <linearGradient id="linearGradient6272" x1="-1869" x2="-1869" y1="794.4" y2="828" gradientTransform="matrix(1.323 0 0 1.311 2580 -931.2)" gradientUnits="userSpaceOnUse" xlink:href="#linearGradientSlvr"/>
 </defs>
 <rect x="-118.2" y="-101.5" width="792" height="365.9" style="fill:#000000"/>
 <path id="p1T" transform="matrix(1 0 0 1 -.04583 0)" d="m326.8 110.1c-4.386-0.02721-8.784 0.65-12.68 1.404l-1.604 0.3125v46.28h9.67c0-6.766-0.01658-13.91-0.02344-20.9 2.366 1.652 4.154 1.361 6.904 1.668 0.5097 0.2205 1.506 1.919 1.967 2.447 1.81 3.116 2.713 6.674 3.43 9.768v0.0371c0.701 2.658 1.498 4.667 2.582 6.971h10.34c-1.275-2.73-2.589-5.751-3.314-8.369-0.4393-1.715-1.053-3.917-1.572-5.514-1.015-3.074-2.287-5.981-4.492-8.066 1.604-1.038 3.061-2.243 4.188-3.764 1.605-2.153 2.43-4.723 2.43-7.473-0.2712-4.209-2.028-8.019-5.014-10.52-3.75-3.035-8.425-4.263-12.81-4.287zm200.9 0.03711c-2.559 0.03935-5.057 0.487-7.393 1.357l-0.00391-0.01172c-5.798 2.455-10.05 7.038-12.38 12.23v0.01953c-2.442 6.902-2.653 14.32-0.2715 20.83v0.02344c2.277 5.706 6.499 10.15 11.82 12.58 5.721 2.179 11.96 2.163 17.21 0h0.02929c5.685-2.626 9.789-7.427 11.91-12.68 2.202-6.479 2.26-13.23 0.3418-19.32-1.991-5.879-6.124-10.69-11.3-13.19-2.903-1.122-5.904-1.739-8.846-1.826l-0.01367 0.0039c-0.3677-0.01096-0.736-0.01539-1.102-0.00976zm-291.6 0.0039l-0.0039 0.00586c-2.245 0-4.339 0.1005-6.289 0.3047-3.037 0.3-5.204 0.692-7.99 1.232v46.24l9.672 0.2012v-19.52c1.201 0.3306 2.373 1.148 3.512 1.193 1.076 0.04425 2.105 0.2301 3.082 0.1426 1.976-0.1748 3.897-0.6129 5.744-1.311 3.743-1.501 6.858-4.08 8.68-7.432 1.782-3.942 1.793-8.251 0.0918-11.89-1.995-3.947-5.479-6.632-9.291-7.975-2.203-0.7997-4.614-1.189-7.207-1.189zm-177.9 0.00196l-0.003906 0.0039c-4.386-0.02621-8.785 0.6496-12.68 1.404l-1.604 0.3125v46.28h9.672v-20.71c1.21 0.2662 2.256 0.7889 3.512 1.037 0.9592 0.1893 2 0.1147 2.936 0.03516 2.484 1.287 3.657 4.95 4.373 7.195 0.5429 1.73 1.032 3.541 1.461 5.436v0.01953c0.7327 2.575 1.503 4.699 2.58 6.988h10.34l-1.264-2.777c-1.742-3.653-2.421-7.387-3.623-11.11v-0.00976c-0.5547-1.859-1.263-3.573-2.137-5.133-0.5912-1.105-1.424-2.053-2.355-2.928 4.016-2.579 6.567-6.901 6.617-11.24-0.271-4.209-2.026-8.021-5.012-10.52-3.75-3.035-8.426-4.261-12.81-4.285zm224.3 0l-0.01171 0.0039c-2.942-0.08718-5.827 0.3522-8.492 1.346l-0.00391-0.01171c-5.798 2.455-10.05 7.038-12.38 12.23v0.01953c-2.444 6.902-2.657 14.32-0.2754 20.83v0.02344c2.277 5.706 6.501 10.15 11.82 12.58 5.721 2.179 11.96 2.163 17.21 0h0.0293c5.685-2.626 9.79-7.428 11.91-12.68 2.2-6.479 2.258-13.23 0.3398-19.32-1.99-5.88-6.124-10.69-11.3-13.19-2.901-1.122-5.902-1.737-8.844-1.824zm-282.3 0.0039v8.215h12.72v38.95h9.729v-38.95h12.78v-8.215h-35.23zm103.5 0l-17.16 47.17h9.941l3.596-10.35h15.15l3.615 10.35h10.36l-17.14-47.17h-8.365zm32.68 0v47.17h8.83v-30.81l19.47 30.81h8.184v-47.17h-9.01v29.6l-18.69-29.6h-8.785zm59.92 0c-3.831 0.09575-7.456 1.283-10.11 3.676-2.552 2.484-3.91 5.696-4.006 9.053 0.1683 4.789 2.52 8.433 6.008 11.09l0.01562 0.00976 0.01367 0.00977c3.182 2.344 6.637 3.677 9.844 5.613 2.419 1.415 3.725 3.083 4.283 5.643 0 1.565-0.4913 2.674-1.693 3.777-3.202 2.036-6.427 1.702-9.729 1.072-1.647-0.3268-3.306-0.8534-4.982-1.592l-1.885-0.8301-3.014 7.471 1.672 0.7949c2.291 1.088 4.657 1.762 6.977 2.242 2.177 0.383 4.277 0.5614 6.361 0.6289 4.417-0.105 8.689-1.269 11.82-4.006 2.731-2.574 4.359-5.96 4.389-9.438-0.161-4.864-2.528-8.609-6.059-11.32-3.238-2.385-6.722-3.951-9.957-5.887-1.383-0.8295-2.482-1.708-3.33-2.613-1.141-1.522-1.053-2.759-0.6992-4.395 1.069-1.978 2.678-2.503 4.682-2.723 2.783 0.0887 5.488 0.4827 8.066 1.225l1.719 0.5137 3.145-7.494-2.074-0.6465c-3.82-1.181-7.746-1.862-11.45-1.873l-0.00586-0.00196zm157 0v8.215h12.72v38.95h9.73v-38.95h12.78v-8.215h-35.23zm57.44 0l-17.15 47.17h9.939l3.598-10.35h15.15l3.617 10.35h10.35l-17.14-47.17h-8.359zm30.36 0v8.215h12.72v38.95h9.729v-38.95h12.78v-8.215h-35.23zm46.84 0v47.17h9.488v-47.17h-9.488zm70.71 0v47.17h8.83v-30.81l19.47 30.81h8.184v-47.17h-9.012v29.6l-18.69-29.6h-8.785zm-30.46 8.113c3.452 0.1168 6.442 1.74 8.41 4.139 2.586 3.574 3.622 7.846 3.705 12.03-0.1245 4.266-1.052 8.462-3.498 11.72l-0.01563 0.00977-0.01562 0.01562c-2.179 2.727-5.26 4.378-8.604 4.488-3.566-0.09172-6.539-1.832-8.568-4.303-2.591-3.608-3.528-7.94-3.547-11.92 0.09528-4.394 1.106-8.693 3.703-12.04 2.492-2.294 5.609-4.063 8.428-4.137l0.00195-0.01172zm-470 0.1562v0.00586h0.01562c2.19-0.01865 3.906 0.8458 5.594 1.959 1.447 1.247 1.935 2.72 2.203 4.457 0 1.945-0.923 3.419-2.064 4.701-1.387 1.209-2.846 2.387-4.594 2.652-1.616 0.0494-2.987 0.8346-4.219 1.818-0.6253 0.4999-1.533 2.217-1.533 1.488v-16.8c1.533-0.2996 3.252-0.2691 4.598-0.2812zm177.9 0l0.00196 0.00391c2.205-0.03024 3.972 0.7422 5.57 1.986 1.605 1.248 2.119 3.029 2.229 4.787-0.2889 4.021-3.389 6.016-6.715 7.006-1.651 0.3313-2.549 0.6832-3.934 1.488-0.7823 0.4543-1.454 1.713-1.758 2.486v-17.51c1.611-0.102 3.263-0.2474 4.605-0.252zm90.14 0.00586c1.323 0.04978 2.594 0.2189 3.678 0.4805h0.0293c2.805 1.283 4.664 3.08 4.711 5.885 0.04993 3.022-1.559 5.319-3.867 6.557-1.264 1.161-4.831 0.815-6.434 2.176-1.857 1.576-1.933 2.275-2.152 3.287-0.00573-6.34-0.00365-12.57 0.03906-18.15 1.297-0.2182 2.673-0.2881 3.996-0.2383zm-44.56 0.05274c3.329 0.08366 6.557 1.603 8.521 3.924l0.00391-0.00196c2.587 3.575 3.62 7.845 3.703 12.04-0.1241 4.266-1.05 8.46-3.496 11.72l-0.01367 0.00977-0.01563 0.01757c-2.179 2.728-5.265 4.376-8.609 4.486-3.566-0.09172-6.539-1.83-8.568-4.301-2.591-3.608-3.528-7.942-3.547-11.92 0.02309-5.859 2.705-12.61 7.527-15.12 1.447-0.6143 2.981-0.8721 4.494-0.834v-0.01367zm-174 6.82l6.264 17.44c-0.9734-1.28-2.985-3.98-4.715-3.98h-6.283l4.734-13.46zm307.1 0l6.27 17.24c-1.147-1.326-1.395-3-4.592-3.498l-6.412-0.293 4.734-13.45z" style="fill:#290a43;stroke-width:1.012"/>
 <path id="s1T" transform="matrix(1 0 0 1 -.04583 0)" d="m236.1 111.7c-2.2 0-4.239 0.09865-6.119 0.2969-1.88 0.1586-3.94 0.4565-6.18 0.8926v42.69l5.699 0.1191v-39.31c2.16-0.2379 4.36-0.3555 6.6-0.3555 1.36 0 2.621 0.2182 3.781 0.6543 1.2 0.4361 2.239 1.049 3.119 1.842 0.88 0.7929 1.58 1.725 2.1 2.795 0.52 1.07 0.7812 2.22 0.7812 3.449 0 1.269-0.2613 2.439-0.7812 3.51-0.52 1.031-1.199 1.941-2.039 2.734-0.8 0.7533-1.72 1.349-2.76 1.785-1.04 0.4361-2.081 0.6543-3.121 0.6543-1.28 0-2.379 0.3567-3.299 1.07-0.88 0.674-1.54 1.526-1.98 2.557 1.12 0.3171 2.18 0.4956 3.18 0.5352 1 0.03971 1.94 0.01873 2.82-0.06055 1.8-0.1585 3.539-0.5551 5.219-1.189 1.68-0.6343 3.18-1.486 4.5-2.557 1.32-1.11 2.361-2.417 3.121-3.924 0.7994-1.505 1.199-3.21 1.199-5.111v-0.00195-0.00196c-5.6e-4 -1.783-0.3812-3.466-1.141-5.051-0.72-1.586-1.78-2.973-3.18-4.162-1.36-1.189-3.019-2.121-4.979-2.795-1.96-0.7136-4.141-1.07-6.541-1.07zm253.8 0.08594v43.23h5.52v-43.23zm-431.6 0.1484c-2.2 0-4.239 0.1196-6.119 0.3574-1.88 0.2379-3.94 0.5737-6.18 1.01v42.7h5.699v-39.19c1.44-0.2774 2.621-0.435 3.541-0.4746 0.92-0.03965 1.939-0.06054 3.059-0.06054 1.36 0 2.621 0.2182 3.781 0.6543 1.2 0.4361 2.239 1.032 3.119 1.785 0.88 0.7532 1.58 1.645 2.1 2.676 0.52 0.9911 0.7793 2.08 0.7793 3.27 0 1.229-0.2593 2.36-0.7793 3.391-0.52 1.031-1.199 1.923-2.039 2.676-0.8 0.7136-1.72 1.289-2.76 1.725-1.04 0.4361-2.081 0.6733-3.121 0.7129-1.28 0.03964-2.379 0.3964-3.299 1.07-0.88 0.674-1.54 1.526-1.98 2.557 1.12 0.2776 2.18 0.4559 3.18 0.5352 1 0.03971 1.94 0.02069 2.82-0.0586 0.24 0 0.4191-0.01888 0.5391-0.05859 1.56 0.5947 2.76 1.585 3.6 2.973 0.88 1.388 1.6 2.974 2.16 4.758 0.56 1.784 1.06 3.647 1.5 5.59 0.48 1.943 1.12 3.766 1.92 5.471h6c-0.92-2.022-1.64-3.986-2.16-5.889-0.48-1.943-0.9986-3.766-1.559-5.471-0.52-1.744-1.181-3.329-1.98-4.756-0.76-1.427-1.879-2.638-3.359-3.629l-1.201-0.4746 1.439-0.4766c2.08-1.031 3.782-2.437 5.102-4.221 1.36-1.824 2.039-3.926 2.039-6.305v-0.1172c0-1.705-0.3807-3.331-1.141-4.877-0.72-1.546-1.78-2.893-3.18-4.043-1.36-1.189-3.019-2.121-4.979-2.795-1.96-0.6739-4.141-1.012-6.541-1.012zm268.5 0c-2.2 0-4.241 0.1196-6.121 0.3574-1.88 0.2379-3.94 0.5737-6.18 1.01v42.7h5.701v-39.19c1.44-0.2774 2.619-0.435 3.539-0.4746 0.92-0.03965 1.941-0.06054 3.061-0.06054 1.36 0 2.619 0.2182 3.779 0.6543 1.2 0.4361 2.239 1.032 3.119 1.785 0.88 0.7532 1.582 1.645 2.102 2.676 0.52 0.9911 0.7793 2.08 0.7793 3.27 0 1.229-0.2593 2.36-0.7793 3.391-0.52 1.031-1.201 1.923-2.041 2.676-0.8 0.7136-1.72 1.289-2.76 1.725-1.04 0.4361-2.079 0.6733-3.119 0.7129-1.28 0.03964-2.381 0.3964-3.301 1.07-0.88 0.674-1.54 1.526-1.98 2.557 1.12 0.2776 2.182 0.4559 3.182 0.5352 1 0.03971 1.938 0.02069 2.818-0.0586 0.24 0 0.421-0.01888 0.541-0.05859 1.56 0.5947 2.76 1.585 3.6 2.973 0.88 1.388 1.6 2.974 2.16 4.758 0.56 1.784 1.06 3.647 1.5 5.59 0.48 1.943 1.12 3.766 1.92 5.471h6c-0.92-2.022-1.64-3.986-2.16-5.889-0.48-1.943-1.001-3.766-1.561-5.471-0.52-1.744-1.18-3.329-1.98-4.756-0.76-1.427-1.879-2.638-3.359-3.629l-1.199-0.4746 1.439-0.4766c2.08-1.031 3.78-2.437 5.1-4.221 1.36-1.824 2.039-3.926 2.039-6.305v-0.1172c0-1.705-0.3787-3.331-1.139-4.877-0.72-1.546-1.78-2.893-3.18-4.043-1.36-1.189-3.021-2.121-4.98-2.795-1.96-0.6739-4.139-1.012-6.539-1.012zm-161 0.127v33.42l0.1191 2.08-0.7207-1.961-21.18-33.53h-5.699v43.23h4.859v-34.55l-0.1191-2.021 0.8398 2.021 21.84 34.54h5.1v-43.23zm422.3 0v33.42l0.1211 2.08-0.7207-1.961-21.18-33.53h-5.699v43.23h4.859v-34.55l-0.1192-2.021 0.8398 2.021 21.84 34.54h5.1v-43.23zm-477.6 0.01757-5.58 0.00977-15.72 43.23h5.699l3.6-10.35h15.12c-0.44-1.15-1.039-2.14-1.799-2.973-0.76-0.8722-1.861-1.309-3.301-1.309h-8.1l-0.7207 0.1191 0.6602-1.25 6.721-19.09 0.4199-1.725 0.4199 1.725 12.18 34.84h6.121zm307.2 0-5.58 0.00977-15.72 43.23h5.699l3.6-10.35h15.12c-0.44-1.15-1.039-2.14-1.799-2.973-0.76-0.8722-1.861-1.309-3.301-1.309h-8.1l-0.7188 0.1191 0.6582-1.25 6.721-19.09 0.4199-1.725 0.4199 1.725 12.18 34.84h6.121zm-221.5 0.2949c-1.8 0-3.44 0.279-4.92 0.834s-2.76 1.327-3.84 2.318c-1.08 0.9911-1.922 2.141-2.521 3.449-0.56 1.308-0.8398 2.695-0.8398 4.162 0 2.22 0.5 4.083 1.5 5.59 0.9999 1.506 2.241 2.816 3.721 3.926 1.48 1.07 3.099 2.04 4.859 2.912 1.76 0.8325 3.379 1.705 4.859 2.617 1.48 0.9118 2.721 1.942 3.721 3.092 1 1.11 1.5 2.518 1.5 4.223 0 2.061-0.7799 3.805-2.34 5.232-1.56 1.388-3.76 2.082-6.6 2.082-1.4 0-3.019-0.1784-4.859-0.5352-1.8-0.3568-3.6-0.9317-5.4-1.725l-1.561 3.865c1 0.4757 2.06 0.8912 3.18 1.248 1.12 0.3568 2.221 0.6358 3.301 0.834 1.08 0.1982 2.14 0.3367 3.18 0.416 1.04 0.1189 1.98 0.1777 2.82 0.1777 2.28 0 4.299-0.3169 6.059-0.9512s3.24-1.486 4.439-2.557c1.24-1.07 2.16-2.3 2.76-3.688 0.64-1.388 0.9609-2.814 0.9609-4.281 0-2.26-0.5-4.163-1.5-5.709s-2.259-2.893-3.779-4.043c-1.52-1.15-3.16-2.161-4.92-3.033-1.72-0.9118-3.339-1.825-4.859-2.736s-2.781-1.902-3.781-2.973c-1-1.11-1.5-2.438-1.5-3.984 0-0.8722 0.1399-1.684 0.4199-2.438 0.32-0.793 0.7809-1.487 1.381-2.082 0.6-0.5947 1.32-1.05 2.16-1.367 0.88-0.3568 1.88-0.5352 3-0.5352s2.4 0.09866 3.84 0.2969c1.48 0.1586 3.079 0.4964 4.799 1.012l1.621-3.865c-2.04-0.6343-3.941-1.092-5.701-1.369-1.72-0.2775-3.438-0.416-5.158-0.416zm85.64 0.00586c-2.36 0-4.739 0.4573-7.139 1.369-2.36 0.9118-4.521 2.299-6.48 4.162-1.96 1.863-3.559 4.203-4.799 7.018-1.2 2.814-1.801 6.124-1.801 9.93 0 3.528 0.5206 6.68 1.561 9.455 1.08 2.775 2.52 5.134 4.32 7.076 1.84 1.903 3.98 3.37 6.42 4.4 2.48 1.031 5.118 1.547 7.918 1.547 2.72 0 5.3-0.5161 7.74-1.547 2.44-1.07 4.58-2.577 6.42-4.52 1.88-1.982 3.36-4.341 4.439-7.076 1.08-2.775 1.621-5.887 1.621-9.336-1e-5 -3.053-0.4404-5.946-1.32-8.682s-2.18-5.115-3.9-7.137c-1.72-2.061-3.84-3.686-6.359-4.875-2.52-1.189-5.401-1.785-8.641-1.785zm246.4 0c-2.36 0-4.741 0.4573-7.141 1.369-2.36 0.9118-4.521 2.299-6.48 4.162-1.96 1.863-3.559 4.203-4.799 7.018-1.2 2.814-1.801 6.124-1.801 9.93 0 3.528 0.5206 6.68 1.561 9.455 1.08 2.775 2.52 5.134 4.32 7.076 1.84 1.903 3.98 3.37 6.42 4.4 2.48 1.031 5.12 1.547 7.92 1.547 2.72 0 5.298-0.5161 7.738-1.547 2.44-1.07 4.58-2.577 6.42-4.52 1.88-1.982 3.36-4.341 4.439-7.076 1.08-2.775 1.621-5.887 1.621-9.336 0-3.053-0.4404-5.946-1.32-8.682-0.88-2.735-2.18-5.115-3.9-7.137-1.72-2.061-3.84-3.686-6.359-4.875s-5.399-1.785-8.639-1.785zm-526.1 0.05468v4.281h12.72v38.95h5.76v-38.95h12.78v-4.281zm353 0v4.281h12.72v38.95h5.76v-38.95h12.78v-4.281zm87.79 0v4.281h12.72v38.95h5.76v-38.95h12.78v-4.281zm-161.1 4.285c1.92 0 3.741 0.4175 5.461 1.25 1.72 0.8325 3.22 2.041 4.5 3.627 1.28 1.586 2.28 3.508 3 5.768 0.76 2.22 1.139 4.719 1.139 7.494 0 2.537-0.3396 4.915-1.02 7.135-0.68 2.22-1.639 4.144-2.879 5.77-1.2 1.625-2.681 2.914-4.441 3.865-1.72 0.9515-3.64 1.426-5.76 1.426-2.04 0-3.919-0.4345-5.639-1.307-1.72-0.9118-3.22-2.162-4.5-3.748-1.24-1.625-2.219-3.548-2.939-5.768-0.68-2.22-1.02-4.677-1.02-7.373 0-2.775 0.3582-5.274 1.078-7.494 0.76-2.26 1.781-4.182 3.061-5.768 1.28-1.586 2.78-2.794 4.5-3.627 1.72-0.8325 3.539-1.25 5.459-1.25zm246.4 0c1.92 0 3.739 0.4175 5.459 1.25 1.72 0.8325 3.22 2.041 4.5 3.627 1.28 1.586 2.28 3.508 3 5.768 0.76 2.22 1.139 4.719 1.139 7.494 0 2.537-0.3396 4.915-1.02 7.135-0.68 2.22-1.639 4.144-2.879 5.77-1.2 1.625-2.682 2.914-4.441 3.865-1.72 0.9515-3.638 1.426-5.758 1.426-2.04 0-3.921-0.4345-5.641-1.307-1.72-0.9118-3.22-2.162-4.5-3.748-1.24-1.625-2.219-3.548-2.939-5.768-0.68-2.22-1.02-4.677-1.02-7.373 0-2.775 0.3601-5.274 1.08-7.494 0.76-2.26 1.779-4.182 3.059-5.768 1.28-1.586 2.78-2.794 4.5-3.627 1.72-0.8325 3.541-1.25 5.461-1.25z" style="fill:url(#linearGradient6272);stroke-width:1.012"/>
 <path id="rsO" transform="matrix(1 0 0 1 -.04583 0)" d="m178.3 4.027c-7.345 0.176-14.55 2.36-19.8 6.807-5.315 4.714-7.801 11.35-7.846 17.75 0.07459 9.195 5.053 16.34 11.56 21.35 6.948 5.087 14.68 8.157 21.54 12.41 6.235 3.605 11.62 9.122 11.7 15.88-0.1476 4.385-2.073 8.246-5.049 10.94-4.054 3.151-9.076 4.38-13.69 4.404-8.303-0.1695-16.43-2.165-23.39-5.336l-3.855 9.74c4.963 2.403 9.968 4.048 15.02 4.938 8.994 1.725 18.63 2.15 26.85-0.5332 7.117-2.628 13.35-7.313 16.35-13.75 3.161-7.427 2.938-16.64-1.062-23.09-4.861-7.384-12.05-12.49-19.27-16.15-6.904-3.846-14.02-7.266-19.27-12.68-4.628-5.531-3.899-13.45 0.5312-18.02 6.079-5.014 12.86-4.128 19.54-3.203 3.279 0.3561 6.87 1.113 10.77 2.27l3.986-9.609c-8.17-2.563-16.45-4.092-24.6-4.129zm82.31 0.166c-19.15 0.06957-34.58 10.43-41.93 29.67-4.653 12.62-4.967 27.64-0.1836 40.88 11.2 25.89 36.86 35.71 60.48 25.89 25.06-13.64 32.11-41.12 24.72-65.67-3.769-12.69-11.97-22.35-22.86-27.36-7.05-2.317-13.85-3.437-20.23-3.414zm128.4 1.5-14.35 0.003906 0.2012 60.66c0.1518 10.4 3.061 20.58 9.703 27.75 7.447 7.375 17.67 10.22 26.99 10.28 10.16-0.109 19.81-3.669 26.44-10.41 7.101-7.826 10.05-18.12 10.1-27.62v-60.66h-14.22v62.8c-0.09859 6.842-1.942 13.64-6.25 18.42-4.36 4.563-10.39 6.633-16.08 6.672-6.348-0.04868-12.17-2.486-16.22-6.672-4.437-5.335-6.082-12.2-6.115-18.42zm-359.8 0.07227c-5.814-0.06477-11.54 0.4457-17.14 1.459-2.393 0.3561-5.006 0.7982-7.842 1.332v95.83h14.49v-86.88c4.552-0.9456 9.577-1.067 13.69-1.07 5.414 0.1901 10.75 1.921 14.62 5.207 3.713 3.412 6.072 8.149 6.113 12.81-0.138 4.967-2.299 9.511-5.582 12.68-3.102 2.639-7.371 5.541-10.86 5.74-2.836 0.1778-5.23 1.399-7.18 3.268-1.95 1.868-3.013 2.96-3.988 5.273 2.038 0.5338 3.557 0.5996 5.418 0.7773 2.825 0.1779 5.35 0.2596 8.008-0.009766 3.19 1.512 4.57 4.525 6.342 7.639 3.865 7.321 6.004 15.27 7.709 22.69 0.9748 4.181 2.348 8.14 4.121 11.88h15.02c-4.22-8.756-5.669-18.09-8.508-26.69-2.508-7.756-6.991-15.06-13.69-18.42l3.322-1.205c4.52-2.313 8.154-5.47 10.9-9.475 4.81-8.228 5.331-17.69 1.459-25.62-3.942-7.833-11.29-12.77-18.74-15.21-5.961-1.286-11.87-1.925-17.68-1.99zm52.95 1.596v97.02h57.95v-10.81h-43.46v-75.41h41.47v-10.8zm233.5 0v97.02h53.3c-0.1008-3.617 0.1296-7.636 0.1328-10.94h-38.82v-86.08zm140.6 0v10.81h27.26v86.21h14.62v-86.21h27.39v-10.81zm77.49 0v97.02h57.96v-10.81h-43.46v-75.41h41.47v-10.8zm-272.3 7.197c7.873-0.1138 15.5 3.355 20.94 10.68 11.07 16.11 11.1 41.75 0.1348 57.12-10.27 15.98-32.99 14.37-43.6-0.1309-10.77-17.18-10.77-41.88 0.1328-56.85 6.404-7.008 14.52-10.7 22.39-10.82zm-145.4 34.24c-2.624 0.105-4.901 0.968-6.695 2.736-1.804 1.989-3.373 4.411-4.121 6.605h30.7v-9.34l-18.74-0.001954c-0.3887-0.01555-0.7696-0.015-1.145 0zm451.6 0c-2.624 0.105-4.899 0.968-6.693 2.736-1.804 1.989-3.373 4.411-4.121 6.605h30.7v-9.34l-18.74-0.001954c-0.3887-0.01555-0.7716-0.015-1.146 0z" style="fill:url(#linearGradient6138);stroke-width:7.283;stroke:url(#linearGradient6138)"/>
 <path id="rpO" transform="matrix(1 0 0 1 -.04583 0)" d="m261.9 3.482c-6.254-0.1289-12.46 1.01-18.56 3.482-12.22 4.945-20.07 14.28-23.72 22.99-3.652 8.713-4.938 15.87-4.938 23.97 0.0598 19.52 10.99 40.49 27.58 47.28 12.17 4.667 25.8 4.61 37.26-0.3652 25.06-13.64 31.91-41.32 24.52-65.87-3.769-12.69-12.37-22.35-23.26-27.36-6.319-2.598-12.63-3.996-18.88-4.125zm-83.71 0.3398c-7.329 0.187-14.82 2.574-20.06 7.012-5.315 4.714-8 11.35-8.045 17.75 0.07459 9.195 5.253 16.34 11.76 21.35 6.948 5.087 14.98 8.256 21.84 12.51 6.235 3.605 11.42 9.022 11.5 15.78-0.1476 4.385-2.075 8.246-5.051 10.94-4.053 3.151-8.875 4.181-13.49 4.205-8.303-0.1694-16.73-2.167-23.69-5.338l-3.855 10.24c9.218 4.118 18.94 6.359 28.61 6.406 8.74-0.1036 17.58-2.621 23.96-7.906 5.512-4.84 8.455-11.74 8.508-18.42-0.09186-9.359-5.064-16.87-11.7-22.02-6.965-5.394-15.04-8.795-22.1-13.08-5.891-3.55-11.61-8.624-11.7-15.21 0.3357-8.582 7.731-13.24 14.75-13.32 6.729 0.2435 13.52 1.31 19.41 3.039l3.986-9.609c-8.168-2.604-16.76-4.318-24.64-4.334zm-147 1.361c-1.596-0.0208-3.131 0.02369-4.584 0.125-7.865 0.4947-16.11 1.628-23.14 2.947v96.53h15.59v-87.08c4.552-0.9456 9.176-1.067 13.29-1.07 7.694 0.09174 15.65 4.727 18.81 10.95 2.19 4.606 2.206 9.69 0.1328 13.95-2.095 4.288-5.605 7.618-9.57 9.475-2.127 0.8896-3.653 1.379-5.779 1.469-2.836 0.1778-5.228 1.2-7.178 3.068-1.95 1.868-3.414 3.96-4.389 6.273 2.038 0.5338 3.991 0.6914 5.852 0.8691 2.82 0.1832 5.323 0.2688 7.975 0 6.666 3.712 9.219 11.28 11.13 17.68 2.661 8.254 3.987 17.06 7.443 24.43h15.62c-4.22-8.756-5.67-18.49-8.508-27.09-2.498-7.935-7.106-14.97-13.99-18.42 6.066-1.642 11.59-6.34 14.62-10.68 4.81-8.228 5.331-17.99 1.459-25.93-3.983-8.026-11.46-12.7-19.14-15.21-5.489-1.55-10.85-2.209-15.64-2.271zm358.2 0.2109-15.15 0.003906 0.2012 61.46c0.1518 10.4 3.461 20.58 10.1 27.75 7.447 7.375 17.67 10.22 26.99 10.28 10.16-0.109 19.81-3.669 26.44-10.41 7.101-7.826 10.45-18.12 10.5-27.62v-61.46h-15.02v62.9c-0.09859 6.842-1.542 13.64-5.85 18.42-4.36 4.563-10.39 6.632-16.08 6.67-6.348-0.04868-12.17-2.484-16.22-6.67-4.437-5.335-5.682-12.2-5.715-18.42zm66.25 1.166v11.91h27.56v86.21h15.22v-86.21h27.39v-11.91zm77.69 0.2012v97.92h58.85v-11.71h-43.56v-74.51h41.58v-11.7zm-451.7 0.1992v97.72h58.75v-11.31h-43.57v-75.01h41.78v-11.4zm233.3 0v97.92h54.4c-0.1008-3.617 0.1296-8.537 0.1328-11.84h-38.82v-86.08zm-55.04 7.793c21.78-0.06666 30.4 18.06 30.92 39.17-1.127 19.7-9.729 38.89-29.98 39.44-19.64-0.1973-28.24-19.72-29.8-39.43 1.389-19.97 9.116-37.85 28.87-39.18zm308 32.85c-3.134 0.05548-5.798 1.912-7.838 3.938-2.073 2.083-3.265 4.948-4.123 7.506h32.6v-11.44zm-451.6 0.6016c-3.134 0.05548-5.798 1.31-7.838 3.336-2.073 2.083-3.265 4.747-4.123 7.305h32.3v-10.64z" style="fill:url(#linearGradient6142);stroke-width:3.571;stroke:url(#linearGradient6142)"/>
 <path id="rbO" transform="matrix(1 0 0 1 -.04583 0)" d="m261.4 3.629c-6.082-0.1091-11.86 1.007-17.62 3.287l0.0039 0.001953c-12.31 5.144-20.96 15.01-24.81 25.57-5.582 14.02-4.669 30.5-0.4023 42.23 4.502 11.97 13.13 21.39 23.89 26.11 27.14 9.105 50.47-1.123 60.51-26.51 8.422-27.93 0.5497-55.49-22.16-66.62-6.954-2.625-13.34-3.959-19.42-4.068zm-83.13 0.5039c-3.818 0.0382-7.535 0.506-11 1.762-6.855 2.329-11.81 6.668-14.63 12.68-3.07 7.272-2.644 16.32 1.33 22.55 2.217 3.381 4.963 6.317 8.242 8.809 7.489 5.48 14.35 7.85 21.54 12.41 7.692 4.149 14.55 13.47 10.37 21.89-5.862 10.58-18.5 9.905-28.31 8.141-4.078-0.8008-8.244-2.177-12.49-4.135l-3.857 9.742c4.964 2.403 9.972 4.047 15.03 4.937 9.236 1.874 18.03 2.253 26.87-0.5352 7.402-2.743 13.11-6.787 16.35-13.75 3.16-7.426 2.942-16.65-1.061-23.09-4.87-7.735-12.06-12.49-19.28-16.15-6.901-3.847-13.85-7.089-19.28-12.68-5.056-5.7-3.905-13.89 0.5332-18.02 8.574-6.564 21.18-3.669 30.31-0.9316l3.986-9.613c-4.876-1.512-9.22-2.578-13.04-3.201-3.87-0.4649-7.788-0.8566-11.61-0.8184zm-145.6 1.461c-8.717-0.069-20.07 1.441-28.19 3.076v95.82h14.5v-86.88c4.553-0.9446 9.577-1.065 13.69-1.068 2.836 0 5.499 0.4877 7.98 1.467 7.62 2.781 12.67 9.197 12.77 16.55-0.0402 7.671-5.437 13.78-11.17 16.55-2.127 0.8896-4.254 1.379-6.381 1.469-2.836 0.1778-5.228 1.201-7.178 3.07-1.95 1.868-3.416 3.958-4.391 6.271 2.038 0.5338 3.991 0.891 5.852 1.068 2.412 0.2276 4.381 0.1309 6.648 0.1309 0.4433 0 0.8861-0.04122 1.33-0.1309 3.191 1.512 5.672 3.823 7.445 6.938 3.865 7.317 6.005 15.27 7.711 22.69 0.9749 4.181 2.348 8.139 4.121 11.88h15.03c-2.128-4.627-3.768-9.207-4.92-13.75-2.104-8.398-4.198-16.87-8.643-23.76-1.95-3.203-4.831-5.737-8.643-7.605l3.324-1.205c4.521-2.313 8.158-5.471 10.9-9.475 5.11-7.743 5.327-17.69 1.459-25.62-3.951-7.846-11.31-12.77-18.75-15.21-4.343-1.512-9.174-2.27-14.5-2.27zm341.9 0.001953v60.86c0.1335 11.86 3.075 20.61 9.703 27.77 8.641 8.155 17.98 10.22 27.29 10.28 11.34 0.00898 19.8-3.648 26.45-10.41 7.933-8.415 10.05-18.11 10.1-27.62v-60.86h-14.53v62.99c-0.09907 7.267-1.949 13.65-6.252 18.42-4.563 5.064-9.68 6.513-15.79 6.672-6.342-0.04845-11.62-1.938-16.22-6.672-4.852-5.808-6.08-12.19-6.113-18.42v-62.99zm-292.4 1.766v97.02h57.96v-10.8h-43.46v-75.41h41.49v-10.8zm233.5 0v97.12h53.31c-0.1014-3.617 0.1296-7.636 0.1328-10.94h-38.83v-86.18zm140.6 0v10.81h27.25v86.21h14.63v-86.21h27.39v-10.81zm77.49 0v97.02h57.96v-10.8h-43.46v-75.41h41.49v-10.8zm-273.2 7.264c4.159 0.08031 8.465 1.129 12.71 3.225 18.54 9.175 20.22 35.27 15.34 51.94-5.549 18.83-22.17 30.88-40.2 20.78-18.6-11.61-20.8-35.03-15.66-52.62 4.176-15.1 15.33-23.57 27.81-23.33zm307.4 33.38c-1.684 0-3.39 0.5117-4.719 1.135-4.045 2.173-5.995 5.397-7.447 9.809h32.41v-10.94zm-451.6 0.2012c-1.684 0-3.191 0.3105-4.52 0.9336-4.045 2.173-5.995 5.196-7.447 9.607h31.91v-10.54z" style="fill:url(#linearGradient6146);stroke-width:1.002"/>
</svg>
