<svg id="mbzRDoor" viewBox="118.783 62.44 58.138 50.044" xmlns="http://www.w3.org/2000/svg">
 <path id="rDIn" d="m121.5 19.1c0.6159-5.059 1.578-10.19 2.604-15.82 3.594-0.1483 17.4-0.2091 27.64 2.005 4.008 1.035 16.27 5.448 22.01 13.78-17.34-0.445-34.7-0.1538-52.26 0.0344zm-1.636 33.35 38.39-0.5387c-0.2185-0.04848 1.637-7.404 3.646-10.77 1.428-2.59 3.003-4.597 6.026-7.186l6.983-6.702c2.177-2.16 2.339-2.758 3.255-4.821 0.1076-0.9647-0.02072-1.613-0.3714-2.292-16.85-0.07906-34.9-0.3293-56.43 0.138-0.393 2.182-1.173 4.463-1.309 6.747-0.5886 3.421-0.8484 7.035-0.9092 10.93-0.4371 4.886-0.3964 7.415-0.1216 10.5 0.2064 0.9805 0.6601 3.142 0.8445 3.995z" style="fill:#000000"/>
 <path id="rDTrim" d="m121.3 20.28c18.56-0.4029 37.66-0.1636 56.43-0.138-2.298-5.008-16.79-14.57-27.01-16.22-8.786-1.734-17.55-1.478-26.51-1.517-0.05347 0.375-0.1216 0.5821-0.1576 0.876-0.7281 5.943-2.134 12.2-2.748 17zm36.13 31.63c0.1146-0.4523 0.02793-0.9021-1.018-1.325l-36.82 0.7399 0.2423 1.124zm3.227-29.83-0.06166 1.942 10.79 0.1357 0.3638-2.264z" style="fill:#cccccc"/>
 <path id="rDoor" d="m166.1 22.12c2.551 0.2554 4.946-0.3199 5.209 1.028 0.1074 1.17-2.025 0.5966-5.249 0.6753-3.229-0.1042-5.406 0.2176-5.278-0.6645 0.06939-1.162 1.84-0.8657 5.319-1.039zm-44.63-3.025c0.6159-5.059 1.578-10.19 2.604-15.82 3.594-0.1483 17.4-0.2091 27.64 2.005 4.008 1.035 16.27 5.448 22.01 13.78-17.34-0.445-34.7-0.1538-52.26 0.0344zm-1.863 32.22 36.4-0.7322c1.188-0.02105 1.691 1.166 1.413 1.314l0.801 0.01343c-0.2185-0.04848 1.637-7.404 3.646-10.77 1.428-2.59 3.003-4.597 6.026-7.186l6.983-6.702c2.177-2.16 2.339-2.758 3.255-4.821 0.1076-0.9647-0.02072-1.613-0.3714-2.292-16.85-0.07906-34.9-0.3293-56.43 0.138-0.393 2.182-1.173 4.463-1.309 6.747-0.5886 3.421-0.8484 7.035-0.9092 10.93-0.4371 4.886-0.3964 7.415-0.1216 10.5 0.1479 0.7218 0.4149 1.93 0.6232 2.871z" style="fill:#000000"/>
</svg>
