<svg id="rDoor" width="59.39" height="50.04" version="1.1" viewBox="0 0 15.712332 13.24077" xmlns="http://www.w3.org/2000/svg">
 <path id="rDIn" d="m0.711 4.416c0.163-1.339 0.4175-2.696 0.689-4.186 0.9509-0.0392 4.604-0.0553 7.313 0.5305 1.06 0.2738 4.305 1.441 5.823 3.646-4.588-0.1177-9.181-0.0407-13.83 9e-3zm-0.4328 8.825 10.16-0.1421c-0.05781-0.0128 0.4331-1.959 0.9647-2.85 0.3778-0.6853 0.7945-1.216 1.594-1.901l1.848-1.773c0.576-0.5715 0.6189-0.7297 0.8612-1.276 0.02847-0.2552-0.0055-0.4268-0.09827-0.6064-4.458-0.021-9.234-0.0872-14.93 0.0365-0.104 0.5773-0.3104 1.181-0.3463 1.785-0.1557 0.9051-0.2245 1.861-0.2406 2.892-0.1156 1.293-0.1049 1.962-0.03217 2.778 0.05452 0.2591 0.1749 0.8324 0.2234 1.056z" style="fill:#000000;stroke-width:.2646"/>
 <path id="rDTrim" d="m0.666 4.729c4.911-0.1066 9.964-0.0433 14.93-0.0365-0.608-1.325-4.442-3.855-7.146-4.292-2.325-0.4588-4.643-0.391-7.014-0.4014-0.01416 0.0992-0.03217 0.154-0.0417 0.2318-0.1926 1.572-0.5646 3.228-0.7271 4.498zm9.559 8.369c0.03032-0.1197 0.0074-0.2387-0.2693-0.3506l-9.736 0.1963 0.05855 0.2969zm0.8538-7.893-0.01632 0.5138 2.855 0.0359 0.09626-0.599z" style="fill:#cccccc;stroke-width:.2646"/>
 <path id="rD" d="m12.52 5.216c0.675 0.0676 1.309-0.0846 1.378 0.272 0.02842 0.3096-0.5358 0.1578-1.389 0.1787-0.8543-0.0276-1.43 0.0576-1.396-0.1758 0.01836-0.3074 0.4868-0.229 1.407-0.2749zm-11.81-0.8004c0.163-1.339 0.4175-2.696 0.689-4.186 0.9509-0.0392 4.604-0.0553 7.313 0.5305 1.06 0.2738 4.305 1.441 5.823 3.646-4.588-0.1177-9.181-0.0407-13.83 9e-3zm-0.4929 8.525 9.631-0.1937c0.3143-6e-3 0.4474 0.3085 0.3739 0.3477l0.2119 4e-3c-0.05781-0.0128 0.4331-1.959 0.9647-2.85 0.3778-0.6853 0.7945-1.216 1.594-1.901l1.848-1.773c0.576-0.5715 0.6189-0.7297 0.8612-1.276 0.02847-0.2552-0.0055-0.4268-0.09827-0.6064-4.458-0.021-9.234-0.0872-14.93 0.0365-0.104 0.5773-0.3104 1.181-0.3463 1.785-0.1557 0.9051-0.2245 1.861-0.2406 2.892-0.1156 1.293-0.1049 1.962-0.03217 2.778 0.03913 0.191 0.1098 0.5106 0.1649 0.7596z" style="fill:#000000;stroke-width:.2646"/>
</svg>
