<svg id="esv" width="450.2" height="156.6" version="1.1" viewBox="0 0 450.19998 156.61252" xmlns="http://www.w3.org/2000/svg">
 <path id="rHub" d="m327.5 100c23.71-17.12 46.87 1.919 47.09 24.18 0.08732 8.921-13.05 29.25-29.86 27.49-31.48-3.3-35.34-38.58-17.23-51.64z" style="fill:#ffffff;stroke-width:.7503"/>
 <path d="m344.7 88.39c16.73 0 34.97 11.78 34.97 35.04 0.2997 16.42-14.5 33.18-33.64 33.18-19.49 0-34.56-14.89-34.56-34.4 0-20.09 17.2-33.81 33.22-33.81zm27.03 43.4c5.204-16-2.724-32.02-20.6-36.71-20.86-3.327-33.12 13.25-33.6 25.72-0.8524 14.37 8.786 24.6 18.74 28.21 17.89 5.65 32.47-6.231 35.46-17.23zm-36.69 14.55c2.511-5 4.61-8.794 7.344-13.49 0.7346-1.059 1.078-1.037 3.518 0.2347 3.322 1.733 3.996 2.413 4.493 4.523 1.041 3.363 2.27 6.522 3.01 10.11-2.31 3.207-20.53 0.9684-18.37-1.381zm17.22 1.365c-0.6001-0.2526-1.829-1.375-2.107-1.922-0.4035-0.7984-2.271-9.124-2.087-9.304 0.1802-0.1843 0.7188-0.2035 1.033-0.03708 0.621 0.3292 0.2173-0.4431-0.4823-0.9222-0.9514-0.652-4.757-2.645-5.083-2.581-1.246 0.1455-7.425 11.96-7.616 13.59 0.1502 0.8194 0.5862 0.6586 0.5862-0.2158 0-0.4404 0.1474-0.8209 0.4803-1.238 1.463-2.398 5.642-12.19 6.786-11.26 0.4167 0.00302 1.931 0.7736 2.255 1.149 1.472 4.673 1.841 7.145 2.956 11.68 0.3199 0.8742-0.1073 2.049-0.1894 2.289 1.345 0.241 3.752-0.9673 3.467-1.224zm-1.282-16.96c2.143-1.9 4.538-3.153 6.787-3.222 1.987 0.3956 9.777 3.396 11.84 4.756 0.6109 1.78-6.123 11-11.01 13.54-2.409 2.389-6.202-11.92-7.616-15.07zm7.355 14.03c0.04726-0.333-0.4517-0.1891-0.6507-0.2724-1.823-4.87-3.717-8.426-5.047-13.13 0.05381-0.4712 0.8666-0.9649 2.044-1.241 1.33-0.4323 7.322 2.62 9.784 3.824 2.397 1.175 3.024 1.642 3.049 2.27 0.2691 0.09391 1.95-2.964 1.957-3.605-0.6234-0.01641-1.91 0.4617-3.085 0.4838-3.154-1.153-6.097-2.272-8.824-4.059 0.02457-0.1826 0.2907-0.4557 0.5914-0.6069 0.8321-0.4181 0.6655-0.583-0.5044-0.5006-2.246 0.4544-3.977 1.292-5.561 2.764-0.4262 0.8546-0.4193 0.9312 0.205 2.335 1.467 3.908 3.301 7.968 4.723 11.49 0.2012 0.5254 0.5934 1.068 0.7713 1.068 0.4396-0.08157 0.5816-0.46 0.547-0.8177zm-37.88-15.46c5.952-1.167 14.48-3.005 16.21-2.379 1.138 1.263 2.067 5.91 1.27 7.593-0.7356 1.589-6.43 10.65-6.846 10.5-2.967-0.06299-13.11-13.26-10.63-15.72zm10.35 15.29c-1.336-2.399 3.122-7.02 5.322-10.68 0.4565-0.4203 0.8044-0.2347 0.9964 0.5318 0.1589 0.8028 0.1744 0.6142 0.4811-0.02946-0.03641-3.202-0.06651-8.021-2.914-7.065-4.49 0.6366-9.274 1.341-13.12 2.412-0.2192 0.2244-0.04724 0.8021 0.1937 0.6492 4.28-0.7601 8.824-1.864 12.91-2.344 1.344-0.2793 2.278 2.968 1.149 4.091-2 3.235-6.184 10.47-8.141 9.507-0.6989-0.227-0.2355 0.4386 1.208 1.735 0.4822 0.6483 1.703 1.339 1.915 1.198zm12.3-16.78c1.13-1.324 3.057-1 3.552 0.7668 0.1158 0.8666-0.3722 1.775-1.124 2.14-1.94 0.7464-3.455-1.209-2.428-2.907zm5.305-2.086c0.6898-1.837 2.437-1.467 2.896-1.042 1.255 0.7166 1.086 2.517 0.1361 3.156-1.534 1.092-3.548-0.3351-3.031-2.114zm6.396-3.743c0-0.5392 0.6816-3.515 1.034-4.512 1.451-4.167 7.893-6.273 11.99-8.216 3.354 4.182 4.101 11.88 3.244 18.1-0.5952 1.376-17.58-2.52-16.27-5.369zm15.42 4.509c0-0.2491-0.211-0.3234-1.18-0.4155-4.241-1.157-10.14-2.014-12.88-4.515 0.05918-0.8419 0.2814-1.526 0.514-2.332 0.1543-1.436 7.781-4.092 12.08-5.92 0.4362 0 0.7931-0.0725 0.7931-0.1612 0-0.3441-1.549-3.574-1.682-3.48 0.1974 3.276-4.087 4.351-6.508 5.808-3.654 1.813-3.84 1.843-3.84 0.6451 0-0.6015-0.00603-0.6069-0.3388-0.2986-1.13 1.504-1.786 5.215-1.521 6.941 4.107 1.967 8.659 2.751 12.36 4.128 1.142 0.5426 2.124 0.2493 2.207-0.3987zm-31.51-2.788c0.69-0.7248 2.455-0.342 2.848 0.6492 0.7064 1.089-0.1091 2.881-1.795 2.859-2.063-0.2508-2.367-2.673-1.054-3.509zm-19.1 1.354c-1.287 0.1363-0.8149-13.69 5.065-18.16 4.492 4.206 11.7 9.694 12.12 11.91-0.5706 1.828-3.34 5.008-5.089 5.341-3.884 0.3359-8.401 0.9271-12.1 0.9109zm0.7173-1.33c1.401-1.385 1.418-1.389 6.418-1.294 2.437 0.04665 4.615 0.1231 4.837 0.1703 0.4013 0.0848 0.3983 0.09426-0.2462 0.7698-0.7091 0.7431-0.6879 0.8096 0.1417 0.4433 0.9904-0.4367 3.596-3.25 4.259-4.6 0.5986-1.218 0.5916-1.233-1.469-3.145-2.239-2.18-4.853-4.422-6.989-6.34-1.577-1.562-2.446-2.005-2.686-1.366 3.433 3.461 7.869 6.756 10.74 9.954 0 0.3962-1.48 2.089-2.017 2.308-2.363 0.9825-13.08 0.6123-13.88-0.1186-0.1029 0.1053-0.1643 3.417-0.06815 3.683 0.7765 1.387 0.4573-0.07996 0.9683-0.4641zm28.57-3.423c0.05803-2.337 2.502-2.586 3.536-1.294 0.9529 1.879-0.413 2.872-0.8531 2.959-1.477 0.4958-2.538-0.4718-2.683-1.666zm-9.979-2.313c0.6126-0.6818 2.092-1.164 3.024-0.00604 1.304 1.726-0.3963 3.177-1.245 3.201-1.975 0.03384-2.73-1.784-1.778-3.195zm5.075-0.6171c-0.41-1.919 1.068-2.689 2.051-2.613 2.228 0.36 2.221 2.965 0.6784 3.734-0.7698 0.2545-1.835 0.4281-2.73-1.12zm3.108-9.079c-0.04771-1.431 1.612-12.11 2.332-12 3.097-0.2901 10.9 3.909 13.84 6.884 1.919 1.837 2.053 2.234 1.059 3.145-4.485 3.436-11.83 9.109-12.75 8.876-0.8243-0.3617-4.749-3.963-4.487-6.908zm5.527 5.953c3.696-2.631 7.878-5.473 11.16-8.231 0.1231-0.2355 0.1215-0.4424-0.00453-0.6843-0.2302-0.4404-0.515-0.4446-0.6262-0.00958-4.109 3.376-7.277 5.889-11.4 8.494-1.907-2.029-1.787-3.678-1.458-5.242 1.274-3.648 1.645-10.66 2.898-10.77 0.3046-0.2279 0.2845-0.259-0.3489-0.5347-1.077-0.4969-2.298-0.5627-3.441-0.6924-0.01879 0.3831 1.376 2.231 1.273 3.624-0.1723 2.434-0.8344 4.937-1.288 7.221-0.1759 1.177-0.4542 1.72-0.8831 1.72-0.4775-0.3249-0.7518-0.6818-1.161-1.127-0.09439 0.6513 0.1341 1.267 0.2959 1.844 1.461 2.122 3.066 5.255 4.977 4.386zm-8.269-18.18c0.2964 0.85-0.4707 17.24-0.9994 17.44-1.101 0.2944-4.488 0.3609-6.733-0.05269-3.087-2.956-8.786-7.773-9.086-9.897 0.8337-3.212 11.86-8.404 16.82-7.488zm-1.261 16.58c0.4273-2.042 0.947-9.789 0.6798-15.48-0.5353-0.09298-0.5737-0.02932-0.5874 0.9799-0.04205 5.011-0.5113 9.207-0.7482 13.74-1.805 0.3816-2.916 0.126-3.876-1.219-2.795-3.621-7.704-8.287-7.652-9.999-0.8052 0.0264-2.275 1.97-2.623 2.643 0.5891 0.0705 1.193 0.158 1.698 0.2504 2.736 2.296 5.164 5.179 7.032 8.141-0.5182 0.2992-1.065 0.1808-1.552-0.00678-0.273 0.1726 0.1101 0.6451 0.7728 0.9529 0.4205 0.2586 4.92 0.6787 6.856-0.00236z" style="fill:#000000;stroke-width:.7503" ud="rWheel"/>
 <path id="trim" d="m197.7 58.17c-4.524-0.1243-1.317-0.2681-3.569-0.00826l4.952 27c3.197-0.1726 2.669-0.3354 5.04-0.8625 0.4816-4.182-6.085-23.28-6.42-26.13zm-191.1 38.1c-3.423 5.465-2.937 12.52-4.019 17.6 0.3287 0.9386 8.44-2.527 9.406-3.121 1.086-5.36 6.535-12.73 6.53-12.74 6.56-0.774 9.786-2.357 12.17-6.015-4.703-3.312-20.13 0.2516-24.09 4.28zm135.4 42.06c-11.36 0.562-63.2-1.856-67.35 1.935 23.52 1.707 58.3 0.06515 77.1-0.2551 16.26-0.541 34.2-0.14 50.15-1.556-0.2574-0.3554-0.8916-0.8575-2.074-1.067-3.712-0.657-39.01 1.536-57.85 0.9431zm125.8-84.8c-4.141-1.691-10.62 0.1824-13.86-0.7155-33.48 0.04614-70-0.2526-94.81 0.725-5.305 0.335-13.04 1.263-17.38 2.882 4.7 0.02759 121.7-1.212 129-0.8846zm-249.4 84.91 6.674 0.568c1.332-18.01 7.753-26.54 25.42-25.84 15.24 5.957 15.71 15.57 16.9 25.56l8.094-0.71c-1.057-22.67-8.826-34.54-28.4-35.22-24.49 0.00729-28.54 16.39-28.68 35.64zm183.3-5.254 8.236 0.284c-1.45-12.58 15.59-21.74 18.03-21.16 10.36 2.456 19.16 6.948 22.01 19.17l8.782-0.6514c2.912-22.38-11.7-27.56-29.37-29.74-16.08 2.685-31.28 6.396-27.69 32.09z" style="display:none;fill:#ffffff"/>
 <path id="fHub" d="m50.98 100c23.71-17.12 46.87 1.919 47.09 24.18 0.08734 8.921-13.05 29.25-29.86 27.49-31.48-3.3-35.34-38.58-17.23-51.64z" style="fill:#ffffff;stroke-width:.7503"/>
 <path id="fWheel" d="m68.23 88.39c16.73 0 34.97 11.78 34.97 35.04 0.2997 16.42-14.5 33.18-33.64 33.18-19.49 0-34.56-14.89-34.56-34.4 0-20.09 17.2-33.81 33.22-33.81zm27.03 43.4c5.204-16-2.724-32.02-20.6-36.71-20.86-3.327-33.12 13.25-33.6 25.72-0.8524 14.37 8.786 24.6 18.74 28.21 17.89 5.65 32.47-6.231 35.46-17.23zm-36.69 14.55c2.511-5 4.61-8.794 7.344-13.49 0.7346-1.059 1.078-1.037 3.518 0.2347 3.322 1.733 3.996 2.413 4.493 4.523 1.041 3.363 2.27 6.522 3.01 10.11-2.31 3.207-20.53 0.9684-18.37-1.381zm17.22 1.365c-0.6001-0.2526-1.829-1.375-2.107-1.922-0.4035-0.7984-2.27-9.124-2.087-9.304 0.1802-0.1843 0.7188-0.2035 1.033-0.03709 0.621 0.3292 0.2173-0.4431-0.4823-0.9222-0.9514-0.652-4.757-2.645-5.083-2.581-1.246 0.1455-7.425 11.96-7.616 13.59 0.1502 0.8194 0.5862 0.6586 0.5862-0.2158 0-0.4404 0.1474-0.8209 0.4804-1.238 1.463-2.398 5.642-12.19 6.786-11.26 0.4167 0.00302 1.931 0.7736 2.255 1.149 1.472 4.673 1.841 7.145 2.956 11.68 0.3199 0.8742-0.1073 2.049-0.1894 2.289 1.345 0.241 3.752-0.9673 3.467-1.224zm-1.282-16.96c2.143-1.9 4.538-3.153 6.787-3.222 1.987 0.3956 9.777 3.396 11.84 4.756 0.6109 1.78-6.123 11-11.01 13.54-2.409 2.389-6.202-11.92-7.616-15.07zm7.355 14.03c0.04726-0.333-0.4517-0.1891-0.6507-0.2724-1.823-4.87-3.717-8.426-5.047-13.13 0.05381-0.4712 0.8666-0.9649 2.044-1.241 1.33-0.4323 7.322 2.62 9.784 3.824 2.397 1.175 3.024 1.642 3.049 2.27 0.2691 0.09391 1.95-2.964 1.957-3.605-0.6234-0.01641-1.91 0.4617-3.085 0.4838-3.154-1.152-6.097-2.272-8.824-4.059 0.02457-0.1826 0.2907-0.4558 0.5914-0.6069 0.8321-0.4181 0.6655-0.583-0.5044-0.5006-2.246 0.4544-3.977 1.292-5.561 2.764-0.4262 0.8546-0.4193 0.9312 0.205 2.335 1.467 3.908 3.301 7.968 4.723 11.49 0.2012 0.5254 0.5934 1.068 0.7713 1.068 0.4396-0.08158 0.5816-0.46 0.547-0.8177zm-37.88-15.46c5.952-1.167 14.48-3.005 16.21-2.379 1.138 1.263 2.067 5.91 1.27 7.593-0.7356 1.589-6.43 10.65-6.846 10.5-2.967-0.06299-13.11-13.26-10.63-15.72zm10.35 15.29c-1.336-2.399 3.122-7.02 5.322-10.68 0.4565-0.4203 0.8044-0.2347 0.9964 0.5318 0.1589 0.8028 0.1744 0.6142 0.4811-0.02946-0.0364-3.202-0.06649-8.021-2.914-7.065-4.49 0.6366-9.274 1.341-13.12 2.412-0.2192 0.2244-0.04724 0.8021 0.1937 0.6492 4.28-0.7601 8.824-1.864 12.91-2.344 1.344-0.2793 2.278 2.968 1.149 4.091-2 3.235-6.184 10.47-8.141 9.507-0.6989-0.227-0.2355 0.4386 1.208 1.735 0.4822 0.6483 1.703 1.338 1.915 1.198zm12.3-16.78c1.13-1.324 3.057-1 3.552 0.7668 0.1158 0.8666-0.3722 1.775-1.124 2.14-1.94 0.7464-3.455-1.209-2.428-2.907zm5.305-2.086c0.6899-1.837 2.437-1.467 2.896-1.042 1.255 0.7166 1.086 2.517 0.1361 3.156-1.534 1.092-3.548-0.3351-3.031-2.114zm6.396-3.743c0-0.5392 0.6816-3.515 1.034-4.512 1.451-4.167 7.893-6.273 11.99-8.216 3.354 4.182 4.101 11.88 3.244 18.1-0.5952 1.376-17.58-2.52-16.27-5.369zm15.42 4.509c0-0.2491-0.211-0.3234-1.18-0.4155-4.241-1.157-10.14-2.014-12.88-4.515 0.05917-0.8419 0.2814-1.526 0.514-2.332 0.1543-1.436 7.781-4.092 12.08-5.92 0.4362 0 0.7931-0.07249 0.7931-0.1612 0-0.3441-1.549-3.574-1.682-3.48 0.1974 3.276-4.087 4.351-6.508 5.808-3.654 1.813-3.84 1.843-3.84 0.6451 0-0.6015-0.006032-0.6069-0.3388-0.2986-1.13 1.504-1.786 5.215-1.521 6.941 4.107 1.967 8.659 2.751 12.36 4.128 1.142 0.5426 2.124 0.2493 2.207-0.3987zm-31.51-2.788c0.69-0.7248 2.455-0.342 2.848 0.6492 0.7064 1.089-0.1091 2.881-1.795 2.859-2.063-0.2508-2.367-2.673-1.054-3.509zm-19.1 1.354c-1.287 0.1363-0.8149-13.69 5.065-18.16 4.492 4.206 11.7 9.694 12.12 11.91-0.5705 1.828-3.34 5.008-5.089 5.341-3.884 0.3359-8.401 0.9271-12.1 0.9109zm0.7173-1.33c1.401-1.385 1.418-1.389 6.418-1.294 2.437 0.04664 4.615 0.123 4.837 0.1703 0.4013 0.08481 0.3983 0.09426-0.2463 0.7698-0.7091 0.7431-0.6879 0.8096 0.1418 0.4433 0.9904-0.4367 3.596-3.25 4.259-4.6 0.5986-1.218 0.5916-1.233-1.469-3.145-2.239-2.18-4.853-4.422-6.989-6.34-1.577-1.562-2.446-2.005-2.686-1.366 3.433 3.461 7.869 6.756 10.74 9.954 0 0.3962-1.48 2.089-2.017 2.308-2.363 0.9825-13.08 0.6123-13.88-0.1186-0.1029 0.1053-0.1643 3.417-0.06816 3.683 0.7765 1.387 0.4573-0.07996 0.9683-0.4641zm28.57-3.423c0.05803-2.337 2.502-2.586 3.536-1.294 0.9529 1.879-0.413 2.872-0.8531 2.959-1.477 0.4958-2.538-0.4718-2.683-1.666zm-9.979-2.313c0.6126-0.6818 2.092-1.164 3.024-0.00603 1.304 1.726-0.3963 3.177-1.245 3.201-1.975 0.03383-2.73-1.784-1.778-3.195zm5.075-0.6171c-0.41-1.919 1.068-2.689 2.051-2.613 2.228 0.36 2.221 2.965 0.6784 3.734-0.7698 0.2545-1.835 0.4281-2.73-1.12zm3.108-9.079c-0.0477-1.431 1.612-12.11 2.332-12 3.097-0.2901 10.9 3.909 13.84 6.884 1.919 1.837 2.053 2.234 1.059 3.145-4.485 3.437-11.83 9.109-12.75 8.876-0.8242-0.3617-4.749-3.963-4.487-6.908zm5.527 5.953c3.696-2.631 7.878-5.473 11.16-8.231 0.1231-0.2354 0.1216-0.4424-0.004524-0.6843-0.2302-0.4404-0.515-0.4446-0.6262-0.00957-4.109 3.376-7.277 5.889-11.4 8.494-1.907-2.029-1.787-3.678-1.458-5.242 1.274-3.648 1.645-10.66 2.898-10.77 0.3046-0.228 0.2845-0.259-0.3489-0.5347-1.077-0.4969-2.298-0.5627-3.441-0.6924-0.0188 0.3831 1.376 2.231 1.273 3.624-0.1723 2.434-0.8344 4.937-1.288 7.221-0.1759 1.177-0.4542 1.72-0.8831 1.72-0.4775-0.3249-0.7518-0.6818-1.161-1.127-0.09439 0.6513 0.1341 1.267 0.2959 1.844 1.461 2.122 3.066 5.255 4.977 4.386zm-8.269-18.18c0.2964 0.85-0.4707 17.24-0.9994 17.44-1.101 0.2944-4.488 0.3609-6.733-0.05269-3.087-2.956-8.786-7.773-9.086-9.897 0.8338-3.212 11.86-8.404 16.82-7.488zm-1.261 16.58c0.4272-2.042 0.947-9.789 0.6798-15.48-0.5353-0.09298-0.5737-0.02932-0.5874 0.9799-0.04205 5.011-0.5113 9.207-0.7482 13.74-1.805 0.3816-2.916 0.126-3.876-1.219-2.795-3.621-7.704-8.287-7.652-9.999-0.8052 0.0264-2.275 1.97-2.623 2.643 0.5891 0.0705 1.193 0.158 1.698 0.2504 2.736 2.296 5.164 5.179 7.032 8.141-0.5182 0.2992-1.065 0.1808-1.552-0.00679-0.273 0.1726 0.1101 0.6451 0.7728 0.9529 0.4205 0.2586 4.92 0.6787 6.856-0.00236z" style="fill:#000000;stroke-width:.7503"/>
 <path id="brake" d="m422.8 12.04c1.057-0.5734 1.213-0.01447 7.653 9.784 5.734 8.996 11.88 21.91 14.03 29.2 1.564 4.592 2.428 21.11 0.9949 21.55-0.4446 0.1309-4.741 1.72-5.6-0.2925-0.7578-1.771-0.1615-6.885-0.6306-11.47-0.9642-9.229-3.228-17.99-6.9-26.08-3.644-9.964-10.55-16.99-11.68-22.75z" style="fill:#8a112b;stroke-width:.7503"/>
 <path id="body" d="m231.2 2.239c-4.627 0.5465-13.76 1.498-22.04 4.125-9.529 0.124-22.37 0.9949-28.18 1.664-1.238 0.1425-4.058 0.2916-6.109 0.9739-0.8711 0.2896-0.4424-2.382-3.268-1.311 0.2773-3.654-1.274-3.214-5.056-1.008-1.94 2.05-0.07505 4.415-7.331 7.389-17.23 8.456-35.87 23.34-48.8 35.22-21.92 1.208-45.74 1.984-63.94 4.835-9.267 1.271-27.48 3.842-34.55 7.455-5.943 2.652-8.906 14.35-9.927 19.93-2.075 8.194-2.077 21.22-1.969 27.31 0.2218 11.77 1.354 12.66 3.528 15.95 2.425 6.438 6.397 5.294 9.687 9.739 0.2784 1.226 0.3807 5.074 1.339 5.623 5.12 0.9904 12.49 1.736 17.62 1.366-2.008-26.08-0.9597-45.33 12.16-52.33 14.75-7.053 43.41-9.447 54.4 0 6.712 10.95 6.33 18.77 9.499 30.97 0.2218 3.851 1.991 11.72 2.56 14.31 0.5612 0.2224 7.743 0.407 15.25 0.2782 29.83 0.03558 61.47 0.7 92.52 0.334 28.62-0.6928 58.93-2.707 85.16-3.485 1.607-5.437 1.645-7.721 2.264-11.92 1.951-16.6 6.207-30.61 14.57-35.84 10.82-7.698 42.45-5.585 51.05 0 4.304 1.696 13.31 21.11 14.31 40.5 4.603-0.2991 22.7-2.015 30.12-2.629 15.59-1.292 22.27-2.219 22.34-2.538 0.5387 0.02414 8.546-10.44 10.65-15.77 1.106-4.266 0.9889-8.269 1.03-11.35 0.1215-3.054 0.4139-7.391-1.244-9.064-1.489-2.376-1.9-1.49-2.476-2.742 0.2377-1.687-0.1182-3.145-0.5794-7.908l-5.143-0.262c-0.1119-2.733 0.3015-3.918-0.06815-5.796-0.8531-11.08 0.09529-9.462-1.823-17.65-2.221-6.501-8.119-20.09-9.837-23.05-3.932-6.613-3.99-6.768-7.736-12.68-0.316-1.09 3.597 0.008044 3.477 0.1558-2.532-3.908 0.7331 0.9327 4.098-2.191-0.2752-1.259 1.673-5.272-4.916-5.781-4.573-0.4296-11.84-0.1275-17.62-0.8246-3.363-1.813-2.096-2.604-7.638-3.803-21.34-0.9724-61.18-0.182-96.12 0.4233-6.094 0.2221-64.93 0.01192-71.37 1.348zm164.5-0.7262c5.105-0.2488 5.423 1.493 9.252 2.907-76.08-0.5033-131.2-0.01552-191.8 1.745 1.897-0.5581 12.67-2.346 18.28-3.18 4.083-0.9214 44.39-1.434 67.65-1.43 10.21-0.1043 90.71-0.5561 96.57-0.04149zm-97.09 44.99c-1.645-10.83-4.173-22.1-6.79-35.39l-0.3762-1.852c1.496 0.008434 2.751 0.08645 4.22 0.09718 5.491 16.64 6.784 25.27 9.649 36.86-0.2438 2.37-2.488 2.021-6.526 2.113zm-254.8 13.42c-2.251 3.639-3.816 4.981-7.023 5.674-8.291 1.032-11.79 1.907-13.87 4.891-4.253 4.328-3.825 12.17-9.627 18.25-1.982 0.7601-6.379 1.796-7.803 1.543 0.1727-3.331 3.24-22.58 4.991-23.71 13.27-6.28 21.35-5.081 33.33-6.651zm257.8 69.08c-27.9 1.733-72.71 1.678-83.29 2.237-10.94 0.1517-24.46 0.3813-35.88 0.4571-25.36 0.0275-62.35 1.376-68.96 0.1143 0.3106-0.4829 1.714-1.312 2.635-0.9236 5.504 0.3978 53.56-0.2352 102-0.8419 30.91-0.3869 56.11-1.454 82.24-2.017z" style="fill:#000000;stroke-width:.7503"/>
 <path id="dDTrim" d="m214.1 10.9c-16.84-0.02041-37.56-0.4841-53.56 7.796-13.99 9.222-31.74 18.14-40.65 32.71 0.5288 1.303 1.4 2.358 2.862 2.974l89.89-3.217 0.1858-2.542-89.29 2.802c0.1861-5.817 28.92-26.19 40.47-31.23 16.99-7.397 35.07-6.81 50.06-7.388zm-8.179 49.96-22.58 1.041 0.4154 3.956 24.57-0.7293zm5.512 34.4-92.82 1.523 1.874 8.013 91.24-5.158z" style="fill:#ffffff;stroke-width:.7503"/>
 <path id="dDoor" d="m214.1 11.05c-18.5 0.5422-26.89 0.8974-32.71 1.984-13.85 2-24.54 7.571-35.69 15.5-7.202 5.666-17.56 13.21-23.83 20.45-0.707 0.9649-3.996 5.396 3.95 4.837 11.95-0.2911 26.56-0.8366 38.64-1.242 18.28-0.3849 29.44-1.297 48.23-1.694l0.1332-2.072c-42.12 0.9282-73.58 2.859-78.78 2.949-2.497 0.04326-11.71 1.05-11.1-0.3408 1.748-5.299 14.69-15.83 25.39-22.92 17.63-11.95 27.45-13.95 49.81-15.46 7.181-0.1946 8.096-0.2653 15.94-0.4562zm-7.916 51.22c-1.243-1.08-12.71-0.2844-16.16-0.0794-9.207 0.3903-5.138 3.696-3.642 3.184 7.104-0.7311 16.52 0.1139 20.15-1.157zm5.294 33.22c-13.45 0.2977-19.75 0.7451-32.68 0.9282-20.44 0.362-40.95 0.675-59.07 1.181 0.2125 7.713 1.28 6.564 8.479 5.805 32.04-1.769 55-3.297 83.44-3.894zm-88.84 29.56c-5.182-10.71-5.621-23.32-7.269-35.45-0.2674-11.56-1.258-23.76-0.4502-34.37 0.5674-3.387 1.673-5.865 3.43-7.796 1.918-2.428 5.231-5.228 7.886-7.359 6.823-5.734 14.03-10.78 21.59-16.09 9.402-6.391 19.63-10.93 30.84-12.91 7.631-1.766 14.6-1.909 21.74-1.948l13.76-0.157c-0.3133 13.31-0.129 28.03-1.586 43.02 0 0-1.029 19.54-1.141 30.3-0.06486 6.207-0.00897 12.11 0.2095 17.75 0.8801 12.82 2.119 15.05 3.872 24.49z" style="fill:#000000;stroke-width:.7503"/>
 <path id="rDTrim" d="m278.8 58.78c-4.29 0.8486-8.254 0.5826-8.051 2.997 0.3741 1.266 2.956 1.387 9.387 1.138 4.052-0.568 14.48-0.2544 14.52-2.015-0.1277-2.952-4.205-2.889-15.86-2.12zm-67.26 40.92 83.06-2.682c3.172-3.939 1.781-1.738 2.734-5.099l-85.91 3.441m1.213-43.98 0.2078-2.782 85.31-2.276 0.3221 2.089zm1.359-38.57 0.03002-1.922c25.78-0.6009 51.68-2.008 77.43-1.789l0.384 2.176c-27.1-0.04955-54.64 1.011-77.81 1.537z" style="fill:#ffffff;stroke-width:.7503"/>
 <path id="rD" d="m212.8 48.81c30.6-0.6729 61.54-1.786 85.31-2.311l0.2653 1.828c-13.47 0.1463-82.99 2.725-85.69 2.559 0.01944-0.5305 0.109-1.655 0.1162-2.075zm78.93-37.64c-26.29-0.3181-53.54 0.7119-77.73 1.426l0.02253-1.547c23.52-0.7436 51.19-1.946 77.36-1.795m-12.58 53.15c-8.239 0.321-7.005 0.7916-7.059-2.041 3.364-1.451 19.25-2.02 21.7-1.133 0.5026 0.5096 1.151 1.93 0.3217 2.188-2.659 0.8276-11.13 0.488-14.96 0.9852zm-67.42 33.09c30.25-0.663 60.3-1.921 85.01-2.587 0.7178 0.4769-0.8464 1.909-2.923 2.923-30.1 0.9987-57.01 3.16-81.94 3.683zm86.81 26.67c1.943-21.14 4.999-44.31 1.504-66.72-2.499-16.03-5.633-32.43-8.734-48.26l-76.91 1.837c-0.1996 7.796-0.03242 25.54-1.586 43.02-0.7116 11.09-1.055 24.58-1.141 30.3-0.1292 7.251-0.06622 13.14 0.2096 17.75 0.5387 9.207 1.85 15.13 3.873 24.49z" style="fill:#000000;stroke-width:.7503"/>
</svg>
