<svg id="esv" version="1.1" viewBox="0 0 450 156.54827" xmlns="http://www.w3.org/2000/svg" xmlns:xlink="http://www.w3.org/1999/xlink">
 <defs>
  <linearGradient id="linearGradientSlvr" x1="-1869" x2="-1869" y1="794.4" y2="828" gradientTransform="matrix(1.301,0,0,1.301,1365,-35.3)" gradientUnits="userSpaceOnUse">
   <stop style="stop-color:#696969" offset="0"/>
   <stop style="stop-color:#c7c7c9" offset=".17"/>
   <stop style="stop-color:#f9f9ff" offset=".36"/>
   <stop style="stop-color:#ccccce" offset=".73"/>
   <stop style="stop-color:#696969" offset="1"/>
  </linearGradient>
  <linearGradient id="linearGradientPurp" x1="357.1" x2="357.1" y1="89.69" y2="163.2" gradientTransform="matrix(.4405 0 0 .7175 -.003556 -26.07)" gradientUnits="userSpaceOnUse">
   <stop style="stop-color:#1c072d" offset="0"/>
   <stop style="stop-color:#5700aa" offset=".29"/>
   <stop style="stop-color:#4b127b" offset=".64"/>
   <stop style="stop-color:#290a43" offset="1"/>
  </linearGradient>
  <linearGradient id="linearGradient22878" x1="884.1" x2="884.1" y1="-861.1" y2="-669.4" gradientTransform="matrix(.2686 0 0 .2683 -117.6 270.4)" gradientUnits="userSpaceOnUse">
   <stop style="stop-color:#141414" offset="0"/>
   <stop style="stop-color:#0a0a0a" offset=".15"/>
   <stop style="stop-color:#6d6d6d" offset=".3"/>
   <stop style="stop-color:#000000" offset=".44"/>
   <stop style="stop-color:#141414" offset=".62"/>
   <stop style="stop-color:#262626" offset=".75"/>
   <stop style="stop-color:#040404" offset="1"/>
  </linearGradient>
  <linearGradient id="linearGradient22881" x1="-997.9" x2="-997.9" y1="102.3" y2="204.3" gradientTransform="matrix(.5119 0 0 .5119 628.1 -13.14)" gradientUnits="userSpaceOnUse" xlink:href="#linearGradientSlvr"/>
  <linearGradient id="linearGradient22891" x1="-1869" x2="-1869" y1="794.4" y2="828" gradientTransform="matrix(.6846 0 0 .6846 1466 -450.5)" gradientUnits="userSpaceOnUse" xlink:href="#linearGradientSlvr"/>
 </defs>
 <path id="transPurp" d="m273 92.47c-1.551-0.04539-3.067 0.1876-5.296 1.1l0.00147 0.001463c-2.227 0.9126-4.465 3.343-5.718 6.556-1.254 3.214-1.366 7.155-0.1406 10.4 1.226 3.247 3.447 5.608 6.241 6.898 3.01 1.157 6.291 1.148 9.178-0.123 2.884-1.271 5.043-3.82 6.159-6.61 1.157-3.439 1.188-7.023 0.1786-10.26-1.047-3.121-3.222-5.676-5.943-7.003-1.527-0.5953-3.106-0.9223-4.657-0.9681zm-46.69 0.01758c-1.984 0.02162-3.892 0.6529-5.289 1.923h0.00439c-1.343 1.319-2.058 3.025-2.107 4.806 0.08854 2.542 1.325 4.476 3.087 5.806 1.762 1.332 3.582 2.04 5.268 3.069 1.272 0.7513 1.959 1.636 2.253 2.995 0 0.8308-0.258 1.419-0.8908 2.005-1.684 1.08-3.382 0.9043-5.118 0.5697-1.401-0.3058-2.358-0.7292-3.612-1.287l-1.585 3.966c1.464 0.7495 3.139 1.314 4.549 1.612 1.146 0.2034 2.251 0.298 3.348 0.3339 2.323-0.05577 4.57-0.6739 6.216-2.127 1.437-1.366 2.293-3.165 2.31-5.01-0.08465-2.581-1.33-4.569-3.189-6.006-1.704-1.266-3.537-2.097-5.238-3.126-0.7275-0.4402-1.305-0.9066-1.752-1.387-0.6001-0.8076-0.6712-1.555-0.3675-2.332 0.4071-0.8601 1.409-1.329 2.463-1.446 1.464 0.04707 2.887 0.2565 4.243 0.6502l0.9036 0.2739 1.653-3.979-1.091-0.3426c-2.01-0.6268-4.074-0.9898-6.058-0.9681zm177.9 0.07911c-1.713 0.06343-3.352 0.4392-4.752 1.003l0.00147 0.001463c-2.229 0.9126-4.467 3.345-5.718 6.556-1.253 3.214-1.365 7.155-0.1392 10.4 1.225 3.247 3.447 5.608 6.243 6.898 3.01 1.157 6.289 1.148 9.171-0.123 2.884-1.271 5.044-3.82 6.16-6.61 1.158-3.439 1.188-7.023 0.1786-10.26-1.047-3.121-3.222-5.676-5.943-7.003-1.702-0.6853-3.492-0.9351-5.205-0.8713zm-107.7 0.05125c-2.308-0.01444-4.621 0.3448-6.672 0.7453l-0.8436 0.1669v24.57h5.088c0-3.546-0.00945-7.29-0.01317-10.95 1.222 0.8308 2.209 0.5872 3.636 0.7483l-0.00147 0.0044c0.2682 0.1171 0.7918 1.019 1.034 1.299 0.9524 1.654 1.428 3.541 1.806 5.184v0.0205c0.3688 1.41 0.7881 2.476 1.359 3.699h5.439c-0.671-1.449-1.363-3.052-1.744-4.441-0.2312-0.9103-0.5541-2.08-0.8278-2.928-0.534-1.632-1.203-3.174-2.364-4.281 0.8436-0.5508 1.611-1.19 2.203-1.998 0.8443-1.143 1.278-2.508 1.278-3.967-0.1427-2.235-1.067-4.257-2.638-5.587-1.972-1.611-4.432-2.263-6.741-2.275zm-49.27 0.007326-0.00147 0.002933c-1.182 0-2.284 0.05418-3.31 0.1626-1.597 0.1593-2.737 0.3664-4.203 0.6532v24.54l5.088 0.1069c-1.1e-4 -3.496 0.00129-6.948 0.00145-10.56 0.2955 0.1475 1.221 0.5992 1.846 0.6736v-0.00146c1.548 0.1854 3.309-0.06627 4.644-0.5668 1.969-0.7971 3.607-2.059 4.566-3.838 0.9373-2.092 0.9433-4.38 0.04833-6.31-1.05-2.095-2.883-3.52-4.888-4.233-1.158-0.4245-2.427-0.6312-3.792-0.6312zm-95.08 0.02198c-2.31-0.01252-4.623 0.3465-6.672 0.7468l-0.8436 0.1654v24.57h5.088c-0.00347-6.913 0.00936-14.64 0.00879-20.94 0.8068-0.159 1.771-0.2274 2.644-0.1494 0.9613 0.1497 1.836 0.4518 2.724 1.043 0.7611 0.6621 1.019 1.445 1.16 2.367 0 1.032-0.4848 1.815-1.085 2.496-0.7296 0.6422-1.498 1.371-2.418 1.513-0.8503 0.02622-1.653 0.3908-2.22 0.9651-0.5319 0.5392-0.7993 1.519-0.8023 1.738 0.6247 0.2535 1.071 0.433 1.836 0.5242v0.00147c0.5048 0.1005 1.051 0.06127 1.543 0.01903 1.307 0.6831 1.924 2.628 2.301 3.819 0.2856 0.9178 0.5436 1.879 0.8496 3.072 0.3057 1.191 0.7105 2.319 1.277 3.534h5.44l-0.6663-1.473c-0.9163-1.939-1.273-3.922-1.735-5.404-0.4621-1.483-0.8353-2.392-1.295-3.22-0.3111-0.5865-0.7489-1.091-1.239-1.555 2.113-1.369 3.456-3.663 3.483-5.965-0.1426-2.235-1.067-4.255-2.638-5.586-1.972-1.611-4.432-2.262-6.741-2.274zm-30.42 0.189v4.36h6.694v20.67h5.118v-20.67h6.726v-4.36zm72.6 0v25.03h4.645v-16.35l10.24 16.35h4.305v-25.03h-4.74v15.7l-9.838-15.7zm117.3 0v4.36h6.693v20.67h5.119v-20.67h6.726v-4.36zm31.53 0-9.028 25.03h5.23l1.891-5.491h7.971l1.903 5.491h5.445l-9.021-25.03zm17.31 0v4.36h6.693v20.67h5.118v-20.67h6.726v-4.36zm22.87 0v25.03h4.992v-25.03zm36.51 0v25.03h4.645v-16.35l10.24 16.35h4.305v-25.03h-4.74v15.7l-9.838-15.7zm-243.6 0.01171-9.028 25.03h5.23l1.945-5.806h7.813l2.011 5.806h5.451l-9.021-25.03zm228.1 3.978c1.65 0.008638 3.223 0.8706 4.258 2.143v0.004393c1.361 1.897 1.906 4.165 1.95 6.39-0.06548 2.265-0.5546 4.491-1.779 6.085-1.225 1.596-2.845 2.472-4.605 2.53-1.876-0.04868-3.441-0.9718-4.509-2.283-1.363-1.915-1.855-4.216-1.866-6.333 0.05015-2.332 0.4562-4.719 1.95-6.388 1.194-1.333 2.952-2.158 4.602-2.149zm-132.6 0.08788c1.834-0.1249 3.88 0.6274 4.998 2.053l0.00145 0.002932c1.49 1.9 2.034 4.165 2.077 6.388-0.06525 2.265-0.5535 4.492-1.777 6.091-1.224 1.596-2.848 2.472-4.608 2.53-1.876-0.04868-3.439-0.9718-4.507-2.283-1.363-1.915-1.855-4.216-1.866-6.333 0.01215-3.111 1.258-6.762 3.96-8.023 0.522-0.244 1.109-0.3831 1.72-0.4246zm-24.58 0.09666c0.9336-0.008158 1.863 0.4014 2.703 1.062 0.8443 0.6625 1.221 1.609 1.278 2.542-0.152 2.134-1.678 3.613-3.429 4.138-0.8691 0.1758-1.653 0.2835-2.278 0.7896-0.3964 0.3208-0.7185 0.9658-0.9238 1.416 1.6e-4 -3.346 1e-5 -6.868 0-9.808 0.8481-0.05413 1.716-0.131 2.649-0.1391zm48.72 0.02343c0.6963 0.02643 1.365 0.116 1.935 0.2548h0.01611c1.476 0.681 2.454 1.635 2.478 3.124 0.02627 1.603-0.8196 2.823-2.034 3.48-0.6652 0.6164-2.437 0.486-3.28 1.208-0.8818 0.7551-1.098 1.161-1.236 1.635-0.00291-3.343-0.00183-6.634 0.02051-9.576 0.6822-0.1158 1.405-0.1524 2.101-0.126zm49.12 3.844 3.298 9.156c-0.6033-0.704-0.7341-1.593-2.416-1.857l-3.373-0.1552zm-166.8 0.01172 3.262 9.418c-0.02409-0.04872-0.04816-0.1185-0.07176-0.1581l-0.00145-0.00146c-0.533-0.8946-1.349-1.761-2.478-1.797l-3.202-0.1054z" style="fill:#290a43;stroke-width:.535"/>
 <path id="transSlvr" d="m404.8 93.52c-1.402-0.04768-2.841 0.1782-4.192 0.7117-2.55 1.018-4.582 2.971-5.838 5.838l0.00586-0.00293c-1.306 3.174-1.173 6.949-0.1245 10.12 0.9621 2.529 2.679 4.773 5.554 5.991 2.47 1.014 5.373 1.134 8.106 0 2.589-1.134 4.498-3.195 5.617-6.054 1.087-2.886 1.113-6.174 0.1552-9.403-0.8691-2.757-2.646-4.944-5.308-6.274-1.206-0.5601-2.572-0.8811-3.975-0.9283zm-131.7 0.2446c-1.405-0.03615-2.842 0.1893-4.182 0.6766-2.55 1.018-4.618 3.157-5.839 5.839l0.00585-0.00147c-1.286 3.127-1.149 6.763-0.1245 10.12 0.9733 2.484 2.832 4.795 5.556 5.991 2.47 1.014 5.419 1.053 8.106 0 2.485-1.122 4.498-3.322 5.617-6.054 1.6-4.249 1.147-9.231-1.863-13.14-0.8901-1.077-1.986-1.926-3.291-2.547-1.206-0.5601-2.58-0.8571-3.984-0.8931zm-46.71 0.03369c-0.9314 0-1.78 0.1452-2.547 0.435-1.37 0.5283-2.58 1.567-3.291 3.012-0.7281 1.804-0.6382 3.127 0.3412 5.092 1.027 1.539 2.674 2.679 4.44 3.571 0.9104 0.4344 1.749 0.8886 2.515 1.365 1.345 0.8458 2.607 1.984 2.701 3.819 0 1.077-0.4023 1.987-1.209 2.733-0.8076 0.7246-1.947 1.086-3.417 1.086-0.7245 0-1.563-0.09344-2.515-0.2798-0.9314-0.1863-1.863-0.4866-2.794-0.9006l-0.8068 2.017c1.03 0.491 2.158 0.8511 3.352 1.088 0.9823 0.1798 2.034 0.2776 3.106 0.3105 1.179 0 2.224-0.1666 3.136-0.498 1.696-0.5619 2.878-1.493 3.726-3.261 0.7424-1.657 0.7286-3.412-0.2797-5.217-0.5178-0.8076-1.169-1.51-1.954-2.11-1.512-1.145-3.342-1.944-5.061-3.013-0.7866-0.4758-1.439-0.9936-1.956-1.552-0.7206-0.8286-1.009-2.152-0.5595-3.352 0.3969-0.7678 0.9231-1.449 1.83-1.801h0.00147c1.071-0.4267 2.343-0.2602 3.54-0.1245 0.7656 0.08271 1.593 0.2581 2.484 0.5272l0.8376-2.017c-1.698-0.5292-3.652-0.9268-5.617-0.9313zm20.95 0.1464c-1.105-0.0331-2.238 0.04749-3.358 0.1392-0.9726 0.08278-2.038 0.238-3.198 0.4657v22.29l2.95 0.06298v-20.53c1.118-0.1242 2.256-0.1875 3.415-0.1875 1.242 0.007866 2.53 0.4282 3.57 1.305 0.4554 0.4138 0.8188 0.8998 1.088 1.458 0.5211 1.106 0.5048 2.422 0 3.633-0.5083 1.001-1.375 1.857-2.485 2.359-0.5382 0.2277-1.076 0.3412-1.614 0.3412-0.6621 0-1.231 0.1869-1.707 0.5595-0.4552 0.3519-0.7978 0.7964-1.025 1.334 0.5796 0.1656 1.128 0.259 1.645 0.2798 0.5178 0.02073 1.005 0.01064 1.46-0.03075 0.9314-0.08286 1.831-0.2898 2.701-0.621 1.597-0.6194 3.054-1.728 3.942-3.384l0.00147-0.00147c0.8204-1.6 0.7544-3.546 0.03075-5.307-0.7776-1.689-2.365-2.929-4.224-3.631-1.012-0.3628-2.089-0.5103-3.195-0.5433zm-95.31 0.005856c-1.138 0-2.193 0.06183-3.166 0.186-0.9726 0.1241-2.04 0.2995-3.199 0.5272v22.29h2.95v-20.46c0.7449-0.1449 1.356-0.2283 1.831-0.249 1.193-0.05062 2.334-0.1033 3.54 0.3105 1.094 0.4086 2.095 1.194 2.701 2.328 0.6153 1.062 0.5413 2.244 0 3.478-0.5014 0.9861-1.385 1.809-2.484 2.298-0.5382 0.2277-1.076 0.3513-1.614 0.372-0.6621 0.02046-1.231 0.2076-1.707 0.5595-0.4552 0.3519-0.7971 0.7963-1.025 1.334 0.5796 0.1449 1.128 0.2384 1.645 0.2798 0.5178 0.02073 1.005 0.01064 1.46-0.03075 0.1242 0 0.2162-0.01002 0.2782-0.03075 0.8076 0.31 1.428 0.8278 1.863 1.552 0.4554 0.7245 0.8293 1.552 1.119 2.484 0.2895 0.9313 0.5486 1.905 0.7761 2.919 0.2481 1.014 0.579 1.965 0.9927 2.856h3.105c-0.4762-1.056-0.8481-2.08-1.117-3.075-0.2487-1.014-0.5172-1.965-0.8068-2.856-0.2691-0.9111-0.6112-1.738-1.025-2.484-0.3934-0.7454-0.9726-1.377-1.738-1.894l-0.621-0.2475 0.7455-0.249c1.077-0.5382 1.956-1.272 2.64-2.203l-0.00293-0.00439c0.7035-0.9524 1.056-2.049 1.056-3.145-0.01205-1.731-0.5655-3.597-2.236-4.863-1.572-1.366-3.46-1.962-5.959-1.987zm144.5 0.01318c-1.104-0.02728-2.232 0.06045-3.351 0.1728-0.9726 0.1241-2.04 0.2995-3.199 0.5272v22.29h2.95v-20.46c0.7449-0.1449 1.356-0.2283 1.831-0.249 1.193-0.05062 2.334-0.1033 3.54 0.3105 1.094 0.4086 2.095 1.194 2.703 2.328 0.534 1.051 0.495 2.325 0 3.478-0.5014 0.9861-1.386 1.809-2.485 2.298-0.5382 0.2277-1.076 0.3513-1.614 0.372-0.6621 0.02046-1.231 0.2076-1.707 0.5595-0.4552 0.3519-0.7978 0.7963-1.025 1.334 0.5797 0.1449 1.128 0.2384 1.645 0.2798 0.5178 0.02073 1.005 0.01065 1.46-0.03075 0.1242 0 0.2162-0.01002 0.2782-0.03075 0.8076 0.31 1.428 0.8278 1.863 1.552 0.4552 0.7245 0.8293 1.552 1.119 2.484 0.2895 0.9313 0.5486 1.905 0.7761 2.919 0.2481 1.014 0.579 1.965 0.9928 2.856h3.105c-0.4762-1.056-0.8481-2.08-1.117-3.075-0.2487-1.014-0.5172-1.965-0.8068-2.856-0.2691-0.9111-0.6112-1.738-1.025-2.484-0.3934-0.7454-0.9726-1.377-1.738-1.894l-0.621-0.2475 0.7454-0.249c1.077-0.5382 1.956-1.272 2.64-2.203v-0.00146c1.182-1.641 1.31-3.904 0.4657-5.902-0.7851-1.663-2.392-2.868-4.222-3.57-1.018-0.3448-2.097-0.4867-3.202-0.514zm-116.6 0.0205-2.89 0.002933-8.136 22.57h2.95l1.863-5.403h7.828c-0.2277-0.6002-0.538-1.118-0.9313-1.552-0.393-0.4554-0.9621-0.6825-1.707-0.6825h-4.191l-0.3735 0.06152 0.3412-0.6518 3.478-9.966 0.2167-0.9006 0.2182 0.9006 6.304 18.19h3.166zm-57.1 0.0205v2.235h6.583v20.34h2.98v-20.34h6.615v-2.235zm189.9 0v2.235h6.583v20.34h2.98v-20.34h6.615v-2.235zm48.84 0v2.235h6.583v20.34h2.98v-20.34h6.615v-2.235zm-151.9 0.005857v17.46l0.06152 1.086-0.372-1.025-10.96-17.5h-2.95v22.57h2.515v-18.04l-0.06151-1.054 0.435 1.054 11.31 18.03h2.64v-22.57zm225.6 0v17.46l0.06297 1.086-0.3733-1.025-10.96-17.5h-2.95v22.57h2.515v-18.04l-0.06151-1.054 0.4335 1.054 11.31 18.03h2.64v-22.57zm-50.86 0.1684v22.57h2.857v-22.57zm-37.59 0.01464-2.89 0.002933-8.136 22.57h2.952l1.863-5.404h7.828c-0.2277-0.6001-0.538-1.118-0.9313-1.552-0.393-0.4552-0.9621-0.6825-1.707-0.6825h-4.192l-0.372 0.06151 0.3412-0.6517 3.478-9.966 0.2168-0.8991 0.2167 0.8991 6.306 18.19h3.166zm57.45 1.581c0.9568-0.01456 1.941 0.1908 2.907 0.6591 1.863 0.9298 3.183 2.698 3.88 4.906 0.8061 2.532 0.7874 5.194 0.06299 7.641-0.6064 1.957-1.777 3.951-3.789 5.031-1.756 0.9561-3.952 1.053-5.902 0.06151-1.837-0.9358-3.166-2.704-3.849-4.968l0.00292 0.00147c-0.7306-2.466-0.7404-5.068 0.03075-7.761 0.6568-1.933 1.686-3.727 3.912-4.906 0.8571-0.4099 1.786-0.6445 2.743-0.6591zm-131.7 0.2197c1.936 0.01626 3.792 0.9546 5.154 2.547 1.476 1.876 2.083 4.404 2.142 6.924-0.01154 2.272-0.5892 4.693-2.017 6.735-1.2 1.614-3.079 2.676-5.277 2.764-1.977-0.01626-3.862-0.9906-5.245-2.64-1.414-1.899-2.022-4.351-2.05-6.861l-0.00147 0.00147c0.01155-2.334 0.5914-4.851 2.142-6.924 1.211-1.491 3.048-2.47 5.154-2.547z" style="fill:url(#linearGradient22891);stroke-width:.5262"/>
 <path id="resSlvr" d="m261.7 37.67c-3.283-0.06735-6.54 0.5274-9.748 1.819-6.415 2.583-10.54 7.459-12.37 12.01-1.839 4.551-2.514 8.286-2.514 12.52l-0.00147-0.002928c0 3.997 0.6034 7.626 1.813 10.88 2.253 6.348 6.819 11.46 12.57 13.66 6.39 2.439 13.18 2.46 19.2-0.1392 5.974-2.601 10.54-7.858 12.63-13.74 2.37-6.106 2.404-14.1 0.3501-20.56-1.978-6.631-6.285-11.67-12-14.29-3.318-1.357-6.63-2.086-9.913-2.154zm-44.88 0.3544c-1.986 0.03403-3.94 0.3004-5.839 0.9418h0.00439c-3.588 1.241-6.226 3.609-7.678 6.625-1.653 4.023-1.389 8.526 0.6972 11.78 1.164 1.767 2.605 3.3 4.326 4.602 3.649 2.659 7.708 4.26 11.31 6.483 1.768 1.023 3.235 2.185 4.398 3.486 1.918 2.361 2.203 5.497 1.047 7.948-1.085 2.16-2.835 3.558-5.025 4.252-3.354 1.107-6.846 0.577-9.838 0-2.14-0.4183-4.326-1.138-6.556-2.16l-2.025 5.089c2.605 1.255 5.235 2.115 7.888 2.578 2.652 0.5113 4.978 0.7671 6.976 0.7671 2.652 0 5.026-0.3486 7.119-1.046 3.891-1.254 6.924-3.639 8.586-7.182 0.7911-1.672 1.188-3.462 1.188-5.371 0-2.65-0.5822-4.879-1.746-6.693-1.163-1.86-2.629-3.463-4.398-4.812-1.768-1.395-3.675-2.602-5.724-3.624-3.622-2.008-7.359-3.792-10.12-6.625-1.164-1.255-1.744-2.764-1.744-4.531 0-1.906 0.6728-3.532 2.022-4.881 1.35-1.348 3.256-2.076 5.724-2.076 1.35 0 2.862 0.1689 4.537 0.4012 1.722 0.186 3.606 0.582 5.655 1.186l2.094-5.02c-2.559-0.7903-4.839-1.347-6.841-1.672-2.026-0.2859-4.042-0.4836-6.028-0.4495zm-79.26 0.7821c-0.9253-1.23e-4 -1.848 0.03792-2.766 0.1098l0.00586 0.005859c-3.924 0.2226-7.648 0.8076-11.16 1.463v50.05h7.603v-45.39c2.391-0.4941 5.029-0.5563 7.188-0.558 2.841 0.09966 5.64 1 7.678 2.719 1.947 1.779 3.189 4.254 3.21 6.693-0.0725 2.598-1.212 4.974-2.932 6.621-0.8376 0.8368-1.815 1.51-2.931 2.022-1.116 0.4647-1.654 0.9291-2.77 0.9756-1.488 0.09283-2.746 0.7314-3.769 1.707-1.024 0.9763-1.582 1.546-2.094 2.755 1.07 0.2788 1.867 0.3129 2.844 0.4056 1.024 0.09284 1.993 0.1124 2.878 0.06591 0.443 0.027 0.9328-0.02154 1.327-0.07029 1.674 0.7903 2.398 2.365 3.328 3.99 0.9306 1.626 1.699 3.462 2.304 5.508 0.6516 1.998 1.232 4.113 1.744 6.348 0.5118 2.184 1.234 4.254 2.164 6.207h7.888c-1.116-2.418-1.977-4.81-2.581-7.182-0.5581-2.418-1.188-4.671-1.887-6.762-0.6978-2.139-1.581-4.021-2.652-5.65-1.024-1.672-2.536-2.997-4.537-3.973l1.746-0.6283c2.373-1.209 4.281-2.859 5.724-4.95 2.619-4.11 2.797-9.246 0.7656-13.39-2.074-4.099-5.938-6.672-9.838-7.948-2.881-0.8098-5.695-1.155-8.473-1.155zm192 0.01758-7.528 0.005859 0.1054 31.69c0.07904 5.44 1.611 10.76 5.094 14.5 3.916 3.858 8.796 5.47 14.17 5.365 5.749 0.008256 10.39-1.909 13.88-5.439 3.921-3.787 5.278-9.463 5.304-14.43v-31.69h-7.465v32.8c-0.248 3.84-1.022 7.128-3.28 9.621-2.293 2.388-5.461 3.465-8.443 3.484-3.886 0.1057-6.385-1.296-8.518-3.484-2.328-2.784-3.357-6.174-3.21-9.621zm-163.9 0.8991v50.68h30.43v-5.65h-22.81v-39.39h21.78v-5.644zm124.7 0v50.68h27.99c-0.05292-1.89 0.06715-3.988 0.06883-5.718h-20.38v-44.97zm75.21 0v5.649h14.31v45.04h7.671v-45.04h14.38v-5.649zm41.34 0v50.68h30.43v-5.65h-22.81v-39.39h21.78v-5.644zm-145.5 3.729c4.429 0.02442 8.533 1.986 11.11 5.581h0.00293c3.339 4.401 4.194 9.396 4.539 14.99-0.08818 5.424-1.43 10.74-4.47 14.85-2.868 3.679-7.102 5.823-11.37 5.859-4.797-0.06766-8.953-2.316-11.52-5.926-3.196-4.44-4.374-9.808-4.398-14.78 0.1072-5.419 1.365-10.83 4.467-14.92 2.875-3.861 7.209-5.68 11.64-5.655zm-77.31 17.92c-0.8841 0-1.672-0.04726-2.371 0.2782-0.6516 0.3253-1.234 0.6396-1.746 1.151-0.9463 1.038-1.77 2.304-2.163 3.451h16.11v-4.879zm241.3 0c-0.8841 0-1.672-0.04726-2.371 0.2782-0.6516 0.3253-1.234 0.6396-1.746 1.151-0.9464 1.038-1.77 2.304-2.163 3.451h16.11v-4.879z" style="fill:url(#linearGradient22881);stroke-width:3.814;stroke:url(#linearGradient22881)"/>
 <path id="resPurp" d="m261.7 37.67c-3.283-0.06735-6.54 0.5274-9.748 1.819-6.415 2.583-10.54 7.459-12.37 12.01-1.839 4.551-2.514 8.286-2.514 12.52l-0.00147-0.002928c0 3.997 0.6034 7.626 1.813 10.88 2.253 6.348 6.789 11.16 12.57 13.66 6.39 2.439 13.18 2.46 19.2-0.1392 5.974-2.601 10.54-7.858 12.63-13.74 2.37-6.106 2.404-14.1 0.3501-20.56-1.978-6.631-6.285-11.67-12-14.29-3.318-1.357-6.63-2.086-9.913-2.154zm-44.94 0.3222c-3.967 0.1145-7.588 1.155-10.38 3.558l-0.00292-0.002929c-2.937 2.505-4.096 5.923-4.119 9.276 0 2.602 0.5822 4.786 1.746 6.55 1.164 1.767 2.605 3.301 4.326 4.603 3.649 2.659 7.708 4.26 11.31 6.483 3.265 1.879 6.132 4.348 6.142 8.301-0.07774 2.556-1.091 4.309-2.65 5.718-2.131 1.647-4.615 2.323-7.186 2.301-1.674 0-3.583-0.2097-5.724-0.6283-2.14-0.4183-4.326-1.138-6.556-2.16l-2.025 5.091c2.605 1.255 5.235 2.115 7.888 2.578 4.902 0.9996 9.778 1.124 14.1-0.2782 3.877-1.305 7.008-3.814 8.586-7.182 1.801-3.844 1.555-8.698-0.558-12.06-1.163-1.86-2.629-3.463-4.398-4.812-1.768-1.395-3.675-2.602-5.724-3.624-3.622-2.008-7.359-3.792-10.12-6.625-1.164-1.255-1.746-2.764-1.746-4.531 0-1.906 0.6742-3.532 2.023-4.881 3.097-2.719 6.751-2.157 10.26-1.674 1.722 0.186 3.607 0.582 5.656 1.186l2.092-5.02c-2.559-0.7903-4.839-1.347-6.84-1.672-2.001-0.3253-4.023-0.4882-6.096-0.4861zm-79.33 0.8143c-0.9261-1.23e-4 -1.848 0.03783-2.767 0.1098l0.00439 0.005859c-3.924 0.2226-7.648 0.8076-11.16 1.463v50.05h7.603v-45.39c2.391-0.4941 5.028-0.5563 7.186-0.558 2.841 0.09966 5.64 1 7.678 2.719 1.947 1.779 3.351 4.206 3.21 6.693 0.08983 2.854-1.071 5.136-2.931 6.621-1.624 1.833-3.921 2.682-6.069 2.788-1.488 0.09284-2.746 0.6279-3.769 1.603-1.024 0.9756-1.792 2.068-2.304 3.277 1.07 0.2788 2.095 0.465 3.073 0.558 1.024 0.09283 1.977 0.1153 2.86 0.06883 0.443 0.027 0.9328-0.02007 1.327-0.06883 1.674 0.7903 2.766 1.998 3.696 3.624 0.9306 1.626 1.699 3.462 2.304 5.508 0.6516 1.998 1.232 4.113 1.744 6.348 0.5118 2.184 1.234 4.252 2.164 6.205h7.888c-1.116-2.418-1.978-4.809-2.583-7.18-0.5582-2.418-1.187-4.672-1.885-6.763-0.6978-2.139-1.581-4.02-2.652-5.649-1.024-1.672-2.536-2.997-4.537-3.973l1.746-0.6297c2.466-1.069 4.141-2.557 5.724-4.95 1.443-2.139 2.239-4.11 2.161-7.39 0.1475-2.695-0.4648-4.137-1.395-5.995-2.074-4.285-5.938-6.673-9.838-7.948-2.881-0.8098-5.695-1.154-8.473-1.154zm215.7 0.02198v32.8c0.1375 7.092-4.683 13.36-11.73 13.11-3.33-0.02548-6.384-1.296-8.511-3.484-2.328-2.784-3.195-6.37-3.211-9.621l-0.104-32.8-7.536-0.001466 0.1054 31.69c0.0102 3.069 0.4424 5.833 1.327 8.293 0.8841 2.418 2.137 4.485 3.766 6.207 1.674 1.72 3.7 3.045 6.07 3.975 2.373 0.9298 5.071 1.394 8.098 1.394 2.884 0 5.493-0.4648 7.813-1.394 2.373-0.9756 4.395-2.325 6.069-4.045 1.674-1.767 2.979-3.858 3.909-6.274 0.9306-2.464 1.395-5.182 1.395-8.158v-31.69zm-187.5 0.8946v50.68h30.43v-5.65h-22.81v-39.39h21.78v-5.644zm124.7 0v50.68h27.99c-0.05292-1.89 0.06715-3.988 0.06883-5.718h-20.38v-44.97zm75.21 0v5.649h14.31v45.04h7.671v-45.04h14.38v-5.649zm41.34 0v50.68h30.43v-5.65h-22.81v-39.39h21.78v-5.644zm-145.5 3.729c4.431 0.02625 8.533 1.986 11.49 5.985 2.956 3.997 4.182 9.088 4.156 14.58h-0.0044c-0.08818 5.424-1.428 10.74-4.468 14.85-7.155 8.188-17.31 7.513-22.89-0.06736-3.196-4.44-4.372-9.808-4.396-14.78 0.1072-5.419 1.365-10.83 4.467-14.92 2.875-3.861 7.207-5.68 11.64-5.655zm-77.76 17.61c-0.8841 0-1.674 0.1636-2.373 0.4891-2.097 1.01-3.784 4.749-3.909 5.019h16.86v-5.508zm241.3 0c-0.8841 0-1.674 0.1636-2.373 0.4891-2.26 1.048-3.184 2.829-3.909 5.019h16.86v-5.508z" style="fill:url(#linearGradientPurp);stroke-width:1.87;stroke:url(#linearGradientPurp)"/>
 <path id="resBlk" d="m261.4 37.95c-3.193-0.05697-6.228 0.5253-9.253 1.716l0.00293 0.001464c-6.463 2.688-10.81 7.643-12.82 13.16-2.931 7.323-2.451 15.93-0.2109 22.06 2.368 6.264 6.704 10.98 12.34 13.44 6.442 2.409 12.99 2.515 19.15-0.1377 6.411-2.697 10.24-7.824 12.42-13.51 2.427-6.384 2.398-14.07 0.3486-20.53-2.041-6.39-5.649-11.2-11.79-14.07-3.651-1.371-7.002-2.068-10.2-2.125zm-44.7 0.2548c-1.983-0.003255-3.913 0.3217-5.68 0.9726l0.00145-0.00293c-3.598 1.217-6.001 3.283-7.478 6.425-1.611 3.799-1.389 8.426 0.6972 11.68 1.164 1.767 2.405 3.3 4.127 4.602 3.931 2.863 7.736 4.101 11.51 6.483 1.768 1.023 3.235 2.185 4.398 3.486 2.121 2.37 2.092 6.197 1.046 8.149-1.242 2.475-2.982 3.532-5.025 4.252-3.18 1.083-6.915 0.6659-10.04 0.09976-2.14-0.4183-4.327-1.137-6.558-2.16l-2.025 4.69c2.607 1.255 5.236 2.115 7.888 2.58 4.849 0.9786 9.263 1.277 13.9-0.18 3.886-1.433 7.085-3.446 8.786-7.082 0.7911-1.672 0.986-3.462 0.986-5.371 0-2.65-0.5802-4.879-1.744-6.693-2.557-4.041-6.431-6.327-10.22-8.236-3.622-2.01-7.273-3.803-10.12-6.725-2.655-2.977-1.85-7.554 0.48-9.711 1.35-1.348 3.358-2.122 5.824-2.122 3.537 0.06915 6.871 0.5828 9.991 1.534l2.092-4.62c-2.56-0.7903-4.64-1.247-6.646-1.572-2.073-0.2235-4.209-0.4771-6.19-0.4803zm105.3 0.5802v31.8c0.07008 6.195 1.614 10.77 5.095 14.5 4.537 4.26 9.441 5.34 14.33 5.371 5.953 0.004701 10.4-1.905 13.89-5.439 4.165-4.396 5.277-9.456 5.302-14.43v-31.8h-7.626v32.91c-0.05201 3.796-1.023 7.129-3.282 9.621-2.395 2.646-5.083 3.403-8.286 3.484-3.33-0.0253-6.1-1.013-8.511-3.484-2.547-3.034-3.193-6.37-3.21-9.621v-32.91zm-198.4 1.823c-0.0029 16.59-0.00174 32.97-0.00174 49.56h7.311v-45.39c2.391-0.4935 5.33-0.5578 7.487-0.5595 1.488 0 2.887 0.256 4.189 0.7671 4 1.452 6.852 5.104 6.905 8.946-0.02111 4.008-2.856 7.197-5.865 8.646-1.116 0.4647-2.232 0.7207-3.349 0.7671-1.488 0.09284-2.746 0.6274-3.769 1.603-1.024 0.9756-1.794 2.067-2.305 3.276 1.07 0.2788 2.095 0.4653 3.073 0.558 1.266 0.1189 2.299 0.06883 3.489 0.06883 0.2326 0 0.4654-0.022 0.6986-0.06883 1.675 0.7903 2.979 1.998 3.91 3.624 2.029 3.822 3.153 7.971 4.047 11.85 0.512 2.184 1.234 3.952 2.164 5.907h7.389c-1.117-2.418-1.978-4.51-2.583-6.882-1.104-4.387-2.203-8.811-4.537-12.41-1.024-1.672-2.538-2.995-4.539-3.972l1.746-0.6312c2.374-1.209 4.282-2.857 5.724-4.948 2.683-4.045 2.799-9.238 0.7671-13.38-2.074-4.099-5.938-6.473-9.838-7.748-2.28-0.7903-4.518-1.186-8.438-1.097-3.92 0.08917-9.063 0.6056-13.67 1.513zm42.4-0.6774v50.29h29.93v-5.245h-23.01v-39.79h21.98v-5.245zm124.5 5e-4v50.34h27.59c-0.05325-1.89 0.06862-3.59 0.0703-5.319h-20.38v-45.01zm75.01-0.2001v5.649h14.31v45.04h7.678v-45.04h14.38v-5.649zm41.34 0v50.68h30.43v-5.644h-22.81v-39.39h21.78v-5.644zm-145.9 3.512c2.097-0.03697 4.195 0.4233 6.339 1.455l0.00292-0.002929c4.897 2.629 7.24 6.737 8.554 10.91 1.5 5.629 1.623 11.43 0 16.71-1.485 4.863-4.499 8.929-8.486 11.06-4.231 2.2-9.006 1.951-12.81 0-4.287-2.473-7.134-6.904-8.486-11.12-1.41-5.571-1.534-11.36 0.06884-16.56 1.469-4.593 4.139-8.606 8.486-10.91 2.14-0.9553 4.237-1.491 6.336-1.527zm174.4 17.72-10.62 0.001464c-0.8841 0-1.782 0.2661-2.479 0.5917-2.124 1.135-3.148 2.821-3.91 5.125h17.02zm-251.7 0.305c-0.8841 0-1.675-0.03745-2.373 0.288-2.124 1.135-3.148 2.517-3.91 4.821h16.45v-5.109z" style="fill:url(#linearGradient22878)"/>
 <path id="trim" d="m296.5 8.876c-6.786-0.1864-1.975-0.4021-5.353-0.01239l7.428 40.5c4.795-0.2589 4.003-0.5031 7.56-1.294 0.7224-6.273-9.127-34.92-9.63-39.19zm-286.6 57.15c-5.134 8.197-4.405 18.78-6.028 26.4 0.493 1.408 12.66-3.79 14.11-4.681 1.629-8.04 9.802-19.09 9.795-19.11 9.84-1.161 14.68-3.535 18.25-9.022-7.054-4.968-30.19 0.3774-36.13 6.42zm203.1 63.09c-17.04 0.843-94.8-2.784-101 2.902 35.28 2.56 87.45 0.09772 115.6-0.3826 24.39-0.8115 51.3-0.21 75.22-2.334-0.3861-0.5331-1.337-1.286-3.111-1.6-5.568-0.9855-58.51 2.304-86.77 1.415zm188.7-127.2c-6.211-2.536-15.93 0.2736-20.79-1.073-50.22 0.06921-105-0.3789-142.2 1.087-7.957 0.5025-19.56 1.894-26.07 4.323 7.05 0.04138 182.5-1.818 193.5-1.327zm-374.1 127.4 10.01 0.852c1.998-27.01 11.63-39.81 38.13-38.76 22.86 8.935 23.56 23.35 25.35 38.34l12.14-1.065c-1.585-34-13.24-51.81-42.6-52.83-36.73 0.01094-42.81 24.58-43.02 53.46zm274.9-7.881 12.35 0.426c-2.175-18.87 23.38-32.61 27.04-31.74 15.54 3.684 28.74 10.42 33.01 28.75l13.17-0.9771c4.368-33.57-17.55-41.34-44.05-44.61-24.12 4.027-46.92 9.594-41.53 48.13z" style="display:none;fill:#ffffff"/>
 <path id="fHub" d="m50.29 99.86c23.71-17.12 46.87 1.919 47.09 24.18 0.08734 8.921-13.05 29.25-29.86 27.49-31.48-3.3-35.34-38.58-17.23-51.64z" style="display:none;fill:#ffffff"/>
 <path id="fWheel" d="m67.56 88.33c16.73 0 34.97 11.78 34.97 35.04 0.2997 16.42-14.5 33.18-33.64 33.18-19.49 0-34.56-14.89-34.56-34.4 0-20.09 17.2-33.81 33.22-33.81zm27.03 43.4c5.204-16-2.724-32.02-20.6-36.71-20.86-3.327-33.12 13.25-33.6 25.72-0.8524 14.37 8.786 24.6 18.74 28.21 17.89 5.65 32.47-6.231 35.46-17.23zm-36.69 14.55c2.511-5 4.61-8.794 7.344-13.49 0.7346-1.059 1.078-1.037 3.518 0.2347 3.322 1.733 3.996 2.413 4.493 4.523 1.041 3.363 2.27 6.522 3.01 10.11-2.31 3.207-20.53 0.9684-18.37-1.381zm17.22 1.365c-0.6001-0.2526-1.829-1.375-2.107-1.922-0.4035-0.7984-2.27-9.124-2.087-9.304 0.1802-0.1843 0.7188-0.2035 1.033-0.03709 0.621 0.3292 0.2173-0.4431-0.4823-0.9222-0.9514-0.652-4.757-2.645-5.083-2.581-1.246 0.1455-7.425 11.96-7.616 13.59 0.1502 0.8194 0.5862 0.6586 0.5862-0.2158 0-0.4404 0.1474-0.8209 0.4804-1.238 1.463-2.398 5.642-12.19 6.786-11.26 0.4167 0.00302 1.931 0.7736 2.255 1.149 1.472 4.673 1.841 7.145 2.956 11.68 0.3199 0.8742-0.1073 2.049-0.1894 2.289 1.345 0.241 3.752-0.9673 3.467-1.224zm-1.282-16.96c2.143-1.9 4.538-3.153 6.787-3.222 1.987 0.3956 9.777 3.396 11.84 4.756 0.6109 1.78-6.123 11-11.01 13.54-2.409 2.389-6.202-11.92-7.616-15.07zm7.355 14.03c0.04726-0.333-0.4517-0.1891-0.6507-0.2724-1.823-4.87-3.717-8.426-5.047-13.13 0.05381-0.4712 0.8666-0.9649 2.044-1.241 1.33-0.4323 7.322 2.62 9.784 3.824 2.397 1.175 3.024 1.642 3.049 2.27 0.2691 0.09391 1.95-2.964 1.957-3.605-0.6234-0.01641-1.91 0.4617-3.085 0.4838-3.154-1.152-6.097-2.272-8.824-4.059 0.02457-0.1826 0.2907-0.4558 0.5914-0.6069 0.8321-0.4181 0.6655-0.583-0.5044-0.5006-2.246 0.4544-3.977 1.292-5.561 2.764-0.4262 0.8546-0.4193 0.9312 0.205 2.335 1.467 3.908 3.301 7.968 4.723 11.49 0.2012 0.5254 0.5934 1.068 0.7713 1.068 0.4396-0.08158 0.5816-0.46 0.547-0.8177zm-37.88-15.46c5.952-1.167 14.48-3.005 16.21-2.379 1.138 1.263 2.067 5.91 1.27 7.593-0.7356 1.589-6.43 10.65-6.846 10.5-2.967-0.06299-13.11-13.26-10.63-15.72zm10.35 15.29c-1.336-2.399 3.122-7.02 5.322-10.68 0.4565-0.4203 0.8044-0.2347 0.9964 0.5318 0.1589 0.8028 0.1744 0.6142 0.4811-0.02946-0.0364-3.202-0.06649-8.021-2.914-7.065-4.49 0.6366-9.274 1.341-13.12 2.412-0.2192 0.2244-0.04724 0.8021 0.1937 0.6492 4.28-0.7601 8.824-1.864 12.91-2.344 1.344-0.2793 2.278 2.968 1.149 4.091-2 3.235-6.184 10.47-8.141 9.507-0.6989-0.227-0.2355 0.4386 1.208 1.735 0.4822 0.6483 1.703 1.338 1.915 1.198zm12.3-16.78c1.13-1.324 3.057-1 3.552 0.7668 0.1158 0.8666-0.3722 1.775-1.124 2.14-1.94 0.7464-3.455-1.209-2.428-2.907zm5.305-2.086c0.6899-1.837 2.437-1.467 2.896-1.042 1.255 0.7166 1.086 2.517 0.1361 3.156-1.534 1.092-3.548-0.3351-3.031-2.114zm6.396-3.743c0-0.5392 0.6816-3.515 1.034-4.512 1.451-4.167 7.893-6.273 11.99-8.216 3.354 4.182 4.101 11.88 3.244 18.1-0.5952 1.376-17.58-2.52-16.27-5.369zm15.42 4.509c0-0.2491-0.211-0.3234-1.18-0.4155-4.241-1.157-10.14-2.014-12.88-4.515 0.05917-0.8419 0.2814-1.526 0.514-2.332 0.1543-1.436 7.781-4.092 12.08-5.92 0.4362 0 0.7931-0.07249 0.7931-0.1612 0-0.3441-1.549-3.574-1.682-3.48 0.1974 3.276-4.087 4.351-6.508 5.808-3.654 1.813-3.84 1.843-3.84 0.6451 0-0.6015-0.006032-0.6069-0.3388-0.2986-1.13 1.504-1.786 5.215-1.521 6.941 4.107 1.967 8.659 2.751 12.36 4.128 1.142 0.5426 2.124 0.2493 2.207-0.3987zm-31.51-2.788c0.69-0.7248 2.455-0.342 2.848 0.6492 0.7064 1.089-0.1091 2.881-1.795 2.859-2.063-0.2508-2.367-2.673-1.054-3.509zm-19.1 1.354c-1.287 0.1363-0.8149-13.69 5.065-18.16 4.492 4.206 11.7 9.694 12.12 11.91-0.5705 1.828-3.34 5.008-5.089 5.341-3.884 0.3359-8.401 0.9271-12.1 0.9109zm0.7173-1.33c1.401-1.385 1.418-1.389 6.418-1.294 2.437 0.04664 4.615 0.123 4.837 0.1703 0.4013 0.08481 0.3983 0.09426-0.2463 0.7698-0.7091 0.7431-0.6879 0.8096 0.1418 0.4433 0.9904-0.4367 3.596-3.25 4.259-4.6 0.5986-1.218 0.5916-1.233-1.469-3.145-2.239-2.18-4.853-4.422-6.989-6.34-1.577-1.562-2.446-2.005-2.686-1.366 3.433 3.461 7.869 6.756 10.74 9.954 0 0.3962-1.48 2.089-2.017 2.308-2.363 0.9825-13.08 0.6123-13.88-0.1186-0.1029 0.1053-0.1643 3.417-0.06816 3.683 0.7765 1.387 0.4573-0.07996 0.9683-0.4641zm28.57-3.423c0.05803-2.337 2.502-2.586 3.536-1.294 0.9529 1.879-0.413 2.872-0.8531 2.959-1.477 0.4958-2.538-0.4718-2.683-1.666zm-9.979-2.313c0.6126-0.6818 2.092-1.164 3.024-0.00603 1.304 1.726-0.3963 3.177-1.245 3.201-1.975 0.03383-2.73-1.784-1.778-3.195zm5.075-0.6171c-0.41-1.919 1.068-2.689 2.051-2.613 2.228 0.36 2.221 2.965 0.6784 3.734-0.7698 0.2545-1.835 0.4281-2.73-1.12zm3.108-9.079c-0.0477-1.431 1.612-12.11 2.332-12 3.097-0.2901 10.9 3.909 13.84 6.884 1.919 1.837 2.053 2.234 1.059 3.145-4.485 3.437-11.83 9.109-12.75 8.876-0.8242-0.3617-4.749-3.963-4.487-6.908zm5.527 5.953c3.696-2.631 7.878-5.473 11.16-8.231 0.1231-0.2354 0.1216-0.4424-0.004524-0.6843-0.2302-0.4404-0.515-0.4446-0.6262-0.00957-4.109 3.376-7.277 5.889-11.4 8.494-1.907-2.029-1.787-3.678-1.458-5.242 1.274-3.648 1.645-10.66 2.898-10.77 0.3046-0.228 0.2845-0.259-0.3489-0.5347-1.077-0.4969-2.298-0.5627-3.441-0.6924-0.0188 0.3831 1.376 2.231 1.273 3.624-0.1723 2.434-0.8344 4.937-1.288 7.221-0.1759 1.177-0.4542 1.72-0.8831 1.72-0.4775-0.3249-0.7518-0.6818-1.161-1.127-0.09439 0.6513 0.1341 1.267 0.2959 1.844 1.461 2.122 3.066 5.255 4.977 4.386zm-8.269-18.18c0.2964 0.85-0.4707 17.24-0.9994 17.44-1.101 0.2944-4.488 0.3609-6.733-0.05269-3.087-2.956-8.786-7.773-9.086-9.897 0.8338-3.212 11.86-8.404 16.82-7.488zm-1.261 16.58c0.4272-2.042 0.947-9.789 0.6798-15.48-0.5353-0.09298-0.5737-0.02932-0.5874 0.9799-0.04205 5.011-0.5113 9.207-0.7482 13.74-1.805 0.3816-2.916 0.126-3.876-1.219-2.795-3.621-7.704-8.287-7.652-9.999-0.8052 0.0264-2.275 1.97-2.623 2.643 0.5891 0.0705 1.193 0.158 1.698 0.2504 2.736 2.296 5.164 5.179 7.032 8.141-0.5182 0.2992-1.065 0.1808-1.552-0.00679-0.273 0.1726 0.1101 0.6451 0.7728 0.9529 0.4205 0.2586 4.92 0.6787 6.856-0.00236z" style="display:none;fill:#000000"/>
 <path id="rHub" d="m326.9 99.86c23.71-17.12 46.87 1.919 47.09 24.18 0.08733 8.921-13.05 29.25-29.86 27.49-31.48-3.3-35.34-38.58-17.23-51.64z" style="display:none;fill:#ffffff"/>
 <path id="rWheel" d="m344.2 88.33c16.73 0 34.97 11.78 34.97 35.04 0.2997 16.42-14.5 33.18-33.64 33.18-19.49 0-34.56-14.89-34.56-34.4 0-20.09 17.2-33.81 33.22-33.81zm27.03 43.4c5.204-16-2.724-32.02-20.6-36.71-20.86-3.327-33.12 13.25-33.6 25.72-0.8524 14.37 8.786 24.6 18.74 28.21 17.89 5.65 32.47-6.231 35.46-17.23zm-36.69 14.55c2.511-5 4.61-8.794 7.344-13.49 0.7346-1.059 1.078-1.037 3.518 0.2347 3.322 1.733 3.996 2.413 4.493 4.523 1.041 3.363 2.27 6.522 3.01 10.11-2.31 3.207-20.53 0.9684-18.37-1.381zm17.22 1.365c-0.6001-0.2526-1.829-1.375-2.107-1.922-0.4035-0.7984-2.27-9.124-2.087-9.304 0.1802-0.1843 0.7188-0.2035 1.033-0.03709 0.621 0.3292 0.2173-0.4431-0.4823-0.9222-0.9514-0.652-4.757-2.645-5.083-2.581-1.246 0.1455-7.425 11.96-7.616 13.59 0.1502 0.8194 0.5862 0.6586 0.5862-0.2158 0-0.4404 0.1474-0.8209 0.4804-1.238 1.463-2.398 5.642-12.19 6.786-11.26 0.4167 0.00302 1.931 0.7736 2.255 1.149 1.472 4.673 1.841 7.145 2.956 11.68 0.3199 0.8742-0.1073 2.049-0.1894 2.289 1.345 0.241 3.752-0.9673 3.467-1.224zm-1.282-16.96c2.143-1.9 4.538-3.153 6.787-3.222 1.987 0.3956 9.777 3.396 11.84 4.756 0.6109 1.78-6.123 11-11.01 13.54-2.409 2.389-6.202-11.92-7.616-15.07zm7.355 14.03c0.04726-0.333-0.4517-0.1891-0.6507-0.2724-1.823-4.87-3.717-8.426-5.047-13.13 0.05381-0.4712 0.8666-0.9649 2.044-1.241 1.33-0.4323 7.322 2.62 9.784 3.824 2.397 1.175 3.024 1.642 3.049 2.27 0.2691 0.09391 1.95-2.964 1.957-3.605-0.6234-0.01641-1.91 0.4617-3.085 0.4838-3.154-1.152-6.097-2.272-8.824-4.059 0.02456-0.1826 0.2907-0.4558 0.5914-0.6069 0.8321-0.4181 0.6656-0.583-0.5044-0.5006-2.246 0.4544-3.977 1.292-5.561 2.764-0.4262 0.8546-0.4193 0.9312 0.205 2.335 1.467 3.908 3.301 7.968 4.723 11.49 0.2012 0.5254 0.5934 1.068 0.7713 1.068 0.4396-0.08158 0.5816-0.46 0.547-0.8177zm-37.88-15.46c5.952-1.167 14.48-3.005 16.21-2.379 1.138 1.263 2.067 5.91 1.27 7.593-0.7356 1.589-6.43 10.65-6.846 10.5-2.967-0.06299-13.11-13.26-10.63-15.72zm10.35 15.29c-1.336-2.399 3.122-7.02 5.322-10.68 0.4565-0.4203 0.8044-0.2347 0.9964 0.5318 0.1589 0.8028 0.1744 0.6142 0.4811-0.02946-0.03641-3.202-0.06649-8.021-2.914-7.065-4.49 0.6366-9.274 1.341-13.12 2.412-0.2192 0.2244-0.04724 0.8021 0.1937 0.6492 4.28-0.7601 8.824-1.864 12.91-2.344 1.344-0.2793 2.278 2.968 1.149 4.091-2 3.235-6.184 10.47-8.141 9.507-0.6989-0.227-0.2355 0.4386 1.208 1.735 0.4822 0.6483 1.703 1.338 1.915 1.198zm12.3-16.78c1.13-1.324 3.057-1 3.552 0.7668 0.1158 0.8666-0.3722 1.775-1.124 2.14-1.94 0.7464-3.455-1.209-2.428-2.907zm5.305-2.086c0.6898-1.837 2.437-1.467 2.896-1.042 1.255 0.7166 1.086 2.517 0.1361 3.156-1.534 1.092-3.548-0.3351-3.031-2.114zm6.396-3.743c0-0.5392 0.6816-3.515 1.034-4.512 1.451-4.167 7.893-6.273 11.99-8.216 3.354 4.182 4.101 11.88 3.244 18.1-0.5952 1.376-17.58-2.52-16.27-5.369zm15.42 4.509c0-0.2491-0.211-0.3234-1.18-0.4155-4.241-1.157-10.14-2.014-12.88-4.515 0.05917-0.8419 0.2814-1.526 0.514-2.332 0.1543-1.436 7.781-4.092 12.08-5.92 0.4362 0 0.7931-0.07249 0.7931-0.1612 0-0.3441-1.549-3.574-1.682-3.48 0.1974 3.276-4.087 4.351-6.508 5.808-3.654 1.813-3.84 1.843-3.84 0.6451 0-0.6015-0.00603-0.6069-0.3388-0.2986-1.13 1.504-1.786 5.215-1.521 6.941 4.107 1.967 8.659 2.751 12.36 4.128 1.142 0.5426 2.124 0.2493 2.207-0.3987zm-31.51-2.788c0.69-0.7248 2.455-0.342 2.848 0.6492 0.7064 1.089-0.1091 2.881-1.795 2.859-2.063-0.2508-2.367-2.673-1.054-3.509zm-19.1 1.354c-1.287 0.1363-0.8149-13.69 5.065-18.16 4.492 4.206 11.7 9.694 12.12 11.91-0.5706 1.828-3.34 5.008-5.089 5.341-3.884 0.3359-8.401 0.9271-12.1 0.9109zm0.7173-1.33c1.401-1.385 1.418-1.389 6.418-1.294 2.437 0.04664 4.615 0.123 4.837 0.1703 0.4013 0.08481 0.3983 0.09426-0.2463 0.7698-0.7091 0.7431-0.6879 0.8096 0.1418 0.4433 0.9904-0.4367 3.596-3.25 4.259-4.6 0.5986-1.218 0.5916-1.233-1.469-3.145-2.239-2.18-4.853-4.422-6.989-6.34-1.577-1.562-2.446-2.005-2.686-1.366 3.433 3.461 7.869 6.756 10.74 9.954 0 0.3962-1.48 2.089-2.017 2.308-2.363 0.9825-13.08 0.6123-13.88-0.1186-0.1029 0.1053-0.1643 3.417-0.06816 3.683 0.7765 1.387 0.4573-0.07996 0.9683-0.4641zm28.57-3.423c0.05803-2.337 2.502-2.586 3.536-1.294 0.9529 1.879-0.413 2.872-0.8531 2.959-1.477 0.4958-2.538-0.4718-2.683-1.666zm-9.979-2.313c0.6126-0.6818 2.092-1.164 3.024-0.00603 1.304 1.726-0.3963 3.177-1.245 3.201-1.975 0.03383-2.73-1.784-1.778-3.195zm5.075-0.6171c-0.41-1.919 1.068-2.689 2.051-2.613 2.228 0.36 2.221 2.965 0.6784 3.734-0.7698 0.2545-1.835 0.4281-2.73-1.12zm3.108-9.079c-0.0477-1.431 1.612-12.11 2.332-12 3.097-0.2901 10.9 3.909 13.84 6.884 1.919 1.837 2.053 2.234 1.059 3.145-4.485 3.436-11.83 9.109-12.75 8.876-0.8242-0.3617-4.749-3.963-4.487-6.908zm5.527 5.953c3.696-2.631 7.878-5.473 11.16-8.231 0.123-0.2354 0.1216-0.4424-0.00452-0.6843-0.2302-0.4404-0.515-0.4446-0.6262-0.00957-4.109 3.376-7.277 5.889-11.4 8.494-1.907-2.029-1.787-3.678-1.458-5.242 1.274-3.648 1.645-10.66 2.898-10.77 0.3046-0.228 0.2845-0.259-0.3489-0.5347-1.077-0.4969-2.298-0.5627-3.441-0.6924-0.01881 0.3831 1.376 2.231 1.273 3.624-0.1723 2.434-0.8344 4.937-1.288 7.221-0.1759 1.177-0.4542 1.72-0.8831 1.72-0.4775-0.3249-0.7518-0.6818-1.161-1.127-0.09439 0.6513 0.1341 1.267 0.2959 1.844 1.461 2.122 3.066 5.255 4.977 4.386zm-8.269-18.18c0.2964 0.85-0.4707 17.24-0.9994 17.44-1.101 0.2944-4.488 0.3609-6.733-0.05269-3.087-2.956-8.786-7.773-9.086-9.897 0.8338-3.212 11.86-8.404 16.82-7.488zm-1.261 16.58c0.4272-2.042 0.947-9.789 0.6798-15.48-0.5353-0.09298-0.5737-0.02932-0.5874 0.9799-0.04205 5.011-0.5113 9.207-0.7482 13.74-1.805 0.3816-2.916 0.126-3.876-1.219-2.795-3.621-7.704-8.287-7.652-9.999-0.8052 0.0264-2.275 1.97-2.623 2.643 0.5891 0.0705 1.193 0.158 1.698 0.2504 2.736 2.296 5.164 5.179 7.032 8.141-0.5182 0.2992-1.065 0.1808-1.552-0.00679-0.273 0.1726 0.1101 0.6451 0.7728 0.9529 0.4205 0.2586 4.92 0.6787 6.856-0.00236z" style="display:none;fill:#000000"/>
 <path id="brake" d="m422.7 12.03c1.057-0.5731 1.212-0.01446 7.65 9.78 5.731 8.992 11.87 21.9 14.02 29.19 1.563 4.59 2.427 21.1 0.9945 21.54-0.4444 0.1309-4.738 1.719-5.598-0.2923-0.7575-1.77-0.1614-6.882-0.6303-11.46-0.9637-9.225-3.226-17.98-6.897-26.07-3.642-9.96-10.54-16.98-11.67-22.74z" style="display:none;fill:#8a112b"/>
 <path id="body" d="m231.1 2.238c-4.624 0.5463-13.75 1.497-22.03 4.123-9.525 0.124-22.36 0.9945-28.17 1.663-1.238 0.1424-4.056 0.2914-6.106 0.9735-0.8707 0.2895-0.4422-2.38-3.267-1.31 0.2772-3.652-1.274-3.213-5.053-1.007-1.939 2.049-0.07501 4.413-7.327 7.386-17.22 8.452-35.85 23.32-48.78 35.2-21.91 1.207-45.72 1.983-63.91 4.833-9.262 1.27-27.46 3.84-34.53 7.452-5.94 2.65-8.902 14.34-9.922 19.92-2.074 8.19-2.076 21.21-1.968 27.3 0.2217 11.76 1.354 12.65 3.526 15.94 2.424 6.435 6.394 5.292 9.682 9.735 0.2782 1.225 0.3805 5.071 1.338 5.62 5.118 0.99 12.49 1.735 17.61 1.366-2.007-26.07-0.9592-45.31 12.16-52.3 14.75-7.05 43.39-9.442 54.37 0 6.709 10.95 6.327 18.76 9.495 30.96 0.2217 3.849 1.99 11.71 2.559 14.3 0.561 0.2223 7.74 0.4068 15.24 0.2781 29.82 0.03556 61.44 0.6997 92.47 0.3339 28.6-0.6926 58.9-2.706 85.12-3.483 1.606-5.434 1.644-7.717 2.263-11.91 1.95-16.59 6.204-30.6 14.57-35.82 10.81-7.695 42.43-5.583 51.03 0 4.302 1.695 13.3 21.1 14.3 40.48 4.6-0.299 22.69-2.014 30.1-2.628 15.58-1.291 22.26-2.218 22.33-2.536 0.5385 0.02413 8.542-10.43 10.65-15.76 1.105-4.264 0.9885-8.265 1.03-11.35 0.1214-3.052 0.4137-7.387-1.243-9.06-1.488-2.374-1.899-1.489-2.475-2.74 0.2376-1.686-0.1181-3.144-0.5792-7.905l-5.14-0.2619c-0.1118-2.731 0.3014-3.916-0.06813-5.793-0.8527-11.08 0.09525-9.457-1.822-17.64-2.22-6.498-8.115-20.08-9.832-23.04-3.93-6.61-3.988-6.765-7.732-12.67-0.3159-1.09 3.595 0.00804 3.475 0.1557-2.53-3.906 0.7328 0.9322 4.096-2.19-0.2751-1.258 1.672-5.269-4.914-5.778-4.57-0.4294-11.83-0.1274-17.61-0.8242-3.361-1.812-2.095-2.602-7.635-3.801-21.33-0.972-61.15-0.1819-96.07 0.4231-6.091 0.222-64.9 0.01191-71.34 1.348zm164.4-0.7258c5.103-0.2487 5.421 1.492 9.247 2.905-76.05-0.5031-131.2-0.01551-191.7 1.744 1.896-0.5578 12.67-2.344 18.27-3.178 4.081-0.921 44.37-1.433 67.62-1.429 10.21-0.1042 90.67-0.5559 96.52-0.04147zm-97.05 44.97c-1.644-10.83-4.171-22.09-6.787-35.37l-0.376-1.851c1.496 0.00843 2.749 0.08641 4.218 0.09714 5.488 16.63 6.781 25.26 9.645 36.84-0.2438 2.368-2.487 2.02-6.523 2.112zm-254.7 13.41c-2.25 3.637-3.814 4.978-7.02 5.671-8.287 1.031-11.78 1.906-13.86 4.888-4.251 4.326-3.823 12.16-9.622 18.24-1.981 0.7597-6.376 1.795-7.8 1.542 0.1726-3.33 3.238-22.57 4.989-23.7 13.26-6.277 21.34-5.079 33.31-6.648zm257.7 69.04c-27.88 1.732-72.67 1.677-83.25 2.236-10.93 0.1516-24.45 0.3811-35.86 0.4569-25.35 0.02748-62.32 1.375-68.92 0.1142 0.3105-0.4827 1.713-1.311 2.634-0.9232 5.502 0.3976 53.53-0.235 102-0.8415 30.9-0.3867 56.08-1.454 82.2-2.016z" style="display:none;fill:#000000"/>
 <path id="dDTrim" d="m214 10.89c-16.83-0.0204-37.54-0.4839-53.53 7.792-13.99 9.217-31.72 18.13-40.63 32.7 0.5286 1.303 1.399 2.356 2.86 2.973l89.85-3.216 0.1857-2.541-89.25 2.8c0.186-5.814 28.9-26.17 40.45-31.21 16.98-7.393 35.05-6.807 50.04-7.384zm-8.175 49.93-22.57 1.04 0.4152 3.954 24.55-0.729zm5.509 34.38-92.77 1.522 1.873 8.01 91.2-5.155z" style="display:none;fill:#ffffff"/>
 <path id="dDoor" d="m214 11.04c-18.49 0.5419-26.88 0.897-32.7 1.983-13.84 1.999-24.52 7.567-35.67 15.49-7.198 5.664-17.55 13.2-23.82 20.44-0.7066 0.9645-3.994 5.394 3.948 4.834 11.95-0.291 26.55-0.8362 38.62-1.241 18.27-0.3847 29.43-1.297 48.21-1.693l0.1332-2.071c-42.1 0.9277-73.54 2.857-78.75 2.947-2.496 0.04324-11.71 1.049-11.09-0.3406 1.747-5.296 14.69-15.82 25.38-22.9 17.62-11.95 27.43-13.94 49.78-15.45 7.177-0.1945 8.092-0.2652 15.93-0.456zm-7.912 51.19c-1.242-1.079-12.7-0.2842-16.15-0.07936-9.202 0.3901-5.136 3.694-3.64 3.183 7.101-0.7308 16.51 0.1138 20.14-1.156zm5.292 33.21c-13.45 0.2976-19.74 0.7447-32.67 0.9277-20.43 0.3618-40.93 0.6747-59.04 1.18 0.2124 7.71 1.279 6.561 8.475 5.802 32.02-1.768 54.97-3.295 83.4-3.892zm-88.8 29.55c-5.179-10.71-5.619-23.31-7.266-35.43-0.2673-11.55-1.257-23.74-0.45-34.35 0.5671-3.385 1.672-5.862 3.429-7.792 1.917-2.427 5.229-5.226 7.882-7.356 6.82-5.731 14.02-10.78 21.58-16.08 9.397-6.388 19.62-10.93 30.82-12.9 7.627-1.765 14.6-1.908 21.73-1.947l13.75-0.1569c-0.3132 13.3-0.1289 28.02-1.585 43 0 0-1.028 19.53-1.141 30.28-0.06482 6.204-0.00897 12.1 0.2094 17.74 0.8797 12.81 2.118 15.04 3.87 24.48z" style="display:none;fill:#000000"/>
 <path id="rDTrim" d="m278.7 58.75c-4.288 0.8482-8.25 0.5823-8.047 2.995 0.374 1.265 2.955 1.386 9.382 1.138 4.05-0.5677 14.48-0.2542 14.51-2.014-0.1276-2.95-4.203-2.887-15.85-2.119zm-67.23 40.9 83.02-2.68c3.171-3.937 1.78-1.737 2.733-5.097l-85.87 3.439m1.212-43.96 0.2078-2.781 85.27-2.275 0.3219 2.088zm1.358-38.55 0.03-1.921c25.77-0.6006 51.66-2.007 77.4-1.788l0.3838 2.175c-27.09-0.04953-54.61 1.011-77.77 1.536z" style="display:none;fill:#ffffff"/>
 <path id="rD" d="m212.7 48.79c30.58-0.6726 61.51-1.785 85.27-2.31l0.2652 1.827c-13.46 0.1463-82.95 2.724-85.65 2.557 0.01942-0.5302 0.1089-1.654 0.1162-2.074zm78.9-37.62c-26.28-0.318-53.52 0.7116-77.7 1.425l0.02251-1.546c23.5-0.7432 51.16-1.945 77.32-1.794m-12.58 53.13c-8.235 0.3208-7.002 0.7912-7.056-2.04 3.363-1.45 19.24-2.019 21.69-1.132 0.5024 0.5094 1.15 1.929 0.3216 2.187-2.658 0.8272-11.13 0.4878-14.96 0.9847zm-67.39 33.07c30.24-0.6627 60.27-1.92 84.97-2.586 0.7174 0.4767-0.846 1.908-2.922 2.922-30.09 0.9982-56.98 3.159-81.9 3.681zm86.77 26.65c1.942-21.13 4.996-44.29 1.503-66.69-2.497-16.02-5.631-32.41-8.73-48.24l-76.87 1.836c-0.1995 7.792-0.0324 25.53-1.585 43-0.7113 11.08-1.054 24.57-1.141 30.28-0.1292 7.248-0.06618 13.13 0.2096 17.74 0.5385 9.202 1.849 15.12 3.871 24.48z" style="display:none;fill:#000000"/>
</svg>
