<svg xmlns="http://www.w3.org/2000/svg">
<path id="shirt" d="m188.8 41.65c3.238 0.03853 6.423-1.004 9.671 0.2278l-1.388 11.04-6.254 0.1243-1.574-3.604zm-2.609-12.76 0.6627 1.16 13.34-0.04142 0.8698-1.284c-8.009-3.677-6.647-2.741-14.87 0.1657z" style="fill:#ffffff"/>
 <path id="chauf" d="m193.7 22.67c-3.911 0-6.215 1.276-7.78 4.308-1.012 1.957-1.015 2.189-0.0167 2.92 0.597 0.4365 1.085 1.725 1.085 2.867 0 3.043 1.244 5.272 3.612 6.472h0.00557c4.376 2.215 9.808-1.171 9.808-6.115 0-1.465 0.4312-2.745 1.085-3.223 0.9986-0.7307 0.9958-0.9629-0.0167-2.92-1.568-3.032-3.87-4.308-7.78-4.308zm0 4.751c2.663-2.65e-4 5.323 0.4598 6.238 1.384 0.6316 0.6382 0.3992 0.6611-1.081 0.1023-1.039-0.3922-3.359-0.7123-5.156-0.7123s-4.117 0.3203-5.156 0.7123c-1.479 0.558-1.715 0.5343-1.085-0.1023 0.915-0.9245 3.578-1.384 6.243-1.384zm3.174 13.99 0.4586 3.661c0.4644 3.717-0.3221 7.279-1.605 7.279-0.3782 0-0.69-1.131-0.6962-2.515-0.00612-1.384-0.2717-2.936-0.5937-3.444-1.024-1.616-2.08-0.1057-2.08 2.977 0 3.217-0.8337 3.843-2.064 1.544-0.4918-0.9189-0.6115-2.86-0.3276-5.369 0.1843-2.676 0.1764-3.37-0.02011-3.935-0.2236-0.008486-0.6146 0.007319-0.9751 0.007319-3.12 0-5.937 2.063-7.686 5.642-2.112 4.318-3.407 14.02-2.572 19.26 0.5463 3.432 0.6717 3.608 2.58 3.608h2.007l0.3973-8.722c0.2169-4.797 0.7246-9.479 1.13-10.4 0.5545-1.261 0.7457 4.18 0.778 21.94 0.03898 21.76 0.1346 23.67 1.216 24.3 1.737 1.011 3.595 0.8683 4.98-0.3849 1.116-1.01 1.229-2.408 1.229-15.43 0-9.1 0.2453-14.32 0.6716-14.32 0.4262 0 0.6717 5.183 0.6717 14.21 0 12.27 0.1502 14.37 1.11 15.43 1.363 1.506 3.799 1.59 5.213 0.1761 0.9162-0.9161 1.06-4.105 1.098-24.33 0.03174-17.31 0.2297-22.84 0.7697-21.59 0.3994 0.9228 0.8694 5.539 1.044 10.25 0.269 7.262 0.4963 8.666 1.486 9.2 0.7847 0.4201 1.558 0.3418 2.351-0.2375 1.051-0.7686 1.147-1.847 0.8928-9.869-0.2294-7.251-0.5541-9.596-1.667-12.03-1.793-3.916-4.11-5.993-7.262-6.505zm-3.362 0.9785c-0.597-0.05241-1.155 0.3279-1.155 1.187 0 0.9601 0.4322 1.392 1.392 1.392s1.322-0.362 1.167-1.167c-0.1684-0.8744-0.8076-1.361-1.405-1.413z" style="fill:#290a43"/>
     
</svg>