<?xml version="1.0" encoding="UTF-8" standalone="no"?>
<svg xmlns:dc="http://purl.org/dc/elements/1.1/" xmlns:cc="http://creativecommons.org/ns#" xmlns:rdf="http://www.w3.org/1999/02/22-rdf-syntax-ns#" xmlns:svg="http://www.w3.org/2000/svg" xmlns="http://www.w3.org/2000/svg" xmlns:sodipodi="http://sodipodi.sourceforge.net/DTD/sodipodi-0.dtd" xmlns:inkscape="http://www.inkscape.org/namespaces/inkscape" id="esv-mbz-offscreen" preserveAspectRatio="xMidYMid meet" version="1.1" viewBox="0 0 1.9656698 0.10883755" sodipodi:docname="esv-mbz-offscreen.svg" width="1.9656698" height="0.10883755" inkscape:version="0.92.1 r15371">
  <metadata id="metadata7564">
    <rdf:RDF>
      <cc:Work rdf:about="">
        <dc:format>image/svg+xml</dc:format>
        <dc:type rdf:resource="http://purl.org/dc/dcmitype/StillImage" />
        <dc:title></dc:title>
      </cc:Work>
    </rdf:RDF>
  </metadata>
  <defs id="defs7562" />
  <sodipodi:namedview pagecolor="#ffffff" bordercolor="#666666" borderopacity="1" objecttolerance="10" gridtolerance="10" guidetolerance="10" inkscape:pageopacity="0" inkscape:pageshadow="2" inkscape:window-width="1920" inkscape:window-height="1001" id="namedview7560" showgrid="false" inkscape:zoom="1.4142136" inkscape:cx="1715.0416" inkscape:cy="13.759292" inkscape:window-x="-9" inkscape:window-y="41" inkscape:window-maximized="1" inkscape:current-layer="esv-mbz-offscreen" units="px" fit-margin-top="0" fit-margin-left="0" fit-margin-right="0" fit-margin-bottom="0" inkscape:snap-global="false" />
  <rect style="opacity:1;fill:#b380ff;fill-opacity:1;stroke:none;stroke-width:5.17399979;stroke-linecap:round;stroke-linejoin:round;stroke-miterlimit:4;stroke-dasharray:none;stroke-dashoffset:0;stroke-opacity:1" id="rect7667" width="2364.5652" height="1009.7485" x="-203.64676" y="-554.26288" />
  <path id="trim" d="M 1785.1154,-12.068245 C 1780.5908,-12.192645 1783.7988,-12.336574 1781.5468,-12.076515 L 1786.4988,14.956815 C 1789.6954,14.784015 1789.1674,14.621015 1791.5394,14.093485 1792.021,9.906815 1785.4541,-9.2131745 1785.1161,-12.059845 Z M 1594.0488,26.071745 C 1590.6255,31.542415 1591.1121,38.605075 1590.0301,43.691745 1590.3588,44.631745 1598.4701,41.162415 1599.4435,40.567075 1600.5295,35.201085 1605.9755,27.820415 1605.9755,27.813745 1612.5334,27.039085 1615.7621,25.455085 1618.1421,21.792415 1613.4388,18.477085 1598.0155,22.044285 1594.0555,26.077085 Z M 1729.4488,68.178405 C 1718.0888,68.741005 1666.2421,66.320405 1662.1154,70.115075 1685.6354,71.823075 1720.4154,70.180325 1739.1821,69.859745 1755.4421,69.318145 1773.3821,69.719605 1789.3288,68.301745 1789.0713,67.946005 1788.4374,67.443075 1787.2541,67.233745 1783.5421,66.576075 1748.2474,68.771745 1729.4074,68.177745 Z M 1855.2487,-16.688245 C 1851.1074,-18.380245 1844.6287,-16.505645 1841.3887,-17.404245 1807.9088,-17.358055 1771.3888,-17.657115 1746.5888,-16.678915 1741.2834,-16.343515 1733.5488,-15.414915 1729.2088,-13.793575 1733.9088,-13.765965 1850.8754,-15.006915 1858.2087,-14.679575 Z" style="fill:#ffffff;stroke-width:0.66666657" inkscape:connector-curvature="0" />
  <path id="fHub" d="M 1620.5371,50.019582 C 1636.3438,38.599582 1651.7838,51.300242 1651.9371,66.159572 1651.9953,72.113572 1643.2371,85.679572 1632.0238,84.506242 1611.0371,82.303572 1608.4571,58.759572 1620.5371,50.039582 Z" style="fill:#ffffff;stroke-width:0.66666657" inkscape:connector-curvature="0" />
  <path id="fWheel" d="M 1632.0504,42.328367 C 1643.2038,42.328367 1655.3638,50.188367 1655.3638,65.715037 1655.5636,76.675036 1645.6971,87.861697 1632.9371,87.861697 1619.9438,87.861697 1609.8971,77.928367 1609.8971,64.901696 1609.8971,51.488366 1621.3638,42.335037 1632.0438,42.335037 Z M 1650.0704,71.295037 C 1653.5398,60.615037 1648.2544,49.921707 1636.3371,46.795037 1622.4238,44.574367 1614.2571,55.641707 1613.9304,63.961696 1613.3622,73.548367 1619.7884,80.375027 1626.4238,82.788367 1638.3504,86.559697 1648.0704,78.630367 1650.0638,71.288367 Z M 1625.6104,81.008367 C 1627.2851,77.671037 1628.6844,75.139037 1630.5064,72.001697 1630.9962,71.294367 1631.2251,71.309697 1632.8518,72.158367 1635.0664,73.315036 1635.5158,73.768367 1635.8471,75.177037 1636.5411,77.421037 1637.3604,79.529697 1637.8544,81.923696 1636.3138,84.064366 1624.1678,82.569826 1625.6078,81.001697 Z M 1637.0904,81.919027 C 1636.6904,81.750427 1635.8711,81.001027 1635.6858,80.636367 1635.4167,80.103496 1634.1724,74.546366 1634.2944,74.427037 1634.4146,74.304037 1634.7736,74.291167 1634.9831,74.402267 1635.3972,74.621997 1635.128,74.106537 1634.6616,73.786737 1634.0273,73.351597 1631.4896,72.021397 1631.2722,72.064067 1630.4416,72.161197 1626.3222,80.044067 1626.1949,81.137397 1626.295,81.684266 1626.5857,81.576927 1626.5857,80.993327 1626.5857,80.699396 1626.684,80.445467 1626.906,80.167327 1627.8813,78.566667 1630.6673,72.033997 1631.4306,72.653996 1631.7084,72.656016 1632.718,73.170267 1632.934,73.420667 1633.9153,76.539336 1634.1613,78.189326 1634.9046,81.213997 1635.1179,81.797467 1634.8331,82.581327 1634.7784,82.741327 1635.675,82.902127 1637.2797,82.095796 1637.0897,81.924667 Z M 1636.2358,70.599037 C 1637.6644,69.331037 1639.2611,68.494367 1640.7604,68.448366 1642.0851,68.712367 1647.2798,70.715037 1648.6538,71.623037 1649.0611,72.811037 1644.5718,78.963027 1641.3138,80.663027 1639.7078,82.257027 1637.1791,72.709696 1636.2364,70.603037 Z M 1641.1398,79.965696 C 1641.1713,79.743427 1640.8386,79.839497 1640.7059,79.783897 1639.4906,76.533897 1638.2279,74.159897 1637.3412,71.023896 1637.3771,70.709437 1637.919,70.379697 1638.7039,70.195897 1639.5906,69.907367 1643.5852,71.944567 1645.2292,72.747897 1646.8272,73.531897 1647.2452,73.843897 1647.2619,74.262566 1647.4413,74.325237 1648.5619,72.284567 1648.5666,71.856567 1648.1509,71.845616 1647.2932,72.164696 1646.5092,72.179437 1644.4066,71.410767 1642.4446,70.662767 1640.6266,69.470767 1640.643,69.348897 1640.8204,69.166567 1641.0208,69.065697 1641.5756,68.786637 1641.4646,68.676566 1640.6846,68.731567 1639.1872,69.034837 1638.0332,69.593567 1636.9766,70.576237 1636.6924,71.146637 1636.697,71.197696 1637.1132,72.134897 1638.0912,74.742897 1639.3139,77.452897 1640.2619,79.801566 1640.396,80.152227 1640.6576,80.514226 1640.7761,80.514226 1641.0692,80.459786 1641.1638,80.207227 1641.1408,79.968497 Z M 1615.8864,69.645697 C 1619.8544,68.867037 1625.5398,67.639697 1626.6931,68.057696 1627.4518,68.900367 1628.0711,72.001697 1627.5398,73.125697 1627.0493,74.185696 1623.2524,80.232367 1622.9758,80.132367 1620.9978,80.090327 1614.2291,71.279037 1615.8891,69.639037 Z M 1622.7864,79.852367 C 1621.8951,78.251027 1624.8678,75.167037 1626.3344,72.725697 1626.6388,72.445167 1626.8707,72.569037 1626.9986,73.080637 1627.1045,73.616367 1627.1148,73.490567 1627.3194,73.060966 1627.2951,70.923637 1627.2751,67.707636 1625.3767,68.345637 1622.3834,68.770497 1619.194,69.240297 1616.63,69.954967 1616.4839,70.104697 1616.5986,70.490297 1616.7592,70.388236 1619.6126,69.880896 1622.6419,69.144236 1625.3659,68.824237 1626.2619,68.637836 1626.8846,70.804897 1626.1319,71.554237 1624.7986,73.712897 1622.0086,78.540897 1620.7046,77.898896 1620.2386,77.747436 1620.5476,78.191567 1621.5099,79.056897 1621.8314,79.489567 1622.6452,79.949567 1622.7866,79.856226 Z M 1630.9864,68.652367 C 1631.7398,67.769037 1633.0244,67.985036 1633.3544,69.164167 1633.4316,69.742567 1633.1063,70.348837 1632.6051,70.592166 1631.3118,71.090297 1630.3018,69.784837 1630.9864,68.651497 Z M 1634.5231,67.260367 C 1634.983,66.034367 1636.1478,66.281697 1636.4538,66.565036 1637.2904,67.043297 1637.1778,68.245037 1636.5446,68.671697 1635.5219,69.400367 1634.1792,68.448037 1634.5239,67.261037 Z M 1638.7871,64.762366 C 1638.7871,64.402496 1639.2415,62.416367 1639.4764,61.751037 1640.4438,58.970367 1644.7384,57.564367 1647.4698,56.267707 1649.7058,59.059036 1650.2038,64.194367 1649.6324,68.347697 1649.2356,69.266367 1637.9124,66.665697 1638.7858,64.764367 Z M 1649.0671,67.771696 C 1649.0671,67.605437 1648.9264,67.555837 1648.2804,67.494367 1645.4531,66.721697 1641.5204,66.150367 1639.6938,64.481036 1639.7332,63.919097 1639.8814,63.462367 1640.0364,62.924366 1640.1393,61.966366 1645.2244,60.193696 1648.0898,58.973037 1648.3806,58.973037 1648.6186,58.924647 1648.6186,58.865436 1648.6186,58.635766 1647.5859,56.480107 1647.4972,56.542767 1647.6288,58.729436 1644.7726,59.446767 1643.1579,60.418767 1640.7219,61.628766 1640.5979,61.648767 1640.5979,60.849297 1640.5979,60.447896 1640.5939,60.444236 1640.372,60.650037 1639.6187,61.654036 1639.1807,64.130697 1639.358,65.282696 1642.096,66.595367 1645.1314,67.118697 1647.598,68.038037 1648.3594,68.400167 1649.014,68.204437 1649.0694,67.771966 Z M 1628.0604,65.911037 C 1628.5204,65.427297 1629.6971,65.682767 1629.9591,66.344297 1630.43,67.070967 1629.8864,68.267637 1628.7624,68.252297 1627.3871,68.084897 1627.1844,66.468297 1628.0598,65.910967 Z M 1615.3271,66.815036 C 1614.4691,66.905966 1614.7838,57.681706 1618.7038,54.695036 1621.6984,57.502367 1626.5038,61.163037 1626.7838,62.641697 1626.4034,63.861697 1624.5571,65.983697 1623.3911,66.206367 1620.8011,66.430497 1617.7904,66.825097 1615.3244,66.814297 Z M 1615.8053,65.927037 C 1616.7393,65.002367 1616.7506,65.000366 1620.084,65.063696 1621.7086,65.094827 1623.1606,65.145767 1623.3086,65.177367 1623.5762,65.233977 1623.5742,65.240277 1623.1444,65.691167 1622.6717,66.187097 1622.6858,66.231496 1623.239,65.987037 1623.8992,65.695567 1625.6363,63.817697 1626.079,62.917037 1626.4781,62.104367 1626.4734,62.093697 1625.0996,60.818367 1623.607,59.363036 1621.8643,57.867036 1620.4403,56.587037 1619.389,55.545037 1618.8096,55.248367 1618.649,55.675706 1620.9376,57.985037 1623.895,60.184367 1625.809,62.317037 1625.809,62.581437 1624.8223,63.711037 1624.4643,63.857697 1622.889,64.513436 1615.7443,64.266367 1615.211,63.778496 1615.1424,63.848767 1615.1014,66.059167 1615.1655,66.236497 1615.6832,67.161836 1615.4704,66.183137 1615.8111,65.926767 Z M 1634.852,63.642367 C 1634.8907,62.083036 1636.52,61.917037 1637.21,62.779036 1637.8453,64.033037 1636.9346,64.695697 1636.6412,64.753696 1635.6565,65.084636 1634.9492,64.438837 1634.8525,63.641697 Z M 1628.198,62.099037 C 1628.6064,61.643967 1629.5926,61.322366 1630.214,62.095007 1631.0833,63.247007 1629.9498,64.215677 1629.384,64.231676 1628.0673,64.254257 1627.564,63.041007 1628.1986,62.099676 Z M 1631.5813,61.687166 C 1631.308,60.406497 1632.2933,59.892497 1632.9486,59.943166 1634.434,60.183437 1634.4293,61.921836 1633.401,62.435167 1632.8878,62.605037 1632.1776,62.720897 1631.581,61.687837 Z M 1633.6533,55.627837 C 1633.6215,54.672507 1634.728,47.547836 1635.208,47.621166 1637.2726,47.427566 1642.4746,50.229837 1644.4346,52.215167 1645.714,53.441167 1645.8033,53.706506 1645.1406,54.313837 1642.15,56.607167 1637.254,60.393167 1636.6406,60.237836 1636.0912,59.996436 1633.4746,57.593167 1633.6493,55.627837 Z M 1637.338,59.601167 C 1639.802,57.845167 1642.5906,55.948507 1644.778,54.107836 1644.86,53.950707 1644.859,53.812567 1644.775,53.651107 1644.6215,53.357167 1644.4316,53.354367 1644.3575,53.644716 1641.6175,55.898046 1639.5062,57.574717 1636.7575,59.314046 1635.4862,57.960047 1635.5662,56.859387 1635.7855,55.815386 1636.6348,53.380717 1636.8822,48.702047 1637.7175,48.628717 1637.9206,48.476517 1637.9072,48.455847 1637.4849,48.271847 1636.7669,47.940187 1635.9529,47.896316 1635.1909,47.809717 1635.1784,48.065447 1636.1082,49.299047 1636.0396,50.228387 1635.9247,51.853047 1635.4833,53.523046 1635.1809,55.047717 1635.0636,55.833047 1634.8781,56.195717 1634.5921,56.195717 1634.2738,55.978847 1634.0909,55.740647 1633.8181,55.443717 1633.7552,55.878387 1633.9075,56.289046 1634.0154,56.674387 1634.9901,58.090376 1636.0594,60.181717 1637.3334,59.601717 Z M 1631.8253,47.467837 C 1632.0229,48.035167 1631.5114,58.974496 1631.1593,59.107836 1630.4253,59.304296 1628.1673,59.348767 1626.67,59.072667 1624.612,57.099336 1620.812,53.884667 1620.612,52.470007 1621.1678,50.326666 1628.5186,46.861337 1631.8253,47.472667 Z M 1630.984,58.534496 C 1631.2688,57.171836 1631.6153,52.002507 1631.4372,48.201167 1631.0803,48.139107 1631.0547,48.181596 1631.0456,48.855037 1631.0175,52.199037 1630.7047,54.999707 1630.5467,58.028367 1629.3434,58.283037 1628.6027,58.112496 1627.9627,57.215037 1626.0994,54.798366 1622.826,51.684367 1622.8614,50.541707 1622.3246,50.559327 1621.3447,51.856367 1621.1127,52.305706 1621.5054,52.352757 1621.908,52.411167 1622.2447,52.472837 1624.0694,54.004837 1625.6874,55.929507 1626.9334,57.906166 1626.5878,58.105837 1626.2234,58.026837 1625.8987,57.901637 1625.7167,58.016837 1625.9721,58.332177 1626.4139,58.537577 1626.6942,58.710107 1629.6939,58.990507 1630.9852,58.535997 Z" style="fill:#000000;stroke-width:0.66666657" inkscape:connector-curvature="0" />
  <path id="rHub" d="M 1804.9771,46.484048 C 1820.7837,35.064048 1836.2237,47.764708 1836.3771,62.624038 1836.4353,68.578038 1827.6771,82.144038 1816.4637,80.970708 1795.4771,78.768038 1792.8971,55.224038 1804.9771,46.504048 Z" style="fill:#ffffff;stroke-width:0.66666657" inkscape:connector-curvature="0" />
  <path id="rWheel" d="M 1816.5104,38.792833 C 1827.6637,38.792833 1839.8237,46.652833 1839.8237,62.179503 1840.0235,73.139502 1830.1571,84.326163 1817.3971,84.326163 1804.4038,84.326163 1794.3571,74.392833 1794.3571,61.366162 1794.3571,47.952832 1805.8238,38.799503 1816.5037,38.799503 Z M 1834.5304,67.759503 C 1837.9997,57.079503 1832.7144,46.386173 1820.7971,43.259503 1806.8838,41.038833 1798.7171,52.106173 1798.3904,60.426162 1797.8222,70.012833 1804.2484,76.839493 1810.8837,79.252833 1822.8104,83.024163 1832.5304,75.094833 1834.5237,67.752833 Z M 1810.0704,77.472833 C 1811.7451,74.135503 1813.1444,71.603503 1814.9664,68.466163 1815.4561,67.758833 1815.6851,67.774163 1817.3117,68.622833 1819.5264,69.779502 1819.9757,70.232833 1820.3071,71.641503 1821.0011,73.885503 1821.8204,75.994163 1822.3144,78.388162 1820.7737,80.528832 1808.6278,79.034292 1810.0678,77.466163 Z M 1821.5504,78.383493 C 1821.1503,78.214893 1820.3311,77.465493 1820.1457,77.100833 1819.8767,76.567962 1818.6324,71.010832 1818.7537,70.891503 1818.8739,70.768503 1819.2329,70.755633 1819.4424,70.866733 1819.8565,71.086463 1819.5873,70.571003 1819.1209,70.251203 1818.4866,69.816063 1815.9489,68.485863 1815.7315,68.528533 1814.9009,68.625663 1810.7815,76.508533 1810.6542,77.601863 1810.7543,78.148732 1811.045,78.041393 1811.045,77.457793 1811.045,77.163862 1811.1433,76.909933 1811.3653,76.631793 1812.3406,75.031133 1815.1266,68.498463 1815.8899,69.118462 1816.1677,69.120482 1817.1773,69.634733 1817.3933,69.885133 1818.3746,73.003802 1818.6206,74.653792 1819.3639,77.678463 1819.5772,78.261933 1819.2924,79.045793 1819.2377,79.205793 1820.1343,79.366593 1821.739,78.560262 1821.549,78.389133 Z M 1820.6957,67.063503 C 1822.1244,65.795503 1823.7211,64.958833 1825.2204,64.912832 1826.5457,65.176833 1831.7397,67.179503 1833.1137,68.087503 1833.5211,69.275503 1829.0317,75.427493 1825.7737,77.127493 1824.1677,78.721493 1821.6391,69.174162 1820.6964,67.067503 Z M 1825.5997,76.430162 C 1825.6313,76.207893 1825.2986,76.303963 1825.1659,76.248363 1823.9505,72.998363 1822.6879,70.624363 1821.8012,67.488362 1821.8371,67.173903 1822.3789,66.844163 1823.1639,66.660363 1824.0505,66.371833 1828.0452,68.409033 1829.6892,69.212363 1831.2872,69.996363 1831.7052,70.308363 1831.7219,70.727032 1831.9013,70.789703 1833.0219,68.749033 1833.0265,68.321033 1832.6109,68.310082 1831.7532,68.629162 1830.9692,68.643903 1828.8665,67.875233 1826.9045,67.127233 1825.0865,65.935233 1825.1029,65.813363 1825.2803,65.631033 1825.4808,65.530163 1826.0355,65.251103 1825.9246,65.141032 1825.1445,65.196033 1823.6472,65.499303 1822.4932,66.058033 1821.4365,67.040703 1821.1524,67.611103 1821.157,67.662162 1821.5732,68.599363 1822.5512,71.207363 1823.7739,73.917363 1824.7219,76.266032 1824.856,76.616693 1825.1175,76.978692 1825.2361,76.978692 1825.5292,76.924252 1825.6239,76.671693 1825.6008,76.432963 Z M 1800.3464,66.110163 C 1804.3144,65.331503 1809.9998,64.104163 1811.1531,64.522162 1811.9117,65.364833 1812.5311,68.466163 1811.9997,69.590163 1811.5093,70.650162 1807.7124,76.696833 1807.4358,76.596833 1805.4578,76.554793 1798.6891,67.743503 1800.3491,66.103503 Z M 1807.2464,76.316833 C 1806.3551,74.715493 1809.3278,71.631503 1810.7944,69.190163 1811.0987,68.909633 1811.3307,69.033503 1811.4585,69.545103 1811.5645,70.080833 1811.5748,69.955033 1811.7793,69.525432 1811.7551,67.388103 1811.735,64.172102 1809.8367,64.810103 1806.8434,65.234963 1803.654,65.704763 1801.09,66.419433 1800.9439,66.569163 1801.0585,66.954763 1801.2191,66.852702 1804.0724,66.345362 1807.1018,65.608702 1809.8258,65.288703 1810.7217,65.102302 1811.3444,67.269363 1810.5918,68.018703 1809.2584,70.177363 1806.4684,75.005363 1805.1644,74.363362 1804.6985,74.211902 1805.0074,74.656033 1805.9698,75.521363 1806.2912,75.954033 1807.1051,76.414033 1807.2464,76.320692 Z M 1815.4464,65.116833 C 1816.1997,64.233503 1817.4844,64.449502 1817.8144,65.628633 1817.8916,66.207033 1817.5663,66.813303 1817.0651,67.056632 1815.7717,67.554763 1814.7617,66.249303 1815.4464,65.115963 Z M 1818.9831,63.724833 C 1819.4429,62.498833 1820.6084,62.746163 1820.9137,63.029502 1821.7504,63.507763 1821.6384,64.709503 1821.0045,65.136163 1819.9819,65.864833 1818.6392,64.912503 1818.9839,63.725503 Z M 1823.2471,61.226832 C 1823.2471,60.866962 1823.7015,58.880833 1823.9364,58.215503 1824.9037,55.434833 1829.1984,54.028833 1831.9297,52.732173 1834.1657,55.523502 1834.6637,60.658833 1834.0924,64.812163 1833.6956,65.730833 1822.3724,63.130163 1823.2457,61.228833 Z M 1833.5271,64.236162 C 1833.5271,64.069903 1833.3864,64.020303 1832.7404,63.958833 1829.9131,63.186163 1825.9804,62.614833 1824.1537,60.945502 1824.1932,60.383563 1824.3413,59.926833 1824.4964,59.388832 1824.5993,58.430832 1829.6844,56.658162 1832.5497,55.437503 1832.8405,55.437503 1833.0785,55.389113 1833.0785,55.329902 1833.0785,55.100232 1832.0459,52.944573 1831.9572,53.007233 1832.0888,55.193902 1829.2325,55.911233 1827.6179,56.883233 1825.1819,58.093232 1825.0579,58.113233 1825.0579,57.313763 1825.0579,56.912362 1825.0539,56.908702 1824.832,57.114503 1824.0787,58.118502 1823.6407,60.595163 1823.818,61.747162 1826.556,63.059833 1829.5913,63.583163 1832.0647,64.502503 1832.826,64.864633 1833.4807,64.668903 1833.536,64.236432 Z M 1812.5204,62.375503 C 1812.9804,61.891763 1814.1571,62.147233 1814.4191,62.808763 1814.89,63.535433 1814.3463,64.732103 1813.2224,64.716763 1811.8471,64.549363 1811.6444,62.932763 1812.5197,62.375433 Z M 1799.7871,63.279502 C 1798.9284,63.370432 1799.2438,54.146172 1803.1638,51.159502 1806.1584,53.966833 1810.9637,57.627503 1811.2437,59.106163 1810.8633,60.326163 1809.0171,62.448163 1807.8511,62.670833 1805.2611,62.894963 1802.2504,63.289563 1799.7844,63.278763 Z M 1800.2653,62.391503 C 1801.1993,61.466833 1801.2106,61.464832 1804.544,61.528162 1806.1686,61.559293 1807.6206,61.610233 1807.7686,61.641833 1808.0362,61.698443 1808.0342,61.704743 1807.6044,62.155633 1807.1317,62.651563 1807.1458,62.695962 1807.699,62.451503 1808.3592,62.160033 1810.0963,60.282163 1810.539,59.381503 1810.938,58.568833 1810.9333,58.558163 1809.5596,57.282833 1808.067,55.827502 1806.3243,54.331502 1804.9003,53.051503 1803.849,52.009503 1803.2696,51.712833 1803.109,52.140172 1805.3976,54.449503 1808.355,56.648833 1810.269,58.781503 1810.269,59.045903 1809.2823,60.175503 1808.9243,60.322163 1807.349,60.977902 1800.2043,60.730833 1799.671,60.242962 1799.6024,60.313233 1799.5614,62.523633 1799.6255,62.700963 1800.1432,63.626302 1799.9304,62.647603 1800.271,62.391233 Z M 1819.3119,60.106833 C 1819.3506,58.547502 1820.9799,58.381503 1821.6699,59.243502 1822.3053,60.497503 1821.3946,61.160163 1821.1011,61.218162 1820.1165,61.549102 1819.4091,60.903303 1819.3125,60.106163 Z M 1812.6579,58.563503 C 1813.0663,58.108433 1814.0526,57.786832 1814.6739,58.559473 1815.5433,59.711473 1814.4097,60.680143 1813.8439,60.696142 1812.5273,60.718723 1812.0239,59.505473 1812.6586,58.564142 Z M 1816.0413,58.151632 C 1815.7679,56.870963 1816.7533,56.356963 1817.4086,56.407632 1818.8939,56.647903 1818.8893,58.386302 1817.8609,58.899633 1817.3477,59.069503 1816.6376,59.185363 1816.0409,58.152303 Z M 1818.1133,52.092303 C 1818.0815,51.136973 1819.1879,44.012302 1819.6679,44.085632 1821.7326,43.892032 1826.9346,46.694303 1828.8946,48.679633 1830.1739,49.905633 1830.2633,50.170972 1829.6006,50.778303 1826.6099,53.070973 1821.7139,56.857633 1821.1006,56.702302 1820.5511,56.460902 1817.9346,54.057633 1818.1093,52.092303 Z M 1821.7979,56.065633 C 1824.2619,54.309633 1827.0506,52.412973 1829.2379,50.572302 1829.3199,50.415173 1829.319,50.277033 1829.2349,50.115573 1829.0815,49.821633 1828.8916,49.818833 1828.8175,50.109182 1826.0775,52.362512 1823.9661,54.039183 1821.2175,55.778512 1819.9461,54.424513 1820.0261,53.323853 1820.2455,52.279852 1821.0948,49.845183 1821.3421,45.166513 1822.1775,45.093183 1822.3805,44.940983 1822.3671,44.920313 1821.9449,44.736313 1821.2269,44.404653 1820.4129,44.360782 1819.6509,44.274183 1819.6383,44.529913 1820.5682,45.763513 1820.4995,46.692853 1820.3847,48.317513 1819.9433,49.987512 1819.6409,51.512183 1819.5235,52.297513 1819.3381,52.660183 1819.0521,52.660183 1818.7337,52.443313 1818.5509,52.205113 1818.2781,51.908183 1818.2151,52.342853 1818.3675,52.753512 1818.4754,53.138853 1819.4501,54.554842 1820.5194,56.646183 1821.7934,56.066183 Z M 1816.2853,43.932303 C 1816.4829,44.499633 1815.9714,55.438962 1815.6193,55.572302 1814.8853,55.768762 1812.6273,55.813233 1811.1299,55.537133 1809.072,53.563802 1805.272,50.349133 1805.072,48.934473 1805.6278,46.791132 1812.9786,43.325803 1816.2853,43.937133 Z M 1815.4439,54.998962 C 1815.7287,53.636302 1816.0753,48.466973 1815.8971,44.665633 1815.5403,44.603573 1815.5146,44.646062 1815.5055,45.319503 1815.4775,48.663503 1815.1646,51.464173 1815.0067,54.492833 1813.8033,54.747503 1813.0627,54.576962 1812.4227,53.679503 1810.5594,51.262832 1807.286,48.148833 1807.3214,47.006173 1806.7846,47.023793 1805.8047,48.320833 1805.5727,48.770172 1805.9654,48.817223 1806.368,48.875633 1806.7047,48.937303 1808.5294,50.469303 1810.1474,52.393973 1811.3933,54.370632 1811.0478,54.570303 1810.6833,54.491303 1810.3587,54.366103 1810.1767,54.481303 1810.4321,54.796643 1810.8739,55.002043 1811.1543,55.174573 1814.1539,55.454973 1815.4453,55.000463 Z" style="fill:#000000;stroke-width:0.66666657" inkscape:connector-curvature="0" />
  <path id="brake" d="M 1868.7771,9.0053042 C 1869.4817,8.6228442 1869.5851,8.9956542 1873.8771,15.530634 1877.6984,21.531974 1881.7904,30.143974 1883.2237,35.010634 1884.2657,38.073964 1884.8417,49.090634 1883.8865,49.390634 1883.5903,49.478034 1880.7279,50.537964 1880.1545,49.195564 1879.6495,48.014234 1880.0469,44.602904 1879.7343,41.548904 1879.092,35.391564 1877.5836,29.548904 1875.1363,24.148904 1872.7083,17.501574 1868.1096,12.815574 1867.3563,8.9689042 Z" style="fill:#8a112b;stroke-width:0.66666657" inkscape:connector-curvature="0" />
  <path id="body" d="M 1741.1104,-16.348302 C 1738.0278,-15.983702 1731.9438,-15.348972 1726.4238,-13.596302 1720.0738,-13.513572 1711.5104,-12.932832 1707.6438,-12.486972 1706.8184,-12.391902 1704.9398,-12.292502 1703.5724,-11.836972 1702.9919,-11.643772 1703.2776,-13.425632 1701.3944,-12.711632 1701.5792,-15.148972 1700.5451,-14.855632 1698.0258,-13.383632 1696.7331,-12.016302 1697.9758,-10.438302 1693.1411,-8.4543017 1681.6611,-2.8129717 1669.2344,7.1123583 1660.6211,15.039028 1646.0144,15.845028 1630.1411,16.363028 1618.0144,18.264358 1611.8398,19.111688 1599.7078,20.827028 1594.9945,23.238358 1591.0345,25.007028 1589.0591,32.811688 1588.3791,36.531688 1586.9965,41.997688 1586.9951,50.685018 1587.0671,54.751688 1587.2149,62.598348 1587.9698,63.191688 1589.4178,65.391688 1591.0338,69.686348 1593.6805,68.923688 1595.8731,71.891688 1596.0586,72.709018 1596.1268,75.276348 1596.7651,75.642348 1600.1771,76.303218 1605.0918,76.800348 1608.5118,76.553688 1607.1738,59.153688 1607.8723,46.313688 1616.6184,41.647018 1626.4518,36.941688 1645.5451,35.345028 1652.8651,41.647018 1657.3384,48.953688 1657.0831,54.167018 1659.1951,62.307018 1659.3429,64.875688 1660.5218,70.120348 1660.9011,71.853688 1661.2752,72.002018 1666.0611,72.125148 1671.0611,72.039348 1690.9411,72.063078 1712.0211,72.506348 1732.7078,72.262148 1751.7811,71.799888 1771.9744,70.456148 1789.4544,69.937488 1790.5251,66.310818 1790.5504,64.786818 1790.9631,61.990818 1792.2631,50.917488 1795.0991,41.570818 1800.6764,38.084158 1807.8831,32.948158 1828.9631,34.358158 1834.6964,38.084158 1837.5644,39.215488 1843.5631,52.164158 1844.2297,65.104148 1847.2964,64.904618 1859.3564,63.760148 1864.3031,63.350148 1874.6897,62.488818 1879.1431,61.870148 1879.1897,61.658148 1879.5488,61.674268 1884.8844,54.698158 1886.2897,51.138158 1887.0264,48.292818 1886.9487,45.622158 1886.9764,43.558158 1887.0573,41.520818 1887.2522,38.628158 1886.1477,37.511488 1885.1557,35.926828 1884.8817,36.518158 1884.4977,35.682828 1884.6561,34.558158 1884.419,33.584828 1884.1116,30.407488 L 1880.6849,30.232688 C 1880.6104,28.410028 1880.8859,27.619358 1880.6395,26.366688 1880.0711,18.966688 1880.703,20.055358 1879.4249,14.593358 1877.9449,10.256698 1874.0149,1.1866983 1872.8669,-0.78664173 1870.2469,-5.1979717 1870.2082,-5.3013017 1867.7115,-9.2399717 1867.5009,-9.9673017 1870.1082,-9.2346017 1870.0282,-9.1360317 1868.3415,-11.743372 1870.5168,-8.5138317 1872.7589,-10.597372 1872.5755,-11.437372 1873.8735,-14.114032 1869.4829,-14.454032 1866.4362,-14.740632 1861.5962,-14.539032 1857.7362,-15.004102 1855.4949,-16.213432 1856.3395,-16.740772 1852.6455,-17.540772 1838.4255,-18.189502 1811.8789,-17.662172 1788.5922,-17.258372 1784.5315,-17.110232 1745.3255,-17.250422 1741.0255,-16.359032 Z M 1850.7104,-16.832702 C 1854.1124,-16.998632 1854.3244,-15.837372 1856.8751,-14.893372 1806.1684,-15.229172 1769.4084,-14.903722 1729.0751,-13.729372 1730.3391,-14.101702 1737.5218,-15.293372 1741.2551,-15.850702 1743.9758,-16.465372 1770.8351,-16.807372 1786.3351,-16.804702 1793.1418,-16.874232 1846.7817,-17.175702 1850.6951,-16.832382 Z M 1786.0304,13.180628 C 1784.9344,5.9472983 1783.2498,-1.5660417 1781.5058,-10.426032 L 1781.2551,-11.661372 C 1782.2524,-11.655742 1783.0878,-11.603692 1784.0671,-11.596562 1787.7258,-0.50323173 1788.5884,5.2634383 1790.4964,12.990098 1790.3339,14.570098 1788.8384,14.338098 1786.1478,14.399428 Z M 1616.2304,22.127288 C 1614.7304,24.554628 1613.6878,25.449958 1611.5504,25.911958 1606.0258,26.599958 1603.6971,27.183958 1602.3038,29.173958 1599.4698,32.061288 1599.7551,37.287288 1595.8871,41.347288 1594.5665,41.854358 1591.6365,42.545288 1590.6871,42.375958 1590.8022,40.153288 1592.8458,27.309288 1594.0131,26.555958 1602.8531,22.366628 1608.2398,23.165958 1616.2198,22.118628 Z M 1788.0304,68.207288 C 1769.4438,69.363288 1739.5838,69.326618 1732.5304,69.699288 1725.2438,69.800418 1716.2304,69.953618 1708.6171,70.004218 1691.7104,70.022558 1667.0638,70.922218 1662.6704,70.080418 1662.8774,69.758218 1663.8124,69.205748 1664.4264,69.464288 1668.0944,69.729688 1700.1131,69.307418 1732.4264,68.902688 1753.0264,68.644618 1769.8198,67.932018 1787.2264,67.557348 Z" style="display:inline;fill:#000000;stroke-width:0.66666657" inkscape:connector-curvature="0" />
  <path id="dDTrim" d="M 1729.9604,-10.671302 C 1718.7404,-10.684912 1704.9338,-10.994232 1694.2738,-5.4706418 1684.9471,0.68069823 1673.1271,6.629358 1667.1871,16.356028 1667.5395,17.226028 1668.1198,17.928688 1669.0944,18.340028 L 1729.0011,16.194028 1729.1249,14.498028 1669.6249,16.366688 C 1669.7489,12.486698 1688.8916,-1.0999718 1696.5916,-4.4599718 1707.9116,-9.3939717 1719.9582,-9.0026317 1729.9516,-9.3879717 Z M 1724.5104,22.648688 1709.4638,23.342688 1709.7406,25.982028 1726.1072,25.495488 Z M 1728.1838,45.588688 1666.3304,46.604688 1667.5791,51.950688 1728.3791,48.510018 Z" style="display:inline;fill:#ffffff;stroke-width:0.66666657" inkscape:connector-curvature="0" />
  <path id="dDoor" d="M 1730.0229,-10.77599 C 1717.6963,-10.41432 1712.1029,-10.17732 1708.2229,-9.4519905 1698.9963,-8.1179905 1691.8763,-4.4019905 1684.4429,0.88800953 1679.6443,4.668009 1672.7429,9.694679 1668.5629,14.528009 1668.0919,15.171609 1665.9003,18.128009 1671.1949,17.754009 1679.1616,17.559809 1688.8949,17.195939 1696.9416,16.926009 1709.1216,16.669269 1716.5616,16.060669 1729.0816,15.796009 L 1729.1704,14.414009 C 1701.0971,15.033139 1680.1371,16.321339 1676.6704,16.380669 1675.0064,16.409529 1668.8637,17.080669 1669.2771,16.153339 1670.4417,12.618679 1679.0704,5.593339 1686.1971,0.87333953 1697.9437,-7.0999905 1704.4837,-8.4266505 1719.3837,-9.4399905 1724.1684,-9.5697905 1724.7784,-9.6169905 1730.0037,-9.7443205 Z M 1724.7483,23.390669 C 1723.9203,22.670669 1716.2816,23.201009 1713.9816,23.337709 1707.8463,23.598109 1710.5569,25.803039 1711.5549,25.462369 1716.2889,24.974639 1722.5616,25.538309 1724.9816,24.690369 Z M 1728.2763,45.557339 C 1719.3096,45.755939 1715.1163,46.054399 1706.4963,46.176469 1692.8763,46.417939 1679.2096,46.626799 1667.1363,46.964469 1667.2779,52.109799 1667.9889,51.343139 1672.7863,50.837139 1694.1329,49.657139 1709.4329,48.637799 1728.3863,48.239799 Z M 1669.0696,65.283999 C 1665.6169,58.137329 1665.3236,49.723999 1664.2256,41.637339 1664.0474,33.924009 1663.3876,25.790669 1663.9256,18.717339 1664.3037,16.458669 1665.0403,14.805339 1666.2116,13.516669 1667.4896,11.896679 1669.6976,10.028679 1671.4669,8.607339 1676.0136,4.782679 1680.8136,1.414009 1685.8536,-2.1259905 1692.1183,-6.3893205 1698.9336,-9.4193205 1706.4003,-10.73265 1711.4849,-11.91065 1716.1336,-12.00665 1720.8869,-12.03199 L 1730.0536,-12.13672 C 1729.8448,-3.2567205 1729.9677,6.563279 1728.9969,16.563269 1728.9969,16.563269 1728.3116,29.596609 1728.2363,36.776599 1728.193,40.917269 1728.2303,44.856599 1728.3759,48.616599 1728.9623,57.169929 1729.7879,58.656599 1730.9559,64.956599 Z" style="display:inline;fill:#000000;stroke-width:0.66666657" inkscape:connector-curvature="0" />
  <path id="rDInside" d="M 1786.0229,63.245964 C 1787.3176,49.145964 1789.3536,33.685974 1787.0249,18.739304 1785.3603,8.045974 1783.2703,-2.8873555 1781.2043,-13.460685 L 1729.9576,-12.235355 C 1729.8246,-7.0346855 1729.936,4.804644 1728.9009,16.464634 1728.4267,23.864634 1728.1983,32.864634 1728.1403,36.677964 1728.0541,41.515304 1728.0961,45.437964 1728.28,48.517964 1728.6391,54.659304 1729.5127,58.604634 1730.8607,64.857964 Z" style="fill:#000000;stroke-width:0.66666657" inkscape:connector-curvature="0" />
  <path id="rDTrim" d="M 1773.0313,21.160008 C 1770.1726,21.726068 1767.5313,21.548668 1767.6666,23.158668 1767.9159,24.002668 1769.6366,24.083338 1773.9219,23.918008 1776.6219,23.539068 1783.5753,23.748338 1783.5953,22.574008 1783.5102,20.605338 1780.7933,20.647338 1773.0286,21.160008 Z M 1728.2113,48.453338 1783.5579,46.664668 C 1785.6719,44.037338 1784.7446,45.505998 1785.3799,43.262668 L 1728.1333,45.557998 M 1728.9413,16.218008 1729.0798,14.362008 1785.9265,12.843338 1786.1411,14.236668 Z M 1729.8466,-9.5153257 1729.8666,-10.797326 C 1747.0466,-11.198126 1764.3066,-12.137326 1781.4666,-11.990656 L 1781.7225,-10.538656 C 1763.6625,-10.571716 1745.3091,-9.8639957 1729.8758,-9.5139957 Z" style="fill:#ffffff;stroke-width:0.66666657" inkscape:connector-curvature="0" />
  <path id="rD" d="M 1729.2771,14.748145 C 1749.6638,14.299205 1770.2838,13.556815 1786.1238,13.206815 L 1786.3006,14.426145 C 1777.3272,14.523745 1731.0006,16.244145 1729.2006,16.132805 1729.2135,15.778945 1729.2732,15.028805 1729.278,14.748805 Z M 1781.8771,-10.358515 C 1764.3571,-10.570785 1746.1971,-9.8835855 1730.0771,-9.4071855 L 1730.0921,-10.439185 C 1745.7588,-10.935185 1764.1988,-11.737185 1781.6454,-11.636515 M 1773.2588,23.823475 C 1767.7681,24.037605 1768.5908,24.351545 1768.5541,22.462145 1770.7961,21.494145 1781.3808,21.114805 1783.0141,21.706145 1783.349,22.046145 1783.7808,22.993475 1783.2285,23.165475 1781.4565,23.717545 1775.8085,23.491075 1773.2552,23.822545 Z M 1728.3321,45.896805 C 1748.4921,45.454475 1768.5121,44.615475 1784.9788,44.171475 1785.457,44.489605 1784.4147,45.445475 1783.0308,46.121475 1762.9641,46.787475 1745.0441,48.229475 1728.4308,48.578135 Z M 1786.1788,63.683465 C 1787.4734,49.583475 1789.5094,34.123475 1787.1808,19.176805 1785.5161,8.483475 1783.4261,-2.4498555 1781.3601,-13.023185 L 1730.1134,-11.797855 C 1729.9804,-6.5971855 1730.0918,5.242144 1729.0568,16.902145 1728.5826,24.302145 1728.3541,33.302145 1728.2961,37.115475 1728.21,41.952805 1728.252,45.875475 1728.4358,48.955475 1728.7949,55.096805 1729.6685,59.042135 1731.0165,65.295465 Z" style="display:inline;fill:#000000;stroke-width:0.66666657" inkscape:connector-curvature="0" />
  <path inkscape:connector-curvature="0" id="fTire" d="M 190.34449,68.615352 C 198.60449,68.656192 205.34449,62.016352 205.42449,53.755352 205.50993,45.492352 198.90349,38.715352 190.64449,38.595352 182.38449,38.468752 175.57449,45.039352 175.40449,53.455352 175.40439,61.870352 182.08049,68.575352 190.34449,68.615352 Z" style="fill:#000000;stroke-width:0.25799999" />
  <path inkscape:connector-curvature="0" id="fRim" d="M 202.64449,53.064671 C 202.68326,60.127671 197.79449,65.824671 190.37449,65.794671 183.64649,65.760001 178.21449,60.302671 178.20449,53.574671 178.18499,46.415671 183.95249,41.364671 190.42449,41.414671 196.79349,41.433781 202.12449,46.256671 202.64449,53.074671 Z M 189.95449,42.884671 C 189.90772,42.944671 189.82249,44.135671 189.76509,45.531671 189.67421,47.740671 189.44029,50.667671 189.30949,51.315671 189.14449,51.712671 188.79099,51.814371 188.48989,51.791671 186.43489,51.324971 184.19689,50.698671 182.34489,50.148671 181.31789,49.842171 180.44689,49.610071 180.40989,49.632771 180.37318,49.655661 180.27609,49.874371 180.19499,50.118771 180.03509,50.600371 180.11076,50.920271 180.40549,51.009771 180.48358,51.033451 181.30739,51.330971 182.23649,51.670971 184.91149,52.649471 187.76949,53.876971 187.98649,54.139971 188.27519,54.488771 188.21539,54.744171 187.61399,55.733971 186.38799,57.461971 184.47199,60.307971 183.52799,61.966971 183.72879,62.179271 184.05429,62.539171 184.39249,62.676371 184.57589,62.676371 184.80579,62.420171 186.19449,60.668371 188.19349,58.148371 189.91649,56.174371 190.19349,56.086371 190.54409,55.975071 190.81829,56.163531 191.57349,57.035471 193.48149,59.160471 194.40349,60.592471 196.11649,62.744471 196.54629,62.545871 196.84629,62.305871 197.25049,62.014971 195.81149,59.712971 194.08249,57.185971 192.84449,54.982971 192.67819,54.635971 192.78307,54.403571 192.96259,54.107971 193.25489,53.860771 196.20259,52.688971 198.96059,51.723971 200.94359,51.029771 200.82159,51.083471 200.88459,50.885571 200.93946,50.712671 200.70529,49.884571 200.57969,49.806571 197.73169,50.495871 194.93569,51.341571 192.31969,51.832571 191.87059,51.778061 191.67119,51.540571 191.63039,51.133171 191.46879,50.034171 191.24399,46.087171 191.24059,44.029171 191.23895,43.064571 191.21667,42.874171 191.10059,42.829171 190.71699,42.731811 190.30679,42.791921 189.95259,42.886951 Z M 191.66449,42.926461 C 191.69609,45.102461 191.90399,47.015461 192.36229,49.159461 192.52529,49.588261 193.56729,50.392461 194.07529,50.483461 195.93129,50.129761 197.97329,49.876161 200.14229,49.422461 200.28029,49.362171 200.28659,49.306961 200.29279,49.223661 200.33029,48.725761 199.24979,47.103661 198.14279,45.996661 196.91279,44.766661 195.66679,43.982661 194.01279,43.398661 193.28329,43.141361 192.26379,42.914961 191.84579,42.899761 191.78392,42.886001 191.70789,42.892531 191.66469,42.924921 Z M 189.24649,42.908751 C 188.82599,42.909401 187.80549,43.138651 187.26849,43.316351 185.09349,44.035851 183.03549,45.431351 181.78149,47.137351 181.16519,47.975751 180.54349,49.136351 180.65249,49.245351 182.96049,49.658351 184.32349,50.178651 186.50849,50.414351 187.41989,50.497551 188.49249,49.697151 188.66849,48.842351 188.82419,46.781351 189.30649,44.093351 189.42749,42.937351 189.35742,42.893141 189.29899,42.917011 189.24629,42.908671 Z M 188.52419,51.282751 C 188.51016,51.495351 188.79169,51.663551 188.97129,51.464051 189.08099,51.342751 189.03437,51.144151 188.91702,51.081251 188.68752,50.961451 188.52722,51.140271 188.52412,51.282851 Z M 192.21619,51.070351 C 192.08949,51.071991 191.95229,51.157181 191.95509,51.333951 191.9699,51.578551 192.25409,51.663351 192.42069,51.481951 192.52719,51.294351 192.44154,51.097851 192.21619,51.070251 Z M 180.01619,51.305351 C 179.96142,51.304021 179.93395,51.323131 179.90939,51.353401 179.63599,51.689501 179.54329,54.281401 179.76019,55.527401 180.03339,57.094401 180.80419,58.899401 181.71419,60.103401 182.72019,61.435401 183.04719,61.698401 183.31319,61.386401 184.03629,59.749401 186.07619,57.228401 186.26419,55.842401 186.26419,55.391001 185.99129,54.438401 185.77279,54.129401 183.70079,53.024401 181.67579,51.953401 180.01479,51.307401 Z M 200.93619,51.500351 C 200.77329,51.500351 195.72519,53.773351 195.36419,54.008351 194.99039,54.252751 194.47859,55.683351 194.58199,56.196351 195.22689,57.634351 195.95499,58.881351 196.73599,60.357351 197.50759,61.818351 197.43689,61.735351 197.74599,61.540351 198.17759,61.268451 199.07399,60.263351 199.59099,59.469351 200.89599,57.575351 201.21999,55.241351 201.22599,53.724351 201.22999,52.597351 201.21612,52.092351 201.15079,51.743351 201.13438,51.573651 201.01939,51.495951 200.93599,51.498751 Z M 191.34719,51.975051 C 192.52219,52.676451 192.47419,54.005051 191.88819,54.751051 190.58419,56.211051 188.55219,55.326051 188.47819,53.588051 188.66239,52.035051 189.98519,51.274051 191.34719,51.976051 Z M 187.40019,54.511051 C 187.41015,54.678751 187.61579,54.833251 187.81449,54.712251 188.00739,54.549151 187.90509,54.309851 187.74221,54.254851 187.49821,54.197041 187.40941,54.390551 187.40011,54.511051 Z M 192.95419,54.567851 C 192.9885,54.830451 193.31279,54.900151 193.43139,54.678851 193.50818,54.571951 193.46469,54.421051 193.36024,54.347051 193.14504,54.210451 192.95164,54.384141 192.95424,54.567851 Z M 190.45419,56.298851 C 190.32579,56.302681 190.21299,56.402851 190.20299,56.552651 190.21378,56.808951 190.51149,56.897851 190.66599,56.709651 190.79659,56.525051 190.66392,56.293251 190.45409,56.298951 Z M 189.41619,58.301851 C 189.07799,58.443651 184.95319,62.725851 184.95319,62.934851 185.96919,63.725551 187.38819,64.070851 188.44319,64.298851 190.56619,64.673451 192.89619,64.416151 194.72519,63.553351 195.49419,63.176751 195.77419,63.005151 195.77419,62.912051 193.94619,60.980051 192.53919,59.427051 191.40119,58.305051 190.73409,58.163451 190.07219,58.131851 189.41419,58.301441 Z" style="fill:#fdfdfd;stroke-width:0.25799999" />
  <path inkscape:connector-curvature="0" id="rTire" d="M 47.964494,67.651456 C 56.183494,67.695986 62.894494,61.091456 62.974494,52.871456 63.059934,44.652456 56.489494,37.911456 48.274494,37.791456 40.058494,37.664856 33.284494,44.199456 33.114494,52.571456 33.111054,60.942456 39.752494,67.611456 47.964494,67.651456 Z" style="fill:#000000;stroke-width:0.25799999" />
  <path inkscape:connector-curvature="0" id="rRim" d="M 60.194494,53.352414 C 59.822994,59.812414 54.459494,64.912414 47.984494,64.882414 40.232494,64.934834 35.504494,57.873414 35.874494,52.402414 35.937544,45.323414 41.957494,40.402414 48.024494,40.562414 55.701494,40.479324 60.734494,47.218414 60.184494,53.352414 Z M 47.564494,42.032414 C 47.517954,42.092104 47.433194,43.276414 47.376094,44.663414 47.278834,47.028414 47.016694,50.220414 46.895194,50.521414 46.865394,50.595584 46.728094,50.722914 46.590294,50.804414 46.351894,50.945214 46.301594,50.943814 45.578294,50.775234 44.292294,50.475434 41.946294,49.836234 39.996294,49.254234 38.974294,48.949334 38.108294,48.718434 38.071294,48.741134 38.034454,48.763904 37.938194,48.981534 37.857394,49.224534 37.698294,49.703534 37.773554,50.022134 38.066794,50.110934 38.144414,50.134494 38.963794,50.430534 39.887794,50.768534 42.547794,51.742334 45.392794,52.963534 45.609794,53.224534 45.896894,53.571534 45.837494,53.825634 45.239394,54.809534 44.409794,56.175534 43.388394,57.719534 42.169394,59.447534 42.058494,59.625834 41.204894,60.772534 41.172894,61.009534 41.372594,61.220734 41.696294,61.578634 42.033194,61.715134 42.215594,61.715134 42.444394,61.460334 43.826194,59.718134 45.814194,57.211134 47.528194,55.247134 47.804194,55.160134 48.152994,55.049434 48.425594,55.236904 49.177194,56.104534 50.210194,57.297534 51.119194,58.432534 52.487194,60.239534 53.119194,61.075134 53.664194,61.769534 53.698194,61.781534 54.126694,61.585234 54.422294,61.342934 54.826194,61.055834 54.844704,61.038974 54.235694,60.095934 53.473194,58.960834 52.710394,57.825834 51.685194,56.220834 51.195194,55.395834 50.405594,54.067834 50.309594,53.862834 50.357594,53.605834 50.387464,53.446634 50.479494,53.259134 50.562094,53.189234 50.852794,52.943234 53.787094,51.777234 56.529094,50.817234 58.501094,50.127134 58.380094,50.180034 58.443094,49.983434 58.497654,49.811434 58.264794,48.987634 58.139694,48.910434 55.672694,49.500434 53.240694,50.161434 50.562694,50.820434 49.851694,50.961534 49.791894,50.961834 49.582194,50.824664 49.459494,50.744234 49.326994,50.592664 49.288094,50.487764 49.129094,50.060564 48.851594,45.446764 48.847994,43.166764 48.846354,42.207664 48.824214,42.017764 48.708794,41.972764 48.331894,41.877854 47.940794,41.927954 47.565794,42.028534 Z M 49.266494,42.073924 C 49.220964,42.119474 49.241294,42.615424 49.315844,43.274924 49.651444,46.243924 49.888844,48.085924 49.960544,48.273924 50.122644,48.700324 51.158544,49.500924 51.665544,49.590924 51.808744,49.616364 53.117544,49.423724 54.575544,49.163224 57.815544,48.583524 57.833544,48.578924 57.851544,48.338224 57.888844,47.842924 56.813544,46.230224 55.712544,45.129224 54.488544,43.905224 53.249544,43.126224 51.603544,42.544224 50.878144,42.288324 49.863544,42.063124 49.448544,42.048124 49.388054,42.034264 49.321244,42.065694 49.267744,42.073084 Z M 44.893494,42.461924 C 42.730494,43.177524 40.683494,44.565924 39.437494,46.261924 38.824294,47.095724 38.205494,48.249924 38.314494,48.358924 39.631494,48.649624 40.705494,48.824824 42.594494,49.224624 44.418494,49.612624 44.392494,49.611324 44.968494,49.319874 45.545094,49.028374 46.190494,48.373874 46.289494,47.958874 46.612994,46.081874 46.945794,43.985874 47.044594,42.084874 46.430894,42.015094 45.579594,42.239974 44.895594,42.461474 Z M 46.159494,50.401924 C 46.165614,50.667324 46.428594,50.725424 46.573494,50.617024 46.714294,50.506824 46.676994,50.314924 46.610924,50.248924 46.421524,50.063424 46.174924,50.190394 46.159524,50.401924 Z M 49.822494,50.173524 C 49.681794,50.168614 49.505994,50.283924 49.561694,50.511424 49.588964,50.595034 49.748094,50.791824 49.982994,50.620124 50.121494,50.480324 50.083594,50.212324 49.822494,50.173524 Z M 37.682494,50.412324 C 37.628014,50.411014 37.600664,50.430014 37.576194,50.460154 37.303994,50.794454 37.211894,53.372154 37.427794,54.611154 37.699694,56.170154 38.465794,57.965154 39.371794,59.164154 40.371794,60.489154 40.696794,60.750154 40.962794,60.440154 41.132194,60.242154 41.460894,59.677354 42.800794,57.280154 43.756094,55.572154 43.899794,55.265154 43.899794,54.923154 43.899794,54.474054 43.628194,53.527154 43.410894,53.218154 41.327894,52.280454 39.435894,51.018154 37.683894,50.411154 Z M 52.952494,53.103324 C 52.580494,53.346524 52.071494,54.770324 52.174194,55.279324 52.815294,56.709324 53.539194,57.949324 54.316194,59.419324 55.083694,60.873324 55.012994,60.790324 55.321194,60.596324 55.750494,60.325924 56.641194,59.325324 57.156194,58.536324 58.455194,56.651324 58.776194,54.329324 58.782194,52.819324 58.788904,50.938324 58.745484,50.605324 58.539094,50.605324 58.332694,50.605324 53.310094,52.866324 52.954094,53.101324 Z M 48.987494,51.018324 C 50.022494,51.778524 50.204494,52.967324 49.551894,53.832324 48.190894,55.344324 46.210894,54.353724 46.141894,52.612324 46.260094,51.055324 47.804894,50.447324 48.986894,51.018324 Z M 45.053494,53.574324 C 45.061464,53.802724 45.268994,53.907124 45.462394,53.800424 45.641394,53.659124 45.575294,53.414724 45.421064,53.355424 45.251464,53.299394 45.104264,53.351464 45.053464,53.574224 Z M 50.558494,53.672404 C 50.577924,53.861504 50.857194,54.033604 51.043494,53.764184 51.058324,53.764184 51.148894,53.452284 50.856094,53.393984 50.611794,53.354254 50.538794,53.604284 50.558394,53.672384 Z M 48.153494,55.392404 C 48.008994,55.339034 47.806794,55.438554 47.812494,55.640004 47.835014,55.915004 48.133694,55.944104 48.258494,55.806804 48.385094,55.667604 48.311714,55.450804 48.153594,55.392204 Z M 47.035494,57.373404 C 46.699094,57.514404 42.595494,61.774404 42.595494,61.983404 43.606494,62.770004 45.018494,63.113404 46.067494,63.340404 46.597594,63.453804 48.822494,63.574904 49.106494,63.505704 50.636494,63.268504 52.261494,62.981504 53.360494,61.960704 53.360494,61.923764 52.445494,60.903704 51.327494,59.693704 50.038494,58.299704 49.190494,57.451704 49.011494,57.377704 48.347194,57.236804 47.689494,57.205304 47.034494,57.374094 Z" style="fill:#fdfdfd;stroke-width:0.25799999" />
  <path inkscape:connector-curvature="0" id="red" d="M 20.634494,25.839945 C 20.985094,24.902745 9.5844941,22.429945 9.5844941,22.901945 4.8014941,27.741945 4.8974941,31.592945 2.6834941,35.741945 6.5814941,37.266945 18.163494,29.093945 20.633494,25.838945 Z" style="fill:#ac2b1f;stroke-width:0.25799999" />
  <path inkscape:connector-curvature="0" id="white" d="M 3.2424941,47.769417 26.832494,51.290417 26.849564,49.222417 C 19.314564,47.884417 12.169564,46.005417 3.6495641,46.015417 Z M 69.802494,52.000417 C 102.79249,52.345617 135.71249,52.324917 168.91249,54.044417 169.69469,54.632817 169.84689,55.169417 169.04559,55.625417 135.76559,54.566417 102.43559,55.026117 69.805594,53.217417 69.283694,52.519817 69.346394,52.286917 69.805994,52.000417 Z M 54.702494,23.490417 C 54.432894,24.175317 54.184494,24.857417 54.737524,25.452417 L 65.347524,25.137217 65.032324,23.350217 Z M 110.96249,24.296017 110.75229,25.592017 122.10229,25.872217 122.1723,24.541217 C 118.0243,24.616577 114.3813,23.821717 110.9623,24.295617 Z M 226.36249,43.756017 C 225.41139,39.727017 224.09549,35.754017 221.89449,31.926017 218.54649,29.647017 204.44449,28.232017 204.73449,31.355617 204.38749,33.345617 225.08449,43.015617 226.36449,43.755617 Z M 158.05249,24.856017 C 152.43349,17.460017 129.39249,5.366017 120.93249,4.926017 110.46249,2.424017 84.502494,2.220017 70.552494,6.537017 62.390494,9.756017 53.822494,14.199017 48.692494,21.527017 87.052494,21.788317 126.21249,23.246017 158.09249,24.855017 Z" style="fill:#ffffff;stroke-width:0.25799999" />
  <path inkscape:connector-curvature="0" id="black" d="M 6.3484941,22.673104 C 8.2924941,19.237104 8.1984941,19.343104 9.3664941,19.332104 18.029494,17.797104 28.186494,17.444104 34.316494,14.361104 43.280494,10.151104 50.406494,6.3301041 58.536494,3.6511041 63.386494,2.4121041 62.880494,2.8122041 62.277494,0.68410413 62.040094,-0.15299587 63.169294,-0.18419587 63.990494,0.63687413 64.762094,1.4084741 67.390494,1.7358741 69.655494,1.3429741 81.665494,0.29797413 95.505494,-0.66102587 106.38549,0.07697413 114.08849,0.52277413 122.31549,1.6209741 129.03549,3.7939741 139.91549,8.0499741 147.85549,13.165974 156.86549,18.733974 160.58549,20.247974 164.50149,20.468974 168.49549,20.729974 182.66549,21.456174 196.30549,22.823974 211.06549,26.618974 213.82549,27.299774 216.23249,27.855974 216.41549,27.855974 216.96499,27.197174 216.44423,25.239974 216.79939,24.695974 217.62829,25.672374 217.67109,26.931974 217.59909,27.989974 219.85209,29.184974 221.55609,29.425974 222.91309,31.327974 225.15409,35.994974 226.65109,40.557974 227.01009,45.237974 227.05144,47.956974 227.14169,50.180974 226.60169,53.100974 226.37149,54.251974 224.21369,56.085974 222.35269,56.709974 218.43969,57.811974 208.90269,59.495974 206.05269,58.786974 204.32569,58.352074 204.98169,57.786974 205.55119,56.250974 209.87219,43.030974 197.40219,32.380974 185.88119,35.670974 174.39119,39.400974 172.30119,50.270974 174.36119,58.660974 L 166.47719,58.635494 C 130.20719,58.347594 95.537194,57.537494 63.577194,58.304994 65.719194,49.595994 63.010694,41.684994 58.572194,38.404994 53.810194,34.266994 43.632194,32.894994 37.302194,38.756894 30.920194,44.251894 31.529194,53.476894 31.913194,56.746894 21.543194,55.721894 13.823194,53.310894 4.2631941,51.674894 -0.16580586,49.780894 -8.0586448e-4,47.430894 0.00119414,43.143894 0.00119414,40.844894 0.06744414,38.750894 0.14609414,38.489894 2.2430941,32.881894 4.4280941,27.299894 6.3140941,22.669894 Z M 3.4724941,32.683104 C 8.9254941,30.309104 17.212494,26.164104 18.862494,24.627104 19.661394,23.882904 19.350094,23.392104 17.471494,22.434104 15.587494,21.473704 11.205494,20.145104 8.7754941,22.416864 6.1134941,25.713864 4.6714941,29.742864 3.4794941,32.686864 Z M 49.492494,19.743104 C 65.042494,19.801734 83.082494,19.166804 99.902494,19.805604 118.23249,20.292104 135.68249,21.250604 151.98249,22.666604 154.90249,22.920304 157.45449,23.127604 157.65249,23.127604 149.30749,15.390604 136.91249,8.8976041 126.15249,5.0676041 117.25749,0.65860413 87.512494,0.61760413 74.432494,3.9526041 60.302494,8.3146041 54.562494,13.835604 49.492494,19.742604 Z M 100.54249,3.0231041 C 101.31149,3.0093541 102.49449,2.9630441 103.26949,2.9536841 103.65209,8.3216841 104.71349,14.203684 105.29349,18.823684 103.73749,18.775104 102.69849,18.762514 101.15849,18.704884 M 105.90249,18.902684 C 105.15149,13.467684 104.36849,7.7126841 103.79549,2.9526841 108.98349,2.9441541 114.29549,3.2488841 119.33549,4.3596841 130.61549,6.8776841 139.53549,11.742684 149.05549,17.419684 149.72029,17.898684 150.29949,18.293384 150.29949,18.552684 150.29949,18.812184 150.49519,19.024984 150.73469,19.024984 150.97419,19.024984 151.33369,19.221984 151.53359,19.462984 151.83259,19.823084 151.71319,19.850984 150.86159,19.781784 150.29179,19.735744 149.71859,19.893884 149.58859,20.090084 149.41529,20.350884 149.28389,20.342484 149.10049,20.059534 148.70499,19.449134 147.27449,19.699934 146.74449,20.261634 146.18239,20.777334 145.46249,21.436634 144.69449,21.295634 144.08259,21.486034 143.42049,21.372074 142.78449,21.219684 140.89949,20.768784 140.41449,20.393884 140.55749,19.141684 140.65999,18.245284 140.68609,18.233884 142.71549,18.240584 143.84549,18.244264 145.74949,18.342084 146.94649,18.457684 149.41449,18.696084 149.44549,18.230484 146.9826,17.901284 146.1135,17.785084 145.0186,17.492384 144.5496,17.250984 144.0804,17.009384 143.0496,16.812184 142.2586,16.812184 141.3134,16.812184 140.8246,16.676884 140.8306,16.417184 140.84838,15.716284 141.6615,14.916184 142.3566,14.916184 142.7286,14.916184 143.0327,14.786084 143.0327,14.627284 140.3727,13.816184 139.3977,17.625284 139.7567,18.716284 139.6163,19.350384 140.0068,19.984284 140.1767,20.618284 128.4267,20.327784 116.4067,19.339284 105.8967,18.903284 Z M 100.50049,18.769484 C 88.730494,18.345684 79.540494,18.776274 69.390494,18.336384 69.447714,14.616384 69.505394,10.894384 69.563194,7.1663841 L 72.625194,6.1563841 C 81.535194,3.7033841 90.375194,3.0453841 99.965194,3.0043841 100.38359,8.4733841 100.31529,14.044384 100.49399,18.764384 Z M 68.870494,7.3594841 C 68.853654,11.494484 68.775844,15.415484 68.567894,18.329484 63.297894,18.469884 57.417894,18.625084 52.127894,18.804684 52.367994,18.329984 54.210894,16.920684 56.144894,15.112684 59.335894,12.179684 64.577894,8.3696841 68.874894,7.3556841 Z M 152.04049,19.949484 C 152.64079,19.938814 155.10549,21.881484 155.45649,22.186484 155.58059,22.177414 147.32049,21.297484 146.68049,21.091484 148.58249,20.594684 150.30449,20.405284 152.04149,19.948484 Z M 54.730494,23.117484 C 55.416694,24.056484 53.894894,23.684984 60.591494,23.603984 64.806494,23.519474 65.503494,23.480384 65.242494,22.549984 65.236334,21.695084 63.030494,22.116884 60.423494,22.083784 57.740494,22.492384 55.558494,21.708184 54.730494,23.117784 Z M 111.30049,23.159604 C 110.22949,24.314604 113.54849,23.986604 116.37449,24.070804 121.46949,24.222604 122.22049,24.511404 122.22049,23.762504 122.22049,23.012304 121.37539,23.081704 115.95949,22.880804 114.26149,22.874514 112.08449,22.432404 111.30049,23.159704 Z M 220.30049,38.869604 C 221.50049,39.604604 223.40349,39.791304 223.35449,39.219204 223.13399,36.513204 221.56849,33.954204 219.77349,31.823204 218.75449,28.872204 204.02349,26.821204 206.31349,30.762204 210.68349,34.712204 216.31349,35.978204 220.29349,38.870204 Z M 221.58849,30.562604 C 220.89509,32.506604 222.70049,34.989604 223.43549,36.686604 224.60149,39.093604 226.07449,42.088604 226.15749,41.887604 225.91879,39.961604 222.76049,30.427604 221.58849,30.567604 Z M 3.9884941,45.532604 C 3.8698941,46.532604 4.5299941,45.751304 12.044494,47.044604 13.082494,47.113614 23.674494,49.556604 26.914494,49.078604 26.914494,48.812404 27.220194,47.869604 24.298494,47.680604 21.453494,47.058904 3.7484941,44.146604 3.9884941,45.531604 Z M 93.998494,52.190604 C 115.27849,52.256004 137.20849,53.237604 155.08849,53.165204 170.06849,53.530004 170.05849,54.025504 169.63849,53.168904 168.84209,51.926904 113.42849,51.207904 97.148494,51.067904 87.957494,50.984524 77.858494,50.472504 71.968494,50.839904 66.079494,51.207504 72.705994,52.124904 93.988494,52.190904 Z" style="fill:#000000;stroke-width:0.25799999" />
</svg>
