<svg width="94.14" height="37.89" version="1.1" viewBox="0 0 94.140709 37.890704" xmlns="http://www.w3.org/2000/svg">
 <path d="m7.271 1.997c-1.865 0-2.963 0.6087-3.711 2.055-0.483 0.9333-0.4843 1.044-8e-3 1.393 0.2847 0.2082 0.5176 0.8229 0.5176 1.367 0 1.451 0.5935 2.514 1.723 3.086h2e-3c2.087 1.056 4.678-0.5585 4.678-2.916 0-0.6989 0.2056-1.309 0.5176-1.537 0.4762-0.3484 0.4748-0.4592-8e-3 -1.393-0.7478-1.446-1.846-2.055-3.711-2.055zm0 2.266c1.27-1.3e-4 2.538 0.2193 2.975 0.6602 0.3012 0.3045 0.1904 0.3154-0.5156 0.0488-0.4955-0.1871-1.602-0.3398-2.459-0.3398-0.8571 0-1.964 0.1528-2.459 0.3398-0.7052 0.2663-0.818 0.2548-0.5176-0.0488 0.4363-0.441 1.707-0.66 2.977-0.6602zm1.514 6.672 0.2188 1.746c0.2215 1.773-0.1536 3.471-0.7656 3.471-0.1804 0-0.329-0.5392-0.332-1.199s-0.1296-1.4-0.2832-1.643c-0.4882-0.7708-0.9922-0.0504-0.9922 1.42 0 1.534-0.3976 1.833-0.9844 0.7363-0.2346-0.4383-0.2916-1.364-0.1562-2.561 0.2002-1.769 0.1746-1.873-0.4746-1.873-1.488 0-2.831 0.9841-3.666 2.691-1.008 2.059-1.625 6.686-1.227 9.188 0.2605 1.637 0.3204 1.721 1.23 1.721h0.957l0.1894-4.16c0.1034-2.288 0.3457-4.521 0.5391-4.961 0.2644-0.6016 0.3558 1.994 0.3711 10.46 0.0187 10.38 0.0642 11.29 0.5801 11.59 0.8282 0.4824 1.715 0.4141 2.375-0.1836 0.5321-0.4816 0.5859-1.149 0.5859-7.359 0-4.34 0.117-6.832 0.3203-6.832 0.2033 0 0.3203 2.472 0.3203 6.775 0 5.855 0.0716 6.854 0.5293 7.359 0.6499 0.7182 1.812 0.7583 2.486 0.084 0.4369-0.437 0.5058-1.958 0.5234-11.6 0.0151-8.255 0.1095-10.89 0.3672-10.3 0.1905 0.44 0.4147 2.642 0.498 4.891 0.1283 3.463 0.2367 4.134 0.709 4.387 0.3744 0.2003 0.7432 0.163 1.121-0.1133 0.5014-0.3666 0.5468-0.881 0.4258-4.707-0.1094-3.458-0.2642-4.577-0.7949-5.736-0.8551-1.868-1.96-2.858-3.463-3.102zm-1.604 0.4668c-0.2849-0.025-0.5508 0.1564-0.5508 0.5664 0 0.458 0.2061 0.6641 0.6641 0.6641 0.4579 0 0.6305-0.1726 0.5566-0.5566-0.0803-0.4171-0.385-0.6488-0.6699-0.6738z" style="fill:#0d0d0d;stroke-width:.32"/>
 <path d="m31.65 0c-1.439 0-3.331 0.8092-3.031 1.295 0.1041 0.1685-0.0117 0.3066-0.2559 0.3066-0.7896 0-3.389 1.933-4.061 3.02-0.359 0.5808-0.6523 1.601-0.6523 2.268 0 0.999 0.2259 1.426 1.289 2.438 0.7093 0.6747 1.645 1.317 2.08 1.426l0.791 0.1992v11.83c0 7.54 0.1189 12.05 0.3301 12.45 0.2287 0.4272 0.6722 0.6191 1.43 0.6191 0.7576 0 1.199-0.1919 1.428-0.6191 0.1983-0.3705 0.332-3.327 0.332-7.361 0-4.281 0.1171-6.74 0.3203-6.74 0.2033 0 0.3203 2.472 0.3203 6.775 0 5.855 0.0716 6.854 0.5293 7.359 0.6014 0.6646 2.032 0.775 2.605 0.2012 0.2827-0.2827 0.3933-3.341 0.418-11.6 0.0292-9.747 0.0885-11.05 0.4551-9.936 0.2398 0.7276 0.4333 2.827 0.4473 4.867 0.0216 3.158 0.0949 3.628 0.6191 3.908 1.604 0.8587 2.27-1.725 1.682-6.527-0.577-4.711-2.253-7.209-4.836-7.209-0.6572 0-0.6869 0.1012-0.4824 1.588 0.263 1.912-0.0419 3.531-0.6641 3.531-0.3245 0-0.4551-0.4054-0.4551-1.42 0-1.47-0.502-2.191-0.9902-1.42-0.1536 0.2426-0.2802 1.083-0.2832 1.869-5e-3 1.36-0.0318 1.402-0.5644 0.8691-0.4412-0.4412-0.5454-1.031-0.4922-2.789 0.0624-2.065 0.0177-2.229-0.5977-2.229-0.962 0-3.111-1.29-3.338-2.004-0.2232-0.7033 0.7179-1.84 2.371-2.861 0.8991-0.5557 1.053-0.8159 0.9394-1.59-0.0933-0.6358-0.0334-0.8224 0.1934-0.5957 0.1815 0.1815 1.21 0.3301 2.285 0.3301 1.307 0 2.161 0.1674 2.576 0.5059 0.6124 0.4989 0.6114 0.504-0.0195 0.2793-0.352-0.1253-1.393-0.2982-2.314-0.3848-1.566-0.1472-1.738-0.0908-2.641 0.875-0.5308 0.5682-0.9648 1.3-0.9648 1.625 0 2.267 2.572 3.85 4.582 2.822 1.198-0.6129 1.804-1.643 1.812-3.082 5e-3 -0.9924 0.1361-1.359 0.4863-1.359 0.6087 0 0.6065-0.4274-6e-3 -1.611-0.6164-1.192-1.997-1.91-3.674-1.91zm0.0898 9.33c-0.2849 0.025-0.5896 0.2568-0.6699 0.6738-0.0739 0.384 0.0987 0.5566 0.5566 0.5566 0.458 0 0.6641-0.2042 0.6641-0.6621 0-0.41-0.2659-0.5934-0.5508-0.5684z" style="fill:#0d0d0d;stroke-width:.32"/>
 <path d="m58.44 7.641c-3.257 0.0284-6.407 0.1498-6.957 0.3418-0.0216 8e-3 -0.0667 0.0137-0.0801 0.0215-6e-3 3e-3 -0.0154 0.0193-0.0215 0.0234-0.4652 0.2036-0.8418 0.8726-1.443 2.49-0.8068 2.17-1.707 3.171-1.707 1.9 0-0.3934-0.3161-0.4756-1.52-0.3984-1.382 0.0887-1.521 0.1691-1.521 0.8965 0 0.7395 0.1288 0.8071 1.682 0.8965 1.161 0.0668 1.68-0.0234 1.68-0.293 0-0.2145 0.0867-0.302 0.1934-0.1953 0.1066 0.1066-0.3965 0.7559-1.119 1.443-1.3 1.236-1.314 1.274-1.314 3.539v2.289h4.48l0.1211-0.0117c0.3678 0.0107 0.8136 0.0117 1.426 0.0117h2.719v-1.6c1e-5 -1.209 0.1178-1.6 0.4805-1.6s0.4805 0.3907 0.4805 1.6c0 0.88 0.1443 1.6 0.3203 1.6s0.3184-0.7196 0.3184-1.6c0-1.209 0.1178-1.6 0.4805-1.6s0.4805 0.3907 0.4805 1.6c0 1.067 0.1338 1.599 0.4004 1.6 0.2811 1.4e-4 0.3671-0.4736 0.2891-1.6-0.09-1.298-0.0141-1.6 0.4004-1.6 0.3997 0 0.5098 0.3477 0.5098 1.6 0 1.067 0.1337 1.6 0.4004 1.6 0.2629 3e-5 0.4004-0.5109 0.4004-1.492 0-0.9101 0.1566-1.546 0.4004-1.627 0.285-0.0951 0.3984 0.333 0.3984 1.492 0 1.267 0.1112 1.627 0.5039 1.627 0.3507 0 0.4877-0.2668 0.4473-0.8789-0.1035-1.57 3e-3 -2.32 0.3301-2.32 0.176 0 0.3203 0.7196 0.3203 1.6v1.6h8.959v-2.289c0-2.265-0.0148-2.303-1.314-3.539-0.7226-0.6874-1.226-1.337-1.119-1.443 0.1067-0.1066 0.1934-0.0192 0.1934 0.1953 0 0.2695 0.519 0.3598 1.68 0.293 1.553-0.0894 1.682-0.157 1.682-0.8965 0-0.7274-0.1395-0.8078-1.521-0.8965-1.203-0.0772-1.52 5e-3 -1.52 0.3984 0 1.271-0.9002 0.2692-1.707-1.9-0.7373-1.982-1.041-2.441-1.752-2.641-0.7001-0.1962-4.173-0.2658-7.559-0.2363zm0.7324 1.424c3.051 1e-5 6.059 0.0631 6.562 0.1894 0.7318 0.1837 0.9598 0.5621 2.346 3.902 0.1306 0.3146-1.822 0.4004-9.148 0.4004-5.855 0-9.314-0.1158-9.314-0.3125 0-0.1721 0.3837-1.097 0.8535-2.055 0.7113-1.45 1.026-1.775 1.883-1.936 0.6736-0.1264 3.768-0.1895 6.818-0.1894zm-0.2305 0.2168c-0.9394 0-1.463 0.3686-1.076 0.7559 0.4259 0.4259 2.018 0.2086 2.018-0.2754 0-0.3179-0.3182-0.4805-0.9414-0.4805zm-8.846 6.516c0.0401-7e-3 0.0778 2e-3 0.1172 0 0.4665 0 0.9036 0.2817 1.195 0.6816 0.2917 0.4 0.4379 0.9183 0.3184 1.395-0.0305 0.1217-0.0748 0.2289-0.123 0.332-0.3224 0.4539-0.9286 0.791-1.453 0.791-0.3269 1e-5 -0.8211-0.2254-1.098-0.502-0.2766-0.2766-0.4486-0.5996-0.502-1.016-0.1018-0.7951 0.9382-1.576 1.545-1.682zm17.5 0c0.6159 0 1.545 1.011 1.545 1.682 0 0.2816-0.2254 0.7391-0.502 1.016-0.2766 0.2766-0.7708 0.502-1.098 0.502-0.7528 0-1.6-0.832-1.6-1.572 0-0.6737 0.9687-1.627 1.654-1.627zm-17.52 0.2949c-0.9645 0.0441-1.54 1.296-0.75 2.086 0.521 0.521 1.375 0.4822 1.844-0.082 0.5087-0.613 0.1444-1.691-0.6582-1.945-0.1508-0.0479-0.2978-0.0646-0.4356-0.0586zm17.64 0c-0.1378-6e-3 -0.2847 0.0107-0.4355 0.0586-0.8026 0.2548-1.167 1.332-0.6582 1.945 0.4683 0.5642 1.323 0.603 1.844 0.082 0.7899-0.7899 0.2145-2.042-0.75-2.086zm-18.07 4.709v0.0371c-3.223 0.051-3.586 0.188-3.586 0.6133 0 0.3575 0.2165 0.7327 0.4805 0.834 0.3037 0.1165 0.4814 0.6121 0.4844 1.35 7e-3 1.744 0.3108 2.02 2.105 1.906 0.0272-2e-3 0.0382-4e-3 0.0645-6e-3 0.1002-3e-3 0.1765 6e-3 0.2793 0 1.494-0.0874 1.619-0.1593 1.713-0.9746l0.1016-0.8789h15.21l0.1016 0.8789c0.0938 0.8153 0.2192 0.8872 1.713 0.9746 0.1028 6e-3 0.1791-3e-3 0.2793 0 0.0262 2e-3 0.0373 4e-3 0.0645 6e-3 1.795 0.1138 2.098-0.1622 2.105-1.906 3e-3 -0.7375 0.1807-1.233 0.4844-1.35 0.264-0.1013 0.4805-0.4764 0.4805-0.834 0-0.4252-0.3625-0.5623-3.586-0.6133v-0.0371h-11.04zm8.254 5.121c-8.541 0-13.44 0.1137-13.44 0.3125s4.899 0.3125 13.44 0.3125c0.3722 0 0.6359-3e-3 0.9941-4e-3 0.3576 4.3e-4 0.6207 4e-3 0.9922 4e-3 8.541 0 13.44-0.1137 13.44-0.3125s-4.899-0.3125-13.44-0.3125c-0.3715 0-0.6346 3e-3 -0.9922 4e-3 -0.3582-4.3e-4 -0.6219-4e-3 -0.9941-4e-3z" style="fill:#0d0d0d;stroke-width:.32"/>
 <path d="m86.14 0c-1.677 0-3.057 0.7183-3.674 1.91-0.6124 1.184-0.6145 1.611-0.0059 1.611 0.3502 0 0.4813 0.367 0.4863 1.359 8e-3 1.439 0.614 2.469 1.812 3.082 2.01 1.028 4.582-0.5549 4.582-2.822 0-0.3251-0.4341-1.057-0.9648-1.625-0.9022-0.9658-1.075-1.022-2.641-0.875-0.9212 0.0866-1.962 0.2594-2.314 0.3848-0.6309 0.2247-0.6319 0.2196-0.01953-0.2793 0.4154-0.3385 1.269-0.5059 2.576-0.5059 1.075 0 2.104-0.1486 2.285-0.3301 0.2268-0.2267 0.2867-0.0401 0.1934 0.5957-0.1136 0.7739 0.04034 1.034 0.9395 1.59 1.653 1.022 2.594 2.158 2.371 2.861-0.2265 0.7136-2.376 2.004-3.338 2.004-0.6154 0-0.6601 0.1638-0.5977 2.229 0.0532 1.758-0.05103 2.348-0.4922 2.789-0.5327 0.5326-0.5595 0.4909-0.5645-0.8691-3e-3 -0.7857-0.1296-1.627-0.2832-1.869-0.4882-0.7708-0.9902-0.0504-0.9902 1.42 0 1.015-0.1305 1.42-0.4551 1.42-0.6222 0-0.9271-1.619-0.6641-3.531 0.2045-1.487 0.1748-1.588-0.4824-1.588-2.583 0-4.259 2.498-4.836 7.209-0.5883 4.803 0.0772 7.386 1.682 6.527 0.5242-0.2806 0.5975-0.7505 0.6191-3.908 0.014-2.04 0.2075-4.14 0.4473-4.867 0.3666-1.112 0.4259 0.1886 0.4551 9.936 0.0247 8.258 0.1352 11.32 0.418 11.6 0.5738 0.5738 2.004 0.4634 2.605-0.2012 0.4577-0.5057 0.5293-1.504 0.5293-7.359 0-4.303 0.1171-6.775 0.3203-6.775 0.2032 0 0.3203 2.46 0.3203 6.74 0 4.035 0.1338 6.991 0.332 7.361 0.2287 0.4272 0.6702 0.6191 1.428 0.6191 0.7575 0 1.201-0.1919 1.43-0.6191 0.2112-0.3946 0.3301-4.905 0.3301-12.45v-11.83l0.791-0.1992c0.4347-0.1091 1.371-0.7511 2.08-1.426 1.063-1.011 1.289-1.439 1.289-2.438 0-0.6665-0.2934-1.687-0.6523-2.268-0.6713-1.086-3.271-3.02-4.061-3.02-0.2442 0-0.36-0.1381-0.2559-0.3066 0.3002-0.4858-1.593-1.295-3.031-1.295zm-0.08984 9.33c-0.2849-0.025-0.5508 0.1583-0.5508 0.5684 0 0.458 0.2061 0.6621 0.6641 0.6621 0.4579 0 0.6305-0.1726 0.5566-0.5566-0.08032-0.4171-0.3851-0.6488-0.6699-0.6738z" style="fill:#0d0d0d;stroke-width:.32"/>
</svg>
