<svg width="77.02" height="20" preserveAspectRation="xMinYMin meet" version="1.1" viewBox="0 0 77.016465 20.000001" xmlns="http://www.w3.org/2000/svg" xmlns:xlink="http://www.w3.org/1999/xlink">
 <defs>
  <linearGradient id="linearGradientSlvr" x1="-1869" x2="-1869" y1="794.4" y2="828" gradientTransform="matrix(1.301,0,0,1.301,1365,-35.3)" gradientUnits="userSpaceOnUse">
   <stop style="stop-color:#696969" offset="0"/>
   <stop style="stop-color:#c7c7c9" offset=".17"/>
   <stop style="stop-color:#f9f9ff" offset=".36"/>
   <stop style="stop-color:#ccccce" offset=".73"/>
   <stop style="stop-color:#696969" offset="1"/>
  </linearGradient>
  <linearGradient id="linearGradient5990" x1="-1869" x2="-1869" y1="794.4" y2="828" gradientTransform="matrix(.166 0 0 .166 326 -117.9)" gradientUnits="userSpaceOnUse" xlink:href="#linearGradientSlvr"/>
  <linearGradient id="linearGradient7643" x1="-1080" x2="-1080" y1="31.71" y2="108.7" gradientTransform="matrix(.02105 0 0 .02105 22.09 -120.3)" gradientUnits="userSpaceOnUse" xlink:href="#linearGradientSlvr"/>
  <linearGradient id="linearGradientPurp" x1="96.87" x2="96.87" y1=".6183" y2="84.13" gradientTransform="scale(.7835 1.276)" gradientUnits="userSpaceOnUse">
   <stop style="stop-color:#1c072d" offset="0"/>
   <stop style="stop-color:#5700aa" offset=".29"/>
   <stop style="stop-color:#4b127b" offset=".64"/>
   <stop style="stop-color:#290a43" offset="1"/>
  </linearGradient>
  <linearGradient id="linearGradientBlk" x1="884.1" x2="884.1" y1="-861.1" y2="-669.4" gradientTransform="matrix(.5122 0 0 .5116 -456 447.2)" gradientUnits="userSpaceOnUse">
   <stop style="stop-color:#141414" offset="0"/>
   <stop style="stop-color:#0a0a0a" offset=".15"/>
   <stop style="stop-color:#6d6d6d" offset=".3"/>
   <stop style="stop-color:#000000" offset=".44"/>
   <stop style="stop-color:#141414" offset=".62"/>
   <stop style="stop-color:#262626" offset=".75"/>
   <stop style="stop-color:#040404" offset="1"/>
  </linearGradient>
  <linearGradient id="linearGradient4577" x1="-1869" x2="-1869" y1="794.4" y2="828" gradientTransform="matrix(.166 0 0 .166 325.9 -117.9)" gradientUnits="userSpaceOnUse" xlink:href="#linearGradientSlvr"/>
  <linearGradient id="linearGradient4579" x1="-1869" x2="-1869" y1="794.4" y2="828" gradientTransform="matrix(.166 0 0 .166 326.1 -117.9)" gradientUnits="userSpaceOnUse" xlink:href="#linearGradientSlvr"/>
  <linearGradient id="linearGradient4622" x1="-1080" x2="-1080" y1="31.71" y2="108.7" gradientTransform="matrix(.1655 0 0 .1655 173.6 -4.494)" gradientUnits="userSpaceOnUse" xlink:href="#linearGradientSlvr"/>
  <linearGradient id="linearGradient4626" x1="96.87" x2="96.87" y1=".6183" y2="84.13" gradientTransform="matrix(.09967 0 0 .1623 0 .00151)" gradientUnits="userSpaceOnUse" xlink:href="#linearGradientPurp"/>
  <linearGradient id="linearGradient4630" x1="884.1" x2="884.1" y1="-861.1" y2="-669.4" gradientTransform="matrix(.06516 0 0 .06508 -58.01 56.89)" gradientUnits="userSpaceOnUse" xlink:href="#linearGradientBlk"/>
 </defs>
 <path id="tp1T" d="m0 13.83v1.058h1.623v5.013h1.241v-5.013h1.631v-1.058z" style="fill:#290a43;stroke-width:.1298"/>
 <path id="ts1T" d="m0.2861 14.67v-0.5422h3.923v0.5422h-1.604v4.931h-0.7228v-4.931z" style="fill:url(#linearGradient5990);stroke-width:.1276"/>
 <path id="tp1R" d="m7.237 17.43c0.1224 0.02436 0.2549 0.01476 0.3742 0.00452 0.317 0.1656 0.4667 0.6372 0.5581 0.9262 0.06926 0.2226 0.1315 0.4558 0.2057 0.7447 0.07411 0.289 0.1726 0.5625 0.31 0.8571h1.319l-0.1614-0.3576c-0.2222-0.4702-0.3087-0.9509-0.4208-1.31-0.1121-0.3597-0.2025-0.5802-0.3139-0.781-0.07543-0.1422-0.1817-0.2645-0.3005-0.377 0.5124-0.332 0.838-0.8883 0.8443-1.446-0.03457-0.5418-0.2587-1.032-0.6396-1.355-0.4784-0.3906-1.075-0.5485-1.635-0.5516-0.56-0.00303-1.121 0.08417-1.618 0.1813l-0.2044 0.04003v5.957h1.234c-8.416e-4 -1.677 0.002034-3.55 0.001894-5.078 0.1956-0.03857 0.4298-0.05516 0.6415-0.03624 0.233 0.0363 0.4453 0.1096 0.6607 0.2529 0.1846 0.1605 0.2468 0.3505 0.281 0.574 0 0.2503-0.1176 0.4399-0.2632 0.605-0.1769 0.1557-0.3632 0.3328-0.5862 0.367-0.2062 0.00636-0.4008 0.09481-0.5382 0.2341-0.129 0.1308-0.194 0.3688-0.1948 0.4217 0.1515 0.06146 0.26 0.1049 0.4455 0.127z" style="fill:#290a43;stroke-width:.1298"/>
 <path id="ts1R" d="m9.094 16.54c-0.1656 0.2259-0.3789 0.404-0.64 0.5345l-0.1808 0.06022 0.1506 0.06023c0.1857 0.1255 0.3263 0.2786 0.4217 0.4594 0.1004 0.1808 0.1832 0.3815 0.2484 0.6023 0.07027 0.2159 0.1355 0.4468 0.1958 0.6926 0.06526 0.2409 0.1556 0.4894 0.2711 0.7454h-0.7529c-0.1004-0.2159-0.1808-0.4467-0.2409-0.6926-0.05522-0.246-0.118-0.4819-0.1883-0.7078-0.07031-0.2259-0.1607-0.4266-0.2711-0.6023-0.1054-0.1757-0.2559-0.3012-0.4517-0.3764-0.01506 0.00502-0.03764 0.00754-0.06776 0.00754-0.1104 0.01004-0.2283 0.01254-0.3539 0.00752-0.1255-0.01004-0.2585-0.03263-0.399-0.06778 0.05522-0.1305 0.138-0.2384 0.2484-0.3237 0.1155-0.08533 0.2535-0.1305 0.4141-0.1355 0.1305-0.00502 0.261-0.03513 0.3915-0.09035 0.2665-0.1184 0.4807-0.318 0.6023-0.5572 0.1313-0.2994 0.1492-0.5855 0-0.8432-0.1469-0.2753-0.3898-0.4656-0.655-0.5647-0.2924-0.1004-0.5691-0.08757-0.8584-0.07529-0.1155 0.00502-0.2636 0.0251-0.4442 0.06022v4.961h-0.7153v-5.406c0.2811-0.05521 0.5396-0.09788 0.7754-0.128 0.236-0.03011 0.4919-0.04516 0.7679-0.04516 0.6058 0.00611 1.064 0.1506 1.445 0.4819 0.4052 0.3072 0.5392 0.7598 0.5422 1.18 0 0.266-0.08533 0.532-0.2559 0.7628z" style="fill:url(#linearGradient5990);stroke-width:.1276"/>
 <path id="tp1A" d="m14.53 18.03c-0.1292-0.2172-0.3274-0.4272-0.6013-0.4361l-0.7762-0.02544 0.6041-1.783 1.427 4.121h1.322l-2.188-6.072h-1.067l-2.189 6.072h1.268l0.4716-1.408h1.895s-0.0908-0.3413-0.1666-0.4686z" style="fill:#290a43;stroke-width:.1298"/>
 <path id="ts1A" d="m14.13 14.12 1.973 5.474h-0.7679l-1.529-4.412-0.0527-0.2183-0.0527 0.2183-0.8432 2.417-0.08282 0.1581 0.09037-0.01506h1.017q0.2711 0 0.4141 0.1656 0.1431 0.1581 0.2259 0.3764h-1.898l-0.4517 1.31h-0.7153l1.973-5.474z" style="fill:url(#linearGradient5990);stroke-width:.1276"/>
 <path id="tp1N" d="m17.61 13.83v6.072h1.127v-3.966l2.484 3.966h1.044v-6.072h-1.15v3.81l-2.385-3.81z" style="fill:#290a43;stroke-width:.1298"/>
 <path id="ts1N" d="m18.58 15.23-0.1054-0.2559 0.01507 0.2559v4.375h-0.6098v-5.474h0.7153l2.659 4.246 0.09035 0.2484-0.01506-0.2636v-4.232h0.6325v5.474h-0.64z" style="fill:url(#linearGradient5990);stroke-width:.1276"/>
 <path id="tpS" d="m24.09 14.21c-0.3256 0.3198-0.4988 0.7333-0.5109 1.165 0.02147 0.6164 0.3213 1.085 0.7487 1.408 0.4274 0.3228 0.8683 0.4947 1.277 0.7439 0.3086 0.1822 0.4752 0.3968 0.5465 0.7262 0 0.2015-0.06265 0.3441-0.216 0.4862-0.4086 0.262-0.82 0.2193-1.241 0.1381-0.3396-0.07416-0.5717-0.1766-0.8762-0.3119l-0.3845 0.9616c0.3549 0.1818 0.7611 0.3185 1.103 0.391 0.2778 0.0493 0.5457 0.07211 0.8116 0.0808 0.5635-0.01352 1.109-0.1632 1.507-0.5154 0.3484-0.3314 0.5561-0.7673 0.56-1.215-0.02053-0.6261-0.3225-1.108-0.773-1.457-0.413-0.307-0.8576-0.5086-1.27-0.7578-0.1764-0.1068-0.3169-0.2199-0.425-0.3365-0.1455-0.1959-0.1627-0.3772-0.08906-0.5656 0.09874-0.2086 0.3417-0.3222 0.5974-0.3506 0.355 0.01142 0.7 0.06213 1.029 0.1576l0.2193 0.0663 0.401-0.9649-0.2646-0.08311c-0.4875-0.152-0.9881-0.2397-1.469-0.2344-0.4811 0.00524-0.9439 0.1581-1.282 0.4661z" style="fill:#290a43;stroke-width:.1298"/>
 <path id="tsS" d="m25.1 14.69c-0.2202 0.08527-0.3479 0.2504-0.4442 0.4367-0.1088 0.2908-0.03924 0.6121 0.1355 0.8131 0.1255 0.1355 0.2835 0.261 0.4744 0.3764 0.4171 0.2592 0.8608 0.4527 1.227 0.7303 0.1907 0.1455 0.3488 0.3162 0.4744 0.512 0.2445 0.4376 0.2478 0.8631 0.06776 1.265-0.2054 0.4286-0.4923 0.6544-0.9035 0.7906-0.2208 0.08032-0.4744 0.1205-0.7604 0.1205-0.2599-0.00797-0.5148-0.03167-0.7529-0.07529-0.2894-0.05744-0.5635-0.1445-0.8131-0.2636l0.1958-0.4894c0.2259 0.1004 0.4517 0.1731 0.6776 0.2183 0.2309 0.04517 0.4342 0.06776 0.6098 0.06776 0.3564 0 0.6325-0.08783 0.8282-0.2636 0.1958-0.1808 0.2936-0.4016 0.2936-0.6626-0.02277-0.445-0.3287-0.721-0.655-0.9261-0.1857-0.1154-0.389-0.2259-0.6098-0.3312-0.4282-0.2165-0.8277-0.4928-1.077-0.8659-0.2375-0.4764-0.2594-0.7972-0.08282-1.235 0.1722-0.3502 0.466-0.6022 0.7981-0.7303 0.1857-0.07027 0.3915-0.1054 0.6175-0.1054 0.4765 0.00113 0.9505 0.0976 1.362 0.2259l-0.2033 0.4894c-0.2159-0.06524-0.4166-0.1079-0.6023-0.128-0.2903-0.03292-0.5986-0.07353-0.8584 0.03013z" style="fill:url(#linearGradient5990);stroke-width:.1276"/>
 <path id="tpP" d="m30.36 17.56c0.3755 0.04496 0.8025-0.01614 1.126-0.1375 0.4775-0.1932 0.8749-0.4997 1.107-0.931 0.2273-0.5074 0.2287-1.062 0.01165-1.53-0.2545-0.5081-0.699-0.8537-1.185-1.026-0.281-0.1029-0.5885-0.153-0.9193-0.153l-6.23e-4 5.9e-4c-0.2865 0-0.5535 0.01299-0.8023 0.03927-0.3875 0.03862-0.6639 0.0891-1.019 0.1586v5.952l1.234 0.02585c-5e-5 -1.682 1.37e-4 -3.557 1.3e-4 -5.079 0.2056-0.01312 0.4163-0.03185 0.6426-0.03382 0.2263-0.00198 0.4517 0.09748 0.6556 0.2576 0.2047 0.1607 0.296 0.39 0.31 0.6163-0.03686 0.5175-0.4071 0.8762-0.8314 1.004-0.2107 0.04264-0.4012 0.06903-0.5528 0.1917-0.1387 0.1122-0.2771 0.4578-0.2771 0.4578s0.3237 0.1673 0.5009 0.1884z" style="fill:#290a43;stroke-width:.1298"/>
 <path id="tsP" d="m32.35 16.41c-0.2154 0.4016-0.5689 0.6705-0.9562 0.8207-0.2108 0.08032-0.4292 0.1305-0.655 0.1506-0.1104 0.01004-0.2283 0.01255-0.3539 0.00752-0.1255-0.00501-0.2585-0.02759-0.399-0.06774 0.05521-0.1305 0.138-0.2384 0.2484-0.3237 0.1155-0.09035 0.2535-0.1355 0.4141-0.1355 0.1305 0 0.261-0.02761 0.3915-0.08283 0.2692-0.1219 0.4791-0.3295 0.6023-0.5722 0.1224-0.2936 0.1264-0.6126 0-0.8809-0.06526-0.1355-0.1532-0.2535-0.2636-0.3539-0.2524-0.2126-0.5648-0.3143-0.8659-0.3162-0.2811 0-0.5572 0.01506-0.8282 0.04517v4.978l-0.7153-0.01504v-5.406c0.2811-0.0552 0.5396-0.09286 0.7754-0.1129 0.5432-0.04445 1.098-0.0781 1.589 0.09789 0.4507 0.1704 0.8355 0.4714 1.024 0.8809 0.1755 0.427 0.1917 0.8992-0.007529 1.287z" style="fill:url(#linearGradient4579);stroke-width:.1276"/>
 <path id="tp1O" d="m35.41 14.01c-0.5401 0.2212-1.083 0.8109-1.387 1.59-0.3042 0.7794-0.3312 1.735-0.03403 2.522 0.2972 0.7874 0.8361 1.36 1.514 1.673 0.7299 0.2805 1.525 0.2784 2.225-0.02978 0.6993-0.3082 1.223-0.9263 1.493-1.603 0.2806-0.834 0.288-1.703 0.04333-2.487-0.2539-0.7569-0.7812-1.376-1.441-1.698-0.3702-0.1444-0.7529-0.2236-1.129-0.2347-0.3761-0.01101-0.7442 0.04567-1.285 0.2669zm2.243 1.309c0.3613 0.461 0.4933 1.011 0.5039 1.549-0.01582 0.5492-0.1342 1.089-0.4311 1.477-0.2969 0.3871-0.6905 0.5995-1.117 0.6136-0.455-0.01181-0.8342-0.2357-1.093-0.5537-0.3306-0.4644-0.4501-1.022-0.4525-1.535 0.002946-0.7542 0.305-1.64 0.9603-1.946 0.5063-0.2367 1.268-0.06617 1.63 0.3948z" style="fill:#290a43;stroke-width:.1298"/>
 <path id="ts1O" d="m34.29 15.65c0.296-0.6502 0.7975-1.169 1.416-1.416 0.6499-0.2364 1.395-0.2189 1.981 0.0527 0.3162 0.1506 0.5822 0.3564 0.7981 0.6175 0.7299 0.9469 0.8398 2.155 0.4517 3.185-0.2716 0.6626-0.7598 1.196-1.362 1.468-0.651 0.2553-1.366 0.2458-1.965 0-0.6608-0.2899-1.111-0.8505-1.347-1.453-0.2486-0.815-0.2818-1.697 0.03012-2.455zm0.5422 1.257c0.006842 0.6087 0.1539 1.203 0.4969 1.664 0.3356 0.3998 0.7925 0.636 1.272 0.64 0.5327-0.02116 0.9886-0.2786 1.28-0.6701 0.3465-0.4951 0.4866-1.082 0.4894-1.633-0.01434-0.611-0.1614-1.224-0.5195-1.679-0.3302-0.3861-0.7802-0.6135-1.25-0.6175-0.5107 0.01871-0.9562 0.2561-1.25 0.6175-0.3761 0.5027-0.5167 1.113-0.5195 1.679z" style="fill:url(#linearGradient5990);stroke-width:.1276"/>
 <path id="tp2R" d="m42.66 17.48c0.06503 0.02839 0.1921 0.2472 0.2508 0.3151 0.2309 0.4012 0.3463 0.859 0.4377 1.257v0.00493c0.08944 0.342 0.1911 0.6007 0.3295 0.8973h1.319c-0.1627-0.3515-0.3306-0.7403-0.4231-1.077-0.05605-0.2208-0.1342-0.5041-0.2005-0.7097-0.1295-0.3957-0.2918-0.77-0.5732-1.038 0.2045-0.1336 0.3905-0.2886 0.5343-0.4844 0.2047-0.277 0.31-0.6079 0.31-0.9619-0.0346-0.5418-0.2586-1.032-0.6395-1.355-0.4784-0.3906-1.075-0.5486-1.635-0.5518-0.5596-0.0035-1.121 0.08363-1.618 0.1808l-0.2044 0.04025v5.957h1.234c0-1.679-0.009613-3.553 0.001961-5.077 0.3309-0.05618 0.7026-0.03613 0.979 0.03121h0.003918c0.3578 0.1651 0.5949 0.3965 0.6009 0.7575 0.006371 0.389-0.199 0.6846-0.4934 0.8439-0.1613 0.1495-0.591 0.1176-0.7954 0.2927-0.2643 0.2263-0.2829 0.3221-0.3227 0.4807 0.3072 0.221 0.5491 0.1553 0.9043 0.1954z" style="fill:#290a43;stroke-width:.1298"/>
 <path id="ts2R" d="m44.09 16.54c-0.1656 0.2259-0.3789 0.404-0.64 0.5345l-0.1808 0.06022 0.1506 0.06023c0.1857 0.1255 0.3263 0.2786 0.4217 0.4594 0.1004 0.1808 0.1832 0.3815 0.2484 0.6023 0.07027 0.2159 0.1355 0.4468 0.1958 0.6926 0.06526 0.2409 0.1556 0.4894 0.2711 0.7454h-0.7529c-0.1004-0.2159-0.1808-0.4467-0.2409-0.6926-0.05521-0.246-0.118-0.4819-0.1883-0.7078-0.07031-0.2259-0.1607-0.4266-0.2711-0.6023-0.1054-0.1757-0.2559-0.3012-0.4517-0.3764-0.01506 0.00502-0.03765 0.00754-0.06776 0.00754-0.1104 0.01004-0.2283 0.01254-0.3539 0.00752-0.1255-0.01004-0.2585-0.03263-0.399-0.06778 0.05521-0.1305 0.138-0.2384 0.2484-0.3237 0.1155-0.08533 0.2535-0.1305 0.4141-0.1355 0.1305-0.00502 0.261-0.03513 0.3915-0.09035 0.2665-0.1184 0.4807-0.318 0.6023-0.5572 0.12-0.2798 0.1295-0.5883 0-0.8432-0.1469-0.2753-0.3898-0.4656-0.655-0.5647-0.2924-0.1004-0.5691-0.08757-0.8584-0.07529-0.1155 0.00502-0.2636 0.0251-0.4442 0.06022v4.961h-0.7153v-5.406c0.2811-0.05521 0.5396-0.09788 0.7754-0.128 0.5425-0.0545 1.095-0.08442 1.589 0.08283 0.4436 0.1705 0.8336 0.4625 1.024 0.8659 0.2048 0.4841 0.1736 1.033-0.1129 1.431z" style="fill:url(#linearGradient5990);stroke-width:.1276"/>
 <path id="tp2T" d="m46.06 13.83v1.058h1.623v5.013h1.241v-5.013h1.631v-1.058z" style="fill:#290a43;stroke-width:.1298"/>
 <path id="ts2T" d="m46.34 14.67v-0.5422h3.923v0.5422h-1.604v4.931h-0.7228v-4.931z" style="fill:url(#linearGradient5990);stroke-width:.1276"/>
 <path id="tp2A" d="m53.71 13.83-2.189 6.072h1.268l0.4591-1.332h1.934l0.4615 1.332h1.32l-2.188-6.072zm0.506 1.95 0.7997 2.22c-0.1463-0.1707-0.178-0.3862-0.5859-0.4503l-0.8179-0.03775z" style="fill:#290a43;stroke-width:.1298"/>
 <path id="ts2A" d="m54.6 14.17 1.973 5.474h-0.7679l-1.529-4.412-0.0527-0.2183-0.0527 0.2183-0.8432 2.417-0.08282 0.1581 0.09035-0.01506h1.017q0.2711 0 0.4141 0.1656 0.1431 0.1581 0.2259 0.3764h-1.898l-0.4517 1.31h-0.7153l1.973-5.474z" style="fill:url(#linearGradient5990);stroke-width:.1276"/>
 <path id="tp3T" d="m57.79 13.83v1.058h1.623v5.013h1.241v-5.013h1.631v-1.058z" style="fill:#290a43;stroke-width:.1298"/>
 <path id="ts3T" d="m58.07 14.67v-0.5422h3.923v0.5422h-1.604v4.931h-0.7228v-4.931z" style="fill:url(#linearGradient4577);stroke-width:.1276"/>
 <path id="tpI" d="m63.45 13.83v6.072h1.211v-6.072z" style="fill:#290a43;stroke-width:.1298"/>
 <path id="tsI" d="m64.4 19.64h-0.6926v-5.474h0.6926z" style="fill:url(#linearGradient5990);stroke-width:.1276"/>
 <path id="tp2O" d="m67.34 14.01c-0.5404 0.2213-1.083 0.8111-1.387 1.59-0.3039 0.7794-0.3307 1.735-0.03357 2.522 0.2972 0.7874 0.8359 1.36 1.514 1.673 0.7299 0.2805 1.525 0.2784 2.225-0.02978 0.6993-0.3082 1.223-0.9262 1.493-1.603 0.2809-0.834 0.2882-1.703 0.04358-2.487-0.254-0.7568-0.7812-1.376-1.441-1.698-0.8258-0.3324-1.735-0.2414-2.414 0.0321zm2.273 1.31c0.33 0.4601 0.462 1.01 0.4726 1.549-0.01588 0.5491-0.1342 1.089-0.4312 1.476-0.297 0.3871-0.6901 0.5995-1.117 0.6136-0.455-0.01181-0.8342-0.2357-1.093-0.5537-0.3306-0.4644-0.4501-1.022-0.4525-1.535 0.01216-0.5657 0.1105-1.144 0.4726-1.549 0.2894-0.3234 0.7155-0.5231 1.116-0.521 0.4002 0.0021 0.7816 0.2109 1.033 0.5196z" style="fill:#290a43;stroke-width:.1298"/>
 <path id="ts2O" d="m66.24 15.6c0.3044-0.6952 0.7975-1.169 1.416-1.416 0.6555-0.2587 1.395-0.2189 1.981 0.0527 0.6458 0.3226 1.077 0.8529 1.287 1.521 0.2323 0.7835 0.2259 1.581-0.03765 2.281-0.2716 0.6935-0.7345 1.193-1.362 1.468-0.6624 0.275-1.366 0.2458-1.965 0-0.6973-0.2955-1.114-0.8393-1.347-1.453-0.2543-0.7696-0.2866-1.685 0.03012-2.455zm0.6701 2.19c0.1654 0.5488 0.4881 0.9777 0.9336 1.205 0.4726 0.2406 1.005 0.2168 1.431-0.01506 0.4876-0.2619 0.7715-0.745 0.9186-1.22 0.1757-0.5923 0.1804-1.238-0.01506-1.852-0.1693-0.5353-0.4894-0.9641-0.9412-1.19-0.4689-0.2271-0.9544-0.1988-1.37 0-0.5397 0.2857-0.7894 0.7206-0.9487 1.19-0.187 0.6535-0.1847 1.285-0.007529 1.883z" style="fill:url(#linearGradient5990);stroke-width:.1272"/>
 <path id="tp2N" d="m72.3 13.83v6.072h1.127v-3.966l2.484 3.966h1.044v-6.072h-1.15v3.81l-2.385-3.81z" style="fill:#290a43;stroke-width:.1298"/>
 <path id="ts2N" d="m73.3 15.23-0.1054-0.2559 0.01506 0.2559v4.375h-0.6098v-5.474h0.7153l2.659 4.246 0.09036 0.2484-0.01506-0.2636v-4.232h0.6325v5.474h-0.64z" style="fill:url(#linearGradient5990);stroke-width:.1276"/>
 <path id="rsO" d="m28 6.85c0 0.9693 0.1464 1.848 0.4398 2.638 0.5464 1.539 1.654 2.778 3.047 3.314 1.549 0.5912 3.195 0.5967 4.654-0.03361 1.449-0.6307 2.557-1.906 3.063-3.332 0.5746-1.481 0.5829-3.418 0.08487-4.988-0.4798-1.608-1.524-2.832-2.91-3.466-1.609-0.6583-3.212-0.7076-4.768-0.08129-1.556 0.6264-2.556 1.809-3.001 2.913-0.446 1.104-0.6096 2.01-0.6096 3.036zm8.579-3.634c0.8097 1.067 1.017 2.278 1.1 3.634-0.02138 1.315-0.3464 2.606-1.084 3.601-0.6954 0.8925-1.722 1.412-2.759 1.421-1.163-0.01641-2.171-0.5616-2.792-1.437-0.7749-1.077-1.06-2.379-1.066-3.583 0.026-1.314 0.3309-2.626 1.083-3.618 0.6971-0.9365 1.748-1.378 2.823-1.371 1.074 0.00592 2.07 0.4815 2.694 1.353z" style="fill:url(#linearGradient4622);stroke-width:.925;stroke:url(#linearGradient4622)"/>
 <path id="rpO" d="m28 6.85c0 0.9693 0.1464 1.848 0.4398 2.638 0.5464 1.539 1.646 2.706 3.047 3.314 1.549 0.5912 3.195 0.5967 4.654-0.03361 1.449-0.6307 2.557-1.906 3.063-3.332 0.5746-1.481 0.5829-3.418 0.08487-4.988-0.4798-1.608-1.524-2.832-2.91-3.466-1.609-0.6583-3.212-0.7076-4.768-0.08129-1.556 0.6264-2.556 1.809-3.001 2.913-0.446 1.104-0.6096 2.01-0.6096 3.036zm9.679 0c-0.02138 1.315-0.3464 2.606-1.084 3.601-1.735 1.986-4.199 1.822-5.55-0.01655-0.7749-1.077-1.06-2.379-1.066-3.583 0.026-1.314 0.3309-2.626 1.083-3.618 0.6971-0.9365 1.748-1.378 2.823-1.371 1.075 0.00637 2.07 0.4815 2.787 1.451 0.7169 0.9694 1.014 2.203 1.008 3.536z" style="fill:url(#linearGradient4626);stroke-width:.4535;stroke:url(#linearGradient4626)"/>
 <path id="rbO" d="m31.65 0.8945c-1.567 0.6517-2.669 1.902-3.159 3.24-0.7107 1.776-0.5944 3.863-0.05121 5.349 0.5743 1.519 1.674 2.711 3.042 3.307 1.562 0.584 3.151 0.6097 4.646-0.03357 1.554-0.6538 2.53-1.946 3.059-3.325 0.5886-1.548 0.5815-3.412 0.08454-4.979-0.4951-1.549-1.418-2.765-2.907-3.46-1.771-0.665-3.25-0.6766-4.716-0.09895zm3.685 1.317c1.187 0.6376 1.707 1.585 2.026 2.599 0.3638 1.365 0.3936 2.772 0 4.05-0.36 1.179-1.043 2.115-2.01 2.633-1.026 0.5335-2.183 0.4733-3.108 0-1.04-0.5999-1.682-1.626-2.01-2.65-0.3421-1.351-0.3718-2.754 0.01691-4.016 0.3562-1.114 0.9551-2.038 2.01-2.599 1.038-0.4633 2.034-0.5179 3.073-0.01716z" style="fill:url(#linearGradient4630);stroke-width:.1273"/>
 <path id="rsS" d="m21.68 0.7747c-0.8701 0.3008-1.51 0.8753-1.862 1.607-0.4008 0.9757-0.3368 2.067 0.1689 2.857 0.2821 0.4284 0.632 0.8004 1.049 1.116 0.8851 0.6447 1.869 1.033 2.743 1.572 0.4287 0.248 0.7842 0.5299 1.066 0.8455 0.4653 0.5724 0.5341 1.333 0.2539 1.927-0.2631 0.5237-0.6873 0.8626-1.218 1.031-0.8132 0.2685-1.66 0.1399-2.386 0-0.519-0.1014-1.049-0.276-1.59-0.5238l-0.4909 1.234c0.6318 0.3044 1.269 0.5128 1.912 0.6255 0.6432 0.124 1.207 0.186 1.692 0.186 0.6432 0 1.219-0.08451 1.726-0.2535 0.9437-0.3043 1.679-0.8826 2.081-1.741 0.1918-0.4057 0.2879-0.8397 0.2879-1.303 0-0.6425-0.1409-1.183-0.4231-1.623-0.282-0.451-0.6376-0.8399-1.066-1.167-0.4288-0.3381-0.8912-0.6311-1.388-0.8789-0.8786-0.4872-1.785-0.9197-2.454-1.607-0.2821-0.3044-0.4231-0.6704-0.4231-1.099 0-0.4621 0.1633-0.8569 0.4906-1.184 0.3273-0.3269 0.7897-0.5032 1.388-0.5032 0.3273 0 0.6939 0.04111 1.1 0.09748 0.4175 0.04512 0.8745 0.1411 1.371 0.2876l0.5076-1.217c-0.6206-0.1916-1.173-0.3268-1.659-0.4057-0.9824-0.1387-1.956-0.1918-2.877 0.1192z" style="fill:url(#linearGradient4622);stroke-width:.925;stroke:url(#linearGradient4622)"/>
 <path id="rpS" d="m20.56 1.401c-0.7122 0.6073-0.9931 1.436-0.9988 2.249 0 0.6312 0.1409 1.161 0.4231 1.589 0.2821 0.4284 0.632 0.8004 1.049 1.116 0.8851 0.6447 1.869 1.033 2.743 1.572 0.7919 0.4558 1.487 1.054 1.49 2.012-0.01885 0.6199-0.2646 1.045-0.6429 1.387-0.5167 0.3996-1.119 0.5634-1.743 0.5579-0.406 0-0.8689-0.05075-1.388-0.1523-0.519-0.1014-1.049-0.276-1.59-0.5238l-0.4909 1.234c0.6318 0.3044 1.269 0.5128 1.912 0.6255 1.189 0.2423 2.371 0.2726 3.418-0.06747 0.9402-0.3165 1.699-0.9248 2.081-1.741 0.4367-0.9322 0.3773-2.109-0.1352-2.926-0.282-0.4509-0.6376-0.8399-1.066-1.167-0.4288-0.3381-0.8912-0.6311-1.388-0.8789-0.8786-0.4872-1.785-0.9197-2.454-1.607-0.2821-0.3044-0.4231-0.6704-0.4231-1.099 0-0.4621 0.1633-0.8569 0.4906-1.184 0.751-0.6594 1.637-0.5229 2.488-0.4058 0.4175 0.04512 0.8745 0.1411 1.371 0.2876l0.5076-1.217c-0.6206-0.1916-1.173-0.3268-1.659-0.4057-0.4852-0.07888-0.9758-0.1184-1.478-0.118-0.9621 0.02777-1.839 0.28-2.516 0.8628z" style="fill:url(#linearGradient4626);stroke-width:.5042;stroke:url(#linearGradient4626)"/>
 <path id="rbS" d="m21.68 0.7747c-0.8728 0.2951-1.504 0.8448-1.862 1.607-0.3908 0.9214-0.3367 2.067 0.1692 2.857 0.2823 0.4284 0.632 0.8004 1.049 1.116 0.9535 0.6942 1.827 0.9945 2.743 1.572 0.4288 0.248 0.7844 0.5298 1.066 0.8454 0.5142 0.5748 0.5074 1.454 0.2536 1.927-0.3011 0.6-0.723 0.8569-1.219 1.031-0.7711 0.2628-1.628 0.1372-2.385 0-0.5191-0.1014-1.049-0.2759-1.59-0.5238l-0.4911 1.234c0.632 0.3044 1.27 0.5128 1.913 0.6256 1.176 0.2374 2.295 0.2856 3.421-0.06773 0.9425-0.3475 1.669-0.8599 2.081-1.741 0.1918-0.4057 0.2879-0.8397 0.2879-1.303 0-0.6425-0.1408-1.183-0.4231-1.623-0.62-0.9799-1.535-1.582-2.455-2.045-0.8786-0.4873-1.763-0.8982-2.455-1.607-0.6437-0.722-0.4972-1.759 0.06785-2.282 0.3273-0.3269 0.7898-0.4905 1.388-0.4905 0.8576 0.01677 1.715 0.1416 2.472 0.3723l0.5076-1.218c-0.6208-0.1916-1.174-0.3267-1.66-0.4055-0.5026-0.05417-1.02-0.1155-1.501-0.1163-0.4807-7.9e-4 -0.949 0.07804-1.378 0.2358z" style="fill:url(#linearGradient4630);stroke-width:.1273"/>
 <path id="rsR" d="m3.197 0.764c-0.9516 0.05396-1.855 0.1958-2.707 0.3548v12.14h1.844v-11.01c0.5797-0.1198 1.219-0.1352 1.743-0.1356 0.6887 0.02415 1.367 0.2427 1.862 0.6596 0.4719 0.4315 0.7732 1.032 0.7785 1.623-0.01758 0.63-0.2936 1.206-0.7107 1.605-0.2031 0.2029-0.4403 0.3664-0.7108 0.4904-0.2708 0.1127-0.4012 0.2253-0.672 0.2366-0.361 0.02251-0.6657 0.1774-0.914 0.4142s-0.3837 0.3748-0.5078 0.6678c0.2595 0.06762 0.4527 0.07601 0.6896 0.09852 0.2483 0.02251 0.4836 0.02703 0.698 0.01576 0.1074 0.00655 0.226-0.00504 0.3216-0.01686 0.406 0.1916 0.582 0.5733 0.8075 0.9676 0.2257 0.3945 0.4119 0.8397 0.5584 1.336 0.158 0.4846 0.2989 0.9974 0.4231 1.539 0.1241 0.5297 0.2991 1.031 0.5247 1.505h1.912c-0.2708-0.5862-0.4794-1.166-0.6261-1.741-0.1353-0.5862-0.2879-1.133-0.4572-1.64-0.1692-0.5185-0.3834-0.9752-0.643-1.37-0.2483-0.4057-0.615-0.7266-1.1-0.9635l0.4231-0.1525c0.5755-0.2931 1.038-0.693 1.388-1.2 0.6349-0.9968 0.6784-2.241 0.1857-3.246-0.5031-0.9941-1.44-1.618-2.386-1.927-0.9318-0.2618-1.834-0.3232-2.726-0.2534l3.819e-4 1e-5z" style="fill:url(#linearGradient4622);stroke-width:.925;stroke:url(#linearGradient4622)"/>
 <path id="rpR" d="m3.174 0.764c-0.9516 0.05396-1.855 0.1958-2.707 0.3548v12.14h1.844v-11.01c0.5797-0.1198 1.219-0.1352 1.743-0.1356 0.6887 0.02415 1.367 0.2427 1.862 0.6596 0.4719 0.4315 0.8126 1.02 0.7785 1.623 0.02178 0.692-0.2598 1.245-0.7107 1.605-0.3941 0.4443-0.9509 0.6507-1.472 0.6764-0.361 0.02251-0.6657 0.1521-0.914 0.3887-0.2483 0.2366-0.4347 0.5016-0.5587 0.7947 0.2595 0.06762 0.5081 0.1128 0.745 0.1353 0.2483 0.02251 0.4793 0.02814 0.6937 0.01687 0.1074 0.00655 0.226-0.00504 0.3216-0.01687 0.406 0.1916 0.671 0.4845 0.8967 0.8789 0.2257 0.3945 0.4119 0.8397 0.5584 1.336 0.158 0.4846 0.2989 0.9974 0.4231 1.539 0.1241 0.5297 0.2991 1.031 0.5247 1.505h1.912c-0.2708-0.5862-0.4794-1.166-0.6261-1.741-0.1353-0.5862-0.2879-1.133-0.4572-1.64-0.1692-0.5185-0.3834-0.9752-0.643-1.37-0.2483-0.4057-0.615-0.7266-1.1-0.9635l0.4231-0.1525c0.5979-0.2594 1.004-0.62 1.388-1.2 0.3498-0.5185 0.5432-0.9967 0.5243-1.792 0.03577-0.6537-0.1129-1.003-0.3386-1.454-0.5031-1.039-1.44-1.618-2.386-1.927-0.9318-0.2618-1.834-0.3232-2.726-0.2534z" style="fill:url(#linearGradient4626);stroke-width:.4535;stroke:url(#linearGradient4626)"/>
 <path id="rbR" d="m0.4905 1.124v12.14h1.846v-11.01c0.5797-0.1197 1.22-0.1351 1.743-0.1355 0.361 0 0.6999 0.06184 1.016 0.1858 0.9702 0.3522 1.613 1.165 1.626 2.096-0.005118 0.9718-0.6923 1.745-1.422 2.096-0.2708 0.1127-0.5414 0.1748-0.8122 0.1861-0.361 0.02251-0.6658 0.1521-0.9141 0.3889-0.2483 0.2366-0.4348 0.5013-0.5588 0.7944 0.2595 0.06762 0.5081 0.113 0.745 0.1355 0.3071 0.02884 0.5575 0.01669 0.8463 0.01669 0.05643 0 0.1129-0.00533 0.1694-0.01669 0.4063 0.1916 0.7223 0.4844 0.9481 0.8789 0.492 0.927 0.7645 1.934 0.9816 2.875 0.1241 0.5297 0.2991 1.031 0.5247 1.505h1.913c-0.2709-0.5862-0.4797-1.166-0.6264-1.741-0.2679-1.064-0.5344-2.137-1.1-3.01-0.2483-0.4057-0.6152-0.7266-1.1-0.9633l0.4233-0.1528c0.5756-0.2931 1.038-0.693 1.388-1.2 0.6507-0.9809 0.6783-2.24 0.1858-3.246-0.503-0.994-1.44-1.618-2.386-1.927-0.5528-0.1916-1.168-0.2875-1.846-0.2875-1.222 0.04474-2.47 0.1698-3.588 0.3898z" style="fill:url(#linearGradient4630);stroke-width:.1273"/>
 <path id="rsU" d="m48.61 0.7417 0.02553 7.685c0.01916 1.319 0.391 2.609 1.235 3.516 0.9497 0.9355 2.132 1.327 3.436 1.301 1.394 2e-3 2.52-0.4633 3.366-1.319 0.9507-0.9184 1.28-2.295 1.286-3.499v-7.685h-1.81v7.955c-0.06013 0.9313-0.2482 1.729-0.7958 2.333-0.556 0.5789-1.324 0.8403-2.048 0.8452-0.9423 0.02562-1.548-0.3141-2.065-0.8452-0.5644-0.675-0.8141-1.497-0.7786-2.333l-0.02552-7.955z" style="fill:url(#linearGradient4622);stroke-width:.925;stroke:url(#linearGradient4622)"/>
 <path id="rpU" d="m48.61 0.7417 0.02553 7.685c0.002472 0.744 0.1072 1.415 0.3217 2.011 0.2143 0.5862 0.5187 1.087 0.9137 1.505 0.406 0.4171 0.8971 0.7386 1.472 0.964 0.5755 0.2254 1.23 0.3378 1.964 0.3378 0.6994 0 1.332-0.1125 1.894-0.3378 0.5755-0.2366 1.066-0.5638 1.472-0.9809 0.406-0.4283 0.7222-0.9356 0.9477-1.521 0.2257-0.5975 0.3386-1.257 0.3386-1.978v-7.685h-1.81v7.955c0.03334 1.72-1.135 3.24-2.843 3.179-0.8072-0.00618-1.548-0.3141-2.065-0.8452-0.5644-0.675-0.7744-1.544-0.7786-2.333l-0.02552-7.955z" style="fill:url(#linearGradient4626);stroke-width:.4535;stroke:url(#linearGradient4626)"/>
 <path id="rbU" d="m48.59 0.729v7.71c0.017 1.502 0.3915 2.612 1.236 3.517 1.1 1.033 2.288 1.295 3.474 1.303 1.444 0.00114 2.521-0.4623 3.367-1.319 1.01-1.066 1.28-2.294 1.286-3.499v-7.71h-1.85v7.98c-0.01261 0.9207-0.2482 1.729-0.7959 2.333-0.581 0.6415-1.232 0.8252-2.01 0.8453-0.8075-0.00613-1.479-0.2456-2.065-0.8453-0.6177-0.7359-0.7742-1.544-0.7784-2.333v-7.98z" style="fill:url(#linearGradient4630);stroke-width:.1273"/>
 <path id="rsL" d="m40.91 0.9582v12.29h6.786c-0.01284-0.4582 0.01647-0.9674 0.01688-1.387h-4.942v-10.91z" style="fill:url(#linearGradient4622);stroke-width:.925;stroke:url(#linearGradient4622)"/>
 <path id="rpL" d="m40.91 0.9582v12.29h6.786c-0.01284-0.4582 0.01647-0.9674 0.01688-1.387h-4.942v-10.91z" style="fill:url(#linearGradient4626);stroke-width:.4535;stroke:url(#linearGradient4626)"/>
 <path id="rbL" d="m40.91 0.9582v12.3h6.788c-0.01291-0.4582 0.01655-0.9674 0.01696-1.387h-4.943v-10.92z" style="fill:url(#linearGradient4630);stroke-width:.1273"/>
 <path id="rsT" d="m59.15 0.9582v1.37h3.47v10.92h1.861v-10.92h3.487v-1.37z" style="fill:url(#linearGradient4622);stroke-width:.925;stroke:url(#linearGradient4622)"/>
 <path id="rpT" d="m59.15 0.9582v1.37h3.47v10.92h1.861v-10.92h3.487v-1.37z" style="fill:url(#linearGradient4626);stroke-width:.4535;stroke:url(#linearGradient4626)"/>
 <path id="rbT" d="m59.15 0.9582v1.37h3.469v10.92h1.862v-10.92h3.487v-1.37z" style="fill:url(#linearGradient4630);stroke-width:.1273"/>
 <path id="rs2E" d="m69.17 0.9582v12.29h7.379v-1.37h-5.533v-9.553h5.28v-1.369zm4.47 5.25c-0.2143 0-0.4058-0.01137-0.5751 0.06757-0.158 0.07888-0.2991 0.1551-0.4231 0.2791-0.2295 0.2517-0.4293 0.5586-0.5247 0.8368h3.908v-1.183z" style="fill:url(#linearGradient4622);stroke-width:.925;stroke:url(#linearGradient4622)"/>
 <path id="rp2E" d="m69.17 0.9582v12.29h7.379v-1.37h-5.533v-9.553h5.28v-1.369zm4.356 5.173c-0.2143 0-0.4057 0.03941-0.5751 0.1184-0.548 0.2542-0.772 0.686-0.9478 1.217h4.087v-1.336z" style="fill:url(#linearGradient9323);stroke-width:.4535;stroke:url(#linearGradient4626)"/>
 <path id="rb2E" d="m69.17 0.9582v12.29h7.381v-1.369h-5.533v-9.553h5.282v-1.369zm4.356 5.148c-0.2143 0-0.4317 0.0648-0.6009 0.1438-0.5149 0.2753-0.7634 0.6837-0.9482 1.243h4.127l-4.7e-5 -1.387z" style="fill:url(#linearGradient4630);stroke-width:.1273"/>
 <path id="rs1E" d="m10.67 0.9582v12.29h7.379v-1.37h-5.533v-9.553h5.28v-1.369zm4.47 5.25c-0.2143 0-0.4058-0.01137-0.5751 0.06757-0.158 0.07888-0.2991 0.1551-0.4231 0.2791-0.2295 0.2517-0.4293 0.5586-0.5247 0.8368h3.908v-1.183z" style="fill:url(#linearGradient7643);stroke-width:.925;stroke:url(#linearGradient7643)"/>
 <path id="rp1E" d="m10.67 0.9582v12.29h7.379v-1.37h-5.533v-9.553h5.28v-1.369zm4.356 5.173c-0.2143 0-0.4057 0.03941-0.5751 0.1184-0.5086 0.245-0.9179 1.152-0.9478 1.217h4.087v-1.336z" style="fill:url(#linearGradient9323);stroke-width:.4535;stroke:url(#linearGradient4626)"/>
 <path id="rb1E" d="m10.73 0.9582v12.29h7.381v-1.369h-5.533v-9.553h5.282v-1.369zm4.356 5.173c-0.2143 0-0.4063 0.03939-0.5755 0.1183-0.5149 0.2753-0.7634 0.6583-0.9482 1.217h4.063v-1.336z" style="fill:url(#linearGradient4630);stroke-width:.1272"/>
</svg>
