<svg enable-background="new" height="99.857185" viewBox="0 0 72.778265 26.420546" width="275.06747" xmlns="http://www.w3.org/2000/svg"><path d="m65.120721 17.35984c-5.660801-3.284697-7.636962.286829-8.456875 3.916287.418244 2.954444 2.311262 4.367077 5.097457 4.845934 5.130606-1.307783 6.050453-5.453714 3.359418-8.762221z" fill="#f9f9f9" stroke-width=".02847372"/><path d="m67.024717 21.016612c.0572-3.464389-2.530296-5.43578-5.292613-5.443949-2.953973-.0087-5.501772 1.783749-5.554003 5.567402-.03494 2.530723 2.417199 5.211134 5.33283 5.279344 2.543975.05952 5.461278-2.222511 5.513786-5.402797zm-5.949329 4.624792c-.281151-.0257-.423881-.05338-.718597-.139336-.283972-.08282-.759687-.284162-.849851-.359684-.02337-.01957-.144475-.09698-.269121-.172021-.124647-.07504-.278967-.183795-.342936-.241686-.06397-.05789-.159578-.137687-.212464-.177325-.108895-.08162-.620228-.609819-.620228-.640691 0-.01108-.05099-.08329-.113316-.160473-.06232-.07718-.113313-.152376-.113313-.167107 0-.01473-.02966-.06715-.0659-.116488-.08176-.1113-.358229-.696201-.439763-.930387-.190682-.547676-.29541-1.415529-.236942-1.963479.109724-1.028328.604257-2.075847 1.337501-2.833089.253642-.261941.630048-.572714.870152-.718422.166159-.100835.744569-.3847.744569-.36541 0 .0095.01912.000969.04249-.01888.02337-.01985.04249-.02763.04249-.0173s.03776-.0012.08392-.02562c.04615-.02442.246931-.08535.446172-.1354.318484-.08.421205-.09232.850116-.101971.271045-.0061.573197.0029.679879.02034.180989.02952.634263.148871.758594.199742.03116.01275.107647.03935.169971.05911.16776.05318.587926.252871.787967.374487.652515.396697 1.225725.969969 1.583204 1.583375.311055.533747.539693 1.166214.618295 1.710355.01843.127553.04351.28812.05575.356817.05335.299481-.0057.990865-.126656 1.48399-.162354.661643-.372445 1.09939-.862611 1.797324-.219094.311962-.750249.798032-1.092786 1.00003-.255849.150875-.768413.409325-.938217.473075-.566024.212505-1.318029.294717-2.068373.226122zm.75448-.153677c.294374-.01732.637817-.07069.920674-.143071.155806-.03987.336557-.08618.401674-.102918.06511-.01673.144983-.0594.177486-.0948.05509-.06001.0564-.07221.01921-.180055-.03623-.105071-.157933-.353329-.230755-.470692-.01594-.02569-.09675-.170633-.179574-.3221-.08283-.151469-.200452-.36543-.261387-.47547-.06094-.11004-.110791-.216662-.110791-.236936 0-.02027-.0297-.07374-.066-.118806-.0363-.04507-.07458-.101512-.08506-.125428-.04192-.09565-.208274-.381304-.294532-.50576-.122833-.177234-.180382-.173392-.587909.03925-.555562.289884-.668333.403409-.751377.756403-.01313.0558-.102717.329751-.199091.608771-.191696.555012-.316469.99899-.304277 1.082724.02244.154132.939669.324899 1.551705.288892zm-1.274778-.190599c-.150754-.06991-.153508-.07322-.08499-.102048.100323-.04221.305889-.229841.35219-.321461.06746-.133498.379701-1.525643.349186-1.55687-.03012-.03082-.120191-.03403-.172749-.0062-.103825.05506-.03631-.07408.08064-.154232.159069-.109025.794248-.43172.849778-.43172.100056 0 .157416.07075.334539.412655.10131.195555.330251.611967.508758.925359.425577.747146.453347.807428.430194.933731-.02511.13694-.098.110102-.098-.03608 0-.07366-.02464-.137179-.08033-.207069-.08216-.103122-.193148-.306863-.528684-.970492-.401177-.793456-.480945-.913646-.60585-.912873-.0697.000433-.322832.129289-.377282.19206-.04541.05235-.19173.620269-.391101 1.518013-.0478.215243-.09427.41092-.103263.434836-.03611.09603-.03428.248095.0037.307398.02212.03455.0347.06846.02796.07536-.03007.03076-.353322-.03484-.494702-.100406zm-.899801-.347581c.02523-.01993.06072-.09494.07887-.166687.01815-.07175.0493-.150018.06922-.173934.01992-.02392.05861-.115232.08599-.202924.02737-.08769.06725-.180035.08862-.205206.02137-.02517.03885-.05676.03885-.0702 0-.03268.129956-.368883.215007-.556237.03755-.08272.06827-.15765.06827-.166514 0-.0089.09023-.233004.200518-.49809.138619-.333198.195358-.503005.183805-.550105-.02649-.108014-.142647-.197129-.392805-.30136-.127769-.05324-.315119-.135829-.416334-.183538-.172094-.08112-.193221-.08461-.325777-.05378-.223791.05204-.391913.0977-.453365.123127-.03116.01289-.09895.03195-.150631.04236-.05169.0104-.128173.03717-.169971.05949-.0418.02231-.108214.04065-.147593.04075-.03938.000085-.09675.0172-.127478.038-.05998.04059-.379544.176759-.493237.210164-.09988.02935-.402065.223432-.437576.281045-.04199.06812.02797.251912.241754.635038.392532.703483.856051 1.175133 1.600616 1.628699.199921.121786.183527.117074.24323.0699zm-.175329-.157735c-.0418-.03663-.04817-.05862-.02518-.08697.01692-.02087.04833-.03794.06979-.03794s.03902-.0034.03902-.0076.05864-.144403.13031-.311632c.07167-.16723.179329-.434505.239241-.593945.05991-.15944.193015-.498613.295788-.753717.102996-.255655.183155-.496327.178605-.536243-.009-.07878-.144969-.161332-.341841-.207507-.09223-.02163-.142924-.0095-.368268.08784-.143721.06211-.344172.142432-.445445.178497-.189059.06733-.306412.120625-.821526.373116-.400768.196444-.505428.274386-.509853.379697-.001.02392-.03426-.0087-.07391-.07247-.08592-.138221-.266514-.516539-.253116-.530249.0052-.0053.105832.01073.223658.03563.117828.02491.249242.04528.292032.04528s.394054-.140234.780593-.311632c.590647-.261906.701605-.32049.695345-.367139-.0041-.03053-.04859-.07619-.09887-.101462-.139078-.06991-.111276-.0975.08434-.0837.1425.01005.245187.0457.526173.182671.30758.14993.355611.183199.403679.27962.07124.142893.07011.155756-.03428.390386-.04886.109828-.124594.307472-.168293.43921-.0437.131737-.103934.275233-.133855.318879-.02992.04365-.07089.131537-.09103.195313-.02015.06378-.0715.194227-.114112.289891-.084.188579-.223056.521865-.282238.676466-.03364.08786-.09921.178712-.128986.178712-.0065 0-.037-.02206-.06777-.04903zm4.629455-.05932c.04625-.007.122738-.04065.169971-.07483.125836-.09106.512807-.465342.643873-.622754.207477-.249186.21436-.258922.426245-.602887.206156-.334662.502998-1.055421.502998-1.22132 0-.03083-.02868-.07123-.06374-.08978-.08538-.04517-.44325-.11913-.671938-.13886-.101745-.0088-.274229-.0361-.383293-.06073-.237896-.0537-.481989-.09215-.695826-.109601-.08667-.0071-.31975-.03948-.517955-.07202-.322399-.05293-.368866-.05467-.440963-.01651-.09817.05195-.107817.07491-.177145.421648-.08016.400884-.09378.729422-.03516.847698.170101.343188 1.098651 1.767812 1.144673 1.756205.0078-.002.05201-.0093.09826-.01626zm-.0508-.05568c-.01025-.01049-.0042-.03685.0134-.05858.021-.02589.02696-.12283.0173-.281288-.01353-.221903-.02375-.255077-.124351-.403461-.156349-.230614-.729835-.981715-.796258-1.042867-.07633-.07027-.134468-.03923-.166548.08892l-.02689.107452-.05354-.112361c-.04643-.09744-.04913-.129258-.02029-.239576.01829-.06997.03325-.181107.03325-.246975 0-.06587.02844-.23694.0632-.380159.08201-.3379.109015-.358575.411308-.314835.120749.01747.289656.03914.375349.04814.158885.0167.334325.04448.637389.100923.09349.01741.240085.04395.325777.05898.416257.07299.827069.166786.854812.195175.03665.03751.0079.134018-.03237.108565-.03682-.02329-.399423-.09377-.75162-.146099-.381066-.05662-1.030709-.17616-1.165544-.214472-.06008-.01707-.168323-.03111-.240538-.0312-.155246-.000192-.203001.0548-.267439.307964-.05561.218473-.05492.221919.07544.376048.06368.0753.2274.288075.363809.472836.136411.184761.281499.375064.32242.422896.223786.261587.333896.399537.414017.518704.102211.152023.177565.202846.260714.175841.116861-.03796.03936.07333-.201974.290019-.233458.20962-.281593.239539-.320808.199408zm-2.242912-2.320722c.03116-.0077.09172-.04774.134562-.08903.114548-.110393.109542-.282974-.0123-.4238-.171827-.198607-.423884-.10272-.506695.192757-.03264.116469.02808.232329.153754.293355.09909.04812.12947.05164.230675.02672zm-.948999-.435738c.09113-.01669.130438-.05092.183547-.159861.05416-.111105.05524-.251713.0025-.32873-.06224-.09093-.250397-.138991-.370365-.0946-.170065.06293-.213937.337217-.07775.486086.08447.09234.151802.117287.26204.0971zm-3.15862-.106391c.198403-.0428.767451-.209806.849853-.249415.03116-.01498.266996-.08724.524076-.160586.754681-.215306.963166-.32461.963166-.504963 0-.09015-.113965-.587456-.172878-.75439-.07251-.205462-.150627-.299071-.377567-.452426-.125723-.08496-.27958-.192709-.341901-.239449-.210386-.157783-.706644-.460224-.952269-.580352-.189968-.09291-.263739-.115333-.332858-.101187-.04884.01-.0888.03507-.0888.05572s-.04392.126645-.09759.235537c-.152016.308376-.320152.884912-.38323 1.314065-.05397.367194-.03587 1.31542.0271 1.419679.03135.05191.190408.05929.382907.01776zm-.195982-.09255c-.02465-.0097-.04481-.04042-.04481-.06831 0-.04164.03528-.05407.197167-.06947.108447-.01031.226362-.03087.26204-.04568.0685-.02844.131906-.04724.787242-.233448 1.048848-.298018 1.104807-.322115 1.104807-.475755 0-.05161-.01933-.160471-.04297-.241914l-.04297-.148078-.304052-.15424c-.167229-.08483-.406033-.213607-.530679-.286168-.124645-.07256-.412358-.225877-.639365-.340703-.334381-.169139-.437909-.208775-.545322-.208775-.07292 0-.132585-.01212-.132585-.02694 0-.05753.253306-.581827.281102-.581827.01619 0 .03796.03587.04839.07972.01042.04385.05387.15799.09655.253654.09356.20971.132086.235766.943122.637821.611035.302909.642156.308136.642156.107853 0-.100569.001-.101464.05665-.04994.03116.02886.05666.06478.05666.07983s.0186.06847.04133.118711c.105438.233005.188307.514283.204375.693701.01603.178959.01173.202903-.04817.268149-.03617.0394-.07756.07164-.09196.07164-.01441 0-.06636.01779-.115459.03954-.0491.02174-.248614.08223-.44337.13441-.194758.05218-.366854.104388-.382433.116015-.01558.01163-.0602.02764-.09915.03557-.104417.02128-.769763.222692-.835689.252973-.03116.01431-.07578.03247-.09915.04035-.06203.02091-.271377.02176-.32346.0013zm5.153454.01376c.09404-.04796.164959-.170899.160985-.279054-.0052-.140192-.08866-.273941-.188021-.301133-.101134-.02768-.30699.05663-.352973.144551-.08632.165043.01.387117.190013.43829.122172.03472.116566.0348.189996-.0027zm3.265465-.32172c.09027-.04452.10128-.119421.08364-.569039-.01488-.379251-.0755-.759817-.179855-1.1292-.07247-.256509-.258704-.730794-.331673-.844672-.03627-.0566-.101662-.16162-.145314-.233368-.09031-.148428-.206057-.258326-.273692-.259859-.04227-.000957-.200443.129349-.537685.442955-.07174.06671-.184476.166948-.250528.222752-.164051.138597-.229979.202571-.31373.304434-.0393.04781-.198116.204324-.352914.34782-.154796.143496-.350384.330613-.43464.415815-.140814.142398-.151885.163144-.137041.256763.017.107185.02452.118125.353497.514099.241532.290722.282086.321623.497379.379008.162599.04334.212169.04894.889042.100422.206576.01571.455158.04178.552404.05793.226315.03758.498586.03484.581109-.0059zm-.119937-.222431c-.234227-.231694-.237031-.232259-1.073236-.21632-.40747.0078-.771426.02058-.808789.02848-.0671.01418-.06659.01576.04116.128685.11855.124239.115011.135306-.02371.07412-.165552-.07302-.601337-.543646-.712105-.769045-.100094-.203673-.09891-.206202.245576-.526089.175294-.162776.438016-.407503.583825-.543838.145812-.136334.311534-.283032.36827-.325995.05674-.04296.154151-.128628.216475-.190368.26369-.261226.409114-.335227.449118-.228542.0092.02444-.01433.05024-.06133.06735-.07137.02599-.291053.221379-.651458.579413-.08492.08436-.187809.171156-.228649.192884-.04084.02173-.139894.109248-.220117.19449-.08022.08524-.194147.194121-.253161.241952-.219635.17802-.380009.341808-.380009.388101 0 .06625.247363.349332.33707.38574.114253.04637 2.024366.04989 2.182838.004.06939-.02008.131734-.03081.138553-.02383.0172.0176.02745.571134.0114.615702-.01965.05457-.03729.04618-.161721-.07691zm-5.010186-.28389c.08752-.01743.207445-.189831.207445-.298203 0-.111015-.067-.249509-.140071-.289526-.181599-.09945-.454825.06652-.454825.276291 0 .1018.07475.225965.171098.284207.07844.04742.100859.05024.216353.02723zm1.847134-.275212c.12507-.130909.123987-.285034-.0029-.406285-.08156-.07797-.10576-.08575-.228991-.07363-.186848.01837-.255819.09142-.255819.270928 0 .116922.01299.148471.09015.219029.129328.118249.278544.11448.397512-.01004zm-.989273-.356266c.09301-.04856.130291-.08984.159759-.176911.04825-.142572.03402-.188658-.0937-.303411-.08797-.07905-.117903-.08981-.213306-.07672-.128065.01758-.197732.07326-.26019.207949-.04122.08888-.04038.104662.01193.225693.04736.109562.07347.1346.165213.15843.09139.02374.128533.01809.230287-.03503zm-.976838-.553263c.04639-.02475.0937-.06055.105151-.07954.03485-.05785.371179-.536151.468247-.665919.08943-.119556.09092-.126544.07789-.366249-.0073-.134402-.02632-.323658-.04224-.420569-.01593-.09691-.03302-.260994-.03799-.36463-.005-.103636-.01711-.207997-.02699-.231913-.0099-.02392-.02442-.108709-.03231-.188429-.01498-.151367-.08151-.502-.130637-.68849-.02522-.09575-.03947-.109119-.119566-.112142-.05001-.0019-.09991-.0021-.11089-.00044-.01098.0016-.06473.0087-.119455.01562-.05472.0069-.110372.01951-.123668.02792-.01329.0084-.05515.02123-.09301.02849-.115385.02214-.715754.257266-.791211.309869-.03895.02716-.137214.0836-.218362.125439-.08115.04184-.202252.11573-.269122.164208-.06686.04848-.166195.118417-.220726.155419-.05453.037-.220254.183201-.36827.324888-.32085.307131-.343237.373592-.177223.526137.05639.05182.113572.09422.127064.09422.0135 0 .05272.03112.08716.06915s.102552.09347.151349.123204c.0488.02973.191307.129386.316684.221459.125377.09207.298363.209478.384419.260901.08605.05142.3171.210903.513432.354399.317036.231714.508811.357111.551774.360793.0078.000666.05212-.01904.0985-.04379zm-.272933-.116441c-.04765-.02521-.160528-.100223-.250844-.166687-.09031-.06646-.244736-.179546-.343158-.251294-.09842-.07175-.222695-.169586-.27616-.217418-.05346-.04783-.139764-.113058-.191777-.144945-.241938-.148328-.777664-.545301-.804091-.595832-.02058-.03935-.02033-.07397.000812-.114401.03851-.07365.0861-.07435.104709-.0016.0079.03103.131025.143573.273546.250095.142525.106522.271881.20958.287464.229018.01558.01944.07175.0583.124817.08636.05307.02806.110435.06239.127478.07627.09587.07813.431183.325651.626765.462675.12416.08699.232122.16643.23991.17654.0078.01011.06176.04564.11994.07896l.105775.06058.106042-.117285c.23548-.260441.239046-.280111.137737-.759168-.03781-.178793-.08443-.442484-.103588-.58598-.01916-.143496-.04532-.274956-.05814-.292132-.01281-.01718-.03629-.12493-.05216-.239452s-.04025-.23092-.05417-.258661c-.01392-.02774-.04647-.125448-.07233-.217126-.02586-.09168-.05668-.166687-.06848-.166687-.01181 0-.0458-.01821-.07554-.04046-.05093-.03811-.04755-.0433.05833-.08941.06182-.02692.137891-.05386.169051-.05986.16905-.03254.397851-.06402.406254-.05591.0053.0051-.0074.04118-.02833.0801-.19789.36871-.20031.375602-.184524.525908.03674.349828.104201.764644.142158.874117.02258.06513.0555.215147.07316.333375.02939.196835.07594.287433.147667.287433.01181 0 .06031-.0424.107767-.09421l.08629-.09421-.000017.115957c-.000011.06378-.02226.150318-.04945.192315-.504459.779355-.59489.858934-.832916.732975zm2.791095-.239233c.23566-.210964.883215-.861208.928176-.932034.02545-.0401.117875-.148801.20538-.241566.08751-.09276.159099-.178797.159099-.191183 0-.01239.0255-.04613.05666-.07499.09384-.08691.06998-.167575-.09524-.321922-.642645-.600363-1.630656-1.016842-2.457283-1.035822l-.206555-.0047-.02518.115956c-.02612.120275-.02255.213584.05441 1.420465.02542.3986.04492.829088.04335.95664-.0021.16741.01066.258466.04579.327381l.04866.09547.562855-.0044.562854-.0044zm-1.19659-.03006c-.05741-.05875-.07418-.207714-.103227-.916897-.0085-.207272-.02745-.63776-.04214-.95664-.026-.564532-.01974-.70564.03171-.71458.08951-.01555.09592-.0049.09821.163788.0041.301314.06712 1.351899.0965 1.608894.0155.135524.02827.345876.02839.467449l.000235.221042.08852.01812c.190547.039.296975.02081.408394-.0698.05946-.04836.127592-.116843.151396-.152193.05838-.0867.409819-.490718.598053-.687538.290385-.303629.618035-.752005.638028-.873126.01022-.06188.02976-.112503.04343-.112503s.06841.03914.121646.08697c.05324.04783.10951.08697.125052.08697.01554 0 .07501.05458.132153.121288.08734.10196.09687.125308.05984.146514-.02422.01388-.05617.01756-.07099.0082-.01482-.0094-.110661.0058-.212979.03368-.176266.04806-.195473.06219-.365936.269128-.09895.120121-.261632.329285-.361523.464809-.09989.135524-.20291.272497-.228927.304385-.143627.17603-.219662.287787-.219662.322866 0 .04523.133075.05333.196947.01198.02263-.01465.05075-.02055.0625-.01312.04564.02886-.01841.107866-.129189.15935-.09863.04584-.189601.05405-.604758.05459-.440154.000575-.493929-.0047-.541668-.0536z" fill="#020202" stroke-width=".02865685"/><path d="m21.763268 20.943432a5.4239578 5.4239593 0 0 1 -5.423958 5.423959 5.4239578 5.4239593 0 0 1 -5.423958-5.423959 5.4239578 5.4239593 0 0 1  5.423958-5.423959 5.4239578 5.4239593 0 0 1  5.423958 5.423959z"/><path d="m1097.8793 249.30095c-4.2322-118.62385 85.3026-219.987623 214.5876-224.124343 126.2259-4.03883 228.0271 101.487243 226.6807 227.839803-1.1856 111.25744-92.2194 214.15874-221.4877 214.97745-127.6275.80831-215.344-94.34064-219.7806-218.69291zm345.9117 172.79144c182.2753-151.94562 55.146-394.80868-123.0798-392.64082-171.1627 5.539184-240.5959 149.33129-213.6965 271.47143 28.8565 90.9148 62.4291 115.85524 137.2098 152.71596 83.437 24.24251 137.479 8.18767 199.5665-31.54657zm-199.9623 23.42008c-3.0491-.78363-6.7891-2.7813-8.3111-4.43926-2.58-2.81026-2.641-3.38146-.8998-8.4314 19.7534-39.09469 35.5547-70.28095 57.5079-105.60345 5.7519-8.2993 8.4468-8.11939 27.5299 1.83784 26.0153 13.57434 31.296 18.89035 35.1846 35.41995 8.1521 26.32343 17.7792 51.06531 23.5711 79.20731-38.2658 21.76993-90.6048 13.28279-134.5826 2.00901zm125.5946-2.18488c-4.6978-1.97654-14.3238-10.76268-16.4919-15.05299-3.159-6.25129-17.7802-71.44096-16.3513-72.90323 1.4103-1.44311 5.6282-1.59359 8.0893-.28857 4.8619 2.57816 1.7003-3.46875-3.7761-7.22217-7.4487-5.10531-37.1921-20.21608-39.7924-20.21608-15.4391 6.21703-26.3577 39.56232-39.489 62.65492-19.9283 34.98648-21.2288 37.80927-20.1445 43.72366 1.1755 6.41247 4.5887 5.15572 4.5887-1.68961 0-3.44904 1.1539-6.42364 3.7614-9.69641 20.8014-29.79308 35.3835-85.64013 53.1266-88.19196 3.2641.0203 15.1173 6.05423 17.6669 8.99355 2.1265 2.45148 8.9782 29.04522 18.3141 71.0837 2.2384 10.07919 4.4143 19.24208 4.8355 20.36199 1.6907 4.49675 1.6051 11.61753-.1729 14.3945-1.0358 1.61776-1.625 3.2058-1.3092 3.52899 10.8077.61898 26.6012-9.06535 27.1448-9.48029zm38.1552-11.4975c-14.4269-41.05857-36.4857-83.65894-48.1926-121.27652 15.5163-15.90913 36.0849-23.96201 53.1445-25.22458 36.0535 10.70292 64.1985 16.24096 92.7102 37.22409 1.9663 3.18997-1.31 11.79622-11.3206 29.73679-18.381 32.94186-40.0861 55.02775-74.9518 76.26678-9.3617 5.70283-8.5939 5.4822-11.3897 3.27344zm9.3894-11.45866c-.7925-.97714-2.2632-1.77663-3.2683-1.77663-1.005 0-1.8273-.15971-1.8273-.35488 0-.19519-2.7459-6.76194-6.102-14.59276-12.1072-31.43101-24.1955-57.07634-33.4172-88.21725.4206-3.6891 6.7885-7.55463 16.0073-9.71686 4.3191-1.01302 6.6928-.44686 17.2449 4.11312 23.0599 8.83109 45.5638 19.08847 59.3282 25.83026 18.7667 9.19883 23.6676 12.84861 23.8748 17.77998 6.8856-5.6103 11.391-19.12224 15.3134-28.22354-.2427-.24846-4.9557.50246-10.4731 1.6687-5.5175 1.16624-11.6713 2.12045-13.6749 2.12045-2.0037 0-18.4523-6.56674-36.5527-14.59276-27.6581-12.26419-32.8539-15.00751-32.5608-17.19192.1918-1.42953 2.2753-3.56754 4.63-4.75112 6.5126-3.27373 5.2106-4.56581-3.9496-3.91948-6.6728.47081-11.4812 2.14014-24.6389 8.55389-14.403 7.02077-16.6521 8.57865-18.903 13.09374-3.3358 6.69121-3.2829 7.29354 1.6052 18.28052 12.2945 32.12629 24.2272 58.4201 36.9712 89.89616 1.575 4.11442 4.6455 8.36854 6.04 8.36854 3.7271-.22442 3.8846-5.68321 4.3528-6.36816zm-217.9618 1.29485c-2.1658-.32677-5.7475-1.90367-7.9592-3.50422-41.2149-30.4106-64.2227-70.71369-73.6641-114.58337 0-1.44358 1.3431-3.33531 2.9847-4.20384 41.704-7.38141 88.2712-19.40825 126.8995-18.62409 4.5971 2.43273 5.0487 3.50759 8.2952 19.74447 3.7534 18.77209 4.3914 34.1565 1.6463 39.69496-15.6811 27.9883-32.1363 56.52478-58.2024 81.47609zm1.7513-5.35032c-.9833-1.21236-1.2624-5.75172-.8101-13.1718.6335-10.39099 1.1123-11.94443 5.8231-18.8928 7.3212-10.79888 34.1758-45.97058 37.2861-48.8341 3.5744-3.29069 6.2967-1.83715 7.7989 4.16402l1.2594 5.03161 2.5072-5.26149c3.4211-12.88456-1.4124-27.40738-3.5659-40.58524-3.84-15.82279-5.1048-16.79097-19.2602-14.74275-35.1631 4.98412-72.6298 10.50034-102.7065 18.88138-1.7163 1.75632-.3689 6.27563 1.5156 5.08374 33.5152-5.94957 69.0941-14.5921 101.0384-18.34545 7.2697-.009 9.5058 2.56601 12.5232 14.42096 2.8716 17.49857-10.3041 26.04988-20.5687 39.75049-10.8098 15.10039-23.7389 29.87056-34.485 44.09215-4.7861 7.11873-8.3147 9.49864-12.2084 8.23405-5.4722-1.77733-1.843 3.43393 9.4578 13.58071 3.4297 4.01169 9.2326 5.49684 14.3951 6.59452zm99.3548-110.0981c-5.3639-5.16935-5.1295-13.25078.5757-19.84518 8.0461-9.30017 19.8492-4.81006 23.7269 9.02617-1.5222 17.08884-14.5265 19.77469-24.3026 10.81901zm50.7397-16.2353c-13.364-3.7061-15.3776-14.19226-8.7133-22.8792 2.9144-4.25802 11.7253-6.50847 17.3429-4.42972 12.0482 15.33475 5.2381 23.80257-8.6296 27.30892zm147.908-4.98197c-21.6612-5.14985-45.5234-13.81811-64.3367-19.19905-35.3392-10.0821-45.1019-15.20044-45.1019-23.64582 0-4.22125 5.3365-27.50866 8.0953-35.32567 3.3953-9.62114 7.0534-14.00453 17.6803-21.18565 26.9172-16.7305 58.8767-41.90754 76.1885-43.12694 5.8042 2.25947 6.0524 7.6875 9.4845 13.48762 15.1899 29.53794 25.4628 89.34598 15.9204 128.16378-1.4681 2.43087-8.9162 2.77636-17.9304.83173zm9.1773-4.33386c1.1541-.45317 2.0982-1.8926 2.0982-3.19873 0-1.94981-1.6521-2.53191-9.2327-3.25288-23.2508-4.16612-34.493-8.90974-49.1345-13.07088-49.1142-13.95521-51.7346-15.08363-51.7346-22.27807.4643-6.59028 2.2025-11.9474 4.0244-18.2621 24.5321-12.09332 45.7853-24.79117 69.0272-36.57694 15.6579-7.92024 20.5059-9.77628 25.5357-9.77628 3.4147 0 6.2084-.56774 6.2084-1.26167 0-2.69406-11.8614-27.24512-13.1631-27.24512-.758 0-1.7775 1.67987-2.2657 3.73304-.4881 2.05317-2.5227 7.39819-4.5212 11.87783-4.3811 9.82004-6.1852 11.04015-44.1634 29.86711-28.6129 14.18426-30.0702 14.42901-30.0702 5.0504 0-4.70932-.048-4.75124-2.653-2.33833-1.4592 1.35135-2.6531 3.03356-2.6531 3.73828 0 .7047-.871 3.20618-1.9355 5.55884-4.9373 10.9109-8.8178 24.08224-9.5702 32.48381-.7506 8.38007-.5491 9.50131 2.2557 12.55656 2.4899 3.41122 6.57 3.77485 9.7129 5.20615 30.8375 9.78908 60.0781 17.89255 87.0881 27.12779 2.9048.97931 12.7077 1.01891 15.1466.0612zm-240.0538-26.52387c9.8691-3.00717 14.3753 2.65158 16.5286 6.76891 4.0419 7.72844 2.5279 18.983-8.8978 20.52371-19.6957-3.07515-19.6473-19.17834-7.6308-27.29262zm-154.1774 12.10323c-9.0777-22.3417-2.8223-53.13477 4.5055-79.52314 8.7369-24.66676 15.9951-47.64375 35.1519-62.64953 30.3402 22.41504 61.8993 55.38799 88.479 81.18722 6.5939 6.66801 7.1124 7.63947 6.4172 12.02338-9.0863 18.5714-20.8237 32.81055-39.8438 41.82135-39.0092 4.70115-58.6269 8.74803-94.7098 7.14072zm5.6164-10.41584c10.968-10.84949 11.0993-10.87596 50.2561-10.12956 19.0805.3637 36.1234.96384 37.873 1.33363 3.142.66405 3.1183.73816-1.9274 6.02589-5.5513 5.81771-5.3855 6.33594 1.1104 3.47082 7.7524-3.41931 28.1587-25.45725 33.3457-36.01193 4.6871-9.53735 4.6317-9.6558-11.4995-24.6351-17.5256-17.07917-37.9965-34.62658-54.7204-49.64581-12.3478-12.23239-19.1576-15.69762-21.0309-10.70188-.4291 1.14428.6711 2.35254 2.8717 3.15387 27.0446 24.1737 56.5462 46.92152 81.1694 74.77489 0 3.10248-11.5832 16.35815-15.784 18.06301-5.35 2.1713-94.7946 2.33606-102.2153.18827-3.2491-.94039-6.1687-1.44253-6.4879-1.11584-.8055.82422-1.2854 26.74441-.5339 28.83135.9202 2.55511 1.7461 2.16232 7.573-3.60161zm224.8969-27.25758c0-5.19846 3.1375-11.68369 6.5592-13.55759 18.1074-4.48358 27.2407 16.13674 13.2859 26.24637-11.6439 4.50232-15.0738-3.17557-19.8451-12.68878zm-76.7813 1.07661c-5.8566-6.13004-5.806-13.34723.1337-19.02503 18.9142-10.38379 27.0059 5.57997 18.4805 19.49515-6.0561 5.53725-13.0433 5.36078-18.6142-.47012zm46.3244-16.68278c-11.0622-7.91325-7.1323-15.16602-3.0935-22.49199 14.4551-6.01857 24.0485 1.49058 21.6136 16.71371-5.5663 9.51984-11.4063 11.1189-18.5201 5.77828zm18.8918-60.8151c-4.1877-5.59844-4.2573-5.9257-3.647-17.1503 2.7655-30.10607 6.7715-62.134556 12.6512-88.691436 1.181-4.48379 1.8484-5.10966 5.5988-5.25125 34.0155-.0773 80.6417 29.76244 108.3906 53.91704 15.0244 14.381966 16.0726 17.494146 8.2988 24.637346-34.0755 23.27668-68.1717 50.06188-99.8293 69.49659-14.9839-7.33059-23.1907-25.32924-31.4631-36.95799zm39.6311 29.45498c31.3504-23.18493 57.0516-39.80903 87.3802-64.44194.9634-1.84238.9519-3.46387-.038-5.35703-1.8036-3.44858-4.0321-3.48177-4.9032-.073-29.3175 25.70013-60.4498 46.55989-89.2377 66.5179l-4.9656-5.49208c-11.0267-12.19564-11.1938-13.11671-6.4497-35.5494 5.3271-28.49843 9.4565-56.848816 19.146-82.416976.5529 0 2.1446-.85257 3.5371-1.89458 2.385-1.78459 2.2264-2.02767-2.7311-4.18692-2.8947-1.26077-6.457-2.5221-7.9161-2.80295-7.9161-1.52357-18.6302-2.99795-19.0237-2.61786-.2487.24026.3482 1.9282 1.3265 3.75097 9.2667 17.26553 9.3799 17.58823 8.6407 24.6266-1.348 19.05132-6.5359 38.667926-10.0825 56.542996-1.3763 9.21715-3.5558 13.45958-6.9147 13.45958-3.7769-2.50893-5.8351-5.38555-9.0871-8.82352-.8148 5.09912 1.1555 9.92131 2.3161 14.43537 23.6223 36.49469 27.8568 40.22116 39.0029 34.32287zm-193.8822-78.62251c-4.3943-4.069576-3.2768-7.846966 4.4598-15.074576 30.0929-28.11309 76.3583-47.61544 115.0667-48.50424l9.6722-.22209 1.1793 5.42986c-1.1701 46.45795-2.6036 73.340756-6.7219 126.642446l-2.2786 4.47048c-17.5712-.13873-35.1423-.27747-52.7135-.4162-25.3424-22.63728-49.2584-48.75617-68.664-72.32568zm119.2165 66.01227c2.6883-2.75094 3.4736-9.72656 4.8339-42.93534.3975-9.70588 1.2856-29.864246 1.9734-44.796386 1.2178-26.43526.9246-33.04288-1.4848-33.46153-4.1916-.72835-4.4914-.22818-4.5991 7.66968-.3288 39.22897-3.683 72.336476-5.8593 107.579196-8.822 3.07551-18.0564 1.46505-23.2692-2.4202-12.6414-12.17467-22.9897-26.58182-35.0942-39.32189-13.5979-14.21798-28.9406-35.214026-29.8769-40.885726-.4784-2.89747-1.3935-5.26812-2.0336-5.26812-10.1056 3.98435-17.1395 15.61653-20.5426 20.68512 1.1345.64971 2.6305.82216 3.3244.38324.6941-.43893 5.182.27086 9.9732 1.5773 8.254 2.250676 9.1533 2.912126 17.1355 12.602396 12.9929 16.80914 27.6326 34.59452 37.935 51.1377 0 2.11811-6.2314 2.49707-9.2224.56086-1.0595-.68591-2.3766-.96243-2.9267-.61446-2.1371 1.35161.8621 5.05105 6.0495 7.46185 4.6186 2.14642 8.8785 2.53096 28.3189 2.55629 20.611.0269 23.1291-.22234 25.3646-2.50998z" fill="#fff" stroke-width="1.34190869" transform="matrix(-.01945529 0 0 .01944644 41.990104 16.149269)"/><path d="m24.867402 1.698086c6.832123.1050845 14.394071-.067168 20.147418 1.0153084 3.636806 1.1668936 7.023553 3.5529426 9.264725 6.2822155-1.389011.4459595-20.771506-.6345748-31.157215-.9518585.351778-2.1407683 1.164823-4.5680572 1.745072-6.3456654zm2.046476 7.8210503c.717375.1419262 1.304687.1282869 1.824319.4679854-.06256.2117493-.796622.2556123-1.871912.2141663-.67742-.09497-1.55841-.108494-2.03067-.2855475.600733-.3104367 1.334487-.3109581 2.078263-.3966042zm43.730279 1.3910907c.858783 1.37142 1.190871 2.655053 1.462563 3.928618-.08247.235463-1.420225.165828-1.53563-.05022-.869247-.981441-1.401108-2.998661-1.401108-2.998661-1.893103-.68643-2.99135-.847933-3.693625-1.687349 2.270663-.4070818 4.181205.482433 5.1678.807613zm-29.531875-.9310367c.62762.1129327 1.446184.077354 1.808513.3966067l-1.776814.396605-2.094113-.333155c.595259-.314694 1.340492-.36696 2.062414-.4600567zm-16.134773 4.4517647 28.955556 1.051657-.210281 1.822867-29.937117-1.472317zm.671504 5.845516c4.473162-.0065 9.049412.218558 13.6397.198982 4.909529-.02094 9.994859.02679 14.803906.530539-.0071.08619-.02252.112085-.134345.20643l.140526-.01683c-5.944953.08153-10.514536-.244421-17.618307-.365233-4.08037-.135753-8.239633-.05204-12.240888-.407274.0128-.08829.0234-.123734.02914-.136649.45906-.0061.919356-.0093 1.380712-.01zm-1.380755.01h-.0044c.0044.000268.0044 0 .0044-.00053-.000133.000169-.000177.000276-.000265.00053zm.00022-.00053c.0057-.01233.0062-.0025 0 0zm-17.5450628-18.9965232c.3758833-.83643227 1.3723229-.87330406 2.1846177-1.09847779 8.7781601.11105159 17.4787961-.01048094 26.3345261.33314814 1.343052.1948439 2.600147.43242743 3.689476.83871475-1.17926.0069225-30.4485375-.38902424-32.2086198-.0733851z" fill="#fff" stroke="#000" stroke-width=".01121766"/><path d="m4.5393714 3.5884097-.1053834-.4019956c-.0906376-.4528392.0618084-.831383-.9844753.8284148-.9587365 1.5040058-1.8326189 3.1760333-2.1554353 4.124152-.2614054.7677658-.34087331 3.5821891-.1011009 3.5821891.077481 0 .7642167.195364.9080978-.141002.1267514-.296266-.1822465-1.052954-.103794-1.8188699.1612317-1.5440801.6447499-3.2006785 1.6035306-4.402684.2656436-.333006.6081504-.5240425.6081504-.6029762.4167652-.7518638.3304101-1.1672282.3304101-1.1672282z" fill="#8a112b" stroke-width=".15574735"/><path d="m11.898411.02430855c8.647524.06367898 16.67617-.26038818 24.606187.43916719.660732.12461368 1.386848.30783319 1.94723.47933559.944609.29417787 4.339744.75065277 5.634718.75767157.316415.00172.68232-.1062359.817239-.2411499.331691-.3317173.759846-.1662628 1.188178.4588006.194255.2834714.744792.7284976 1.223542.9890107 2.791223 1.591862 5.312608 3.4930198 7.567599 5.2952577 3.666827.2019506 7.600932.4886343 11.057963 1.2164718 1.526933.3608074 3.918079.580817 4.959903 1.2100842.721216.763112 1.271002 2.535483 1.441637 3.4669.346922 1.36972.451731 2.878939.433718 3.899235-.03708 1.966628-.06808 2.160618-.431422 2.709684-.21527.325276-.692475.79365-1.060456 1.0408-.36798.247145-.693137.587155-.722275.755618-.04653.204977-.140128.406251-.300345.498042 0 .000883.000089.0021-.0044.003v-.000234c-.148032.115162-.715124.194608-1.388482.194608h-1.112683l-.02384.000234v-.000234c-.0181-3.604001-1.387024-6.986424-4.709181-7.731167-3.247237-.831901-6.651114 1.449673-7.061301 4.733107-.03708.643781-.443784 1.373391-.657332 1.628861-.09386.0372-.684749.04948-1.939901.02793-9.654162-.309452-18.903259-.447493-27.946445-.37165-.632432.01212-1.288131-.01126-1.845245.242976-.385332.06573-.94483.127699-1.257316-.05088-.17505-.26249-.198537-.620951-.218581-.850983-.602411-5.008679-4.743485-6.900541-8.373624-5.138522-2.187355.97399-3.018413 3.010198-3.191742 5.059355-2.8160492-.315025-5.9659375-.7316-9.0528253-1.339939-.2101486-.137669-.61512604-.723178-.9000186-1.301342-.55044791-1.312319-.56108778-1.889665-.5756569-3.053272-.02030848-.510505.05218394-1.098224.28197873-1.471766.17191563-.275027.28533404-.403838.48638792-.462452 0-.000233-.0000883-.000441.004415-.000662.31217645-.113326 1.19638965.0057.92262265-.198943-.1912528-.229171-.1883832-.532524-.532965-1.223903l.9190467-.07934-.083353-.874176c-.2441432-1.7735267-.0995998-2.0195405.3285558-3.1178386.4545566-1.0750943 1.6652064-3.4622869 1.9171198-3.8776918.1671476-.3031852.2982697-.5173297.0185425-.6244997-.0665323-.025496-.0748323-.0744142-.1345215-.1097488.0528461-.1823073.1449848-.484323.1649842-.4595065-.7255864.0929033-1.0466369-.3416093-.6734907-.9112134.2000384-.3052796.4115556-.3685533 1.5137759-.4535531.500074-.0658776 1.1229261-.0684713 1.5062264-.29909914.0754063-.06006894.1406141-.12845772.2119145-.17475927 1.466051-.93662633 3.3939869-.67479316 5.0436969-.68762017zm-2.8075135.1998442c-.7707949.0650132-1.7160218.26951684-2.251106.91075415.052537.036432.097613.034984.146221.030573.083971-.098268 11.5047935-.25523905 20.5855505-.096962 3.733845.02226 7.522435.1896069 11.148822.2598575-.114743-.0733545-.640776-.2214527-1.521767-.4147681-4.174583-.64072569-8.434991-.49353783-12.343092-.58177108-5.538032-.10030266-10.650646-.1076817-15.7646285-.1076817zm19.3635985 1.63534675h-.0044-3.448158c-.653226 1.208529-1.274842 4.2060366-1.7109 5.9155853.07364.068678 1.88626.1717404 4.0277.2290584 2.141528.057323 6.76718.2048366 10.27931.327845 3.512085.1230075 7.701944.2700122 9.31064.3267042 2.685487.094638 2.916606.082095 2.825571-.1551387-.09644-.2511381-.281111-.327237-.378062-.1759005-.0062.1760904-.279418.1906657-2.597674.06525-2.626813.0233899-5.483111-.2874026-7.836554-.3036564-5.38179-.2847125-10.220283-.3024956-15.063192-.5149929.408863-1.8126358.987654-3.8878637 1.525034-5.4811275l2.284659.016883c4.762028.068314 9.263092-.021421 13.725923.3515723 2.946185.2046251 4.033086.5533136 5.531851 1.3029391.786954.3935998 1.709311.9639333 2.211196 1.3410395.292839.09857.327275.48701.605016.4918818.30211 0 .290499-.1203347-.05929-.4022203-.239996-.1851876-.453676-.3339896-.68559-.4866351-1.159172-.7621077-2.484918-1.437405-3.502019-1.7975586-.479634-.1445707-.99984-.2616619-1.582649-.3609261-1.826261-.2539835-5.211065-.4694661-9.052148-.5892998-2.260951-.036882-4.37992-.1006691-6.406794-.1012969zm20.961523 4.1634277c-.0088-.00336-.01501.035094-.01987.1044911l-.0084.1715651c-.0044.079403-.0062.1526168-.0097.2717211l-.02031.7398761h.778875c.428288 0 .778697.062989.778697.1400812 0 .2091689 1.08955.170574 1.094847-.038785 0-.051304.03929-.049834.0981-.0146.07152.033977.187942.1448299.369129.3440432.316724.3481782.477779.5751307.460649.7218523v.010953c0 .1648169-.257388.2393848-.973482.281988-.841213.05007-.801788.058605.291073.063196.695521.00291 1.338902.051281 1.429805.107457.0909.056175.217654.017408.281537-.086011.06684-.1081245.02163-.2191156-.10609-.2614544-.122248-.04048-.67115-.5113103-1.219877-1.0462757-.63177-.6159255-1.082706-.940239-1.22906-.8840636-.192091.073716-.181407.1252309.06322.3048024.183217.1344796.209927.1792611 0 .1622113-.01413.023885-.04238.038785-.08375.038785-.05532 0-.104147-.026163-.134124-.065934-.0615-.00848-.106619-.013373-.186617-.025553-.119376-.018168-.237209-.042913-.350672-.069585-.107634.00494-.22741-.028467-.336281-.096506-.09307-.03282-.17196-.065389-.208515-.094224-.133021-.1048893-.194829-.094077-.194829.03422 0 .4111579-.395486.02573-.485726-.4734019-.03885-.2150089-.06247-.3329676-.07828-.3408495zm1.95703 1.9107187v0c-.06887.0001148-.126795.051402-.142115.1197767.01633.09128.08481.1640073.17271.1850261.0044.0008388.0084.0019.0128.00252.0049.0008388.01015.00106.01501.00159.01015.00106.01987.00185.03002.00207.10896-.00234.162777-.062579.151034-.1597018-.05386-.083506-.159907-.1511427-.23911-.1512606zm-26.263182 1.9698088c.0415.041628.853618.1058593 1.804408.1425913 1.377444.05322 1.728869.02409 1.728869-.1428195-.57261-.4115495-3.245294-.4931153-3.533277.0002335zm40.528913.2112633c.433277.506011 1.111801.733882 1.648342.849842 1.364773.285546 2.15804.633965 2.15804.947944.360166 1.242935.560911 2.378623 1.480664 2.889692.297431.06984.888231.207524 1.055379-.02441.107899-.659613-1.154758-3.622199-1.447553-3.807977-.336768-.161204-2.105503-.728754-3.381052-.831641-.508374-.05956-1.006461-.02074-1.51382-.02345zm-26.283976.289288c.1045.06458.965845.127823 1.914162.140538 2.310619-.08277 1.61108-.357225-.01236-.39743-.484489.01843-1.381506-.03971-1.901579.256892zm-13.667955 4.731738c-.60272.000234-.937457.03063-.937457.08966.09346.227715.320609.260197.511288.289972 1.275813.129186 7.844192.440257 18.957076.896384 2.739657.124724 5.480948.21854 8.218928.377353.674682-.0022.894411-.04824.970303-.143276v-.737822c-3.028876-.0846-5.838951.03707-8.955639-.109278-.942269-.04713-4.72693-.187097-8.410357-.31119-3.683427-.124094-7.730906-.267743-8.994402-.319176-.459104-.01505-.935117-.0323-1.35974-.03263zm-.107238 5.131906v0c-.738963.0045-1.189149.02684-1.279654.06821 2.059676.269023 3.554954.240222 5.2391.276056.575745.04912 9.321545.208983 14.28988.33218 10.745831.266456 10.201299.261384 10.201299.09445 0-.07344-2.155126-.18075-4.789223-.238412-4.352062-.09527-8.614943-.196755-20.792256-.495533-.966021-.02167-1.925464-.03282-2.868925-.03696z" stroke-width=".15574735"/></svg>