<svg enable-background="new" height="99.857193" viewBox="0 0 72.778265 26.420548" width="275.06747" xmlns="http://www.w3.org/2000/svg" xmlns:xlink="http://www.w3.org/1999/xlink"><filter id="a" color-interpolation-filters="sRGB"><feBlend in2="BackgroundImage" mode="screen"/></filter><g transform="matrix(-.04248485 0 0 .04248485 165.91372 30.917659)"><g transform="matrix(.50265664 0 0 .50265664 1846.8545 -545.07983)"><path d="m1045.6267 449.52873c265.0772-153.81188 357.6145 13.43124 396.0084 183.38717-19.585 138.3472-108.229 204.4963-238.6976 226.91962-240.2499-61.23932-283.32341-255.38002-157.3108-410.30679z" fill="#f9f9f9" stroke-width="1.33333337"/><path d="m956.46865 620.76364c-2.67842-162.22624 118.48565-254.54018 247.83615-254.92271 138.3251-.40907 257.6304 83.52724 260.0762 260.70363 1.6359 118.50567-113.1897 244.02075-249.7194 247.21482-119.1262 2.78694-255.7342-104.07307-258.19295-252.99574zm278.58805 216.56426c13.1654-1.20356 19.849-2.49949 33.6496-6.52466 13.2975-3.87841 35.5737-13.30642 39.7958-16.84285 1.0944-.91663 6.7653-4.54147 12.6021-8.0552 5.8368-3.51372 13.0631-8.60655 16.0586-11.3174s7.4725-6.44744 9.949-8.30354c5.0992-3.82192 29.0433-28.55589 29.0433-30.00153 0-.51895 2.3878-3.90044 5.3062-7.51444 2.9183-3.61397 5.3061-7.13527 5.3061-7.82509s1.3887-3.14445 3.0859-5.45475c3.8287-5.21183 16.7747-32.60087 20.5927-43.56704 8.929-25.64593 13.8331-66.28472 11.0952-91.94347-5.138-48.15332-28.2954-97.20525-62.6309-132.66449-11.8772-12.26587-29.5031-26.81835-40.7464-33.64142-7.7807-4.72178-34.8658-18.01425-34.8658-17.11099 0 .44324-.8954.0454-1.9898-.88401-1.0944-.92943-1.9898-1.29397-1.9898-.81008 0 .4839-1.7683-.0559-3.9295-1.19963-2.1612-1.1437-11.563-3.99686-20.8928-6.34037-14.9136-3.74606-19.7237-4.32304-39.8082-4.77497-12.6922-.2856-26.841.13776-31.8366.9526-8.4751 1.38236-29.7005 6.97116-35.5225 9.35328-1.4592.59703-5.0408 1.84251-7.9592 2.76772-7.8557 2.4905-27.5307 11.84117-36.898 17.53604-30.5552 18.57606-57.3968 45.42056-74.1364 74.14438-14.5657 24.99367-25.2721 54.61008-28.95277 80.0905-.86281 5.97286-2.03764 13.49173-2.61074 16.7086-2.49839 14.0237.26482 46.39904 5.93091 69.49051 7.6025 30.9826 17.4404 51.48092 40.3933 84.1629 10.2595 14.60819 35.1318 37.36931 51.1717 46.82821 11.9806 7.06503 35.9823 19.16738 43.9337 22.15261 26.5051 9.95092 61.7191 13.80066 96.8553 10.58858zm-35.3299-7.19623c-13.7846-.81096-29.8669-3.31011-43.1122-6.69953-7.2959-1.86699-15.7599-4.03568-18.8091-4.81932-3.0491-.78363-6.7891-2.78129-8.3111-4.43926-2.5799-2.81026-2.6409-3.38145-.8997-8.43139 1.6963-4.92012 7.3955-16.54526 10.8055-22.041.7463-1.20287 4.5304-7.99018 8.4089-15.08293 3.8786-7.09277 9.3865-17.11189 12.2399-22.26472 2.8535-5.15283 5.188-10.14557 5.188-11.09495 0-.94939 1.3908-3.45289 3.0905-5.56333 1.6999-2.11045 3.4922-4.75348 3.9831-5.87339 1.963-4.47872 9.7528-17.85521 13.792-23.68313 5.7519-8.29929 8.4467-8.11938 27.5299 1.83785 26.0152 13.57433 31.2959 18.89035 35.1846 35.41994.6147 2.61312 4.8099 15.44118 9.3228 28.50679 8.9765 25.98944 14.8192 46.77952 14.2483 50.70052-1.0509 7.21748-44.0017 15.21394-72.6614 13.52785zm59.6938-8.92511c7.0593-3.2736 7.1883-3.42859 3.9796-4.77862-4.6978-1.97654-14.3238-10.76268-16.4919-15.05298-3.159-6.25129-17.7802-71.44096-16.3513-72.90322 1.4102-1.44312 5.6282-1.5936 8.0893-.28858 4.8618 2.57816 1.7002-3.46874-3.7762-7.22217-7.4487-5.1053-37.1921-20.21607-39.7924-20.21607-4.6853 0-7.3713 3.31314-15.6654 19.3233-4.744 9.15725-15.4646 28.65648-23.8235 43.33161-19.9284 34.98648-21.2288 37.80926-20.1446 43.72366 1.1756 6.41247 4.5888 5.15572 4.5888-1.68961 0-3.44905 1.1539-6.42364 3.7614-9.69641 3.8472-4.82885 9.0445-14.36939 24.7566-45.44503 18.7858-37.155 22.5211-42.78313 28.37-42.74693 3.264.0203 15.1172 6.05423 17.6669 8.99356 2.1265 2.45147 8.9781 29.04521 18.314 71.08369 2.2384 10.07918 4.4144 19.24208 4.8355 20.36199 1.6907 4.49674 1.6052 11.61752-.1729 14.39449-1.0358 1.61776-1.625 3.2058-1.3092 3.52899 1.4079 1.44065 16.5449-1.63158 23.1653-4.70167zm42.1348-16.27611c-1.1813-.93326-2.8432-4.44571-3.6933-7.80543-.85-3.35973-2.3086-7.02489-3.2415-8.1448-.9328-1.11991-2.7447-5.39593-4.0266-9.50226-1.2818-4.10633-3.1493-8.43045-4.15-9.60915-1.0006-1.1787-1.8194-2.65791-1.8194-3.28716 0-1.53023-6.0854-17.27357-10.0681-26.04678-1.7584-3.87346-3.1971-7.38224-3.1971-7.7973s-4.2254-10.91085-9.3896-23.32398c-6.4911-15.6026-9.148-23.55412-8.607-25.75965 1.2405-5.05795 6.6797-9.23094 18.3938-14.11172 5.983-2.49292 14.756-6.36045 19.4956-8.59453 8.0586-3.79851 9.0479-3.96184 15.2551-2.51833 10.4794 2.43702 18.352 4.57514 21.2296 5.76566 1.4591.60372 4.6333 1.49624 7.0536 1.9834 2.4203.48715 6.0019 1.74069 7.9592 2.78562 1.9572 1.04494 5.0673 1.90367 6.9113 1.90827 1.8441.004 4.5303.80533 5.9694 1.77939 2.8084 1.90085 17.7728 8.27707 23.0967 9.84132 4.677 1.37417 18.8274 10.4626 20.4903 13.16043 1.9663 3.18997-1.3099 11.79622-11.3206 29.73678-18.381 32.94186-40.0861 55.02775-74.9517 76.26677-9.3617 5.70284-8.594 5.48221-11.3897 3.27345zm8.2101-7.38626c1.9573-1.71501 2.2556-2.74518 1.1792-4.0724-.7924-.97714-2.2632-1.77664-3.2682-1.77664-1.0051 0-1.8273-.15971-1.8273-.35487 0-.19519-2.746-6.76194-6.102-14.59276-3.3561-7.83085-8.3974-20.34648-11.2029-27.81255-2.8054-7.46606-9.0383-23.34842-13.8508-35.29412-4.823-11.97154-8.5766-23.24142-8.3635-25.11057.4205-3.6891 6.7884-7.55464 16.0073-9.71687 4.319-1.01301 6.6927-.44685 17.2448 4.11313 6.73 2.90831 16.1165 6.6696 20.8588 8.35842 8.853 3.15266 14.3483 5.64851 38.4694 17.47183 18.7667 9.19883 23.6676 12.84862 23.8748 17.77999.047 1.11991 1.6045-.40724 3.4609-3.39367 4.0235-6.47243 12.48-24.18785 11.8526-24.82987-.2428-.24847-4.9558.50245-10.4732 1.6687-5.5175 1.16624-11.6712 2.12044-13.6749 2.12044s-18.4523-6.56673-36.5527-14.59275c-27.6581-12.2642-32.8539-15.00751-32.5608-17.19192.1919-1.42954 2.2754-3.56754 4.63-4.75113 6.5126-3.27372 5.2107-4.5658-3.9495-3.91947-6.6728.47081-11.4813 2.14014-24.639 8.55388-14.403 7.02078-16.6521 8.57865-18.903 13.09374-3.3358 6.69122-3.2829 7.29355 1.6053 18.28052 2.288 5.14287 5.8343 14.39792 7.8806 20.56678 2.0463 6.16885 4.8669 12.8883 6.268 14.93212 1.4011 2.04381 3.3194 6.15946 4.2627 9.14589.9435 2.98642 3.3481 9.09502 5.3435 13.57466 3.9334 8.83052 10.445 24.43728 13.2163 31.67671 1.575 4.11442 4.6455 8.36854 6.04 8.36854.3044 0 1.7325-1.03308 3.1736-2.29576zm-216.7826-2.77755c-2.1658-.32677-5.7474-1.90367-7.9592-3.50422-5.8925-4.26421-24.0131-21.79045-30.1505-29.16157-9.7155-11.66859-10.0378-12.12447-19.9597-28.23125-9.6536-15.67114-23.5538-49.42201-23.5538-57.19054 0-1.44358 1.3431-3.33531 2.9847-4.20385 3.9982-2.11536 20.756-5.5785 31.4647-6.50239 4.7644-.41107 12.8413-1.69067 17.9484-2.84359 11.1399-2.51474 22.57-4.31513 32.5833-5.13229 4.0586-.3312 14.9729-1.84883 24.2542-3.3725 15.0969-2.47839 17.2728-2.55988 20.6489-.77331 4.5971 2.43273 5.0487 3.50759 8.2951 19.74447 3.7535 18.77209 4.3915 34.15649 1.6464 39.69496-7.9653 16.07042-51.4463 82.781-53.6014 82.23749-.3647-.092-2.4353-.43464-4.6011-.76141zm2.3787-2.60722c.4802-.49127.1978-1.72565-.6274-2.7431-.9832-1.21236-1.2624-5.75172-.81-13.17181.6334-10.39098 1.1123-11.94442 5.823-18.89279 7.3213-10.79888 34.1758-45.97058 37.2862-48.8341 3.5743-3.29069 6.2967-1.83715 7.7989 4.16402l1.2593 5.03161 2.5072-5.26149c2.1743-4.56264 2.3004-6.05273.9503-11.21857-.8563-3.27641-1.5569-8.48069-1.5569-11.56508 0-3.0844-1.3317-11.09512-2.9593-17.80159-3.84-15.82278-5.1048-16.79096-19.2602-14.74274-5.6543.81815-13.5637 1.83262-17.5764 2.25437-7.4401.78194-15.6554 2.08274-29.8469 4.72592-4.3776.81533-11.2424 2.05807-15.2551 2.76167-19.492 3.41775-38.729 7.81004-40.0281 9.13942-1.7163 1.75631-.3689 6.27563 1.5157 5.08374 1.7241-1.09043 18.7037-4.39089 35.196-6.84133 17.8441-2.65127 48.2648-8.24903 54.5787-10.04308 2.8134-.79941 7.882-1.45689 11.2636-1.46105 7.2697-.009 9.5059 2.56602 12.5233 14.42097 2.6039 10.23036 2.5716 10.39172-3.5327 17.6091-2.9821 3.52601-10.6484 13.48963-17.036 22.14139-6.3877 8.65177-13.1817 17.56305-15.0979 19.80287-10.4792 12.24929-15.6353 18.70907-19.3871 24.28927-4.7862 7.11873-8.3148 9.49864-12.2084 8.23405-5.4722-1.77733-1.8431 3.43393 9.4578 13.5807 10.9321 9.8158 13.1861 11.21682 15.0224 9.33763zm105.0285-108.67229c-1.4592-.35929-4.2947-2.2353-6.3011-4.1689-5.3639-5.16935-5.1295-13.25078.5758-19.84518 8.0461-9.30017 19.8491-4.81006 23.7269 9.02617 1.5285 5.4539-1.3151 10.87924-7.1998 13.73687-4.6401 2.2532-6.0627 2.41796-10.8018 1.25104zm44.4386-20.4042c-4.2672-.78131-6.108-2.38457-8.5949-7.48578-2.5363-5.20272-2.5869-11.78693-.1184-15.39341 2.9145-4.25802 11.7253-6.50847 17.343-4.42971 7.9636 2.94683 10.018 15.79079 3.6408 22.76185-3.9555 4.32382-7.1084 5.49219-12.2705 4.54705zm147.9081-4.98197c-9.2906-2.00424-35.9373-9.82452-39.7959-11.67931-1.4592-.7014-12.5026-4.08528-24.5408-7.51973-35.3393-10.0821-45.102-15.20044-45.102-23.64582 0-4.22125 5.3366-27.50866 8.0953-35.32567 3.3954-9.62113 7.0534-14.00452 17.6803-21.18564 5.8872-3.97827 13.0918-9.02395 16.0101-11.21265 9.8517-7.38847 33.0899-21.55082 44.5917-27.17601 8.8956-4.35056 12.3501-5.4007 15.5867-4.73828 2.2871.46807 4.1583 1.64232 4.1583 2.60945s2.0565 5.93036 4.57 11.02941c7.1184 14.44028 14.9917 41.4376 17.9454 61.53346 2.5272 17.19453 1.6798 61.59692-1.2688 66.47906-1.4681 2.43087-8.9162 2.77636-17.9303.83173zm9.1772-4.33386c1.1541-.45317 2.0982-1.8926 2.0982-3.19873 0-1.94981-1.6521-2.5319-9.2327-3.25288-5.0782-.48296-10.5998-1.44562-12.2705-2.13924-3.2075-1.33171-6.1767-2.21217-36.864-10.93162-49.1142-13.95522-51.7346-15.08364-51.7346-22.27807 0-2.41672.9054-7.51435 2.0122-11.32807l2.0122-6.93403 14.2378-7.22255c7.8308-3.97242 19.0132-10.00256 24.85-13.40034 5.8367-3.39778 19.3094-10.5771 29.9394-15.95405 15.658-7.92024 20.5059-9.77628 25.5357-9.77628 3.4147 0 6.2085-.56774 6.2085-1.26167 0-2.69406-11.8615-27.24512-13.1631-27.24512-.758 0-1.7776 1.67987-2.2658 3.73304-.4881 2.05317-2.5227 7.39819-4.5212 11.87783-4.381 9.82004-6.1852 11.04015-44.1634 29.86711-28.6128 14.18425-30.0701 14.429-30.0701 5.0504 0-4.70932-.048-4.75125-2.653-2.33833-1.4592 1.35135-2.6531 3.03356-2.6531 3.73828 0 .7047-.8711 3.20618-1.9356 5.55883-4.9373 10.91091-8.8178 24.08225-9.5702 32.48382-.7506 8.38007-.5491 9.5013 2.2557 12.55656 1.6939 1.84515 3.6318 3.35483 4.3063 3.35483.6746 0 3.1075.83309 5.4066 1.85131 2.299 1.01822 11.6418 3.85054 20.7616 6.29402 9.1199 2.44348 17.1786 4.88815 17.9081 5.43258.7297.54443 2.819 1.29408 4.6429 1.66587 4.8895.99667 36.0455 10.42798 39.1326 11.84592 1.4592.67021 3.5485 1.52045 4.6429 1.88939 2.9048.97931 12.7077 1.01891 15.1466.0612zm-241.3198.64449c-4.4035-2.246-7.7245-8.00267-7.5384-13.06721.2412-6.56476 4.1517-12.82778 8.8044-14.10113 4.7358-1.29609 14.3754 2.65158 16.5286 6.7689 4.0419 7.72843-.4665 18.12745-8.8977 20.5237-5.7209 1.62591-5.4584 1.62958-8.8969-.12421zm-152.9113-15.06512c-4.2271-2.08469-4.7426-5.59212-3.9166-26.6463.6969-17.75909 3.5352-35.57981 8.422-52.87683 3.3935-12.01151 12.1143-34.22075 15.5312-39.55328 1.6984-2.65059 4.7605-7.56814 6.8046-10.92787 4.2289-6.95041 9.649-12.0966 12.8161-12.16837 1.9793-.0448 9.3861 6.05698 25.1781 20.74215 3.3593 3.12379 8.6384 7.81763 11.7314 10.43075 7.682 6.49008 10.7692 9.48578 14.691 14.25568 1.8404 2.23857 9.2771 9.56785 16.5258 16.2873 7.2486 6.71946 16.4074 15.48155 20.3528 19.47132 6.5939 6.66802 7.1123 7.63948 6.4172 12.02338-.7959 5.01912-1.1482 5.53142-16.5531 24.07362-11.3102 13.61355-13.2092 15.06055-23.2907 17.74773-7.614 2.02943-9.9352 2.29161-41.631 4.70241-9.6733.73575-21.3136 1.95648-25.8673 2.71273-10.5976 1.75994-23.3472 1.63137-27.2115-.27442zm5.6163-10.41584c10.9681-10.84949 11.0994-10.87596 50.2562-10.12956 19.0805.36371 36.1234.96385 37.873 1.33363 3.142.66406 3.1183.73816-1.9274 6.02589-5.5513 5.81772-5.3856 6.33594 1.1104 3.47082 7.7523-3.41931 28.1587-25.45724 33.3456-36.01192 4.6871-9.53736 4.6318-9.6558-11.4995-24.6351-8.2085-7.62227-20.5109-19.08204-27.3387-25.46617-6.8279-6.38411-14.5881-13.25351-17.2449-15.26531-2.6569-2.0118-7.2184-6.02324-10.1368-8.91433-12.3478-12.23239-19.1575-15.69761-21.0308-10.70188-.4291 1.14428.671 2.35254 2.8717 3.15387 3.3418 1.21685 13.6291 10.36647 30.5057 27.13205 3.9764 3.95024 8.7945 8.0147 10.7069 9.03214 1.9125 1.01745 6.5508 5.11576 10.3074 9.10736s9.0913 9.09004 11.8547 11.32985c10.2848 8.33609 17.7946 16.00576 17.7946 18.17349 0 3.10248-11.5832 16.35814-15.7839 18.063-5.3501 2.1713-94.7946 2.33606-102.2153.18827-3.2492-.94039-6.1687-1.44253-6.488-1.11584-.8054.82423-1.2854 26.74441-.5338 28.83135.9202 2.55511 1.746 2.16232 7.5729-3.60161zm234.611-13.29365c-4.0982-.8164-9.714-8.88918-9.714-13.96393 0-5.19846 3.1375-11.68368 6.5591-13.55758 8.5037-4.65716 21.298 3.11497 21.298 12.93784 0 4.76698-3.5004 10.58124-8.012 13.30852-3.6733 2.2204-4.7229 2.35251-10.1311 1.27515zm-86.4954-12.88732c-5.8566-6.13004-5.8059-13.34722.1337-19.02502 3.8193-3.65101 4.9524-4.01535 10.7229-3.44794 8.7495.86031 11.9792 4.28068 11.9792 12.68667 0 5.47507-.6081 6.95245-4.2216 10.25642-6.056 5.53724-13.0433 5.36077-18.6142-.47013zm46.3245-16.68277c-4.3554-2.27379-6.1011-4.20688-7.481-8.2842-2.2596-6.6762-1.5933-8.83426 4.3875-14.20779 4.1195-3.70143 5.521-4.20549 9.9884-3.59233 5.9969.82312 9.2592 3.43041 12.1839 9.73758 1.9301 4.16215 1.891 4.90099-.5588 10.56846-2.2177 5.13047-3.4405 6.30292-7.7364 7.41881-4.2795 1.11156-6.0188.84694-10.7836-1.64053zm45.7422-25.90757c-2.1721-1.15902-4.3878-2.83513-4.9239-3.72467-1.6321-2.70883-17.3811-25.10624-21.9265-31.18286-4.1877-5.59844-4.2574-5.92569-3.6471-17.15029.342-6.29362 1.2323-15.15587 1.9781-19.69389s1.5462-12.22153 1.7788-17.07447c.2325-4.85294.8013-9.73982 1.264-10.85973s1.1435-5.0905 1.513-8.82352c.7015-7.08806 3.8169-23.5071 6.1173-32.23983 1.181-4.48379 1.8484-5.10966 5.5989-5.25125 2.3419-.0884 4.6785-.0976 5.1926-.0206.514.0771 3.0312.40629 5.5937.73153 2.5625.32525 5.1684.91349 5.791 1.3072.6225.39371 2.5824.99414 4.3552 1.33427 5.4031 1.03663 33.5165 12.04696 37.0499 14.51019 1.8239 1.27157 6.4253 3.9148 10.2252 5.87387 3.7999 1.95906 9.4708 5.41928 12.6021 7.68937 3.1311 2.2701 7.7824 5.54508 10.3359 7.27775 2.5536 1.73267 10.3138 8.57872 17.2449 15.21346 15.0244 14.38197 16.0727 17.49415 8.2988 24.63735-2.6406 2.42646-5.3182 4.41176-5.95 4.41176-.632 0-2.4686 1.45712-4.0815 3.23804-1.6128 1.78092-4.8022 4.37708-7.0872 5.76924-2.2851 1.39215-8.9583 6.05875-14.8293 10.37021-5.871 4.31148-13.9714 9.80922-18.0011 12.21719-4.0297 2.408-14.8488 9.87591-24.0424 16.59537-14.8458 10.85041-23.826 16.72235-25.8378 16.89477-.3648.0312-2.4405-.89147-4.6126-2.05049zm12.7806-5.45255c2.2313-1.1807 7.517-4.69314 11.7462-7.80543 4.2291-3.11227 11.4602-8.40756 16.069-11.76729 4.6089-3.35973 10.4281-7.94118 12.9317-10.181s6.5447-5.29412 8.9803-6.78732c11.3292-6.94571 36.4155-25.53466 37.653-27.90089.9635-1.84238.9519-3.46387-.038-5.35704-1.8035-3.44858-4.032-3.48177-4.9032-.073-.3712 1.45305-6.1355 6.72308-12.8093 11.71117-6.674 4.98809-12.7313 9.81397-13.461 10.72415-.7296.91018-3.3598 2.73005-5.8448 4.04414-2.4851 1.31409-5.1713 2.92137-5.9694 3.57171-4.4894 3.65838-20.1909 15.24918-29.3494 21.66557-5.814 4.07333-10.8695 7.79341-11.2342 8.26683-.3649.47341-2.8922 2.13731-5.6164 3.69754l-4.9531 2.83679-4.9656-5.49208c-11.0268-12.19564-11.1938-13.11671-6.4498-35.5494 1.7706-8.37232 3.9534-20.72013 4.8507-27.43959.8972-6.71945 2.1223-12.87528 2.7224-13.6796.6-.80432 1.6992-5.85006 2.4424-11.21277s1.8847-10.81323 2.5365-12.11226c.6519-1.29904 2.1761-5.87433 3.3871-10.16732 1.211-4.29298 2.6541-7.80543 3.2069-7.80543.5529 0 2.1446-.85257 3.5372-1.89458 2.385-1.78459 2.2264-2.02767-2.7312-4.18691-2.8947-1.26078-6.457-2.52211-7.9161-2.80296-7.9161-1.52357-18.6301-2.99795-19.0236-2.61786-.2487.24027.3482 1.9282 1.3265 3.75097 9.2666 17.26553 9.3799 17.58823 8.6407 24.6266-1.7204 16.38135-4.8794 35.80584-6.6568 40.93213-1.0575 3.04972-2.5991 10.07461-3.4257 15.61086-1.3764 9.21715-3.5559 13.45959-6.9148 13.45959-.5531 0-2.824-1.9853-5.0464-4.41177l-4.0407-4.41176.0008 5.42986c.0005 2.98643 1.0424 7.03891 2.3154 9.00551 23.6222 36.49469 27.8568 40.22116 39.0028 34.32287zm-130.6981-11.20253c-11.0352-9.87874-41.3581-40.32759-43.4635-43.64415-1.1919-1.87761-5.5197-6.9679-9.6173-11.31178-4.0976-4.34387-7.4501-8.37249-7.4501-8.9525s-1.1939-2.1602-2.6531-3.51154c-4.3944-4.06958-3.2768-7.84697 4.4597-15.07459 30.093-28.11308 76.3584-47.61543 115.0667-48.50423l9.6723-.22209 1.1792 5.42986c1.2233 5.63209 1.0559 10.00146-2.5478 66.51585-1.1902 18.66516-2.1036 38.82354-2.0298 44.79638.097 7.83928-.4994 12.10312-2.1443 15.33021l-2.2786 4.47048-26.3567-.2081-26.3567-.2081zm56.0325-1.40771c2.6882-2.75094 3.4736-9.72656 4.8338-42.93533.3976-9.70588 1.2856-29.86426 1.9735-44.79639 1.2177-26.43526.9245-33.04288-1.4848-33.46153-4.1916-.72835-4.4915-.22818-4.5991 7.66968-.1921 14.10958-3.143 63.30512-4.5189 75.33937-.7257 6.34615-1.3239 16.19627-1.3294 21.88915l-.011 10.35067-4.1453.84842c-8.9227 1.82616-13.9064.97436-19.1238-3.26862-2.7844-2.26437-5.9747-5.47139-7.0894-7.1267-2.7337-4.05996-19.1905-22.97875-28.0049-32.19519-13.5978-14.21797-28.9406-35.21402-29.8768-40.88572-.4785-2.89747-1.3935-5.26813-2.0336-5.26813s-3.2034 1.83258-5.6963 4.0724c-2.4928 2.23982-5.128 4.0724-5.8558 4.0724s-3.5125 2.55579-6.1883 5.67953c-4.0897 4.77447-4.5363 5.86777-2.8022 6.8608 1.1344.6497 2.6305.82216 3.3244.38324.694-.43893 5.1819.27086 9.9731 1.5773 8.254 2.25068 9.1534 2.91213 17.1356 12.6024 4.6333 5.62488 12.2514 15.41936 16.929 21.76552 4.6776 6.34615 9.5016 12.76017 10.7199 14.25339 6.7256 8.2429 10.2861 13.47614 10.2861 15.11878 0 2.11811-6.2315 2.49707-9.2224.56086-1.0596-.68591-2.3766-.96243-2.9267-.61446-2.1372 1.35161.8621 5.05105 6.0495 7.46185 4.6186 2.14642 8.8784 2.53096 28.3189 2.55629 20.611.0269 23.1291-.22234 25.3646-2.50998z" fill="#020202" stroke-width="1.34190857"/></g><g transform="matrix(.45983375 0 0 .4560089 2920.1082 -358.65343)"><ellipse cx="-1313.2122" cy="255.66154" rx="277.63959" ry="279.96832" transform="scale(-1 1)"/><path d="m1097.8793 249.30095c-4.2322-118.62385 85.3026-219.987623 214.5876-224.124343 126.2259-4.03883 228.0271 101.487243 226.6807 227.839803-1.1856 111.25744-92.2194 214.15874-221.4877 214.97745-127.6275.80831-215.344-94.34064-219.7806-218.69291zm345.9117 172.79144c182.2753-151.94562 55.146-394.80868-123.0798-392.64082-171.1627 5.539184-240.5959 149.33129-213.6965 271.47143 28.8565 90.9148 62.4291 115.85524 137.2098 152.71596 83.437 24.24251 137.479 8.18767 199.5665-31.54657zm-199.9623 23.42008c-3.0491-.78363-6.7891-2.7813-8.3111-4.43926-2.58-2.81026-2.641-3.38146-.8998-8.4314 19.7534-39.09469 35.5547-70.28095 57.5079-105.60345 5.7519-8.2993 8.4468-8.11939 27.5299 1.83784 26.0153 13.57434 31.296 18.89035 35.1846 35.41995 8.1521 26.32343 17.7792 51.06531 23.5711 79.20731-38.2658 21.76993-90.6048 13.28279-134.5826 2.00901zm125.5946-2.18488c-4.6978-1.97654-14.3238-10.76268-16.4919-15.05299-3.159-6.25129-17.7802-71.44096-16.3513-72.90323 1.4103-1.44311 5.6282-1.59359 8.0893-.28857 4.8619 2.57816 1.7003-3.46875-3.7761-7.22217-7.4487-5.10531-37.1921-20.21608-39.7924-20.21608-15.4391 6.21703-26.3577 39.56232-39.489 62.65492-19.9283 34.98648-21.2288 37.80927-20.1445 43.72366 1.1755 6.41247 4.5887 5.15572 4.5887-1.68961 0-3.44904 1.1539-6.42364 3.7614-9.69641 20.8014-29.79308 35.3835-85.64013 53.1266-88.19196 3.2641.0203 15.1173 6.05423 17.6669 8.99355 2.1265 2.45148 8.9782 29.04522 18.3141 71.0837 2.2384 10.07919 4.4143 19.24208 4.8355 20.36199 1.6907 4.49675 1.6051 11.61753-.1729 14.3945-1.0358 1.61776-1.625 3.2058-1.3092 3.52899 10.8077.61898 26.6012-9.06535 27.1448-9.48029zm38.1552-11.4975c-14.4269-41.05857-36.4857-83.65894-48.1926-121.27652 15.5163-15.90913 36.0849-23.96201 53.1445-25.22458 36.0535 10.70292 64.1985 16.24096 92.7102 37.22409 1.9663 3.18997-1.31 11.79622-11.3206 29.73679-18.381 32.94186-40.0861 55.02775-74.9518 76.26678-9.3617 5.70283-8.5939 5.4822-11.3897 3.27344zm9.3894-11.45866c-.7925-.97714-2.2632-1.77663-3.2683-1.77663-1.005 0-1.8273-.15971-1.8273-.35488 0-.19519-2.7459-6.76194-6.102-14.59276-12.1072-31.43101-24.1955-57.07634-33.4172-88.21725.4206-3.6891 6.7885-7.55463 16.0073-9.71686 4.3191-1.01302 6.6928-.44686 17.2449 4.11312 23.0599 8.83109 45.5638 19.08847 59.3282 25.83026 18.7667 9.19883 23.6676 12.84861 23.8748 17.77998 6.8856-5.6103 11.391-19.12224 15.3134-28.22354-.2427-.24846-4.9557.50246-10.4731 1.6687-5.5175 1.16624-11.6713 2.12045-13.6749 2.12045-2.0037 0-18.4523-6.56674-36.5527-14.59276-27.6581-12.26419-32.8539-15.00751-32.5608-17.19192.1918-1.42953 2.2753-3.56754 4.63-4.75112 6.5126-3.27373 5.2106-4.56581-3.9496-3.91948-6.6728.47081-11.4812 2.14014-24.6389 8.55389-14.403 7.02077-16.6521 8.57865-18.903 13.09374-3.3358 6.69121-3.2829 7.29354 1.6052 18.28052 12.2945 32.12629 24.2272 58.4201 36.9712 89.89616 1.575 4.11442 4.6455 8.36854 6.04 8.36854 3.7271-.22442 3.8846-5.68321 4.3528-6.36816zm-217.9618 1.29485c-2.1658-.32677-5.7475-1.90367-7.9592-3.50422-41.2149-30.4106-64.2227-70.71369-73.6641-114.58337 0-1.44358 1.3431-3.33531 2.9847-4.20384 41.704-7.38141 88.2712-19.40825 126.8995-18.62409 4.5971 2.43273 5.0487 3.50759 8.2952 19.74447 3.7534 18.77209 4.3914 34.1565 1.6463 39.69496-15.6811 27.9883-32.1363 56.52478-58.2024 81.47609zm1.7513-5.35032c-.9833-1.21236-1.2624-5.75172-.8101-13.1718.6335-10.39099 1.1123-11.94443 5.8231-18.8928 7.3212-10.79888 34.1758-45.97058 37.2861-48.8341 3.5744-3.29069 6.2967-1.83715 7.7989 4.16402l1.2594 5.03161 2.5072-5.26149c3.4211-12.88456-1.4124-27.40738-3.5659-40.58524-3.84-15.82279-5.1048-16.79097-19.2602-14.74275-35.1631 4.98412-72.6298 10.50034-102.7065 18.88138-1.7163 1.75632-.3689 6.27563 1.5156 5.08374 33.5152-5.94957 69.0941-14.5921 101.0384-18.34545 7.2697-.009 9.5058 2.56601 12.5232 14.42096 2.8716 17.49857-10.3041 26.04988-20.5687 39.75049-10.8098 15.10039-23.7389 29.87056-34.485 44.09215-4.7861 7.11873-8.3147 9.49864-12.2084 8.23405-5.4722-1.77733-1.843 3.43393 9.4578 13.58071 3.4297 4.01169 9.2326 5.49684 14.3951 6.59452zm99.3548-110.0981c-5.3639-5.16935-5.1295-13.25078.5757-19.84518 8.0461-9.30017 19.8492-4.81006 23.7269 9.02617-1.5222 17.08884-14.5265 19.77469-24.3026 10.81901zm50.7397-16.2353c-13.364-3.7061-15.3776-14.19226-8.7133-22.8792 2.9144-4.25802 11.7253-6.50847 17.3429-4.42972 12.0482 15.33475 5.2381 23.80257-8.6296 27.30892zm147.908-4.98197c-21.6612-5.14985-45.5234-13.81811-64.3367-19.19905-35.3392-10.0821-45.1019-15.20044-45.1019-23.64582 0-4.22125 5.3365-27.50866 8.0953-35.32567 3.3953-9.62114 7.0534-14.00453 17.6803-21.18565 26.9172-16.7305 58.8767-41.90754 76.1885-43.12694 5.8042 2.25947 6.0524 7.6875 9.4845 13.48762 15.1899 29.53794 25.4628 89.34598 15.9204 128.16378-1.4681 2.43087-8.9162 2.77636-17.9304.83173zm9.1773-4.33386c1.1541-.45317 2.0982-1.8926 2.0982-3.19873 0-1.94981-1.6521-2.53191-9.2327-3.25288-23.2508-4.16612-34.493-8.90974-49.1345-13.07088-49.1142-13.95521-51.7346-15.08363-51.7346-22.27807.4643-6.59028 2.2025-11.9474 4.0244-18.2621 24.5321-12.09332 45.7853-24.79117 69.0272-36.57694 15.6579-7.92024 20.5059-9.77628 25.5357-9.77628 3.4147 0 6.2084-.56774 6.2084-1.26167 0-2.69406-11.8614-27.24512-13.1631-27.24512-.758 0-1.7775 1.67987-2.2657 3.73304-.4881 2.05317-2.5227 7.39819-4.5212 11.87783-4.3811 9.82004-6.1852 11.04015-44.1634 29.86711-28.6129 14.18426-30.0702 14.42901-30.0702 5.0504 0-4.70932-.048-4.75124-2.653-2.33833-1.4592 1.35135-2.6531 3.03356-2.6531 3.73828 0 .7047-.871 3.20618-1.9355 5.55884-4.9373 10.9109-8.8178 24.08224-9.5702 32.48381-.7506 8.38007-.5491 9.50131 2.2557 12.55656 2.4899 3.41122 6.57 3.77485 9.7129 5.20615 30.8375 9.78908 60.0781 17.89255 87.0881 27.12779 2.9048.97931 12.7077 1.01891 15.1466.0612zm-240.0538-26.52387c9.8691-3.00717 14.3753 2.65158 16.5286 6.76891 4.0419 7.72844 2.5279 18.983-8.8978 20.52371-19.6957-3.07515-19.6473-19.17834-7.6308-27.29262zm-154.1774 12.10323c-9.0777-22.3417-2.8223-53.13477 4.5055-79.52314 8.7369-24.66676 15.9951-47.64375 35.1519-62.64953 30.3402 22.41504 61.8993 55.38799 88.479 81.18722 6.5939 6.66801 7.1124 7.63947 6.4172 12.02338-9.0863 18.5714-20.8237 32.81055-39.8438 41.82135-39.0092 4.70115-58.6269 8.74803-94.7098 7.14072zm5.6164-10.41584c10.968-10.84949 11.0993-10.87596 50.2561-10.12956 19.0805.3637 36.1234.96384 37.873 1.33363 3.142.66405 3.1183.73816-1.9274 6.02589-5.5513 5.81771-5.3855 6.33594 1.1104 3.47082 7.7524-3.41931 28.1587-25.45725 33.3457-36.01193 4.6871-9.53735 4.6317-9.6558-11.4995-24.6351-17.5256-17.07917-37.9965-34.62658-54.7204-49.64581-12.3478-12.23239-19.1576-15.69762-21.0309-10.70188-.4291 1.14428.6711 2.35254 2.8717 3.15387 27.0446 24.1737 56.5462 46.92152 81.1694 74.77489 0 3.10248-11.5832 16.35815-15.784 18.06301-5.35 2.1713-94.7946 2.33606-102.2153.18827-3.2491-.94039-6.1687-1.44253-6.4879-1.11584-.8055.82422-1.2854 26.74441-.5339 28.83135.9202 2.55511 1.7461 2.16232 7.573-3.60161zm224.8969-27.25758c0-5.19846 3.1375-11.68369 6.5592-13.55759 18.1074-4.48358 27.2407 16.13674 13.2859 26.24637-11.6439 4.50232-15.0738-3.17557-19.8451-12.68878zm-76.7813 1.07661c-5.8566-6.13004-5.806-13.34723.1337-19.02503 18.9142-10.38379 27.0059 5.57997 18.4805 19.49515-6.0561 5.53725-13.0433 5.36078-18.6142-.47012zm46.3244-16.68278c-11.0622-7.91325-7.1323-15.16602-3.0935-22.49199 14.4551-6.01857 24.0485 1.49058 21.6136 16.71371-5.5663 9.51984-11.4063 11.1189-18.5201 5.77828zm18.8918-60.8151c-4.1877-5.59844-4.2573-5.9257-3.647-17.1503 2.7655-30.10607 6.7715-62.134556 12.6512-88.691436 1.181-4.48379 1.8484-5.10966 5.5988-5.25125 34.0155-.0773 80.6417 29.76244 108.3906 53.91704 15.0244 14.381966 16.0726 17.494146 8.2988 24.637346-34.0755 23.27668-68.1717 50.06188-99.8293 69.49659-14.9839-7.33059-23.1907-25.32924-31.4631-36.95799zm39.6311 29.45498c31.3504-23.18493 57.0516-39.80903 87.3802-64.44194.9634-1.84238.9519-3.46387-.038-5.35703-1.8036-3.44858-4.0321-3.48177-4.9032-.073-29.3175 25.70013-60.4498 46.55989-89.2377 66.5179l-4.9656-5.49208c-11.0267-12.19564-11.1938-13.11671-6.4497-35.5494 5.3271-28.49843 9.4565-56.848816 19.146-82.416976.5529 0 2.1446-.85257 3.5371-1.89458 2.385-1.78459 2.2264-2.02767-2.7311-4.18692-2.8947-1.26077-6.457-2.5221-7.9161-2.80295-7.9161-1.52357-18.6302-2.99795-19.0237-2.61786-.2487.24026.3482 1.9282 1.3265 3.75097 9.2667 17.26553 9.3799 17.58823 8.6407 24.6266-1.348 19.05132-6.5359 38.667926-10.0825 56.542996-1.3763 9.21715-3.5558 13.45958-6.9147 13.45958-3.7769-2.50893-5.8351-5.38555-9.0871-8.82352-.8148 5.09912 1.1555 9.92131 2.3161 14.43537 23.6223 36.49469 27.8568 40.22116 39.0029 34.32287zm-193.8822-78.62251c-4.3943-4.069576-3.2768-7.846966 4.4598-15.074576 30.0929-28.11309 76.3583-47.61544 115.0667-48.50424l9.6722-.22209 1.1793 5.42986c-1.1701 46.45795-2.6036 73.340756-6.7219 126.642446l-2.2786 4.47048c-17.5712-.13873-35.1423-.27747-52.7135-.4162-25.3424-22.63728-49.2584-48.75617-68.664-72.32568zm119.2165 66.01227c2.6883-2.75094 3.4736-9.72656 4.8339-42.93534.3975-9.70588 1.2856-29.864246 1.9734-44.796386 1.2178-26.43526.9246-33.04288-1.4848-33.46153-4.1916-.72835-4.4914-.22818-4.5991 7.66968-.3288 39.22897-3.683 72.336476-5.8593 107.579196-8.822 3.07551-18.0564 1.46505-23.2692-2.4202-12.6414-12.17467-22.9897-26.58182-35.0942-39.32189-13.5979-14.21798-28.9406-35.214026-29.8769-40.885726-.4784-2.89747-1.3935-5.26812-2.0336-5.26812-10.1056 3.98435-17.1395 15.61653-20.5426 20.68512 1.1345.64971 2.6305.82216 3.3244.38324.6941-.43893 5.182.27086 9.9732 1.5773 8.254 2.250676 9.1533 2.912126 17.1355 12.602396 12.9929 16.80914 27.6326 34.59452 37.935 51.1377 0 2.11811-6.2314 2.49707-9.2224.56086-1.0595-.68591-2.3766-.96243-2.9267-.61446-2.1371 1.35161.8621 5.05105 6.0495 7.46185 4.6186 2.14642 8.8785 2.53096 28.3189 2.55629 20.611.0269 23.1291-.22234 25.3646-2.50998z" fill="#fff" filter="url(#a)" stroke-width="1.34190869"/></g><g transform="matrix(10.39167 0 0 10.39167 -12487.833 -1090.538)"><path d="m1521.1947 38.759263c-15.4752.238023-32.6035-.152141-45.6352 2.299739-8.2376 2.643089-15.9088 8.047644-20.9852 14.229623 3.1462 1.010127 47.0488-1.437353 70.5731-2.156021-.7968-4.848978-2.6384-10.346944-3.9527-14.373341zm-4.6354 17.715183c-1.6249.321472-2.9552.290578-4.1322 1.060017.1417.479626 1.8044.578978 4.24.485099 1.5344-.21511 3.5299-.245746 4.5996-.646782-1.3607-.703159-3.0227-.70434-4.7074-.898334zm-99.0519 3.150909c-1.9452 3.106355-2.6974 6.013867-3.3128 8.898574.1868.533338 3.2169.375611 3.4783-.113755 1.9689-2.223027 3.1736-6.792159 3.1736-6.792159 4.288-1.55481 6.7756-1.920625 8.3663-3.821956-5.1432-.922065-9.4707 1.092742-11.7054 1.829296zm66.8916-2.108857c-1.4216.2558-3.2757.175213-4.0964.898339l4.0246.898335 4.7433-.754617c-1.3483-.712802-3.0363-.831189-4.6715-1.042057zm36.5463 10.083534-65.5862 2.38207.4763 4.128911 67.8095-3.334892zm-1.521 13.24047c-10.132-.01481-20.4975.495047-30.8948.450706-11.1204-.04743-22.639.06068-33.5318 1.201705.016.195231.051.25388.3043.467578l-.3183-.03812c13.4657.184667 23.8161-.553628 39.9066-.827275 9.2423-.307489 18.6633-.117873 27.7264-.922502-.029-.199975-.053-.280265-.066-.309519-1.0398-.01387-2.0824-.02106-3.1274-.02256zm3.1275.02256h.01c-.01.000606-.01 0-.01-.0012.0003.000382.0004.000625.0006.0012zm-.0005-.0012c-.013-.02793-.014-.0057 0 0zm39.7407-43.028259c-.8514-1.894573-3.1084-1.97809-4.9483-2.488123-19.8831.251539-39.5906-.02374-59.6494.754602-3.0421.441334-5.8895.979476-8.3569 1.899743 2.6711.01568 68.9679-.881165 72.9546-.166222z" fill="#fff" stroke="#000" stroke-width=".02540872"/><path d="m1567.239 43.040968.2387-.910546c.2053-1.02571-.14-1.883136 2.2299 1.876413 2.1716 3.40667 4.151 7.19392 4.8822 9.34147.5921 1.739039.7721 8.113889.229 8.113889-.1755 0-1.731.442512-2.0569-.319379-.2871-.671061.4128-2.385008.2351-4.119857-.3652-3.497441-1.4604-7.249743-3.6321-9.972363-.6017-.75428-1.3775-1.18699-1.3775-1.36578-.944-1.70302-.7484-2.643847-.7484-2.643847z" fill="#8a112b" stroke-width=".35277778"/><path d="m1550.5703 34.968049c-19.5872.144237-37.7726-.589796-55.7346.994742-1.4966.282258-3.1413.697262-4.4106 1.085726-2.1396.666332-9.8298 1.700277-12.763 1.716175-.7167.0039-1.5455-.240631-1.8511-.54622-.7513-.751361-1.7211-.376596-2.6913 1.039213-.44.642081-1.687 1.650094-2.7714 2.240173-6.3223 3.60567-12.0334 7.911915-17.1411 11.9941-8.3056.457431-17.2166 1.106788-25.047 2.755387-3.4586.817252-8.8747 1.315588-11.2345 2.740918-1.6336 1.728497-2.8789 5.743032-3.2654 7.852751-.7858 3.102505-1.0232 6.520982-.9824 8.832019.084 4.45454.1542 4.893939.9772 6.137609.4876.736771 1.5685 1.797669 2.402 2.357479.8335.5598 1.57 1.329944 1.636 1.711524.1054.464285.3174.920184.6803 1.128096 0 .002-.0002.0047.01.0067v-.000529c.3353.26085 1.6198.4408 3.145.4408h2.5203l.054.000529v-.000529c.041-8.163294 3.1417-15.824702 10.6666-17.511592 7.3552-1.884309 15.0652 3.283602 15.9943 10.720792.084 1.458207 1.0052 3.11082 1.4889 3.689476.2126.08426 1.551.112067 4.394.06327 21.8673-.700928 42.8171-1.013601 63.3005-.841811 1.4325.02744 2.9177-.0255 4.1796.550355.8728.148881 2.1401.289247 2.8479-.115251.3965-.594556.4497-1.406493.4951-1.927531 1.3645-11.34498 10.7443-15.63017 18.9668-11.639082 4.9545 2.20615 6.8369 6.818291 7.2295 11.459765 6.3785-.713459 13.5132-1.657028 20.5052-3.034956.476-.31183 1.3933-1.638044 2.0386-2.947624 1.2468-2.972486 1.2709-4.280212 1.3039-6.915857.046-1.156328-.1182-2.487549-.6387-3.333646-.3894-.622954-.6463-.914719-1.1017-1.047482 0-.000529.0002-.001-.01-.0015-.7071-.256691-2.7099.0128-2.0898-.450619.4332-.519088.4267-1.206201 1.2072-2.772219l-2.0817-.179716.1888-1.980063c.553-4.017148.2256-4.574385-.7442-7.062101-1.0296-2.435158-3.7718-7.842303-4.3424-8.783222-.3786-.686734-.6756-1.171785-.042-1.414532.1507-.05775.1695-.168553.3047-.248588-.1197-.412938-.3284-1.097023-.3737-1.040812 1.6435.210432 2.3707-.773767 1.5255-2.063957-.4531-.691478-.9322-.834797-3.4288-1.027327-1.1327-.149217-2.5435-.155092-3.4117-.677479-.1708-.13606-.3185-.290965-.48-.395841-3.3207-2.121519-7.6876-1.52845-11.4243-1.557504zm6.3592.45266c1.7459.147259 3.8869.610473 5.0989 2.062917-.119.08252-.2211.07924-.3312.06925-.1902-.222584-26.0591-.578133-46.6276-.219625-8.4574.05042-17.0388.429472-25.2528.588594.2599-.166153 1.4514-.501605 3.4469-.939477 9.4557-1.451285 19.1058-1.117895 27.9579-1.317749 12.544-.227192 24.1244-.243906 35.7079-.243906zm-43.8598 3.704166h.01 7.8103c1.4796 2.737396 2.8876 9.526944 3.8753 13.399182-.1668.155559-4.2725.389003-9.123.518832-4.8507.129841-15.3281.463968-23.2833.74259-7.9551.27862-17.4454.611595-21.0892.740006-6.0828.214361-6.6063.185951-6.4001-.351399.2184-.568844.6367-.741213.8563-.398426.014.398856.6329.43187 5.8839.147795 5.9499.05298 12.4196-.650985 17.7503-.687801 12.1901-.644892 23.1496-.685172 34.1191-1.166492-.9261-4.105737-2.2371-8.806262-3.4543-12.415107l-5.1749.03824c-10.7863.154736-20.9815-.04852-31.0901.796334-6.6733.463489-9.1352 1.253291-12.53 2.951241-1.7825.891529-3.8717 2.183371-5.0085 3.037541-.6633.223268-.7413 1.103109-1.3704 1.114144-.6843 0-.658-.272566.1343-.911055.5436-.419461 1.0276-.756507 1.5529-1.102259 2.6256-1.726223 5.6285-3.255815 7.9323-4.071586 1.0864-.327462 2.2647-.592681 3.5848-.817521 4.1366-.575289 11.8034-1.063371 20.5037-1.334802 5.1212-.08354 9.9208-.228022 14.5118-.229444zm-47.4792 9.430432c.02-.0076.034.07949.045.236679l.019.388606c.01.179853.014.345687.022.615466l.046 1.675867h-1.7642c-.9701 0-1.7638.142673-1.7638.317293 0 .473781-2.4679.386361-2.4799-.08785 0-.116207-.089-.112878-.2222-.03307-.162.07696-.4257.328049-.8361.77928-.7174.788646-1.0822 1.302708-1.0434 1.635042v.02481c0 .373321.583.542222 2.205.638721 1.9054.113411 1.8161.132744-.6593.143143-1.5754.0066-3.0327.116155-3.2386.243397-.2059.127241-.493.03943-.6377-.194821-.1514-.244909-.049-.496311.2403-.592211.2769-.09169 1.5202-1.158151 2.7631-2.369882 1.431-1.395111 2.4524-2.129702 2.7839-2.002461.4351.166971.4109.283656-.1432.690397-.415.304605-.4755.406038 0 .367419.032.0541.096.08785.1897.08785.1253 0 .2359-.05926.3038-.149345.1393-.01921.2415-.03029.4227-.05788.2704-.04115.5373-.0972.7943-.157613.2438.01119.5151-.06448.7617-.218592.2108-.07434.3895-.148109.4723-.213423.3013-.237581.4413-.213091.4413.07751 0 .931299.8958.05828 1.1002-1.072286.088-.487009.1415-.754193.1773-.772046zm-4.4328 4.327901v0c .156.00026.2872.116429.3219.271302-.037.206756-.1921.371487-.3912.419096-.01.0019-.019.0043-.029.0057-.011.0019-.023.0024-.034.0036-.023.0024-.045.0042-.068.0047-.2468-.0053-.3687-.141745-.3421-.361735.122-.189147.3622-.342348.5416-.342615zm59.4878 4.461744c-.094.09429-1.9335.239778-4.0871.322977-3.12.120552-3.916.05457-3.916-.323494 1.297-.932186 7.3508-1.116938 8.0031.000529zm-91.8006.478523c-.9814 1.146149-2.5183 1.662292-3.7336 1.924948-3.0913.646781-4.8881 1.435972-4.8881 2.147155-.8158 2.815328-1.2705 5.387734-3.3538 6.545337-.6737.158185-2.0119.470055-2.3905-.05529-.2444-1.494065 2.6156-8.204513 3.2788-8.625313.7628-.365138 4.7691-1.650675 7.6583-1.883721 1.1515-.134913 2.2797-.04697 3.4289-.05311zm59.5349.655258c-.2367.146287-2.1877.289526-4.3357.318326-5.2337-.187467-3.6492-.809138.028-.900203 1.0974.04174 3.1292-.08994 4.3072.581877zm30.9588 10.717691c1.3652.00053 2.1234.06938 2.1234.203089-.2117.515791-.7262.589364-1.1581.656807-2.8898.292613-17.7676.99721-42.939 2.030367-6.2055.282507-12.4147.495007-18.6164.854728-1.5282-.005-2.0259-.109277-2.1978-.324528v-1.671215c6.8606-.191628 13.2256.08397 20.2851-.247522 2.1343-.106759 10.7068-.423786 19.05-.704866s17.511-.606454 20.3729-.722953c1.0399-.03409 2.1181-.07316 3.0799-.07391zm.2429 11.624097v0c1.6738.0103 2.6935.0608 2.8985.154512-4.6653.609354-8.0522.544117-11.8669.625285-1.3041.111267-21.1139.473359-32.3675.752409-24.34.60354-23.1066.592051-23.1066.213941 0-.16634 4.8815-.409409 10.8479-.540019 9.8577-.2158 19.5134-.445662 47.0958-1.122412 2.1881-.04908 4.3613-.07434 6.4983-.08372z" stroke-width=".35277778"/></g></g></svg>