<svg xmlns="http://www.w3.org/2000/svg" preserveAspectRatio="xMidYMid" viewBox="0 0 450.05 156.018" xmlns:xlink="http://www.w3.org/1999/xlink">
  <defs>
    <linearGradient id="a" x1="-1869" x2="-1869" y1="794.4" y2="828" gradientTransform="matrix(1.3 0 0 1.3 1365 -35.3)" gradientUnits="userSpaceOnUse">
      <stop offset="0" stop-color="#696969"/>
      <stop offset=".17" stop-color="#c7c7c9"/>
      <stop offset=".36" stop-color="#f9f9ff"/>
      <stop offset=".73" stop-color="#ccccce"/>
      <stop offset="1" stop-color="#696969"/>
    </linearGradient>
    <linearGradient id="d" x1="259" x2="259" y1="77.16" y2="79.18" gradientTransform="translate(.1 -1.4)" gradientUnits="userSpaceOnUse">
      <stop offset="0" stop-color="#1c072d"/>
      <stop offset=".29" stop-color="#5700aa"/>
      <stop offset=".64" stop-color="#4b127b"/>
      <stop offset="1" stop-color="#290a43"/>
    </linearGradient>
    <linearGradient id="e" x1="-31.29" x2="-31.29" y1="-347.3" y2="-248" gradientTransform="matrix(0 0 0 0 253.5 82.9)" gradientUnits="userSpaceOnUse">
      <stop offset="0" stop-color="#141414"/>
      <stop offset=".15" stop-color="#0a0a0a"/>
      <stop offset=".3" stop-color="#6d6d6d"/>
      <stop offset=".44"/>
      <stop offset=".62" stop-color="#141414"/>
      <stop offset=".75" stop-color="#262626"/>
      <stop offset="1" stop-color="#040404"/>
    </linearGradient>
    <linearGradient id="c" x1="259.1" x2="259.1" y1="77.16" y2="79.18" gradientTransform="translate(.1 -1.4)" gradientUnits="userSpaceOnUse" xlink:href="#a"/>
    <linearGradient id="b" x1="255.7" x2="255.7" y1="79.19" y2="80.03" gradientTransform="translate(.1 -.7)" gradientUnits="userSpaceOnUse" xlink:href="#a"/>
  </defs>
  <path fill="#fff" d="M50.28 99.51c23.71-17.05 46.87 1.912 47.11 24.1.087 8.89-13.05 29.15-29.88 27.4-31.48-3.29-35.35-38.45-17.23-51.47z"/>
  <path d="M67.55 88.03c16.74 0 34.97 11.74 34.97 34.92.3 16.37-14.51 33.07-33.64 33.07-19.49 0-34.57-14.83-34.57-34.29 0-20.03 17.2-33.7 33.22-33.7zm27.03 43.26c5.205-15.95-2.724-31.92-20.6-36.59-20.88-3.316-33.12 13.21-33.61 25.64-.853 14.32 8.788 24.51 18.75 28.11 17.89 5.632 32.48-6.21 35.46-17.17zm-36.7 14.51c2.512-4.984 4.61-8.765 7.345-13.45.735-1.056 1.078-1.033 3.518.234 3.322 1.727 3.996 2.404 4.494 4.508 1.04 3.35 2.27 6.5 3.012 10.07-2.32 3.197-20.53.965-18.37-1.377zm17.22 1.36c-.6-.252-1.83-1.37-2.108-1.915-.404-.796-2.27-9.094-2.088-9.273.18-.184.72-.203 1.033-.037.62.328.217-.442-.482-.92-.952-.65-4.76-2.635-5.084-2.57-1.24.144-7.42 11.92-7.61 13.55.15.815.59.655.59-.216 0-.44.15-.82.48-1.24 1.47-2.39 5.65-12.15 6.79-11.22.42 0 1.93.77 2.26 1.14 1.47 4.65 1.84 7.12 2.96 11.64.32.87-.11 2.04-.19 2.28 1.35.24 3.75-.97 3.47-1.22zm-1.282-16.9c2.143-1.894 4.54-3.143 6.788-3.212 1.987.394 9.78 3.385 11.84 4.74.61 1.775-6.124 10.96-11.01 13.5-2.41 2.38-6.202-11.88-7.617-15.02zm7.357 13.99c.047-.332-.452-.19-.65-.272-1.824-4.853-3.718-8.398-5.05-13.08.055-.47.868-.962 2.045-1.236 1.33-.43 7.322 2.61 9.79 3.81 2.396 1.172 3.024 1.638 3.048 2.263.27.094 1.95-2.954 1.957-3.593-.623-.016-1.91.46-3.086.483-3.16-1.148-6.1-2.265-8.83-4.045.02-.182.29-.455.59-.605.83-.417.66-.58-.51-.5-2.25.454-3.98 1.288-5.56 2.756-.43.86-.42.93.2 2.33 1.46 3.9 3.3 7.94 4.72 11.45.2.53.59 1.07.77 1.07.44-.08.58-.46.54-.81zm-37.88-15.41c5.953-1.163 14.49-2.996 16.21-2.37 1.138 1.257 2.067 5.89 1.27 7.567-.736 1.583-6.43 10.61-6.847 10.46-2.968-.063-13.12-13.22-10.63-15.67zm10.35 15.24c-1.337-2.39 3.122-6.997 5.322-10.64.457-.42.804-.234.996.53.16.8.175.612.482-.03-.037-3.19-.067-7.993-2.914-7.04-4.49.633-9.27 1.335-13.12 2.402-.22.223-.04.8.2.647 4.28-.76 8.83-1.86 12.91-2.34 1.35-.28 2.28 2.96 1.15 4.07-2 3.22-6.18 10.43-8.14 9.47-.7-.23-.23.43 1.21 1.73.49.64 1.71 1.33 1.92 1.19zm12.31-16.73c1.13-1.32 3.057-.996 3.552.764.116.864-.372 1.77-1.124 2.132-1.94.744-3.456-1.206-2.428-2.898zm5.305-2.08c.69-1.83 2.437-1.46 2.896-1.037 1.255.714 1.086 2.51.136 3.146-1.534 1.08-3.548-.34-3.032-2.11zm6.397-3.73c0-.536.682-3.502 1.034-4.496 1.46-4.152 7.9-6.252 11.99-8.188 3.36 4.168 4.11 11.84 3.25 18.04-.59 1.372-17.58-2.512-16.27-5.35zm15.42 4.495c0-.248-.21-.322-1.18-.414-4.24-1.15-10.14-2-12.88-4.5.06-.83.28-1.52.514-2.32.16-1.43 7.79-4.08 12.09-5.9.44 0 .8-.07.8-.16 0-.34-1.55-3.56-1.68-3.47.2 3.27-4.08 4.34-6.51 5.79-3.65 1.81-3.84 1.84-3.84.65 0-.6 0-.6-.34-.3-1.13 1.5-1.78 5.2-1.52 6.92 4.11 1.96 8.66 2.74 12.36 4.12 1.14.54 2.13.25 2.21-.39zm-31.51-2.78c.69-.72 2.455-.34 2.848.648.706 1.085-.11 2.872-1.795 2.85-2.063-.25-2.367-2.665-1.054-3.497zm-19.1 1.35c-1.287.137-.815-13.64 5.065-18.1 4.493 4.193 11.7 9.66 12.13 11.87-.57 1.823-3.34 4.992-5.09 5.324-3.885.33-8.4.92-12.11.9zm.717-1.325c1.4-1.38 1.418-1.384 6.418-1.29 2.437.047 4.615.124 4.837.17.4.085.39.095-.25.768-.71.74-.69.807.14.442.99-.435 3.59-3.24 4.26-4.584.6-1.214.59-1.23-1.47-3.134-2.24-2.173-4.85-4.407-6.99-6.32-1.58-1.555-2.45-1.998-2.69-1.36 3.43 3.45 7.87 6.733 10.74 9.918 0 .395-1.48 2.082-2.02 2.3-2.37.98-13.08.61-13.88-.117-.11.104-.17 3.406-.07 3.67.77 1.383.46-.08.97-.462zm28.57-3.412c.058-2.33 2.502-2.576 3.537-1.29.96 1.874-.41 2.863-.85 2.95-1.47.494-2.54-.47-2.68-1.66zm-9.983-2.305c.62-.68 2.1-1.16 3.03-.006 1.31 1.72-.39 3.167-1.24 3.19-1.97.035-2.73-1.777-1.77-3.183zm5.08-.615c-.41-1.912 1.07-2.68 2.05-2.604 2.23.36 2.22 2.955.68 3.72-.77.255-1.83.428-2.73-1.115zm3.11-9.05c-.04-1.426 1.61-12.07 2.34-11.96 3.1-.288 10.9 3.897 13.84 6.86 1.92 1.832 2.06 2.228 1.06 3.135-4.48 3.425-11.83 9.078-12.75 8.846-.82-.37-4.75-3.95-4.49-6.89zm5.53 5.934c3.7-2.622 7.88-5.455 11.16-8.203.13-.24.13-.45 0-.69-.23-.44-.51-.45-.62-.01-4.11 3.36-7.27 5.87-11.4 8.46-1.9-2.02-1.78-3.67-1.46-5.23 1.28-3.64 1.65-10.62 2.9-10.73.31-.23.29-.26-.35-.54-1.07-.5-2.3-.56-3.44-.69-.02.38 1.38 2.22 1.27 3.61-.17 2.42-.83 4.92-1.29 7.2-.17 1.17-.45 1.71-.88 1.71-.47-.33-.75-.68-1.16-1.13-.09.65.14 1.26.3 1.84 1.46 2.11 3.07 5.24 4.98 4.37zm-8.27-18.12c.3.847-.47 17.18-1 17.38-1.1.293-4.49.36-6.73-.053-3.08-2.95-8.79-7.75-9.09-9.86.84-3.21 11.86-8.38 16.83-7.47zm-1.26 16.53c.43-2.035.95-9.754.68-15.43-.53-.093-.57-.03-.59.976-.04 4.994-.51 9.176-.75 13.7-1.8.38-2.91.126-3.87-1.215-2.79-3.61-7.7-8.26-7.65-9.965-.8.027-2.27 1.963-2.62 2.634.59.07 1.2.158 1.7.25 2.74 2.288 5.17 5.162 7.04 8.114-.51.298-1.06.18-1.55-.007-.27.17.11.64.77.95.42.25 4.92.67 6.86-.01z"/>
  <path fill="#fff" d="M327 99.51c23.71-17.05 46.87 1.912 47.11 24.1.087 8.89-13.05 29.15-29.88 27.4-31.48-3.29-35.35-38.45-17.23-51.47z"/>
  <path d="M344.2 88.03c16.74 0 34.97 11.74 34.97 34.92.3 16.37-14.51 33.07-33.64 33.07-19.49 0-34.57-14.83-34.57-34.29 0-20.03 17.2-33.7 33.22-33.7zm27.03 43.26c5.205-15.95-2.724-31.92-20.6-36.59-20.88-3.316-33.12 13.21-33.61 25.64-.853 14.32 8.788 24.51 18.75 28.11 17.89 5.632 32.48-6.21 35.46-17.17zm-36.7 14.51c2.512-4.984 4.61-8.765 7.345-13.45.735-1.056 1.078-1.033 3.518.234 3.322 1.727 3.996 2.404 4.494 4.508 1.04 3.35 2.27 6.5 3.012 10.07-2.32 3.197-20.53.965-18.37-1.377zm17.22 1.36c-.6-.252-1.83-1.37-2.108-1.915-.404-.796-2.27-9.094-2.09-9.273.18-.184.72-.203 1.034-.037.62.328.217-.442-.482-.92-.952-.65-4.76-2.635-5.084-2.57-1.246.144-7.426 11.92-7.617 13.55.15.815.586.655.586-.216 0-.44.14-.82.48-1.24 1.46-2.39 5.64-12.15 6.78-11.22.41 0 1.93.77 2.25 1.14 1.47 4.65 1.84 7.12 2.95 11.64.32.87-.11 2.04-.19 2.28 1.34.24 3.75-.97 3.47-1.22zm-1.282-16.9c2.143-1.894 4.54-3.143 6.788-3.212 1.988.394 9.78 3.385 11.84 4.74.61 1.775-6.124 10.96-11.01 13.5-2.41 2.38-6.202-11.88-7.617-15.02zm7.357 13.99c.047-.332-.452-.19-.65-.272-1.824-4.853-3.718-8.398-5.05-13.08.055-.47.868-.962 2.045-1.236 1.33-.43 7.322 2.61 9.79 3.81 2.396 1.172 3.024 1.638 3.048 2.263.27.094 1.95-2.954 1.957-3.593-.623-.016-1.91.46-3.086.483-3.16-1.148-6.1-2.265-8.83-4.045.02-.182.29-.455.59-.605.83-.417.66-.58-.51-.5-2.25.454-3.98 1.288-5.56 2.756-.43.86-.42.93.2 2.33 1.46 3.9 3.3 7.94 4.72 11.45.2.53.59 1.07.77 1.07.44-.08.58-.46.54-.81zm-37.88-15.41c5.953-1.163 14.49-2.996 16.21-2.37 1.138 1.257 2.067 5.89 1.27 7.567-.736 1.583-6.43 10.61-6.847 10.46-2.968-.063-13.12-13.22-10.63-15.67zm10.35 15.24c-1.337-2.39 3.122-6.997 5.322-10.64.457-.42.805-.234.996.53.16.8.175.612.482-.03-.037-3.19-.067-7.993-2.914-7.04-4.49.633-9.27 1.335-13.12 2.402-.22.223-.04.8.2.647 4.28-.76 8.83-1.86 12.91-2.34 1.35-.28 2.28 2.96 1.15 4.07-2 3.22-6.18 10.43-8.14 9.47-.7-.23-.23.43 1.21 1.73.49.64 1.71 1.33 1.92 1.19zm12.31-16.73c1.13-1.32 3.057-.996 3.552.764.116.864-.372 1.77-1.124 2.132-1.94.744-3.456-1.206-2.428-2.898zm5.305-2.08c.69-1.83 2.438-1.46 2.896-1.037 1.255.714 1.087 2.51.136 3.146-1.534 1.08-3.548-.34-3.032-2.11zm6.397-3.73c0-.536.682-3.502 1.034-4.496 1.46-4.152 7.9-6.252 11.99-8.188 3.36 4.168 4.11 11.84 3.25 18.04-.59 1.372-17.58-2.512-16.27-5.35zm15.42 4.495c0-.248-.21-.322-1.18-.414-4.24-1.15-10.14-2-12.88-4.5.06-.83.282-1.52.514-2.32.16-1.43 7.79-4.08 12.09-5.9.44 0 .8-.07.8-.16 0-.34-1.55-3.56-1.68-3.47.2 3.27-4.08 4.34-6.51 5.79-3.65 1.81-3.84 1.84-3.84.65 0-.6 0-.6-.34-.3-1.13 1.5-1.78 5.2-1.52 6.92 4.11 1.96 8.66 2.74 12.37 4.12 1.14.54 2.13.25 2.21-.39zm-31.51-2.78c.69-.72 2.455-.34 2.848.648.706 1.085-.11 2.872-1.795 2.85-2.063-.25-2.367-2.665-1.054-3.497zm-19.1 1.35c-1.287.137-.815-13.64 5.065-18.1 4.492 4.193 11.7 9.66 12.13 11.87-.57 1.823-3.34 4.992-5.09 5.324-3.885.33-8.4.92-12.11.9zm.717-1.325c1.4-1.38 1.418-1.384 6.418-1.29 2.437.047 4.615.124 4.837.17.4.085.39.095-.25.768-.71.74-.69.807.14.442.99-.435 3.59-3.24 4.26-4.584.6-1.214.59-1.23-1.47-3.134-2.24-2.173-4.85-4.407-6.99-6.32-1.58-1.555-2.45-1.998-2.69-1.36 3.43 3.45 7.87 6.733 10.74 9.918 0 .395-1.48 2.082-2.02 2.3-2.37.98-13.08.61-13.88-.117-.11.104-.17 3.406-.07 3.67.77 1.383.46-.08.97-.462zm28.57-3.412c.058-2.33 2.502-2.576 3.537-1.29.96 1.874-.41 2.863-.85 2.95-1.47.494-2.54-.47-2.68-1.66zm-9.983-2.305c.62-.68 2.1-1.16 3.03-.006 1.31 1.72-.39 3.167-1.24 3.19-1.97.035-2.73-1.777-1.77-3.183zm5.08-.615c-.41-1.912 1.07-2.68 2.05-2.604 2.23.36 2.22 2.955.68 3.72-.77.255-1.83.428-2.73-1.115zm3.11-9.05c-.04-1.426 1.61-12.07 2.34-11.96 3.1-.288 10.9 3.897 13.84 6.86 1.92 1.832 2.06 2.228 1.06 3.135-4.48 3.424-11.83 9.078-12.75 8.846-.82-.37-4.75-3.95-4.49-6.89zm5.53 5.934c3.7-2.622 7.88-5.455 11.16-8.203.13-.24.13-.45 0-.69-.23-.44-.51-.45-.62-.01-4.11 3.36-7.27 5.87-11.4 8.46-1.9-2.02-1.78-3.67-1.46-5.23 1.28-3.64 1.65-10.62 2.9-10.73.31-.23.29-.26-.35-.54-1.07-.5-2.3-.56-3.44-.69-.02.38 1.38 2.22 1.27 3.61-.17 2.42-.83 4.92-1.29 7.2-.17 1.17-.45 1.71-.88 1.71-.47-.33-.75-.68-1.16-1.13-.09.65.14 1.26.3 1.84 1.46 2.11 3.07 5.24 4.98 4.37zm-8.27-18.12c.3.847-.47 17.18-1 17.38-1.1.293-4.49.36-6.73-.053-3.08-2.95-8.79-7.75-9.09-9.86.84-3.21 11.86-8.38 16.83-7.47zm-1.26 16.53c.43-2.035.95-9.754.68-15.43-.53-.093-.57-.03-.59.976-.04 4.994-.51 9.176-.75 13.7-1.8.38-2.91.126-3.87-1.215-2.79-3.61-7.7-8.26-7.65-9.965-.8.027-2.27 1.963-2.62 2.634.59.07 1.2.158 1.7.25 2.74 2.288 5.17 5.162 7.04 8.114-.51.298-1.06.18-1.55-.007-.27.17.11.64.77.95.42.25 4.92.67 6.86-.01z"/>
  <path fill="#fff" d="M296.5 8.847c-6.788-.186-1.866-.385-5.244.003-.543 1.498 4.88 26.9 7.32 40.35 4.795-.258 4.002-.5 7.56-1.29.723-6.25-9.128-34.8-9.635-39.06zM9.9 65.807c-5.135 8.17-4.405 18.72-6.03 26.31.494 1.404 12.66-3.777 14.12-4.666 1.63-8.01 9.8-19.03 9.8-19.04 9.838-1.15 14.68-3.52 18.25-8.99-7.056-4.95-30.2.38-36.13 6.4zm203.1 62.88c-17.04.84-94.82-2.775-101.1 2.892 35.28 2.55 87.46.09 115.6-.39 24.39-.81 51.3-.21 75.23-2.33-.386-.53-1.337-1.28-3.112-1.6-5.568-.98-58.52 2.29-86.78 1.41zm188.8-126.7c-6.212-2.527-15.93.273-20.79-1.07-50.23.07-105-.377-142.2 1.084-7.96.51-19.56 1.89-26.07 4.31 7.05.04 182.5-1.81 193.5-1.32z"/>
  <path fill="#8a112b" d="M422.7 11.98c1.193-.6 1.213-.014 7.65 9.744 5.733 8.962 11.87 21.82 14.02 29.09 1.564 4.575 2.48 20.68 1.144 21.46-.444.13-4.888 1.724-5.748-.28-.758-1.765-.16-6.86-.63-11.42-.964-9.196-3.228-17.92-6.898-25.98-3.643-9.928-10.54-16.92-11.67-22.67z"/>
  <path d="M231.1 2.232c-4.624.544-13.75 1.492-22.03 4.11-9.526.124-22.37.99-28.17 1.657-1.238.14-4.057.29-6.108.97-.87.28-.442-2.38-3.267-1.31.277-3.64-1.274-3.2-5.054-1.01-1.93 2.04-.07 4.39-7.32 7.36-17.22 8.42-35.86 23.25-48.78 35.08-21.91 1.2-45.73 1.97-63.92 4.81-9.26 1.26-27.47 3.82-34.54 7.43-5.94 2.64-8.9 14.3-9.92 19.85-2.07 8.16-2.08 21.14-1.97 27.21.22 11.73 1.35 12.61 3.52 15.9 2.43 6.41 6.4 5.27 9.69 9.7.28 1.22.38 5.05 1.34 5.6 5.12.99 12.49 1.73 17.62 1.36-2-25.98-2.06-39.1 12.08-49.83 13-9.88 32.1-13.68 49.34-.15 10.1 7.92 11.47 16.55 14.64 28.7.23 3.83 1.99 11.67 2.56 14.26.56.22 7.74.4 15.24.27 29.83.03 61.45.7 92.48.33 28.61-.69 58.91-2.7 85.13-3.47 1.61-5.42 1.65-7.69 2.27-11.87 4.33-15.35 7.39-21.81 14.74-28.35 14.58-12.97 37.93-9.22 47.98-2.37 4.83 3.29 16.19 16.06 17.19 35.37 4.6-.3 22.69-2.01 30.12-2.62 15.58-1.29 22.26-2.21 22.33-2.53.54.02 8.54-10.39 10.65-15.71 1.11-4.25.99-8.24 1.03-11.32.12-3.04.42-7.36-1.24-9.03-1.48-2.37-1.9-1.49-2.47-2.73.24-1.68-.12-3.14-.58-7.88l-5.14-.26c-.11-2.72.3-3.91-.06-5.78-.85-11.05.1-9.42-1.82-17.58-2.22-6.478-8.11-20.02-9.84-22.97-3.93-6.59-3.99-6.74-7.73-12.62-.32-1.088 3.59.01 3.47.16-2.53-3.89.74.93 4.1-2.18-.27-1.25 1.68-5.25-4.91-5.76-4.57-.42-11.83-.12-17.62-.82-3.36-1.8-2.1-2.59-7.64-3.78-21.34-.97-61.16-.18-96.09.42-6.09.22-64.91.01-71.36 1.35zm164.5-.723c5.103-.25 5.422 1.48 9.248 2.89-76.07-.5-131.2-.02-191.7 1.74 1.897-.56 12.67-2.34 18.27-3.17 4.082-.92 44.37-1.43 67.63-1.43 10.21-.11 90.68-.56 96.55-.05zm-97.52 44.82c-1.645-10.8-3.787-22.02-6.403-35.25l-.377-1.85c1.5 0 2.85.08 4.32.09 5.49 16.57 6.782 25.18 9.644 36.72-.244 2.36-2.776 2.01-6.812 2.1zM43.78 59.69c-2.25 3.624-3.814 4.96-7.02 5.65-8.29 1.028-11.78 1.9-13.87 4.872-4.252 4.312-3.824 12.12-9.627 18.18-1.98.757-6.377 1.79-7.8 1.536.172-3.32 3.238-22.5 4.99-23.62 13.26-6.256 21.35-5.062 33.31-6.626zm257.8 68.81c-27.89 1.725-72.68 1.67-83.26 2.227-10.93.15-24.45.38-35.87.455-25.37.027-62.33 1.37-68.92.114.31-.48 1.713-1.306 2.634-.92 5.503.396 53.53-.234 102-.84 30.9-.384 56.1-1.45 82.21-2.008z"/>
  <path fill="#fff" d="M214 10.84c-16.84-.02-37.5-.464-53.49 7.785-13.99 9.186-31.72 18.07-40.64 32.59.53 1.3 1.4 2.348 2.86 2.963l89.87-3.205.187-2.533-89.26 2.79c.186-5.793 28.9-26.08 40.45-31.1 16.98-7.367 35.04-6.806 50.04-7.38zm-8.138 49.78l-22.57 1.036.415 3.94 24.55-.726zm5.51 34.26l-92.79 1.517 1.874 7.983 91.21-5.138z"/>
  <path d="M214 11c-18.49.54-26.88.894-32.7 1.977-13.84 1.992-24.52 7.54-35.67 15.44-7.2 5.645-17.55 13.15-23.82 20.37-.707.96-3.994 5.376 3.948 4.817 11.95-.29 26.55-.833 38.63-1.236 18.27-.383 29.4-1.285 48.18-1.68.02-.08.17-2.072.17-2.072-42.11.925-73.56 2.848-78.76 2.937-2.495.043-11.71 1.045-11.09-.34 1.748-5.277 14.69-15.77 25.39-22.82 17.62-11.91 27.44-13.89 49.79-15.4 7.18-.193 8.08-.277 15.92-.467zm-7.913 51.02c-1.242-1.075-12.7-.283-16.15-.08-9.204.39-5.137 3.683-3.64 3.174 7.1-.728 16.52.113 20.14-1.153zm5.292 33.1c-13.45.297-19.74.742-32.67.925-20.43.36-40.94.672-59.05 1.177.21 7.684 1.27 6.54 8.47 5.783 32.03-1.762 54.98-3.284 83.41-3.88zm-88.82 29.46c-5.18-10.67-5.62-23.24-7.27-35.31-.27-11.52-1.26-23.66-.45-34.23.56-3.373 1.67-5.842 3.43-7.766 1.91-2.42 5.23-5.21 7.88-7.33 6.82-5.712 14.02-10.74 21.58-16.03 9.4-6.368 19.62-10.89 30.82-12.85 7.63-1.76 14.61-1.903 21.73-1.94l13.65-.13c-.04 13.32-.04 27.94-1.5 42.87 0 0-1.02 19.42-1.14 30.15-.07 6.182-.01 12.07.21 17.68.88 12.77 2.12 14.99 3.87 24.4z"/>
  <path fill="#290a43" d="M259.2 78.47c-.08 0-.162.012-.234.026l-.03.006v.85h.18l-.002-.383c.044.03.077.02.128.03.01 0 .028.03.036.04.034.06.05.12.064.18.013.05.027.08.047.13h.19c-.03-.05-.05-.11-.06-.16-.01-.03-.02-.08-.03-.1-.02-.06-.05-.11-.09-.15.03-.02.05-.04.08-.07.03-.04.04-.09.04-.14-.01-.08-.04-.15-.1-.2-.07-.06-.16-.08-.24-.08zm3.714 0c-.047 0-.093.01-.137.026-.107.045-.185.13-.228.225-.05.13-.05.27-.01.39.04.11.12.19.22.23.1.04.22.04.32 0 .1-.05.18-.13.22-.23.04-.12.04-.24 0-.35-.04-.11-.12-.19-.21-.24-.05-.02-.11-.03-.16-.03h-.02zm-5.39 0c-.043 0-.08.003-.117.006-.056.006-.096.013-.148.023v.85h.17v-.36c.02 0 .04.02.06.02h.05c.03-.01.07-.01.1-.03.07-.03.12-.08.16-.14.03-.07.03-.15 0-.22-.04-.07-.1-.12-.17-.15-.04-.02-.09-.02-.14-.02zm-3.29 0c-.08 0-.162.013-.234.027l-.03.005v.852h.18v-.38c.02.004.04.014.064.018.017.004.037.002.054 0 .046.024.067.092.08.133.01.032.02.065.028.1.013.048.028.087.047.13h.192l-.024-.052c-.03-.067-.04-.136-.06-.204v-.01c-.01-.04-.02-.07-.04-.1-.01-.02-.02-.04-.04-.06.08-.05.13-.13.13-.21 0-.08-.04-.15-.09-.2-.07-.06-.15-.08-.23-.08zm4.147 0c-.05 0-.1.007-.15.026-.1.045-.18.13-.23.225-.04.13-.05.27 0 .39.05.11.12.19.22.23.11.04.22.04.32 0 .11-.05.18-.13.22-.23.04-.12.04-.24.01-.35-.03-.11-.11-.19-.21-.24-.05-.02-.11-.03-.16-.03zm-5.21 0v.152h.24v.717h.18v-.72h.24v-.15h-.65zm1.92 0l-.31.87h.19l.07-.192h.28l.07.19h.19l-.32-.867zm.61 0v.87h.17v-.568l.36.567h.16v-.87h-.17v.54l-.34-.55h-.16zm1.11 0c-.07.003-.14.024-.19.07-.04.044-.07.103-.07.165.01.088.05.155.11.204.06.04.13.06.18.1.05.02.07.05.08.1 0 .03-.01.05-.03.07-.06.03-.12.03-.18.02l-.09-.03-.03-.02-.05.14.03.01c.05.02.09.03.13.04.04.01.08.01.12.01.08 0 .16-.02.22-.07.05-.05.08-.11.09-.18 0-.09-.05-.16-.11-.21-.06-.05-.13-.08-.19-.11-.03-.02-.05-.03-.06-.05-.02-.03-.02-.05-.01-.08.02-.04.05-.05.09-.05.05 0 .1.01.15.02l.03.01.06-.14-.04-.01c-.07-.03-.14-.04-.21-.04zm2.9 0v.152h.24v.717h.18v-.72h.24v-.15zm1.07 0l-.31.87h.18l.07-.192h.28l.07.19h.19l-.32-.867h-.15zm.56 0v.152h.24v.717h.18v-.72h.24v-.15h-.65zm.87 0v.87h.18v-.87zm1.31 0v.87h.16v-.568l.36.567h.15v-.87H264v.54l-.346-.55h-.162zm-.56.15c.07.002.12.032.16.076.05.066.07.145.07.222-.01.078-.02.155-.07.215-.04.05-.1.08-.16.083-.07 0-.12-.033-.16-.08-.05-.065-.07-.145-.07-.218 0-.08.02-.16.07-.222.05-.042.1-.074.16-.076zm-8.69.003c.04 0 .07.016.1.036.03.02.04.05.04.08s-.01.06-.03.08c-.02.02-.05.04-.08.05-.03 0-.05.01-.07.03-.01.01-.03.04-.03.02v-.31c.03-.01.06-.01.09-.01zm3.29 0c.04 0 .08.014.1.037.03.023.04.055.04.088 0 .074-.06.11-.12.13-.03.005-.05.01-.07.026-.01.008-.02.032-.03.046v-.322c.03-.002.06-.005.09-.005zm1.67 0c.03 0 .05.004.07.01.06.023.09.056.09.107 0 .056-.03.098-.07.12-.02.022-.09.016-.12.04-.03.03-.04.043-.04.062v-.334c.02-.004.05-.006.07-.005zm-.82 0c.06.003.12.03.16.073.05.066.07.145.07.222 0 .078-.02.156-.06.216-.04.05-.1.08-.16.083-.07-.002-.12-.034-.16-.08-.05-.066-.06-.146-.06-.22 0-.107.05-.23.14-.277.028-.01.056-.016.08-.016zm-3.21.127l.11.32c-.01-.023-.05-.073-.08-.073h-.12zm5.68 0l.116.317c-.02-.024-.023-.055-.082-.064l-.12-.006.09-.247z"/>
  <path fill="url(#b)" d="M257.4 78.5c-.04 0-.078.002-.113.005s-.073.01-.114.017v.785l.105.003v-.724c.04-.004.08-.006.122-.006.025 0 .05.004.07.012.022.008.04.02.058.034.016.014.03.03.038.05.01.02.015.042.015.065 0 .03 0 .05-.01.07-.01.02-.02.04-.03.05-.01.02-.03.03-.05.04-.02.01-.04.01-.06.01-.02 0-.04.01-.06.02-.01.02-.03.03-.03.05.02.01.04.01.06.01h.05c.04 0 .07-.01.1-.02s.06-.02.09-.04.05-.04.06-.07c.02-.02.03-.06.03-.09s0-.06-.02-.09c-.01-.03-.03-.05-.06-.07-.02-.02-.05-.04-.09-.05-.03-.01-.07-.02-.12-.02zm4.692.002v.795h.102v-.795zm-7.98.002c-.04 0-.077.003-.112.007-.035.01-.073.01-.114.02v.79h.105v-.72c.03 0 .05-.01.07-.01h.06c.03 0 .05.01.07.01.02.01.04.02.06.04.02.02.03.03.04.05.01.02.02.04.02.06 0 .02 0 .05-.01.06-.01.02-.02.04-.03.05-.01.02-.03.03-.05.04-.02.01-.04.01-.06.02-.02 0-.04.01-.06.02-.01.02-.02.03-.03.05.02.01.04.01.06.01h.06c.03.01.05.03.07.06.02.03.03.06.04.09l.03.1c.01.04.02.07.04.1h.11c-.01-.04-.03-.07-.04-.11 0-.03-.01-.07-.02-.1s-.02-.06-.03-.08c-.01-.03-.03-.05-.06-.07l-.02-.01.026-.01c.04-.02.07-.04.097-.07.026-.03.04-.07.04-.11 0-.03-.01-.06-.02-.09-.015-.03-.035-.05-.06-.07-.026-.02-.057-.04-.09-.05-.035-.01-.076-.02-.12-.02zm4.965 0c-.04 0-.078.003-.113.007-.035.01-.073.01-.114.02v.79h.105v-.72c.027 0 .05-.01.066-.01h.06c.03 0 .05.01.07.01.02.01.04.02.06.04s.03.03.04.05c.01.02.02.04.02.06 0 .02 0 .05-.01.06s-.02.04-.04.05c-.01.02-.03.03-.05.04-.02.01-.04.01-.06.02-.02 0-.04.01-.06.02-.01.02-.02.03-.03.05.02.01.04.01.06.01h.06c.03.01.05.03.07.06.02.03.03.06.04.09l.03.1c.01.04.02.07.04.1h.11c-.01-.04-.03-.07-.04-.11l-.03-.1c-.01-.03-.02-.06-.03-.08-.01-.03-.03-.05-.06-.07l-.02-.01.03-.01c.04-.02.07-.04.1-.07.03-.03.04-.07.04-.11 0-.03 0-.06-.02-.09-.01-.03-.03-.05-.06-.07-.02-.02-.05-.04-.09-.05-.03-.01-.07-.02-.12-.02zm-2.977.003v.615l.002.038-.013-.036-.4-.617h-.11v.795h.09v-.673l.01.03.4.63h.09v-.79zm7.808 0v.615l.002.038-.013-.036-.392-.617h-.105v.795h.09v-.635l-.002-.038.015.03.404.63H264v-.79zm-8.83 0h-.102l-.29.796h.105l.07-.19h.28c-.01-.022-.02-.04-.03-.055-.01-.017-.03-.025-.06-.025h-.15l-.01.003.01-.023.13-.352.01-.03.01.03.23.65h.12zm5.68 0h-.103l-.29.796h.105l.066-.19h.28c-.008-.022-.02-.04-.034-.055-.014-.017-.034-.025-.06-.025h-.15l-.014.003.012-.023.125-.352.008-.03.007.03.225.65h.114zm-4.095.005c-.033 0-.064.006-.09.016-.028.01-.052.024-.072.042-.02.02-.03.04-.04.064-.01.024-.01.05-.01.076 0 .04.01.076.03.103.02.028.04.052.07.073.03.02.06.037.09.053.03.01.06.03.09.04.03.01.05.03.07.05.02.02.03.04.03.08s-.01.07-.04.09c-.03.02-.07.04-.12.04-.02 0-.05-.01-.09-.01-.03-.01-.06-.02-.1-.04l-.02.07c.02.01.04.01.06.02.02.01.04.01.06.01.02 0 .04.01.06.01h.05c.04 0 .08-.01.11-.02.04-.01.06-.03.09-.05.03-.02.04-.05.05-.07.02-.03.02-.05.02-.08 0-.04 0-.08-.02-.11s-.04-.05-.07-.08c-.03-.02-.06-.04-.09-.05l-.09-.05c-.03-.02-.05-.03-.07-.05-.02-.02-.03-.05-.03-.08 0-.02.01-.03.01-.04l.03-.04c.01-.01.03-.02.04-.02.02-.01.04-.01.06-.01h.07c.03 0 .06.01.09.02l.03-.07c-.04-.02-.07-.02-.1-.03-.03 0-.06-.01-.09-.01zm1.583 0c-.044 0-.088.01-.132.026-.044.016-.084.042-.12.076-.036.035-.066.078-.09.13-.02.05-.032.112-.032.182 0 .065.01.123.03.174.02.05.046.095.08.13.033.035.072.062.118.08.045.02.094.03.146.03.05 0 .098-.01.143-.03.04-.018.08-.046.11-.082.03-.036.06-.08.08-.13.02-.05.03-.108.03-.172 0-.056-.01-.11-.03-.16s-.04-.094-.07-.13c-.04-.04-.07-.07-.12-.09-.05-.023-.1-.033-.16-.033zm4.556 0c-.044 0-.088.01-.132.026-.044.016-.084.042-.12.076-.036.035-.066.078-.088.13-.023.05-.034.112-.034.182 0 .065.01.123.03.174.02.05.046.095.08.13.033.035.073.062.118.08.045.02.094.03.146.03.05 0 .098-.01.143-.03.045-.018.085-.046.12-.082.033-.036.06-.08.08-.13.02-.05.03-.108.03-.172 0-.056-.007-.11-.024-.16-.01-.05-.04-.094-.07-.13-.03-.04-.07-.07-.11-.09-.04-.023-.1-.033-.16-.033zm-9.726.002v.078h.235v.717h.11v-.72h.24v-.08zm6.526 0v.078h.235v.717h.107v-.72h.236v-.08zm1.623 0v.078h.235v.717h.107v-.72h.236v-.08zm-2.98.078c.036 0 .07.008.102.023.032.016.06.038.083.067.024.03.042.065.056.106.014.04.02.087.02.138 0 .047-.006.09-.018.13-.013.042-.03.078-.053.108s-.05.053-.082.07c-.032.018-.068.027-.107.027-.038 0-.072 0-.104-.02-.032-.01-.06-.04-.083-.07-.03-.03-.05-.06-.06-.1-.01-.04-.02-.08-.02-.13s.01-.09.02-.14c.01-.04.03-.07.06-.1.02-.03.05-.05.08-.06.03-.01.06-.02.1-.02zm4.557 0c.035 0 .07.008.1.023.033.016.06.038.084.067.024.03.042.065.056.106.014.04.02.087.02.138 0 .047-.006.09-.018.13-.013.042-.03.078-.053.108-.02.03-.05.053-.08.07-.03.018-.07.027-.1.027-.04 0-.07 0-.1-.02-.03-.01-.06-.04-.08-.07-.02-.03-.04-.06-.05-.1-.01-.04-.02-.08-.02-.13s.01-.09.02-.14c.02-.04.04-.07.06-.1s.05-.05.09-.06c.04-.01.07-.02.11-.02z"/>
  <path fill="url(#c)" stroke="url(#c)" stroke-width=".134" d="M256.3 76.52c-.136.003-.27.043-.366.125-.098.087-.144.21-.145.327 0 .17.09.3.21.393.13.094.27.15.4.228.11.067.21.168.21.292-.01.08-.04.152-.1.202-.08.058-.17.08-.26.08-.16-.002-.31-.04-.43-.097l-.07.18c.09.043.18.073.27.09.16.03.34.04.49-.01.13-.048.25-.135.3-.253.06-.137.05-.306-.02-.425-.09-.136-.22-.23-.36-.297-.13-.07-.26-.134-.36-.234-.09-.1-.07-.24.01-.33.11-.09.24-.07.36-.06.06.01.13.02.2.05l.07-.17c-.15-.04-.31-.07-.46-.07zm1.522.003c-.354 0-.64.192-.775.546-.086.23-.092.5-.003.75.207.47.68.66 1.118.47.463-.25.593-.76.457-1.21-.07-.24-.23-.41-.43-.51-.13-.04-.26-.07-.38-.06zm2.374.028h-.265l.01 1.12c.01.19.06.38.18.51.14.14.33.19.5.19.19 0 .37-.07.49-.19.13-.14.19-.33.19-.51v-1.12h-.26v1.16c0 .13-.03.25-.11.34-.08.09-.19.12-.29.12-.12 0-.22-.05-.3-.12-.08-.1-.11-.22-.11-.34zm-6.65.01c-.108 0-.214.01-.318.03l-.145.03v1.77h.268v-1.6c.09-.01.18-.01.26-.01.1 0 .2.04.27.1s.12.15.12.24-.04.17-.1.23c-.05.05-.13.1-.2.11-.05.01-.09.03-.13.06-.03.04-.05.06-.07.1.04.01.07.01.1.02h.15c.06.03.09.08.12.14.07.14.11.28.14.42.02.08.05.15.08.22h.28c-.08-.16-.1-.336-.16-.49-.04-.15-.13-.28-.25-.34l.06-.025c.09-.042.15-.1.21-.174.09-.15.1-.33.03-.47-.07-.15-.21-.24-.34-.28-.11-.03-.22-.04-.33-.04zm.978.03v1.79h1.07v-.2h-.803v-1.39h.77v-.2zm4.317 0v1.79h.99c0-.06.01-.14.01-.2h-.72v-1.59zm2.6 0v.2h.51v1.59h.27v-1.59h.51v-.2zm1.44 0v1.79h1.07v-.2h-.8v-1.39h.77v-.2zm-5.03.13c.15 0 .29.06.39.2.21.3.21.77.01 1.05-.19.3-.61.27-.81 0-.2-.31-.2-.77.01-1.04.12-.13.27-.2.42-.2zm-2.69.63c-.04 0-.09.02-.12.05-.03.04-.06.08-.07.12h.57v-.17h-.37zm8.35 0c-.05 0-.09.02-.12.05-.03.04-.06.08-.07.12h.57v-.17h-.37z"/>
  <path fill="url(#d)" stroke="url(#d)" stroke-width=".066" d="M257.9 76.51c-.116-.002-.23.02-.343.064-.226.09-.37.263-.44.423-.066.16-.09.292-.09.44 0 .36.203.746.51.87.225.087.477.086.69-.005.462-.25.59-.76.452-1.212-.07-.234-.23-.412-.43-.504-.12-.048-.24-.073-.35-.076zm-1.548.006c-.136.004-.274.048-.37.13-.1.086-.15.208-.15.326.002.17.097.3.218.393.128.093.277.152.403.23.116.066.212.166.213.29-.003.08-.038.152-.093.202-.075.058-.164.077-.25.077-.153-.003-.31-.04-.438-.098l-.07.188c.17.076.35.117.528.118.16-.002.325-.048.443-.145.102-.09.156-.216.157-.34-.002-.172-.093-.31-.216-.405-.13-.1-.278-.16-.41-.24-.108-.066-.213-.16-.215-.28.006-.158.143-.244.273-.245.124.004.25.024.358.056l.074-.177c-.15-.048-.31-.08-.455-.08zm-2.717.025c-.03 0-.058.01-.085.01-.145.01-.298.03-.428.06v1.78h.29v-1.61c.083-.01.168-.02.244-.02.143.01.29.09.348.21.04.09.04.18.003.26-.04.07-.104.14-.177.17-.04.02-.068.03-.107.03-.053.01-.097.02-.133.06-.036.04-.063.08-.08.12.037.01.073.01.107.02h.148c.123.07.17.2.205.32.05.15.074.32.138.45h.29c-.08-.16-.106-.34-.16-.5-.045-.14-.13-.27-.257-.34.12-.03.22-.11.27-.19.09-.15.1-.33.03-.48-.07-.15-.21-.23-.35-.28-.1-.03-.2-.04-.29-.04zm6.622.01h-.28l.004 1.13c.01.2.07.38.19.51.14.14.33.19.5.19.19 0 .37-.07.49-.19.13-.14.2-.33.2-.51v-1.13h-.27v1.16c0 .13-.03.25-.11.34-.08.09-.19.12-.3.12-.11 0-.22-.04-.3-.12-.08-.1-.1-.22-.1-.34zm1.225.02v.22h.51v1.59h.28v-1.59h.507v-.22zm1.437.01v1.81H264v-.21h-.805V76.8h.77v-.216zm-8.36.01v1.8h1.08v-.2h-.81V76.8h.77v-.21zm4.31 0v1.8h1v-.22h-.72v-1.59zm-1.02.15c.4 0 .56.34.57.72-.02.37-.18.72-.56.73-.37 0-.53-.36-.55-.72.02-.36.16-.69.53-.72zm5.69.61c-.06 0-.11.04-.15.07-.04.04-.06.09-.08.14h.6v-.21zm-8.35.01c-.06 0-.11.03-.15.06-.04.04-.06.09-.08.14h.59v-.19z"/>
  <path fill="url(#e)" d="M257.9 76.51c-.112-.002-.22.02-.326.06-.227.095-.387.277-.458.47-.104.26-.087.562-.008.778.083.22.243.394.442.48.502.168.933-.02 1.12-.487.154-.51.01-1.02-.41-1.22-.13-.05-.248-.07-.36-.07zm-1.537.01c-.07 0-.14.01-.203.032-.127.043-.22.122-.27.233-.057.134-.05.3.024.415.04.062.092.116.152.162.14.1.266.145.398.23.143.075.27.246.192.4-.108.196-.342.184-.523.15-.076-.014-.153-.04-.23-.075l-.073.18c.092.044.185.074.278.09.17.035.334.042.497-.01.137-.05.243-.124.302-.253.06-.136.055-.306-.02-.424-.09-.143-.222-.23-.356-.298-.12-.07-.25-.13-.35-.233-.09-.11-.07-.26.01-.34.16-.12.39-.07.56-.02l.08-.18c-.09-.03-.17-.05-.24-.06-.07-.01-.14-.02-.21-.02zm-2.69.026c-.162 0-.372.027-.522.057v1.763h.27v-1.6c.09-.017.18-.02.26-.02.05 0 .1.01.15.028.14.05.24.17.24.305 0 .14-.1.25-.2.3-.04.01-.08.02-.12.02-.05 0-.09.02-.13.05-.04.03-.06.07-.08.11.04.01.08.01.11.02h.12c.01 0 .02 0 .03-.01.06.03.11.07.14.13.07.13.11.28.14.41.02.08.05.15.08.22h.28c-.04-.09-.07-.17-.09-.26-.04-.16-.08-.31-.16-.44-.03-.06-.09-.11-.16-.14l.06-.02c.09-.05.15-.1.2-.18.09-.14.1-.33.03-.47-.07-.15-.21-.24-.35-.28-.08-.03-.17-.04-.27-.04zm6.32 0v1.12c.002.22.057.38.18.51.16.15.332.19.504.19.21 0 .366-.067.49-.19.146-.156.185-.334.186-.51v-1.12h-.27v1.16c0 .133-.035.25-.114.34-.09.092-.18.118-.3.12-.12 0-.22-.034-.3-.12-.09-.108-.12-.226-.12-.34v-1.16zm-5.406.033v1.78h1.072v-.2h-.81v-1.39h.76v-.2zm4.317 0v1.78h.986c-.002-.07.002-.14.002-.2h-.718v-1.59zm2.6 0v.19h.503v1.58h.27v-1.58h.507v-.2zm1.432 0v1.78h1.072v-.2h-.803v-1.39h.767v-.2zm-5.05.13c.076 0 .155.02.234.06.343.17.374.65.284.95-.103.34-.41.57-.744.38-.344-.22-.384-.65-.29-.97.078-.28.284-.44.515-.43zm5.682.61c-.03 0-.063.01-.087.02-.07.04-.11.1-.13.18h.6v-.2zm-8.35 0c-.03 0-.058 0-.083.01-.074.04-.11.09-.137.17h.59v-.2z"/>
  <path d="M297.6 121.3c1.942-21.06 4.997-43.74 1.503-66.06-2.497-15.97-5.405-32-8.505-47.79l-76.27 1.815c.084 7.94-.042 25.17-1.594 42.58-.71 11.05-1.19 24.47-1.277 30.18-.13 7.224-.066 13.08.21 17.68.538 9.17 1.85 14.66 3.872 24z"/>
  <path fill="#fff" d="M278.7 58.56c-4.29.845-8.25.58-8.048 2.985.374 1.26 2.955 1.38 9.384 1.134 4.05-.57 14.49-.26 14.52-2.01-.128-2.94-4.203-2.88-15.85-2.11zm-67.24 40.76l83.03-2.67c3.17-3.924 1.78-1.73 2.733-5.08l-85.88 3.427m1.195-44.01l.186-2.533 85.32-2.31.322 2.08zm1.39-38.23v-1.91c25.78-.6 51.6-2.004 77.33-1.786l.384 2.17c-27.09-.05-54.53 1.01-77.67 1.53z"/>
  <path d="M212.7 48.63c30.58-.67 61.59-1.735 85.35-2.26l.296 1.775c-13.46.146-83.11 2.718-85.81 2.552.02-.528.164-1.65.17-2.068zm78.95-37.48c-26.28-.317-53.53.675-77.71 1.387l-.006-1.512c23.51-.74 51.19-1.94 77.36-1.79m-12.69 52.96c-8.237.32-7.003.788-7.058-2.034 3.363-1.44 19.24-2.01 21.69-1.12.503.51 1.15 1.92.322 2.18-2.658.83-11.13.49-14.96.98zm-67.4 32.96c30.25-.662 60.28-1.914 84.98-2.577.718.475-.846 1.902-2.922 2.912-30.11.995-56.99 3.148-81.91 3.67zm86.78 26.56c1.942-21.06 4.997-44.14 1.503-66.46-2.497-15.97-5.505-32.3-8.604-48.09l-76.97 1.814c.072 7.94.058 25.47-1.494 42.88-.72 11.05-1.19 24.47-1.28 30.18-.13 7.22-.07 13.08.21 17.68.54 9.17 1.85 15.06 3.87 24.4z"/>
</svg>
