<?xml version="1.0" encoding="UTF-8" standalone="no"?>
<svg xmlns:dc="http://purl.org/dc/elements/1.1/" xmlns:cc="http://creativecommons.org/ns#" xmlns:rdf="http://www.w3.org/1999/02/22-rdf-syntax-ns#" xmlns:svg="http://www.w3.org/2000/svg" xmlns="http://www.w3.org/2000/svg" xmlns:xlink="http://www.w3.org/1999/xlink" xmlns:sodipodi="http://sodipodi.sourceforge.net/DTD/sodipodi-0.dtd" xmlns:inkscape="http://www.inkscape.org/namespaces/inkscape" id="esv" width="450" height="156" preserveAspectRatio="xMidYMid" version="1.1" viewBox="0 0 450.0497 156.01848" sodipodi:docname="esv-tiny-logo-opt-zoom-master2.svg">
  <metadata id="metadata4544">
    <rdf:RDF>
      <cc:Work rdf:about="">
        <dc:format>image/svg+xml</dc:format>
        <dc:type rdf:resource="http://purl.org/dc/dcmitype/StillImage" />
        <dc:title></dc:title>
      </cc:Work>
    </rdf:RDF>
  </metadata>
  <sodipodi:namedview pagecolor="#ffffff" bordercolor="#666666" borderopacity="1" objecttolerance="10" gridtolerance="10" guidetolerance="10" inkscape:pageopacity="0" inkscape:pageshadow="2" inkscape:window-width="640" inkscape:window-height="480" id="namedview4542" showgrid="false" inkscape:snap-global="false" />
  <defs id="defs4522">
    <linearGradient id="linearGradientSlvr" x1="-1869" x2="-1869" y1="794.4" y2="828" gradientTransform="matrix(1.301,0,0,1.301,1365,-35.3)" gradientUnits="userSpaceOnUse">
      <stop style="stop-color:#696969" offset="0" id="stop4485" />
      <stop style="stop-color:#c7c7c9" offset=".17" id="stop4487" />
      <stop style="stop-color:#f9f9ff" offset=".36" id="stop4489" />
      <stop style="stop-color:#ccccce" offset=".73" id="stop4491" />
      <stop style="stop-color:#696969" offset="1" id="stop4493" />
    </linearGradient>
    <linearGradient id="linearGradientPurp" x1="259" x2="259" y1="77.914665" y2="79.768051" gradientTransform="matrix(1.009,0,0,1,0.03326,-1.393)" gradientUnits="userSpaceOnUse">
      <stop style="stop-color:#1c072d" offset="0" id="stop4496" />
      <stop style="stop-color:#5700aa" offset=".29" id="stop4498" />
      <stop style="stop-color:#4b127b" offset=".64" id="stop4500" />
      <stop style="stop-color:#290a43" offset="1" id="stop4502" />
    </linearGradient>
    <linearGradient id="linearGradientBlk" x1="-31.29" x2="-31.29" y1="-347.3" y2="-248" gradientTransform="matrix(0.01848,0,0,0.0184,253.43465,82.94)" gradientUnits="userSpaceOnUse">
      <stop style="stop-color:#141414" offset="0" id="stop4505" />
      <stop style="stop-color:#0a0a0a" offset=".15" id="stop4507" />
      <stop style="stop-color:#6d6d6d" offset=".3" id="stop4509" />
      <stop style="stop-color:#000000" offset=".44" id="stop4511" />
      <stop style="stop-color:#141414" offset=".62" id="stop4513" />
      <stop style="stop-color:#262626" offset=".75" id="stop4515" />
      <stop style="stop-color:#040404" offset="1" id="stop4517" />
    </linearGradient>
    <linearGradient id="linearGradient6193" x1="259.10001" x2="259.10001" y1="77.875465" y2="79.836655" gradientTransform="matrix(1.009 0 0 1 .1346 -1.393)" gradientUnits="userSpaceOnUse" xlink:href="#linearGradientSlvr" />
    <linearGradient id="linearGradient6201" x1="255.7" x2="255.7" y1="79.19" y2="80.03" gradientTransform="matrix(1.005 0 0 1 .06732 -.6966)" gradientUnits="userSpaceOnUse" xlink:href="#linearGradientSlvr" />
    <linearGradient inkscape:collect="always" xlink:href="#linearGradientSlvr" id="linearGradient5183" gradientUnits="userSpaceOnUse" gradientTransform="matrix(5.025,0,0,5,-1033.7715,-315.12086)" x1="255.7" y1="79.19" x2="255.7" y2="80.03" />
    <linearGradient inkscape:collect="always" xlink:href="#linearGradientSlvr" id="linearGradient5185" gradientUnits="userSpaceOnUse" gradientTransform="matrix(5.045,0,0,5,-1033.4351,-318.60286)" x1="259.10001" y1="77.875465" x2="259.10001" y2="79.836655" />
    <linearGradient inkscape:collect="always" xlink:href="#linearGradientSlvr" id="linearGradient5187" gradientUnits="userSpaceOnUse" gradientTransform="matrix(5.045,0,0,5,-1033.4351,-318.60286)" x1="259.10001" y1="77.875465" x2="259.10001" y2="79.836655" />
    <linearGradient inkscape:collect="always" xlink:href="#linearGradientPurp" id="linearGradient5189" gradientUnits="userSpaceOnUse" gradientTransform="matrix(5.045,0,0,5,-1033.9418,-318.60286)" x1="259" y1="77.914665" x2="259" y2="79.768051" />
    <linearGradient inkscape:collect="always" xlink:href="#linearGradientPurp" id="linearGradient5191" gradientUnits="userSpaceOnUse" gradientTransform="matrix(5.045,0,0,5,-1033.9418,-318.60286)" x1="259" y1="77.914665" x2="259" y2="79.768051" />
    <linearGradient inkscape:collect="always" xlink:href="#linearGradientBlk" id="linearGradient5193" gradientUnits="userSpaceOnUse" gradientTransform="matrix(0.0924,0,0,0.092,233.06515,103.06214)" x1="-31.29" y1="-347.3" x2="-31.29" y2="-248" />
  </defs>
  <path id="fHub" d="M 50.28,99.51 C 73.99,82.46 97.15,101.422 97.39,123.61 97.47735,132.501 84.34,152.76 67.51,151.01 36.03,147.721 32.16,112.56 50.28,99.54 Z" style="display:inline;fill:#ffffff;stroke-width:1.00199997" inkscape:connector-curvature="0" />
  <path id="fWheel" d="M 67.55,88.03 C 84.29,88.03 102.52,99.77 102.52,122.95 102.8198,139.32 88.01,156.02 68.88,156.02 49.39,156.02 34.31,141.19 34.31,121.73 34.31,101.7 51.51,88.03 67.53,88.03 Z M 94.58,131.29 C 99.785,115.34 91.856,99.37 73.98,94.7 53.1,91.384 40.86,107.91 40.37,120.34 39.5175,134.66 49.158,144.85 59.12,148.45 77.01,154.082 91.6,142.241 94.58,131.28 Z M 57.88,145.8 C 60.392,140.816 62.491,137.035 65.225,132.35 65.9597,131.294 66.303,131.317 68.743,132.584 72.065,134.311 72.739,134.988 73.237,137.092 74.278,140.443 75.507,143.592 76.249,147.162 73.937,150.359 55.719,148.1269 57.879,145.785 Z M 75.1,147.16 C 74.4999,146.9082 73.271,145.789 72.992,145.245 72.5884,144.4492 70.722,136.151 70.904,135.972 71.0842,135.7883 71.6229,135.7691 71.937,135.93501 72.5581,136.26311 72.1543,135.49341 71.4546,135.01581 70.5031,134.36601 66.6956,132.37981 66.3706,132.44381 65.1246,132.58891 58.9446,144.36381 58.7536,145.99381 58.9038,146.81041 59.3399,146.65021 59.3399,145.77871 59.3399,145.33981 59.4873,144.96061 59.8204,144.54571 61.2834,142.15571 65.4634,132.39571 66.6084,133.32571 67.0251,133.32871 68.5394,134.09671 68.8634,134.47071 70.3354,139.12771 70.7044,141.59171 71.8194,146.11071 72.1394,146.98201 71.7121,148.15271 71.6299,148.39171 72.9749,148.63181 75.3819,147.42771 75.0979,147.17171 Z M 73.818,130.26 C 75.961,128.366 78.357,127.117 80.606,127.048 82.593,127.4422 90.386,130.433 92.446,131.789 93.0571,133.563 86.322,142.749 81.436,145.289 79.027,147.669 75.234,133.409 73.819,130.269 Z M 81.175,144.25 C 81.22227,143.9181 80.7232,144.0615 80.5241,143.9785 78.7011,139.1255 76.8071,135.5805 75.4761,130.8985 75.52992,130.4289 76.3428,129.9365 77.5201,129.6625 78.8501,129.2316 84.8421,132.2735 87.3091,133.4735 89.7061,134.6445 90.3341,135.1105 90.3581,135.7355 90.6272,135.82909 92.3081,132.7815 92.3151,132.1425 91.6916,132.12615 90.4051,132.6026 89.2291,132.6246 86.0751,131.4766 83.1311,130.3596 80.4041,128.5796 80.42867,128.3976 80.6948,128.1253 80.9956,127.9747 81.8278,127.558 81.6612,127.3936 80.4911,127.4757 78.2451,127.9286 76.5141,128.7627 74.9291,130.2307 74.5029,131.0825 74.5098,131.1587 75.1341,132.5587 76.6011,136.4537 78.4351,140.4997 79.8581,144.0087 80.0593,144.5324 80.4517,145.0727 80.6295,145.0727 81.0691,144.99139 81.2112,144.6143 81.1766,144.2577 Z M 43.295,128.84 C 49.248,127.677 57.785,125.844 59.505,126.469 60.643,127.727 61.572,132.359 60.775,134.037 60.0392,135.62 54.344,144.647 53.928,144.497 50.96,144.43421 40.808,131.277 43.298,128.827 Z M 53.645,144.08 C 52.308,141.689 56.767,137.083 58.967,133.44 59.4236,133.0211 59.7715,133.206 59.9633,133.97 60.1222,134.77 60.1377,134.5822 60.4446,133.94064 60.40819,130.74864 60.37811,125.94664 57.5306,126.89864 53.0406,127.53314 48.2556,128.23464 44.4106,129.30164 44.1914,129.52524 44.36335,130.10104 44.6043,129.94864 48.8853,129.19104 53.4293,128.09064 57.5143,127.61264 58.8583,127.33424 59.7923,130.57064 58.6633,131.68964 56.6633,134.91364 52.4783,142.11964 50.5213,141.16464 49.8223,140.93844 50.2857,141.60164 51.7303,142.89364 52.2126,143.53974 53.4333,144.22664 53.6453,144.08764 Z M 65.955,127.35 C 67.085,126.031 69.012,126.3535 69.507,128.1143 69.6228,128.978 69.1348,129.8833 68.383,130.2463 66.443,130.9902 64.927,129.0403 65.955,127.3483 Z M 71.26,125.271 C 71.9499,123.44 73.697,123.81 74.156,124.233 75.411,124.9472 75.242,126.742 74.2922,127.379 72.7582,128.467 70.7442,127.045 71.2602,125.272 Z M 77.657,121.541 C 77.657,121.0036 78.3387,118.038 78.691,117.044 80.143,112.892 86.585,110.792 90.681,108.856 94.035,113.024 94.783,120.696 93.926,126.896 93.3307,128.268 76.346,124.384 77.656,121.545 Z M 93.077,126.035 C 93.077,125.7867 92.8658,125.7126 91.897,125.6208 87.656,124.4668 81.757,123.6138 79.017,121.1208 79.07618,120.2816 79.2984,119.5998 79.531,118.7958 79.6853,117.3648 87.314,114.7178 91.621,112.8948 92.0573,112.8948 92.4143,112.82256 92.4143,112.7341 92.4143,112.3911 90.8653,109.1721 90.7313,109.2661 90.9287,112.5311 86.6433,113.6031 84.2213,115.0541 80.5663,116.8611 80.3803,116.8911 80.3803,115.697 80.3803,115.0976 80.374267,115.0921 80.0415,115.3994 78.9115,116.8984 78.2545,120.5974 78.5205,122.3174 82.6285,124.2774 87.1815,125.0594 90.8805,126.4324 92.0225,126.9732 93.0055,126.6809 93.0875,126.0351 Z M 61.567,123.256 C 62.257,122.5336 64.022,122.9151 64.415,123.903 65.1215,124.988 64.3059,126.775 62.62,126.752 60.557,126.502 60.253,124.088 61.566,123.256 Z M 42.467,124.606 C 41.18,124.7418 41.652,110.966 47.532,106.506 52.025,110.698 59.232,116.165 59.662,118.376 59.0914,120.198 56.322,123.367 54.573,123.699 50.687,124.0337 46.171,124.623 42.463,124.6068 Z M 43.1844,123.28 C 44.5854,121.899 44.6024,121.896 49.6024,121.991 52.0394,122.03748 54.2174,122.1135 54.4394,122.1607 54.8407,122.24523 54.8378,122.25466 54.1931,122.928 53.484,123.6686 53.5052,123.7349 54.3349,123.3698 55.3254,122.9345 57.9309,120.1298 58.5949,118.7858 59.1936,117.5718 59.1866,117.5558 57.1259,115.6518 54.8869,113.4788 52.2729,111.2448 50.1359,109.3328 48.5589,107.7768 47.6899,107.3338 47.4489,107.9718 50.8829,111.4208 55.3189,114.7048 58.1889,117.8898 58.1889,118.2846 56.7089,119.9718 56.1719,120.1908 53.8089,121.17 43.0919,120.8011 42.2919,120.0725 42.189,120.1774 42.1275,123.4785 42.22373,123.7435 43.00023,125.1255 42.68113,123.66381 43.19213,123.281 Z M 71.7544,119.868 C 71.81243,117.539 74.2564,117.292 75.2914,118.579 76.2446,120.452 74.8783,121.441 74.4381,121.528 72.9611,122.0222 71.8991,121.0578 71.7551,119.867 Z M 61.7714,117.563 C 62.3841,116.8834 63.8644,116.403 64.7964,117.55699 66.1004,119.27699 64.4001,120.72399 63.5514,120.74799 61.5764,120.78171 60.8214,118.96999 61.7734,117.56399 Z M 66.8464,116.948 C 66.4363,115.036 67.9144,114.268 68.8974,114.344 71.1254,114.7028 71.1184,117.299 69.576,118.065 68.8061,118.3187 67.741,118.4917 66.846,116.949 Z M 69.9544,107.899 C 69.90669,106.472 71.5664,95.829 72.2874,95.939 75.3844,95.6499 83.1874,99.835 86.1274,102.799 88.0464,104.63 88.1804,105.026 87.1864,105.933 82.7004,109.358 75.3564,115.011 74.4364,114.779 73.6121,114.4185 69.6864,110.83 69.9494,107.895 Z M 75.4814,113.832 C 79.1784,111.21 83.3614,108.377 86.6414,105.629 86.7646,105.3943 86.7631,105.1881 86.636874,104.9469 86.406574,104.508 86.121774,104.5038 86.010574,104.93737 81.899574,108.30237 78.732574,110.80637 74.610574,113.40337 72.702574,111.38137 72.823574,109.73737 73.151574,108.17837 74.425574,104.54237 74.797574,97.55837 76.049574,97.44837 76.354174,97.22107 76.334074,97.19027 75.700674,96.91547 74.623674,96.42017 73.402674,96.35467 72.258674,96.22537 72.239864,96.60727 73.634674,98.44937 73.531674,99.83737 73.359374,102.26337 72.697174,104.75737 72.243674,107.03437 72.067774,108.20737 71.789374,108.74837 71.360374,108.74837 70.882774,108.42457 70.608474,108.06877 70.199374,107.62537 70.104974,108.27447 70.333474,108.88737 70.495474,109.46337 71.957474,111.57837 73.561474,114.70137 75.473474,113.83437 Z M 67.2114,95.712 C 67.5079,96.5592 66.7406,112.892 66.2122,113.092 65.1112,113.3854 61.7242,113.4518 59.4772,113.03948 56.3902,110.09248 50.6892,105.29248 50.3892,103.17948 51.2231,99.97848 62.2492,94.80348 67.2192,95.71648 Z M 65.9494,112.242 C 66.3766,110.207 66.8965,102.488 66.6293,96.812 66.094,96.71932 66.0556,96.78277 66.0418,97.7884 65.99975,102.7824 65.5305,106.9644 65.2934,111.4884 63.4884,111.8687 62.3774,111.614 61.4164,110.2734 58.6204,106.6644 53.7104,102.0144 53.7634,100.3084 52.9581,100.33471 51.4884,102.2714 51.1404,102.9424 51.7296,103.01266 52.3334,103.0999 52.8384,103.192 55.5754,105.48 58.0034,108.354 59.8724,111.306 59.354,111.6042 58.8074,111.4862 58.3204,111.29923 58.0474,111.47123 58.4305,111.94213 59.0933,112.24893 59.5138,112.50653 64.0133,112.92533 65.9503,112.24657 Z" style="display:inline;fill:#000000;stroke-width:1.00199997" inkscape:connector-curvature="0" />
  <path id="rHub" d="m327 99.51c23.71-17.05 46.87 1.912 47.11 24.1 0.08734 8.891-13.05 29.15-29.88 27.4-31.48-3.289-35.35-38.45-17.23-51.47z" style="fill:#ffffff;stroke-width:1.002" />
  <path id="rWheel" d="m344.2 88.03c16.74 0 34.97 11.74 34.97 34.92 0.2998 16.37-14.51 33.07-33.64 33.07-19.49 0-34.57-14.83-34.57-34.29 0-20.03 17.2-33.7 33.22-33.7zm27.03 43.26c5.205-15.95-2.724-31.92-20.6-36.59-20.88-3.316-33.12 13.21-33.61 25.64-0.8525 14.32 8.788 24.51 18.75 28.11 17.89 5.632 32.48-6.209 35.46-17.17zm-36.7 14.51c2.512-4.984 4.611-8.765 7.345-13.45 0.7347-1.056 1.078-1.033 3.518 0.234 3.322 1.727 3.996 2.404 4.494 4.508 1.041 3.351 2.27 6.5 3.012 10.07-2.312 3.197-20.53 0.9649-18.37-1.377zm17.22 1.36c-0.6001-0.2518-1.829-1.371-2.108-1.915-0.4036-0.7958-2.27-9.094-2.089-9.273 0.1802-0.1837 0.7189-0.2029 1.033-0.03699 0.6211 0.3281 0.2173-0.4416-0.4824-0.9192-0.9516-0.6498-4.759-2.636-5.084-2.572-1.246 0.1451-7.426 11.92-7.617 13.55 0.1502 0.8166 0.5863 0.6564 0.5863-0.2151 0-0.4389 0.1475-0.8181 0.4805-1.233 1.463-2.39 5.643-12.15 6.788-11.22 0.4167 3e-3 1.931 0.771 2.255 1.145 1.472 4.657 1.841 7.121 2.956 11.64 0.32 0.8713-0.1073 2.042-0.1895 2.281 1.345 0.2401 3.752-0.964 3.468-1.22zm-1.282-16.9c2.143-1.894 4.539-3.143 6.788-3.212 1.988 0.3942 9.78 3.385 11.84 4.741 0.6111 1.774-6.124 10.96-11.01 13.5-2.409 2.38-6.202-11.88-7.617-15.02zm7.357 13.99c0.04727-0.3319-0.4518-0.1885-0.6509-0.2715-1.823-4.853-3.717-8.398-5.048-13.08 0.05382-0.4696 0.8667-0.962 2.044-1.236 1.33-0.4309 7.322 2.611 9.789 3.811 2.397 1.171 3.025 1.637 3.049 2.262 0.2691 0.09359 1.95-2.954 1.957-3.593-0.6235-0.01635-1.91 0.4601-3.086 0.4821-3.154-1.148-6.098-2.265-8.825-4.045 0.02455-0.182 0.2907-0.4543 0.5915-0.6049 0.8322-0.4167 0.6657-0.5811-0.5045-0.499-2.246 0.4529-3.977 1.287-5.562 2.755-0.4262 0.8518-0.4193 0.928 0.205 2.328 1.467 3.895 3.301 7.941 4.724 11.45 0.2012 0.5237 0.5935 1.064 0.7715 1.064 0.4396-0.08131 0.5817-0.4584 0.5471-0.815zm-37.88-15.41c5.953-1.163 14.49-2.996 16.21-2.371 1.138 1.258 2.067 5.89 1.27 7.568-0.7358 1.583-6.431 10.61-6.847 10.46-2.968-0.06279-13.12-13.22-10.63-15.67zm10.35 15.24c-1.337-2.391 3.122-6.997 5.322-10.64 0.4566-0.4189 0.8045-0.234 0.9963 0.53 0.1589 0.8 0.1744 0.6122 0.4813-0.02936-0.03643-3.192-0.0665-7.994-2.914-7.042-4.49 0.6345-9.275 1.336-13.12 2.403-0.2192 0.2236-0.04724 0.7994 0.1937 0.647 4.281-0.7576 8.825-1.858 12.91-2.336 1.344-0.2784 2.278 2.958 1.149 4.077-2 3.224-6.185 10.43-8.142 9.475-0.699-0.2262-0.2355 0.437 1.209 1.729 0.4823 0.6461 1.703 1.333 1.915 1.194zm12.31-16.73c1.13-1.319 3.057-0.9965 3.552 0.7643 0.1158 0.8637-0.3723 1.769-1.124 2.132-1.94 0.7439-3.456-1.206-2.428-2.898zm5.305-2.079c0.6898-1.831 2.438-1.461 2.896-1.038 1.255 0.7142 1.087 2.509 0.1362 3.146-1.534 1.088-3.548-0.334-3.032-2.107zm6.397-3.73c0-0.5374 0.6817-3.503 1.034-4.497 1.452-4.152 7.894-6.252 11.99-8.188 3.354 4.168 4.102 11.84 3.245 18.04-0.5953 1.372-17.58-2.512-16.27-5.351zm15.42 4.494c0-0.2483-0.2111-0.3224-1.18-0.4142-4.241-1.154-10.14-2.007-12.88-4.5 0.05918-0.8392 0.2815-1.521 0.514-2.325 0.1543-1.431 7.783-4.078 12.09-5.901 0.4363 0 0.7933-0.07224 0.7933-0.1607 0-0.343-1.549-3.562-1.683-3.468 0.1974 3.265-4.088 4.337-6.51 5.788-3.655 1.807-3.841 1.837-3.841 0.6429 0-0.5994-0.00604-0.6049-0.3388-0.2976-1.13 1.499-1.787 5.198-1.521 6.918 4.108 1.96 8.661 2.742 12.37 4.115 1.142 0.5408 2.125 0.2485 2.207-0.3973zm-31.51-2.779c0.69-0.7224 2.455-0.3409 2.848 0.647 0.7064 1.085-0.1091 2.872-1.795 2.849-2.063-0.25-2.367-2.664-1.054-3.496zm-19.1 1.35c-1.287 0.1358-0.815-13.64 5.065-18.1 4.492 4.192 11.7 9.659 12.13 11.87-0.5707 1.822-3.34 4.991-5.089 5.323-3.886 0.3347-8.402 0.924-12.11 0.9078zm0.7174-1.326c1.401-1.381 1.418-1.384 6.418-1.289 2.437 0.04648 4.615 0.1225 4.837 0.1697 0.4014 0.08453 0.3983 0.09396-0.2463 0.7673-0.7091 0.7406-0.6879 0.8069 0.1418 0.4418 0.9905-0.4353 3.596-3.24 4.26-4.584 0.5986-1.214 0.5917-1.23-1.469-3.134-2.239-2.173-4.853-4.407-6.99-6.319-1.577-1.556-2.446-1.999-2.687-1.361 3.434 3.449 7.87 6.733 10.74 9.918 0 0.3948-1.48 2.082-2.017 2.301-2.363 0.9792-13.08 0.6103-13.88-0.1183-0.1029 0.1049-0.1644 3.406-0.06817 3.671 0.7765 1.382 0.4574-0.07969 0.9684-0.4625zm28.57-3.412c0.05804-2.329 2.502-2.576 3.537-1.289 0.9532 1.873-0.4131 2.862-0.8533 2.949-1.477 0.4942-2.539-0.4702-2.683-1.661zm-9.983-2.305c0.6127-0.6796 2.093-1.16 3.025-0.00601 1.304 1.72-0.3964 3.167-1.245 3.191-1.975 0.03372-2.73-1.778-1.778-3.184zm5.075-0.615c-0.4101-1.912 1.068-2.68 2.051-2.604 2.228 0.3588 2.221 2.955 0.6786 3.721-0.7699 0.2537-1.835 0.4267-2.73-1.116zm3.108-9.049c-0.04771-1.427 1.612-12.07 2.333-11.96 3.097-0.2891 10.9 3.896 13.84 6.86 1.919 1.831 2.053 2.227 1.059 3.134-4.486 3.424-11.83 9.078-12.75 8.846-0.8243-0.3605-4.75-3.949-4.487-6.884zm5.527 5.933c3.697-2.622 7.88-5.455 11.16-8.203 0.123-0.2347 0.1217-0.4409-0.00451-0.6821-0.2302-0.4389-0.515-0.4431-0.6263-0.00953-4.111 3.365-7.278 5.869-11.4 8.466-1.908-2.022-1.787-3.666-1.459-5.225 1.274-3.636 1.646-10.62 2.898-10.73 0.3046-0.2273 0.2845-0.2581-0.349-0.5329-1.077-0.4953-2.298-0.5608-3.442-0.6901-0.01882 0.3819 1.376 2.224 1.273 3.612-0.1723 2.426-0.8345 4.92-1.288 7.197-0.176 1.173-0.4543 1.714-0.8833 1.714-0.4776-0.3238-0.7519-0.6796-1.161-1.123-0.09442 0.6491 0.1341 1.262 0.296 1.838 1.462 2.115 3.066 5.238 4.978 4.371zm-8.27-18.12c0.2964 0.8472-0.4708 17.18-0.9992 17.38-1.101 0.2934-4.488 0.3598-6.735-0.05252-3.087-2.947-8.788-7.747-9.088-9.86 0.8339-3.201 11.86-8.376 16.83-7.463zm-1.262 16.53c0.4272-2.035 0.9471-9.754 0.6799-15.43-0.5353-0.09268-0.5738-0.02923-0.5875 0.9764-0.04205 4.994-0.5114 9.176-0.7484 13.7-1.805 0.3803-2.916 0.1256-3.877-1.215-2.796-3.609-7.706-8.259-7.653-9.965-0.8053 0.02631-2.275 1.963-2.623 2.634 0.5892 0.07026 1.193 0.1575 1.698 0.2496 2.737 2.288 5.165 5.162 7.034 8.114-0.5184 0.2982-1.065 0.1802-1.552-0.00677-0.273 0.172 0.1101 0.6429 0.773 0.9497 0.4205 0.2576 4.92 0.6764 6.857-0.00236z" style="fill:#000000;stroke-width:1.002" />
  <path id="trim" d="m296.5 8.847c-6.788-0.1858-1.866-0.3852-5.244 0.003213-0.5433 1.498 4.879 26.9 7.319 40.35 4.796-0.258 4.003-0.5015 7.562-1.289 0.7225-6.252-9.129-34.8-9.636-39.06zm-286.6 56.96c-5.135 8.169-4.405 18.72-6.029 26.31 0.4931 1.404 12.66-3.777 14.12-4.666 1.629-8.013 9.799-19.03 9.799-19.04 9.838-1.157 14.68-3.522 18.25-8.992-7.056-4.951-30.2 0.3761-36.13 6.398zm203.1 62.88c-17.04 0.8401-94.82-2.775-101.1 2.892 35.28 2.551 87.46 0.09745 115.6-0.3813 24.39-0.8088 51.3-0.2093 75.23-2.327-0.3863-0.5312-1.337-1.282-3.112-1.595-5.568-0.9822-58.52 2.297-86.78 1.41zm188.8-126.7c-6.212-2.527-15.93 0.2727-20.79-1.069-50.23 0.06898-105-0.3776-142.2 1.083-7.959 0.5009-19.56 1.888-26.07 4.309 7.051 0.04124 182.5-1.812 193.5-1.323z" style="fill:#ffffff;stroke-width:1.002" />
  <path id="brake" d="m422.7 11.98c1.193-0.6012 1.213-0.01442 7.651 9.744 5.732 8.962 11.87 21.82 14.02 29.09 1.563 4.575 2.48 20.68 1.143 21.46-0.4444 0.1305-4.888 1.724-5.748-0.2807-0.7576-1.764-0.1614-6.858-0.6305-11.42-0.9636-9.195-3.227-17.92-6.897-25.98-3.643-9.927-10.54-16.92-11.67-22.67z" style="fill:#8a112b;stroke-width:1.002" />
  <path id="body" d="m231.1 2.232c-4.624 0.5445-13.75 1.492-22.03 4.11-9.526 0.1235-22.37 0.9908-28.17 1.657-1.238 0.142-4.057 0.2904-6.108 0.9707-0.8709 0.2885-0.4422-2.372-3.267-1.306 0.2773-3.64-1.274-3.202-5.054-1.004-1.939 2.042-0.07502 4.398-7.327 7.361-17.22 8.424-35.86 23.25-48.78 35.08-21.91 1.204-45.73 1.977-63.92 4.816-9.263 1.265-27.47 3.827-34.54 7.428-5.941 2.641-8.904 14.3-9.924 19.85-2.074 8.163-2.076 21.14-1.968 27.21 0.2217 11.72 1.354 12.6 3.526 15.89 2.424 6.413 6.395 5.274 9.684 9.707 0.2783 1.221 0.3805 5.054 1.338 5.601 5.118 0.9869 12.49 1.729 17.62 1.361-2.007-25.98-2.062-39.1 12.08-49.83 13-9.873 32.1-13.68 49.34-0.1436 10.1 7.923 11.47 16.55 14.64 28.7 0.2217 3.836 1.99 11.67 2.56 14.26 0.5612 0.2215 7.741 0.4054 15.24 0.2773 29.83 0.03544 61.45 0.6974 92.48 0.3327 28.61-0.6903 58.91-2.697 85.13-3.471 1.606-5.416 1.645-7.692 2.263-11.87 4.331-15.35 7.388-21.81 14.74-28.35 14.58-12.97 37.93-9.219 47.98-2.369 4.824 3.291 16.19 16.06 17.19 35.37 4.601-0.298 22.69-2.007 30.12-2.619 15.58-1.286 22.26-2.21 22.33-2.527 0.5387 0.02406 8.543-10.39 10.65-15.71 1.105-4.249 0.9886-8.237 1.03-11.32 0.1214-3.042 0.4139-7.362-1.243-9.03-1.488-2.366-1.9-1.483-2.475-2.731 0.2376-1.679-0.1181-3.133-0.5792-7.878l-5.14-0.261c-0.1118-2.722 0.3014-3.903-0.06814-5.773-0.8528-11.05 0.09527-9.425-1.822-17.58-2.22-6.476-8.116-20.02-9.838-22.97-3.931-6.588-3.988-6.742-7.734-12.62-0.316-1.086 3.595 0.008013 3.476 0.1552-2.531-3.894 0.733 0.9291 4.097-2.182-0.2752-1.254 1.673-5.252-4.914-5.759-4.571-0.428-11.83-0.1269-17.62-0.8214-3.362-1.806-2.096-2.593-7.637-3.788-21.34-0.9688-61.16-0.1813-96.09 0.4217-6.092 0.2212-64.91 0.01187-71.36 1.343zm164.5-0.7234c5.103-0.2478 5.422 1.486 9.248 2.896-76.07-0.5015-131.2-0.01546-191.7 1.738 1.897-0.556 12.67-2.336 18.27-3.168 4.082-0.9179 44.37-1.429 67.63-1.425 10.21-0.1038 90.68-0.554 96.55-0.04134zm-97.52 44.82c-1.645-10.8-3.787-22.02-6.403-35.25l-0.376-1.845c1.496 0.008401 2.846 0.08612 4.316 0.09678 5.489 16.57 6.783 25.18 9.645 36.72-0.2438 2.359-2.776 2.013-6.812 2.105zm-254.3 13.36c-2.25 3.625-3.814 4.962-7.021 5.652-8.288 1.027-11.78 1.9-13.87 4.871-4.251 4.312-3.823 12.12-9.626 18.18-1.981 0.7572-6.377 1.789-7.801 1.536 0.1726-3.319 3.239-22.5 4.99-23.62 13.26-6.256 21.35-5.062 33.31-6.626zm257.8 68.81c-27.89 1.726-72.68 1.672-83.26 2.228-10.93 0.151-24.45 0.3798-35.87 0.4554-25.37 0.02738-62.33 1.371-68.92 0.1138 0.3105-0.4811 1.713-1.306 2.634-0.9201 5.503 0.3963 53.53-0.2342 102-0.8386 30.9-0.3854 56.1-1.45 82.21-2.009z" style="fill:#000000;stroke-width:1.002" />
  <path id="dDTrim" d="m214 10.84c-16.84-0.02033-37.5-0.4635-53.49 7.785-13.99 9.186-31.72 18.07-40.64 32.59 0.5286 1.299 1.399 2.348 2.861 2.963l89.87-3.205 0.1858-2.533-89.26 2.791c0.186-5.794 28.9-26.08 40.45-31.1 16.98-7.368 35.04-6.807 50.04-7.382zm-8.138 49.78-22.57 1.036 0.4153 3.941 24.55-0.7266zm5.51 34.26-92.79 1.517 1.874 7.983 91.21-5.138z" style="fill:#ffffff;stroke-width:1.002" />
  <path id="dDoor" d="M 214,11 C 195.51,11.5401 187.12,11.894 181.3,12.977 167.46,14.969 156.78,20.518 145.63,28.417 138.431,34.062 128.08,41.567 121.81,48.787 121.1033,49.7481 117.816,54.163 125.758,53.604 137.708,53.314 152.308,52.7706 164.388,52.368 182.658,51.9846 193.788,51.083 212.568,50.688 212.58677,50.60947 212.7387,48.616 212.7387,48.616 170.6287,49.5406 139.1787,51.464 133.9787,51.553 131.4827,51.5961 122.2687,52.598 122.8887,51.2135 124.6357,45.9355 137.5787,35.4435 148.2787,28.3935 165.8987,16.4835 175.7187,14.5035 198.0687,12.9935 205.2467,12.7997 206.1477,12.7158 213.9887,12.5256 Z M 206.087,62.02 C 204.845,60.945 193.387,61.7368 189.937,61.9409 180.733,62.3298 184.8,65.6229 186.296,65.1139 193.397,64.3856 202.816,65.2273 206.436,63.9609 Z M 211.379,95.12 C 197.929,95.4166 191.639,95.8623 178.709,96.0446 158.279,96.4052 137.769,96.7171 119.659,97.2216 119.8715,104.9056 120.938,103.7606 128.135,103.0046 160.165,101.2426 183.115,99.7206 211.545,99.1256 Z M 122.559,124.58 C 117.379,113.91 116.939,101.34 115.292,89.27 115.0247,77.75 114.035,65.61 114.842,55.04 115.4092,51.667 116.515,49.198 118.272,47.274 120.189,44.855 123.502,42.065 126.156,39.943 132.977,34.232 140.176,29.203 147.736,23.913 157.134,17.546 167.356,13.023 178.556,11.063 186.184,9.304 193.166,9.161 200.286,9.123 L 213.936,8.993 C 213.89904,22.313 213.89598,36.933 212.44,51.863 212.44,51.863 211.419,71.283 211.305,82.013 211.24017,88.196 211.29604,94.083 211.5145,99.693 212.3943,112.463 213.6335,114.683 215.3855,124.093 Z" style="display:inline;fill:#000000;stroke-width:1.00199997" inkscape:connector-curvature="0" />
  <path id="pT" d="M 259.07712,78.47 C 258.99603,78.469499 258.91472,78.48196 258.84262,78.49584 L 258.81298,78.501592 V 79.353292 H 258.99178 C 258.99178,79.228792 258.99147,79.097292 258.99134,78.968692 259.03508,78.999092 259.06814,78.993742 259.11904,78.999392 259.12847,79.003451 259.14689,79.034712 259.15541,79.044422 259.18887,79.101762 259.20556,79.167222 259.21881,79.224222 V 79.224905 C 259.23178,79.273825 259.24652,79.310795 259.26656,79.353205 H 259.45776 C 259.43419,79.302965 259.4099,79.247405 259.39649,79.199205 259.38837,79.167645 259.37702,79.127115 259.36744,79.097705 259.34867,79.041135 259.32515,78.987605 259.28438,78.949305 259.31404,78.930205 259.34099,78.908025 259.36181,78.880035 259.39149,78.840415 259.40675,78.793115 259.40675,78.742535 259.40172,78.665075 259.36925,78.594935 259.31404,78.548935 259.24472,78.493085 259.15834,78.470485 259.07724,78.470045 Z M 262.79112,78.470682 C 262.74382,78.471406 262.69763,78.479645 262.65452,78.495652 L 262.65445,78.495436 C 262.54725,78.540616 262.46865,78.624936 262.42565,78.720536 V 78.720896 C 262.38051,78.847896 262.37661,78.984396 262.42064,79.104196 V 79.104628 C 262.46273,79.209628 262.54074,79.291428 262.63914,79.336128 262.74494,79.376228 262.86024,79.375928 262.95734,79.336128 H 262.95787 C 263.06297,79.287798 263.13887,79.199428 263.17807,79.102728 263.21878,78.983528 263.21985,78.859228 263.18439,78.747228 263.14758,78.639028 263.07119,78.550528 262.97539,78.504528 262.92172,78.483878 262.86629,78.472528 262.81179,78.470928 L 262.81153,78.471 C 262.80474,78.470799 262.79792,78.470717 262.79115,78.470822 Z M 257.40012,78.470754 257.40005,78.470862 C 257.35855,78.470862 257.31983,78.472711 257.28385,78.476469 257.2277,78.481991 257.18764,78.489209 257.13615,78.499139 V 79.350139 L 257.31495,79.353841 V 78.994641 C 257.33716,79.000725 257.35883,79.015771 257.37988,79.016601 257.39978,79.017416 257.4188,79.020837 257.43687,79.019225 257.47339,79.016009 257.50891,79.007945 257.54307,78.995095 257.61226,78.967475 257.66987,78.920015 257.70347,78.858295 257.73641,78.785755 257.73661,78.706495 257.70517,78.639495 257.66828,78.566855 257.60387,78.517495 257.53337,78.492695 257.49264,78.477975 257.44807,78.470815 257.40017,78.470815 Z M 254.11112,78.47079 254.11104,78.470862 C 254.02996,78.470381 253.94864,78.482812 253.87664,78.496702 L 253.84698,78.502453 V 79.354153 H 254.02578 V 78.973053 C 254.04816,78.977952 254.0675,78.987573 254.09071,78.992133 254.10844,78.995618 254.12769,78.994245 254.14499,78.99278 254.19091,79.01646 254.21259,79.08388 254.22584,79.12518 254.23588,79.15702 254.24493,79.19034 254.25285,79.22518 V 79.22554 C 254.26639,79.27293 254.28063,79.31202 254.30054,79.35414 H 254.49174 L 254.46837,79.30303 C 254.43616,79.2358 254.42361,79.16713 254.40139,79.09853 V 79.09835 C 254.39113,79.06414 254.37803,79.0326 254.36188,79.00389 254.35095,78.98355 254.33555,78.96611 254.31834,78.95001 254.39258,78.90255 254.43974,78.82301 254.44074,78.74311 254.43574,78.66565 254.40329,78.59551 254.34809,78.54951 254.27875,78.49366 254.19229,78.47109 254.11119,78.47065 Z M 258.25812,78.47079 258.25789,78.470862 C 258.20351,78.469258 258.15019,78.477343 258.10089,78.495632 L 258.10082,78.495416 C 257.99362,78.540596 257.91502,78.624916 257.87202,78.720516 V 78.720876 C 257.82686,78.847876 257.82291,78.984376 257.86693,79.104176 V 79.104607 C 257.90903,79.209607 257.98713,79.291407 258.08543,79.336107 258.19123,79.376207 258.30653,79.375907 258.40363,79.336107 H 258.40417 C 258.50927,79.287777 258.58517,79.199407 258.62437,79.102707 258.66503,78.983507 258.66611,78.859207 258.63066,78.747207 258.59386,78.639007 258.51746,78.550507 258.42166,78.504507 258.36804,78.483857 258.31256,78.472537 258.25806,78.470937 Z M 253.03912,78.470862 V 78.622062 H 253.27432 V 79.338862 H 253.45412 V 78.622062 H 253.69042 V 78.470862 H 253.03902 Z M 254.95312,78.470862 254.63592,79.338962 H 254.81962 L 254.8861,79.148462 H 255.1662 L 255.23303,79.338962 H 255.42463 L 255.10783,78.470862 Z M 255.55732,78.470862 V 79.338962 H 255.72052 V 78.771962 L 256.08042,79.338962 H 256.23172 V 78.470862 H 256.06512 V 79.015562 L 255.71952,78.470862 H 255.55712 Z M 256.66532,78.470862 C 256.59449,78.472624 256.52752,78.494472 256.47852,78.538512 256.43134,78.584222 256.40623,78.643312 256.40445,78.705112 256.40756,78.793242 256.45105,78.860312 256.51555,78.909212 L 256.51584,78.909392 256.51609,78.909572 C 256.57492,78.952712 256.63889,78.977242 256.69809,79.012872 256.74283,79.038912 256.76697,79.069612 256.77728,79.116672 256.77728,79.145472 256.76819,79.165882 256.74598,79.186182 256.68678,79.223652 256.62718,79.217502 256.56618,79.205912 256.53572,79.199899 256.50505,79.190212 256.47407,79.176612 L 256.43922,79.161332 256.3835,79.298832 256.41441,79.313462 C 256.45677,79.333482 256.50051,79.345892 256.54341,79.354722 256.58365,79.361771 256.62246,79.365052 256.66101,79.366292 256.74268,79.364359 256.82161,79.342942 256.87951,79.292572 256.93,79.245202 256.96009,79.182872 256.96065,79.118872 256.95768,79.029362 256.91392,78.960472 256.84865,78.910572 256.7888,78.866682 256.72435,78.837862 256.66465,78.802272 256.63908,78.787012 256.61876,78.770842 256.60308,78.754182 256.58199,78.726172 256.58361,78.703412 256.59015,78.673302 256.60992,78.636902 256.63968,78.627242 256.67672,78.623192 256.72817,78.624825 256.77822,78.632076 256.82582,78.645732 L 256.85758,78.655186 256.91574,78.517286 256.87738,78.505386 C 256.80676,78.483646 256.73418,78.471116 256.66568,78.470916 L 256.66556,78.47088 Z M 259.56732,78.470862 V 78.622062 H 259.80252 V 79.338862 H 259.98242 V 78.622062 H 260.21872 V 78.470862 Z M 260.62932,78.470862 260.31232,79.338962 H 260.49602 L 260.56252,79.148462 H 260.84262 L 260.90949,79.338962 H 261.10089 L 260.78409,78.470862 H 260.62959 Z M 261.19062,78.470862 V 78.622062 H 261.42582 V 79.338862 H 261.60562 V 78.622062 H 261.84192 V 78.470862 H 261.19052 Z M 262.05662,78.470862 V 79.338962 H 262.23202 V 78.470862 Z M 263.36362,78.470862 V 79.338962 H 263.52682 V 78.771962 L 263.88672,79.338962 H 264.03802 V 78.470862 H 263.87142 V 79.015562 L 263.52582,78.470862 H 263.36342 Z M 262.80042,78.620162 C 262.86424,78.622311 262.91952,78.652182 262.95592,78.696332 263.00375,78.762102 263.0229,78.840732 263.02442,78.917732 263.02212,78.996242 263.00498,79.073432 262.95976,79.133432 L 262.95947,79.133612 262.95918,79.133899 C 262.91889,79.184089 262.86193,79.214469 262.80008,79.216489 262.73418,79.214801 262.67928,79.182779 262.64168,79.137299 262.59378,79.070899 262.57645,78.991199 262.5761,78.917899 262.57786,78.837039 262.59654,78.757899 262.64456,78.696299 262.69062,78.654079 262.74826,78.621529 262.80036,78.620169 L 262.8004,78.619953 Z M 254.11142,78.623037 V 78.623146 H 254.11171 C 254.15219,78.622802 254.18392,78.638706 254.21511,78.659196 254.24187,78.682146 254.25089,78.709256 254.25585,78.741216 254.25585,78.777006 254.23879,78.804136 254.21769,78.827726 254.19204,78.849976 254.16507,78.871656 254.13275,78.876526 254.10288,78.877434 254.07753,78.891886 254.05477,78.909986 254.04321,78.919186 254.02642,78.950786 254.02642,78.937366 V 78.628166 C 254.05477,78.622654 254.08653,78.623214 254.11142,78.622991 Z M 257.40042,78.623037 257.40046,78.62311 C 257.44124,78.622552 257.4739,78.63677 257.50346,78.65966 257.53315,78.68263 257.54264,78.7154 257.54468,78.74776 257.53935,78.82176 257.48202,78.85846 257.42048,78.87666 257.38996,78.882757 257.37337,78.88923 257.34776,78.90404 257.33329,78.912402 257.32087,78.93557 257.31525,78.94979 V 78.62759 C 257.34503,78.625714 257.37559,78.623038 257.40038,78.622954 Z M 259.06742,78.623146 C 259.09188,78.62406 259.11537,78.627173 259.13542,78.631988 H 259.13596 C 259.18781,78.655598 259.22218,78.688668 259.22305,78.740288 259.22396,78.795898 259.19423,78.838188 259.15155,78.860988 259.12819,78.882358 259.06225,78.875988 259.03265,78.901028 258.99831,78.930028 258.99692,78.942898 258.99287,78.961518 258.99276,78.844818 258.9928,78.730218 258.99359,78.627518 259.01757,78.623502 259.043,78.622216 259.06747,78.623133 Z M 258.24362,78.624116 C 258.30515,78.625655 258.36482,78.653616 258.40112,78.696326 L 258.40119,78.69629 C 258.44902,78.76208 258.46811,78.84069 258.46965,78.91789 258.46736,78.9964 258.45023,79.07359 258.40502,79.13359 L 258.40475,79.133769 258.40447,79.134092 C 258.3642,79.184292 258.30714,79.214632 258.24537,79.216652 258.17944,79.214964 258.12437,79.182972 258.08697,79.137502 258.03907,79.071102 258.02176,78.991302 258.0214,78.918102 258.02183,78.810302 258.07141,78.686002 258.1605,78.639802 258.18723,78.628502 258.21559,78.623752 258.24358,78.624452 V 78.624202 Z M 255.02662,78.749616 255.14242,79.070516 C 255.12442,79.046956 255.08723,78.997276 255.05525,78.997276 H 254.93915 Z M 260.70462,78.749616 260.82052,79.066916 C 260.79932,79.042516 260.79474,79.011706 260.73563,79.002536 L 260.61703,78.997144 260.70455,78.749644 Z" style="display:none;fill:#290a43;stroke-width:0.01866" inkscape:connector-curvature="0" />
  <path id="sT" d="M 257.4,78.5 C 257.35933,78.5 257.32163,78.501815 257.2869,78.505464 257.25213,78.508383 257.21405,78.513865 257.1727,78.521884 V 79.307484 L 257.2781,79.309676 V 78.586276 C 257.31802,78.581897 257.3587,78.579733 257.4001,78.579733 257.42524,78.579733 257.44856,78.583749 257.47,78.591773 257.49218,78.5998 257.51138,78.611073 257.52767,78.625673 257.54392,78.640263 257.55687,78.657413 257.56649,78.677113 257.5761,78.696803 257.58093,78.717963 257.58093,78.740583 257.58093,78.763933 257.5761,78.785463 257.56649,78.805173 257.55687,78.824143 257.54431,78.840893 257.52878,78.855483 257.514,78.869343 257.49699,78.880313 257.47777,78.888333 257.45853,78.896357 257.4393,78.900373 257.42006,78.900373 257.3964,78.900373 257.37609,78.906938 257.35908,78.920063 257.3428,78.932463 257.3306,78.948143 257.32247,78.967123 257.34317,78.972959 257.36278,78.976244 257.38126,78.976973 257.39975,78.977704 257.41711,78.977318 257.43339,78.975858 257.46667,78.972942 257.49882,78.965638 257.52989,78.953978 257.56094,78.942308 257.58867,78.926628 257.61307,78.906918 257.63748,78.886488 257.65672,78.862438 257.67077,78.834708 257.68555,78.807008 257.69293,78.775638 257.69293,78.740648 V 78.740575 C 257.69292,78.707765 257.68589,78.676795 257.67184,78.647615 257.65853,78.618425 257.63894,78.592905 257.61305,78.571025 257.5879,78.549145 257.55723,78.531995 257.521,78.519585 257.48476,78.506455 257.44445,78.499895 257.4,78.499895 Z M 262.092,78.501581 V 79.297181 H 262.1941 V 78.501581 Z M 254.113,78.504311 C 254.07234,78.504311 254.03464,78.506513 253.9999,78.51089 253.96515,78.515269 253.92706,78.52145 253.8857,78.52948 V 79.31528 H 253.9911 V 78.59408 C 254.01772,78.588974 254.03956,78.586074 254.05657,78.585345 254.07357,78.584615 254.09241,78.584231 254.11311,78.584231 254.13826,78.584231 254.16157,78.588246 254.18302,78.596271 254.2052,78.604297 254.22442,78.615261 254.24068,78.629121 254.25695,78.642981 254.26989,78.659391 254.2795,78.678371 254.28913,78.696611 254.29391,78.716651 254.29391,78.738551 254.29391,78.761171 254.28913,78.781981 254.2795,78.800951 254.26989,78.819921 254.25734,78.836341 254.24181,78.850201 254.22702,78.863331 254.21001,78.873921 254.19078,78.881941 254.17156,78.889968 254.15231,78.894331 254.13309,78.895061 254.10942,78.89579 254.0891,78.902356 254.0721,78.914751 254.05583,78.927151 254.04363,78.942831 254.03548,78.961811 254.0562,78.966921 254.07579,78.970202 254.09428,78.97166 254.11276,78.972391 254.13015,78.972042 254.14642,78.970582 254.15085,78.970582 254.15416,78.970235 254.15638,78.969504 254.18522,78.980444 254.2074,78.998674 254.22294,79.024214 254.23921,79.049754 254.25252,79.078944 254.26288,79.111774 254.27322,79.144604 254.28246,79.178894 254.2906,79.214674 254.29947,79.250434 254.31131,79.283984 254.3261,79.315374 H 254.437 C 254.41999,79.278164 254.40668,79.242014 254.39707,79.206974 254.38819,79.171214 254.3786,79.137674 254.36824,79.106274 254.35863,79.074174 254.34641,79.045014 254.33164,79.018754 254.3176,78.992494 254.2969,78.970204 254.26954,78.951974 L 254.24734,78.943238 254.27394,78.934467 C 254.3124,78.915497 254.34387,78.889617 254.36826,78.856787 254.3934,78.823217 254.40596,78.784537 254.40596,78.740787 V 78.738631 C 254.40596,78.707251 254.39893,78.677331 254.38486,78.648881 254.37155,78.620431 254.35196,78.595641 254.32608,78.574481 254.30093,78.552601 254.27026,78.535451 254.23403,78.523041 254.19779,78.510641 254.15747,78.504421 254.11303,78.504421 Z M 259.077,78.504311 C 259.03632,78.504311 258.99859,78.506513 258.9639,78.51089 258.92915,78.515269 258.89106,78.52145 258.8497,78.52948 V 79.31528 H 258.9551 V 78.59408 C 258.98173,78.588974 259.00352,78.586074 259.02053,78.585345 259.03753,78.584615 259.05642,78.584231 259.07712,78.584231 259.10227,78.584231 259.12553,78.588246 259.14698,78.596271 259.16917,78.604297 259.18837,78.615261 259.20464,78.629121 259.22091,78.642981 259.2339,78.659391 259.24351,78.678371 259.25312,78.696611 259.25792,78.716651 259.25792,78.738551 259.25792,78.761171 259.25312,78.781981 259.24351,78.800951 259.2339,78.819921 259.2213,78.836341 259.20577,78.850201 259.19098,78.863331 259.17397,78.873921 259.15476,78.881941 259.13552,78.889968 259.11631,78.894331 259.09708,78.895061 259.07342,78.89579 259.05307,78.902356 259.03605,78.914751 259.01979,78.927151 259.00759,78.942831 258.99945,78.961811 259.02016,78.966921 259.03979,78.970202 259.05828,78.97166 259.07677,78.972391 259.09411,78.972042 259.11037,78.970582 259.11481,78.970582 259.11816,78.970235 259.12037,78.969504 259.14922,78.980444 259.1714,78.998674 259.18693,79.024214 259.20321,79.049754 259.21651,79.078944 259.22687,79.111774 259.23722,79.144604 259.24646,79.178894 259.2546,79.214674 259.26347,79.250434 259.27531,79.283984 259.29009,79.315374 H 259.40099 C 259.38399,79.278164 259.37068,79.242014 259.36106,79.206974 259.3522,79.171214 259.34256,79.137674 259.33222,79.106274 259.3226,79.074174 259.3104,79.045014 259.2956,79.018754 259.28155,78.992494 259.26086,78.970204 259.2335,78.951974 L 259.21133,78.943238 259.23795,78.934467 C 259.27639,78.915497 259.30782,78.889617 259.33224,78.856787 259.35737,78.823217 259.36992,78.784537 259.36992,78.740787 V 78.738631 C 259.36992,78.707251 259.36293,78.677331 259.34886,78.648881 259.33555,78.620431 259.31596,78.595641 259.29007,78.574481 259.26493,78.552601 259.23423,78.535451 259.198,78.523041 259.16177,78.510641 259.12148,78.504421 259.0772,78.504421 Z M 256.1,78.50665 V 79.12165 L 256.1022,79.15993 256.08887,79.12384 255.69727,78.50674 H 255.59187 V 79.30234 H 255.6817 V 78.66654 L 255.6795,78.62935 255.69502,78.66654 256.09882,79.30214 H 256.19311 V 78.50654 Z M 263.908,78.50665 V 79.12165 L 263.91024,79.15993 263.89691,79.12384 263.50531,78.50674 H 263.39991 V 79.30234 H 263.48974 V 78.66654 L 263.48753,78.62935 263.50306,78.66654 263.90676,79.30214 H 264.00104 V 78.50654 Z M 255.079,78.506973 254.9758,78.507153 254.6852,79.302753 H 254.7906 L 254.85717,79.112253 H 255.13667 C 255.12853,79.091093 255.11746,79.072873 255.1034,79.057543 255.08936,79.041493 255.069,79.033453 255.04238,79.033453 H 254.89258 L 254.87926,79.035645 254.89145,79.012645 255.01575,78.661345 255.02352,78.629605 255.03128,78.661345 255.25648,79.302545 H 255.36958 Z M 260.758,78.506973 260.6548,78.507153 260.3642,79.302753 H 260.4696 L 260.53615,79.112253 H 260.81565 C 260.80752,79.091093 260.79645,79.072873 260.78239,79.057543 260.76835,79.041493 260.748,79.033453 260.72137,79.033453 H 260.57157 L 260.55827,79.035645 260.57046,79.012645 260.69476,78.661345 260.70253,78.629605 260.71028,78.661345 260.93548,79.302545 H 261.04858 Z M 256.663,78.5124 C 256.62972,78.5124 256.5994,78.517535 256.57205,78.52775 256.54469,78.53796 256.52101,78.55217 256.50105,78.57041 256.48109,78.58865 256.46552,78.60981 256.45445,78.63388 256.44409,78.65795 256.43892,78.68348 256.43892,78.71047 256.43892,78.75132 256.44816,78.78561 256.46664,78.81337 256.48514,78.84109 256.50807,78.86519 256.53544,78.88562 256.5628,78.90531 256.59273,78.92316 256.62527,78.93921 256.65781,78.95453 256.68773,78.97059 256.7151,78.98737 256.74246,79.00415 256.76541,79.02311 256.78389,79.04427 256.80238,79.0647 256.81163,79.09061 256.81163,79.12199 256.81163,79.15992 256.79719,79.19201 256.76836,79.21827 256.73953,79.24381 256.69884,79.25659 256.64626,79.25659 256.62038,79.25659 256.59045,79.253307 256.55643,79.246741 256.52315,79.240174 256.48988,79.229591 256.45661,79.214991 L 256.42774,79.286121 C 256.44623,79.294876 256.46583,79.302521 256.48654,79.309091 256.50724,79.315657 256.52758,79.320791 256.54756,79.324441 256.56752,79.328087 256.58712,79.330637 256.60634,79.332095 256.62558,79.334284 256.64296,79.335366 256.65849,79.335366 256.70063,79.335366 256.73796,79.329535 256.77049,79.317866 256.80303,79.306196 256.83039,79.290516 256.85256,79.270806 256.87548,79.251116 256.89249,79.228476 256.90359,79.202936 256.91541,79.177396 256.92135,79.151146 256.92135,79.124156 256.92135,79.082566 256.91211,79.047546 256.8936,79.019056 256.87513,78.990606 256.85185,78.965816 256.82375,78.944656 256.79565,78.923496 256.76533,78.904886 256.7328,78.888836 256.70098,78.872056 256.67107,78.855246 256.64297,78.838486 256.61486,78.821726 256.59154,78.803486 256.57307,78.783776 256.55458,78.763346 256.54533,78.738906 256.54533,78.710456 256.54533,78.694406 256.54792,78.679466 256.5531,78.665586 256.55902,78.650996 256.56753,78.638216 256.57863,78.627266 256.58972,78.616326 256.60303,78.607946 256.61856,78.602106 256.63482,78.595539 256.65332,78.592255 256.67402,78.592255 256.69473,78.592255 256.71838,78.594072 256.74502,78.59772 256.77237,78.600638 256.80192,78.606856 256.83374,78.61634 L 256.8637,78.54521 C 256.82598,78.53354 256.79083,78.52511 256.7583,78.52002 256.7265,78.514913 256.69473,78.512364 256.66294,78.512364 Z M 258.246,78.512507 C 258.20236,78.512507 258.15839,78.520924 258.114,78.537707 258.07038,78.554487 258.03042,78.580017 257.9942,78.614297 257.95795,78.648577 257.9284,78.691647 257.90547,78.743497 257.88329,78.795287 257.87217,78.856197 257.87217,78.926197 257.87217,78.991127 257.8818,79.049097 257.90104,79.100197 257.921,79.151267 257.94762,79.194677 257.9809,79.230397 258.01492,79.265417 258.05448,79.292417 258.0996,79.311367 258.14544,79.330337 258.19422,79.339837 258.246,79.339837 258.29628,79.339837 258.34399,79.330339 258.389,79.311367 258.43412,79.291677 258.47368,79.263947 258.5077,79.228187 258.54246,79.191707 258.56982,79.148297 258.58977,79.097987 258.60974,79.046917 258.61974,78.989687 258.61974,78.926187 258.61974,78.870007 258.6116,78.816787 258.59533,78.766387 258.57907,78.716037 258.55503,78.672257 258.52324,78.635087 258.49143,78.597157 258.45224,78.567257 258.40574,78.545367 258.35917,78.523487 258.30589,78.512517 258.24604,78.512517 Z M 262.802,78.512507 C 262.75836,78.512507 262.71435,78.520924 262.67,78.537707 262.62638,78.554487 262.58642,78.580017 262.5503,78.614297 262.51405,78.648577 262.4845,78.691647 262.46157,78.743497 262.43937,78.795287 262.42826,78.856197 262.42826,78.926197 262.42826,78.991127 262.43789,79.049097 262.45713,79.100197 262.47709,79.151267 262.50371,79.194677 262.53701,79.230397 262.57101,79.265417 262.61057,79.292417 262.65561,79.311367 262.70146,79.330337 262.75026,79.339837 262.80211,79.339837 262.85239,79.339837 262.90004,79.330339 262.94511,79.311367 262.99021,79.291677 263.02978,79.263947 263.06371,79.228187 263.09848,79.191707 263.12583,79.148297 263.14578,79.097987 263.16576,79.046917 263.17575,78.989687 263.17575,78.926187 263.17575,78.870007 263.16761,78.816787 263.15134,78.766387 263.13508,78.716057 263.11105,78.672257 263.07925,78.635087 263.04745,78.597157 263.00827,78.567257 262.96175,78.545367 262.91519,78.523487 262.86195,78.512517 262.80205,78.512517 Z M 253.076,78.513514 V 78.592294 H 253.3112 V 79.309094 H 253.4177 V 78.592294 H 253.654 V 78.513514 Z M 259.602,78.513514 V 78.592294 H 259.8372 V 79.309094 H 259.9437 V 78.592294 H 260.18 V 78.513514 Z M 261.225,78.513514 V 78.592294 H 261.4602 V 79.309094 H 261.5667 V 78.592294 H 261.803 V 78.513514 Z M 258.246,78.592374 C 258.28149,78.592374 258.31516,78.600059 258.347,78.615374 258.3788,78.630694 258.40652,78.652934 258.4302,78.682124 258.45387,78.711314 258.47234,78.746684 258.48565,78.788224 258.49971,78.829084 258.50671,78.875064 258.50671,78.926124 258.50671,78.972814 258.50043,79.016574 258.48785,79.057424 258.47528,79.098284 258.45755,79.133684 258.43463,79.163624 258.41244,79.193524 258.38506,79.217254 258.35253,79.234754 258.32072,79.252264 258.28523,79.260994 258.24603,79.260994 258.20832,79.260994 258.17358,79.252999 258.14173,79.236944 258.10994,79.220164 258.08221,79.197154 258.05854,79.167964 258.03562,79.138064 258.01752,79.102674 258.00421,79.061864 257.99164,79.021004 257.98536,78.975794 257.98536,78.926164 257.98536,78.875094 257.99198,78.829104 258.00528,78.788264 258.01933,78.746674 258.03821,78.711304 258.06188,78.682164 258.08555,78.652974 258.11327,78.630744 258.14506,78.615414 258.17687,78.600094 258.2105,78.592414 258.24606,78.592414 Z M 262.802,78.592374 C 262.83749,78.592374 262.87111,78.600059 262.903,78.615374 262.93479,78.630694 262.96253,78.652934 262.9862,78.682124 263.00985,78.711314 263.02834,78.746684 263.04165,78.788224 263.05569,78.829084 263.06271,78.875064 263.06271,78.926124 263.06271,78.972814 263.05643,79.016574 263.04385,79.057424 263.03127,79.098284 263.01355,79.133684 262.99063,79.163624 262.96843,79.193524 262.94105,79.217254 262.90852,79.234754 262.87672,79.252264 262.84126,79.260994 262.80202,79.260994 262.76429,79.260994 262.72952,79.252999 262.69772,79.236944 262.66591,79.220164 262.63819,79.197154 262.61451,79.167964 262.59159,79.138064 262.57349,79.102674 262.56018,79.061864 262.54761,79.021004 262.54134,78.975794 262.54134,78.926164 262.54134,78.875094 262.54799,78.829104 262.5613,78.788264 262.57534,78.746674 262.59419,78.711304 262.61784,78.682164 262.64151,78.652974 262.66925,78.630744 262.70103,78.615414 262.73285,78.600094 262.7665,78.592414 262.80203,78.592414 Z" style="display:none;fill:url(#linearGradient6201);stroke-width:1.00199997" inkscape:connector-curvature="0" />
  <path id="rS" d="M 256.3,76.52 C 256.1642,76.52324 256.031,76.56343 255.9339,76.6453 255.83563,76.73205 255.7896,76.8542 255.7888,76.972 255.79018,77.1412 255.88222,77.2727 256.0025,77.3649 256.131,77.45852 256.2739,77.515 256.4007,77.5933 256.516,77.65964 256.6155,77.7612 256.617,77.8855 256.61427,77.9662 256.57866,78.0373 256.52366,78.0868 256.44871,78.14479 256.35586,78.1674 256.27066,78.16785 256.11716,78.164731 255.96686,78.12801 255.83816,78.06965 L 255.7669,78.24885 C 255.85866,78.29307 255.9511,78.32334 256.0446,78.33972 256.2109,78.37147 256.389,78.37929 256.541,78.329908 256.6726,78.281548 256.7878,78.195308 256.8433,78.076908 256.90174,77.940208 256.89762,77.770708 256.82367,77.652008 256.7338,77.516108 256.60087,77.422108 256.46747,77.354808 256.33977,77.284028 256.20827,77.221108 256.11127,77.121408 256.02571,77.019608 256.03919,76.873908 256.12108,76.789808 256.23348,76.697528 256.35888,76.713838 256.48228,76.730868 256.54291,76.737422 256.60928,76.751348 256.68138,76.772648 L 256.75508,76.595848 C 256.60398,76.548678 256.45098,76.520538 256.30028,76.519858 Z M 257.822,76.523056 C 257.468,76.524336 257.1827,76.714956 257.0469,77.069056 256.96088,77.301256 256.95507,77.577756 257.04351,77.821356 257.25051,78.297856 257.72491,78.478556 258.16151,78.297856 258.62481,78.046856 258.75511,77.541156 258.61851,77.088856 258.54883,76.855356 258.39721,76.677556 258.19591,76.585356 258.06551,76.542716 257.93981,76.522106 257.82191,76.522526 Z M 260.196,76.550656 259.9307,76.550727 259.93442,77.666727 C 259.93721,77.858127 259.991,78.045427 260.11382,78.177427 260.25142,78.313127 260.44052,78.365527 260.61282,78.366627 260.80072,78.364622 260.97912,78.299107 261.10162,78.175027 261.23292,78.031027 261.28742,77.841527 261.28842,77.666727 V 76.550727 H 261.02552 V 77.706727 C 261.0237,77.832627 260.98962,77.957727 260.91002,78.045727 260.8294,78.129697 260.71792,78.167827 260.61272,78.168527 260.49542,78.16763 260.38772,78.122777 260.31282,78.045727 260.23079,77.947547 260.20042,77.821227 260.19982,77.706727 Z M 253.545,76.551986 C 253.4375,76.550794 253.3316,76.560188 253.2282,76.578836 253.18394,76.58539 253.13564,76.593526 253.0832,76.603346 V 78.367346 H 253.3511 V 76.768346 C 253.43524,76.750946 253.5281,76.748706 253.6041,76.748656 253.7042,76.752154 253.8028,76.784006 253.8744,76.844476 253.94304,76.907266 253.9866,76.994476 253.9874,77.080176 253.98486,77.171586 253.94491,77.255176 253.8842,77.313576 253.82686,77.362136 253.748,77.415576 253.6835,77.419176 253.63107,77.422449 253.5868,77.444926 253.5508,77.479316 253.51475,77.513696 253.4951,77.533786 253.47707,77.576356 253.51475,77.586179 253.54282,77.587386 253.57727,77.590656 253.62949,77.59393 253.67617,77.595433 253.72537,77.590477 253.78435,77.618297 253.80985,77.673747 253.84257,77.731077 253.91401,77.865777 253.95357,78.012077 253.98517,78.148677 254.00318,78.225617 254.02858,78.298477 254.06136,78.367277 H 254.33906 C 254.26104,78.206177 254.23426,78.034377 254.18176,77.876077 254.1354,77.733377 254.05256,77.598877 253.92866,77.537077 L 253.99007,77.514897 C 254.07364,77.472327 254.14087,77.414197 254.19157,77.340497 254.2805,77.189097 254.29012,77.014897 254.21855,76.868997 254.14567,76.724797 254.00975,76.633997 253.87205,76.589097 253.76185,76.565427 253.65265,76.553677 253.54515,76.552477 Z M 254.5239,76.581356 V 78.366356 H 255.5949 V 78.167456 H 254.7914 V 76.779456 H 255.5581 V 76.580656 Z M 258.8409,76.581356 V 78.366356 H 259.8263 C 259.82444,78.299796 259.8287,78.225856 259.82876,78.165056 H 259.11106 V 76.581056 Z M 261.4399,76.581356 V 76.780256 H 261.9439 V 78.367256 H 262.2142 V 76.780256 H 262.7206 V 76.581356 Z M 262.8729,76.581356 V 78.366356 H 263.9449 V 78.167456 H 263.1414 V 76.779456 H 263.9081 V 76.580656 Z M 257.8389,76.713756 C 257.9845,76.711661 258.1255,76.775496 258.2261,76.910256 258.4307,77.206756 258.4313,77.678556 258.22859,77.961256 258.03869,78.255356 257.61869,78.225756 257.42249,77.958847 257.22339,77.642647 257.22339,77.188147 257.42494,76.912847 257.54324,76.783847 257.69334,76.715947 257.83884,76.713747 Z M 255.1509,77.343856 C 255.1024,77.34579 255.06029,77.361676 255.0271,77.394206 254.99376,77.430806 254.96475,77.475386 254.95093,77.515806 H 255.51853 V 77.343906 C 255.39663,77.345072 255.27173,77.342271 255.15093,77.343886 Z M 263.4999,77.343856 C 263.4514,77.34579 263.40934,77.361676 263.3761,77.394206 263.34274,77.430806 263.31374,77.475386 263.29991,77.515806 H 263.86751 V 77.343906 L 263.52101,77.34387 C 263.51382,77.343583 263.50673,77.343594 263.49981,77.34387 Z" style="display:none;fill:url(#linearGradient6193);stroke:url(#linearGradient6193);stroke-width:0.13429999" inkscape:connector-curvature="0" />
  <path id="rP" d="M 257.84933,76.51 C 257.73373,76.507628 257.61893,76.52859 257.50613,76.57408 257.28023,76.66508 257.13503,76.83688 257.06763,76.99718 257.00011,77.15748 256.97634,77.28928 256.97634,77.43828 256.97744,77.79748 257.17944,78.18338 257.48624,78.30838 257.71124,78.39427 257.96324,78.39322 258.17504,78.30166 258.63834,78.05066 258.76494,77.54126 258.62834,77.08966 258.55866,76.85616 258.39974,76.67836 258.19824,76.58616 258.08144,76.53835 257.96474,76.51262 257.84924,76.51025 Z M 256.30133,76.516254 C 256.16583,76.519696 256.02733,76.563624 255.93043,76.645254 255.83217,76.732004 255.78253,76.854154 255.78163,76.971954 255.78301,77.141154 255.87874,77.272654 255.99903,77.364854 256.12753,77.458474 256.27603,77.516754 256.40283,77.595054 256.51813,77.661394 256.61403,77.761054 256.61543,77.885454 256.61269,77.966154 256.57706,78.037254 256.52205,78.086754 256.44712,78.144744 256.35805,78.163694 256.27265,78.164134 256.11915,78.161017 255.96335,78.124254 255.83465,78.065894 L 255.76339,78.254294 C 255.93379,78.330074 256.11359,78.371294 256.29229,78.372194 256.45379,78.370288 256.61729,78.323964 256.73519,78.226694 256.83709,78.137624 256.89149,78.010594 256.89249,77.887694 256.89079,77.715494 256.79886,77.577194 256.67619,77.482494 256.54739,77.383224 256.39809,77.320594 256.26759,77.241794 256.15869,77.176464 256.05289,77.083094 256.05129,76.961894 256.0575,76.803994 256.19429,76.718194 256.32389,76.716794 256.44829,76.721274 256.57379,76.740904 256.68269,76.772724 L 256.75639,76.595924 C 256.60539,76.548004 256.44659,76.516464 256.30089,76.516164 Z M 253.58433,76.541304 C 253.5548,76.540921 253.52643,76.54174 253.49957,76.543604 253.35417,76.552708 253.20167,76.573564 253.07177,76.597834 V 78.373834 H 253.35997 V 76.770834 C 253.44412,76.753434 253.52967,76.751194 253.60567,76.751144 253.74787,76.752834 253.89497,76.838134 253.95347,76.952644 253.99396,77.037404 253.99425,77.130944 253.95592,77.209344 253.91719,77.288254 253.85222,77.349544 253.77902,77.383744 253.73969,77.400114 253.71148,77.409124 253.67212,77.410774 253.61968,77.414046 253.57548,77.432854 253.53942,77.467234 253.50337,77.501614 253.47631,77.540114 253.45828,77.582634 253.49596,77.592459 253.53206,77.595354 253.56648,77.598634 253.61859,77.602003 253.66488,77.603578 253.71398,77.598634 253.83728,77.666944 253.88448,77.806234 253.91968,77.924034 253.96886,78.075934 253.99338,78.238034 254.05728,78.373634 H 254.34598 C 254.26797,78.212534 254.24118,78.033334 254.18868,77.875134 254.1425,77.729134 254.05728,77.599634 253.92998,77.536134 254.04208,77.505914 254.14428,77.419434 254.20018,77.339634 254.28911,77.188234 254.29873,77.008534 254.22715,76.862434 254.15352,76.714734 254.01525,76.628734 253.87335,76.582534 253.77185,76.554004 253.67275,76.541884 253.58425,76.540744 Z M 260.20633,76.545185 259.92623,76.545257 259.92995,77.676257 C 259.93276,77.867657 259.99393,78.054957 260.11675,78.186957 260.25435,78.322657 260.44345,78.375057 260.61575,78.376157 260.80355,78.374151 260.98205,78.308637 261.10455,78.184557 261.23585,78.040557 261.29775,77.851057 261.29865,77.676257 V 76.545257 H 261.02095 V 77.703257 C 261.01913,77.829157 260.99245,77.954257 260.91285,78.042257 260.83226,78.126227 260.72075,78.164257 260.61565,78.164957 260.49835,78.164061 260.39065,78.119247 260.31575,78.042257 260.23372,77.944077 260.21065,77.817757 260.21005,77.703257 Z M 261.43133,76.566645 V 76.785845 H 261.94083 V 78.372845 H 262.22223 V 76.785845 H 262.72863 V 76.566645 Z M 262.86833,76.570348 V 78.372348 H 263.95633 V 78.156848 H 263.15103 V 76.785848 H 263.91973 V 76.570548 Z M 254.51733,76.574014 V 78.372014 H 255.60333 V 78.163914 H 254.79783 V 76.783914 H 255.57023 V 76.574114 Z M 258.83033,76.574014 V 78.376014 H 259.83633 C 259.83447,78.309454 259.83873,78.218914 259.83879,78.158114 H 259.12109 V 76.574114 Z M 257.81233,76.717414 C 258.21493,76.716187 258.37443,77.049814 258.38393,77.438214 258.3631,77.800714 258.20413,78.153914 257.82973,78.164014 257.46673,78.160383 257.30763,77.801114 257.27883,77.438414 257.3045,77.070914 257.44743,76.741814 257.81253,76.717414 Z M 263.50633,77.321914 C 263.44839,77.322936 263.39913,77.357104 263.36143,77.394384 263.3231,77.432714 263.30106,77.485444 263.2852,77.532484 H 263.8878 V 77.321984 Z M 255.15733,77.332984 C 255.0994,77.334005 255.05013,77.357094 255.01243,77.394374 254.9741,77.432704 254.95207,77.481734 254.93622,77.528774 H 255.53332 V 77.332974 Z" style="display:none;fill:url(#linearGradientPurp);stroke:url(#linearGradientPurp);stroke-width:0.06587" inkscape:connector-curvature="0" />
  <path id="rB" d="M 257.83465,76.51 C 257.72225,76.507991 257.61535,76.52853 257.50885,76.57049 L 257.50892,76.570527 C 257.28132,76.665187 257.12142,76.846727 257.05022,77.041127 256.94702,77.299127 256.96389,77.602427 257.04276,77.818327 257.12599,78.038627 257.28546,78.211927 257.48436,78.298827 257.98616,78.466427 258.41746,78.278157 258.60336,77.810927 258.75906,77.296927 258.61352,76.789927 258.19366,76.584927 258.06506,76.536617 257.94706,76.512067 257.83466,76.510067 Z M 256.29765,76.519274 C 256.22706,76.519977 256.15835,76.528587 256.09435,76.551694 255.96755,76.594554 255.87595,76.674394 255.82395,76.785094 255.76719,76.918894 255.77507,77.085394 255.84854,77.200094 255.88953,77.262314 255.94029,77.316394 256.00094,77.362194 256.13934,77.462994 256.26624,77.506694 256.39914,77.590594 256.54134,77.666954 256.66814,77.838494 256.59084,77.993394 256.48244,78.188094 256.24884,78.175694 256.06744,78.143194 255.99205,78.128454 255.91504,78.103134 255.83644,78.067094 L 255.76513,78.246394 C 255.8569,78.290614 255.94943,78.320874 256.04303,78.337254 256.21383,78.371744 256.37633,78.378714 256.53983,78.327405 256.67663,78.276925 256.78223,78.202505 256.84213,78.074405 256.90055,77.937705 256.89653,77.768005 256.82251,77.649505 256.73249,77.507205 256.59961,77.419605 256.46611,77.352305 256.33851,77.281505 256.21001,77.221805 256.10971,77.118905 256.01624,77.014005 256.03752,76.863305 256.11957,76.787305 256.27807,76.666505 256.51117,76.719785 256.67997,76.770165 L 256.75365,76.593265 C 256.66351,76.565445 256.58315,76.545825 256.51255,76.534355 256.44101,76.525799 256.36855,76.518595 256.29785,76.519295 Z M 253.60665,76.546164 C 253.44555,76.544894 253.23555,76.572684 253.08545,76.602774 V 78.365774 H 253.35345 V 76.766774 C 253.43762,76.749394 253.53045,76.747174 253.60655,76.747124 253.65898,76.747124 253.70825,76.756099 253.75415,76.774124 253.89495,76.825304 253.98845,76.943424 253.99025,77.078724 253.98949,77.219924 253.88965,77.332324 253.78375,77.383324 253.74444,77.399694 253.70511,77.408704 253.66585,77.410354 253.61342,77.413626 253.5692,77.432454 253.53315,77.466854 253.49711,77.501234 253.47,77.539694 253.45197,77.582254 253.48965,77.592078 253.52576,77.598654 253.56017,77.601904 253.60477,77.606093 253.64115,77.604314 253.68307,77.604314 253.69125,77.604314 253.69945,77.603553 253.70766,77.601904 253.76665,77.629724 253.81256,77.672264 253.84526,77.729604 253.91671,77.864304 253.95626,78.010604 253.98786,78.147204 254.00589,78.224144 254.03126,78.297004 254.06404,78.365804 H 254.34194 C 254.30261,78.280654 254.27228,78.196404 254.25098,78.112804 254.21209,77.958304 254.17337,77.802304 254.09128,77.675504 254.05522,77.616564 254.00196,77.569904 253.93158,77.535504 L 253.99302,77.513324 C 254.0766,77.470754 254.14382,77.412624 254.19452,77.338924 254.28899,77.196424 254.293,77.013324 254.22149,76.867424 254.14845,76.723024 254.01249,76.632424 253.87479,76.587524 253.79449,76.559694 253.70519,76.545744 253.60679,76.545744 Z M 259.92765,76.5462 V 77.6662 C 259.93012,77.8845 259.9845,78.0455 260.10705,78.1773 260.26675,78.3274 260.43945,78.3654 260.61155,78.3665 260.82125,78.366666 260.97765,78.29937 261.10055,78.1749 261.24725,78.02 261.28635,77.8416 261.28735,77.6666 V 76.5466 H 261.01875 V 77.7056 C 261.01692,77.8393 260.98273,77.9568 260.90325,78.0446 260.81889,78.13779 260.72435,78.1645 260.61135,78.1674 260.49415,78.166508 260.39655,78.13174 260.31145,78.0446 260.22175,77.9377 260.19905,77.8203 260.19845,77.7056 V 76.5466 Z M 254.52165,76.5787 V 78.3637 H 255.59365 V 78.1649 H 254.79015 V 76.7769 H 255.55715 V 76.5781 Z M 258.83865,76.5787 V 78.3657 H 259.82425 C 259.82238,78.29914 259.82665,78.2252 259.82671,78.1644 H 259.10881 V 76.5784 Z M 261.43765,76.5787 V 76.7776 H 261.94145 V 78.3646 H 262.21185 V 76.7776 H 262.71825 V 76.5787 Z M 262.87065,76.5787 V 78.3637 H 263.94265 V 78.1649 H 263.13915 V 76.7769 H 263.90615 V 76.5781 Z M 257.81965,76.7124 C 257.89654,76.713876 257.97615,76.73318 258.05465,76.77175 258.39745,76.94055 258.42845,77.42085 258.33825,77.72765 258.23565,78.07415 257.92835,78.29595 257.59505,78.11005 257.25115,77.89635 257.21045,77.46535 257.30555,77.14165 257.38276,76.86375 257.58895,76.70785 257.81975,76.71235 Z M 263.50265,77.3267 C 263.47151,77.3267 263.43997,77.336117 263.41541,77.34759 263.34063,77.38758 263.30461,77.44691 263.27771,77.52809 H 263.87681 V 77.32679 Z M 255.15365,77.330404 C 255.12251,77.330404 255.09467,77.336117 255.07008,77.347584 254.99531,77.387574 254.95928,77.443204 254.93248,77.524384 H 255.52238 V 77.330384 Z" style="display:none;fill:url(#linearGradientBlk);stroke-width:1.00199997" inkscape:connector-curvature="0" />
  <path id="rDIn" d="M 297.6,121.3 C 299.542,100.24 302.597,77.56 299.103,55.24 296.606,39.27 293.698,23.24 290.598,7.45 L 214.328,9.265 C 214.41167,17.206 214.28606,34.435 212.734,51.845 212.0226,62.895 211.545,76.315 211.457,82.025 211.3278,89.249 211.39081,95.105 211.6667,99.705 212.2053,108.876 213.5157,114.365 215.5387,123.705 Z" style="display:none;fill:#000000;stroke-width:1.00199997" inkscape:connector-curvature="0" />
  <path id="rDTrim" d="M 278.7,58.56 C 274.411,59.4053 270.449,59.1404 270.652,61.545 271.026,62.805 273.607,62.926 280.036,62.679 284.086,62.1131 294.526,62.4256 294.556,60.672 294.4284,57.732 290.353,57.795 278.706,58.56 Z M 211.46,99.32 294.49,96.649 C 297.661,92.726 296.27,94.919 297.223,91.569 L 211.343,94.997 M 212.538,50.987 212.7238,48.454 298.0438,46.143 298.3658,48.224 Z M 213.928,12.757 213.92797,10.847 C 239.70797,10.2485 265.52797,8.843 291.25797,9.061 L 291.64177,11.229 C 264.55177,11.17963 237.11177,12.236 213.97177,12.759 Z" style="display:none;fill:#ffffff;stroke-width:1.00199997" inkscape:connector-curvature="0" />
  <path id="rD" d="M 212.7,48.63 C 243.28,47.9596 274.29,46.895 298.05,46.371 L 298.3465,48.145 C 284.8865,48.2907 215.2365,50.863 212.5365,50.697 212.55591,50.1686 212.7,49.047 212.7072,48.629 Z M 291.65,11.15 C 265.37,10.833 238.12,11.8254 213.94,12.537 L 213.93434,11.025 C 237.44434,10.2843 265.12434,9.084 291.29434,9.234 M 278.60434,62.194 C 270.36734,62.5138 271.60134,62.9826 271.54634,60.161 274.90934,58.715 290.78634,58.149 293.23634,59.032 293.73884,59.5397 294.38634,60.954 293.55804,61.211 290.90004,62.0354 282.42804,61.6972 278.59804,62.1922 Z M 211.20434,95.154 C 241.45434,94.4935 271.48434,93.241 296.18434,92.578 296.90184,93.0531 295.33814,94.48 293.26234,95.49 263.15234,96.4846 236.27234,98.638 211.35234,99.159 Z M 297.98434,121.714 C 299.92634,100.654 302.98134,77.574 299.48734,55.254 296.99034,39.284 293.98234,22.954 290.88334,7.164 L 213.91334,8.979 C 213.98496,16.92 213.97109,34.449 212.41934,51.859 211.70794,62.909 211.23034,76.329 211.14234,82.039 211.01314,89.263 211.07615,95.119 211.35204,99.719 211.89074,108.89 213.20104,114.779 215.22404,124.119 Z" style="display:none;fill:#000000;stroke-width:1.00199997" inkscape:connector-curvature="0" />
  <path inkscape:connector-curvature="0" style="display:inline;fill:#290a43;stroke-width:0.0933" d="M 261.27746,80.712145 C 260.87201,80.70964 260.46546,80.771945 260.10496,80.841345 L 259.95676,80.870105 V 85.128605 H 260.85076 C 260.85076,84.506105 260.84921,83.848605 260.84856,83.205605 261.06726,83.357605 261.23256,83.330855 261.48706,83.359105 261.53421,83.3794 261.62631,83.535705 261.66891,83.584255 261.83621,83.870955 261.91966,84.198255 261.98591,84.483255 V 84.48667 C 262.05076,84.73127 262.12446,84.91612 262.22466,85.12817 H 263.18066 C 263.06281,84.87697 262.94136,84.59917 262.87431,84.35817 262.83371,84.20037 262.77696,83.99772 262.72906,83.85067 262.63521,83.56782 262.51761,83.30017 262.31376,83.10867 262.46206,83.01317 262.59681,82.90227 262.70091,82.76232 262.84931,82.56422 262.92561,82.32772 262.92561,82.07482 262.90046,81.68752 262.73811,81.33682 262.46206,81.10682 262.11546,80.82757 261.68356,80.71457 261.27806,80.71237 Z M 279.84746,80.715555 C 279.61096,80.719175 279.38001,80.76037 279.16446,80.840405 L 279.16411,80.839325 C 278.62811,81.065225 278.23511,81.486825 278.02011,81.964825 V 81.966625 C 277.79441,82.601625 277.77491,83.284125 277.99506,83.883125 V 83.885285 C 278.20551,84.410285 278.59556,84.819285 279.08756,85.042785 279.61656,85.243285 280.19306,85.241785 280.67856,85.042785 H 280.68121 C 281.20671,84.801135 281.58621,84.359285 281.78221,83.875785 281.98576,83.279785 281.99111,82.658285 281.81381,82.098285 281.62976,81.557285 281.24781,81.114785 280.76881,80.884785 280.50046,80.781535 280.22331,80.724785 279.95081,80.716785 L 279.94951,80.717145 C 279.91556,80.71614 279.88146,80.71573 279.84761,80.716255 Z M 252.89246,80.715915 252.89211,80.716455 C 252.68461,80.716455 252.49101,80.7257 252.31111,80.74449 252.03036,80.7721 251.83006,80.80819 251.57261,80.85784 V 85.11284 L 252.46661,85.13135 V 83.33535 C 252.57766,83.36577 252.68601,83.441 252.79126,83.44515 252.89076,83.449225 252.98586,83.46633 253.07621,83.45827 253.25881,83.44219 253.43641,83.40187 253.60721,83.33762 253.95316,83.19952 254.24121,82.96222 254.40921,82.65362 254.57391,82.29092 254.57491,81.89462 254.41771,81.55962 254.23326,81.19642 253.91121,80.94962 253.55871,80.82562 253.35506,80.75202 253.13221,80.71622 252.89271,80.71622 Z M 236.44746,80.716095 236.44706,80.716455 C 236.04166,80.71405 235.63506,80.776205 235.27506,80.845655 L 235.12676,80.87441 V 85.13291 H 236.02076 V 83.22741 C 236.13266,83.251905 236.22936,83.30001 236.34541,83.32281 236.43406,83.340235 236.53031,83.33337 236.61681,83.326045 236.84641,83.444445 236.95481,83.781545 237.02106,83.988045 237.07126,84.147245 237.11651,84.313845 237.15611,84.488045 V 84.489845 C 237.22381,84.726795 237.29501,84.922245 237.39456,85.132845 H 238.35056 L 238.23371,84.877295 C 238.07266,84.541145 238.00991,84.197795 237.89881,83.854795 V 83.853895 C 237.84751,83.682845 237.78201,83.525145 237.70126,83.381595 237.64661,83.279895 237.56961,83.192695 237.48356,83.112195 237.85476,82.874895 238.09056,82.477195 238.09556,82.077695 238.07056,81.690395 237.90831,81.339695 237.63231,81.109695 237.28561,80.830445 236.85331,80.717595 236.44781,80.715395 Z M 257.18246,80.716095 257.18131,80.716455 C 256.90941,80.708435 256.64281,80.74886 256.39631,80.840305 L 256.39596,80.839225 C 255.85996,81.065125 255.46696,81.486725 255.25196,81.964725 V 81.966525 C 255.02616,82.601525 255.00641,83.284025 255.22651,83.883025 V 83.88518 C 255.43701,84.41018 255.82751,84.81918 256.31901,85.04268 256.84801,85.24318 257.42451,85.24168 257.91001,85.04268 H 257.91271 C 258.43821,84.80103 258.81771,84.35918 259.01371,83.87568 259.21701,83.27968 259.22241,82.65818 259.04516,82.09818 258.86116,81.55718 258.47916,81.11468 258.00016,80.88468 257.73206,80.78143 257.45466,80.72483 257.18216,80.71683 Z M 231.08746,80.716455 V 81.472455 H 232.26346 V 85.056455 H 233.16246 V 81.472455 H 234.34396 V 80.716455 H 231.08696 Z M 240.65746,80.716455 239.07146,85.056955 H 239.98996 L 240.32236,84.104455 H 241.72286 L 242.05701,85.056955 H 243.01501 L 241.43101,80.716455 Z M 243.67846,80.716455 V 85.056955 H 244.49446 V 82.221955 L 246.29396,85.056955 H 247.05046 V 80.716455 H 246.21746 V 83.439955 L 244.48946,80.716455 H 243.67746 Z M 249.21846,80.716455 C 248.86431,80.725265 248.52946,80.834505 248.28446,81.054705 248.04856,81.283255 247.92301,81.578705 247.91411,81.887705 247.92966,82.328355 248.14711,82.663705 248.46961,82.908205 L 248.47106,82.909105 248.47231,82.910005 C 248.76646,83.125705 249.08631,83.248355 249.38231,83.426505 249.60601,83.556705 249.72671,83.710205 249.77826,83.945505 249.77826,84.089505 249.73281,84.191555 249.62176,84.293055 249.32576,84.480405 249.02776,84.449655 248.72276,84.391705 248.57046,84.36164 248.41711,84.313205 248.26221,84.245205 L 248.08796,84.168805 247.80936,84.856305 247.96391,84.929455 C 248.17571,85.029555 248.39441,85.091605 248.60891,85.135755 248.81011,85.171 249.00416,85.187405 249.19691,85.193605 249.60526,85.18394 249.99991,85.076855 250.28941,84.825005 250.54186,84.588155 250.69231,84.276505 250.69511,83.956505 250.68026,83.508955 250.46146,83.164505 250.13511,82.915005 249.83586,82.695555 249.51361,82.551455 249.21511,82.373505 249.08726,82.297205 248.98566,82.216355 248.90726,82.133055 248.80181,81.993005 248.80991,81.879205 248.84261,81.728655 248.94146,81.546655 249.09026,81.498355 249.27546,81.478105 249.53271,81.48627 249.78296,81.522525 250.02096,81.590805 L 250.17976,81.638075 250.47056,80.948575 250.27876,80.889075 C 249.92566,80.780375 249.56276,80.717725 249.22026,80.716725 L 249.21966,80.716545 Z M 263.72846,80.716455 V 81.472455 H 264.90446 V 85.056455 H 265.80396 V 81.472455 H 266.98546 V 80.716455 Z M 269.03846,80.716455 267.45346,85.056955 H 268.37196 L 268.70446,84.104455 H 270.10496 L 270.43931,85.056955 H 271.39631 L 269.81231,80.716455 H 269.03981 Z M 271.84496,80.716455 V 81.472455 H 273.02096 V 85.056455 H 273.91996 V 81.472455 H 275.10146 V 80.716455 H 271.84446 Z M 276.17496,80.716455 V 85.056955 H 277.05196 V 80.716455 Z M 282.70996,80.716455 V 85.056955 H 283.52596 V 82.221955 L 285.32546,85.056955 H 286.08196 V 80.716455 H 285.24896 V 83.439955 L 283.52096,80.716455 H 282.70896 Z M 279.89396,81.462955 C 280.21306,81.4737 280.48946,81.623055 280.67146,81.843805 280.91061,82.172655 281.00636,82.565805 281.01396,82.950805 281.00246,83.343355 280.91676,83.729305 280.69066,84.029305 L 280.68921,84.030205 280.68776,84.03164 C 280.48631,84.28259 280.20151,84.43449 279.89226,84.44459 279.56276,84.43615 279.28826,84.27604 279.10026,84.04864 278.86076,83.71664 278.77411,83.31814 278.77236,82.95164 278.78116,82.54734 278.87456,82.15164 279.11466,81.84364 279.34496,81.63254 279.63316,81.46979 279.89366,81.46299 L 279.89386,81.46191 Z M 236.44896,81.47733 V 81.477875 H 236.45041 C 236.65281,81.476155 236.81146,81.555675 236.96741,81.658125 237.10121,81.772875 237.14631,81.908425 237.17111,82.068225 237.17111,82.247175 237.08581,82.382825 236.98031,82.500775 236.85206,82.612025 236.71721,82.720425 236.55561,82.744775 236.40626,82.749315 236.27951,82.821575 236.16571,82.912075 236.10791,82.958075 236.02396,83.116075 236.02396,83.048975 V 81.502975 C 236.16571,81.475415 236.32451,81.478215 236.44896,81.4771 Z M 252.89396,81.47733 252.89416,81.477695 C 253.09806,81.474905 253.26136,81.545995 253.40916,81.660445 253.55761,81.775295 253.60506,81.939145 253.61526,82.100945 253.58861,82.470945 253.30196,82.654445 252.99426,82.745445 252.84166,82.77593 252.75871,82.808295 252.63066,82.882345 252.55831,82.924155 252.49621,83.039995 252.46811,83.111095 V 81.500095 C 252.61701,81.490715 252.76981,81.477335 252.89376,81.476915 Z M 261.22896,81.477875 C 261.35126,81.482445 261.46871,81.49801 261.56896,81.522085 H 261.57166 C 261.83091,81.640135 262.00276,81.805485 262.00711,82.063585 262.01166,82.341635 261.86301,82.553085 261.64961,82.667085 261.53281,82.773935 261.20311,82.742085 261.05511,82.867285 260.88341,83.012285 260.87646,83.076635 260.85621,83.169735 260.85566,82.586235 260.85586,82.013235 260.85981,81.499735 260.97971,81.479655 261.10686,81.473225 261.22921,81.47781 Z M 257.10996,81.482725 C 257.41761,81.49042 257.71596,81.630225 257.89746,81.843775 L 257.89781,81.843595 C 258.13696,82.172545 258.23241,82.565595 258.24011,82.951595 258.22866,83.344145 258.14301,83.730095 257.91696,84.030095 L 257.91561,84.03099 257.91421,84.032605 C 257.71286,84.283605 257.42756,84.435305 257.11871,84.445405 256.78906,84.436965 256.51371,84.277005 256.32671,84.049655 256.08721,83.717655 256.00066,83.318655 255.99886,82.952655 256.00101,82.413655 256.24891,81.792155 256.69436,81.561155 256.82801,81.504655 256.96981,81.480905 257.10976,81.484405 V 81.483155 Z M 241.02496,82.110225 241.60396,83.714725 C 241.51396,83.596925 241.32801,83.348525 241.16811,83.348525 H 240.58761 Z M 269.41496,82.110225 269.99446,83.696725 C 269.88846,83.574725 269.86556,83.420675 269.57001,83.374825 L 268.97701,83.347865 269.41461,82.110365 Z" id="path5161" />
  <path inkscape:connector-curvature="0" style="display:inline;fill:url(#linearGradient5183);stroke-width:5.00999975" d="M 252.89186,80.862145 C 252.68851,80.862145 252.50001,80.87122 252.32636,80.889465 252.15251,80.90406 251.96211,80.93147 251.75536,80.971565 V 84.899565 L 252.28236,84.910525 V 81.293525 C 252.48196,81.27163 252.68536,81.26081 252.89236,81.26081 253.01806,81.26081 253.13466,81.28089 253.24186,81.32101 253.35276,81.361145 253.44876,81.41751 253.53021,81.49051 253.61146,81.56346 253.67621,81.64921 253.72431,81.74771 253.77236,81.84616 253.79651,81.95196 253.79651,82.06506 253.79651,82.18181 253.77236,82.28946 253.72431,82.38801 253.67621,82.48286 253.61341,82.56661 253.53576,82.63956 253.46186,82.70886 253.37681,82.76371 253.28071,82.80381 253.18451,82.84393 253.08836,82.86401 252.99216,82.86401 252.87386,82.86401 252.77231,82.896835 252.68726,82.96246 252.60586,83.02446 252.54486,83.10286 252.50421,83.19776 252.60771,83.22694 252.70576,83.243365 252.79816,83.24701 252.89061,83.250665 252.97741,83.248735 253.05881,83.241435 253.22521,83.226855 253.38596,83.190335 253.54131,83.132035 253.69656,83.073685 253.83521,82.995285 253.95721,82.896735 254.07926,82.794585 254.17546,82.674335 254.24571,82.535685 254.31961,82.397185 254.35651,82.240335 254.35651,82.065385 V 82.06502 C 254.35646,81.90097 254.32131,81.74612 254.25106,81.60022 254.18451,81.45427 254.08656,81.32667 253.95711,81.21727 253.83136,81.10787 253.67801,81.02212 253.49686,80.96007 253.31566,80.89442 253.11411,80.86162 252.89186,80.86162 Z M 276.35186,80.87005 V 84.84805 H 276.86236 V 80.87005 Z M 236.45686,80.8837 C 236.25356,80.8837 236.06506,80.89471 235.89136,80.916595 235.71761,80.93849 235.52716,80.969395 235.32036,81.009545 V 84.938545 H 235.84736 V 81.332545 C 235.98046,81.307015 236.08966,81.292515 236.17471,81.28887 236.25971,81.28522 236.35391,81.2833 236.45741,81.2833 236.58316,81.2833 236.69971,81.303375 236.80696,81.3435 236.91786,81.38363 237.01396,81.43845 237.09526,81.50775 237.17661,81.57705 237.24131,81.6591 237.28936,81.754 237.33751,81.8452 237.36141,81.9454 237.36141,82.0549 237.36141,82.168 237.33751,82.27205 237.28936,82.3669 237.24131,82.46175 237.17856,82.54385 237.10091,82.61315 237.02696,82.6788 236.94191,82.73175 236.84576,82.77185 236.74966,82.811985 236.65341,82.8338 236.55731,82.83745 236.43896,82.841095 236.33736,82.873925 236.25236,82.9359 236.17101,82.9979 236.11001,83.0763 236.06926,83.1712 236.17286,83.19675 236.27081,83.213155 236.36326,83.220445 236.45566,83.2241 236.54261,83.222355 236.62396,83.215055 236.64611,83.215055 236.66266,83.21332 236.67376,83.209665 236.81796,83.264365 236.92886,83.355515 237.00656,83.483215 237.08791,83.610915 237.15446,83.756865 237.20626,83.921015 237.25796,84.085165 237.30416,84.256615 237.34486,84.435515 237.38921,84.614315 237.44841,84.782065 237.52236,84.939015 H 238.07686 C 237.99181,84.752965 237.92526,84.572215 237.87721,84.397015 237.83281,84.218215 237.78486,84.050515 237.73306,83.893515 237.68501,83.733015 237.62391,83.587215 237.55006,83.455915 237.47986,83.324615 237.37636,83.213165 237.23956,83.122015 L 237.12856,83.078335 237.26156,83.03448 C 237.45386,82.93963 237.61121,82.81023 237.73316,82.64608 237.85886,82.47823 237.92166,82.28483 237.92166,82.06608 V 82.0553 C 237.92166,81.8984 237.88651,81.7488 237.81616,81.60655 237.74961,81.4643 237.65166,81.34035 237.52226,81.23455 237.39651,81.12515 237.24316,81.0394 237.06201,80.97735 236.88081,80.91535 236.67921,80.88425 236.45701,80.88425 Z M 261.27686,80.8837 C 261.07346,80.8837 260.88481,80.89471 260.71136,80.916595 260.53761,80.93849 260.34716,80.969395 260.14036,81.009545 V 84.938545 H 260.66736 V 81.332545 C 260.80051,81.307015 260.90946,81.292515 260.99451,81.28887 261.07951,81.28522 261.17396,81.2833 261.27746,81.2833 261.40321,81.2833 261.51951,81.303375 261.62676,81.3435 261.73771,81.38363 261.83371,81.43845 261.91506,81.50775 261.99641,81.57705 262.06136,81.6591 262.10941,81.754 262.15746,81.8452 262.18146,81.9454 262.18146,82.0549 262.18146,82.168 262.15746,82.27205 262.10941,82.3669 262.06136,82.46175 261.99836,82.54385 261.92071,82.61315 261.84676,82.6788 261.76171,82.73175 261.66566,82.77185 261.56946,82.811985 261.47341,82.8338 261.37726,82.83745 261.25896,82.841095 261.15721,82.873925 261.07211,82.9359 260.99081,82.9979 260.92981,83.0763 260.88911,83.1712 260.99266,83.19675 261.09081,83.213155 261.18326,83.220445 261.27571,83.2241 261.36241,83.222355 261.44371,83.215055 261.46591,83.215055 261.48266,83.21332 261.49371,83.209665 261.63796,83.264365 261.74886,83.355515 261.82651,83.483215 261.90791,83.610915 261.97441,83.756865 262.02621,83.921015 262.07796,84.085165 262.12416,84.256615 262.16486,84.435515 262.20921,84.614315 262.26841,84.782065 262.34231,84.939015 H 262.89681 C 262.81181,84.752965 262.74526,84.572215 262.69716,84.397015 262.65286,84.218215 262.60466,84.050515 262.55296,83.893515 262.50486,83.733015 262.44386,83.587215 262.36986,83.455915 262.29961,83.324615 262.19616,83.213165 262.05936,83.122015 L 261.94851,83.078335 262.08161,83.03448 C 262.27381,82.93963 262.43096,82.81023 262.55306,82.64608 262.67871,82.47823 262.74146,82.28483 262.74146,82.06608 V 82.0553 C 262.74146,81.8984 262.70651,81.7488 262.63616,81.60655 262.56961,81.4643 262.47166,81.34035 262.34221,81.23455 262.21651,81.12515 262.06301,81.0394 261.88186,80.97735 261.70071,80.91535 261.49926,80.88425 261.27786,80.88425 Z M 246.39186,80.895395 V 83.970395 L 246.40286,84.161795 246.33621,83.981345 244.37821,80.895845 H 243.85121 V 84.873845 H 244.30036 V 81.694845 L 244.28936,81.508895 244.36696,81.694845 246.38596,84.872845 H 246.85741 V 80.894845 Z M 285.43186,80.895395 V 83.970395 L 285.44306,84.161795 285.37641,83.981345 283.41841,80.895845 H 282.89141 V 84.873845 H 283.34056 V 81.694845 L 283.32951,81.508895 283.40716,81.694845 285.42566,84.872845 H 285.89706 V 80.894845 Z M 241.28686,80.89701 240.77086,80.89791 239.31786,84.87591 H 239.84486 L 240.17771,83.92341 H 241.57521 C 241.53451,83.81761 241.47916,83.72651 241.40886,83.64986 241.33866,83.56961 241.23686,83.52941 241.10376,83.52941 H 240.35476 L 240.28816,83.54037 240.34911,83.42537 240.97061,81.66887 241.00946,81.51017 241.04826,81.66887 242.17426,84.87487 H 242.73976 Z M 269.68186,80.89701 269.16586,80.89791 267.71286,84.87591 H 268.23986 L 268.57261,83.92341 H 269.97011 C 269.92946,83.81761 269.87411,83.72651 269.80381,83.64986 269.73361,83.56961 269.63186,83.52941 269.49871,83.52941 H 268.74971 L 268.68321,83.54037 268.74416,83.42537 269.36566,81.66887 269.40451,81.51017 269.44326,81.66887 270.56926,84.87487 H 271.13476 Z M 249.20686,80.924145 C 249.04046,80.924145 248.88886,80.94982 248.75211,81.000895 248.61531,81.051945 248.49691,81.122995 248.39711,81.214195 248.29731,81.305395 248.21946,81.411195 248.16411,81.531545 248.11231,81.651895 248.08646,81.779545 248.08646,81.914495 248.08646,82.118745 248.13266,82.290195 248.22506,82.428995 248.31756,82.567595 248.43221,82.688095 248.56906,82.790245 248.70586,82.888695 248.85551,82.977945 249.01821,83.058195 249.18091,83.134795 249.33051,83.215095 249.46736,83.298995 249.60416,83.382895 249.71891,83.477695 249.81131,83.583495 249.90376,83.685645 249.95001,83.815195 249.95001,83.972095 249.95001,84.161745 249.87781,84.322195 249.73366,84.453495 249.58951,84.581195 249.38606,84.645095 249.12316,84.645095 248.99376,84.645095 248.84411,84.62868 248.67401,84.59585 248.50761,84.563015 248.34126,84.5101 248.17491,84.4371 L 248.03056,84.79275 C 248.12301,84.836525 248.22101,84.87475 248.32456,84.9076 248.42806,84.94043 248.52976,84.9661 248.62966,84.98435 248.72946,85.00258 248.82746,85.01533 248.92356,85.02262 249.01976,85.033565 249.10666,85.038975 249.18431,85.038975 249.39501,85.038975 249.58166,85.00982 249.74431,84.951475 249.90701,84.893125 250.04381,84.814725 250.15466,84.716175 250.26926,84.617725 250.35431,84.504525 250.40981,84.376825 250.46891,84.249125 250.49861,84.117875 250.49861,83.982925 250.49861,83.774975 250.45241,83.599875 250.35986,83.457425 250.26751,83.315175 250.15111,83.191225 250.01061,83.085425 249.87011,82.979625 249.71851,82.886575 249.55586,82.806325 249.39676,82.722425 249.24721,82.638375 249.10671,82.554575 248.96616,82.470775 248.84956,82.379575 248.75721,82.281025 248.66476,82.178875 248.61851,82.056675 248.61851,81.914425 248.61851,81.834175 248.63146,81.759475 248.65736,81.690075 248.68696,81.617125 248.72951,81.553225 248.78501,81.498475 248.84046,81.443775 248.90701,81.401875 248.98466,81.372675 249.06596,81.33984 249.15846,81.32342 249.26196,81.32342 249.36551,81.32342 249.48376,81.332505 249.61696,81.350745 249.75371,81.365335 249.90146,81.396425 250.06056,81.443845 L 250.21036,81.088195 C 250.02176,81.029845 249.84601,80.987695 249.68336,80.962245 249.52436,80.93671 249.36551,80.923965 249.20656,80.923965 Z M 257.12186,80.92468 C 256.90366,80.92468 256.68381,80.966765 256.46186,81.05068 256.24376,81.13458 256.04396,81.26223 255.86286,81.43363 255.68161,81.60503 255.53386,81.82038 255.41921,82.07963 255.30831,82.33858 255.25271,82.64313 255.25271,82.99313 255.25271,83.31778 255.30086,83.60763 255.39706,83.86313 255.49686,84.11848 255.62996,84.33553 255.79636,84.51413 255.96646,84.68923 256.16426,84.82423 256.38986,84.91898 256.61906,85.01383 256.86296,85.06133 257.12186,85.06133 257.37326,85.06133 257.61181,85.01384 257.83686,84.91898 258.06246,84.82053 258.26026,84.68188 258.43036,84.50308 258.60416,84.32068 258.74096,84.10363 258.84071,83.85208 258.94056,83.59673 258.99056,83.31058 258.99056,82.99308 258.99056,82.71218 258.94986,82.44608 258.86851,82.19408 258.78721,81.94233 258.66701,81.72343 258.50806,81.53758 258.34901,81.34793 258.15306,81.19843 257.92056,81.08898 257.68771,80.97958 257.42131,80.92473 257.12206,80.92473 Z M 279.90186,80.92468 C 279.68366,80.92468 279.46361,80.966765 279.24186,81.05068 279.02376,81.13458 278.82396,81.26223 278.64336,81.43363 278.46211,81.60503 278.31436,81.82038 278.19971,82.07963 278.08871,82.33858 278.03316,82.64313 278.03316,82.99313 278.03316,83.31778 278.08131,83.60763 278.17751,83.86313 278.27731,84.11848 278.41041,84.33553 278.57691,84.51413 278.74691,84.68923 278.94471,84.82423 279.16991,84.91898 279.39916,85.01383 279.64316,85.06133 279.90241,85.06133 280.15381,85.06133 280.39206,85.01384 280.61741,84.91898 280.84291,84.82053 281.04076,84.68188 281.21041,84.50308 281.38426,84.32068 281.52101,84.10363 281.62076,83.85208 281.72066,83.59673 281.77061,83.31058 281.77061,82.99308 281.77061,82.71218 281.72991,82.44608 281.64856,82.19408 281.56726,81.94243 281.44711,81.72343 281.28811,81.53758 281.12911,81.34793 280.93321,81.19843 280.70061,81.08898 280.46781,80.97958 280.20161,80.92473 279.90211,80.92473 Z M 231.27186,80.929715 V 81.323615 H 232.44786 V 84.907615 H 232.98036 V 81.323615 H 234.16186 V 80.929715 Z M 263.90186,80.929715 V 81.323615 H 265.07786 V 84.907615 H 265.61036 V 81.323615 H 266.79186 V 80.929715 Z M 272.01686,80.929715 V 81.323615 H 273.19286 V 84.907615 H 273.72536 V 81.323615 H 274.90686 V 80.929715 Z M 257.12186,81.324015 C 257.29931,81.324015 257.46766,81.36244 257.62686,81.439015 257.78586,81.515615 257.92446,81.626815 258.04286,81.772765 258.16121,81.918715 258.25356,82.095565 258.32011,82.303265 258.39041,82.507565 258.42541,82.737465 258.42541,82.992765 258.42541,83.226215 258.39401,83.445015 258.33111,83.649265 258.26826,83.853565 258.17961,84.030565 258.06501,84.180265 257.95406,84.329765 257.81716,84.448415 257.65451,84.535915 257.49546,84.623465 257.31801,84.667115 257.12201,84.667115 256.93346,84.667115 256.75976,84.62714 256.60051,84.546865 256.44156,84.462965 256.30291,84.347915 256.18456,84.201965 256.06996,84.052465 255.97946,83.875515 255.91291,83.671465 255.85006,83.467165 255.81866,83.241115 255.81866,82.992965 255.81866,82.737615 255.85176,82.507665 255.91826,82.303465 255.98851,82.095515 256.08291,81.918665 256.20126,81.772965 256.31961,81.627015 256.45821,81.515865 256.61716,81.439215 256.77621,81.362615 256.94436,81.324215 257.12216,81.324215 Z M 279.90186,81.324015 C 280.07931,81.324015 280.24741,81.36244 280.40686,81.439015 280.56581,81.515615 280.70451,81.626815 280.82286,81.772765 280.94111,81.918715 281.03356,82.095565 281.10011,82.303265 281.17031,82.507565 281.20541,82.737465 281.20541,82.992765 281.20541,83.226215 281.17401,83.445015 281.11111,83.649265 281.04821,83.853565 280.95961,84.030565 280.84501,84.180265 280.73401,84.329765 280.59711,84.448415 280.43446,84.535915 280.27546,84.623465 280.09816,84.667115 279.90196,84.667115 279.71331,84.667115 279.53946,84.62714 279.38046,84.546865 279.22141,84.462965 279.08281,84.347915 278.96441,84.201965 278.84981,84.052465 278.75931,83.875515 278.69276,83.671465 278.62991,83.467165 278.59856,83.241115 278.59856,82.992965 278.59856,82.737615 278.63181,82.507665 278.69836,82.303465 278.76856,82.095515 278.86281,81.918665 278.98106,81.772965 279.09941,81.627015 279.23811,81.515865 279.39701,81.439215 279.55611,81.362615 279.72436,81.324215 279.90201,81.324215 Z" id="path5163" />
  <path inkscape:connector-curvature="0" style="display:inline;fill:url(#linearGradient5185);stroke:url(#linearGradient5187);stroke-width:0.67149997" d="M 247.39186,70.962145 C 246.71286,70.978345 246.04686,71.179295 245.56136,71.588645 245.07001,72.022395 244.83986,72.633145 244.83586,73.222145 244.84276,74.068145 245.30296,74.725645 245.90436,75.186645 246.54686,75.654745 247.26136,75.937145 247.89536,76.328645 248.47186,76.660345 248.96936,77.168145 248.97686,77.789645 248.96321,78.193145 248.78516,78.548645 248.51016,78.796145 248.13541,79.086095 247.67116,79.199145 247.24516,79.201395 246.47766,79.1858 245.72616,79.002195 245.08266,78.710395 L 244.72636,79.606395 C 245.18516,79.827495 245.64736,79.978845 246.11486,80.060745 246.94636,80.219495 247.83686,80.258595 248.59686,80.011685 249.25486,79.769885 249.83086,79.338685 250.10836,78.746685 250.40056,78.063185 250.37996,77.215685 250.01021,76.622185 249.56086,75.942685 248.89621,75.472685 248.22921,75.136185 247.59071,74.782285 246.93321,74.467685 246.44821,73.969185 246.02041,73.460185 246.08781,72.731685 246.49726,72.311185 247.05926,71.849785 247.68626,71.931335 248.30326,72.016485 248.60641,72.049255 248.93826,72.118885 249.29876,72.225385 L 249.66726,71.341385 C 248.91176,71.105535 248.14676,70.964835 247.39326,70.961435 Z M 255.00186,70.977425 C 253.23186,70.983825 251.80536,71.936925 251.12636,73.707425 250.69626,74.868425 250.66721,76.250925 251.10941,77.468925 252.14441,79.851425 254.51641,80.754925 256.69941,79.851425 259.01591,78.596425 259.66741,76.067925 258.98441,73.806425 258.63601,72.638925 257.87791,71.749925 256.87141,71.288925 256.21941,71.075725 255.59091,70.972675 255.00141,70.974775 Z M 266.87186,71.115425 265.54536,71.11578 265.56396,76.69578 C 265.57791,77.65278 265.84686,78.58928 266.46096,79.24928 267.14896,79.92778 268.09446,80.18978 268.95596,80.19528 269.89546,80.185255 270.78746,79.85768 271.39996,79.23728 272.05646,78.51728 272.32896,77.56978 272.33396,76.69578 V 71.11578 H 271.01946 V 76.89578 C 271.01036,77.52528 270.83996,78.15078 270.44196,78.59078 270.03886,79.01063 269.48146,79.20128 268.95546,79.20478 268.36896,79.200295 267.83046,78.97603 267.45596,78.59078 267.04581,78.09988 266.89396,77.46828 266.89096,76.89578 Z M 233.61686,71.122075 C 233.07936,71.116115 232.54986,71.163085 232.03286,71.256325 231.81156,71.289095 231.57006,71.329775 231.30786,71.378875 V 80.198875 H 232.64736 V 72.203875 C 233.06806,72.116875 233.53236,72.105675 233.91236,72.105425 234.41286,72.122915 234.90586,72.282175 235.26386,72.584525 235.60706,72.898475 235.82486,73.334525 235.82886,73.763025 235.81616,74.220075 235.61641,74.638025 235.31286,74.930025 235.02616,75.172825 234.63186,75.440025 234.30936,75.458025 234.04721,75.47439 233.82586,75.586775 233.64586,75.758725 233.46561,75.930625 233.36736,76.031075 233.27721,76.243925 233.46561,76.29304 233.60596,76.299075 233.77821,76.315425 234.03931,76.331795 234.27271,76.33931 234.51871,76.31453 234.81361,76.45363 234.94111,76.73088 235.10471,77.01753 235.46191,77.69103 235.65971,78.42253 235.81771,79.10553 235.90776,79.49023 236.03476,79.85453 236.19866,80.19853 H 237.58716 C 237.19706,79.39303 237.06316,78.53403 236.80066,77.74253 236.56886,77.02903 236.15466,76.35653 235.53516,76.04753 L 235.84221,75.93663 C 236.26006,75.72378 236.59621,75.43313 236.84971,75.06463 237.29436,74.30763 237.34246,73.43663 236.98461,72.70713 236.62021,71.98613 235.94061,71.53213 235.25211,71.30763 234.70111,71.18928 234.15511,71.13053 233.61761,71.12453 Z M 238.51136,71.268925 V 80.193925 H 243.86636 V 79.199425 H 239.84886 V 72.259425 H 243.68236 V 71.265425 Z M 260.09636,71.268925 V 80.193925 H 265.02336 C 265.01406,79.861125 265.03536,79.491425 265.03566,79.187425 H 261.44716 V 71.267425 Z M 273.09136,71.268925 V 72.263425 H 275.61136 V 80.198425 H 276.96286 V 72.263425 H 279.49486 V 71.268925 Z M 280.25636,71.268925 V 80.193925 H 285.61636 V 79.199425 H 281.59886 V 72.259425 H 285.43236 V 71.265425 Z M 255.08636,71.930925 C 255.81436,71.92045 256.51936,72.239625 257.02236,72.913425 258.04536,74.395925 258.04836,76.754925 257.03481,78.168425 256.08531,79.638925 253.98531,79.490925 253.00431,78.15638 252.00881,76.57538 252.00881,74.30288 253.01656,72.92638 253.60806,72.28138 254.35856,71.94188 255.08606,71.93088 Z M 241.64636,75.081425 C 241.40386,75.091095 241.19331,75.170525 241.02736,75.333175 240.86066,75.516175 240.71561,75.739075 240.64651,75.941175 H 243.48451 V 75.081675 C 242.87501,75.087505 242.25051,75.0735 241.64651,75.081575 Z M 283.39136,75.081425 C 283.14886,75.091095 282.93856,75.170525 282.77236,75.333175 282.60556,75.516175 282.46056,75.739075 282.39141,75.941175 H 285.22941 V 75.081675 L 283.49691,75.081495 C 283.46096,75.08006 283.42551,75.080115 283.39091,75.081495 Z" id="path5165" />
  <path inkscape:connector-curvature="0" style="display:inline;fill:url(#linearGradient5189);stroke:url(#linearGradient5191);stroke-width:0.32935002" d="M 255.13851,70.912145 C 254.56051,70.900285 253.98651,71.005095 253.42251,71.232545 252.29301,71.687545 251.56701,72.546545 251.23001,73.348045 250.89241,74.149545 250.77356,74.808545 250.77356,75.553545 250.77906,77.349545 251.78906,79.279045 253.32306,79.904045 254.44806,80.333495 255.70806,80.328245 256.76706,79.870445 259.08356,78.615445 259.71656,76.068445 259.03356,73.810445 258.68516,72.642945 257.89056,71.753945 256.88306,71.292945 256.29906,71.053895 255.71556,70.925245 255.13806,70.913395 Z M 247.39851,70.943415 C 246.72101,70.960625 246.02851,71.180265 245.54401,71.588415 245.05271,72.022165 244.80451,72.632915 244.80001,73.221915 244.80691,74.067915 245.28556,74.725415 245.88701,75.186415 246.52951,75.654515 247.27201,75.945915 247.90601,76.337415 248.48251,76.669115 248.96201,77.167415 248.96901,77.789415 248.95531,78.192915 248.77716,78.548415 248.50211,78.795915 248.12746,79.085865 247.68211,79.180615 247.25511,79.182815 246.48761,79.16723 245.70861,78.983415 245.06511,78.691615 L 244.70881,79.633615 C 245.56081,80.012515 246.45981,80.218615 247.35331,80.223115 248.16081,80.213585 248.97831,79.981965 249.56781,79.495615 250.07731,79.050265 250.34931,78.415115 250.35431,77.800615 250.34581,76.939615 249.88616,76.248115 249.27281,75.774615 248.62881,75.278265 247.88231,74.965115 247.22981,74.571115 246.68531,74.244465 246.15631,73.777615 246.14831,73.171615 246.17936,72.382115 246.86331,71.953115 247.51131,71.946115 248.13331,71.968515 248.76081,72.066665 249.30531,72.225765 L 249.67381,71.341765 C 248.91881,71.102165 248.12481,70.944465 247.39631,70.942965 Z M 233.81351,71.068665 C 233.66586,71.06675 233.52401,71.070845 233.38971,71.080165 232.66271,71.125685 231.90021,71.229965 231.25071,71.351315 V 80.231315 H 232.69171 V 72.216315 C 233.11246,72.129315 233.54021,72.118115 233.92021,72.117865 234.63121,72.126315 235.36671,72.552815 235.65921,73.125365 235.86166,73.549165 235.86311,74.016865 235.67146,74.408865 235.47781,74.803415 235.15296,75.109865 234.78696,75.280865 234.59031,75.362715 234.44926,75.407765 234.25246,75.416015 233.99026,75.432375 233.76926,75.526415 233.58896,75.698315 233.40871,75.870215 233.27341,76.062715 233.18326,76.275315 233.37166,76.32444 233.55216,76.338915 233.72426,76.355315 233.98481,76.37216 234.21626,76.380035 234.46176,76.355315 235.07826,76.696865 235.31426,77.393315 235.49026,77.982315 235.73616,78.741815 235.85876,79.552315 236.17826,80.230315 H 237.62176 C 237.23171,79.424815 237.09776,78.528815 236.83526,77.737815 236.60436,77.007815 236.17826,76.360315 235.54176,76.042815 236.10226,75.891715 236.61326,75.459315 236.89276,75.060315 237.33741,74.303315 237.38551,73.404815 237.02761,72.674315 236.65946,71.935815 235.96811,71.505815 235.25861,71.274815 234.75111,71.132165 234.25561,71.071565 233.81311,71.065865 Z M 266.92351,71.08807 265.52301,71.08843 265.54161,76.74343 C 265.55566,77.70043 265.86151,78.63693 266.47561,79.29693 267.16361,79.97543 268.10911,80.23743 268.97061,80.24293 269.90961,80.2329 270.80211,79.90533 271.41461,79.28493 272.07111,78.56493 272.38061,77.61743 272.38511,76.74343 V 71.08843 H 270.99661 V 76.87843 C 270.98751,77.50793 270.85411,78.13343 270.45611,78.57343 270.05316,78.99328 269.49561,79.18343 268.97011,79.18693 268.38361,79.18245 267.84511,78.95838 267.47061,78.57343 267.06046,78.08253 266.94511,77.45093 266.94211,76.87843 Z M 273.04851,71.19537 V 72.29137 H 275.59601 V 80.22637 H 277.00301 V 72.29137 H 279.53501 V 71.19537 Z M 280.23351,71.213885 V 80.223885 H 285.67351 V 79.146385 H 281.64701 V 72.291385 H 285.49051 V 71.214885 Z M 238.47851,71.232215 V 80.222215 H 243.90851 V 79.181715 H 239.88101 V 72.281715 H 243.74301 V 71.232715 Z M 260.04351,71.232215 V 80.242215 H 265.07351 C 265.06421,79.909415 265.08551,79.456715 265.08581,79.152715 H 261.49731 V 71.232715 Z M 254.95351,71.949215 C 256.96651,71.94308 257.76401,73.611215 257.81151,75.553215 257.70736,77.365715 256.91251,79.131715 255.04051,79.182215 253.22551,79.16406 252.43001,77.367715 252.28601,75.554215 252.41436,73.716715 253.12901,72.071215 254.95451,71.949215 Z M 283.42351,74.971715 C 283.13381,74.976825 282.88751,75.147665 282.69901,75.334065 282.50736,75.525715 282.39716,75.789365 282.31786,76.024565 H 285.33086 V 74.972065 Z M 241.67851,75.027065 C 241.38886,75.03217 241.14251,75.147615 240.95401,75.334015 240.76236,75.525665 240.65221,75.770815 240.57296,76.006015 H 243.55846 V 75.027015 Z" id="path5167" />
  <path inkscape:connector-curvature="0" style="display:inline;fill:url(#linearGradient5193);stroke-width:5.00999975" d="M 255.06511,70.912145 C 254.50311,70.9021 253.96861,71.004795 253.43611,71.214595 L 253.43646,71.21478 C 252.29846,71.68808 251.49896,72.59578 251.14296,73.56778 250.62696,74.85778 250.71131,76.37428 251.10566,77.45378 251.52181,78.55528 252.31916,79.42178 253.31366,79.85628 255.82266,80.69428 257.97916,79.75293 258.90866,77.41678 259.68716,74.84678 258.95946,72.31178 256.86016,71.28678 256.21716,71.04523 255.62716,70.92248 255.06516,70.91248 Z M 247.38011,70.958515 C 247.02716,70.96203 246.68361,71.00508 246.36361,71.120615 245.72961,71.334915 245.27161,71.734115 245.01161,72.287615 244.72781,72.956615 244.76721,73.789115 245.13456,74.362615 245.33951,74.673715 245.59331,74.944115 245.89656,75.173115 246.58856,75.677115 247.22306,75.895615 247.88756,76.315115 248.59856,76.696915 249.23256,77.554615 248.84606,78.329115 248.30406,79.302615 247.13606,79.240615 246.22906,79.078115 245.85211,79.004415 245.46706,78.877815 245.07406,78.697615 L 244.71751,79.594115 C 245.17636,79.815215 245.63901,79.966515 246.10701,80.048415 246.96101,80.220865 247.77351,80.255715 248.59101,79.99917 249.27501,79.74677 249.80301,79.37467 250.10251,78.73417 250.39461,78.05067 250.37451,77.20217 250.00441,76.60967 249.55431,75.89817 248.88991,75.46017 248.22241,75.12367 247.58441,74.76967 246.94191,74.47117 246.44041,73.95667 245.97306,73.43217 246.07946,72.67867 246.48971,72.29867 247.28221,71.69467 248.44771,71.96107 249.29171,72.21297 L 249.66011,71.32847 C 249.20941,71.18937 248.80761,71.09127 248.45461,71.03392 248.09691,70.99114 247.73461,70.95512 247.38111,70.95862 Z M 233.92511,71.092965 C 233.11961,71.086615 232.06961,71.225565 231.31911,71.376015 V 80.191015 H 232.65911 V 72.196015 C 233.07996,72.109115 233.54411,72.098015 233.92461,72.097765 234.18676,72.097765 234.43311,72.14264 234.66261,72.232765 235.36661,72.488665 235.83411,73.079265 235.84311,73.755765 235.83931,74.461765 235.34011,75.023765 234.81061,75.278765 234.61406,75.360615 234.41741,75.405665 234.22111,75.413915 233.95896,75.430275 233.73786,75.524415 233.55761,75.696415 233.37741,75.868315 233.24186,76.060615 233.15171,76.273415 233.34011,76.322535 233.52066,76.355415 233.69271,76.371665 233.91571,76.39261 234.09761,76.383715 234.30721,76.383715 234.34811,76.383715 234.38911,76.37991 234.43016,76.371665 234.72511,76.510765 234.95466,76.723465 235.11816,77.010165 235.47541,77.683665 235.67316,78.415165 235.83116,79.098165 235.92131,79.482865 236.04816,79.847165 236.21206,80.191165 H 237.60156 C 237.40491,79.765415 237.25326,79.344165 237.14676,78.926165 236.95231,78.153665 236.75871,77.373665 236.34826,76.739665 236.16796,76.444965 235.90166,76.211665 235.54976,76.039665 L 235.85696,75.928765 C 236.27486,75.715915 236.61096,75.425265 236.86446,75.056765 237.33681,74.344265 237.35686,73.428765 236.99931,72.699265 236.63411,71.977265 235.95431,71.524265 235.26581,71.299765 234.86431,71.160615 234.41781,71.090865 233.92581,71.090865 Z M 265.53011,71.093145 V 76.693145 C 265.54246,77.784645 265.81436,78.589645 266.42711,79.248645 267.22561,79.999145 268.08911,80.189145 268.94961,80.194645 269.99811,80.195475 270.78011,79.858995 271.39461,79.236645 272.12811,78.462145 272.32361,77.570145 272.32861,76.695145 V 71.095145 H 270.98561 V 76.890145 C 270.97646,77.558645 270.80551,78.146145 270.40811,78.585145 269.98631,79.051095 269.51361,79.184645 268.94861,79.199145 268.36261,79.194685 267.87461,79.020845 267.44911,78.585145 267.00061,78.050645 266.88711,77.463645 266.88411,76.890145 V 71.095145 Z M 238.50011,71.255645 V 80.180645 H 243.86011 V 79.186645 H 239.84261 V 72.246645 H 243.67761 V 71.252645 Z M 260.08511,71.255645 V 80.190645 H 265.01311 C 265.00376,79.857845 265.02511,79.488145 265.02541,79.184145 H 261.43591 V 71.254145 Z M 273.08011,71.255645 V 72.250145 H 275.59911 V 80.185145 H 276.95111 V 72.250145 H 279.48311 V 71.255645 Z M 280.24511,71.255645 V 80.180645 H 285.60511 V 79.186645 H 281.58761 V 72.246645 H 285.42261 V 71.252645 Z M 254.99011,71.924145 C 255.37456,71.931525 255.77261,72.028045 256.16511,72.220895 257.87911,73.064895 258.03411,75.466395 257.58311,77.000395 257.07011,78.732895 255.53361,79.841895 253.86711,78.912395 252.14761,77.843895 251.94411,75.688895 252.41961,74.070395 252.80566,72.680895 253.83661,71.901395 254.99061,71.923895 Z M 283.40511,74.995645 C 283.24941,74.995645 283.09171,75.04273 282.96891,75.100095 282.59501,75.300045 282.41491,75.596695 282.28041,76.002595 H 285.27591 V 74.996095 Z M 241.66011,75.014165 C 241.50441,75.014165 241.36521,75.04273 241.24226,75.100065 240.86841,75.300015 240.68826,75.578165 240.55426,75.984065 H 243.50376 V 75.014065 Z" id="path5169" />
</svg>
