<svg xmlns="http://www.w3.org/2000/svg" viewBox="0 0 227 65">
  <path d="M36.18 65c-8.37.04-15.2-6.677-15.28-15.04-.087-8.36 6.608-15.22 14.98-15.34 8.37-.128 15.27 6.52 15.45 15.04 0 8.514-6.766 15.3-15.14 15.34z"/>
  <path fill="#fdfdfd" d="M23.86 49.27c-.04 7.06 4.856 12.76 12.29 12.73 6.737-.035 12.18-5.49 12.19-12.22.02-7.157-5.755-12.21-12.24-12.16-6.377.02-11.71 4.84-12.24 11.66zm12.71-10.18c.047.06.132 1.25.19 2.646.09 2.208.325 5.134.456 5.782.165.397.52.498.82.476 2.058-.467 4.298-1.093 6.153-1.642 1.02-.306 1.9-.538 1.93-.516.03.023.13.242.21.486.16.48.08.8-.21.89-.08.024-.91.322-1.84.662-2.68.978-5.54 2.205-5.76 2.468-.29.348-.23.604.37 1.594 1.22 1.727 3.14 4.573 4.09 6.23-.2.213-.53.573-.87.71-.19 0-.42-.256-1.81-2.007-2-2.52-3.73-4.5-4.01-4.59-.35-.11-.63.07-1.38.95-1.91 2.12-2.84 3.55-4.55 5.7-.43-.2-.73-.44-1.14-.73 1.44-2.3 3.17-4.83 4.41-7.03.167-.35.06-.58-.12-.88-.294-.25-3.245-1.42-6.01-2.39-1.983-.7-1.86-.64-1.923-.84-.053-.18.18-1 .307-1.08 2.86.69 5.65 1.53 8.27 2.02.45-.06.65-.29.69-.7.17-1.1.39-5.05.4-7.1 0-.97.024-1.16.14-1.2.384-.1.795-.04 1.15.06zm-1.712.042c-.032 2.175-.24 4.088-.7 6.23-.162.43-1.206 1.234-1.714 1.325-1.858-.354-3.903-.607-6.075-1.06-.14-.06-.15-.117-.15-.2-.04-.498 1.04-2.12 2.15-3.226 1.23-1.23 2.48-2.01 4.13-2.59.73-.25 1.75-.48 2.17-.5.06-.01.14 0 .18.03zm2.42-.018c.422 0 1.444.23 1.982.408 2.178.72 4.238 2.114 5.494 3.82.617.838 1.24 1.998 1.13 2.107-2.31.41-3.676.93-5.863 1.16-.91.08-1.98-.72-2.16-1.57-.15-2.06-.64-4.75-.76-5.91.07-.05.13-.02.18-.03zm.724 8.37c.014.214-.268.382-.448.182-.11-.12-.063-.32.055-.382.23-.12.39.06.39.2zm-3.697-.21c.127 0 .264.086.262.262-.015.245-.3.33-.467.148-.106-.187-.02-.384.205-.41zm12.22.234c.055-.002.083.017.107.048.274.336.367 2.927.15 4.173-.274 1.56-1.046 3.37-1.957 4.57-1.007 1.33-1.335 1.59-1.6 1.28-.725-1.64-2.768-4.16-2.956-5.54 0-.45.27-1.41.49-1.71 2.07-1.11 4.1-2.18 5.76-2.82zm-20.95.195c.163 0 5.218 2.272 5.58 2.507.373.244.886 1.674.782 2.187-.645 1.438-1.375 2.684-2.157 4.16-.772 1.46-.7 1.378-1.01 1.183-.433-.272-1.33-1.277-1.848-2.07-1.307-1.893-1.63-4.227-1.637-5.743-.004-1.127.01-1.63.076-1.98.02-.17.14-.248.22-.245zm9.6.474c-1.175.7-1.127 2.03-.54 2.775 1.305 1.46 3.34.575 3.413-1.163-.184-1.56-1.51-2.32-2.873-1.62zm3.953 2.535c-.01.168-.216.322-.415.2-.193-.162-.09-.4.073-.456.244-.058.333.136.342.256zm-5.56.057c-.035.26-.36.33-.48.11-.075-.11-.032-.26.073-.34.22-.14.41.03.41.22zm2.502 1.73c.13 0 .242.1.252.25-.01.25-.31.34-.464.15-.13-.19.002-.42.212-.41zm1.04 2c.338.14 4.468 4.42 4.468 4.63-1.017.79-2.438 1.13-3.494 1.36-2.126.37-4.46.11-6.29-.75-.77-.38-1.05-.55-1.05-.64 1.83-1.93 3.24-3.49 4.38-4.61.667-.14 1.33-.18 1.99-.01z"/>
  <path d="M178.9 65c-8.375.045-15.21-6.673-15.29-15.04-.087-8.36 6.607-15.22 14.98-15.35 8.37-.13 15.27 6.52 15.45 15.04.004 8.515-6.764 15.3-15.13 15.35z"/>
  <path fill="#fdfdfd" d="M166.7 50.45c.372 6.458 5.742 11.56 12.23 11.53 7.762.052 12.5-7.007 12.13-12.48-.063-7.077-6.09-12-12.17-11.84-7.687-.083-12.73 6.654-12.18 12.79zm12.65-11.32c.047.06.132 1.244.19 2.63.096 2.364.36 5.555.48 5.856.03.074.167.2.305.283.24.14.29.13 1.013-.03 1.288-.3 3.637-.94 5.59-1.52 1.022-.31 1.89-.54 1.926-.52.037.02.134.24.215.48.15.48.08.79-.21.88-.08.02-.9.32-1.83.66-2.67.97-5.51 2.19-5.73 2.45-.29.34-.23.6.37 1.58.83 1.36 1.85 2.91 3.07 4.64.11.17.96 1.32 1 1.56-.2.21-.53.57-.87.7-.18 0-.41-.26-1.8-2-1.99-2.51-3.71-4.47-3.99-4.56-.35-.11-.63.07-1.38.94-1.04 1.19-1.95 2.33-3.32 4.13-.64.84-1.18 1.53-1.22 1.54-.43-.196-.73-.438-1.13-.725-.02-.02.59-.96 1.35-2.095.762-1.14 1.79-2.74 2.28-3.567.79-1.327.886-1.53.84-1.79-.03-.16-.124-.345-.207-.415-.29-.247-3.23-1.41-5.973-2.37-1.972-.69-1.85-.64-1.913-.835-.055-.17.18-.99.304-1.07 2.47.59 4.91 1.25 7.59 1.91.71.14.77.14.98.002.13-.08.26-.23.3-.33.16-.43.437-5.04.44-7.32 0-.96.025-1.15.14-1.196.378-.096.77-.046 1.14.055zm-1.704.042c.046.045.025.54-.05 1.2-.335 2.97-.573 4.81-.645 4.998-.16.426-1.2 1.227-1.7 1.317-.14.025-1.45-.168-2.91-.428-3.24-.58-3.26-.59-3.28-.83-.03-.5 1.04-2.11 2.15-3.21 1.23-1.23 2.47-2 4.12-2.59.73-.26 1.74-.48 2.16-.5.06-.02.13.02.18.02zm4.38.387c2.165.71 4.214 2.1 5.462 3.79.614.83 1.234 1.98 1.124 2.09-1.32.29-2.394.46-4.285.86-1.826.38-1.8.38-2.377.09-.577-.29-1.224-.95-1.323-1.36-.324-1.88-.657-3.97-.756-5.87.62-.07 1.47.15 2.16.37zm-1.27 7.93c-.005.26-.268.32-.414.21-.14-.11-.103-.3-.037-.37.19-.19.437-.06.452.15zm-3.667-.23c.14-.01.31.11.26.33-.03.08-.19.28-.43.11-.14-.14-.1-.41.16-.45zm12.16.24c.05 0 .08.01.1.05.27.33.36 2.91.15 4.15-.28 1.56-1.04 3.35-1.95 4.55-1 1.32-1.33 1.58-1.6 1.27-.17-.2-.5-.77-1.84-3.16-.96-1.71-1.1-2.02-1.1-2.36 0-.45.27-1.4.49-1.71 2.08-.94 3.98-2.2 5.73-2.81zm-15.29 2.69c.37.24.88 1.66.77 2.17-.64 1.43-1.37 2.67-2.15 4.14-.77 1.45-.7 1.37-1.01 1.17-.43-.27-1.32-1.27-1.84-2.06-1.3-1.89-1.63-4.21-1.63-5.72-.01-1.88.04-2.22.24-2.22s5.23 2.26 5.59 2.49zm3.97-2.09c-1.04.76-1.22 1.95-.57 2.81 1.36 1.51 3.34.52 3.41-1.22-.12-1.56-1.67-2.17-2.85-1.6zm3.93 2.55c-.01.22-.22.33-.41.22-.18-.14-.11-.39.04-.45.17-.06.31-.01.36.22zm-5.51.09c-.02.19-.3.36-.49.09-.02 0-.11-.32.18-.37.24-.04.32.21.3.27zm2.41 1.72c.14-.06.34.04.34.24-.02.27-.32.3-.45.16-.13-.14-.06-.36.1-.42zm1.12 1.98c.33.14 4.44 4.4 4.44 4.6-1.02.79-2.43 1.13-3.48 1.36-.53.11-2.76.23-3.05.16-1.53-.24-3.16-.53-4.26-1.55 0-.04.91-1.06 2.03-2.27 1.29-1.4 2.14-2.24 2.32-2.32.66-.14 1.32-.17 1.98-.008z"/>
  <path fill="#a00" d="M206.8 23.8c-2.813-1.66 9.683-3.814 11.06-2.937 4.445 5.484 6.202 12.22 6.565 13.31-3.903 1.525-15.16-7.12-17.63-10.38z"/>
  <path fill="#ccc" d="M16.66 28.41c-4.218.08-9.51 1.09-11.4 2.37-1.76.59-3.526 7.78-4.473 11.83 3.305.568 23.28-9.574 21.65-12.4.127-1.365-2.504-1.863-5.785-1.8zm207.1 16.46c-8.53-.01-15.69 1.867-23.23 3.205-1.196 1.077-1.54 1.88.018 2.068 7.96-.36 15.82-1.62 23.62-3.52zm-155.4 7.4l-11.09.315-.066 1.502 11.25-.37z"/>
  <path d="M218.4 19.51c-7.393-.224-12.74-2.305-20.7-2.81-1.59-.69-3.028-1.79-4.652-2.46-8.975-4.21-16.17-7.512-24.31-10.19-4.856-1.24-5.02-.81-4.05-3.363-.31-.593-1.777-.107-1.867.35-.27.268-.52.665-1.14.815-1.17.278-2.22-.068-4.06-.11-11.3-1.776-25.72-2.058-36.79-1.45-10.33.142-16.6 1.21-23.33 3.382-10.89 4.255-19.36 9.584-28.39 15.16-3.89 2.073-6.01 2.122-10.48 2.296-14.19.726-27.59 2.18-42.58 5.672-2.76.68-5.82 1.796-6 1.796-.55-.658.58-2.96.22-3.503-.83.976-1.26 2.71-1.19 3.767-2.25 1.195-3.14.058-4.93 2.863C1.9 36.39.4 40.952.04 45.635c-.042 2.718-.133 4.94.408 7.86.23 1.152 2.39 2.985 4.254 3.61 4.224.513 9.24 1.362 12.96 1.528 2.91.783 2.26-1.196 1.367-2.718-1.07-5.464.27-12.23 3.04-16.35 6.18-7.806 16.67-7.478 20.37-5.8 3.19 1.28 14.33 7.835 12.8 25.23l5.39.036c36.32-.28 68.35-1.46 100.3-.69-.25-7.02 1.58-17.05 6.94-21.06 4.8-4.78 16.31-6.3 22.68.34 4.46 4.18 6.91 13.83 5.01 18.68 10.87-1.57 16.83-2.4 27.25-4.58 4.92-1.89 4.1-4.05 4.1-8.33 0-2.3.08-4.22 0-4.48-1.61-4.72-1.87-3.72-2.59-5.36-2.08-4.75-3.2-11.56-6.02-14.01zm5.47 13.57c-5.315-.92-13.5-6.513-15.41-8.054-1.79-1.09-1.243-1.73.638-2.687 1.886-.96 7.028-1.8 9.46.47 2.402 3.12 3.942 6.9 5.31 10.27zM6.27 39.93c-1.385.612-1.887.92-2.906 1.17.77-3.008 2.307-6.145 3.86-8.884 3.947-2.28 11.56-4.535 15.04-1.964-1.25 1.99-6.095 6.048-12.23 7.893-1.228.51-2.59 1.28-3.76 1.785zm-.863-8.975c.694 1.943-1.113 4.426-1.85 6.122-1.166 2.406-2.64 5.4-2.724 5.2 1.31-2.304 2.167-10.91 4.575-11.32zm217.8 14.84c.12 1-.11 1.166-6.773 2.114-1.04.06-13.37 2.16-16.61 1.68 0-.27.384-1.64 3.31-1.83 7.602-.92 18.45-2.42 20.08-1.98zm-154.9 7.67c-1.207.13-8.676.39-10.96.416l.077-1.1c2.327-.08 6.272-.12 10.88-.28z"/>
  <path fill="#ccc" d="M124.3 2.402l-2.908 17.87-52.45 3.05c2.805-3.25 10.56-8.537 18.44-12.2 10.65-5.865 15.09-6.707 20.31-7.622 4.054-.85 7.53-.94 11.88-1.05zm-55.94 50.09l-.01.96 51.57-1.027-.253-1.116zm36.53-29.34c5.868-.61 8.24-.587 11.42-.187l-.532 1.5c-3.72.68-7.304.256-10.95.343-.214-.552-.38-1.104.063-1.656z"/>
  <path d="M68.31 52.49c-.438-4.065-.925-8.745-1.443-13.6.25-5.995-.53-14.27 2.085-15.61 7.98-.51 41.12-2.93 52.39-3-.562 2.705-1.196 4.695-1.278 6.715-.346 2.61-1.004 8.256-.945 10.93-.39 4.39-.44 7.515-.11 10.48l.62 2.938zm3.327-30.47c15.09-1.036 32.62-2.372 49.85-2.93.58-3.092 1.693-10.01 2.604-15.82-12.72-.03-20.59 1.243-30.69 6.07-9.19 4.51-14.62 7.742-21.76 12.68zm38.24 2.42c3.395-.14 5.827.32 5.85-.595-.006-1.41-1.917-.885-5.756-.78-2.18.15-5.13-.236-5.13.734.02 1.35 2.44.73 5.04.64z"/>
  <path fill="#ccc" d="M121.3 20.28c18.56-.403 37.66-.164 56.43-.138-2.298-5.008-16.79-14.57-27.01-16.22-8.786-1.734-17.55-1.478-26.51-1.517-.053.375-.122.582-.158.876-.728 5.95-2.134 12.2-2.748 17zm36.13 31.63c.115-.452.028-.902-1.018-1.325l-36.82.74.242 1.124zm3.227-29.83l-.062 1.942 10.79.136.364-2.264z"/>
  <path d="M166.1 22.12c2.55.255 4.946-.32 5.21 1.028.106 1.17-2.026.597-5.25.675-3.23-.104-5.406.218-5.278-.664.07-1.17 1.84-.87 5.32-1.04zm-44.63-3.025c.616-5.06 1.578-10.19 2.604-15.82 3.594-.148 17.4-.21 27.64 2.005 4.008 1.035 16.27 5.448 22.01 13.78-17.34-.445-34.7-.154-52.26.034zm-1.863 32.22l36.4-.732c1.188-.02 1.69 1.166 1.413 1.314l.8.013c-.217-.048 1.638-7.404 3.647-10.77 1.428-2.59 3.003-4.597 6.026-7.186l6.983-6.702c2.177-2.16 2.34-2.758 3.255-4.82.11-.965-.02-1.614-.37-2.293-16.85-.08-34.9-.33-56.43.13-.39 2.18-1.17 4.46-1.31 6.74-.58 3.42-.84 7.03-.91 10.93-.43 4.88-.39 7.41-.12 10.5.15.72.42 1.93.63 2.87z"/>
</svg>
