<svg id="mbz" version="1.1" viewBox="0 0 227 65" xmlns="http://www.w3.org/2000/svg">
 <path id="fTire" d="m36.18 65c-8.371 0.04133-15.2-6.677-15.28-15.04-0.08659-8.361 6.608-15.22 14.98-15.34 8.371-0.1281 15.27 6.52 15.45 15.04 1.01e-4 8.514-6.766 15.3-15.14 15.34z" style="fill:#000000"/>
 <path id="fRim" d="m23.86 49.27c-0.03882 7.061 4.856 12.76 12.29 12.73 6.737-0.03466 12.18-5.49 12.19-12.22 0.01952-7.157-5.755-12.21-12.24-12.16-6.377 0.0191-11.71 4.84-12.24 11.66zm12.71-10.18c0.04683 0.05998 0.1322 1.251 0.1896 2.646 0.091 2.208 0.3252 5.134 0.4562 5.782 0.1652 0.3969 0.5192 0.4985 0.8206 0.4759 2.058-0.4666 4.298-1.093 6.153-1.642 1.028-0.3064 1.9-0.5384 1.937-0.5157 0.03676 0.02288 0.134 0.2415 0.2152 0.4858 0.1601 0.4814 0.08434 0.8013-0.2108 0.8907-0.07819 0.02367-0.903 0.3211-1.833 0.661-2.678 0.9782-5.54 2.205-5.757 2.468-0.2891 0.3487-0.2292 0.604 0.373 1.594 1.228 1.727 3.146 4.573 4.091 6.231-0.2011 0.2122-0.527 0.572-0.8656 0.7092-0.1836 0-0.4138-0.2561-1.804-2.007-2.002-2.519-3.727-4.493-4.004-4.581-0.351-0.1113-0.6256 0.07714-1.382 0.9488-1.91 2.124-2.834 3.556-4.549 5.707-0.4303-0.1985-0.7307-0.4385-1.135-0.7293 1.441-2.301 3.172-4.828 4.412-7.03 0.1665-0.3469 0.0615-0.5792-0.1183-0.8747-0.2927-0.2471-3.244-1.419-6.006-2.383-1.986-0.694-1.863-0.6403-1.926-0.8381-0.05494-0.1728 0.1795-1.001 0.3053-1.079 2.852 0.6891 5.651 1.535 8.271 2.025 0.4497-0.05449 0.6493-0.2919 0.6902-0.6992 0.1618-1.099 0.3869-5.044 0.3903-7.102 0.001602-0.9643 0.02395-1.155 0.1402-1.2 0.3841-0.09733 0.7948-0.03724 1.149 0.05776zm-1.712 0.04178c-0.03164 2.175-0.2398 4.088-0.6987 6.231-0.1632 0.4287-1.207 1.233-1.715 1.324-1.858-0.3536-3.903-0.6071-6.075-1.061-0.1382-0.06027-0.1445-0.1155-0.1507-0.1987-0.03755-0.4977 1.044-2.119 2.153-3.226 1.232-1.23 2.479-2.013 4.135-2.597 0.7304-0.2572 1.751-0.4836 2.17-0.4987 0.06195-0.01376 0.1381-0.007197 0.1813 0.02515zm2.421-0.0177c0.421 6.49e-4 1.443 0.2298 1.981 0.4075 2.178 0.7193 4.238 2.114 5.494 3.82 0.6171 0.8381 1.24 1.998 1.13 2.107-2.311 0.4129-3.676 0.933-5.863 1.169-0.9126 0.08317-1.987-0.717-2.163-1.572-0.1559-2.06-0.6388-4.748-0.76-5.903 0.07016-0.0442 0.1287-0.02033 0.1814-0.02867zm0.7232 8.371c0.01405 0.2125-0.2678 0.3807-0.4477 0.1812-0.1098-0.1213-0.06316-0.3198 0.05434-0.3827 0.2298-0.1198 0.3903 0.059 0.3934 0.2015zm-3.697-0.2123c0.1269 0.001599 0.2642 0.0868 0.2614 0.2635-0.01483 0.2445-0.2994 0.3293-0.4662 0.148-0.1066-0.1875-0.02088-0.384 0.2048-0.4116zm12.22 0.2349c0.05484-0.0013 0.08234 0.01777 0.1069 0.04804 0.2737 0.336 0.3666 2.927 0.1494 4.173-0.2735 1.567-1.045 3.371-1.956 4.575-1.007 1.332-1.335 1.595-1.601 1.283-0.724-1.636-2.767-4.157-2.955-5.542 0-0.4513 0.2732-1.404 0.492-1.712 2.075-1.105 4.102-2.175 5.765-2.821zm-20.95 0.1949c0.1631 0 5.218 2.272 5.579 2.507 0.3743 0.2443 0.8867 1.674 0.7832 2.187-0.6457 1.438-1.375 2.684-2.157 4.16-0.7726 1.461-0.7018 1.378-1.011 1.183-0.4321-0.2718-1.33-1.277-1.847-2.07-1.307-1.893-1.631-4.227-1.637-5.743-0.004005-1.127 0.009912-1.631 0.0753-1.98 0.01643-0.1696 0.1316-0.2473 0.2151-0.2445zm9.601 0.4746c-1.176 0.7012-1.128 2.029-0.5417 2.775 1.306 1.46 3.34 0.5748 3.414-1.163-0.1844-1.553-1.509-2.313-2.873-1.612zm3.952 2.535c-0.01001 0.1676-0.2159 0.3221-0.4148 0.2011-0.1931-0.163-0.09072-0.4023 0.07237-0.4573 0.2443-0.05779 0.3332 0.1357 0.3425 0.2561zm-5.561 0.05678c-0.03435 0.2625-0.3591 0.3322-0.4778 0.111-0.07689-0.1069-0.03334-0.2577 0.07124-0.3317 0.2155-0.1366 0.4091 0.03708 0.4065 0.2207zm2.503 1.73c0.1286 0.003799 0.2415 0.104 0.2515 0.2537-0.0108 0.2562-0.3089 0.3451-0.4636 0.157-0.1308-0.1845 0.002102-0.4163 0.2122-0.4106zm1.039 2.002c0.3386 0.1418 4.469 4.423 4.469 4.632-1.017 0.7905-2.438 1.136-3.494 1.364-2.126 0.3745-4.459 0.1173-6.29-0.7453-0.77-0.3765-1.05-0.548-1.05-0.6411 1.83-1.931 3.239-3.484 4.379-4.606 0.6679-0.1416 1.331-0.1731 1.99-0.003599z" style="fill:#fdfdfd"/>
 <path id="rTire" d="m178.9 65c-8.375 0.0453-15.21-6.673-15.29-15.04-0.08702-8.36 6.607-15.22 14.98-15.35 8.371-0.1288 15.27 6.519 15.45 15.04 4e-3 8.515-6.764 15.3-15.13 15.35z" style="fill:#000000"/>
 <path id="rRim" d="m166.7 50.45c0.372 6.458 5.742 11.56 12.23 11.53 7.762 0.0524 12.5-7.007 12.13-12.48-0.06313-7.077-6.091-12-12.17-11.84-7.687-0.08306-12.73 6.654-12.18 12.79zm12.65-11.32c0.0466 0.05967 0.1315 1.244 0.1886 2.63 0.09738 2.364 0.3599 5.555 0.4815 5.856 0.02984 0.07415 0.1673 0.2014 0.3053 0.2829 0.2387 0.1408 0.2891 0.1394 1.013-0.02917 1.288-0.2997 3.637-0.9387 5.589-1.521 1.023-0.3048 1.89-0.5356 1.927-0.5129 0.03689 0.02276 0.1333 0.2403 0.2142 0.4832 0.1593 0.4789 0.08395 0.7974-0.2097 0.8861-0.07772 0.02355-0.8981 0.3195-1.823 0.6574-2.663 0.9735-5.512 2.194-5.729 2.455-0.2875 0.3469-0.228 0.6009 0.3709 1.585 0.8306 1.366 1.853 2.909 3.074 4.637 0.111 0.1782 0.9657 1.325 0.9978 1.562-0.2 0.2111-0.5241 0.5689-0.8614 0.7054-0.1826 0-0.4117-0.2547-1.795-1.996-1.991-2.506-3.707-4.47-3.983-4.557-0.3492-0.1107-0.6222 0.07675-1.375 0.9441-1.034 1.193-1.944 2.327-3.314 4.134-0.6328 0.8353-1.178 1.53-1.213 1.542-0.429-0.1962-0.725-0.4385-1.129-0.7255-0.01854-0.01686 0.5912-0.9596 1.355-2.094 0.7638-1.135 1.79-2.739 2.281-3.564 0.7906-1.328 0.8867-1.533 0.8387-1.789-0.0299-0.1592-0.122-0.3466-0.2048-0.4165-0.2911-0.2459-3.229-1.412-5.975-2.371-1.975-0.6899-1.853-0.637-1.916-0.8335-0.05463-0.1719 0.1785-0.9955 0.3038-1.073 2.47 0.5898 4.905 1.251 7.587 1.909 0.7119 0.1411 0.7718 0.1414 0.9818 0.004229 0.1229-0.0804 0.2555-0.2319 0.2945-0.3368 0.1592-0.4271 0.4371-5.039 0.4407-7.319 0.00165-0.9588 0.02381-1.149 0.1394-1.194 0.3774-0.09488 0.769-0.0448 1.144 0.05575zm-1.704 0.0415c0.04559 0.04554 0.02523 0.5413-0.04941 1.201-0.336 2.968-0.5737 4.81-0.6455 4.997-0.1623 0.4263-1.2 1.227-1.707 1.317-0.1434 0.02543-1.454-0.1671-2.914-0.4276-3.244-0.5795-3.262-0.5841-3.28-0.8247-0.03734-0.4951 1.039-2.107 2.142-3.208 1.226-1.224 2.466-2.002 4.114-2.584 0.7263-0.2558 1.742-0.481 2.158-0.4959 0.06057-0.01386 0.1275 0.01756 0.181 0.02495zm4.379 0.3879c2.166 0.7154 4.215 2.103 5.463 3.799 0.614 0.8335 1.234 1.987 1.124 2.096-1.319 0.2906-2.394 0.4658-4.285 0.8654-1.826 0.3879-1.8 0.3866-2.377 0.09522-0.5773-0.2914-1.224-0.9457-1.323-1.361-0.3239-1.876-0.6571-3.972-0.7561-5.872 0.6145-0.06976 1.467 0.1551 2.152 0.3765zm-1.268 7.938c-0.00613 0.2653-0.2694 0.3234-0.4145 0.215-0.141-0.1102-0.1036-0.302-0.03748-0.368 0.1896-0.1854 0.4366-0.05851 0.452 0.153zm-3.668-0.2283c0.1409-0.004909 0.3169 0.1104 0.2611 0.3378-0.02731 0.08358-0.1866 0.2803-0.4218 0.1087-0.1387-0.1398-0.1007-0.4077 0.1607-0.4465zm12.16 0.2387c0.05455-0.00131 0.08193 0.01768 0.1064 0.04782 0.2726 0.3342 0.3648 2.911 0.1486 4.15-0.2722 1.559-1.039 3.353-1.946 4.552-1.001 1.325-1.327 1.586-1.593 1.276-0.1696-0.1979-0.4987-0.7626-1.84-3.159-0.9565-1.707-1.1-2.014-1.1-2.356 0-0.449 0.272-1.396 0.4895-1.704 2.086-0.9374 3.98-2.199 5.734-2.806zm-15.29 2.69c0.3725 0.2431 0.8821 1.666 0.7793 2.175-0.6419 1.43-1.367 2.669-2.145 4.139-0.7685 1.454-0.6977 1.371-1.006 1.177-0.4298-0.2703-1.322-1.271-1.837-2.059-1.301-1.884-1.622-4.206-1.628-5.715-0.00672-1.88 0.03676-2.213 0.2434-2.213 0.2067 0 5.236 2.26 5.592 2.495zm3.97-2.084c-1.036 0.76-1.219 1.948-0.5651 2.813 1.363 1.512 3.345 0.5212 3.414-1.22-0.1184-1.557-1.665-2.164-2.849-1.594zm3.939 2.555c-0.00798 0.2283-0.2158 0.3327-0.4094 0.226-0.1792-0.1413-0.113-0.3856 0.04139-0.4449 0.1698-0.05601 0.3172-0.003959 0.3681 0.2187zm-5.512 0.09805c-0.01946 0.189-0.2991 0.3611-0.4856 0.09175-0.01485 0-0.1055-0.3118 0.1876-0.3701 0.2446-0.03972 0.3177 0.2102 0.2981 0.2783zm2.408 1.719c0.1447-0.05335 0.3471 0.04614 0.3414 0.2475-0.02255 0.2749-0.3216 0.304-0.4466 0.1667-0.1268-0.1392-0.05329-0.3559 0.105-0.4145zm1.119 1.98c0.3368 0.141 4.446 4.4 4.446 4.609-1.012 0.7864-2.426 1.13-3.476 1.357-0.5308 0.1134-2.758 0.2344-3.043 0.1652-1.532-0.2371-3.159-0.524-4.259-1.545 0-0.03693 0.9162-1.057 2.036-2.266 1.291-1.394 2.14-2.241 2.319-2.315 0.6651-0.1409 1.324-0.1723 1.98-0.003608z" style="fill:#fdfdfd"/>
 <path id="red" d="m206.8 23.8c-2.813-1.659 9.683-3.814 11.06-2.937 4.445 5.484 6.202 12.22 6.565 13.31-3.903 1.525-15.16-7.12-17.63-10.38z" style="fill:#aa0000"/>
 <path id="bodyTrim" d="m16.66 28.41c-4.218 0.08116-9.511 1.09-11.4 2.371-1.761 0.5886-3.526 7.779-4.473 11.83 3.305 0.5666 23.28-9.575 21.65-12.4 0.127-1.366-2.504-1.864-5.785-1.801zm207.1 16.46c-8.531-0.009996-15.69 1.867-23.23 3.205-1.196 1.077-1.54 1.881 0.01757 2.068 7.96-0.3599 15.82-1.621 23.62-3.521zm-155.4 7.4-11.09 0.3145-0.06641 1.502 11.25-0.3691z" style="fill:#cccccc"/>
 <path id="body" d="m218.4 19.51c-7.393-0.2239-12.74-2.305-20.7-2.809-1.59-0.6918-3.028-1.79-4.652-2.462-8.975-4.209-16.17-7.511-24.31-10.19-4.856-1.239-5.02-0.8082-4.05-3.362-0.311-0.5933-1.777-0.1072-1.867 0.3485-0.2696 0.269-0.5214 0.6667-1.148 0.816-1.171 0.2787-2.224-0.0674-4.066-0.1102-11.29-1.775-25.71-2.057-36.78-1.449-10.33 0.1413-16.6 1.21-23.33 3.382-10.89 4.255-19.36 9.584-28.39 15.16-3.897 2.073-6.008 2.122-10.48 2.296-14.19 0.726-27.59 2.179-42.58 5.672-2.764 0.6806-5.82 1.796-6.004 1.796-0.5502-0.6586 0.5747-2.959 0.2192-3.503-0.83 0.9761-1.261 2.709-1.189 3.767-2.256 1.195-3.143 0.05818-4.932 2.863-2.244 4.666-3.743 9.227-4.102 13.91-0.0414 2.718-0.1318 4.941 0.4089 7.861 0.2305 1.151 2.391 2.984 4.254 3.608 4.224 0.514 9.239 1.363 12.96 1.529 2.911 0.7825 2.26-1.196 1.367-2.718-1.067-5.464 0.2707-12.23 3.048-16.35 6.183-7.806 16.67-7.478 20.37-5.8 3.19 1.279 14.33 7.835 12.8 25.23l5.394 0.0354c36.32-0.2878 68.35-1.463 100.3-0.6956-0.2508-7.024 1.581-17.05 6.94-21.06 4.798-4.783 16.31-6.306 22.68 0.3374 4.467 4.178 6.914 13.83 5.009 18.68 10.87-1.573 16.83-2.4 27.25-4.584 4.922-1.892 4.107-4.05 4.105-8.335 0-2.298 0.0779-4.22-8.5e-4 -4.481-1.61-4.728-1.869-3.725-2.586-5.364-2.076-4.748-3.193-11.56-6.014-14.01zm5.47 13.57c-5.315-0.9204-13.5-6.513-15.41-8.054-1.791-1.089-1.243-1.729 0.6383-2.687 1.886-0.9601 7.028-1.793 9.461 0.4778 2.401 3.121 3.941 6.903 5.31 10.27zm-217.6 6.849c-1.385 0.613-1.887 0.9214-2.906 1.172 0.7695-3.009 2.307-6.146 3.86-8.885 3.947-2.28 11.56-4.535 15.04-1.964-1.249 1.99-6.095 6.048-12.23 7.893-1.228 0.5091-2.589 1.281-3.76 1.785zm-0.8629-8.974c0.6943 1.943-1.113 4.426-1.849 6.122-1.167 2.406-2.642 5.4-2.725 5.199 1.311-2.303 2.167-10.91 4.575-11.32zm217.8 14.84c0.1188 0.9997-0.111 1.166-6.773 2.114-1.039 0.06899-13.37 2.167-16.61 1.689 0-0.2661 0.3837-1.639 3.309-1.828 7.603-0.9156 18.45-2.419 20.08-1.975zm-154.9 7.671c-1.207 0.1285-8.676 0.3893-10.96 0.4148l0.07694-1.107c2.327-0.07939 6.272-0.1255 10.88-0.2789z" style="fill:#000000"/>
 <path id="dDTrim" d="m124.3 2.402-2.908 17.87-52.45 3.05c2.805-3.25 10.56-8.537 18.44-12.2 10.65-5.865 15.09-6.707 20.31-7.622 4.054-0.85 7.53-0.9399 11.88-1.049zm-55.94 50.09-0.008839 0.9612 51.57-1.028-0.2544-1.116zm36.53-29.34c5.868-0.6103 8.241-0.5873 11.42-0.1874l-0.5319 1.5c-3.721 0.6792-7.304 0.2565-10.95 0.3436-0.2145-0.5519-0.3789-1.104 0.06258-1.656z" style="fill:#cccccc"/>
 <path id="dDoor" d="m68.31 52.49c-0.4381-4.065-0.9247-8.745-1.443-13.6 0.2504-5.995-0.5309-14.27 2.085-15.61 7.979-0.5097 41.12-2.93 52.39-3.001-0.5623 2.706-1.196 4.696-1.278 6.716-0.3456 2.61-1.004 8.256-0.945 10.93-0.3865 4.39-0.4384 7.515-0.1097 10.48l0.6271 2.938zm3.327-30.47c15.09-1.036 32.62-2.372 49.85-2.931 0.5804-3.091 1.693-10.01 2.604-15.82-12.72-0.02987-20.59 1.244-30.69 6.071-9.199 4.511-14.62 7.742-21.76 12.68zm38.24 2.419c3.395-0.1403 5.827 0.3224 5.851-0.5936-0.00706-1.41-1.918-0.8854-5.757-0.781-2.18 0.151-5.139-0.2352-5.132 0.7341 0.01698 1.356 2.435 0.7321 5.038 0.6404z" style="fill:#000000"/>
 <path id="rDTrim" d="m121.3 20.28c18.56-0.4029 37.66-0.1636 56.43-0.138-2.298-5.008-16.79-14.57-27.01-16.22-8.786-1.734-17.55-1.478-26.51-1.517-0.05347 0.375-0.1216 0.5821-0.1576 0.876-0.7281 5.943-2.134 12.2-2.748 17zm36.13 31.63c0.1146-0.4523 0.02793-0.9021-1.018-1.325l-36.82 0.7399 0.2423 1.124zm3.227-29.83-0.06166 1.942 10.79 0.1357 0.3638-2.264z" style="fill:#cccccc"/>
 <path id="rDoor" d="m166.1 22.12c2.551 0.2554 4.946-0.3199 5.209 1.028 0.1074 1.17-2.025 0.5966-5.249 0.6753-3.229-0.1042-5.406 0.2176-5.278-0.6645 0.06939-1.162 1.84-0.8657 5.319-1.039zm-44.63-3.025c0.6159-5.059 1.578-10.19 2.604-15.82 3.594-0.1483 17.4-0.2091 27.64 2.005 4.008 1.035 16.27 5.448 22.01 13.78-17.34-0.445-34.7-0.1538-52.26 0.0344zm-1.863 32.22 36.4-0.7322c1.188-0.02105 1.691 1.166 1.413 1.314l0.801 0.01343c-0.2185-0.04848 1.637-7.404 3.646-10.77 1.428-2.59 3.003-4.597 6.026-7.186l6.983-6.702c2.177-2.16 2.339-2.758 3.255-4.821 0.1076-0.9647-0.02072-1.613-0.3714-2.292-16.85-0.07906-34.9-0.3293-56.43 0.138-0.393 2.182-1.173 4.463-1.309 6.747-0.5886 3.421-0.8484 7.035-0.9092 10.93-0.4371 4.886-0.3964 7.415-0.1216 10.5 0.1479 0.7218 0.4149 1.93 0.6232 2.871z" style="fill:#000000"/>
</svg>
