<?xml version="1.0" encoding="UTF-8" standalone="no"?>
<svg
   xmlns:dc="http://purl.org/dc/elements/1.1/"
   xmlns:cc="http://creativecommons.org/ns#"
   xmlns:rdf="http://www.w3.org/1999/02/22-rdf-syntax-ns#"
   xmlns:svg="http://www.w3.org/2000/svg"
   xmlns="http://www.w3.org/2000/svg"
   xmlns:sodipodi="http://sodipodi.sourceforge.net/DTD/sodipodi-0.dtd"
   xmlns:inkscape="http://www.inkscape.org/namespaces/inkscape"
   height="101.07956"
   viewBox="0 0 340.43073 101.07956"
   width="340.43073"
   version="1.1"
   id="svg12511"
   sodipodi:docname="mbz-body-svg.svg"
   inkscape:version="0.92.1 r15371">
  <metadata
     id="metadata12517">
    <rdf:RDF>
      <cc:Work
         rdf:about="">
        <dc:format>image/svg+xml</dc:format>
        <dc:type
           rdf:resource="http://purl.org/dc/dcmitype/StillImage" />
        <dc:title></dc:title>
      </cc:Work>
    </rdf:RDF>
  </metadata>
  <defs
     id="defs12515" />
  <sodipodi:namedview
     pagecolor="#ffffff"
     bordercolor="#666666"
     borderopacity="1"
     objecttolerance="10"
     gridtolerance="10"
     guidetolerance="10"
     inkscape:pageopacity="0"
     inkscape:pageshadow="2"
     inkscape:window-width="1920"
     inkscape:window-height="1001"
     id="namedview12513"
     showgrid="false"
     inkscape:zoom="3.3150428"
     inkscape:cx="196.19893"
     inkscape:cy="-2.2826468"
     inkscape:window-x="-9"
     inkscape:window-y="41"
     inkscape:window-maximized="1"
     inkscape:current-layer="svg12511" />
  <filter
     id="a"
     color-interpolation-filters="sRGB"
     height="1.048"
     width="1.048"
     x="-.024"
     y="-.024">
    <feGaussianBlur
       stdDeviation=".9101667"
       id="feGaussianBlur12488" />
  </filter>
  <g
     transform="matrix(-0.35512741,0,0,0.35512741,712.55641,32.558633)"
     id="g12509"
     style="">
    <g
       transform="matrix(1.391657,0,0,1.391657,1211.9305,508.18017)"
       id="g12495"
       style="">
      <path
         d="m 38.650736,-274.20883 a 45.508335,45.508335 0 0 1 -45.2762102,45.50774 45.508335,45.508335 0 0 1 -45.7380918,-45.0435 45.508335,45.508335 0 0 1 44.8096176,-45.96725 45.508335,45.508335 0 0 1 46.1952134,44.57457"
         id="path12491"
         inkscape:connector-curvature="0"
         style="" />
      <path
         d="m -10.809395,-311.1691 c -18.252086,1.95991 -32.323101,16.97935 -33.08997,35.32034 v 1.72133 1.92598 c 1.131946,19.68686 17.47392,35.04432 37.1930785,34.9524 20.3883165,-0.10507 36.8672745,-16.65052 36.8902535,-37.03909 0.0011,-0.26597 -0.003,-0.53193 -0.0057,-0.79788 -0.396518,-18.6489 -14.584348,-34.10054 -33.131811,-36.08308 h -3.9041545 z m 3.2897214,4.12846 c 0.9274439,-0.006 1.9481765,0.12083 2.1145997,0.33432 0.14179,0.18193 0.4001352,3.79177 0.5741252,8.02175 0.2963997,7.206 1.0946244,16.93164 1.4655435,17.85524 0.0908,0.22598 0.509239,0.61413 0.929659,0.86247 0.726289,0.42904 0.8797959,0.42484 3.08301586,-0.0889 3.91889994,-0.91376 11.07163034,-2.86282 17.01188134,-4.63536 3.114468,-0.92935 5.754572,-1.63315 5.866825,-1.56375 0.112249,0.0694 0.405599,0.73253 0.65164,1.47331 0.484839,1.45968 0.255437,2.43049 -0.638204,2.70163 -0.236641,0.0718 -2.733902,0.97367 -5.549532,2.00401 -8.1076011,2.96688 -16.7755934,6.68774 -17.43459437,7.4843 -0.87469101,1.05727 -0.69381191,1.83181 1.12913007,4.83176 2.529268,4.16231 5.6399549,8.86426 9.3529173,14.13763 0.338008,0.54321 2.939528,4.03913 3.036487,4.75987 -0.608624,0.64364 -1.595094,1.73475 -2.621009,2.1503 -0.555842,0 -1.252909,-0.77658 -5.4637485,-6.08541 -6.05933095,-7.63934 -11.2840967,-13.62619 -12.1238077,-13.8927 -1.0626979,-0.33729 -1.8938142,0.23397 -4.1837238,2.87735 -3.14845,3.63442 -5.917253,7.09534 -10.082072,12.60285 -1.92577,2.54661 -3.586867,4.66236 -3.691248,4.70152 -0.10438,0.0391 -0.897343,-0.42117 -1.762166,-1.02319 -0.864818,-0.60205 -1.618405,-1.13668 -1.674832,-1.18805 -0.0564,-0.0514 1.799143,-2.92482 4.123261,-6.38514 2.32411,-3.46033 5.448356,-8.34851 6.943246,-10.8629 2.407079,-4.0487 2.699374,-4.6727 2.552816,-5.45393 -0.091,-0.4852 -0.371399,-1.05622 -0.623218,-1.26918 -0.886273,-0.74946 -9.823929,-4.30199 -18.184936,-7.22797 -6.011572,-2.10378 -5.640293,-1.9417 -5.830652,-2.54145 -0.166341,-0.52412 0.543451,-3.03509 0.924491,-3.2706 0.117179,-0.0724 2.757305,0.58635 5.866826,1.4645 6.370756,1.79916 13.778098,3.67315 17.223237,4.35737 2.165379,0.43002 2.349303,0.43106 2.987415,0.0129 0.37402,-0.24506 0.777566,-0.70699 0.896586,-1.0268 0.484429,-1.30172 1.329791,-15.36448 1.34152,-22.31543 0.005,-2.9233 0.072479,-3.503 0.4242636,-3.63802 0.2848081,-0.1093 0.8077888,-0.16076 1.3642578,-0.16433 z m -3.4225304,0.3824 c 0.180943,0.005 0.302736,0.0304 0.350883,0.0785 0.13879,0.1388 0.07678,1.65018 -0.150378,3.66024 -1.022818,9.0515 -1.746269,14.66168 -1.964738,15.2363 -0.494181,1.29979 -3.651926,3.73991 -5.194515,4.0137 -0.43656,0.0775 -4.425162,-0.50951 -8.863541,-1.30379 -9.872099,-1.76673 -9.928545,-1.78054 -9.983886,-2.5151 -0.113699,-1.50953 3.162575,-6.42543 6.520013,-9.78286 3.729408,-3.72941 7.506733,-6.10513 12.519134,-7.87342 2.210853,-0.77996 5.301888,-1.46592 6.567041,-1.51207 0.07299,-0.003 0.139673,-0.003 0.199987,-0.002 z m 7.6811851,0.0248 c 1.274472,0.002 4.368822,0.69697 5.99705,1.23575 6.5917489,2.18117 12.8300059,6.41174 16.6294759,11.57897 1.868519,2.54119 3.753712,6.05965 3.423563,6.3898 -0.283171,0.28318 0.0032,0.221 -5.236372,1.1317 -2.182812,0.37941 -5.695159,1.0573 -7.8052087,1.50638 -5.5560679,1.18247 -5.4783031,1.17866 -7.0905231,0.3633 h -5.168e-4 c -1.90086498,-0.9615 -3.8694553,-2.95561 -4.1677043,-4.22095 -0.0686,-0.29105 -0.5468784,-3.4462 -1.0624674,-7.01146 -0.5155799,-3.56526 -1.0709901,-7.40725 -1.2345499,-8.53797 -0.2179399,-1.50675 -0.2190692,-2.13442 -0.00413,-2.34974 0.0599,-0.0599 0.2572766,-0.0863 0.5513874,-0.0858 z m 1.25212,24.75301 c 0.390131,-0.0179 0.7955812,0.24839 0.8567952,0.67541 0.10976,0.76551 -0.5893906,0.96919 -1.1606526,0.33797 -0.33274,-0.36766 -0.3861408,-0.59986 -0.1850016,-0.80099 0.137266,-0.13727 0.311527,-0.20421 0.488859,-0.21239 z m -10.2691401,0.0165 c 0.04193,5.3e-4 0.08524,0.003 0.130224,0.01 0.43629,0.062 0.596863,0.26146 0.596863,0.7426 0,0.77198 -0.683019,1.01277 -1.178739,0.41548 -0.450292,-0.54256 -0.177313,-1.17515 0.451652,-1.1679 z m 37.001875,0.69403 c 0.165989,-0.004 0.249277,0.0539 0.324011,0.14571 0.829151,1.01893 1.110021,8.87804 0.452169,12.65039 -0.828439,4.75063 -3.163707,10.22107 -5.922636,13.87409 -3.049881,4.03827 -4.040452,4.83345 -4.848283,3.88917 -0.5163,-0.60352 -1.518252,-2.32573 -5.6022416,-9.62784 -2.9111601,-5.20511 -3.3475993,-6.14158 -3.3475993,-7.18197 0,-1.36856 0.8276505,-4.25434 1.4898314,-5.19401 0.2675491,-0.37968 1.9992814,-1.37549 4.3072305,-2.47634 2.122901,-1.01259 5.467565,-2.61792 7.432105,-3.56722 3.976769,-1.9217 5.217446,-2.49854 5.715413,-2.51198 z m -63.424035,0.59116 c 0.493871,0 15.796841,6.89041 16.889408,7.6047 1.133502,0.74105 2.684245,5.07887 2.370915,6.63216 -0.079,0.39184 -1.20337,2.67663 -2.498039,5.07773 -1.294681,2.40109 -3.108215,5.79437 -4.030245,7.54062 -2.338809,4.42956 -2.12369,4.17804 -3.061828,3.58738 -1.308481,-0.82383 -4.023969,-3.8722 -5.591908,-6.27765 -1.85987,-2.85328 -3.339264,-6.17934 -4.241083,-9.53481 -0.638141,-2.37437 -0.697913,-3.03466 -0.715203,-7.88326 -0.0204,-5.73193 0.111874,-6.74687 0.877983,-6.74687 z m 31.7794553,0.65992 c -1.0270699,0 -2.0544065,0.19714 -2.8034464,0.59116 -3.4799589,1.83073 -4.3041579,5.93926 -1.7203079,8.5752 1.947168,1.98641 4.9988039,2.65813 7.1318638,1.56993 1.930765,-0.98499 3.47420645,-3.28554 3.47420645,-5.1785 0,-1.89847 -1.35884135,-3.95627 -3.27938635,-4.96663 -0.7490349,-0.39402 -1.7758626,-0.59116 -2.8029296,-0.59116 z m 8.22017,7.69305 c 0.40699,0.0228 1.0402465,0.51816 1.0402465,0.87387 0,0.2323 -0.570989,0.82732 -0.79375,0.82732 -0.0873,0 -0.3018267,-0.14266 -0.4764567,-0.31728 -0.43753095,-0.43752 -0.39819971,-1.18235 0.07183,-1.36271 0.0464,-0.0178 0.099989,-0.0244 0.1581302,-0.0212 z m -16.5473103,0.16434 c 0.376712,-1.6e-4 0.675594,0.31892 0.606165,0.80565 -0.108841,0.76301 -0.892474,0.91702 -1.251603,0.24596 -0.209033,-0.39058 -0.181787,-0.59613 0.111104,-0.83921 0.176044,-0.1461 0.363104,-0.21233 0.534334,-0.2124 z m 8.2615112,6.0725 c 0.04193,5.3e-4 0.08524,0.003 0.1302247,0.01 0.43629,0.062 0.5968627,0.26146 0.5968627,0.7426 0,0.77198 -0.6830084,1.01277 -1.1787394,0.41548 -0.4502811,-0.54256 -0.1773129,-1.17515 0.451652,-1.1679 z m 0.1994709,5.67614 c 1.2204801,-0.002 2.4381994,0.11443 3.0034344,0.3514 1.0251649,0.42984 13.529332,13.4111 13.5304401,14.04669 2.598e-4,0.22279 -0.5567085,0.65062 -1.2557374,0.96376 -0.6912289,0.30965 -1.9171766,0.86026 -2.7238647,1.2237 -1.5254999,0.68729 -3.6658277,1.31849 -6.60269766,1.94717 -1.61583094,0.34589 -8.39235794,0.71464 -9.26041684,0.50385 -3.33772,-0.53072 -7.041034,-1.43921 -9.783382,-2.76469 -2.330172,-1.14131 -3.181201,-1.66159 -3.181201,-1.94459 0,-0.1126 2.788134,-3.22095 6.196004,-6.90707 3.927959,-4.24868 6.511226,-6.83244 7.0569339,-7.05848 0.5767998,-0.23892 1.8000043,-0.35968 3.0204872,-0.36174 z"
         id="path12493"
         inkscape:connector-curvature="0"
         style="fill:#fdfdfd;stroke-width:0.26458332;" />
    </g>
    <g
       transform="matrix(1.3843618,0,0,1.3843618,1812.5596,506.22016)"
       id="g12501"
       style="">
      <path
         d="m 38.650736,-274.20883 a 45.508335,45.508335 0 0 1 -45.2762102,45.50774 45.508335,45.508335 0 0 1 -45.7380918,-45.0435 45.508335,45.508335 0 0 1 44.8096176,-45.96725 45.508335,45.508335 0 0 1 46.1952134,44.57457"
         id="path12497"
         inkscape:connector-curvature="0"
         style="" />
      <path
         d="m -10.809395,-311.1691 c -18.252086,1.95991 -32.323101,16.97935 -33.08997,35.32034 v 1.72133 1.92598 c 1.131946,19.68686 17.47392,35.04432 37.1930785,34.9524 20.3883165,-0.10507 36.8672745,-16.65052 36.8902535,-37.03909 0.0011,-0.26597 -0.003,-0.53193 -0.0057,-0.79788 -0.396518,-18.6489 -14.584348,-34.10054 -33.131811,-36.08308 h -3.9041545 z m 3.2897214,4.12846 c 0.9274439,-0.006 1.9481765,0.12083 2.1145997,0.33432 0.14179,0.18193 0.4001352,3.79177 0.5741252,8.02175 0.2963997,7.206 1.0946244,16.93164 1.4655435,17.85524 0.0908,0.22598 0.509239,0.61413 0.929659,0.86247 0.726289,0.42904 0.8797959,0.42484 3.08301586,-0.0889 3.91889994,-0.91376 11.07163034,-2.86282 17.01188134,-4.63536 3.114468,-0.92935 5.754572,-1.63315 5.866825,-1.56375 0.112249,0.0694 0.405599,0.73253 0.65164,1.47331 0.484839,1.45968 0.255437,2.43049 -0.638204,2.70163 -0.236641,0.0718 -2.733902,0.97367 -5.549532,2.00401 -8.1076011,2.96688 -16.7755934,6.68774 -17.43459437,7.4843 -0.87469101,1.05727 -0.69381191,1.83181 1.12913007,4.83176 2.529268,4.16231 5.6399549,8.86426 9.3529173,14.13763 0.338008,0.54321 2.939528,4.03913 3.036487,4.75987 -0.608624,0.64364 -1.595094,1.73475 -2.621009,2.1503 -0.555842,0 -1.252909,-0.77658 -5.4637485,-6.08541 -6.05933095,-7.63934 -11.2840967,-13.62619 -12.1238077,-13.8927 -1.0626979,-0.33729 -1.8938142,0.23397 -4.1837238,2.87735 -3.14845,3.63442 -5.917253,7.09534 -10.082072,12.60285 -1.92577,2.54661 -3.586867,4.66236 -3.691248,4.70152 -0.10438,0.0391 -0.897343,-0.42117 -1.762166,-1.02319 -0.864818,-0.60205 -1.618405,-1.13668 -1.674832,-1.18805 -0.0564,-0.0514 1.799143,-2.92482 4.123261,-6.38514 2.32411,-3.46033 5.448356,-8.34851 6.943246,-10.8629 2.407079,-4.0487 2.699374,-4.6727 2.552816,-5.45393 -0.091,-0.4852 -0.371399,-1.05622 -0.623218,-1.26918 -0.886273,-0.74946 -9.823929,-4.30199 -18.184936,-7.22797 -6.011572,-2.10378 -5.640293,-1.9417 -5.830652,-2.54145 -0.166341,-0.52412 0.543451,-3.03509 0.924491,-3.2706 0.117179,-0.0724 2.757305,0.58635 5.866826,1.4645 6.370756,1.79916 13.778098,3.67315 17.223237,4.35737 2.165379,0.43002 2.349303,0.43106 2.987415,0.0129 0.37402,-0.24506 0.777566,-0.70699 0.896586,-1.0268 0.484429,-1.30172 1.329791,-15.36448 1.34152,-22.31543 0.005,-2.9233 0.072479,-3.503 0.4242636,-3.63802 0.2848081,-0.1093 0.8077888,-0.16076 1.3642578,-0.16433 z m -3.4225304,0.3824 c 0.180943,0.005 0.302736,0.0304 0.350883,0.0785 0.13879,0.1388 0.07678,1.65018 -0.150378,3.66024 -1.022818,9.0515 -1.746269,14.66168 -1.964738,15.2363 -0.494181,1.29979 -3.651926,3.73991 -5.194515,4.0137 -0.43656,0.0775 -4.425162,-0.50951 -8.863541,-1.30379 -9.872099,-1.76673 -9.928545,-1.78054 -9.983886,-2.5151 -0.113699,-1.50953 3.162575,-6.42543 6.520013,-9.78286 3.729408,-3.72941 7.506733,-6.10513 12.519134,-7.87342 2.210853,-0.77996 5.301888,-1.46592 6.567041,-1.51207 0.07299,-0.003 0.139673,-0.003 0.199987,-0.002 z m 7.6811851,0.0248 c 1.274472,0.002 4.368822,0.69697 5.99705,1.23575 6.5917489,2.18117 12.8300059,6.41174 16.6294759,11.57897 1.868519,2.54119 3.753712,6.05965 3.423563,6.3898 -0.283171,0.28318 0.0032,0.221 -5.236372,1.1317 -2.182812,0.37941 -5.695159,1.0573 -7.8052087,1.50638 -5.5560679,1.18247 -5.4783031,1.17866 -7.0905231,0.3633 h -5.168e-4 c -1.90086498,-0.9615 -3.8694553,-2.95561 -4.1677043,-4.22095 -0.0686,-0.29105 -0.5468784,-3.4462 -1.0624674,-7.01146 -0.5155799,-3.56526 -1.0709901,-7.40725 -1.2345499,-8.53797 -0.2179399,-1.50675 -0.2190692,-2.13442 -0.00413,-2.34974 0.0599,-0.0599 0.2572766,-0.0863 0.5513874,-0.0858 z m 1.25212,24.75301 c 0.390131,-0.0179 0.7955812,0.24839 0.8567952,0.67541 0.10976,0.76551 -0.5893906,0.96919 -1.1606526,0.33797 -0.33274,-0.36766 -0.3861408,-0.59986 -0.1850016,-0.80099 0.137266,-0.13727 0.311527,-0.20421 0.488859,-0.21239 z m -10.2691401,0.0165 c 0.04193,5.3e-4 0.08524,0.003 0.130224,0.01 0.43629,0.062 0.596863,0.26146 0.596863,0.7426 0,0.77198 -0.683019,1.01277 -1.178739,0.41548 -0.450292,-0.54256 -0.177313,-1.17515 0.451652,-1.1679 z m 37.001875,0.69403 c 0.165989,-0.004 0.249277,0.0539 0.324011,0.14571 0.829151,1.01893 1.110021,8.87804 0.452169,12.65039 -0.828439,4.75063 -3.163707,10.22107 -5.922636,13.87409 -3.049881,4.03827 -4.040452,4.83345 -4.848283,3.88917 -0.5163,-0.60352 -1.518252,-2.32573 -5.6022416,-9.62784 -2.9111601,-5.20511 -3.3475993,-6.14158 -3.3475993,-7.18197 0,-1.36856 0.8276505,-4.25434 1.4898314,-5.19401 0.2675491,-0.37968 1.9992814,-1.37549 4.3072305,-2.47634 2.122901,-1.01259 5.467565,-2.61792 7.432105,-3.56722 3.976769,-1.9217 5.217446,-2.49854 5.715413,-2.51198 z m -63.424035,0.59116 c 0.493871,0 15.796841,6.89041 16.889408,7.6047 1.133502,0.74105 2.684245,5.07887 2.370915,6.63216 -0.079,0.39184 -1.20337,2.67663 -2.498039,5.07773 -1.294681,2.40109 -3.108215,5.79437 -4.030245,7.54062 -2.338809,4.42956 -2.12369,4.17804 -3.061828,3.58738 -1.308481,-0.82383 -4.023969,-3.8722 -5.591908,-6.27765 -1.85987,-2.85328 -3.339264,-6.17934 -4.241083,-9.53481 -0.638141,-2.37437 -0.697913,-3.03466 -0.715203,-7.88326 -0.0204,-5.73193 0.111874,-6.74687 0.877983,-6.74687 z m 31.7794553,0.65992 c -1.0270699,0 -2.0544065,0.19714 -2.8034464,0.59116 -3.4799589,1.83073 -4.3041579,5.93926 -1.7203079,8.5752 1.947168,1.98641 4.9988039,2.65813 7.1318638,1.56993 1.930765,-0.98499 3.47420645,-3.28554 3.47420645,-5.1785 0,-1.89847 -1.35884135,-3.95627 -3.27938635,-4.96663 -0.7490349,-0.39402 -1.7758626,-0.59116 -2.8029296,-0.59116 z m 8.22017,7.69305 c 0.40699,0.0228 1.0402465,0.51816 1.0402465,0.87387 0,0.2323 -0.570989,0.82732 -0.79375,0.82732 -0.0873,0 -0.3018267,-0.14266 -0.4764567,-0.31728 -0.43753095,-0.43752 -0.39819971,-1.18235 0.07183,-1.36271 0.0464,-0.0178 0.099989,-0.0244 0.1581302,-0.0212 z m -16.5473103,0.16434 c 0.376712,-1.6e-4 0.675594,0.31892 0.606165,0.80565 -0.108841,0.76301 -0.892474,0.91702 -1.251603,0.24596 -0.209033,-0.39058 -0.181787,-0.59613 0.111104,-0.83921 0.176044,-0.1461 0.363104,-0.21233 0.534334,-0.2124 z m 8.2615112,6.0725 c 0.04193,5.3e-4 0.08524,0.003 0.1302247,0.01 0.43629,0.062 0.5968627,0.26146 0.5968627,0.7426 0,0.77198 -0.6830084,1.01277 -1.1787394,0.41548 -0.4502811,-0.54256 -0.1773129,-1.17515 0.451652,-1.1679 z m 0.1994709,5.67614 c 1.2204801,-0.002 2.4381994,0.11443 3.0034344,0.3514 1.0251649,0.42984 13.529332,13.4111 13.5304401,14.04669 2.598e-4,0.22279 -0.5567085,0.65062 -1.2557374,0.96376 -0.6912289,0.30965 -1.9171766,0.86026 -2.7238647,1.2237 -1.5254999,0.68729 -3.6658277,1.31849 -6.60269766,1.94717 -1.61583094,0.34589 -8.39235794,0.71464 -9.26041684,0.50385 -3.33772,-0.53072 -7.041034,-1.43921 -9.783382,-2.76469 -2.330172,-1.14131 -3.181201,-1.66159 -3.181201,-1.94459 0,-0.1126 2.788134,-3.22095 6.196004,-6.90707 3.927959,-4.24868 6.511226,-6.83244 7.0569339,-7.05848 0.5767998,-0.23892 1.8000043,-0.35968 3.0204872,-0.36174 z"
         id="path12499"
         inkscape:connector-curvature="0"
         style="fill:#fdfdfd;stroke-width:0.26458332;" />
    </g>
    <g
       transform="translate(1046.2273,-93.81607)"
       id="g12507"
       style="">
      <path
         d="m 872.44774,101.14766 c -1.10457,-1.709196 46.61457,-14.389726 46.59711,-12.395666 20.17987,20.414596 19.77064,36.660996 29.11201,54.167066 -10.68279,12.50345 -67.83006,-30.12976 -75.70912,-41.7714 z"
         id="path12503"
         inkscape:connector-curvature="0"
         style="fill:#ac2b1f;stroke-width:1.33333337;" />
      <path
         d="m 1587.1035,-91.675781 c -14.0438,0.04189 -25.8578,0.243657 -30.1797,0.630859 -32.5052,1.880264 -67.2017,6.514466 -95.5508,15.685547 -27.6598,12.29439 -57.6241,24.120562 -85.9785,42.876953 -9.0344,5.691516 -20.6422,13.503775 -31.5019,20.181641 -15.6899,6.3866756 -32.2006,7.3196505 -49.0547,8.4199216 -59.7843,3.06425802 -117.2806,8.835015 -179.5723,24.8437504 -11.6487,2.87115 -21.8028,5.220703 -22.5664,5.220703 -2.3183,-2.779919 -0.1212,-11.032243 -1.6191,-13.332032 -3.284,2.999121 -3.3281,7.195888 -3.5328,10.810547 -0.024,1.395682 0.05,1.886071 0.1585,3.085039 -2.3723,2.186442 -5.7644,2.029822 -8.9984,3.666914 0,0 -11.099,5.647839 -13.4258,10.417969 -5.1272,10.5826 -9.1014,21.809686 -13.1874,33.759766 -3.8785,9.554562 -3.4077,16.383394 -4.0918,24.923828 -0.1745,11.467955 -0.5551,20.856515 1.7228,33.158205 0.9712,4.85582 10.0721,12.58564 17.9297,15.22851 16.5154,4.64837 56.7283,11.75983 68.7519,8.76368 7.2871,-1.83491 4.5178,-4.22015 2.1153,-10.70118 -9.0994,-24.54653 -4.2505,-40.44562 5.9824,-56.947262 14.426,-25.0054 50.3634,-37.100545 76.9922,-29.892465 48.4976,15.738507 57.2731,61.596727 48.6006,96.988227 l 33.249,-0.10748 c 153.0806,-1.21489 299.1928,-4.63317 433.9258,-1.39453 -9.0401,-36.74764 2.3905,-70.127763 21.1152,-83.962892 20.0918,-17.462666 63.0272,-23.243209 89.7538,1.484431 26.9283,23.178235 24.3613,62.098841 22.7345,75.874941 43.7566,-4.32279 76.3438,-14.50061 116.6855,-21.39453 18.6878,-7.99103 18.93,-16.0446 18.9197,-34.128905 0,-9.69877 -0.2795,-18.532813 -0.6114,-19.632813 -10.0569,-24.826743 -8.6475,-21.989966 -15.3554,-24.910156 -23.0097,-10.01694 -57.3812,-28.938732 -64.3379,-35.419922 -3.37,-3.1396296 -2.0564,-5.2105899 5.8691,-9.2539059 7.9454,-4.05341898 24.555,-8.4050734 34.8164,1.1812596 9.312,5.9639663 13.5665,12.4297553 21.5118,31.7347563 1.8047,4.308118 3.4732,13.108076 5.5406,16.137582 0.748,1.095987 2.8064,1.346588 3.4724,0.604963 -2.2251,-4.763874 -15.3312,-43.1984307 -18.4291,-48.6722328 -8.2027,-14.4938402 -7.8032,-14.0504037 -12.7343,-14.0898437 -27.906,-2.8762185 -53.5391,-7.6212905 -80,-12.8574215 -9.2075,-1.213215 -12.1668,-1.475276 -25.2599,-8.113248 -37.8284,-17.757357 -67.857,-33.885948 -102.1952,-45.164096 -20.4615,-5.226255 -18.3325,-3.539348 -15.7871,-12.511719 1.0017,-3.530924 -3.7631,-3.662665 -7.2266,-0.199219 -3.2557,3.255749 -14.3415,4.637637 -23.9043,2.978516 -8.99,-1.559743 -20.1954,-2.63165 -37.6269,-3.601563 -29.4316,-2.050655 -60.3521,-2.430995 -87.1231,-2.371093 z m 12.6054,8.968699 c 39.7598,-0.08323 83.0767,5.077026 115.1856,17.308644 9.7428,2.749008 37.9913,15.6775 48.1407,25.679688 8.6545,6.540163 25.1575,19.957313 33.8593,31.6191406 0,0.849795 -8.1421,0.9886833 -23,0.3945313 -26.2729,-1.050631 -151.7548,-1.1368844 -189.6679,-0.1308594 -77.3462,2.052377 -150.9206,6.0952658 -219.7305,12.0742187 -12.3188,1.0703881 -23.086,1.9453126 -23.9277,1.9453126 12.1528,-11.3096219 23.9298,-20.2133468 38.832,-30.0800778 19.5505,-12.946923 79.5306,-42.327338 94.0801,-46.083985 51.9883,-15.115051 83.014,-13.569928 126.2284,-12.726613 z m -17.9874,7.995641 c -0.077,-1.668278 0.066,-3.288306 -0.2209,-3.939326 -3.2427,-0.05801 -8.2368,-0.253336 -11.5098,-0.292742 -1.4445,24.101846 -6.0306,48.142674 -9.1808,66.99446 l 0.013,0.06035 c 6.5648,-0.20498 11.5728,-0.362552 18.0762,-0.605446 m -20.0133,0.834539 c 3.1676,-22.931339 6.4709,-47.22424 8.8871,-67.265009 -21.8902,-0.036 -44.2853,1.249004 -65.5439,5.93633 -21.1167,3.441592 -50.6762,14.743385 -76.6661,29.3125 -16.7266,8.350628 -33.1119,16.591141 -48.9003,24.867187 -2.8049,2.021266 -5.0997,4.572569 -5.0997,5.667969 0,1.095402 -0.8257,1.992187 -1.8359,1.992187 -1.0102,0 -2.5276,0.831314 -3.3711,1.8476568 -1.2611,1.51955 -0.7578,1.6361774 2.836,1.3456974 2.4036,-0.194287 4.821,0.4728369 5.371,1.3007869 0.7311,1.100478 1.2853,1.0648838 2.0586,-0.1289062 1.6683,-2.575146 7.3903,-2.8757654 9.627,-0.5058594 2.3712,2.1752889 5.4076,4.9551861 8.6484,4.3613281 l 8.3731,-0.1114505 c 8.1757,-0.1088232 10,-2.33393 9.3965,-7.6151121 -0.4323,-3.78235 -0.5427,-3.828661 -9.1036,-3.800781 -4.7666,0.01552 -12.7977,0.428262 -17.8476,0.916016 -10.4143,1.005872 -10.5419,-0.958638 -0.1524,-2.347657 3.6667,-0.490213 8.2874,-1.725194 10.2676,-2.74414 1.9803,-1.018945 6.3296,-1.851563 9.666,-1.851563 3.9867,0 6.0514,-0.570688 6.0235,-1.666016 -0.075,-2.958046 -3.5059,-6.333984 -6.4375,-6.333984 -1.5692,0 -2.8535,-0.548837 -2.8535,-1.21875 11.2243,-3.421269 14.8084,12.652884 13.2992,17.247727 l -1.2496,8.0252683 c 49.0892,-1.3735875 100.6513,-5.4866995 144.6072,-7.2314253 z m 22.7939,-0.561863 c 49.6759,-1.78826 88.4192,0.02866 131.2804,-1.827363 -0.2414,-15.699892 -0.485,-31.39975 -0.7285,-47.09961 l -12.9219,-4.259765 c -37.5867,-10.34814 -74.8746,-13.122694 -115.3872,-13.30336 -1.7019,21.93751 -1.3523,44.553806 -2.2428,66.490098 z m 133.4578,-48.139421 c 0.071,17.450283 0.3992,33.992884 1.2764,46.306702 22.2321,0.592484 43.6252,1.246768 65.8168,1.413716 -1.0132,-2.003061 -5.2424,-7.358282 -13.4002,-14.976743 -10.4559,-10.604579 -39.3049,-29.799586 -53.693,-32.743675 z m -350.8209,53.1283906 c -2.532,-0.044995 -12.926,8.14884627 -14.4104,9.4397019 -0.5234,-0.038274 34.3202,-3.7503521 37.0227,-4.6193894 -11.4624,-2.2810983 -15.9791,-1.8207878 -22.6123,-4.8203125 z m 410.5955,13.3633539 c -2.8945,3.9608665 3.5265,2.3947387 -24.73,2.0527353 -17.7821,-0.3564744 -20.7213,-0.5214101 -19.6172,-4.4472035 0.026,-3.60695772 9.332,-1.8278471 20.332,-1.9668591 23.9542,1.032931 20.8846,-0.90767373 24.0152,4.3613273 z M 1536.291,6.3085938 c 4.5155,4.8714802 -9.4837,3.4885525 -21.4062,3.8437502 -21.4946,0.640369 -24.6582,1.858818 -24.6582,-1.3007815 0,-3.164205 3.5658,-2.8709638 26.4121,-3.71875 7.3647,0.3132893 16.8868,-1.8077176 19.6523,1.1757813 z M 1135.7205,38.373091 c -19.9908,16.547248 -42.2505,21.651438 -58.9727,34.201172 -5.0626,3.10103 -13.0872,3.88744 -12.8906,1.474609 0.9301,-11.418066 7.5364,-22.210441 15.1015,-31.197266 4.2992,-12.445897 66.4379,-21.108966 56.7618,-4.478515 z m -64.3943,-0.828169 c 2.9255,8.200201 -4.6911,18.671205 -7.791,25.832032 -4.9199,10.15285 -11.1337,22.795654 -11.4766,21.9375 -1.3078,-6.359496 15.4896,-48.008572 19.2676,-47.769532 z m 918.3105,63.171828 c 0.5004,4.22124 -2.2839,0.92241 -33.998,6.37888 -4.3785,0.2912 -49.0758,10.59551 -62.7442,8.58406 0,-1.1231 -1.2897,-5.10211 11.0391,-5.89654 33.8258,-6.9486 88.2263,-15.222501 85.7031,-9.0664 z m -282.7051,22.05278 c 16.2358,3.04585 -8.1153,4.39971 -97.3711,5.41602 -86.7713,1.40285 -181.8839,2.9433 -257.3339,4.72656 -63.177,1.53887 -62.3221,1.53858 -61.3809,0.0156 1.6882,-2.7316 -9.0543,-2.42029 305.752,-8.86328 38.7618,-0.35172 76.808,-1.3483 110.3339,-1.2949 z"
         transform="translate(-1046.2273,93.81607)"
         id="path12505"
         inkscape:connector-curvature="0"
         style="stroke-width:1.33333337;" />
    </g>
  </g>
</svg>
