<svg height="140" viewBox="0 0 125.94167 37.041666" width="476" xmlns="http://www.w3.org/2000/svg"><g transform="matrix(-.99456738 0 0 .99292549 162.45725 -144.37448)"><path d="m66.773736 178.46414c-.766122-2.84773-.09983-6.45513-1.767181-9.49296-1.956275-2.91749-4.995128-4.65247-8.263551-4.72816-3.514635.0308-6.606724 2.12807-8.090426 4.75275-1.56972 3.77941-1.228224 5.80002-1.075628 9.60286-.921781-.0648-1.775324-.35353-2.586352-.4178-1.943532-.14874-5.066979-.59718-5.812978-.83454-.311525-.0994-.957533-.53189-1.435568-.96168l-.869146-.78121c-.757321-4.41949 1.430843-8.35389 1.902271-11.65638 0-.7264.592308-1.4267 1.56438-1.84964 1.509748-.65689 1.510538-.65762 1.634586-1.52068.12778-.88909.255281-1.1789.518673-1.1789.158356 0 .09393.79727-.130951 1.62075-.07583.27797.005.27574 1.116353-.0307 8.700516-1.99911 18.228706-3.42019 27.248862-3.88024.895842 0 1.312738-.079 1.54946-.2931.275961-.24969.386926-.25925.750418-.065.366321.19603.502669.18143.965329-.10333 9.33335-5.74385 14.886796-8.60805 18.598291-9.59218 3.238763-.85872 7.2034-1.27293 14.444722-1.50921 6.27248-.29298 12.65481-.20022 18.59943.94058 1.26709.09 1.36014.0708 1.79759-.36679.4932-.49323.61796-.5345.95953-.31753.15656.0997.17269.29619.0574.6987-.15776.55009-.14737.56366.57475.74915 1.81587.46647 2.75772.74913 3.90623 1.17228 5.87961 1.81237 9.86867 5.49315 15.09182 6.39683 2.83751.36556 5.42211 1.00052 8.40362 1.38088l2.35686.29473.85291 1.49592c.46911.82273.8552 1.65933.85799 1.85918.11083 1.35863.61855 2.3885 1.06201 3.78519 0 .16219.23475.59036.52167.95147.99965 1.2579 1.23068 2.24512 1.25932 5.3806.0255 2.78238.0194 2.83143-.44444 3.53215-.4827.72933-1.13531 1.11468-1.59153.93964-.14191-.0546-.83545.0324-1.54124.19286-2.8178.64084-12.36427 2.55831-12.73727 2.55831-.37763 0-.40384-.0873-.5168-1.71749-.53407-5.43951-3.23747-10.5596-7.91042-11.08854-3.46839-.20646-6.13123.31132-8.13786 2.31417-2.15029 2.15645-3.19809 4.91876-3.36139 8.8619-.0412.99287-.1531 2.01114-.24887 2.26305-.16839.4429-.20845.45406-1.21432.33725z" stroke-width=".17615516"/><path d="m128.10179 172.59756c.34015-5.24768 5.03228-7.46495 9.87075-7.27788 3.7543.14507 6.7681 3.49326 7.40455 7.27788.75307 4.47798-2.3362 8.97456-6.82856 9.9265-6.71351 1.40314-11.05308-5.50942-10.44674-9.9265zm15.93351 1.71441c.0619-2.37516-1.55443-5.38534-3.45132-6.36138-5.88527-2.79474-12.89328 1.09124-10.03152 9.01914 3.84187 7.13154 13.17649 4.04823 13.48284-2.65776zm-9.40971 5.64288c0-.32175 1.3079-3.72593 2.17342-3.83397 1.38611.38236 2.52759 3.11517 2.32147 4.01492-.68136.46792-4.17112.82329-4.49489-.18095zm-1.57546-.59506c-.0208-1.33058 2.733-4.33725 2.69429-5.02381-1.06676-.40518-4.9844-1.52125-5.04144-2.25773 1.48805-.71206 4.27797 1.06992 5.41597.9557.39302-1.7191-.11044-4.65826.80142-5.57657.69624 1.30025.635 2.40107.59979 4.60932.007.45218.0603.87021.11901.9291 1.00226-.0391 4.33633-1.6124 5.3069-1.07156-.84473 1.38428-3.65369 1.91314-4.92826 2.53163.53123 1.35487 2.64221 3.62883 2.64205 4.90995-1.0858.12407-3.12353-3.93201-3.74425-3.97983-1.11312.73714-3.04948 4.12379-3.86548 3.9738zm4.38689-4.93588c.36686-.44201.14888-.88917-.43335-.88917-.53767 0-.75527.35315-.54888.891.12592.32817.70927.32707.98223-.002zm-5.76494 3.55662c-.70855-.88484-1.48024-3.82373-1.11021-4.22841.85577.002 3.93876.0381 4.33225.92315-.0632 1.04426-2.88353 3.55118-3.22204 3.30526zm7.40143-3.60839c1.65506-.48612 2.62948-.57329 4.23427-.77846.23997 1.31544-.43649 3.89067-1.44268 4.60912-.99605-.50085-3.57443-3.1571-2.79159-3.83066zm-2.33406 1.36454c0-.0972.0795-.17625.17616-.17625.0972 0 .17615.0796.17615.17625 0 .0972-.0795.17611-.17615.17611-.0972 0-.17616-.0795-.17616-.17611zm-1.5854-1.05695c0-.0972.0795-.17613.17616-.17613.0972 0 .17617.0795.17617.17613 0 .0972-.0795.17612-.17617.17612-.0972 0-.17616-.0795-.17616-.17612zm3.17081 0c0-.0972.0795-.17613.17614-.17613.0972 0 .17614.0795.17614.17613 0 .0972-.0795.17612-.17614.17612-.0972 0-.17614-.0795-.17614-.17612zm-2.64235-2.02583c0-.14533.0795-.26417.17616-.26417.0972 0 .17617.11884.17617.26417 0 .14535-.0795.26431-.17617.26431-.0972 0-.17616-.11896-.17616-.26431zm1.93773 0c0-.14533.0795-.26417.17615-.26417.0972 0 .17615.11884.17615.26417 0 .14535-.0795.26431-.17615.26431-.0972 0-.17615-.11896-.17615-.26431zm-5.88459-2.08417c-.38735-1.12517 2.26149-2.61408 2.99686-2.68595 1.03904.20584 1.49975 3.77053.87747 4.46758-.94253.2015-3.31193-1.13994-3.87433-1.78163zm6.23578 1.73062c-.31558-.38029.27242-4.29455.66796-4.44628 1.26606.29318 3.10842 1.28676 3.56089 2.58129-.64357.72163-3.75149 2.36828-4.22885 1.86499z" stroke-width=".17615515"/><path d="m54.442274 182.32666c-3.080561-.76945-5.791686-3.87434-6.298084-7.21282-.702065-4.62842 2.576675-9.40893 7.277947-10.20442 5.707364-.96579 10.549313 4.29739 9.565831 10.20442-1.15088 5.56333-5.590091 8.27126-10.545694 7.21282zm9.132537-9.76529c-1.551077-8.75578-12.272863-7.62039-13.643717-1.04834-1.052758 4.87012 1.639876 8.47165 5.537568 9.49882 4.767382 1.23702 8.773917-3.756 8.106149-8.45048zm-9.157678 7.27691c-.385186-.0167 1.050229-3.20017 2.177269-4.06984.96182-.11315 2.701433 3.36256 2.707572 3.80289-.840006 1.57546-4.114886.91104-4.884841.26695zm-1.59521-.74954c-.148902-.7282 1.722074-3.60858 2.148322-4.12699.800778-.93553.765893-1.1727-.208643-1.41799-.629333-.13542-4.542401-1.677-4.303568-2.06162 1.482434-.29927 3.036196.30821 4.486173.71137 1.092415.45637 1.15079.41272 1.15079-.8607.02542-.79032.197284-4.64715.697112-4.67442.473373.74584.643469 3.51979.61799 5.32495-.183705.47873.24251.52597 1.375436.15248.906635-.26873 4.298866-1.24195 4.355671-.7584-1.446662 1.43098-3.926767 1.4728-5.174891 2.50588-.08677.0833.114374.48137.459225.90934.621226.8741 2.369753 3.49643 2.323368 4.27923-1.058787-.17343-2.792081-2.59985-3.365799-3.55823-.242444-.41365-.510116-.75215-.594816-.75215-.08467 0-.420828.41612-.746941.92485-.596328.73063-2.422587 3.36889-3.219439 3.4024zm4.338779-6.08062c-.390741-.37693-1.023936.0721-1.065695.51481-.02936.31212.304096.68492.616542.71006.590033.0477.870182-.81876.449153-1.22487zm-6.975487-.059c1.031037-.28945 4.091133.38267 4.543245 1.33067.229408.48105-2.163041 3.28114-2.898682 3.73576-.811922-.34108-1.736245-4.28516-1.644563-5.06643zm8.463695.99515c1.613094-.76153 3.404789-1.29608 4.200672-1.34211 1.297092.81678-.498822 4.96765-.95243 5.05385-.899703-.60216-3.63657-2.89036-3.248242-3.71174zm-2.113516 1.3456c.0599-.0972.183463-.17611.274632-.17611.09114 0 .165753.0795.165753.17611 0 .0972-.123582.17612-.274624.17612-.151051 0-.22564-.0795-.165761-.17612zm-1.673475-1.23305c0-.0972.07456-.17611.16576-.17611.09116 0 .214752.0795.274626.17611.05992.0972-.01478.1761-.165753.1761-.151055 0-.274633-.0795-.274633-.1761zm3.363633.10006c-.183508-.11361-.170963-.35972.201179-.33463.205767.18454.0011.48495-.201179.33463zm-2.65901-2.12594c0-.14532.07921-.26417.176154-.26417.09689 0 .176155.11885.176155.26417 0 .14534-.07922.26432-.176155.26432-.09689 0-.176154-.11898-.176154-.26432zm2.201936-.25316c.30887.0597.246114.51291 0 .51748-.354694-.0525-.224302-.43636 0-.51748zm-6.429661-2.07875c0-.82849 3.222923-3.05911 3.712517-2.56948.233426 1.06801 1.209705 3.77575.594693 4.4705-.901216.9624-4.258946-1.60188-4.30721-1.90102zm6.40835 1.05332c.35386-1.79181.337749-4.16251 1.921999-3.3661 1.235022.70669 1.928623 1.27248 2.597703 2.41997-.783038.38767-4.939424 3.7822-4.519702.94613z" stroke-width=".17615515"/></g></svg>