<svg height="188.70473" viewBox="0 0 618.14505 215.66254" width="593.21985" xmlns="http://www.w3.org/2000/svg">
<path class="mbz-body" d="m481.787 182.18458c1.31764-19.20608.51653-33.33995 9.14237-49.02998 9.06231-16.65599 25.84189-24.02943 42.75083-24.42039 18.18268.15918 34.17935 10.99127 41.85515 24.54741 8.65004 16.0806 8.73537 25.72309 5.56472 49.59759 4.76873-.33446 9.18449-1.82594 13.38027-2.15786 10.05469-.76824 26.2136-3.08438 30.07299-4.31033 1.61164-.5134 4.95372-2.74715 7.42681-4.96692l4.49643-4.03489c3.91795-22.82611-7.40236-43.14683-9.84127-60.20377 0-3.75182-3.06425-7.368742-8.09319-9.553202-7.81052-3.39273-7.81463-3.39653-8.45637-7.85411-.66108-4.59204-1.3207-6.08888-2.68333-6.08888-.81922 0-.48584 4.11781.67746 8.37095.39221 1.43573-.026 1.42418-5.77537-.15864-45.01143-10.32518-94.30472-17.66485-140.96983-20.04097-4.63453 0-6.79131-.40782-8.01599-1.51386-1.42765-1.2896-2.00171-1.33896-3.88221-.33551-1.89514 1.01252-2.60054.93709-4.9941-.53363-48.28531-29.66632-77.01563-44.45959-96.21675-49.542458-16.7555-4.43521-37.26624-6.574571-74.72863-7.79492-32.45015-1.51323-65.46864-1.0341-96.22263 4.85799-6.55521.46504-7.03663.36569-9.29972-1.89444-2.55153-2.547471-3.19695-2.76064-4.96407-1.639991-.80995.51497-.89339 1.529771-.29702 3.608711.81615 2.84112.76241 2.91124-2.97343 3.86927-9.39429 2.409258-14.26686 3.869178-20.20858 6.054648-30.4177 9.36069-51.054794 28.37148-78.076324 33.0389-14.67967 1.88804-28.05089 5.16754-43.47548 7.13207l-12.1930004 1.52222-4.4124801 7.72626c-2.42689 4.2493-4.42434 8.57023-4.43875 9.60245-.57339 7.01717-3.2000197 12.3363-5.4942197 19.550042 0 .83768-1.21449 3.04913-2.6988398 4.91425-5.1716 6.4969-6.36679 11.59578-6.51499 27.79011-.13213 14.37069-.10045 14.62401 2.29929 18.24318 2.49722 3.7669 5.8734198 5.75717 8.2336398 4.85312.73416-.28193 4.3221697.16749 7.97349975.99607 14.57764045 3.30988 63.96556045 13.2134 65.89523045 13.2134 1.95365 0 2.08925-.45098 2.67366-8.87063.9109-30.21109 16.74878-54.53908 40.923904-57.27101 17.14971-4.77051 33.04235.28503 43.4235 10.6295 11.12436 11.13779 14.42842 24.87563 16.06697 47.09359.21326 5.12802.79206 10.38728 1.28751 11.68838.87113 2.2875 1.07842 2.34512 6.28217 1.74183z" stroke-width=".91057223"/>
<g class="r-wheel" transform="translate(126.91202 430.71731)">
<path class="r-tire" d="m38.650736-274.20883a45.508335 45.508335 0 0 1 -45.2762102 45.50774 45.508335 45.508335 0 0 1 -45.7380918-45.0435 45.508335 45.508335 0 0 1  44.8096176-45.96725 45.508335 45.508335 0 0 1  46.1952134 44.57457"/>
<path class="r-rim" d="m-10.809395-311.1691c-18.252086 1.95991-32.323101 16.97935-33.08997 35.32034v1.72133 1.92598c1.131946 19.68686 17.47392 35.04432 37.1930785 34.9524 20.3883165-.10507 36.8672745-16.65052 36.8902535-37.03909.0011-.26597-.003-.53193-.0057-.79788-.396518-18.6489-14.584348-34.10054-33.131811-36.08308h-3.9041545zm3.2897214 4.12846c.9274439-.006 1.9481765.12083 2.1145997.33432.14179.18193.4001352 3.79177.5741252 8.02175.2963997 7.206 1.0946244 16.93164 1.4655435 17.85524.0908.22598.509239.61413.929659.86247.726289.42904.8797959.42484 3.08301586-.0889 3.91889994-.91376 11.07163034-2.86282 17.01188134-4.63536 3.114468-.92935 5.754572-1.63315 5.866825-1.56375.112249.0694.405599.73253.65164 1.47331.484839 1.45968.255437 2.43049-.638204 2.70163-.236641.0718-2.733902.97367-5.549532 2.00401-8.1076011 2.96688-16.7755934 6.68774-17.43459437 7.4843-.87469101 1.05727-.69381191 1.83181 1.12913007 4.83176 2.529268 4.16231 5.6399549 8.86426 9.3529173 14.13763.338008.54321 2.939528 4.03913 3.036487 4.75987-.608624.64364-1.595094 1.73475-2.621009 2.1503-.555842 0-1.252909-.77658-5.4637485-6.08541-6.05933095-7.63934-11.2840967-13.62619-12.1238077-13.8927-1.0626979-.33729-1.8938142.23397-4.1837238 2.87735-3.14845 3.63442-5.917253 7.09534-10.082072 12.60285-1.92577 2.54661-3.586867 4.66236-3.691248 4.70152-.10438.0391-.897343-.42117-1.762166-1.02319-.864818-.60205-1.618405-1.13668-1.674832-1.18805-.0564-.0514 1.799143-2.92482 4.123261-6.38514 2.32411-3.46033 5.448356-8.34851 6.943246-10.8629 2.407079-4.0487 2.699374-4.6727 2.552816-5.45393-.091-.4852-.371399-1.05622-.623218-1.26918-.886273-.74946-9.823929-4.30199-18.184936-7.22797-6.011572-2.10378-5.640293-1.9417-5.830652-2.54145-.166341-.52412.543451-3.03509.924491-3.2706.117179-.0724 2.757305.58635 5.866826 1.4645 6.370756 1.79916 13.778098 3.67315 17.223237 4.35737 2.165379.43002 2.349303.43106 2.987415.0129.37402-.24506.777566-.70699.896586-1.0268.484429-1.30172 1.329791-15.36448 1.34152-22.31543.005-2.9233.072479-3.503.4242636-3.63802.2848081-.1093.8077888-.16076 1.3642578-.16433zm-3.4225304.3824c.180943.005.302736.0304.350883.0785.13879.1388.07678 1.65018-.150378 3.66024-1.022818 9.0515-1.746269 14.66168-1.964738 15.2363-.494181 1.29979-3.651926 3.73991-5.194515 4.0137-.43656.0775-4.425162-.50951-8.863541-1.30379-9.872099-1.76673-9.928545-1.78054-9.983886-2.5151-.113699-1.50953 3.162575-6.42543 6.520013-9.78286 3.729408-3.72941 7.506733-6.10513 12.519134-7.87342 2.210853-.77996 5.301888-1.46592 6.567041-1.51207.07299-.003.139673-.003.199987-.002zm7.6811851.0248c1.274472.002 4.368822.69697 5.99705 1.23575 6.5917489 2.18117 12.8300059 6.41174 16.6294759 11.57897 1.868519 2.54119 3.753712 6.05965 3.423563 6.3898-.283171.28318.0032.221-5.236372 1.1317-2.182812.37941-5.695159 1.0573-7.8052087 1.50638-5.5560679 1.18247-5.4783031 1.17866-7.0905231.3633h-.0005168c-1.90086498-.9615-3.8694553-2.95561-4.1677043-4.22095-.0686-.29105-.5468784-3.4462-1.0624674-7.01146-.5155799-3.56526-1.0709901-7.40725-1.2345499-8.53797-.2179399-1.50675-.2190692-2.13442-.00413-2.34974.0599-.0599.2572766-.0863.5513874-.0858zm1.25212 24.75301c.390131-.0179.7955812.24839.8567952.67541.10976.76551-.5893906.96919-1.1606526.33797-.33274-.36766-.3861408-.59986-.1850016-.80099.137266-.13727.311527-.20421.488859-.21239zm-10.2691401.0165c.04193.00053.08524.003.130224.01.43629.062.596863.26146.596863.7426 0 .77198-.683019 1.01277-1.178739.41548-.450292-.54256-.177313-1.17515.451652-1.1679zm37.001875.69403c.165989-.004.249277.0539.324011.14571.829151 1.01893 1.110021 8.87804.452169 12.65039-.828439 4.75063-3.163707 10.22107-5.922636 13.87409-3.049881 4.03827-4.040452 4.83345-4.848283 3.88917-.5163-.60352-1.518252-2.32573-5.6022416-9.62784-2.9111601-5.20511-3.3475993-6.14158-3.3475993-7.18197 0-1.36856.8276505-4.25434 1.4898314-5.19401.2675491-.37968 1.9992814-1.37549 4.3072305-2.47634 2.122901-1.01259 5.467565-2.61792 7.432105-3.56722 3.976769-1.9217 5.217446-2.49854 5.715413-2.51198zm-63.424035.59116c.493871 0 15.796841 6.89041 16.889408 7.6047 1.133502.74105 2.684245 5.07887 2.370915 6.63216-.079.39184-1.20337 2.67663-2.498039 5.07773-1.294681 2.40109-3.108215 5.79437-4.030245 7.54062-2.338809 4.42956-2.12369 4.17804-3.061828 3.58738-1.308481-.82383-4.023969-3.8722-5.591908-6.27765-1.85987-2.85328-3.339264-6.17934-4.241083-9.53481-.638141-2.37437-.697913-3.03466-.715203-7.88326-.0204-5.73193.111874-6.74687.877983-6.74687zm31.7794553.65992c-1.0270699 0-2.0544065.19714-2.8034464.59116-3.4799589 1.83073-4.3041579 5.93926-1.7203079 8.5752 1.947168 1.98641 4.9988039 2.65813 7.1318638 1.56993 1.930765-.98499 3.47420645-3.28554 3.47420645-5.1785 0-1.89847-1.35884135-3.95627-3.27938635-4.96663-.7490349-.39402-1.7758626-.59116-2.8029296-.59116zm8.22017 7.69305c.40699.0228 1.0402465.51816 1.0402465.87387 0 .2323-.570989.82732-.79375.82732-.0873 0-.3018267-.14266-.4764567-.31728-.43753095-.43752-.39819971-1.18235.07183-1.36271.0464-.0178.099989-.0244.1581302-.0212zm-16.5473103.16434c.376712-.00016.675594.31892.606165.80565-.108841.76301-.892474.91702-1.251603.24596-.209033-.39058-.181787-.59613.111104-.83921.176044-.1461.363104-.21233.534334-.2124zm8.2615112 6.0725c.04193.00053.08524.003.1302247.01.43629.062.5968627.26146.5968627.7426 0 .77198-.6830084 1.01277-1.1787394.41548-.4502811-.54256-.1773129-1.17515.451652-1.1679zm.1994709 5.67614c1.2204801-.002 2.4381994.11443 3.0034344.3514 1.0251649.42984 13.529332 13.4111 13.5304401 14.04669.0002598.22279-.5567085.65062-1.2557374.96376-.6912289.30965-1.9171766.86026-2.7238647 1.2237-1.5254999.68729-3.6658277 1.31849-6.60269766 1.94717-1.61583094.34589-8.39235794.71464-9.26041684.50385-3.33772-.53072-7.041034-1.43921-9.783382-2.76469-2.330172-1.14131-3.181201-1.66159-3.181201-1.94459 0-.1126 2.788134-3.22095 6.196004-6.90707 3.927959-4.24868 6.511226-6.83244 7.0569339-7.05848.5767998-.23892 1.8000043-.35968 3.0204872-.36174z" fill="#fdfdfd" stroke-width=".26458332"/>
</g>
<g class="f-wheel" transform="translate(539.64045 432.93447)">
<path class="f-tire" d="m38.650736-274.20883a45.508335 45.508335 0 0 1 -45.2762102 45.50774 45.508335 45.508335 0 0 1 -45.7380918-45.0435 45.508335 45.508335 0 0 1  44.8096176-45.96725 45.508335 45.508335 0 0 1  46.1952134 44.57457"/>
<path class="f-rim" d="m-10.809395-311.1691c-18.252086 1.95991-32.323101 16.97935-33.08997 35.32034v1.72133 1.92598c1.131946 19.68686 17.47392 35.04432 37.1930785 34.9524 20.3883165-.10507 36.8672745-16.65052 36.8902535-37.03909.0011-.26597-.003-.53193-.0057-.79788-.396518-18.6489-14.584348-34.10054-33.131811-36.08308h-3.9041545zm3.2897214 4.12846c.9274439-.006 1.9481765.12083 2.1145997.33432.14179.18193.4001352 3.79177.5741252 8.02175.2963997 7.206 1.0946244 16.93164 1.4655435 17.85524.0908.22598.509239.61413.929659.86247.726289.42904.8797959.42484 3.08301586-.0889 3.91889994-.91376 11.07163034-2.86282 17.01188134-4.63536 3.114468-.92935 5.754572-1.63315 5.866825-1.56375.112249.0694.405599.73253.65164 1.47331.484839 1.45968.255437 2.43049-.638204 2.70163-.236641.0718-2.733902.97367-5.549532 2.00401-8.1076011 2.96688-16.7755934 6.68774-17.43459437 7.4843-.87469101 1.05727-.69381191 1.83181 1.12913007 4.83176 2.529268 4.16231 5.6399549 8.86426 9.3529173 14.13763.338008.54321 2.939528 4.03913 3.036487 4.75987-.608624.64364-1.595094 1.73475-2.621009 2.1503-.555842 0-1.252909-.77658-5.4637485-6.08541-6.05933095-7.63934-11.2840967-13.62619-12.1238077-13.8927-1.0626979-.33729-1.8938142.23397-4.1837238 2.87735-3.14845 3.63442-5.917253 7.09534-10.082072 12.60285-1.92577 2.54661-3.586867 4.66236-3.691248 4.70152-.10438.0391-.897343-.42117-1.762166-1.02319-.864818-.60205-1.618405-1.13668-1.674832-1.18805-.0564-.0514 1.799143-2.92482 4.123261-6.38514 2.32411-3.46033 5.448356-8.34851 6.943246-10.8629 2.407079-4.0487 2.699374-4.6727 2.552816-5.45393-.091-.4852-.371399-1.05622-.623218-1.26918-.886273-.74946-9.823929-4.30199-18.184936-7.22797-6.011572-2.10378-5.640293-1.9417-5.830652-2.54145-.166341-.52412.543451-3.03509.924491-3.2706.117179-.0724 2.757305.58635 5.866826 1.4645 6.370756 1.79916 13.778098 3.67315 17.223237 4.35737 2.165379.43002 2.349303.43106 2.987415.0129.37402-.24506.777566-.70699.896586-1.0268.484429-1.30172 1.329791-15.36448 1.34152-22.31543.005-2.9233.072479-3.503.4242636-3.63802.2848081-.1093.8077888-.16076 1.3642578-.16433zm-3.4225304.3824c.180943.005.302736.0304.350883.0785.13879.1388.07678 1.65018-.150378 3.66024-1.022818 9.0515-1.746269 14.66168-1.964738 15.2363-.494181 1.29979-3.651926 3.73991-5.194515 4.0137-.43656.0775-4.425162-.50951-8.863541-1.30379-9.872099-1.76673-9.928545-1.78054-9.983886-2.5151-.113699-1.50953 3.162575-6.42543 6.520013-9.78286 3.729408-3.72941 7.506733-6.10513 12.519134-7.87342 2.210853-.77996 5.301888-1.46592 6.567041-1.51207.07299-.003.139673-.003.199987-.002zm7.6811851.0248c1.274472.002 4.368822.69697 5.99705 1.23575 6.5917489 2.18117 12.8300059 6.41174 16.6294759 11.57897 1.868519 2.54119 3.753712 6.05965 3.423563 6.3898-.283171.28318.0032.221-5.236372 1.1317-2.182812.37941-5.695159 1.0573-7.8052087 1.50638-5.5560679 1.18247-5.4783031 1.17866-7.0905231.3633h-.0005168c-1.90086498-.9615-3.8694553-2.95561-4.1677043-4.22095-.0686-.29105-.5468784-3.4462-1.0624674-7.01146-.5155799-3.56526-1.0709901-7.40725-1.2345499-8.53797-.2179399-1.50675-.2190692-2.13442-.00413-2.34974.0599-.0599.2572766-.0863.5513874-.0858zm1.25212 24.75301c.390131-.0179.7955812.24839.8567952.67541.10976.76551-.5893906.96919-1.1606526.33797-.33274-.36766-.3861408-.59986-.1850016-.80099.137266-.13727.311527-.20421.488859-.21239zm-10.2691401.0165c.04193.00053.08524.003.130224.01.43629.062.596863.26146.596863.7426 0 .77198-.683019 1.01277-1.178739.41548-.450292-.54256-.177313-1.17515.451652-1.1679zm37.001875.69403c.165989-.004.249277.0539.324011.14571.829151 1.01893 1.110021 8.87804.452169 12.65039-.828439 4.75063-3.163707 10.22107-5.922636 13.87409-3.049881 4.03827-4.040452 4.83345-4.848283 3.88917-.5163-.60352-1.518252-2.32573-5.6022416-9.62784-2.9111601-5.20511-3.3475993-6.14158-3.3475993-7.18197 0-1.36856.8276505-4.25434 1.4898314-5.19401.2675491-.37968 1.9992814-1.37549 4.3072305-2.47634 2.122901-1.01259 5.467565-2.61792 7.432105-3.56722 3.976769-1.9217 5.217446-2.49854 5.715413-2.51198zm-63.424035.59116c.493871 0 15.796841 6.89041 16.889408 7.6047 1.133502.74105 2.684245 5.07887 2.370915 6.63216-.079.39184-1.20337 2.67663-2.498039 5.07773-1.294681 2.40109-3.108215 5.79437-4.030245 7.54062-2.338809 4.42956-2.12369 4.17804-3.061828 3.58738-1.308481-.82383-4.023969-3.8722-5.591908-6.27765-1.85987-2.85328-3.339264-6.17934-4.241083-9.53481-.638141-2.37437-.697913-3.03466-.715203-7.88326-.0204-5.73193.111874-6.74687.877983-6.74687zm31.7794553.65992c-1.0270699 0-2.0544065.19714-2.8034464.59116-3.4799589 1.83073-4.3041579 5.93926-1.7203079 8.5752 1.947168 1.98641 4.9988039 2.65813 7.1318638 1.56993 1.930765-.98499 3.47420645-3.28554 3.47420645-5.1785 0-1.89847-1.35884135-3.95627-3.27938635-4.96663-.7490349-.39402-1.7758626-.59116-2.8029296-.59116zm8.22017 7.69305c.40699.0228 1.0402465.51816 1.0402465.87387 0 .2323-.570989.82732-.79375.82732-.0873 0-.3018267-.14266-.4764567-.31728-.43753095-.43752-.39819971-1.18235.07183-1.36271.0464-.0178.099989-.0244.1581302-.0212zm-16.5473103.16434c.376712-.00016.675594.31892.606165.80565-.108841.76301-.892474.91702-1.251603.24596-.209033-.39058-.181787-.59613.111104-.83921.176044-.1461.363104-.21233.534334-.2124zm8.2615112 6.0725c.04193.00053.08524.003.1302247.01.43629.062.5968627.26146.5968627.7426 0 .77198-.6830084 1.01277-1.1787394.41548-.4502811-.54256-.1773129-1.17515.451652-1.1679zm.1994709 5.67614c1.2204801-.002 2.4381994.11443 3.0034344.3514 1.0251649.42984 13.529332 13.4111 13.5304401 14.04669.0002598.22279-.5567085.65062-1.2557374.96376-.6912289.30965-1.9171766.86026-2.7238647 1.2237-1.5254999.68729-3.6658277 1.31849-6.60269766 1.94717-1.61583094.34589-8.39235794.71464-9.26041684.50385-3.33772-.53072-7.041034-1.43921-9.783382-2.76469-2.330172-1.14131-3.181201-1.66159-3.181201-1.94459 0-.1126 2.788134-3.22095 6.196004-6.90707 3.927959-4.24868 6.511226-6.83244 7.0569339-7.05848.5767998-.23892 1.8000043-.35968 3.0204872-.36174z" fill="#fdfdfd" stroke-width=".26458332"/>
</g>
</svg>