<svg id="esv" width="450" height="342.8" version="1.1" viewBox="0 0 450 342.75244" xmlns="http://www.w3.org/2000/svg">
 <defs>
  <linearGradient id="SVGID_225_" x1="1150" x2="1150" y1="652.7" y2="871.1" gradientTransform="matrix(-1,0,0,1,2365,0)" gradientUnits="userSpaceOnUse">
   <stop style="stop-color:#E8C069" offset="0"/>
   <stop style="stop-color:#E9C26C" offset=".05817"/>
   <stop style="stop-color:#EBC776" offset=".1185"/>
   <stop style="stop-color:#EECF87" offset=".1797"/>
   <stop style="stop-color:#F3DA9E" offset=".2417"/>
   <stop style="stop-color:#F9EABE" offset=".3035"/>
   <stop style="stop-color:#FFFCDD" offset=".3498"/>
   <stop style="stop-color:#F8EAC3" offset=".3738"/>
   <stop style="stop-color:#E1BA72" offset=".4663"/>
   <stop style="stop-color:#D59F41" offset=".5309"/>
   <stop style="stop-color:#D09530" offset=".5616"/>
   <stop style="stop-color:#895323" offset=".798"/>
   <stop style="stop-color:#E8C069" offset="1"/>
  </linearGradient>
  <linearGradient id="SVGID_224_" x1="986.2" x2="986.2" y1="652.7" y2="871.1" gradientUnits="userSpaceOnUse">
   <stop style="stop-color:#E8C069" offset="0"/>
   <stop style="stop-color:#E9C26C" offset=".05817"/>
   <stop style="stop-color:#EBC776" offset=".1185"/>
   <stop style="stop-color:#EECF87" offset=".1797"/>
   <stop style="stop-color:#F3DA9E" offset=".2417"/>
   <stop style="stop-color:#F9EABE" offset=".3035"/>
   <stop style="stop-color:#FFFCDD" offset=".3498"/>
   <stop style="stop-color:#F8EAC3" offset=".3738"/>
   <stop style="stop-color:#E1BA72" offset=".4663"/>
   <stop style="stop-color:#D59F41" offset=".5309"/>
   <stop style="stop-color:#D09530" offset=".5616"/>
   <stop style="stop-color:#895323" offset=".798"/>
   <stop style="stop-color:#E8C069" offset="1"/>
  </linearGradient>
  <linearGradient id="SVGID_223_" x1="1100" x2="1100" y1="652.7" y2="871.1" gradientUnits="userSpaceOnUse">
   <stop style="stop-color:#F04E29" offset="0"/>
   <stop style="stop-color:#D13020" offset=".2881"/>
   <stop style="stop-color:#BF191B" offset=".5123"/>
   <stop style="stop-color:#9A1617" offset=".6957"/>
   <stop style="stop-color:#7E1214" offset=".891"/>
   <stop style="stop-color:#741112" offset="1"/>
  </linearGradient>
  <linearGradient id="SVGID_222_" x1="-3211" x2="-3154" y1="659" y2="659" gradientTransform="matrix(-1,0,0,1,-2755,-437.5)" gradientUnits="userSpaceOnUse">
   <stop style="stop-color:#E8C069" offset="0"/>
   <stop style="stop-color:#E9C26C" offset=".05817"/>
   <stop style="stop-color:#EBC776" offset=".1185"/>
   <stop style="stop-color:#EECF87" offset=".1797"/>
   <stop style="stop-color:#F3DA9E" offset=".2417"/>
   <stop style="stop-color:#F9EABE" offset=".3035"/>
   <stop style="stop-color:#FFFCDD" offset=".3498"/>
   <stop style="stop-color:#F8EAC3" offset=".3738"/>
   <stop style="stop-color:#E1BA72" offset=".4663"/>
   <stop style="stop-color:#D59F41" offset=".5309"/>
   <stop style="stop-color:#D09530" offset=".5616"/>
   <stop style="stop-color:#895323" offset=".798"/>
   <stop style="stop-color:#E8C069" offset="1"/>
  </linearGradient>
  <linearGradient id="SVGID_221_" x1="-3199" x2="-3163" y1="655.8" y2="655.8" gradientTransform="matrix(-1,0,0,1,-2755,-437.5)" gradientUnits="userSpaceOnUse">
   <stop style="stop-color:#E8C069" offset="0"/>
   <stop style="stop-color:#E9C26C" offset=".05817"/>
   <stop style="stop-color:#EBC776" offset=".1185"/>
   <stop style="stop-color:#EECF87" offset=".1797"/>
   <stop style="stop-color:#F3DA9E" offset=".2417"/>
   <stop style="stop-color:#F9EABE" offset=".3035"/>
   <stop style="stop-color:#FFFCDD" offset=".3498"/>
   <stop style="stop-color:#F8EAC3" offset=".3738"/>
   <stop style="stop-color:#E1BA72" offset=".4663"/>
   <stop style="stop-color:#D59F41" offset=".5309"/>
   <stop style="stop-color:#D09530" offset=".5616"/>
   <stop style="stop-color:#895323" offset=".798"/>
   <stop style="stop-color:#E8C069" offset="1"/>
  </linearGradient>
  <linearGradient id="SVGID_220_" x1="-3189" x2="-3172" y1="542.8" y2="542.8" gradientTransform="matrix(-1,0,0,1,-2755,-437.5)" gradientUnits="userSpaceOnUse">
   <stop style="stop-color:#E8C069" offset="0"/>
   <stop style="stop-color:#E9C26C" offset=".05817"/>
   <stop style="stop-color:#EBC776" offset=".1185"/>
   <stop style="stop-color:#EECF87" offset=".1797"/>
   <stop style="stop-color:#F3DA9E" offset=".2417"/>
   <stop style="stop-color:#F9EABE" offset=".3035"/>
   <stop style="stop-color:#FFFCDD" offset=".3498"/>
   <stop style="stop-color:#F8EAC3" offset=".3738"/>
   <stop style="stop-color:#E1BA72" offset=".4663"/>
   <stop style="stop-color:#D59F41" offset=".5309"/>
   <stop style="stop-color:#D09530" offset=".5616"/>
   <stop style="stop-color:#895323" offset=".798"/>
   <stop style="stop-color:#E8C069" offset="1"/>
  </linearGradient>
  <linearGradient id="SVGID_219_" x1="-3191" x2="-3170" y1="540.6" y2="540.6" gradientTransform="matrix(-1,0,0,1,-2755,-437.5)" gradientUnits="userSpaceOnUse">
   <stop style="stop-color:#E8C069" offset="0"/>
   <stop style="stop-color:#E9C26C" offset=".05817"/>
   <stop style="stop-color:#EBC776" offset=".1185"/>
   <stop style="stop-color:#EECF87" offset=".1797"/>
   <stop style="stop-color:#F3DA9E" offset=".2417"/>
   <stop style="stop-color:#F9EABE" offset=".3035"/>
   <stop style="stop-color:#FFFCDD" offset=".3498"/>
   <stop style="stop-color:#F8EAC3" offset=".3738"/>
   <stop style="stop-color:#E1BA72" offset=".4663"/>
   <stop style="stop-color:#D59F41" offset=".5309"/>
   <stop style="stop-color:#D09530" offset=".5616"/>
   <stop style="stop-color:#895323" offset=".798"/>
   <stop style="stop-color:#E8C069" offset="1"/>
  </linearGradient>
  <linearGradient id="SVGID_218_" x1="-3187" x2="-3172" y1="537.8" y2="537.8" gradientTransform="matrix(-1,0,0,1,-2005,0)" gradientUnits="userSpaceOnUse">
   <stop style="stop-color:#E8C069" offset="0"/>
   <stop style="stop-color:#E9C26C" offset=".05817"/>
   <stop style="stop-color:#EBC776" offset=".1185"/>
   <stop style="stop-color:#EECF87" offset=".1797"/>
   <stop style="stop-color:#F3DA9E" offset=".2417"/>
   <stop style="stop-color:#F9EABE" offset=".3035"/>
   <stop style="stop-color:#FFFCDD" offset=".3498"/>
   <stop style="stop-color:#F8EAC3" offset=".3738"/>
   <stop style="stop-color:#E1BA72" offset=".4663"/>
   <stop style="stop-color:#D59F41" offset=".5309"/>
   <stop style="stop-color:#D09530" offset=".5616"/>
   <stop style="stop-color:#895323" offset=".798"/>
   <stop style="stop-color:#E8C069" offset="1"/>
  </linearGradient>
  <radialGradient id="SVGID_217_" cx="-3181" cy="526.3" r="10.18" gradientTransform="matrix(-1 0 0 .9221 -2755 -396.5)" gradientUnits="userSpaceOnUse">
   <stop style="stop-color:#FFFCDD" offset="0"/>
   <stop style="stop-color:#F5E1AC" offset=".1453"/>
   <stop style="stop-color:#ECC97C" offset=".3202"/>
   <stop style="stop-color:#E8C069" offset=".4039"/>
   <stop style="stop-color:#E7BD65" offset=".4754"/>
   <stop style="stop-color:#E2B55A" offset=".5494"/>
   <stop style="stop-color:#DAA847" offset=".6246"/>
   <stop style="stop-color:#D19631" offset=".7002"/>
   <stop style="stop-color:#D09530" offset=".7044"/>
   <stop style="stop-color:#895323" offset="1"/>
  </radialGradient>
  <linearGradient id="SVGID_216_" x1="-3186" x2="-3174" y1="598" y2="598" gradientTransform="matrix(-1,0,0,1,-2755,-437.5)" gradientUnits="userSpaceOnUse">
   <stop style="stop-color:#E8C069" offset="0"/>
   <stop style="stop-color:#E9C26C" offset=".05817"/>
   <stop style="stop-color:#EBC776" offset=".1185"/>
   <stop style="stop-color:#EECF87" offset=".1797"/>
   <stop style="stop-color:#F3DA9E" offset=".2417"/>
   <stop style="stop-color:#F9EABE" offset=".3035"/>
   <stop style="stop-color:#FFFCDD" offset=".3498"/>
   <stop style="stop-color:#F8EAC3" offset=".3738"/>
   <stop style="stop-color:#E1BA72" offset=".4663"/>
   <stop style="stop-color:#D59F41" offset=".5309"/>
   <stop style="stop-color:#D09530" offset=".5616"/>
   <stop style="stop-color:#895323" offset=".798"/>
   <stop style="stop-color:#E8C069" offset="1"/>
  </linearGradient>
  <linearGradient id="SVGID_215_" x1="-3278" x2="-3213" y1="738.9" y2="738.9" gradientTransform="matrix(-1,0,0,1,-2755,-437.5)" gradientUnits="userSpaceOnUse">
   <stop style="stop-color:#E8C069" offset="0"/>
   <stop style="stop-color:#E9C26C" offset=".05817"/>
   <stop style="stop-color:#EBC776" offset=".1185"/>
   <stop style="stop-color:#EECF87" offset=".1797"/>
   <stop style="stop-color:#F3DA9E" offset=".2417"/>
   <stop style="stop-color:#F9EABE" offset=".3035"/>
   <stop style="stop-color:#FFFCDD" offset=".3498"/>
   <stop style="stop-color:#F8EAC3" offset=".3738"/>
   <stop style="stop-color:#E1BA72" offset=".4663"/>
   <stop style="stop-color:#D59F41" offset=".5309"/>
   <stop style="stop-color:#D09530" offset=".5616"/>
   <stop style="stop-color:#895323" offset=".798"/>
   <stop style="stop-color:#E8C069" offset="1"/>
  </linearGradient>
  <linearGradient id="SVGID_214_" x1="-3264" x2="-3223" y1="735.3" y2="735.3" gradientTransform="matrix(-1,0,0,1,-2755,-437.5)" gradientUnits="userSpaceOnUse">
   <stop style="stop-color:#E8C069" offset="0"/>
   <stop style="stop-color:#E9C26C" offset=".05817"/>
   <stop style="stop-color:#EBC776" offset=".1185"/>
   <stop style="stop-color:#EECF87" offset=".1797"/>
   <stop style="stop-color:#F3DA9E" offset=".2417"/>
   <stop style="stop-color:#F9EABE" offset=".3035"/>
   <stop style="stop-color:#FFFCDD" offset=".3498"/>
   <stop style="stop-color:#F8EAC3" offset=".3738"/>
   <stop style="stop-color:#E1BA72" offset=".4663"/>
   <stop style="stop-color:#D59F41" offset=".5309"/>
   <stop style="stop-color:#D09530" offset=".5616"/>
   <stop style="stop-color:#895323" offset=".798"/>
   <stop style="stop-color:#E8C069" offset="1"/>
  </linearGradient>
  <linearGradient id="SVGID_213_" x1="-3253" x2="-3233" y1="605.2" y2="605.2" gradientTransform="matrix(-1,0,0,1,-2755,-437.5)" gradientUnits="userSpaceOnUse">
   <stop style="stop-color:#E8C069" offset="0"/>
   <stop style="stop-color:#E9C26C" offset=".05817"/>
   <stop style="stop-color:#EBC776" offset=".1185"/>
   <stop style="stop-color:#EECF87" offset=".1797"/>
   <stop style="stop-color:#F3DA9E" offset=".2417"/>
   <stop style="stop-color:#F9EABE" offset=".3035"/>
   <stop style="stop-color:#FFFCDD" offset=".3498"/>
   <stop style="stop-color:#F8EAC3" offset=".3738"/>
   <stop style="stop-color:#E1BA72" offset=".4663"/>
   <stop style="stop-color:#D59F41" offset=".5309"/>
   <stop style="stop-color:#D09530" offset=".5616"/>
   <stop style="stop-color:#895323" offset=".798"/>
   <stop style="stop-color:#E8C069" offset="1"/>
  </linearGradient>
  <linearGradient id="SVGID_212_" x1="-3255" x2="-3231" y1="602.6" y2="602.6" gradientTransform="matrix(-1,0,0,1,-2755,-437.5)" gradientUnits="userSpaceOnUse">
   <stop style="stop-color:#E8C069" offset="0"/>
   <stop style="stop-color:#E9C26C" offset=".05817"/>
   <stop style="stop-color:#EBC776" offset=".1185"/>
   <stop style="stop-color:#EECF87" offset=".1797"/>
   <stop style="stop-color:#F3DA9E" offset=".2417"/>
   <stop style="stop-color:#F9EABE" offset=".3035"/>
   <stop style="stop-color:#FFFCDD" offset=".3498"/>
   <stop style="stop-color:#F8EAC3" offset=".3738"/>
   <stop style="stop-color:#E1BA72" offset=".4663"/>
   <stop style="stop-color:#D59F41" offset=".5309"/>
   <stop style="stop-color:#D09530" offset=".5616"/>
   <stop style="stop-color:#895323" offset=".798"/>
   <stop style="stop-color:#E8C069" offset="1"/>
  </linearGradient>
  <linearGradient id="SVGID_211_" x1="-3251" x2="-3234" y1="599.4" y2="599.4" gradientTransform="matrix(-1,0,0,1,-2005,0)" gradientUnits="userSpaceOnUse">
   <stop style="stop-color:#E8C069" offset="0"/>
   <stop style="stop-color:#E9C26C" offset=".05817"/>
   <stop style="stop-color:#EBC776" offset=".1185"/>
   <stop style="stop-color:#EECF87" offset=".1797"/>
   <stop style="stop-color:#F3DA9E" offset=".2417"/>
   <stop style="stop-color:#F9EABE" offset=".3035"/>
   <stop style="stop-color:#FFFCDD" offset=".3498"/>
   <stop style="stop-color:#F8EAC3" offset=".3738"/>
   <stop style="stop-color:#E1BA72" offset=".4663"/>
   <stop style="stop-color:#D59F41" offset=".5309"/>
   <stop style="stop-color:#D09530" offset=".5616"/>
   <stop style="stop-color:#895323" offset=".798"/>
   <stop style="stop-color:#E8C069" offset="1"/>
  </linearGradient>
  <radialGradient id="SVGID_210_" cx="-3243" cy="586.2" r="11.71" gradientTransform="matrix(-1 0 0 .9221 -2755 -391.8)" gradientUnits="userSpaceOnUse">
   <stop style="stop-color:#FFFCDD" offset="0"/>
   <stop style="stop-color:#F5E1AC" offset=".1453"/>
   <stop style="stop-color:#ECC97C" offset=".3202"/>
   <stop style="stop-color:#E8C069" offset=".4039"/>
   <stop style="stop-color:#E7BD65" offset=".4754"/>
   <stop style="stop-color:#E2B55A" offset=".5494"/>
   <stop style="stop-color:#DAA847" offset=".6246"/>
   <stop style="stop-color:#D19631" offset=".7002"/>
   <stop style="stop-color:#D09530" offset=".7044"/>
   <stop style="stop-color:#895323" offset="1"/>
  </radialGradient>
  <linearGradient id="SVGID_209_" x1="-3249" x2="-3236" y1="668.7" y2="668.7" gradientTransform="matrix(-1,0,0,1,-2755,-437.5)" gradientUnits="userSpaceOnUse">
   <stop style="stop-color:#E8C069" offset="0"/>
   <stop style="stop-color:#E9C26C" offset=".05817"/>
   <stop style="stop-color:#EBC776" offset=".1185"/>
   <stop style="stop-color:#EECF87" offset=".1797"/>
   <stop style="stop-color:#F3DA9E" offset=".2417"/>
   <stop style="stop-color:#F9EABE" offset=".3035"/>
   <stop style="stop-color:#FFFCDD" offset=".3498"/>
   <stop style="stop-color:#F8EAC3" offset=".3738"/>
   <stop style="stop-color:#E1BA72" offset=".4663"/>
   <stop style="stop-color:#D59F41" offset=".5309"/>
   <stop style="stop-color:#D09530" offset=".5616"/>
   <stop style="stop-color:#895323" offset=".798"/>
   <stop style="stop-color:#E8C069" offset="1"/>
  </linearGradient>
  <linearGradient id="SVGID_208_" x1="-3377" x2="-3296" y1="866" y2="866" gradientTransform="matrix(-1,0,0,1,-2755,-437.5)" gradientUnits="userSpaceOnUse">
   <stop style="stop-color:#E8C069" offset="0"/>
   <stop style="stop-color:#E9C26C" offset=".05817"/>
   <stop style="stop-color:#EBC776" offset=".1185"/>
   <stop style="stop-color:#EECF87" offset=".1797"/>
   <stop style="stop-color:#F3DA9E" offset=".2417"/>
   <stop style="stop-color:#F9EABE" offset=".3035"/>
   <stop style="stop-color:#FFFCDD" offset=".3498"/>
   <stop style="stop-color:#F8EAC3" offset=".3738"/>
   <stop style="stop-color:#E1BA72" offset=".4663"/>
   <stop style="stop-color:#D59F41" offset=".5309"/>
   <stop style="stop-color:#D09530" offset=".5616"/>
   <stop style="stop-color:#895323" offset=".798"/>
   <stop style="stop-color:#E8C069" offset="1"/>
  </linearGradient>
  <linearGradient id="SVGID_207_" x1="-3360" x2="-3309" y1="861.5" y2="861.5" gradientTransform="matrix(-1,0,0,1,-2755,-437.5)" gradientUnits="userSpaceOnUse">
   <stop style="stop-color:#E8C069" offset="0"/>
   <stop style="stop-color:#E9C26C" offset=".05817"/>
   <stop style="stop-color:#EBC776" offset=".1185"/>
   <stop style="stop-color:#EECF87" offset=".1797"/>
   <stop style="stop-color:#F3DA9E" offset=".2417"/>
   <stop style="stop-color:#F9EABE" offset=".3035"/>
   <stop style="stop-color:#FFFCDD" offset=".3498"/>
   <stop style="stop-color:#F8EAC3" offset=".3738"/>
   <stop style="stop-color:#E1BA72" offset=".4663"/>
   <stop style="stop-color:#D59F41" offset=".5309"/>
   <stop style="stop-color:#D09530" offset=".5616"/>
   <stop style="stop-color:#895323" offset=".798"/>
   <stop style="stop-color:#E8C069" offset="1"/>
  </linearGradient>
  <linearGradient id="SVGID_206_" x1="-3345" x2="-3321" y1="700.6" y2="700.6" gradientTransform="matrix(-1,0,0,1,-2755,-437.5)" gradientUnits="userSpaceOnUse">
   <stop style="stop-color:#E8C069" offset="0"/>
   <stop style="stop-color:#E9C26C" offset=".05817"/>
   <stop style="stop-color:#EBC776" offset=".1185"/>
   <stop style="stop-color:#EECF87" offset=".1797"/>
   <stop style="stop-color:#F3DA9E" offset=".2417"/>
   <stop style="stop-color:#F9EABE" offset=".3035"/>
   <stop style="stop-color:#FFFCDD" offset=".3498"/>
   <stop style="stop-color:#F8EAC3" offset=".3738"/>
   <stop style="stop-color:#E1BA72" offset=".4663"/>
   <stop style="stop-color:#D59F41" offset=".5309"/>
   <stop style="stop-color:#D09530" offset=".5616"/>
   <stop style="stop-color:#895323" offset=".798"/>
   <stop style="stop-color:#E8C069" offset="1"/>
  </linearGradient>
  <linearGradient id="SVGID_205_" x1="-3349" x2="-3318" y1="697.4" y2="697.4" gradientTransform="matrix(-1,0,0,1,-2755,-437.5)" gradientUnits="userSpaceOnUse">
   <stop style="stop-color:#E8C069" offset="0"/>
   <stop style="stop-color:#E9C26C" offset=".05817"/>
   <stop style="stop-color:#EBC776" offset=".1185"/>
   <stop style="stop-color:#EECF87" offset=".1797"/>
   <stop style="stop-color:#F3DA9E" offset=".2417"/>
   <stop style="stop-color:#F9EABE" offset=".3035"/>
   <stop style="stop-color:#FFFCDD" offset=".3498"/>
   <stop style="stop-color:#F8EAC3" offset=".3738"/>
   <stop style="stop-color:#E1BA72" offset=".4663"/>
   <stop style="stop-color:#D59F41" offset=".5309"/>
   <stop style="stop-color:#D09530" offset=".5616"/>
   <stop style="stop-color:#895323" offset=".798"/>
   <stop style="stop-color:#E8C069" offset="1"/>
  </linearGradient>
  <linearGradient id="SVGID_204_" x1="-3343" x2="-3322" y1="693.4" y2="693.4" gradientTransform="matrix(-1,0,0,1,-2005,0)" gradientUnits="userSpaceOnUse">
   <stop style="stop-color:#E8C069" offset="0"/>
   <stop style="stop-color:#E9C26C" offset=".05817"/>
   <stop style="stop-color:#EBC776" offset=".1185"/>
   <stop style="stop-color:#EECF87" offset=".1797"/>
   <stop style="stop-color:#F3DA9E" offset=".2417"/>
   <stop style="stop-color:#F9EABE" offset=".3035"/>
   <stop style="stop-color:#FFFCDD" offset=".3498"/>
   <stop style="stop-color:#F8EAC3" offset=".3738"/>
   <stop style="stop-color:#E1BA72" offset=".4663"/>
   <stop style="stop-color:#D59F41" offset=".5309"/>
   <stop style="stop-color:#D09530" offset=".5616"/>
   <stop style="stop-color:#895323" offset=".798"/>
   <stop style="stop-color:#E8C069" offset="1"/>
  </linearGradient>
  <radialGradient id="SVGID_203_" cx="-3333" cy="677.1" r="14.49" gradientTransform="matrix(-1 0 0 .9221 -2755 -384.8)" gradientUnits="userSpaceOnUse">
   <stop style="stop-color:#FFFCDD" offset="0"/>
   <stop style="stop-color:#F5E1AC" offset=".1453"/>
   <stop style="stop-color:#ECC97C" offset=".3202"/>
   <stop style="stop-color:#E8C069" offset=".4039"/>
   <stop style="stop-color:#E7BD65" offset=".4754"/>
   <stop style="stop-color:#E2B55A" offset=".5494"/>
   <stop style="stop-color:#DAA847" offset=".6246"/>
   <stop style="stop-color:#D19631" offset=".7002"/>
   <stop style="stop-color:#D09530" offset=".7044"/>
   <stop style="stop-color:#895323" offset="1"/>
  </radialGradient>
  <linearGradient id="SVGID_202_" x1="-3341" x2="-3325" y1="779.1" y2="779.1" gradientTransform="matrix(-1,0,0,1,-2755,-437.5)" gradientUnits="userSpaceOnUse">
   <stop style="stop-color:#E8C069" offset="0"/>
   <stop style="stop-color:#E9C26C" offset=".05817"/>
   <stop style="stop-color:#EBC776" offset=".1185"/>
   <stop style="stop-color:#EECF87" offset=".1797"/>
   <stop style="stop-color:#F3DA9E" offset=".2417"/>
   <stop style="stop-color:#F9EABE" offset=".3035"/>
   <stop style="stop-color:#FFFCDD" offset=".3498"/>
   <stop style="stop-color:#F8EAC3" offset=".3738"/>
   <stop style="stop-color:#E1BA72" offset=".4663"/>
   <stop style="stop-color:#D59F41" offset=".5309"/>
   <stop style="stop-color:#D09530" offset=".5616"/>
   <stop style="stop-color:#895323" offset=".798"/>
   <stop style="stop-color:#E8C069" offset="1"/>
  </linearGradient>
  <linearGradient id="SVGID_201_" x1="989.5" x2="1046" y1="659" y2="659" gradientTransform="translate(-749.9,-437.5)" gradientUnits="userSpaceOnUse">
   <stop style="stop-color:#E8C069" offset="0"/>
   <stop style="stop-color:#E9C26C" offset=".05817"/>
   <stop style="stop-color:#EBC776" offset=".1185"/>
   <stop style="stop-color:#EECF87" offset=".1797"/>
   <stop style="stop-color:#F3DA9E" offset=".2417"/>
   <stop style="stop-color:#F9EABE" offset=".3035"/>
   <stop style="stop-color:#FFFCDD" offset=".3498"/>
   <stop style="stop-color:#F8EAC3" offset=".3738"/>
   <stop style="stop-color:#E1BA72" offset=".4663"/>
   <stop style="stop-color:#D59F41" offset=".5309"/>
   <stop style="stop-color:#D09530" offset=".5616"/>
   <stop style="stop-color:#895323" offset=".798"/>
   <stop style="stop-color:#E8C069" offset="1"/>
  </linearGradient>
  <linearGradient id="SVGID_200_" x1="1001" x2="1037" y1="655.8" y2="655.8" gradientTransform="translate(-749.9,-437.5)" gradientUnits="userSpaceOnUse">
   <stop style="stop-color:#E8C069" offset="0"/>
   <stop style="stop-color:#E9C26C" offset=".05817"/>
   <stop style="stop-color:#EBC776" offset=".1185"/>
   <stop style="stop-color:#EECF87" offset=".1797"/>
   <stop style="stop-color:#F3DA9E" offset=".2417"/>
   <stop style="stop-color:#F9EABE" offset=".3035"/>
   <stop style="stop-color:#FFFCDD" offset=".3498"/>
   <stop style="stop-color:#F8EAC3" offset=".3738"/>
   <stop style="stop-color:#E1BA72" offset=".4663"/>
   <stop style="stop-color:#D59F41" offset=".5309"/>
   <stop style="stop-color:#D09530" offset=".5616"/>
   <stop style="stop-color:#895323" offset=".798"/>
   <stop style="stop-color:#E8C069" offset="1"/>
  </linearGradient>
  <linearGradient id="SVGID_199_" x1="1012" x2="1029" y1="542.8" y2="542.8" gradientTransform="translate(-749.9,-437.5)" gradientUnits="userSpaceOnUse">
   <stop style="stop-color:#E8C069" offset="0"/>
   <stop style="stop-color:#E9C26C" offset=".05817"/>
   <stop style="stop-color:#EBC776" offset=".1185"/>
   <stop style="stop-color:#EECF87" offset=".1797"/>
   <stop style="stop-color:#F3DA9E" offset=".2417"/>
   <stop style="stop-color:#F9EABE" offset=".3035"/>
   <stop style="stop-color:#FFFCDD" offset=".3498"/>
   <stop style="stop-color:#F8EAC3" offset=".3738"/>
   <stop style="stop-color:#E1BA72" offset=".4663"/>
   <stop style="stop-color:#D59F41" offset=".5309"/>
   <stop style="stop-color:#D09530" offset=".5616"/>
   <stop style="stop-color:#895323" offset=".798"/>
   <stop style="stop-color:#E8C069" offset="1"/>
  </linearGradient>
  <linearGradient id="SVGID_198_" x1="1009" x2="1031" y1="540.6" y2="540.6" gradientTransform="translate(-749.9,-437.5)" gradientUnits="userSpaceOnUse">
   <stop style="stop-color:#E8C069" offset="0"/>
   <stop style="stop-color:#E9C26C" offset=".05817"/>
   <stop style="stop-color:#EBC776" offset=".1185"/>
   <stop style="stop-color:#EECF87" offset=".1797"/>
   <stop style="stop-color:#F3DA9E" offset=".2417"/>
   <stop style="stop-color:#F9EABE" offset=".3035"/>
   <stop style="stop-color:#FFFCDD" offset=".3498"/>
   <stop style="stop-color:#F8EAC3" offset=".3738"/>
   <stop style="stop-color:#E1BA72" offset=".4663"/>
   <stop style="stop-color:#D59F41" offset=".5309"/>
   <stop style="stop-color:#D09530" offset=".5616"/>
   <stop style="stop-color:#895323" offset=".798"/>
   <stop style="stop-color:#E8C069" offset="1"/>
  </linearGradient>
  <linearGradient id="SVGID_197_" x1="1013" x2="1028" y1="537.8" y2="537.8" gradientUnits="userSpaceOnUse">
   <stop style="stop-color:#E8C069" offset="0"/>
   <stop style="stop-color:#E9C26C" offset=".05817"/>
   <stop style="stop-color:#EBC776" offset=".1185"/>
   <stop style="stop-color:#EECF87" offset=".1797"/>
   <stop style="stop-color:#F3DA9E" offset=".2417"/>
   <stop style="stop-color:#F9EABE" offset=".3035"/>
   <stop style="stop-color:#FFFCDD" offset=".3498"/>
   <stop style="stop-color:#F8EAC3" offset=".3738"/>
   <stop style="stop-color:#E1BA72" offset=".4663"/>
   <stop style="stop-color:#D59F41" offset=".5309"/>
   <stop style="stop-color:#D09530" offset=".5616"/>
   <stop style="stop-color:#895323" offset=".798"/>
   <stop style="stop-color:#E8C069" offset="1"/>
  </linearGradient>
  <radialGradient id="SVGID_196_" cx="1020" cy="526.3" r="10.18" gradientTransform="matrix(1 0 0 .9221 -749.9 -396.5)" gradientUnits="userSpaceOnUse">
   <stop style="stop-color:#FFFCDD" offset="0"/>
   <stop style="stop-color:#F5E1AC" offset=".1453"/>
   <stop style="stop-color:#ECC97C" offset=".3202"/>
   <stop style="stop-color:#E8C069" offset=".4039"/>
   <stop style="stop-color:#E7BD65" offset=".4754"/>
   <stop style="stop-color:#E2B55A" offset=".5494"/>
   <stop style="stop-color:#DAA847" offset=".6246"/>
   <stop style="stop-color:#D19631" offset=".7002"/>
   <stop style="stop-color:#D09530" offset=".7044"/>
   <stop style="stop-color:#895323" offset="1"/>
  </radialGradient>
  <linearGradient id="SVGID_195_" x1="1014" x2="1026" y1="598" y2="598" gradientTransform="translate(-749.9,-437.5)" gradientUnits="userSpaceOnUse">
   <stop style="stop-color:#E8C069" offset="0"/>
   <stop style="stop-color:#E9C26C" offset=".05817"/>
   <stop style="stop-color:#EBC776" offset=".1185"/>
   <stop style="stop-color:#EECF87" offset=".1797"/>
   <stop style="stop-color:#F3DA9E" offset=".2417"/>
   <stop style="stop-color:#F9EABE" offset=".3035"/>
   <stop style="stop-color:#FFFCDD" offset=".3498"/>
   <stop style="stop-color:#F8EAC3" offset=".3738"/>
   <stop style="stop-color:#E1BA72" offset=".4663"/>
   <stop style="stop-color:#D59F41" offset=".5309"/>
   <stop style="stop-color:#D09530" offset=".5616"/>
   <stop style="stop-color:#895323" offset=".798"/>
   <stop style="stop-color:#E8C069" offset="1"/>
  </linearGradient>
  <linearGradient id="SVGID_194_" x1="922.5" x2="988" y1="738.9" y2="738.9" gradientTransform="translate(-749.9,-437.5)" gradientUnits="userSpaceOnUse">
   <stop style="stop-color:#E8C069" offset="0"/>
   <stop style="stop-color:#E9C26C" offset=".05817"/>
   <stop style="stop-color:#EBC776" offset=".1185"/>
   <stop style="stop-color:#EECF87" offset=".1797"/>
   <stop style="stop-color:#F3DA9E" offset=".2417"/>
   <stop style="stop-color:#F9EABE" offset=".3035"/>
   <stop style="stop-color:#FFFCDD" offset=".3498"/>
   <stop style="stop-color:#F8EAC3" offset=".3738"/>
   <stop style="stop-color:#E1BA72" offset=".4663"/>
   <stop style="stop-color:#D59F41" offset=".5309"/>
   <stop style="stop-color:#D09530" offset=".5616"/>
   <stop style="stop-color:#895323" offset=".798"/>
   <stop style="stop-color:#E8C069" offset="1"/>
  </linearGradient>
  <linearGradient id="SVGID_193_" x1="936.1" x2="977.5" y1="735.3" y2="735.3" gradientTransform="translate(-749.9,-437.5)" gradientUnits="userSpaceOnUse">
   <stop style="stop-color:#E8C069" offset="0"/>
   <stop style="stop-color:#E9C26C" offset=".05817"/>
   <stop style="stop-color:#EBC776" offset=".1185"/>
   <stop style="stop-color:#EECF87" offset=".1797"/>
   <stop style="stop-color:#F3DA9E" offset=".2417"/>
   <stop style="stop-color:#F9EABE" offset=".3035"/>
   <stop style="stop-color:#FFFCDD" offset=".3498"/>
   <stop style="stop-color:#F8EAC3" offset=".3738"/>
   <stop style="stop-color:#E1BA72" offset=".4663"/>
   <stop style="stop-color:#D59F41" offset=".5309"/>
   <stop style="stop-color:#D09530" offset=".5616"/>
   <stop style="stop-color:#895323" offset=".798"/>
   <stop style="stop-color:#E8C069" offset="1"/>
  </linearGradient>
  <linearGradient id="SVGID_192_" x1="947.8" x2="967.9" y1="605.2" y2="605.2" gradientTransform="translate(-749.9,-437.5)" gradientUnits="userSpaceOnUse">
   <stop style="stop-color:#E8C069" offset="0"/>
   <stop style="stop-color:#E9C26C" offset=".05817"/>
   <stop style="stop-color:#EBC776" offset=".1185"/>
   <stop style="stop-color:#EECF87" offset=".1797"/>
   <stop style="stop-color:#F3DA9E" offset=".2417"/>
   <stop style="stop-color:#F9EABE" offset=".3035"/>
   <stop style="stop-color:#FFFCDD" offset=".3498"/>
   <stop style="stop-color:#F8EAC3" offset=".3738"/>
   <stop style="stop-color:#E1BA72" offset=".4663"/>
   <stop style="stop-color:#D59F41" offset=".5309"/>
   <stop style="stop-color:#D09530" offset=".5616"/>
   <stop style="stop-color:#895323" offset=".798"/>
   <stop style="stop-color:#E8C069" offset="1"/>
  </linearGradient>
  <linearGradient id="SVGID_191_" x1="945.2" x2="969.8" y1="602.6" y2="602.6" gradientTransform="translate(-749.9,-437.5)" gradientUnits="userSpaceOnUse">
   <stop style="stop-color:#E8C069" offset="0"/>
   <stop style="stop-color:#E9C26C" offset=".05817"/>
   <stop style="stop-color:#EBC776" offset=".1185"/>
   <stop style="stop-color:#EECF87" offset=".1797"/>
   <stop style="stop-color:#F3DA9E" offset=".2417"/>
   <stop style="stop-color:#F9EABE" offset=".3035"/>
   <stop style="stop-color:#FFFCDD" offset=".3498"/>
   <stop style="stop-color:#F8EAC3" offset=".3738"/>
   <stop style="stop-color:#E1BA72" offset=".4663"/>
   <stop style="stop-color:#D59F41" offset=".5309"/>
   <stop style="stop-color:#D09530" offset=".5616"/>
   <stop style="stop-color:#895323" offset=".798"/>
   <stop style="stop-color:#E8C069" offset="1"/>
  </linearGradient>
  <linearGradient id="SVGID_190_" x1="949.9" x2="966.9" y1="599.4" y2="599.4" gradientUnits="userSpaceOnUse">
   <stop style="stop-color:#E8C069" offset="0"/>
   <stop style="stop-color:#E9C26C" offset=".05817"/>
   <stop style="stop-color:#EBC776" offset=".1185"/>
   <stop style="stop-color:#EECF87" offset=".1797"/>
   <stop style="stop-color:#F3DA9E" offset=".2417"/>
   <stop style="stop-color:#F9EABE" offset=".3035"/>
   <stop style="stop-color:#FFFCDD" offset=".3498"/>
   <stop style="stop-color:#F8EAC3" offset=".3738"/>
   <stop style="stop-color:#E1BA72" offset=".4663"/>
   <stop style="stop-color:#D59F41" offset=".5309"/>
   <stop style="stop-color:#D09530" offset=".5616"/>
   <stop style="stop-color:#895323" offset=".798"/>
   <stop style="stop-color:#E8C069" offset="1"/>
  </linearGradient>
  <radialGradient id="SVGID_189_" cx="957.4" cy="586.2" r="11.71" gradientTransform="matrix(1 0 0 .9221 -749.9 -391.8)" gradientUnits="userSpaceOnUse">
   <stop style="stop-color:#FFFCDD" offset="0"/>
   <stop style="stop-color:#F5E1AC" offset=".1453"/>
   <stop style="stop-color:#ECC97C" offset=".3202"/>
   <stop style="stop-color:#E8C069" offset=".4039"/>
   <stop style="stop-color:#E7BD65" offset=".4754"/>
   <stop style="stop-color:#E2B55A" offset=".5494"/>
   <stop style="stop-color:#DAA847" offset=".6246"/>
   <stop style="stop-color:#D19631" offset=".7002"/>
   <stop style="stop-color:#D09530" offset=".7044"/>
   <stop style="stop-color:#895323" offset="1"/>
  </radialGradient>
  <linearGradient id="SVGID_188_" x1="951.2" x2="964.6" y1="668.7" y2="668.7" gradientTransform="translate(-749.9,-437.5)" gradientUnits="userSpaceOnUse">
   <stop style="stop-color:#E8C069" offset="0"/>
   <stop style="stop-color:#E9C26C" offset=".05817"/>
   <stop style="stop-color:#EBC776" offset=".1185"/>
   <stop style="stop-color:#EECF87" offset=".1797"/>
   <stop style="stop-color:#F3DA9E" offset=".2417"/>
   <stop style="stop-color:#F9EABE" offset=".3035"/>
   <stop style="stop-color:#FFFCDD" offset=".3498"/>
   <stop style="stop-color:#F8EAC3" offset=".3738"/>
   <stop style="stop-color:#E1BA72" offset=".4663"/>
   <stop style="stop-color:#D59F41" offset=".5309"/>
   <stop style="stop-color:#D09530" offset=".5616"/>
   <stop style="stop-color:#895323" offset=".798"/>
   <stop style="stop-color:#E8C069" offset="1"/>
  </linearGradient>
  <linearGradient id="SVGID_187_" x1="823.9" x2="905" y1="866" y2="866" gradientTransform="translate(-749.9,-437.5)" gradientUnits="userSpaceOnUse">
   <stop style="stop-color:#E8C069" offset="0"/>
   <stop style="stop-color:#E9C26C" offset=".05817"/>
   <stop style="stop-color:#EBC776" offset=".1185"/>
   <stop style="stop-color:#EECF87" offset=".1797"/>
   <stop style="stop-color:#F3DA9E" offset=".2417"/>
   <stop style="stop-color:#F9EABE" offset=".3035"/>
   <stop style="stop-color:#FFFCDD" offset=".3498"/>
   <stop style="stop-color:#F8EAC3" offset=".3738"/>
   <stop style="stop-color:#E1BA72" offset=".4663"/>
   <stop style="stop-color:#D59F41" offset=".5309"/>
   <stop style="stop-color:#D09530" offset=".5616"/>
   <stop style="stop-color:#895323" offset=".798"/>
   <stop style="stop-color:#E8C069" offset="1"/>
  </linearGradient>
  <linearGradient id="SVGID_186_" x1="840.8" x2="892" y1="861.5" y2="861.5" gradientTransform="translate(-749.9,-437.5)" gradientUnits="userSpaceOnUse">
   <stop style="stop-color:#E8C069" offset="0"/>
   <stop style="stop-color:#E9C26C" offset=".05817"/>
   <stop style="stop-color:#EBC776" offset=".1185"/>
   <stop style="stop-color:#EECF87" offset=".1797"/>
   <stop style="stop-color:#F3DA9E" offset=".2417"/>
   <stop style="stop-color:#F9EABE" offset=".3035"/>
   <stop style="stop-color:#FFFCDD" offset=".3498"/>
   <stop style="stop-color:#F8EAC3" offset=".3738"/>
   <stop style="stop-color:#E1BA72" offset=".4663"/>
   <stop style="stop-color:#D59F41" offset=".5309"/>
   <stop style="stop-color:#D09530" offset=".5616"/>
   <stop style="stop-color:#895323" offset=".798"/>
   <stop style="stop-color:#E8C069" offset="1"/>
  </linearGradient>
  <linearGradient id="SVGID_185_" x1="855.3" x2="880" y1="700.6" y2="700.6" gradientTransform="translate(-749.9,-437.5)" gradientUnits="userSpaceOnUse">
   <stop style="stop-color:#E8C069" offset="0"/>
   <stop style="stop-color:#E9C26C" offset=".05817"/>
   <stop style="stop-color:#EBC776" offset=".1185"/>
   <stop style="stop-color:#EECF87" offset=".1797"/>
   <stop style="stop-color:#F3DA9E" offset=".2417"/>
   <stop style="stop-color:#F9EABE" offset=".3035"/>
   <stop style="stop-color:#FFFCDD" offset=".3498"/>
   <stop style="stop-color:#F8EAC3" offset=".3738"/>
   <stop style="stop-color:#E1BA72" offset=".4663"/>
   <stop style="stop-color:#D59F41" offset=".5309"/>
   <stop style="stop-color:#D09530" offset=".5616"/>
   <stop style="stop-color:#895323" offset=".798"/>
   <stop style="stop-color:#E8C069" offset="1"/>
  </linearGradient>
  <linearGradient id="SVGID_184_" x1="852" x2="882.4" y1="697.4" y2="697.4" gradientTransform="translate(-749.9,-437.5)" gradientUnits="userSpaceOnUse">
   <stop style="stop-color:#E8C069" offset="0"/>
   <stop style="stop-color:#E9C26C" offset=".05817"/>
   <stop style="stop-color:#EBC776" offset=".1185"/>
   <stop style="stop-color:#EECF87" offset=".1797"/>
   <stop style="stop-color:#F3DA9E" offset=".2417"/>
   <stop style="stop-color:#F9EABE" offset=".3035"/>
   <stop style="stop-color:#FFFCDD" offset=".3498"/>
   <stop style="stop-color:#F8EAC3" offset=".3738"/>
   <stop style="stop-color:#E1BA72" offset=".4663"/>
   <stop style="stop-color:#D59F41" offset=".5309"/>
   <stop style="stop-color:#D09530" offset=".5616"/>
   <stop style="stop-color:#895323" offset=".798"/>
   <stop style="stop-color:#E8C069" offset="1"/>
  </linearGradient>
  <linearGradient id="SVGID_183_" x1="857.9" x2="878.9" y1="693.4" y2="693.4" gradientUnits="userSpaceOnUse">
   <stop style="stop-color:#E8C069" offset="0"/>
   <stop style="stop-color:#E9C26C" offset=".05817"/>
   <stop style="stop-color:#EBC776" offset=".1185"/>
   <stop style="stop-color:#EECF87" offset=".1797"/>
   <stop style="stop-color:#F3DA9E" offset=".2417"/>
   <stop style="stop-color:#F9EABE" offset=".3035"/>
   <stop style="stop-color:#FFFCDD" offset=".3498"/>
   <stop style="stop-color:#F8EAC3" offset=".3738"/>
   <stop style="stop-color:#E1BA72" offset=".4663"/>
   <stop style="stop-color:#D59F41" offset=".5309"/>
   <stop style="stop-color:#D09530" offset=".5616"/>
   <stop style="stop-color:#895323" offset=".798"/>
   <stop style="stop-color:#E8C069" offset="1"/>
  </linearGradient>
  <radialGradient id="SVGID_182_" cx="867.1" cy="677.1" r="14.49" gradientTransform="matrix(1 0 0 .9221 -749.9 -384.8)" gradientUnits="userSpaceOnUse">
   <stop style="stop-color:#FFFCDD" offset="0"/>
   <stop style="stop-color:#F5E1AC" offset=".1453"/>
   <stop style="stop-color:#ECC97C" offset=".3202"/>
   <stop style="stop-color:#E8C069" offset=".4039"/>
   <stop style="stop-color:#E7BD65" offset=".4754"/>
   <stop style="stop-color:#E2B55A" offset=".5494"/>
   <stop style="stop-color:#DAA847" offset=".6246"/>
   <stop style="stop-color:#D19631" offset=".7002"/>
   <stop style="stop-color:#D09530" offset=".7044"/>
   <stop style="stop-color:#895323" offset="1"/>
  </radialGradient>
  <linearGradient id="SVGID_181_" x1="859.4" x2="876" y1="779.1" y2="779.1" gradientTransform="translate(-749.9,-437.5)" gradientUnits="userSpaceOnUse">
   <stop style="stop-color:#E8C069" offset="0"/>
   <stop style="stop-color:#E9C26C" offset=".05817"/>
   <stop style="stop-color:#EBC776" offset=".1185"/>
   <stop style="stop-color:#EECF87" offset=".1797"/>
   <stop style="stop-color:#F3DA9E" offset=".2417"/>
   <stop style="stop-color:#F9EABE" offset=".3035"/>
   <stop style="stop-color:#FFFCDD" offset=".3498"/>
   <stop style="stop-color:#F8EAC3" offset=".3738"/>
   <stop style="stop-color:#E1BA72" offset=".4663"/>
   <stop style="stop-color:#D59F41" offset=".5309"/>
   <stop style="stop-color:#D09530" offset=".5616"/>
   <stop style="stop-color:#895323" offset=".798"/>
   <stop style="stop-color:#E8C069" offset="1"/>
  </linearGradient>
 </defs>
 <g transform="matrix(.9814 0 0 .9814 -.0007624 .006651)">
  <path d="m296.5 8.876c-6.786-0.1864-1.975-0.4021-5.353-0.01239l7.428 40.5c4.795-0.2589 4.003-0.5031 7.56-1.294 0.7224-6.273-9.127-34.92-9.63-39.19zm-286.6 57.15c-5.134 8.197-4.405 18.78-6.028 26.4 0.493 1.408 12.66-3.79 14.11-4.681 1.629-8.04 9.802-19.09 9.795-19.11 9.84-1.161 14.68-3.535 18.25-9.022-7.054-4.968-30.19 0.3774-36.13 6.42zm203.1 63.09c-17.04 0.843-94.8-2.784-101 2.902 35.28 2.56 87.45 0.09772 115.6-0.3826 24.39-0.8115 51.3-0.21 75.22-2.334-0.3861-0.5331-1.337-1.286-3.111-1.6-5.568-0.9855-58.51 2.304-86.77 1.415zm188.7-127.2c-6.211-2.536-15.93 0.2736-20.79-1.073-50.22 0.06921-105-0.3789-142.2 1.087-7.957 0.5025-19.56 1.894-26.07 4.323 7.05 0.04138 182.5-1.818 193.5-1.327zm-374.1 127.4 10.01 0.852c1.998-27.01 11.63-39.81 38.13-38.76 22.86 8.935 23.56 23.35 25.35 38.34l12.14-1.065c-1.585-34-13.24-51.81-42.6-52.83-36.73 0.01094-42.81 24.58-43.02 53.46zm274.9-7.881 12.35 0.426c-2.175-18.87 23.38-32.61 27.04-31.74 15.54 3.684 28.74 10.42 33.01 28.75l13.17-0.9771c4.368-33.57-17.55-41.34-44.05-44.61-24.12 4.027-46.92 9.594-41.53 48.13z" style="fill:#ffffff"/>
  <path d="m50.29 99.86c23.71-17.12 46.87 1.919 47.09 24.18 0.08734 8.921-13.05 29.25-29.86 27.49-31.48-3.3-35.34-38.58-17.23-51.64z" style="fill:#ffffff"/>
  <path d="m67.56 88.33c16.73 0 34.97 11.78 34.97 35.04 0.2997 16.42-14.5 33.18-33.64 33.18-19.49 0-34.56-14.89-34.56-34.4 0-20.09 17.2-33.81 33.22-33.81zm27.03 43.4c5.204-16-2.724-32.02-20.6-36.71-20.86-3.327-33.12 13.25-33.6 25.72-0.8524 14.37 8.786 24.6 18.74 28.21 17.89 5.65 32.47-6.231 35.46-17.23zm-36.69 14.55c2.511-5 4.61-8.794 7.344-13.49 0.7346-1.059 1.078-1.037 3.518 0.2347 3.322 1.733 3.996 2.413 4.493 4.523 1.041 3.363 2.27 6.522 3.01 10.11-2.31 3.207-20.53 0.9684-18.37-1.381zm17.22 1.365c-0.6001-0.2526-1.829-1.375-2.107-1.922-0.4035-0.7984-2.27-9.124-2.087-9.304 0.1802-0.1843 0.7188-0.2035 1.033-0.03709 0.621 0.3292 0.2173-0.4431-0.4823-0.9222-0.9514-0.652-4.757-2.645-5.083-2.581-1.246 0.1455-7.425 11.96-7.616 13.59 0.1502 0.8194 0.5862 0.6586 0.5862-0.2158 0-0.4404 0.1474-0.8209 0.4804-1.238 1.463-2.398 5.642-12.19 6.786-11.26 0.4167 0.00302 1.931 0.7736 2.255 1.149 1.472 4.673 1.841 7.145 2.956 11.68 0.3199 0.8742-0.1073 2.049-0.1894 2.289 1.345 0.241 3.752-0.9673 3.467-1.224zm-1.282-16.96c2.143-1.9 4.538-3.153 6.787-3.222 1.987 0.3956 9.777 3.396 11.84 4.756 0.6109 1.78-6.123 11-11.01 13.54-2.409 2.389-6.202-11.92-7.616-15.07zm7.355 14.03c0.04726-0.333-0.4517-0.1891-0.6507-0.2724-1.823-4.87-3.717-8.426-5.047-13.13 0.05381-0.4712 0.8666-0.9649 2.044-1.241 1.33-0.4323 7.322 2.62 9.784 3.824 2.397 1.175 3.024 1.642 3.049 2.27 0.2691 0.09391 1.95-2.964 1.957-3.605-0.6234-0.01641-1.91 0.4617-3.085 0.4838-3.154-1.152-6.097-2.272-8.824-4.059 0.02457-0.1826 0.2907-0.4558 0.5914-0.6069 0.8321-0.4181 0.6655-0.583-0.5044-0.5006-2.246 0.4544-3.977 1.292-5.561 2.764-0.4262 0.8546-0.4193 0.9312 0.205 2.335 1.467 3.908 3.301 7.968 4.723 11.49 0.2012 0.5254 0.5934 1.068 0.7713 1.068 0.4396-0.08158 0.5816-0.46 0.547-0.8177zm-37.88-15.46c5.952-1.167 14.48-3.005 16.21-2.379 1.138 1.263 2.067 5.91 1.27 7.593-0.7356 1.589-6.43 10.65-6.846 10.5-2.967-0.06299-13.11-13.26-10.63-15.72zm10.35 15.29c-1.336-2.399 3.122-7.02 5.322-10.68 0.4565-0.4203 0.8044-0.2347 0.9964 0.5318 0.1589 0.8028 0.1744 0.6142 0.4811-0.02946-0.0364-3.202-0.06649-8.021-2.914-7.065-4.49 0.6366-9.274 1.341-13.12 2.412-0.2192 0.2244-0.04724 0.8021 0.1937 0.6492 4.28-0.7601 8.824-1.864 12.91-2.344 1.344-0.2793 2.278 2.968 1.149 4.091-2 3.235-6.184 10.47-8.141 9.507-0.6989-0.227-0.2355 0.4386 1.208 1.735 0.4822 0.6483 1.703 1.338 1.915 1.198zm12.3-16.78c1.13-1.324 3.057-1 3.552 0.7668 0.1158 0.8666-0.3722 1.775-1.124 2.14-1.94 0.7464-3.455-1.209-2.428-2.907zm5.305-2.086c0.6899-1.837 2.437-1.467 2.896-1.042 1.255 0.7166 1.086 2.517 0.1361 3.156-1.534 1.092-3.548-0.3351-3.031-2.114zm6.396-3.743c0-0.5392 0.6816-3.515 1.034-4.512 1.451-4.167 7.893-6.273 11.99-8.216 3.354 4.182 4.101 11.88 3.244 18.1-0.5952 1.376-17.58-2.52-16.27-5.369zm15.42 4.509c0-0.2491-0.211-0.3234-1.18-0.4155-4.241-1.157-10.14-2.014-12.88-4.515 0.05917-0.8419 0.2814-1.526 0.514-2.332 0.1543-1.436 7.781-4.092 12.08-5.92 0.4362 0 0.7931-0.07249 0.7931-0.1612 0-0.3441-1.549-3.574-1.682-3.48 0.1974 3.276-4.087 4.351-6.508 5.808-3.654 1.813-3.84 1.843-3.84 0.6451 0-0.6015-0.006032-0.6069-0.3388-0.2986-1.13 1.504-1.786 5.215-1.521 6.941 4.107 1.967 8.659 2.751 12.36 4.128 1.142 0.5426 2.124 0.2493 2.207-0.3987zm-31.51-2.788c0.69-0.7248 2.455-0.342 2.848 0.6492 0.7064 1.089-0.1091 2.881-1.795 2.859-2.063-0.2508-2.367-2.673-1.054-3.509zm-19.1 1.354c-1.287 0.1363-0.8149-13.69 5.065-18.16 4.492 4.206 11.7 9.694 12.12 11.91-0.5705 1.828-3.34 5.008-5.089 5.341-3.884 0.3359-8.401 0.9271-12.1 0.9109zm0.7173-1.33c1.401-1.385 1.418-1.389 6.418-1.294 2.437 0.04664 4.615 0.123 4.837 0.1703 0.4013 0.08481 0.3983 0.09426-0.2463 0.7698-0.7091 0.7431-0.6879 0.8096 0.1418 0.4433 0.9904-0.4367 3.596-3.25 4.259-4.6 0.5986-1.218 0.5916-1.233-1.469-3.145-2.239-2.18-4.853-4.422-6.989-6.34-1.577-1.562-2.446-2.005-2.686-1.366 3.433 3.461 7.869 6.756 10.74 9.954 0 0.3962-1.48 2.089-2.017 2.308-2.363 0.9825-13.08 0.6123-13.88-0.1186-0.1029 0.1053-0.1643 3.417-0.06816 3.683 0.7765 1.387 0.4573-0.07996 0.9683-0.4641zm28.57-3.423c0.05803-2.337 2.502-2.586 3.536-1.294 0.9529 1.879-0.413 2.872-0.8531 2.959-1.477 0.4958-2.538-0.4718-2.683-1.666zm-9.979-2.313c0.6126-0.6818 2.092-1.164 3.024-0.00603 1.304 1.726-0.3963 3.177-1.245 3.201-1.975 0.03383-2.73-1.784-1.778-3.195zm5.075-0.6171c-0.41-1.919 1.068-2.689 2.051-2.613 2.228 0.36 2.221 2.965 0.6784 3.734-0.7698 0.2545-1.835 0.4281-2.73-1.12zm3.108-9.079c-0.0477-1.431 1.612-12.11 2.332-12 3.097-0.2901 10.9 3.909 13.84 6.884 1.919 1.837 2.053 2.234 1.059 3.145-4.485 3.437-11.83 9.109-12.75 8.876-0.8242-0.3617-4.749-3.963-4.487-6.908zm5.527 5.953c3.696-2.631 7.878-5.473 11.16-8.231 0.1231-0.2354 0.1216-0.4424-0.004524-0.6843-0.2302-0.4404-0.515-0.4446-0.6262-0.00957-4.109 3.376-7.277 5.889-11.4 8.494-1.907-2.029-1.787-3.678-1.458-5.242 1.274-3.648 1.645-10.66 2.898-10.77 0.3046-0.228 0.2845-0.259-0.3489-0.5347-1.077-0.4969-2.298-0.5627-3.441-0.6924-0.0188 0.3831 1.376 2.231 1.273 3.624-0.1723 2.434-0.8344 4.937-1.288 7.221-0.1759 1.177-0.4542 1.72-0.8831 1.72-0.4775-0.3249-0.7518-0.6818-1.161-1.127-0.09439 0.6513 0.1341 1.267 0.2959 1.844 1.461 2.122 3.066 5.255 4.977 4.386zm-8.269-18.18c0.2964 0.85-0.4707 17.24-0.9994 17.44-1.101 0.2944-4.488 0.3609-6.733-0.05269-3.087-2.956-8.786-7.773-9.086-9.897 0.8338-3.212 11.86-8.404 16.82-7.488zm-1.261 16.58c0.4272-2.042 0.947-9.789 0.6798-15.48-0.5353-0.09298-0.5737-0.02932-0.5874 0.9799-0.04205 5.011-0.5113 9.207-0.7482 13.74-1.805 0.3816-2.916 0.126-3.876-1.219-2.795-3.621-7.704-8.287-7.652-9.999-0.8052 0.0264-2.275 1.97-2.623 2.643 0.5891 0.0705 1.193 0.158 1.698 0.2504 2.736 2.296 5.164 5.179 7.032 8.141-0.5182 0.2992-1.065 0.1808-1.552-0.00679-0.273 0.1726 0.1101 0.6451 0.7728 0.9529 0.4205 0.2586 4.92 0.6787 6.856-0.00236z" style="fill:#000000"/>
  <path d="m326.9 99.86c23.71-17.12 46.87 1.919 47.09 24.18 0.08733 8.921-13.05 29.25-29.86 27.49-31.48-3.3-35.34-38.58-17.23-51.64z" style="fill:#ffffff"/>
  <path d="m344.2 88.33c16.73 0 34.97 11.78 34.97 35.04 0.2997 16.42-14.5 33.18-33.64 33.18-19.49 0-34.56-14.89-34.56-34.4 0-20.09 17.2-33.81 33.22-33.81zm27.03 43.4c5.204-16-2.724-32.02-20.6-36.71-20.86-3.327-33.12 13.25-33.6 25.72-0.8524 14.37 8.786 24.6 18.74 28.21 17.89 5.65 32.47-6.231 35.46-17.23zm-36.69 14.55c2.511-5 4.61-8.794 7.344-13.49 0.7346-1.059 1.078-1.037 3.518 0.2347 3.322 1.733 3.996 2.413 4.493 4.523 1.041 3.363 2.27 6.522 3.01 10.11-2.31 3.207-20.53 0.9684-18.37-1.381zm17.22 1.365c-0.6001-0.2526-1.829-1.375-2.107-1.922-0.4035-0.7984-2.27-9.124-2.087-9.304 0.1802-0.1843 0.7188-0.2035 1.033-0.03709 0.621 0.3292 0.2173-0.4431-0.4823-0.9222-0.9514-0.652-4.757-2.645-5.083-2.581-1.246 0.1455-7.425 11.96-7.616 13.59 0.1502 0.8194 0.5862 0.6586 0.5862-0.2158 0-0.4404 0.1474-0.8209 0.4804-1.238 1.463-2.398 5.642-12.19 6.786-11.26 0.4167 0.00302 1.931 0.7736 2.255 1.149 1.472 4.673 1.841 7.145 2.956 11.68 0.3199 0.8742-0.1073 2.049-0.1894 2.289 1.345 0.241 3.752-0.9673 3.467-1.224zm-1.282-16.96c2.143-1.9 4.538-3.153 6.787-3.222 1.987 0.3956 9.777 3.396 11.84 4.756 0.6109 1.78-6.123 11-11.01 13.54-2.409 2.389-6.202-11.92-7.616-15.07zm7.355 14.03c0.04726-0.333-0.4517-0.1891-0.6507-0.2724-1.823-4.87-3.717-8.426-5.047-13.13 0.05381-0.4712 0.8666-0.9649 2.044-1.241 1.33-0.4323 7.322 2.62 9.784 3.824 2.397 1.175 3.024 1.642 3.049 2.27 0.2691 0.09391 1.95-2.964 1.957-3.605-0.6234-0.01641-1.91 0.4617-3.085 0.4838-3.154-1.152-6.097-2.272-8.824-4.059 0.02456-0.1826 0.2907-0.4558 0.5914-0.6069 0.8321-0.4181 0.6656-0.583-0.5044-0.5006-2.246 0.4544-3.977 1.292-5.561 2.764-0.4262 0.8546-0.4193 0.9312 0.205 2.335 1.467 3.908 3.301 7.968 4.723 11.49 0.2012 0.5254 0.5934 1.068 0.7713 1.068 0.4396-0.08158 0.5816-0.46 0.547-0.8177zm-37.88-15.46c5.952-1.167 14.48-3.005 16.21-2.379 1.138 1.263 2.067 5.91 1.27 7.593-0.7356 1.589-6.43 10.65-6.846 10.5-2.967-0.06299-13.11-13.26-10.63-15.72zm10.35 15.29c-1.336-2.399 3.122-7.02 5.322-10.68 0.4565-0.4203 0.8044-0.2347 0.9964 0.5318 0.1589 0.8028 0.1744 0.6142 0.4811-0.02946-0.03641-3.202-0.06649-8.021-2.914-7.065-4.49 0.6366-9.274 1.341-13.12 2.412-0.2192 0.2244-0.04724 0.8021 0.1937 0.6492 4.28-0.7601 8.824-1.864 12.91-2.344 1.344-0.2793 2.278 2.968 1.149 4.091-2 3.235-6.184 10.47-8.141 9.507-0.6989-0.227-0.2355 0.4386 1.208 1.735 0.4822 0.6483 1.703 1.338 1.915 1.198zm12.3-16.78c1.13-1.324 3.057-1 3.552 0.7668 0.1158 0.8666-0.3722 1.775-1.124 2.14-1.94 0.7464-3.455-1.209-2.428-2.907zm5.305-2.086c0.6898-1.837 2.437-1.467 2.896-1.042 1.255 0.7166 1.086 2.517 0.1361 3.156-1.534 1.092-3.548-0.3351-3.031-2.114zm6.396-3.743c0-0.5392 0.6816-3.515 1.034-4.512 1.451-4.167 7.893-6.273 11.99-8.216 3.354 4.182 4.101 11.88 3.244 18.1-0.5952 1.376-17.58-2.52-16.27-5.369zm15.42 4.509c0-0.2491-0.211-0.3234-1.18-0.4155-4.241-1.157-10.14-2.014-12.88-4.515 0.05917-0.8419 0.2814-1.526 0.514-2.332 0.1543-1.436 7.781-4.092 12.08-5.92 0.4362 0 0.7931-0.07249 0.7931-0.1612 0-0.3441-1.549-3.574-1.682-3.48 0.1974 3.276-4.087 4.351-6.508 5.808-3.654 1.813-3.84 1.843-3.84 0.6451 0-0.6015-0.00603-0.6069-0.3388-0.2986-1.13 1.504-1.786 5.215-1.521 6.941 4.107 1.967 8.659 2.751 12.36 4.128 1.142 0.5426 2.124 0.2493 2.207-0.3987zm-31.51-2.788c0.69-0.7248 2.455-0.342 2.848 0.6492 0.7064 1.089-0.1091 2.881-1.795 2.859-2.063-0.2508-2.367-2.673-1.054-3.509zm-19.1 1.354c-1.287 0.1363-0.8149-13.69 5.065-18.16 4.492 4.206 11.7 9.694 12.12 11.91-0.5706 1.828-3.34 5.008-5.089 5.341-3.884 0.3359-8.401 0.9271-12.1 0.9109zm0.7173-1.33c1.401-1.385 1.418-1.389 6.418-1.294 2.437 0.04664 4.615 0.123 4.837 0.1703 0.4013 0.08481 0.3983 0.09426-0.2463 0.7698-0.7091 0.7431-0.6879 0.8096 0.1418 0.4433 0.9904-0.4367 3.596-3.25 4.259-4.6 0.5986-1.218 0.5916-1.233-1.469-3.145-2.239-2.18-4.853-4.422-6.989-6.34-1.577-1.562-2.446-2.005-2.686-1.366 3.433 3.461 7.869 6.756 10.74 9.954 0 0.3962-1.48 2.089-2.017 2.308-2.363 0.9825-13.08 0.6123-13.88-0.1186-0.1029 0.1053-0.1643 3.417-0.06816 3.683 0.7765 1.387 0.4573-0.07996 0.9683-0.4641zm28.57-3.423c0.05803-2.337 2.502-2.586 3.536-1.294 0.9529 1.879-0.413 2.872-0.8531 2.959-1.477 0.4958-2.538-0.4718-2.683-1.666zm-9.979-2.313c0.6126-0.6818 2.092-1.164 3.024-0.00603 1.304 1.726-0.3963 3.177-1.245 3.201-1.975 0.03383-2.73-1.784-1.778-3.195zm5.075-0.6171c-0.41-1.919 1.068-2.689 2.051-2.613 2.228 0.36 2.221 2.965 0.6784 3.734-0.7698 0.2545-1.835 0.4281-2.73-1.12zm3.108-9.079c-0.0477-1.431 1.612-12.11 2.332-12 3.097-0.2901 10.9 3.909 13.84 6.884 1.919 1.837 2.053 2.234 1.059 3.145-4.485 3.436-11.83 9.109-12.75 8.876-0.8242-0.3617-4.749-3.963-4.487-6.908zm5.527 5.953c3.696-2.631 7.878-5.473 11.16-8.231 0.123-0.2354 0.1216-0.4424-0.00452-0.6843-0.2302-0.4404-0.515-0.4446-0.6262-0.00957-4.109 3.376-7.277 5.889-11.4 8.494-1.907-2.029-1.787-3.678-1.458-5.242 1.274-3.648 1.645-10.66 2.898-10.77 0.3046-0.228 0.2845-0.259-0.3489-0.5347-1.077-0.4969-2.298-0.5627-3.441-0.6924-0.01881 0.3831 1.376 2.231 1.273 3.624-0.1723 2.434-0.8344 4.937-1.288 7.221-0.1759 1.177-0.4542 1.72-0.8831 1.72-0.4775-0.3249-0.7518-0.6818-1.161-1.127-0.09439 0.6513 0.1341 1.267 0.2959 1.844 1.461 2.122 3.066 5.255 4.977 4.386zm-8.269-18.18c0.2964 0.85-0.4707 17.24-0.9994 17.44-1.101 0.2944-4.488 0.3609-6.733-0.05269-3.087-2.956-8.786-7.773-9.086-9.897 0.8338-3.212 11.86-8.404 16.82-7.488zm-1.261 16.58c0.4272-2.042 0.947-9.789 0.6798-15.48-0.5353-0.09298-0.5737-0.02932-0.5874 0.9799-0.04205 5.011-0.5113 9.207-0.7482 13.74-1.805 0.3816-2.916 0.126-3.876-1.219-2.795-3.621-7.704-8.287-7.652-9.999-0.8052 0.0264-2.275 1.97-2.623 2.643 0.5891 0.0705 1.193 0.158 1.698 0.2504 2.736 2.296 5.164 5.179 7.032 8.141-0.5182 0.2992-1.065 0.1808-1.552-0.00679-0.273 0.1726 0.1101 0.6451 0.7728 0.9529 0.4205 0.2586 4.92 0.6787 6.856-0.00236z" style="fill:#000000"/>
  <path d="m422.7 12.03c1.057-0.5731 1.212-0.01446 7.65 9.78 5.731 8.992 11.87 21.9 14.02 29.19 1.563 4.59 2.427 21.1 0.9945 21.54-0.4444 0.1309-4.738 1.719-5.598-0.2923-0.7575-1.77-0.1614-6.882-0.6303-11.46-0.9637-9.225-3.226-17.98-6.897-26.07-3.642-9.96-10.54-16.98-11.67-22.74z" style="fill:#8a112b"/>
  <path d="m231.1 2.238c-4.624 0.5463-13.75 1.497-22.03 4.123-9.525 0.124-22.36 0.9945-28.17 1.663-1.238 0.1424-4.056 0.2914-6.106 0.9735-0.8707 0.2895-0.4422-2.38-3.267-1.31 0.2772-3.652-1.274-3.213-5.053-1.007-1.939 2.049-0.07501 4.413-7.327 7.386-17.22 8.452-35.85 23.32-48.78 35.2-21.91 1.207-45.72 1.983-63.91 4.833-9.262 1.27-27.46 3.84-34.53 7.452-5.94 2.65-8.902 14.34-9.922 19.92-2.074 8.19-2.076 21.21-1.968 27.3 0.2217 11.76 1.354 12.65 3.526 15.94 2.424 6.435 6.394 5.292 9.682 9.735 0.2782 1.225 0.3805 5.071 1.338 5.62 5.118 0.99 12.49 1.735 17.61 1.366-2.007-26.07-0.9592-45.31 12.16-52.3 14.75-7.05 43.39-9.442 54.37 0 6.709 10.95 6.327 18.76 9.495 30.96 0.2217 3.849 1.99 11.71 2.559 14.3 0.561 0.2223 7.74 0.4068 15.24 0.2781 29.82 0.03556 61.44 0.6997 92.47 0.3339 28.6-0.6926 58.9-2.706 85.12-3.483 1.606-5.434 1.644-7.717 2.263-11.91 1.95-16.59 6.204-30.6 14.57-35.82 10.81-7.695 42.43-5.583 51.03 0 4.302 1.695 13.3 21.1 14.3 40.48 4.6-0.299 22.69-2.014 30.1-2.628 15.58-1.291 22.26-2.218 22.33-2.536 0.5385 0.02413 8.542-10.43 10.65-15.76 1.105-4.264 0.9885-8.265 1.03-11.35 0.1214-3.052 0.4137-7.387-1.243-9.06-1.488-2.374-1.899-1.489-2.475-2.74 0.2376-1.686-0.1181-3.144-0.5792-7.905l-5.14-0.2619c-0.1118-2.731 0.3014-3.916-0.06813-5.793-0.8527-11.08 0.09525-9.457-1.822-17.64-2.22-6.498-8.115-20.08-9.832-23.04-3.93-6.61-3.988-6.765-7.732-12.67-0.3159-1.09 3.595 0.00804 3.475 0.1557-2.53-3.906 0.7328 0.9322 4.096-2.19-0.2751-1.258 1.672-5.269-4.914-5.778-4.57-0.4294-11.83-0.1274-17.61-0.8242-3.361-1.812-2.095-2.602-7.635-3.801-21.33-0.972-61.15-0.1819-96.07 0.4231-6.091 0.222-64.9 0.01191-71.34 1.348zm164.4-0.7258c5.103-0.2487 5.421 1.492 9.247 2.905-76.05-0.5031-131.2-0.01551-191.7 1.744 1.896-0.5578 12.67-2.344 18.27-3.178 4.081-0.921 44.37-1.433 67.62-1.429 10.21-0.1042 90.67-0.5559 96.52-0.04147zm-97.05 44.97c-1.644-10.83-4.171-22.09-6.787-35.37l-0.376-1.851c1.496 0.00843 2.749 0.08641 4.218 0.09714 5.488 16.63 6.781 25.26 9.645 36.84-0.2438 2.368-2.487 2.02-6.523 2.112zm-254.7 13.41c-2.25 3.637-3.814 4.978-7.02 5.671-8.287 1.031-11.78 1.906-13.86 4.888-4.251 4.326-3.823 12.16-9.622 18.24-1.981 0.7597-6.376 1.795-7.8 1.542 0.1726-3.33 3.238-22.57 4.989-23.7 13.26-6.277 21.34-5.079 33.31-6.648zm257.7 69.04c-27.88 1.732-72.67 1.677-83.25 2.236-10.93 0.1516-24.45 0.3811-35.86 0.4569-25.35 0.02748-62.32 1.375-68.92 0.1142 0.3105-0.4827 1.713-1.311 2.634-0.9232 5.502 0.3976 53.53-0.235 102-0.8415 30.9-0.3867 56.08-1.454 82.2-2.016z" style="fill:#000000"/>
  <path d="m214 10.89c-16.83-0.0204-37.54-0.4839-53.53 7.792-13.99 9.217-31.72 18.13-40.63 32.7 0.5286 1.303 1.399 2.356 2.86 2.973l89.85-3.216 0.1857-2.541-89.25 2.8c0.186-5.814 28.9-26.17 40.45-31.21 16.98-7.393 35.05-6.807 50.04-7.384zm-8.175 49.93-22.57 1.04 0.4152 3.954 24.55-0.729zm5.509 34.38-92.77 1.522 1.873 8.01 91.2-5.155z" style="fill:#ffffff"/>
  <path d="m214 11.04c-18.49 0.5419-26.88 0.897-32.7 1.983-13.84 1.999-24.52 7.567-35.67 15.49-7.198 5.664-17.55 13.2-23.82 20.44-0.7066 0.9645-3.994 5.394 3.948 4.834 11.95-0.291 26.55-0.8362 38.62-1.241 18.27-0.3847 29.43-1.297 48.21-1.693l0.1332-2.071c-42.1 0.9277-73.54 2.857-78.75 2.947-2.496 0.04324-11.71 1.049-11.09-0.3406 1.747-5.296 14.69-15.82 25.38-22.9 17.62-11.95 27.43-13.94 49.78-15.45 7.177-0.1945 8.092-0.2652 15.93-0.456zm-7.912 51.19c-1.242-1.079-12.7-0.2842-16.15-0.07936-9.202 0.3901-5.136 3.694-3.64 3.183 7.101-0.7308 16.51 0.1138 20.14-1.156zm5.292 33.21c-13.45 0.2976-19.74 0.7447-32.67 0.9277-20.43 0.3618-40.93 0.6747-59.04 1.18 0.2124 7.71 1.279 6.561 8.475 5.802 32.02-1.768 54.97-3.295 83.4-3.892zm-88.8 29.55c-5.179-10.71-5.619-23.31-7.266-35.43-0.2673-11.55-1.257-23.74-0.45-34.35 0.5671-3.385 1.672-5.862 3.429-7.792 1.917-2.427 5.229-5.226 7.882-7.356 6.82-5.731 14.02-10.78 21.58-16.08 9.397-6.388 19.62-10.93 30.82-12.9 7.627-1.765 14.6-1.908 21.73-1.947l13.75-0.1569c-0.3132 13.3-0.1289 28.02-1.585 43 0 0-1.028 19.53-1.141 30.28-0.06482 6.204-0.00897 12.1 0.2094 17.74 0.8797 12.81 2.118 15.04 3.87 24.48z" style="fill:#000000"/>
  <path d="m278.7 58.75c-4.288 0.8482-8.25 0.5823-8.047 2.995 0.374 1.265 2.955 1.386 9.382 1.138 4.05-0.5677 14.48-0.2542 14.51-2.014-0.1276-2.95-4.203-2.887-15.85-2.119zm-67.23 40.9 83.02-2.68c3.171-3.937 1.78-1.737 2.733-5.097l-85.87 3.439m1.212-43.96 0.2078-2.781 85.27-2.275 0.3219 2.088zm1.358-38.55 0.03-1.921c25.77-0.6006 51.66-2.007 77.4-1.788l0.3838 2.175c-27.09-0.04953-54.61 1.011-77.77 1.536z" style="fill:#ffffff"/>
  <path d="m212.7 48.79c30.58-0.6726 61.51-1.785 85.27-2.31l0.2652 1.827c-13.46 0.1463-82.95 2.724-85.65 2.557 0.01942-0.5302 0.1089-1.654 0.1162-2.074zm78.9-37.62c-26.28-0.318-53.52 0.7116-77.7 1.425l0.02251-1.546c23.5-0.7432 51.16-1.945 77.32-1.794m-12.58 53.13c-8.235 0.3208-7.002 0.7912-7.056-2.04 3.363-1.45 19.24-2.019 21.69-1.132 0.5024 0.5094 1.15 1.929 0.3216 2.187-2.658 0.8272-11.13 0.4878-14.96 0.9847zm-67.39 33.07c30.24-0.6627 60.27-1.92 84.97-2.586 0.7174 0.4767-0.846 1.908-2.922 2.922-30.09 0.9982-56.98 3.159-81.9 3.681zm86.77 26.65c1.942-21.13 4.996-44.29 1.503-66.69-2.497-16.02-5.631-32.41-8.73-48.24l-76.87 1.836c-0.1995 7.792-0.0324 25.53-1.585 43-0.7113 11.08-1.054 24.57-1.141 30.28-0.1292 7.248-0.06618 13.13 0.2096 17.74 0.5385 9.202 1.849 15.12 3.871 24.48z" style="fill:#000000"/>
  <path d="m491.5 26.59c-7.022 0-11.16 2.292-13.97 7.736-1.818 3.514-1.823 3.931-0.03012 5.243 1.072 0.7837 1.949 3.098 1.949 5.147 0 5.464 2.234 9.466 6.486 11.62h0.0075c7.857 3.978 17.61-2.103 17.61-10.98 0-2.631 0.7742-4.928 1.949-5.787 1.793-1.312 1.788-1.729-0.03011-5.243-2.815-5.444-6.949-7.736-13.97-7.736zm0 8.53c4.781-4.87e-4 9.557 0.8256 11.2 2.485 1.134 1.146 0.7167 1.187-1.941 0.1837-1.865-0.7043-6.031-1.279-9.258-1.279-3.227 0-7.392 0.5751-9.258 1.279-2.655 1.002-3.08 0.9593-1.949-0.1837 1.643-1.66 6.425-2.485 11.21-2.485zm5.699 25.12 0.8235 6.574c0.8338 6.674-0.5784 13.07-2.882 13.07-0.679 0-1.239-2.03-1.25-4.515-0.01131-2.485-0.4878-5.271-1.066-6.184-1.838-2.902-3.735-0.1898-3.735 5.346 0 5.776-1.497 6.9-3.706 2.772-0.8831-1.65-1.098-5.136-0.5883-9.64 0.7536-6.661 0.6574-7.052-1.787-7.052-5.603 0-10.66 3.705-13.8 10.13-3.793 7.753-6.117 25.17-4.618 34.59 0.9809 6.162 1.206 6.478 4.633 6.478h3.603l0.7133-15.66c0.3895-8.614 1.301-17.02 2.029-18.68 0.9956-2.265 1.339 7.506 1.397 39.4 0.07038 39.07 0.2417 42.5 2.184 43.63 3.118 1.816 6.455 1.559 8.942-0.6912 2.003-1.813 2.206-4.324 2.206-27.71 0-16.34 0.4404-25.72 1.206-25.72 0.7652 0 1.206 9.307 1.206 25.51 0 22.04 0.2696 25.8 1.993 27.71 2.447 2.704 6.822 2.855 9.361 0.3162 1.645-1.645 1.904-7.371 1.971-43.68 0.05683-31.08 0.4124-41.01 1.382-38.77 0.7172 1.657 1.561 9.945 1.875 18.41 0.483 13.04 0.8912 15.56 2.669 16.52 1.409 0.7543 2.798 0.6138 4.221-0.4265 1.888-1.38 2.059-3.317 1.603-17.72-0.4119-13.02-0.9949-17.23-2.993-21.6-3.219-7.032-7.38-10.76-13.04-11.68zm-6.037 1.757c-1.072-0.09412-2.074 0.5888-2.074 2.132 0 1.724 0.776 2.5 2.5 2.5 1.724 0 2.374-0.65 2.096-2.096-0.3023-1.57-1.45-2.443-2.522-2.537z" style="fill:#0d0d0d;stroke-width:1.205"/>
  <path d="m583.3 19.07c-5.416 0-12.54 3.046-11.41 4.875 0.3921 0.6344-0.04404 1.154-0.9633 1.154-2.973 0-12.76 7.279-15.29 11.37-1.351 2.187-2.456 6.028-2.456 8.537 0 3.761 0.8506 5.369 4.853 9.177 2.67 2.54 6.195 4.957 7.831 5.368l2.978 0.75v44.52c0 28.39 0.4475 45.37 1.243 46.85 0.8609 1.608 2.531 2.331 5.383 2.331 2.852 0 4.514-0.7225 5.375-2.331 0.7465-1.395 1.25-12.52 1.25-27.71 0-16.12 0.4409-25.38 1.206-25.38 0.7653 0 1.206 9.307 1.206 25.51 0 22.04 0.2696 25.8 1.993 27.71 2.264 2.502 7.649 2.918 9.809 0.7574 1.064-1.064 1.481-12.58 1.574-43.67 0.1099-36.7 0.3332-41.59 1.713-37.41 0.9028 2.739 1.631 10.64 1.684 18.32 0.08132 11.89 0.3573 13.66 2.331 14.71 6.041 3.233 8.546-6.493 6.331-24.57-2.172-17.73-8.483-27.14-18.21-27.14-2.474 0-2.586 0.3812-1.816 5.978 0.9901 7.199-0.1578 13.29-2.5 13.29-1.222 0-1.713-1.526-1.713-5.346 0-5.535-1.89-8.248-3.728-5.346-0.5784 0.9132-1.055 4.079-1.066 7.037-0.0188 5.12-0.1197 5.277-2.125 3.272-1.661-1.661-2.053-3.882-1.853-10.5 0.2349-7.773 0.06662-8.39-2.25-8.39-3.622 0-11.71-4.858-12.57-7.544-0.8404-2.648 2.703-6.926 8.927-10.77 3.385-2.092 3.965-3.072 3.537-5.986-0.3513-2.394-0.1257-3.096 0.728-2.243 0.6834 0.6834 4.555 1.243 8.603 1.243 4.922 0 8.135 0.6302 9.699 1.904 2.306 1.878 2.302 1.897-0.07342 1.052-1.325-0.4719-5.245-1.123-8.714-1.449-5.895-0.5541-6.545-0.3418-9.942 3.294-1.998 2.139-3.633 4.894-3.633 6.118 0 8.536 9.682 14.5 17.25 10.63 4.512-2.307 6.794-6.186 6.824-11.6 0.0188-3.736 0.5123-5.118 1.831-5.118 2.292 0 2.283-1.609-0.02257-6.066-2.32-4.487-7.517-7.191-13.83-7.191zm0.3381 35.13c-1.072 0.09412-2.22 0.9666-2.522 2.537-0.2782 1.446 0.3716 2.096 2.096 2.096 1.724 0 2.5-0.7686 2.5-2.493 0-1.544-1.001-2.234-2.074-2.14z" style="fill:#0d0d0d;stroke-width:1.205"/>
 </g>
 <g transform="matrix(.7623 0 0 .7623 -11.49 13.83)">
  <g transform="translate(-1.399,-5.743)">
   <path d="m462.4 178.5c-6.135-1.021-11.44-4.177-16.08-9.575-8.115-9.43-17.06-30.87-20.43-48.99-0.4025-2.161-0.7318-4.14-0.7318-4.4 0-0.3999 0.2526-0.5129 1.66-0.7428 2.531-0.4135 3.092-0.368 3.222 0.261 0.06051 0.2927 0.3355 1.809 0.6111 3.37 1.641 9.292 5.186 20.52 9.562 30.27 5.967 13.3 11.14 20.08 17.76 23.25 6.854 3.281 13.52 2.341 22.81-3.221 1.343-0.8035 2.527-1.461 2.63-1.461 0.2272 0 2.458 3.581 2.458 3.946 0 0.491-6.493 4.084-9.757 5.399-2.695 1.086-4.057 1.456-6.926 1.882-2.857 0.4245-4.277 0.426-6.793 0.00722z" style="fill:#e39fa0;stroke-width:.2378"/>
   <path d="m462.2 178.3c-6.092-1.014-11.39-4.145-15.9-9.403-8.105-9.444-17.03-30.92-20.4-49.07-0.4162-2.244-0.6996-4.227-0.6296-4.407 0.08061-0.2078 0.8844-0.4392 2.197-0.6324 2.249-0.331 2.496-0.2432 2.504 0.8888 0.00202 0.2861 0.3302 2.149 0.7293 4.139 2.468 12.31 6.607 24.06 12.61 35.78 4.293 8.386 9.089 13.82 14.46 16.4 2.936 1.406 4.781 1.808 8.3 1.811 3.379 0.00294 5.335-0.4116 8.894-1.886 1.817-0.7525 6.132-3.058 7.841-4.189l0.5985-0.3963 1.267 2.026c0.697 1.114 1.234 2.048 1.194 2.076-1.736 1.197-7.198 4.072-9.472 4.986-2.699 1.085-4.06 1.455-6.926 1.88-2.867 0.426-4.744 0.4279-7.272 0.00722z" style="fill:#a86a6b;stroke-width:.2378"/>
   <path d="m462.4 178.3c-6.092-1.014-11.39-4.145-15.9-9.403-8.073-9.406-17.01-30.86-20.37-48.92-0.4025-2.161-0.7318-4.092-0.7318-4.293 0-0.5537 3.629-1.178 4.336-0.7461 0.1133 0.06928 0.206 0.3804 0.206 0.6913s0.3265 2.194 0.7256 4.184c2.468 12.31 6.607 24.06 12.61 35.78 2.342 4.575 5.054 8.57 7.658 11.28 2.561 2.665 4.491 4.131 7.046 5.354 6.859 3.283 13.52 2.341 22.83-3.23 1.352-0.8086 2.548-1.415 2.659-1.347 0.2756 0.1685 2.175 3.299 2.17 3.576-0.00909 0.4412-6.459 3.961-9.514 5.191-2.695 1.086-4.057 1.456-6.926 1.882-2.857 0.4245-4.277 0.426-6.793 0.00722z" style="fill:#e44728;stroke-width:.2378"/>
   <path d="m462.4 178.3c-6.092-1.014-11.39-4.145-15.9-9.403-8.073-9.406-17.01-30.86-20.37-48.92-0.4025-2.161-0.7318-4.096-0.7318-4.302 0-0.4666 2.109-0.8538 2.37-0.4352 0.09118 0.146 0.4717 1.889 0.8457 3.874 3.661 19.43 12.93 40.98 21.31 49.54 4.302 4.394 8.288 6.436 14 7.178 5.213 0.6758 10.79-1.013 18.56-5.625 1.645-0.9755 1.783-1.017 2.189-0.6535 0.4328 0.3875 1.102 1.726 0.9276 1.857-1.277 0.9596-7.207 4.087-9.491 5.005-2.699 1.085-4.06 1.455-6.926 1.88-2.857 0.4245-4.277 0.426-6.793 0.00722zm0.5276-3.797c-3.172-0.4892-6.809-2.079-9.324-4.074-0.5917-0.4696-1.968-1.764-3.058-2.877-6.702-6.841-15.04-24.84-19.18-41.4-1.244-4.974-2.353-11.35-1.974-11.35 0.3995 0 0.38-0.06917 1.03 3.666 1.605 9.227 5.145 20.45 9.553 30.27 3.898 8.69 7.31 14.34 10.96 18.13 2.561 2.665 4.491 4.131 7.046 5.354 6.865 3.286 13.51 2.342 22.85-3.245 1.872-1.12 2.529-1.408 2.674-1.176 0.1333 0.2134-0.09144 0.4683-0.7284 0.8263-0.5067 0.2847-1.387 0.8258-1.957 1.202-0.8467 0.5598-5.531 2.823-7.49 3.62-1.491 0.606-6.057 1.446-7.576 1.394-0.435-0.01491-1.705-0.1681-2.822-0.3404z" style="fill:#ce3327;stroke-width:.2378"/>
   <path d="m462.4 178.3c-6.092-1.014-11.39-4.145-15.9-9.403-8.189-9.541-17.25-31.48-20.52-49.67-0.3678-2.049-0.6139-3.78-0.5469-3.846 0.06697-0.06625 0.5405-0.1458 1.052-0.1767l0.9306-0.0563 0.2729 1.419c0.1501 0.7805 0.4609 2.483 0.6906 3.784 0.5454 3.088 1.847 8.407 2.75 11.23 2.243 7.026 2.896 9.037 3.091 9.517 0.1188 0.2938 0.6045 1.545 1.079 2.781s1.007 2.566 1.182 2.956c2.176 4.848 2.982 6.544 4.742 9.989 1.017 1.99 2.657 4.776 3.646 6.19s1.797 2.67 1.797 2.79c0 0.4046 5.229 5.463 6.746 6.527 4.506 3.158 10.14 4.594 15.13 3.857 0.5259-0.07769 1.334-0.1871 1.795-0.2432 0.7884-0.09577 2.626-0.6811 5.377-1.713 1.402-0.526 5.893-2.894 7.614-4.016 0.8444-0.5502 1.285-0.7112 1.489-0.544 0.3174 0.2606 0.9383 1.614 0.7911 1.725-1.277 0.9596-7.207 4.087-9.491 5.005-2.699 1.085-4.06 1.455-6.926 1.88-2.857 0.4245-4.277 0.426-6.793 0.00722z" style="fill:#ae2f24;stroke-width:.2378"/>
   <path d="m462.4 178.3c-6.092-1.014-11.39-4.145-15.9-9.403-8.073-9.406-17.01-30.86-20.37-48.92-0.8846-4.748-0.8829-4.704-0.1764-4.704 0.6159 0 0.6877 0.2525 1.58 5.558 0.2408 1.431 0.6585 3.347 0.9282 4.257s0.6038 2.28 0.7424 3.044c0.3943 2.174 3.232 10.84 5.278 16.11 0.5549 1.431 1.14 2.951 1.301 3.378 0.1604 0.4269 0.4173 0.9006 0.5708 1.052s0.2792 0.4227 0.2792 0.6017c0 0.802 5.043 10.43 7.256 13.86 2.045 3.165 2.863 4.186 5.212 6.504 3.033 2.993 3.572 3.439 5.352 4.425 1.939 1.074 2.365 1.278 2.679 1.279 0.1644 8e-4 0.2988 0.1079 0.2988 0.238s0.2474 0.2365 0.5498 0.2365 0.652 0.09202 0.7769 0.2045c0.1249 0.1125 1.195 0.3896 2.379 0.6159 1.183 0.2263 2.313 0.463 2.51 0.5262 1.13 0.3617 6.135-0.09432 8.703-0.7931 2.663-0.7244 7.066-2.774 10.6-4.935 1.871-1.143 2.089-1.222 2.365-0.8629 0.5035 0.6551 0.378 0.8297-1.299 1.807-6.448 3.758-10.09 5.209-14.83 5.914-2.857 0.4245-4.277 0.426-6.793 0.00722z" style="fill:#871a1b;stroke-width:.2378"/>
   <path d="m462.4 178.3c-6.092-1.014-11.39-4.145-15.9-9.403-8.189-9.541-17.25-31.48-20.52-49.67-0.5943-3.311-0.6515-4.337-0.2181-3.908 0.0732 0.07243 0.442 1.82 0.8194 3.883 2.854 15.6 9.849 33.97 17.07 44.84 1.798 2.706 2.91 4.072 5.002 6.149 1.479 1.469 2.848 2.781 3.042 2.916 2.393 1.672 4.204 2.671 6.073 3.352 4.611 1.679 9.81 1.906 14.48 0.6329 3.037-0.8278 7.546-2.81 10.16-4.465 2.472-1.566 2.946-1.799 3.113-1.531 0.08931 0.143 0.1247 0.2874 0.07869 0.3209-1.414 1.029-7.207 4.082-9.482 4.997-2.699 1.085-4.06 1.455-6.926 1.88-2.857 0.4245-4.277 0.426-6.793 0.00722z" style="fill:#791416;stroke-width:.2378"/>
  </g>
  <rect x="111.6" y="260.9" width="13.7" height="161.5" style="fill:url(#SVGID_181_)"/>
  <g transform="translate(-2.094,-6.503)">
   <path d="m144.2 273.3c-5.3-0.5376-10.78-2.289-17.07-5.451-3.616-1.818-9.869-5.52-9.869-5.842 0-0.1203 0.5676-1.096 1.261-2.167 0.6938-1.072 1.441-2.243 1.66-2.602s0.4817-0.6537 0.5836-0.6537 1.615 0.8666 3.362 1.926c9.152 5.547 16.38 8.108 22.91 8.114 4.908 0.00474 8.548-0.8684 13.12-3.146 8.943-4.459 16.2-13.5 23.65-29.48 8.877-19.03 14.18-35.45 17.46-54.04 0.435-2.466 0.9076-4.6 1.05-4.744 0.1884-0.1894 1.085-0.1424 3.272 0.1717 1.657 0.238 3.048 0.4642 3.091 0.5028 0.1908 0.171-2.431 13.58-3.616 18.49-2.953 12.25-7.052 24.22-12.58 36.76-6.904 15.66-12.96 25.29-20.01 31.8-8.126 7.507-18.58 11.33-28.27 10.35z" style="fill:#d59f9f;stroke-width:.237"/>
   <path d="m144 273.1c-3.471-0.352-7.974-1.496-11.64-2.957-4.852-1.935-14.83-7.434-14.83-8.173 0-0.3282 3-4.937 3.29-5.054 0.0849-0.03427 1.586 0.8056 3.336 1.866 9.157 5.551 16.38 8.111 22.92 8.117 4.907 0.00473 8.547-0.8682 13.12-3.146 9.016-4.494 16.41-13.7 23.88-29.71 8.875-19.03 14.18-35.45 17.46-54.03 0.4341-2.46 0.8566-4.541 0.939-4.624 0.1161-0.1168 6.016 0.5943 6.206 0.748 0.1544 0.125-2.694 14.45-3.68 18.51-5.043 20.75-15.58 46.07-24.46 58.77-8.168 11.68-18.05 18.21-29.68 19.61-1.897 0.2274-5.045 0.2641-6.86 0.08004z" style="fill:#e44728;stroke-width:.237"/>
   <path d="m144 273.1c-3.471-0.352-7.974-1.496-11.64-2.957-4.982-1.987-14.83-7.437-14.83-8.206 0-0.1981 0.401-0.9234 0.8911-1.612l0.8911-1.252 2.713 1.648c2.874 1.746 9.741 5.408 10.14 5.408 0.2049 0 0.8354 0.2614 3.442 1.427 1.256 0.5616 5.943 1.648 8.201 1.9 2.978 0.333 7.169 0.1657 9.216-0.3678 0.7938-0.2069 1.72-0.4172 2.057-0.4673 1.023-0.1519 4.297-1.426 6.415-2.497 1.616-0.817 5.869-3.515 6.37-4.041 0.06499-0.0682 1.021-0.9774 2.124-2.02 3.851-3.64 7.657-8.528 10.92-14.02 2.669-4.494 7.627-14.75 10.52-21.75 2.814-6.819 6.662-17.67 7.505-21.16 0.1736-0.719 0.6904-2.539 1.148-4.044 0.4581-1.505 1.006-3.591 1.218-4.635 0.3441-1.697 0.9127-4.09 1.557-6.555 0.1917-0.7328 0.7317-3.714 1.945-10.73 0.2154-1.246 0.3577-1.581 0.6385-1.503 0.1988 0.0556 1.025 0.1727 1.837 0.2602 1.354 0.146 1.466 0.2015 1.363 0.6708-0.06199 0.2814-0.5942 3.152-1.183 6.379-2.98 16.34-7.758 31.68-14.94 47.97-6.904 15.66-12.96 25.29-20.01 31.8-8.175 7.553-18.64 11.35-28.51 10.35zm-0.5908-5.452c-4.535-0.6661-9.407-2.381-14.65-5.158-3.989-2.112-8.202-4.688-8.333-5.097-0.2503-0.7784 0.809-0.3848 3.731 1.386 9.16 5.553 16.39 8.113 22.92 8.119 4.907 0.00473 8.547-0.8682 13.12-3.146 8.726-4.349 16.1-13.33 23.22-28.27 8.896-18.68 14.72-36.35 17.91-54.33 1.114-6.281 0.9909-5.824 1.563-5.824 0.3935 0 0.467 0.1086 0.3622 0.5348-0.07235 0.2942-0.5708 2.995-1.108 6.002-1.696 9.496-4.411 19.92-7.585 29.12-1.46 4.23-4.993 13.41-5.993 15.57-0.3027 0.6537-1.241 2.739-2.084 4.635-5.702 12.81-11.3 21.61-17.48 27.46-7.443 7.052-16.69 10.31-25.58 9z" style="fill:#9a5354;stroke-width:.237"/>
   <path d="m144.2 273.1c-5.211-0.5285-10.75-2.281-16.84-5.325-3.196-1.599-9.853-5.471-9.862-5.737-0.00307-0.0928 0.3932-0.8004 0.8806-1.572l0.8862-1.404 2.718 1.654c2.87 1.746 9.743 5.413 10.15 5.413 0.2049 0 0.8354 0.2614 3.442 1.427 1.256 0.5616 5.943 1.648 8.201 1.9 2.978 0.333 7.169 0.1657 9.216-0.3678 0.7938-0.2069 1.72-0.4172 2.057-0.4673 1.023-0.1519 4.297-1.426 6.415-2.497 1.616-0.817 5.869-3.515 6.37-4.041 0.06499-0.0682 1.021-0.9774 2.124-2.02 3.851-3.64 7.657-8.528 10.92-14.02 2.669-4.494 7.627-14.75 10.52-21.75 2.814-6.819 6.662-17.67 7.505-21.16 0.1736-0.719 0.6904-2.539 1.148-4.044 0.4581-1.505 1.006-3.591 1.218-4.635 0.3441-1.697 0.9127-4.09 1.557-6.555 0.1917-0.7328 0.7317-3.714 1.945-10.73 0.215-1.244 0.3581-1.582 0.6385-1.505 0.1988 0.0543 0.9729 0.1687 1.72 0.2542 0.7474 0.08549 1.359 0.1883 1.359 0.2284 0 0.04014-0.529 2.951-1.176 6.469-3.134 17.05-7.801 32.1-15.06 48.57-8.202 18.61-15.3 28.9-24.29 35.22-7.138 5.02-15.89 7.485-23.75 6.688zm-0.8272-5.452c-4.535-0.6661-9.407-2.381-14.65-5.158-3.989-2.112-8.202-4.688-8.333-5.097-0.2503-0.7784 0.809-0.3848 3.731 1.386 9.16 5.553 16.39 8.113 22.92 8.119 4.907 0.00473 8.547-0.8682 13.12-3.146 8.726-4.349 16.1-13.33 23.22-28.27 8.896-18.68 14.72-36.35 17.91-54.33 1.114-6.281 0.9909-5.824 1.563-5.824 0.3935 0 0.467 0.1086 0.3622 0.5348-0.07235 0.2942-0.5708 2.995-1.108 6.002-1.696 9.496-4.411 19.92-7.585 29.12-1.46 4.23-4.993 13.41-5.993 15.57-0.3027 0.6537-1.241 2.739-2.084 4.635-5.702 12.81-11.3 21.61-17.48 27.46-7.443 7.052-16.69 10.31-25.58 9z" style="fill:#cd3127;stroke-width:.237"/>
   <path d="m144.2 273.1c-5.211-0.5285-10.75-2.281-16.84-5.325-3.165-1.583-9.853-5.47-9.862-5.732-0.01041-0.3052 1.293-2.317 1.506-2.325 0.1164-0.00414 1.233 0.6248 2.481 1.398 6.088 3.77 11.6 6.4 15.98 7.625 1.04 0.291 2.007 0.6236 2.149 0.7391 0.1419 0.1155 0.3114 0.1564 0.3765 0.09093 0.06512-0.0655 1.119 0.08667 2.342 0.3381 4.043 0.8314 9.677 0.3679 14.62-1.203 4.227-1.343 9.681-4.534 12.73-7.448 0.8221-0.7859 1.639-1.51 1.816-1.61 0.4322-0.244 5.038-5.727 5.938-7.069 0.3946-0.5883 1.189-1.765 1.764-2.615 1.588-2.344 3.367-5.371 4.401-7.487 0.5105-1.046 1.578-3.132 2.372-4.635s1.653-3.268 1.909-3.922c0.2562-0.6537 0.935-2.205 1.509-3.447s1.264-2.793 1.535-3.447 0.8636-2.044 1.317-3.09c0.4535-1.046 1.001-2.436 1.217-3.09 0.3659-1.107 2.015-5.346 2.497-6.418 0.1175-0.2615 0.3694-1.027 0.5598-1.702 0.1903-0.6745 0.7151-2.279 1.166-3.565 1.186-3.381 3.214-10.32 3.733-12.76 0.2454-1.157 0.7087-3.082 1.03-4.279 0.7304-2.722 1.482-6.156 1.622-7.41 0.05877-0.5262 0.4569-2.758 0.8848-4.96l0.778-4.003 1.304 0.1542c0.7173 0.0848 1.337 0.1872 1.377 0.2275 0.1831 0.1842-2.416 13.44-3.589 18.3-2.951 12.24-7.051 24.22-12.58 36.76-8.202 18.61-15.3 28.9-24.29 35.22-7.138 5.02-15.89 7.485-23.75 6.688z" style="fill:#ae2e24;stroke-width:.237"/>
   <path d="m144.2 273.1c-5.211-0.5285-10.75-2.281-16.84-5.325-3.596-1.799-9.856-5.486-9.856-5.806-1.8e-4 -0.1307 0.1966-0.4953 0.4372-0.8101l0.4375-0.5724 0.6808 0.4536c0.3744 0.2495 0.893 0.5811 1.152 0.737 4.081 2.453 5.536 3.283 7.34 4.188 2.561 1.285 6.742 3.098 8.035 3.485 0.5114 0.1531 1.462 0.4404 2.112 0.6386 0.6499 0.1982 1.607 0.4516 2.127 0.5632 0.5199 0.1116 1.477 0.3269 2.127 0.4783 1.454 0.3388 7.534 0.4592 9.187 0.1819 4.403-0.739 7.533-1.748 11.26-3.626 2.504-1.264 5.595-3.288 7.056-4.619 0.4363-0.3978 1.518-1.376 2.405-2.174 0.8863-0.7981 2.231-2.213 2.988-3.144s1.603-1.932 1.879-2.224c0.2764-0.2919 0.8171-0.9937 1.202-1.56 0.3845-0.5658 1.212-1.776 1.838-2.69 2.768-4.035 7.423-12.88 10.64-20.21 1.605-3.659 2.175-4.94 2.499-5.616 0.1019-0.2126 0.5224-1.282 0.9345-2.377s1.105-2.9 1.54-4.011c2.232-5.702 4.537-12.71 6.568-19.97 0.9572-3.421 2.871-12.05 3.716-16.76 0.5165-2.876 0.9939-5.502 1.061-5.834 0.1071-0.5332 0.2187-0.5936 0.9406-0.5088 0.4504 0.05289 0.819 0.125 0.819 0.1603s-0.529 2.942-1.176 6.46c-3.134 17.05-7.801 32.1-15.06 48.57-8.202 18.61-15.3 28.9-24.29 35.22-7.138 5.02-15.89 7.485-23.75 6.688z" style="fill:#871a1b;stroke-width:.237"/>
   <path d="m144.2 273.1c-6.915-0.7014-14.08-3.429-23.21-8.833-3.052-1.806-4.087-2.654-3.242-2.654 0.3134 0 2.602 1.261 4.005 2.208 0.5849 0.3945 2.499 1.463 4.254 2.376 1.755 0.9121 3.426 1.805 3.714 1.984 0.2879 0.1792 0.6304 0.3258 0.7611 0.3258s0.7991 0.2532 1.485 0.5627c2.261 1.02 6.623 2.45 8.101 2.658 0.3899 0.05463 1.241 0.2101 1.891 0.3455 1.717 0.3578 6 0.6407 6.333 0.4183 0.1565-0.1047 0.8413-0.1687 1.522-0.1424 0.6804 0.02635 1.31-0.02499 1.398-0.1141s0.4736-0.162 0.8556-0.162c1.784 0 7.279-1.799 10.57-3.46 7.655-3.864 14.52-10.83 20.37-20.67 1.726-2.903 6.353-12 7.976-15.69 0.5761-1.307 1.388-3.126 1.805-4.041 0.4167-0.9151 0.8357-1.931 0.9312-2.258 0.09544-0.3268 0.2538-0.7012 0.3519-0.8319 0.09812-0.1307 0.6773-1.575 1.287-3.209s1.513-3.987 2.008-5.229c1.504-3.777 5.517-16.64 6.305-20.2 0.2166-0.9805 0.7437-3.173 1.171-4.873 0.4276-1.7 1.002-4.374 1.276-5.942 1.322-7.569 1.764-9.627 2.068-9.627 0.1993 0 0.2679 0.1912 0.1917 0.5348-0.06517 0.2942-0.6 3.175-1.189 6.402-2.98 16.34-7.758 31.68-14.94 47.97-6.904 15.66-12.96 25.29-20.01 31.8-8.075 7.46-18.52 11.31-28.04 10.35z" style="fill:#791415;stroke-width:.237"/>
  </g>
  <circle cx="118.5" cy="243.5" r="10.6" style="fill:url(#SVGID_182_)"/>
  <polygon transform="translate(-749.9,-437.5)" points="875.8 690.4 878.9 696.5 857.9 696.5 860.9 690.4" style="fill:url(#SVGID_183_)"/>
  <rect x="105.9" y="257.8" width="25.2" height="4.2" style="fill:url(#SVGID_184_)"/>
  <rect x="108.4" y="262" width="20.5" height="2.3" style="fill:url(#SVGID_185_)"/>
  <rect x="97.2" y="422.4" width="42.5" height="3.2" style="fill:url(#SVGID_186_)"/>
  <rect x="90.3" y="425.5" width="56.4" height="6" style="fill:url(#SVGID_187_)"/>
  <rect x="203" y="165.9" width="11.1" height="130.6" style="fill:url(#SVGID_188_)"/>
  <circle cx="208.5" cy="151.9" r="8.6" style="fill:url(#SVGID_189_)"/>
  <g transform="translate(-1.808,-8.243)">
   <path d="m226.4 178.5c-2.604-0.4079-3.651-0.7014-6.355-1.782-3.543-1.415-9.885-4.974-9.885-5.547 0-0.392 2.172-3.881 2.42-3.888 0.1014-0.00287 1.266 0.6522 2.589 1.456 7.126 4.33 12.53 5.811 17.62 4.828 9.902-1.911 16.9-10.66 24.98-31.25 2.734-6.965 5.606-17.11 6.756-23.88 0.7087-4.165 0.6124-3.902 1.43-3.902 0.3933 0 1.45 0.122 2.349 0.2712 1.419 0.2355 1.634 0.3367 1.633 0.7686-0.00162 0.8619-1.381 7.923-2.237 11.45-1.114 4.591-3.811 13.15-5.499 17.45-3.442 8.762-6.374 14.69-9.928 20.07-5.545 8.396-11.47 12.71-19.17 13.97-2.504 0.4092-3.999 0.4048-6.707-0.01944z" style="fill:#e39fa0;stroke-width:.2359"/>
   <path d="m226.2 178.3c-2.604-0.4079-3.651-0.7014-6.355-1.782-2.753-1.1-9.644-4.805-9.639-5.183 8.6e-4 -0.06504 0.5568-0.985 1.236-2.044l1.234-1.926 1.878 1.174c7.121 4.452 13.14 6.1 18.51 5.065 9.902-1.911 16.9-10.66 24.98-31.25 2.789-7.107 5.589-17.05 6.841-24.3 0.3098-1.794 0.6288-3.328 0.709-3.409 0.2724-0.2737 4.178 0.44 4.311 0.7877 0.1649 0.4319-1.155 7.521-2.185 11.74-0.4453 1.822-1.549 5.677-2.452 8.567-4.857 15.54-11.67 28.89-17.92 35.12-4.403 4.388-8.484 6.569-13.97 7.465-2.515 0.4111-4.463 0.4059-7.178-0.01944z" style="fill:#a86a6b;stroke-width:.2359"/>
   <path d="m226.4 178.3c-2.604-0.4079-3.651-0.7014-6.355-1.782-3.402-1.359-9.636-4.819-9.645-5.353-0.00477-0.3051 2.056-3.614 2.251-3.614 0.06279 0 1.196 0.6574 2.519 1.461 7.126 4.33 12.53 5.811 17.62 4.828 8.943-1.726 15.45-8.948 22.51-24.98 4.469-10.15 7.943-21.34 9.48-30.53 0.2909-1.739 0.5929-3.239 0.671-3.332 0.2186-0.2607 1.406-0.2344 2.9 0.0642 0.9929 0.1985 1.353 0.3744 1.352 0.6609-0.00184 0.7729-1.433 8.03-2.237 11.35-0.452 1.864-1.563 5.759-2.468 8.655-4.861 15.55-11.67 28.9-17.92 35.13-4.403 4.388-8.484 6.569-13.97 7.465-2.504 0.4092-3.999 0.4048-6.707-0.01944z" style="fill:#e44728;stroke-width:.2359"/>
   <path d="m226.4 178.3c-2.604-0.4079-3.651-0.7014-6.355-1.782-3.658-1.461-9.637-4.826-9.645-5.428-0.00247-0.2 0.2914-0.72 0.6532-1.155l0.6577-0.7917 1.755 1.057c7.939 4.784 13.41 6.395 18.82 5.547 4.066-0.6375 6.172-1.466 9.549-3.76 9.495-6.446 20.37-29.82 24.79-53.27l0.6682-3.548 1.11 0.04004c0.6106 0.02202 1.174 0.104 1.252 0.1822 0.07778 0.07816-0.1521 1.763-0.5108 3.744-2.933 16.2-9.751 34.33-17.09 45.44-5.476 8.291-11.27 12.49-18.94 13.75-2.504 0.4092-3.999 0.4048-6.707-0.01944zm0.4702-3.752c-2.887-0.5041-4.274-0.9699-7.574-2.544-3.967-1.892-7.041-3.795-6.791-4.202 0.1332-0.2166 0.8414 0.1037 2.625 1.188 7.167 4.355 12.56 5.836 17.66 4.851 8.943-1.726 15.45-8.948 22.51-24.98 4.475-10.17 7.903-21.22 9.531-30.74 0.4215-2.464 0.6329-3.209 0.926-3.266 0.2611-0.05052 0.35 0.06023 0.2845 0.3542-0.05243 0.2352-0.4087 2.139-0.7916 4.231-2.135 11.66-6.413 24.26-12.03 35.46-2.856 5.688-5.673 9.982-8.387 12.78-2.941 3.038-3.809 3.648-8.577 6.032-0.7019 0.3509-3.826 0.91-5.735 1.026-1.054 0.06428-2.66-0.02084-3.648-0.1934z" style="fill:#cf3327;stroke-width:.2359"/>
   <path d="m226.4 178.3c-2.604-0.4079-3.651-0.7014-6.355-1.782-3.631-1.45-9.638-4.826-9.644-5.419-0.00183-0.1951 0.2344-0.6506 0.525-1.012l0.5284-0.6574 1.197 0.7954c1.375 0.9137 5.993 3.449 7.041 3.865 2.269 0.9008 4.935 1.775 5.704 1.87 0.4873 0.0603 1.31 0.1732 1.827 0.2509 4.968 0.7454 10.31-0.643 14.89-3.868 1.483-1.045 6.642-6.105 6.642-6.515 0-0.1205 0.7961-1.376 1.769-2.79 1.962-2.852 5.158-9.005 7.544-14.52 0.1687-0.3902 0.5251-1.195 0.792-1.789s0.4853-1.211 0.4853-1.372 0.1714-0.6248 0.3808-1.032c0.5318-1.033 1.341-3.291 2.565-7.16 0.5764-1.821 1.308-4.109 1.625-5.085 0.8899-2.734 2.016-7.471 2.952-12.42l0.8501-4.494 0.9101 0.0563c0.5005 0.03096 0.9664 0.1129 1.035 0.1822 0.06888 0.06922-0.1682 1.747-0.5269 3.728-2.933 16.2-9.751 34.33-17.09 45.44-5.476 8.291-11.27 12.49-18.94 13.75-2.504 0.4092-3.999 0.4048-6.707-0.01944z" style="fill:#ae2f24;stroke-width:.2359"/>
   <path d="m226.4 178.3c-4.423-0.6929-8.254-2.264-14.41-5.908-1.646-0.9745-1.774-1.153-1.285-1.798 0.2637-0.3482 0.4834-0.2681 2.17 0.791 2.333 1.465 7.488 3.992 9.525 4.668 2.031 0.6744 5.603 1.233 7.674 1.2 2.041-0.03269 7.726-1.214 8.094-1.682 0.06472-0.08228 0.3824-0.2327 0.706-0.3343s0.9834-0.4352 1.466-0.7414c0.4828-0.3062 0.949-0.5567 1.036-0.5567 0.4285 0 2.544-1.813 5.003-4.287 2.295-2.309 3.115-3.351 5.117-6.504 2.201-3.465 7.147-13.07 7.147-13.88 0-0.19 0.1589-0.4778 0.353-0.6398 0.1942-0.1619 0.353-0.4469 0.353-0.6332s0.2148-0.8126 0.4773-1.392c1.413-3.118 5.586-15.7 6.112-18.43 0.1502-0.7805 0.4891-2.164 0.7529-3.075 0.2639-0.9106 0.6737-2.826 0.9108-4.257 0.8789-5.305 0.9496-5.558 1.556-5.558 0.6983 0 0.6979 0.00941-0.1623 4.612-1.022 5.469-2.128 9.848-3.997 15.83-4.861 15.55-11.67 28.9-17.92 35.13-4.403 4.388-8.484 6.569-13.97 7.465-2.504 0.4092-3.999 0.4048-6.707-0.01944z" style="fill:#871a1b;stroke-width:.2359"/>
   <path d="m226.4 178.3c-2.604-0.4079-3.651-0.7014-6.355-1.782-3.428-1.369-9.637-4.82-9.645-5.36-0.00247-0.1626 0.06243-0.2956 0.1442-0.2956 0.1683 0 1.295 0.6606 3.028 1.776 2.52 1.621 6.75 3.54 9.626 4.367 4.508 1.296 9.896 1.191 13.91-0.2702 2.081-0.7576 4.521-2.074 6.703-3.616 0.1917-0.1355 1.568-1.482 3.06-2.992 2.068-2.095 3.153-3.441 4.575-5.676 1.025-1.612 1.996-3.09 2.158-3.285 0.4633-0.5593 3.976-7.736 5.534-11.3 4.231-9.695 7.6-20.68 9.393-30.64 0.3716-2.063 0.7346-3.81 0.8067-3.883 0.4339-0.436 0.3795 0.6063-0.1978 3.795-2.933 16.2-9.751 34.33-17.09 45.44-5.476 8.291-11.27 12.49-18.94 13.75-2.504 0.4092-3.999 0.4048-6.707-0.01944z" style="fill:#791416;stroke-width:.2359"/>
  </g>
  <polygon transform="translate(-749.9,-437.5)" points="964.4 597 966.9 601.9 949.9 601.9 952.4 597" style="fill:url(#SVGID_190_)"/>
  <rect x="198.3" y="163.4" width="20.4" height="3.4" style="fill:url(#SVGID_191_)"/>
  <rect x="200.4" y="166.8" width="16.6" height="1.8" style="fill:url(#SVGID_192_)"/>
  <rect x="191.4" y="296.5" width="34.3" height="2.6" style="fill:url(#SVGID_193_)"/>
  <rect x="185.7" y="299" width="45.6" height="4.9" style="fill:url(#SVGID_194_)"/>
  <rect x="266" y="103.7" width="9.6" height="113.4" style="fill:url(#SVGID_195_)"/>
  <circle cx="270.8" cy="91.5" r="7.5" style="fill:url(#SVGID_196_)"/>
  <polygon transform="translate(-749.9,-437.5)" points="1026 535.6 1028 539.9 1013 539.9 1016 535.6" style="fill:url(#SVGID_197_)"/>
  <rect x="261.9" y="101.6" width="17.7" height="2.9" style="fill:url(#SVGID_198_)"/>
  <rect x="263.8" y="104.5" width="14.4" height="1.6" style="fill:url(#SVGID_199_)"/>
  <rect x="255.9" y="217.2" width="29.8" height="2.3" style="fill:url(#SVGID_200_)"/>
  <rect x="251" y="219.3" width="39.6" height="4.2" style="fill:url(#SVGID_201_)"/>
  <rect x="570.3" y="260.9" width="13.7" height="161.5" style="fill:url(#SVGID_202_)"/>
  <g transform="translate(2.893,-7.328)">
   <path d="m544 273.2c-9.751-1.455-17.72-6.018-24.95-14.28-4.277-4.891-7.671-10.16-11.7-18.18-7.814-15.55-13.6-31.15-17.42-46.97-1.174-4.862-3.356-16.11-3.356-17.29 0-0.5566 0.1092-0.6032 2.089-0.8923 1.149-0.1678 2.621-0.3125 3.272-0.3217l1.182-0.01661 0.5372 3.189c2.889 17.15 7.765 32.97 15.53 50.41 6.487 14.56 11.74 22.96 18.12 28.98 9.019 8.498 19.83 10.95 31.43 7.128 2.978-0.9818 8.861-3.834 13.02-6.314 3.302-1.967 3.429-2.02 3.88-1.614 0.2562 0.2308 0.4658 0.5069 0.4658 0.6135s0.6326 1.133 1.406 2.281 1.36 2.163 1.305 2.255c-0.05526 0.09263-1.52 1.012-3.256 2.043-10.71 6.363-17.95 8.914-26.08 9.188-2.159 0.07276-4.104-9e-4 -5.492-0.2079z" style="fill:#d59f9f;stroke-width:.2382"/>
   <path d="m544 272.9c-9.751-1.455-17.72-6.018-24.95-14.28-4.277-4.891-7.671-10.16-11.7-18.18-9.63-19.16-16.08-38.1-19.7-57.83-0.5904-3.217-1.073-6.004-1.073-6.193 0-0.3426 1.631-0.6784 5.028-1.035l1.327-0.1393 0.2995 1.99c1.52 10.1 5.345 24.88 9.189 35.51 3.763 10.4 9.443 23.06 13.71 30.54 11.36 19.94 25.85 27.37 42.61 21.84 2.974-0.9804 8.859-3.833 13.01-6.305 1.869-1.113 3.489-1.968 3.6-1.9 0.1113 0.06846 0.6159 0.798 1.121 1.621 0.5055 0.8232 1.222 1.869 1.593 2.323 0.3705 0.4547 0.6737 0.9382 0.6737 1.074s-1.477 1.115-3.283 2.175c-8.348 4.901-13.73 7.157-20.12 8.426-3.019 0.6003-8.535 0.7722-11.34 0.3534z" style="fill:#e44728;stroke-width:.2382"/>
   <path d="m544 272.9c-9.751-1.455-17.72-6.018-24.95-14.28-4.277-4.891-7.671-10.16-11.7-18.18-7.919-15.76-13.68-31.35-17.52-47.43-1.271-5.321-3.448-16.65-3.239-16.86 0.1119-0.1114 3.404-0.5897 3.5-0.5084 0.07268 0.06164 0.6194 3.043 1.375 7.501 0.5889 3.473 0.7258 4.116 1.566 7.369 0.2534 0.9805 0.7371 3.013 1.075 4.516 0.3378 1.503 0.9236 3.696 1.302 4.873 0.378 1.177 0.8633 2.835 1.078 3.684 0.4266 1.686 2.827 8.937 3.777 11.41 0.5769 1.502 2.68 6.866 3.728 9.508 0.2852 0.719 0.7695 1.842 1.076 2.496 0.3067 0.6537 1.273 2.779 2.146 4.723 1.935 4.304 5.384 11 7.489 14.53 7.357 12.35 16.24 19.88 26.54 22.49 3.487 0.8842 8.226 1.114 11.83 0.5725 1.438-0.2159 2.884-0.4848 3.212-0.5975 0.3283-0.1127 1.242-0.3863 2.029-0.608s1.755-0.5355 2.149-0.6973 1.468-0.5924 2.388-0.957c0.9192-0.3645 2.531-1.099 3.581-1.633 1.051-0.5337 2.421-1.218 3.045-1.521s2.532-1.394 4.239-2.425c3.039-1.835 3.109-1.864 3.378-1.357 0.151 0.2846 0.5803 0.8894 0.9541 1.344 0.3738 0.4547 0.6796 0.9382 0.6796 1.074s-1.477 1.115-3.283 2.175c-8.348 4.901-13.73 7.157-20.12 8.426-3.019 0.6003-8.535 0.7722-11.34 0.3534zm1.313-5.148c-11.29-1.417-20.67-8.54-28.78-21.85-2.105-3.455-6.262-11.66-8.797-17.38-7.236-16.3-12.02-31.76-14.93-48.23-0.2653-1.503-0.5804-3.242-0.7002-3.863-0.2064-1.07-0.1905-1.129 0.307-1.129 0.4743 0 0.5532 0.1887 0.8198 1.961 1.515 10.07 5.346 24.87 9.185 35.48 3.763 10.4 9.443 23.06 13.71 30.54 11.36 19.94 25.85 27.37 42.61 21.84 2.98-0.9824 8.861-3.834 13.03-6.319 3.054-1.819 3.461-2 3.783-1.679 0.3222 0.3208 0.01827 0.5642-2.825 2.263-6.772 4.046-13.78 7.127-17.72 7.789-4.833 0.8125-6.819 0.9287-9.696 0.5674z" style="fill:#9a5454;stroke-width:.2382"/>
   <path d="m544 272.9c-11.46-1.71-20.62-7.792-28.67-19.05-2.741-3.833-4.858-7.435-7.742-13.17-7.814-15.55-13.6-31.15-17.42-46.97-1.12-4.64-3.356-16.09-3.356-17.18 0-0.3917 0.2055-0.5049 1.134-0.6248 0.6238-0.08052 1.371-0.1948 1.66-0.254 0.4508-0.09221 0.5467 0.02021 0.6703 0.7855 0.07933 0.4912 0.2946 1.642 0.4784 2.557 0.1838 0.9151 0.5609 3.054 0.838 4.754s0.5972 3.464 0.7113 3.922c0.1141 0.4576 0.4288 1.688 0.6993 2.734s0.7682 3.132 1.106 4.635 0.9236 3.696 1.302 4.873c0.378 1.177 0.8633 2.835 1.078 3.684 0.4266 1.686 2.827 8.937 3.777 11.41 0.5769 1.502 2.68 6.866 3.728 9.508 0.2852 0.719 0.7695 1.842 1.076 2.496 0.3067 0.6537 1.273 2.779 2.146 4.723 1.935 4.304 5.384 11 7.489 14.53 7.357 12.35 16.24 19.88 26.54 22.49 3.487 0.8842 8.226 1.114 11.83 0.5725 1.438-0.2159 2.884-0.4848 3.212-0.5975 0.3283-0.1127 1.242-0.3863 2.029-0.608s1.755-0.5355 2.149-0.6973 1.468-0.5924 2.388-0.957c0.9192-0.3645 2.531-1.099 3.581-1.633 1.051-0.5337 2.421-1.218 3.045-1.521s2.521-1.388 4.215-2.411l3.079-1.86 0.9647 1.506 0.9647 1.507-3.15 1.871c-10.7 6.359-17.95 8.911-26.07 9.185-2.159 0.07275-4.104-9e-4 -5.492-0.208zm1.313-5.148c-11.29-1.417-20.67-8.54-28.78-21.85-2.105-3.455-6.262-11.66-8.797-17.38-7.236-16.3-12.02-31.76-14.93-48.23-0.2653-1.503-0.5804-3.242-0.7002-3.863-0.2064-1.07-0.1905-1.129 0.307-1.129 0.4743 0 0.5532 0.1887 0.8198 1.961 1.515 10.07 5.346 24.87 9.185 35.48 3.763 10.4 9.443 23.06 13.71 30.54 11.36 19.94 25.85 27.37 42.61 21.84 2.98-0.9824 8.861-3.834 13.03-6.319 3.054-1.819 3.461-2 3.783-1.679 0.3222 0.3208 0.01827 0.5642-2.825 2.263-6.772 4.046-13.78 7.127-17.72 7.789-4.833 0.8125-6.819 0.9287-9.696 0.5674z" style="fill:#cd3127;stroke-width:.2382"/>
   <path d="m544 272.9c-11.46-1.71-20.62-7.792-28.67-19.05-2.741-3.833-4.858-7.435-7.742-13.17-9.63-19.16-16.08-38.1-19.7-57.83-0.5904-3.217-1.073-6.057-1.073-6.312 0-0.3287 0.2167-0.5064 0.7461-0.6118 1.387-0.2763 1.863-0.184 1.991 0.3863 0.3838 1.715 1.535 7.831 1.645 8.735 0.1857 1.536 0.5146 3.059 1.36 6.299 0.4094 1.569 0.9412 3.762 1.182 4.873 0.2405 1.111 0.8289 3.251 1.308 4.754s0.9738 3.161 1.1 3.684c0.4323 1.786 2.665 8.315 3.984 11.65 0.7242 1.83 1.558 4.023 1.853 4.873 0.4659 1.342 1.188 3.083 2.656 6.404 2.712 6.135 7.078 15.01 8.775 17.84 0.6663 1.111 1.374 2.313 1.572 2.672 0.5714 1.032 3.093 4.593 4.654 6.571 2.265 2.872 6.936 7.378 9.555 9.219 7.549 5.306 16.51 7.443 24.76 5.903 6.053-1.13 13.11-4.087 20.32-8.521 1.417-0.8708 2.652-1.581 2.746-1.579 0.09327 0.00235 0.5162 0.5321 0.9399 1.177l0.7703 1.173-3.158 1.876c-10.71 6.364-17.95 8.916-26.08 9.19-2.159 0.07275-4.104-9e-4 -5.492-0.208z" style="fill:#ae2e24;stroke-width:.2382"/>
   <path d="m544 272.9c-11.46-1.71-20.62-7.792-28.67-19.05-2.741-3.833-4.858-7.435-7.742-13.17-9.63-19.16-16.08-38.1-19.7-57.83-0.5904-3.217-1.073-6.058-1.073-6.314 0-0.3392 0.201-0.4954 0.7384-0.5739 0.418-0.06108 0.7713 0.00456 0.8142 0.1513 0.04165 0.1426 0.414 2.185 0.8273 4.538 0.9427 5.366 1.021 5.753 2.197 10.82 1.948 8.387 4.982 18.47 7.549 25.08 0.4062 1.046 1.176 3.078 1.711 4.516 0.5349 1.438 1.186 3.068 1.447 3.622 0.2609 0.5542 0.4743 1.058 0.4743 1.12s0.4835 1.142 1.074 2.402 1.074 2.34 1.074 2.401c0 0.3351 6.293 13.05 7.513 15.18 0.9865 1.722 2.246 3.791 2.749 4.516 2.605 3.755 5.691 7.683 7.186 9.144 2.366 2.313 4.31 3.98 6.01 5.156 1.083 0.7495 2.085 1.475 2.226 1.613 0.141 0.1376 0.8394 0.5165 1.552 0.842s1.349 0.6464 1.415 0.7131c0.5991 0.609 5.542 2.397 8.118 2.936 3.394 0.7108 4.295 0.7981 7.693 0.7454 4.786-0.07424 8.669-0.9309 13.92-3.072 2.779-1.132 8.229-3.881 10.83-5.463 1.128-0.6856 2.445-1.481 2.926-1.768l0.8744-0.5212 0.5025 0.7026 0.5025 0.7025-3.168 1.882c-10.72 6.37-17.96 8.922-26.09 9.196-2.159 0.07275-4.104-9e-4 -5.492-0.208z" style="fill:#871a1b;stroke-width:.2382"/>
   <path d="m544.3 272.9c-9.75-1.454-17.72-6.018-24.95-14.28-4.277-4.891-7.671-10.16-11.7-18.18-9.712-19.33-16.24-38.59-19.84-58.54-0.8863-4.91-1.026-6.293-0.5904-5.859 0.1322 0.1316 1.379 6.416 1.912 9.64 0.2198 1.329 0.6593 3.415 0.9767 4.635s0.853 3.449 1.19 4.952c1.053 4.695 4.863 16.86 6.923 22.11 0.6931 1.765 1.586 4.065 1.984 5.111 0.6661 1.75 2.531 6.095 4.235 9.864 1.765 3.906 6.412 12.98 7.91 15.45 8.226 13.56 17.68 21.27 29.28 23.88 0.8946 0.2015 1.924 0.3664 2.288 0.3664 0.3639 0 0.7247 0.0627 0.8016 0.1393 0.1331 0.1325 1.738 0.2586 4.357 0.3425 3.181 0.1019 9.683-1.312 13.73-2.985 0.8536-0.353 1.874-0.7638 2.268-0.9129 1.472-0.5572 6.319-3.116 9.558-5.046 3.352-1.998 3.785-2.188 4.041-1.775 0.3072 0.4948-9.827 6.097-14.43 7.979-6.967 2.846-14.17 3.97-19.94 3.111z" style="fill:#791415;stroke-width:.2382"/>
  </g>
  <circle cx="577.2" cy="243.5" r="10.6" style="fill:url(#SVGID_203_)"/>
  <polygon transform="translate(-749.9,-437.5)" points="1320 690.4 1317 696.5 1338 696.5 1334 690.4" style="fill:url(#SVGID_204_)"/>
  <rect x="564.6" y="257.8" width="25.2" height="4.2" style="fill:url(#SVGID_205_)"/>
  <rect x="566.7" y="262" width="20.5" height="2.3" style="fill:url(#SVGID_206_)"/>
  <rect x="555.9" y="422.4" width="42.5" height="3.2" style="fill:url(#SVGID_207_)"/>
  <rect x="549" y="425.5" width="56.4" height="6" style="fill:url(#SVGID_208_)"/>
  <rect x="481.6" y="165.9" width="11.1" height="130.6" style="fill:url(#SVGID_209_)"/>
  <circle cx="487.1" cy="151.9" r="8.6" style="fill:url(#SVGID_210_)"/>
  <polygon transform="translate(-749.9,-437.5)" points="1231 597 1228 601.9 1246 601.9 1243 597" style="fill:url(#SVGID_211_)"/>
  <rect x="476.9" y="163.4" width="20.4" height="3.4" style="fill:url(#SVGID_212_)"/>
  <rect x="478.6" y="166.8" width="16.6" height="1.8" style="fill:url(#SVGID_213_)"/>
  <rect x="470" y="296.5" width="34.3" height="2.6" style="fill:url(#SVGID_214_)"/>
  <rect x="464.3" y="299" width="45.6" height="4.9" style="fill:url(#SVGID_215_)"/>
  <rect x="420" y="103.7" width="9.6" height="113.4" style="fill:url(#SVGID_216_)"/>
  <circle cx="424.8" cy="91.5" r="7.5" style="fill:url(#SVGID_217_)"/>
  <polygon transform="translate(-749.9,-437.5)" points="1170 535.6 1167 539.9 1182 539.9 1180 535.6" style="fill:url(#SVGID_218_)"/>
  <rect x="416" y="101.6" width="17.7" height="2.9" style="fill:url(#SVGID_219_)"/>
  <rect x="417.5" y="104.5" width="14.4" height="1.6" style="fill:url(#SVGID_220_)"/>
  <rect x="409.9" y="217.2" width="29.8" height="2.3" style="fill:url(#SVGID_221_)"/>
  <rect x="405" y="219.3" width="39.6" height="4.2" style="fill:url(#SVGID_222_)"/>
  <polygon transform="translate(-749.9,-437.5)" points="1100 654.7 1053 654.7 904.6 869 1100 869 1295 869 1147 654.7" style="fill:url(#SVGID_223_)"/>
  <polygon transform="translate(-749.9,-437.5)" points="1057 654.7 913.8 869 918.1 869 1059 654.7" style="fill:url(#SVGID_224_)"/>
  <polygon transform="translate(-749.9,-437.5)" points="1144 654.7 1288 869 1283 869 1142 654.7" style="fill:url(#SVGID_225_)"/>
 </g>
</svg>
