<svg id="esv" width="787.7" height="600" version="1.1" viewBox="0 0 787.72876 599.91678" xmlns="http://www.w3.org/2000/svg">
 <defs>
  <linearGradient id="SVGID_225_" x1="1150" x2="1150" y1="652.7" y2="871.1" gradientTransform="matrix(-1,0,0,1,2365,0)" gradientUnits="userSpaceOnUse">
   <stop style="stop-color:#E8C069" offset="0"/>
   <stop style="stop-color:#E9C26C" offset=".05817"/>
   <stop style="stop-color:#EBC776" offset=".1185"/>
   <stop style="stop-color:#EECF87" offset=".1797"/>
   <stop style="stop-color:#F3DA9E" offset=".2417"/>
   <stop style="stop-color:#F9EABE" offset=".3035"/>
   <stop style="stop-color:#FFFCDD" offset=".3498"/>
   <stop style="stop-color:#F8EAC3" offset=".3738"/>
   <stop style="stop-color:#E1BA72" offset=".4663"/>
   <stop style="stop-color:#D59F41" offset=".5309"/>
   <stop style="stop-color:#D09530" offset=".5616"/>
   <stop style="stop-color:#895323" offset=".798"/>
   <stop style="stop-color:#E8C069" offset="1"/>
  </linearGradient>
  <linearGradient id="SVGID_224_" x1="986.2" x2="986.2" y1="652.7" y2="871.1" gradientUnits="userSpaceOnUse">
   <stop style="stop-color:#E8C069" offset="0"/>
   <stop style="stop-color:#E9C26C" offset=".05817"/>
   <stop style="stop-color:#EBC776" offset=".1185"/>
   <stop style="stop-color:#EECF87" offset=".1797"/>
   <stop style="stop-color:#F3DA9E" offset=".2417"/>
   <stop style="stop-color:#F9EABE" offset=".3035"/>
   <stop style="stop-color:#FFFCDD" offset=".3498"/>
   <stop style="stop-color:#F8EAC3" offset=".3738"/>
   <stop style="stop-color:#E1BA72" offset=".4663"/>
   <stop style="stop-color:#D59F41" offset=".5309"/>
   <stop style="stop-color:#D09530" offset=".5616"/>
   <stop style="stop-color:#895323" offset=".798"/>
   <stop style="stop-color:#E8C069" offset="1"/>
  </linearGradient>
  <linearGradient id="SVGID_223_" x1="1100" x2="1100" y1="652.7" y2="871.1" gradientUnits="userSpaceOnUse">
   <stop style="stop-color:#F04E29" offset="0"/>
   <stop style="stop-color:#D13020" offset=".2881"/>
   <stop style="stop-color:#BF191B" offset=".5123"/>
   <stop style="stop-color:#9A1617" offset=".6957"/>
   <stop style="stop-color:#7E1214" offset=".891"/>
   <stop style="stop-color:#741112" offset="1"/>
  </linearGradient>
  <linearGradient id="SVGID_222_" x1="-3211" x2="-3154" y1="659" y2="659" gradientTransform="matrix(-1,0,0,1,-2755,-437.5)" gradientUnits="userSpaceOnUse">
   <stop style="stop-color:#E8C069" offset="0"/>
   <stop style="stop-color:#E9C26C" offset=".05817"/>
   <stop style="stop-color:#EBC776" offset=".1185"/>
   <stop style="stop-color:#EECF87" offset=".1797"/>
   <stop style="stop-color:#F3DA9E" offset=".2417"/>
   <stop style="stop-color:#F9EABE" offset=".3035"/>
   <stop style="stop-color:#FFFCDD" offset=".3498"/>
   <stop style="stop-color:#F8EAC3" offset=".3738"/>
   <stop style="stop-color:#E1BA72" offset=".4663"/>
   <stop style="stop-color:#D59F41" offset=".5309"/>
   <stop style="stop-color:#D09530" offset=".5616"/>
   <stop style="stop-color:#895323" offset=".798"/>
   <stop style="stop-color:#E8C069" offset="1"/>
  </linearGradient>
  <linearGradient id="SVGID_221_" x1="-3199" x2="-3163" y1="655.8" y2="655.8" gradientTransform="matrix(-1,0,0,1,-2755,-437.5)" gradientUnits="userSpaceOnUse">
   <stop style="stop-color:#E8C069" offset="0"/>
   <stop style="stop-color:#E9C26C" offset=".05817"/>
   <stop style="stop-color:#EBC776" offset=".1185"/>
   <stop style="stop-color:#EECF87" offset=".1797"/>
   <stop style="stop-color:#F3DA9E" offset=".2417"/>
   <stop style="stop-color:#F9EABE" offset=".3035"/>
   <stop style="stop-color:#FFFCDD" offset=".3498"/>
   <stop style="stop-color:#F8EAC3" offset=".3738"/>
   <stop style="stop-color:#E1BA72" offset=".4663"/>
   <stop style="stop-color:#D59F41" offset=".5309"/>
   <stop style="stop-color:#D09530" offset=".5616"/>
   <stop style="stop-color:#895323" offset=".798"/>
   <stop style="stop-color:#E8C069" offset="1"/>
  </linearGradient>
  <linearGradient id="SVGID_220_" x1="-3189" x2="-3172" y1="542.8" y2="542.8" gradientTransform="matrix(-1,0,0,1,-2755,-437.5)" gradientUnits="userSpaceOnUse">
   <stop style="stop-color:#E8C069" offset="0"/>
   <stop style="stop-color:#E9C26C" offset=".05817"/>
   <stop style="stop-color:#EBC776" offset=".1185"/>
   <stop style="stop-color:#EECF87" offset=".1797"/>
   <stop style="stop-color:#F3DA9E" offset=".2417"/>
   <stop style="stop-color:#F9EABE" offset=".3035"/>
   <stop style="stop-color:#FFFCDD" offset=".3498"/>
   <stop style="stop-color:#F8EAC3" offset=".3738"/>
   <stop style="stop-color:#E1BA72" offset=".4663"/>
   <stop style="stop-color:#D59F41" offset=".5309"/>
   <stop style="stop-color:#D09530" offset=".5616"/>
   <stop style="stop-color:#895323" offset=".798"/>
   <stop style="stop-color:#E8C069" offset="1"/>
  </linearGradient>
  <linearGradient id="SVGID_219_" x1="-3191" x2="-3170" y1="540.6" y2="540.6" gradientTransform="matrix(-1,0,0,1,-2755,-437.5)" gradientUnits="userSpaceOnUse">
   <stop style="stop-color:#E8C069" offset="0"/>
   <stop style="stop-color:#E9C26C" offset=".05817"/>
   <stop style="stop-color:#EBC776" offset=".1185"/>
   <stop style="stop-color:#EECF87" offset=".1797"/>
   <stop style="stop-color:#F3DA9E" offset=".2417"/>
   <stop style="stop-color:#F9EABE" offset=".3035"/>
   <stop style="stop-color:#FFFCDD" offset=".3498"/>
   <stop style="stop-color:#F8EAC3" offset=".3738"/>
   <stop style="stop-color:#E1BA72" offset=".4663"/>
   <stop style="stop-color:#D59F41" offset=".5309"/>
   <stop style="stop-color:#D09530" offset=".5616"/>
   <stop style="stop-color:#895323" offset=".798"/>
   <stop style="stop-color:#E8C069" offset="1"/>
  </linearGradient>
  <linearGradient id="SVGID_218_" x1="-3187" x2="-3172" y1="537.8" y2="537.8" gradientTransform="matrix(-1,0,0,1,-2005,0)" gradientUnits="userSpaceOnUse">
   <stop style="stop-color:#E8C069" offset="0"/>
   <stop style="stop-color:#E9C26C" offset=".05817"/>
   <stop style="stop-color:#EBC776" offset=".1185"/>
   <stop style="stop-color:#EECF87" offset=".1797"/>
   <stop style="stop-color:#F3DA9E" offset=".2417"/>
   <stop style="stop-color:#F9EABE" offset=".3035"/>
   <stop style="stop-color:#FFFCDD" offset=".3498"/>
   <stop style="stop-color:#F8EAC3" offset=".3738"/>
   <stop style="stop-color:#E1BA72" offset=".4663"/>
   <stop style="stop-color:#D59F41" offset=".5309"/>
   <stop style="stop-color:#D09530" offset=".5616"/>
   <stop style="stop-color:#895323" offset=".798"/>
   <stop style="stop-color:#E8C069" offset="1"/>
  </linearGradient>
  <radialGradient id="SVGID_217_" cx="-3181" cy="526.3" r="10.18" gradientTransform="matrix(-1 0 0 .9221 -2755 -396.5)" gradientUnits="userSpaceOnUse">
   <stop style="stop-color:#FFFCDD" offset="0"/>
   <stop style="stop-color:#F5E1AC" offset=".1453"/>
   <stop style="stop-color:#ECC97C" offset=".3202"/>
   <stop style="stop-color:#E8C069" offset=".4039"/>
   <stop style="stop-color:#E7BD65" offset=".4754"/>
   <stop style="stop-color:#E2B55A" offset=".5494"/>
   <stop style="stop-color:#DAA847" offset=".6246"/>
   <stop style="stop-color:#D19631" offset=".7002"/>
   <stop style="stop-color:#D09530" offset=".7044"/>
   <stop style="stop-color:#895323" offset="1"/>
  </radialGradient>
  <linearGradient id="SVGID_216_" x1="-3186" x2="-3174" y1="598" y2="598" gradientTransform="matrix(-1,0,0,1,-2755,-437.5)" gradientUnits="userSpaceOnUse">
   <stop style="stop-color:#E8C069" offset="0"/>
   <stop style="stop-color:#E9C26C" offset=".05817"/>
   <stop style="stop-color:#EBC776" offset=".1185"/>
   <stop style="stop-color:#EECF87" offset=".1797"/>
   <stop style="stop-color:#F3DA9E" offset=".2417"/>
   <stop style="stop-color:#F9EABE" offset=".3035"/>
   <stop style="stop-color:#FFFCDD" offset=".3498"/>
   <stop style="stop-color:#F8EAC3" offset=".3738"/>
   <stop style="stop-color:#E1BA72" offset=".4663"/>
   <stop style="stop-color:#D59F41" offset=".5309"/>
   <stop style="stop-color:#D09530" offset=".5616"/>
   <stop style="stop-color:#895323" offset=".798"/>
   <stop style="stop-color:#E8C069" offset="1"/>
  </linearGradient>
  <linearGradient id="SVGID_215_" x1="-3278" x2="-3213" y1="738.9" y2="738.9" gradientTransform="matrix(-1,0,0,1,-2755,-437.5)" gradientUnits="userSpaceOnUse">
   <stop style="stop-color:#E8C069" offset="0"/>
   <stop style="stop-color:#E9C26C" offset=".05817"/>
   <stop style="stop-color:#EBC776" offset=".1185"/>
   <stop style="stop-color:#EECF87" offset=".1797"/>
   <stop style="stop-color:#F3DA9E" offset=".2417"/>
   <stop style="stop-color:#F9EABE" offset=".3035"/>
   <stop style="stop-color:#FFFCDD" offset=".3498"/>
   <stop style="stop-color:#F8EAC3" offset=".3738"/>
   <stop style="stop-color:#E1BA72" offset=".4663"/>
   <stop style="stop-color:#D59F41" offset=".5309"/>
   <stop style="stop-color:#D09530" offset=".5616"/>
   <stop style="stop-color:#895323" offset=".798"/>
   <stop style="stop-color:#E8C069" offset="1"/>
  </linearGradient>
  <linearGradient id="SVGID_214_" x1="-3264" x2="-3223" y1="735.3" y2="735.3" gradientTransform="matrix(-1,0,0,1,-2755,-437.5)" gradientUnits="userSpaceOnUse">
   <stop style="stop-color:#E8C069" offset="0"/>
   <stop style="stop-color:#E9C26C" offset=".05817"/>
   <stop style="stop-color:#EBC776" offset=".1185"/>
   <stop style="stop-color:#EECF87" offset=".1797"/>
   <stop style="stop-color:#F3DA9E" offset=".2417"/>
   <stop style="stop-color:#F9EABE" offset=".3035"/>
   <stop style="stop-color:#FFFCDD" offset=".3498"/>
   <stop style="stop-color:#F8EAC3" offset=".3738"/>
   <stop style="stop-color:#E1BA72" offset=".4663"/>
   <stop style="stop-color:#D59F41" offset=".5309"/>
   <stop style="stop-color:#D09530" offset=".5616"/>
   <stop style="stop-color:#895323" offset=".798"/>
   <stop style="stop-color:#E8C069" offset="1"/>
  </linearGradient>
  <linearGradient id="SVGID_213_" x1="-3253" x2="-3233" y1="605.2" y2="605.2" gradientTransform="matrix(-1,0,0,1,-2755,-437.5)" gradientUnits="userSpaceOnUse">
   <stop style="stop-color:#E8C069" offset="0"/>
   <stop style="stop-color:#E9C26C" offset=".05817"/>
   <stop style="stop-color:#EBC776" offset=".1185"/>
   <stop style="stop-color:#EECF87" offset=".1797"/>
   <stop style="stop-color:#F3DA9E" offset=".2417"/>
   <stop style="stop-color:#F9EABE" offset=".3035"/>
   <stop style="stop-color:#FFFCDD" offset=".3498"/>
   <stop style="stop-color:#F8EAC3" offset=".3738"/>
   <stop style="stop-color:#E1BA72" offset=".4663"/>
   <stop style="stop-color:#D59F41" offset=".5309"/>
   <stop style="stop-color:#D09530" offset=".5616"/>
   <stop style="stop-color:#895323" offset=".798"/>
   <stop style="stop-color:#E8C069" offset="1"/>
  </linearGradient>
  <linearGradient id="SVGID_212_" x1="-3255" x2="-3231" y1="602.6" y2="602.6" gradientTransform="matrix(-1,0,0,1,-2755,-437.5)" gradientUnits="userSpaceOnUse">
   <stop style="stop-color:#E8C069" offset="0"/>
   <stop style="stop-color:#E9C26C" offset=".05817"/>
   <stop style="stop-color:#EBC776" offset=".1185"/>
   <stop style="stop-color:#EECF87" offset=".1797"/>
   <stop style="stop-color:#F3DA9E" offset=".2417"/>
   <stop style="stop-color:#F9EABE" offset=".3035"/>
   <stop style="stop-color:#FFFCDD" offset=".3498"/>
   <stop style="stop-color:#F8EAC3" offset=".3738"/>
   <stop style="stop-color:#E1BA72" offset=".4663"/>
   <stop style="stop-color:#D59F41" offset=".5309"/>
   <stop style="stop-color:#D09530" offset=".5616"/>
   <stop style="stop-color:#895323" offset=".798"/>
   <stop style="stop-color:#E8C069" offset="1"/>
  </linearGradient>
  <linearGradient id="SVGID_211_" x1="-3251" x2="-3234" y1="599.4" y2="599.4" gradientTransform="matrix(-1,0,0,1,-2005,0)" gradientUnits="userSpaceOnUse">
   <stop style="stop-color:#E8C069" offset="0"/>
   <stop style="stop-color:#E9C26C" offset=".05817"/>
   <stop style="stop-color:#EBC776" offset=".1185"/>
   <stop style="stop-color:#EECF87" offset=".1797"/>
   <stop style="stop-color:#F3DA9E" offset=".2417"/>
   <stop style="stop-color:#F9EABE" offset=".3035"/>
   <stop style="stop-color:#FFFCDD" offset=".3498"/>
   <stop style="stop-color:#F8EAC3" offset=".3738"/>
   <stop style="stop-color:#E1BA72" offset=".4663"/>
   <stop style="stop-color:#D59F41" offset=".5309"/>
   <stop style="stop-color:#D09530" offset=".5616"/>
   <stop style="stop-color:#895323" offset=".798"/>
   <stop style="stop-color:#E8C069" offset="1"/>
  </linearGradient>
  <radialGradient id="SVGID_210_" cx="-3243" cy="586.2" r="11.71" gradientTransform="matrix(-1 0 0 .9221 -2755 -391.8)" gradientUnits="userSpaceOnUse">
   <stop style="stop-color:#FFFCDD" offset="0"/>
   <stop style="stop-color:#F5E1AC" offset=".1453"/>
   <stop style="stop-color:#ECC97C" offset=".3202"/>
   <stop style="stop-color:#E8C069" offset=".4039"/>
   <stop style="stop-color:#E7BD65" offset=".4754"/>
   <stop style="stop-color:#E2B55A" offset=".5494"/>
   <stop style="stop-color:#DAA847" offset=".6246"/>
   <stop style="stop-color:#D19631" offset=".7002"/>
   <stop style="stop-color:#D09530" offset=".7044"/>
   <stop style="stop-color:#895323" offset="1"/>
  </radialGradient>
  <linearGradient id="SVGID_209_" x1="-3249" x2="-3236" y1="668.7" y2="668.7" gradientTransform="matrix(-1,0,0,1,-2755,-437.5)" gradientUnits="userSpaceOnUse">
   <stop style="stop-color:#E8C069" offset="0"/>
   <stop style="stop-color:#E9C26C" offset=".05817"/>
   <stop style="stop-color:#EBC776" offset=".1185"/>
   <stop style="stop-color:#EECF87" offset=".1797"/>
   <stop style="stop-color:#F3DA9E" offset=".2417"/>
   <stop style="stop-color:#F9EABE" offset=".3035"/>
   <stop style="stop-color:#FFFCDD" offset=".3498"/>
   <stop style="stop-color:#F8EAC3" offset=".3738"/>
   <stop style="stop-color:#E1BA72" offset=".4663"/>
   <stop style="stop-color:#D59F41" offset=".5309"/>
   <stop style="stop-color:#D09530" offset=".5616"/>
   <stop style="stop-color:#895323" offset=".798"/>
   <stop style="stop-color:#E8C069" offset="1"/>
  </linearGradient>
  <linearGradient id="SVGID_208_" x1="-3377" x2="-3296" y1="866" y2="866" gradientTransform="matrix(-1,0,0,1,-2755,-437.5)" gradientUnits="userSpaceOnUse">
   <stop style="stop-color:#E8C069" offset="0"/>
   <stop style="stop-color:#E9C26C" offset=".05817"/>
   <stop style="stop-color:#EBC776" offset=".1185"/>
   <stop style="stop-color:#EECF87" offset=".1797"/>
   <stop style="stop-color:#F3DA9E" offset=".2417"/>
   <stop style="stop-color:#F9EABE" offset=".3035"/>
   <stop style="stop-color:#FFFCDD" offset=".3498"/>
   <stop style="stop-color:#F8EAC3" offset=".3738"/>
   <stop style="stop-color:#E1BA72" offset=".4663"/>
   <stop style="stop-color:#D59F41" offset=".5309"/>
   <stop style="stop-color:#D09530" offset=".5616"/>
   <stop style="stop-color:#895323" offset=".798"/>
   <stop style="stop-color:#E8C069" offset="1"/>
  </linearGradient>
  <linearGradient id="SVGID_207_" x1="-3360" x2="-3309" y1="861.5" y2="861.5" gradientTransform="matrix(-1,0,0,1,-2755,-437.5)" gradientUnits="userSpaceOnUse">
   <stop style="stop-color:#E8C069" offset="0"/>
   <stop style="stop-color:#E9C26C" offset=".05817"/>
   <stop style="stop-color:#EBC776" offset=".1185"/>
   <stop style="stop-color:#EECF87" offset=".1797"/>
   <stop style="stop-color:#F3DA9E" offset=".2417"/>
   <stop style="stop-color:#F9EABE" offset=".3035"/>
   <stop style="stop-color:#FFFCDD" offset=".3498"/>
   <stop style="stop-color:#F8EAC3" offset=".3738"/>
   <stop style="stop-color:#E1BA72" offset=".4663"/>
   <stop style="stop-color:#D59F41" offset=".5309"/>
   <stop style="stop-color:#D09530" offset=".5616"/>
   <stop style="stop-color:#895323" offset=".798"/>
   <stop style="stop-color:#E8C069" offset="1"/>
  </linearGradient>
  <linearGradient id="SVGID_206_" x1="-3345" x2="-3321" y1="700.6" y2="700.6" gradientTransform="matrix(-1,0,0,1,-2755,-437.5)" gradientUnits="userSpaceOnUse">
   <stop style="stop-color:#E8C069" offset="0"/>
   <stop style="stop-color:#E9C26C" offset=".05817"/>
   <stop style="stop-color:#EBC776" offset=".1185"/>
   <stop style="stop-color:#EECF87" offset=".1797"/>
   <stop style="stop-color:#F3DA9E" offset=".2417"/>
   <stop style="stop-color:#F9EABE" offset=".3035"/>
   <stop style="stop-color:#FFFCDD" offset=".3498"/>
   <stop style="stop-color:#F8EAC3" offset=".3738"/>
   <stop style="stop-color:#E1BA72" offset=".4663"/>
   <stop style="stop-color:#D59F41" offset=".5309"/>
   <stop style="stop-color:#D09530" offset=".5616"/>
   <stop style="stop-color:#895323" offset=".798"/>
   <stop style="stop-color:#E8C069" offset="1"/>
  </linearGradient>
  <linearGradient id="SVGID_205_" x1="-3349" x2="-3318" y1="697.4" y2="697.4" gradientTransform="matrix(-1,0,0,1,-2755,-437.5)" gradientUnits="userSpaceOnUse">
   <stop style="stop-color:#E8C069" offset="0"/>
   <stop style="stop-color:#E9C26C" offset=".05817"/>
   <stop style="stop-color:#EBC776" offset=".1185"/>
   <stop style="stop-color:#EECF87" offset=".1797"/>
   <stop style="stop-color:#F3DA9E" offset=".2417"/>
   <stop style="stop-color:#F9EABE" offset=".3035"/>
   <stop style="stop-color:#FFFCDD" offset=".3498"/>
   <stop style="stop-color:#F8EAC3" offset=".3738"/>
   <stop style="stop-color:#E1BA72" offset=".4663"/>
   <stop style="stop-color:#D59F41" offset=".5309"/>
   <stop style="stop-color:#D09530" offset=".5616"/>
   <stop style="stop-color:#895323" offset=".798"/>
   <stop style="stop-color:#E8C069" offset="1"/>
  </linearGradient>
  <linearGradient id="SVGID_204_" x1="-3343" x2="-3322" y1="693.4" y2="693.4" gradientTransform="matrix(-1,0,0,1,-2005,0)" gradientUnits="userSpaceOnUse">
   <stop style="stop-color:#E8C069" offset="0"/>
   <stop style="stop-color:#E9C26C" offset=".05817"/>
   <stop style="stop-color:#EBC776" offset=".1185"/>
   <stop style="stop-color:#EECF87" offset=".1797"/>
   <stop style="stop-color:#F3DA9E" offset=".2417"/>
   <stop style="stop-color:#F9EABE" offset=".3035"/>
   <stop style="stop-color:#FFFCDD" offset=".3498"/>
   <stop style="stop-color:#F8EAC3" offset=".3738"/>
   <stop style="stop-color:#E1BA72" offset=".4663"/>
   <stop style="stop-color:#D59F41" offset=".5309"/>
   <stop style="stop-color:#D09530" offset=".5616"/>
   <stop style="stop-color:#895323" offset=".798"/>
   <stop style="stop-color:#E8C069" offset="1"/>
  </linearGradient>
  <radialGradient id="SVGID_203_" cx="-3333" cy="677.1" r="14.49" gradientTransform="matrix(-1 0 0 .9221 -2755 -384.8)" gradientUnits="userSpaceOnUse">
   <stop style="stop-color:#FFFCDD" offset="0"/>
   <stop style="stop-color:#F5E1AC" offset=".1453"/>
   <stop style="stop-color:#ECC97C" offset=".3202"/>
   <stop style="stop-color:#E8C069" offset=".4039"/>
   <stop style="stop-color:#E7BD65" offset=".4754"/>
   <stop style="stop-color:#E2B55A" offset=".5494"/>
   <stop style="stop-color:#DAA847" offset=".6246"/>
   <stop style="stop-color:#D19631" offset=".7002"/>
   <stop style="stop-color:#D09530" offset=".7044"/>
   <stop style="stop-color:#895323" offset="1"/>
  </radialGradient>
  <linearGradient id="SVGID_202_" x1="-3341" x2="-3325" y1="779.1" y2="779.1" gradientTransform="matrix(-1,0,0,1,-2755,-437.5)" gradientUnits="userSpaceOnUse">
   <stop style="stop-color:#E8C069" offset="0"/>
   <stop style="stop-color:#E9C26C" offset=".05817"/>
   <stop style="stop-color:#EBC776" offset=".1185"/>
   <stop style="stop-color:#EECF87" offset=".1797"/>
   <stop style="stop-color:#F3DA9E" offset=".2417"/>
   <stop style="stop-color:#F9EABE" offset=".3035"/>
   <stop style="stop-color:#FFFCDD" offset=".3498"/>
   <stop style="stop-color:#F8EAC3" offset=".3738"/>
   <stop style="stop-color:#E1BA72" offset=".4663"/>
   <stop style="stop-color:#D59F41" offset=".5309"/>
   <stop style="stop-color:#D09530" offset=".5616"/>
   <stop style="stop-color:#895323" offset=".798"/>
   <stop style="stop-color:#E8C069" offset="1"/>
  </linearGradient>
  <linearGradient id="SVGID_201_" x1="989.5" x2="1046" y1="659" y2="659" gradientTransform="translate(-749.9,-437.5)" gradientUnits="userSpaceOnUse">
   <stop style="stop-color:#E8C069" offset="0"/>
   <stop style="stop-color:#E9C26C" offset=".05817"/>
   <stop style="stop-color:#EBC776" offset=".1185"/>
   <stop style="stop-color:#EECF87" offset=".1797"/>
   <stop style="stop-color:#F3DA9E" offset=".2417"/>
   <stop style="stop-color:#F9EABE" offset=".3035"/>
   <stop style="stop-color:#FFFCDD" offset=".3498"/>
   <stop style="stop-color:#F8EAC3" offset=".3738"/>
   <stop style="stop-color:#E1BA72" offset=".4663"/>
   <stop style="stop-color:#D59F41" offset=".5309"/>
   <stop style="stop-color:#D09530" offset=".5616"/>
   <stop style="stop-color:#895323" offset=".798"/>
   <stop style="stop-color:#E8C069" offset="1"/>
  </linearGradient>
  <linearGradient id="SVGID_200_" x1="1001" x2="1037" y1="655.8" y2="655.8" gradientTransform="translate(-749.9,-437.5)" gradientUnits="userSpaceOnUse">
   <stop style="stop-color:#E8C069" offset="0"/>
   <stop style="stop-color:#E9C26C" offset=".05817"/>
   <stop style="stop-color:#EBC776" offset=".1185"/>
   <stop style="stop-color:#EECF87" offset=".1797"/>
   <stop style="stop-color:#F3DA9E" offset=".2417"/>
   <stop style="stop-color:#F9EABE" offset=".3035"/>
   <stop style="stop-color:#FFFCDD" offset=".3498"/>
   <stop style="stop-color:#F8EAC3" offset=".3738"/>
   <stop style="stop-color:#E1BA72" offset=".4663"/>
   <stop style="stop-color:#D59F41" offset=".5309"/>
   <stop style="stop-color:#D09530" offset=".5616"/>
   <stop style="stop-color:#895323" offset=".798"/>
   <stop style="stop-color:#E8C069" offset="1"/>
  </linearGradient>
  <linearGradient id="SVGID_199_" x1="1012" x2="1029" y1="542.8" y2="542.8" gradientTransform="translate(-749.9,-437.5)" gradientUnits="userSpaceOnUse">
   <stop style="stop-color:#E8C069" offset="0"/>
   <stop style="stop-color:#E9C26C" offset=".05817"/>
   <stop style="stop-color:#EBC776" offset=".1185"/>
   <stop style="stop-color:#EECF87" offset=".1797"/>
   <stop style="stop-color:#F3DA9E" offset=".2417"/>
   <stop style="stop-color:#F9EABE" offset=".3035"/>
   <stop style="stop-color:#FFFCDD" offset=".3498"/>
   <stop style="stop-color:#F8EAC3" offset=".3738"/>
   <stop style="stop-color:#E1BA72" offset=".4663"/>
   <stop style="stop-color:#D59F41" offset=".5309"/>
   <stop style="stop-color:#D09530" offset=".5616"/>
   <stop style="stop-color:#895323" offset=".798"/>
   <stop style="stop-color:#E8C069" offset="1"/>
  </linearGradient>
  <linearGradient id="SVGID_198_" x1="1009" x2="1031" y1="540.6" y2="540.6" gradientTransform="translate(-749.9,-437.5)" gradientUnits="userSpaceOnUse">
   <stop style="stop-color:#E8C069" offset="0"/>
   <stop style="stop-color:#E9C26C" offset=".05817"/>
   <stop style="stop-color:#EBC776" offset=".1185"/>
   <stop style="stop-color:#EECF87" offset=".1797"/>
   <stop style="stop-color:#F3DA9E" offset=".2417"/>
   <stop style="stop-color:#F9EABE" offset=".3035"/>
   <stop style="stop-color:#FFFCDD" offset=".3498"/>
   <stop style="stop-color:#F8EAC3" offset=".3738"/>
   <stop style="stop-color:#E1BA72" offset=".4663"/>
   <stop style="stop-color:#D59F41" offset=".5309"/>
   <stop style="stop-color:#D09530" offset=".5616"/>
   <stop style="stop-color:#895323" offset=".798"/>
   <stop style="stop-color:#E8C069" offset="1"/>
  </linearGradient>
  <linearGradient id="SVGID_197_" x1="1013" x2="1028" y1="537.8" y2="537.8" gradientUnits="userSpaceOnUse">
   <stop style="stop-color:#E8C069" offset="0"/>
   <stop style="stop-color:#E9C26C" offset=".05817"/>
   <stop style="stop-color:#EBC776" offset=".1185"/>
   <stop style="stop-color:#EECF87" offset=".1797"/>
   <stop style="stop-color:#F3DA9E" offset=".2417"/>
   <stop style="stop-color:#F9EABE" offset=".3035"/>
   <stop style="stop-color:#FFFCDD" offset=".3498"/>
   <stop style="stop-color:#F8EAC3" offset=".3738"/>
   <stop style="stop-color:#E1BA72" offset=".4663"/>
   <stop style="stop-color:#D59F41" offset=".5309"/>
   <stop style="stop-color:#D09530" offset=".5616"/>
   <stop style="stop-color:#895323" offset=".798"/>
   <stop style="stop-color:#E8C069" offset="1"/>
  </linearGradient>
  <radialGradient id="SVGID_196_" cx="1020" cy="526.3" r="10.18" gradientTransform="matrix(1 0 0 .9221 -749.9 -396.5)" gradientUnits="userSpaceOnUse">
   <stop style="stop-color:#FFFCDD" offset="0"/>
   <stop style="stop-color:#F5E1AC" offset=".1453"/>
   <stop style="stop-color:#ECC97C" offset=".3202"/>
   <stop style="stop-color:#E8C069" offset=".4039"/>
   <stop style="stop-color:#E7BD65" offset=".4754"/>
   <stop style="stop-color:#E2B55A" offset=".5494"/>
   <stop style="stop-color:#DAA847" offset=".6246"/>
   <stop style="stop-color:#D19631" offset=".7002"/>
   <stop style="stop-color:#D09530" offset=".7044"/>
   <stop style="stop-color:#895323" offset="1"/>
  </radialGradient>
  <linearGradient id="SVGID_195_" x1="1014" x2="1026" y1="598" y2="598" gradientTransform="translate(-749.9,-437.5)" gradientUnits="userSpaceOnUse">
   <stop style="stop-color:#E8C069" offset="0"/>
   <stop style="stop-color:#E9C26C" offset=".05817"/>
   <stop style="stop-color:#EBC776" offset=".1185"/>
   <stop style="stop-color:#EECF87" offset=".1797"/>
   <stop style="stop-color:#F3DA9E" offset=".2417"/>
   <stop style="stop-color:#F9EABE" offset=".3035"/>
   <stop style="stop-color:#FFFCDD" offset=".3498"/>
   <stop style="stop-color:#F8EAC3" offset=".3738"/>
   <stop style="stop-color:#E1BA72" offset=".4663"/>
   <stop style="stop-color:#D59F41" offset=".5309"/>
   <stop style="stop-color:#D09530" offset=".5616"/>
   <stop style="stop-color:#895323" offset=".798"/>
   <stop style="stop-color:#E8C069" offset="1"/>
  </linearGradient>
  <linearGradient id="SVGID_194_" x1="922.5" x2="988" y1="738.9" y2="738.9" gradientTransform="translate(-749.9,-437.5)" gradientUnits="userSpaceOnUse">
   <stop style="stop-color:#E8C069" offset="0"/>
   <stop style="stop-color:#E9C26C" offset=".05817"/>
   <stop style="stop-color:#EBC776" offset=".1185"/>
   <stop style="stop-color:#EECF87" offset=".1797"/>
   <stop style="stop-color:#F3DA9E" offset=".2417"/>
   <stop style="stop-color:#F9EABE" offset=".3035"/>
   <stop style="stop-color:#FFFCDD" offset=".3498"/>
   <stop style="stop-color:#F8EAC3" offset=".3738"/>
   <stop style="stop-color:#E1BA72" offset=".4663"/>
   <stop style="stop-color:#D59F41" offset=".5309"/>
   <stop style="stop-color:#D09530" offset=".5616"/>
   <stop style="stop-color:#895323" offset=".798"/>
   <stop style="stop-color:#E8C069" offset="1"/>
  </linearGradient>
  <linearGradient id="SVGID_193_" x1="936.1" x2="977.5" y1="735.3" y2="735.3" gradientTransform="translate(-749.9,-437.5)" gradientUnits="userSpaceOnUse">
   <stop style="stop-color:#E8C069" offset="0"/>
   <stop style="stop-color:#E9C26C" offset=".05817"/>
   <stop style="stop-color:#EBC776" offset=".1185"/>
   <stop style="stop-color:#EECF87" offset=".1797"/>
   <stop style="stop-color:#F3DA9E" offset=".2417"/>
   <stop style="stop-color:#F9EABE" offset=".3035"/>
   <stop style="stop-color:#FFFCDD" offset=".3498"/>
   <stop style="stop-color:#F8EAC3" offset=".3738"/>
   <stop style="stop-color:#E1BA72" offset=".4663"/>
   <stop style="stop-color:#D59F41" offset=".5309"/>
   <stop style="stop-color:#D09530" offset=".5616"/>
   <stop style="stop-color:#895323" offset=".798"/>
   <stop style="stop-color:#E8C069" offset="1"/>
  </linearGradient>
  <linearGradient id="SVGID_192_" x1="947.8" x2="967.9" y1="605.2" y2="605.2" gradientTransform="translate(-749.9,-437.5)" gradientUnits="userSpaceOnUse">
   <stop style="stop-color:#E8C069" offset="0"/>
   <stop style="stop-color:#E9C26C" offset=".05817"/>
   <stop style="stop-color:#EBC776" offset=".1185"/>
   <stop style="stop-color:#EECF87" offset=".1797"/>
   <stop style="stop-color:#F3DA9E" offset=".2417"/>
   <stop style="stop-color:#F9EABE" offset=".3035"/>
   <stop style="stop-color:#FFFCDD" offset=".3498"/>
   <stop style="stop-color:#F8EAC3" offset=".3738"/>
   <stop style="stop-color:#E1BA72" offset=".4663"/>
   <stop style="stop-color:#D59F41" offset=".5309"/>
   <stop style="stop-color:#D09530" offset=".5616"/>
   <stop style="stop-color:#895323" offset=".798"/>
   <stop style="stop-color:#E8C069" offset="1"/>
  </linearGradient>
  <linearGradient id="SVGID_191_" x1="945.2" x2="969.8" y1="602.6" y2="602.6" gradientTransform="translate(-749.9,-437.5)" gradientUnits="userSpaceOnUse">
   <stop style="stop-color:#E8C069" offset="0"/>
   <stop style="stop-color:#E9C26C" offset=".05817"/>
   <stop style="stop-color:#EBC776" offset=".1185"/>
   <stop style="stop-color:#EECF87" offset=".1797"/>
   <stop style="stop-color:#F3DA9E" offset=".2417"/>
   <stop style="stop-color:#F9EABE" offset=".3035"/>
   <stop style="stop-color:#FFFCDD" offset=".3498"/>
   <stop style="stop-color:#F8EAC3" offset=".3738"/>
   <stop style="stop-color:#E1BA72" offset=".4663"/>
   <stop style="stop-color:#D59F41" offset=".5309"/>
   <stop style="stop-color:#D09530" offset=".5616"/>
   <stop style="stop-color:#895323" offset=".798"/>
   <stop style="stop-color:#E8C069" offset="1"/>
  </linearGradient>
  <linearGradient id="SVGID_190_" x1="949.9" x2="966.9" y1="599.4" y2="599.4" gradientUnits="userSpaceOnUse">
   <stop style="stop-color:#E8C069" offset="0"/>
   <stop style="stop-color:#E9C26C" offset=".05817"/>
   <stop style="stop-color:#EBC776" offset=".1185"/>
   <stop style="stop-color:#EECF87" offset=".1797"/>
   <stop style="stop-color:#F3DA9E" offset=".2417"/>
   <stop style="stop-color:#F9EABE" offset=".3035"/>
   <stop style="stop-color:#FFFCDD" offset=".3498"/>
   <stop style="stop-color:#F8EAC3" offset=".3738"/>
   <stop style="stop-color:#E1BA72" offset=".4663"/>
   <stop style="stop-color:#D59F41" offset=".5309"/>
   <stop style="stop-color:#D09530" offset=".5616"/>
   <stop style="stop-color:#895323" offset=".798"/>
   <stop style="stop-color:#E8C069" offset="1"/>
  </linearGradient>
  <radialGradient id="SVGID_189_" cx="957.4" cy="586.2" r="11.71" gradientTransform="matrix(1 0 0 .9221 -749.9 -391.8)" gradientUnits="userSpaceOnUse">
   <stop style="stop-color:#FFFCDD" offset="0"/>
   <stop style="stop-color:#F5E1AC" offset=".1453"/>
   <stop style="stop-color:#ECC97C" offset=".3202"/>
   <stop style="stop-color:#E8C069" offset=".4039"/>
   <stop style="stop-color:#E7BD65" offset=".4754"/>
   <stop style="stop-color:#E2B55A" offset=".5494"/>
   <stop style="stop-color:#DAA847" offset=".6246"/>
   <stop style="stop-color:#D19631" offset=".7002"/>
   <stop style="stop-color:#D09530" offset=".7044"/>
   <stop style="stop-color:#895323" offset="1"/>
  </radialGradient>
  <linearGradient id="SVGID_188_" x1="951.2" x2="964.6" y1="668.7" y2="668.7" gradientTransform="translate(-749.9,-437.5)" gradientUnits="userSpaceOnUse">
   <stop style="stop-color:#E8C069" offset="0"/>
   <stop style="stop-color:#E9C26C" offset=".05817"/>
   <stop style="stop-color:#EBC776" offset=".1185"/>
   <stop style="stop-color:#EECF87" offset=".1797"/>
   <stop style="stop-color:#F3DA9E" offset=".2417"/>
   <stop style="stop-color:#F9EABE" offset=".3035"/>
   <stop style="stop-color:#FFFCDD" offset=".3498"/>
   <stop style="stop-color:#F8EAC3" offset=".3738"/>
   <stop style="stop-color:#E1BA72" offset=".4663"/>
   <stop style="stop-color:#D59F41" offset=".5309"/>
   <stop style="stop-color:#D09530" offset=".5616"/>
   <stop style="stop-color:#895323" offset=".798"/>
   <stop style="stop-color:#E8C069" offset="1"/>
  </linearGradient>
  <linearGradient id="SVGID_187_" x1="823.9" x2="905" y1="866" y2="866" gradientTransform="translate(-749.9,-437.5)" gradientUnits="userSpaceOnUse">
   <stop style="stop-color:#E8C069" offset="0"/>
   <stop style="stop-color:#E9C26C" offset=".05817"/>
   <stop style="stop-color:#EBC776" offset=".1185"/>
   <stop style="stop-color:#EECF87" offset=".1797"/>
   <stop style="stop-color:#F3DA9E" offset=".2417"/>
   <stop style="stop-color:#F9EABE" offset=".3035"/>
   <stop style="stop-color:#FFFCDD" offset=".3498"/>
   <stop style="stop-color:#F8EAC3" offset=".3738"/>
   <stop style="stop-color:#E1BA72" offset=".4663"/>
   <stop style="stop-color:#D59F41" offset=".5309"/>
   <stop style="stop-color:#D09530" offset=".5616"/>
   <stop style="stop-color:#895323" offset=".798"/>
   <stop style="stop-color:#E8C069" offset="1"/>
  </linearGradient>
  <linearGradient id="SVGID_186_" x1="840.8" x2="892" y1="861.5" y2="861.5" gradientTransform="translate(-749.9,-437.5)" gradientUnits="userSpaceOnUse">
   <stop style="stop-color:#E8C069" offset="0"/>
   <stop style="stop-color:#E9C26C" offset=".05817"/>
   <stop style="stop-color:#EBC776" offset=".1185"/>
   <stop style="stop-color:#EECF87" offset=".1797"/>
   <stop style="stop-color:#F3DA9E" offset=".2417"/>
   <stop style="stop-color:#F9EABE" offset=".3035"/>
   <stop style="stop-color:#FFFCDD" offset=".3498"/>
   <stop style="stop-color:#F8EAC3" offset=".3738"/>
   <stop style="stop-color:#E1BA72" offset=".4663"/>
   <stop style="stop-color:#D59F41" offset=".5309"/>
   <stop style="stop-color:#D09530" offset=".5616"/>
   <stop style="stop-color:#895323" offset=".798"/>
   <stop style="stop-color:#E8C069" offset="1"/>
  </linearGradient>
  <linearGradient id="SVGID_185_" x1="855.3" x2="880" y1="700.6" y2="700.6" gradientTransform="translate(-749.9,-437.5)" gradientUnits="userSpaceOnUse">
   <stop style="stop-color:#E8C069" offset="0"/>
   <stop style="stop-color:#E9C26C" offset=".05817"/>
   <stop style="stop-color:#EBC776" offset=".1185"/>
   <stop style="stop-color:#EECF87" offset=".1797"/>
   <stop style="stop-color:#F3DA9E" offset=".2417"/>
   <stop style="stop-color:#F9EABE" offset=".3035"/>
   <stop style="stop-color:#FFFCDD" offset=".3498"/>
   <stop style="stop-color:#F8EAC3" offset=".3738"/>
   <stop style="stop-color:#E1BA72" offset=".4663"/>
   <stop style="stop-color:#D59F41" offset=".5309"/>
   <stop style="stop-color:#D09530" offset=".5616"/>
   <stop style="stop-color:#895323" offset=".798"/>
   <stop style="stop-color:#E8C069" offset="1"/>
  </linearGradient>
  <linearGradient id="SVGID_184_" x1="852" x2="882.4" y1="697.4" y2="697.4" gradientTransform="translate(-749.9,-437.5)" gradientUnits="userSpaceOnUse">
   <stop style="stop-color:#E8C069" offset="0"/>
   <stop style="stop-color:#E9C26C" offset=".05817"/>
   <stop style="stop-color:#EBC776" offset=".1185"/>
   <stop style="stop-color:#EECF87" offset=".1797"/>
   <stop style="stop-color:#F3DA9E" offset=".2417"/>
   <stop style="stop-color:#F9EABE" offset=".3035"/>
   <stop style="stop-color:#FFFCDD" offset=".3498"/>
   <stop style="stop-color:#F8EAC3" offset=".3738"/>
   <stop style="stop-color:#E1BA72" offset=".4663"/>
   <stop style="stop-color:#D59F41" offset=".5309"/>
   <stop style="stop-color:#D09530" offset=".5616"/>
   <stop style="stop-color:#895323" offset=".798"/>
   <stop style="stop-color:#E8C069" offset="1"/>
  </linearGradient>
  <linearGradient id="SVGID_183_" x1="857.9" x2="878.9" y1="693.4" y2="693.4" gradientUnits="userSpaceOnUse">
   <stop style="stop-color:#E8C069" offset="0"/>
   <stop style="stop-color:#E9C26C" offset=".05817"/>
   <stop style="stop-color:#EBC776" offset=".1185"/>
   <stop style="stop-color:#EECF87" offset=".1797"/>
   <stop style="stop-color:#F3DA9E" offset=".2417"/>
   <stop style="stop-color:#F9EABE" offset=".3035"/>
   <stop style="stop-color:#FFFCDD" offset=".3498"/>
   <stop style="stop-color:#F8EAC3" offset=".3738"/>
   <stop style="stop-color:#E1BA72" offset=".4663"/>
   <stop style="stop-color:#D59F41" offset=".5309"/>
   <stop style="stop-color:#D09530" offset=".5616"/>
   <stop style="stop-color:#895323" offset=".798"/>
   <stop style="stop-color:#E8C069" offset="1"/>
  </linearGradient>
  <radialGradient id="SVGID_182_" cx="867.1" cy="677.1" r="14.49" gradientTransform="matrix(1 0 0 .9221 -749.9 -384.8)" gradientUnits="userSpaceOnUse">
   <stop style="stop-color:#FFFCDD" offset="0"/>
   <stop style="stop-color:#F5E1AC" offset=".1453"/>
   <stop style="stop-color:#ECC97C" offset=".3202"/>
   <stop style="stop-color:#E8C069" offset=".4039"/>
   <stop style="stop-color:#E7BD65" offset=".4754"/>
   <stop style="stop-color:#E2B55A" offset=".5494"/>
   <stop style="stop-color:#DAA847" offset=".6246"/>
   <stop style="stop-color:#D19631" offset=".7002"/>
   <stop style="stop-color:#D09530" offset=".7044"/>
   <stop style="stop-color:#895323" offset="1"/>
  </radialGradient>
  <linearGradient id="SVGID_181_" x1="859.4" x2="876" y1="779.1" y2="779.1" gradientTransform="translate(-749.9,-437.5)" gradientUnits="userSpaceOnUse">
   <stop style="stop-color:#E8C069" offset="0"/>
   <stop style="stop-color:#E9C26C" offset=".05817"/>
   <stop style="stop-color:#EBC776" offset=".1185"/>
   <stop style="stop-color:#EECF87" offset=".1797"/>
   <stop style="stop-color:#F3DA9E" offset=".2417"/>
   <stop style="stop-color:#F9EABE" offset=".3035"/>
   <stop style="stop-color:#FFFCDD" offset=".3498"/>
   <stop style="stop-color:#F8EAC3" offset=".3738"/>
   <stop style="stop-color:#E1BA72" offset=".4663"/>
   <stop style="stop-color:#D59F41" offset=".5309"/>
   <stop style="stop-color:#D09530" offset=".5616"/>
   <stop style="stop-color:#895323" offset=".798"/>
   <stop style="stop-color:#E8C069" offset="1"/>
  </linearGradient>
 </defs>
 <g transform="matrix(.9814 0 0 .9814 623 103.2)">
  <path d="m-115.8-89.65c-11.88-0.3263-3.457-0.7039-9.37-0.0217l13 70.89c8.394-0.4532 7.007-0.8807 13.23-2.265 1.265-10.98-15.98-61.13-16.86-68.6zm-501.7 100c-8.987 14.35-7.711 32.87-10.55 46.21 0.863 2.465 22.16-6.634 24.7-8.194 2.852-14.07 17.16-33.42 17.15-33.45 17.22-2.032 25.7-6.188 31.95-15.79-12.35-8.696-52.85 0.6606-63.24 11.24zm355.5 110.4c-29.83 1.476-165.9-4.873-176.8 5.08 61.76 4.481 153.1 0.171 202.4-0.6697 42.69-1.421 89.8-0.3676 131.7-4.086-0.6759-0.9332-2.34-2.251-5.446-2.801-9.747-1.725-102.4 4.033-151.9 2.477zm330.3-222.7c-10.87-4.439-27.89 0.4789-36.39-1.878-87.91 0.1212-183.8-0.6633-248.9 1.903-13.93 0.8796-34.24 3.315-45.64 7.567 12.34 0.0724 319.5-3.182 338.7-2.323zm-654.9 223 17.52 1.491c3.497-47.28 20.36-69.69 66.75-67.85 40.02 15.64 41.24 40.87 44.37 67.11l21.25-1.864c-2.775-59.52-23.18-90.69-74.57-92.48-64.3 0.0191-74.94 43.03-75.31 93.58zm481.2-13.8 21.62 0.7457c-3.807-33.03 40.93-57.08 47.33-55.56 27.2 6.449 50.31 18.24 57.78 50.33l23.05-1.71c7.646-58.76-30.72-72.36-77.11-78.09-42.22 7.049-82.13 16.79-72.7 84.25z" style="fill:#ffffff;stroke-width:1.75"/>
  <path d="m-546.8 69.61c41.5-29.97 82.05 3.359 82.43 42.33 0.1529 15.62-22.84 51.2-52.27 48.12-55.11-5.777-61.86-67.53-30.16-90.39z" style="fill:#ffffff;stroke-width:1.75"/>
  <path d="m-516.5 49.43c29.29 0 61.21 20.62 61.21 61.34 0.5246 28.74-25.38 58.08-58.89 58.08-34.12 0-60.5-26.06-60.5-60.22 0-35.17 30.11-59.18 58.15-59.18zm47.32 75.97c9.11-28.01-4.768-56.05-36.06-64.26-36.52-5.824-57.98 23.19-58.82 45.02-1.492 25.15 15.38 43.06 32.8 49.38 31.32 9.89 56.84-10.91 62.07-30.16zm-64.23 25.47c4.395-8.752 8.07-15.39 12.86-23.61 1.286-1.854 1.887-1.815 6.158 0.4108 5.815 3.034 6.995 4.224 7.865 7.917 1.822 5.887 3.974 11.42 5.269 17.7-4.044 5.614-35.94 1.695-32.16-2.417zm30.14 2.389c-1.05-0.4422-3.202-2.407-3.688-3.364-0.7063-1.398-3.974-15.97-3.653-16.29 0.3154-0.3226 1.258-0.3562 1.808-0.0649 1.087 0.5763 0.3804-0.7756-0.8443-1.614-1.665-1.141-8.327-4.63-8.898-4.518-2.181 0.2547-13 20.94-13.33 23.79 0.2629 1.434 1.026 1.153 1.026-0.3778 0-0.7709 0.258-1.437 0.8409-2.167 2.561-4.198 9.876-21.34 11.88-19.71 0.7294 5e-3 3.38 1.354 3.947 2.011 2.577 8.18 3.223 12.51 5.174 20.45 0.56 1.53-0.1878 3.587-0.3315 4.007 2.354 0.4219 6.568-1.693 6.069-2.143zm-2.244-29.69c3.751-3.326 7.944-5.519 11.88-5.64 3.478 0.6925 17.11 5.945 20.73 8.325 1.069 3.116-10.72 19.26-19.27 23.7-4.217 4.182-10.86-20.87-13.33-26.38zm12.87 24.56c0.0827-0.5829-0.7907-0.331-1.139-0.4768-3.191-8.525-6.507-14.75-8.835-22.98 0.0942-0.8248 1.517-1.689 3.578-2.172 2.328-0.7567 12.82 4.586 17.13 6.694 4.196 2.057 5.293 2.874 5.337 3.974 0.4711 0.1644 3.413-5.188 3.426-6.31-1.091-0.0287-3.343 0.8082-5.4 0.8469-5.521-2.017-10.67-3.977-15.45-7.105 0.043-0.3196 0.5089-0.7979 1.035-1.062 1.457-0.7319 1.165-1.021-0.883-0.8763-3.932 0.7954-6.962 2.262-9.734 4.838-0.7461 1.496-0.734 1.63 0.3588 4.087 2.568 6.841 5.778 13.95 8.268 20.11 0.3522 0.9197 1.039 1.87 1.35 1.87 0.7695-0.1428 1.018-0.8052 0.9575-1.431zm-66.31-27.06c10.42-2.043 25.35-5.26 28.38-4.164 1.992 2.211 3.618 10.35 2.223 13.29-1.288 2.782-11.26 18.64-11.98 18.38-5.194-0.1103-22.95-23.21-18.61-27.52zm18.12 26.76c-2.339-4.199 5.465-12.29 9.316-18.7 0.7991-0.7357 1.408-0.4108 1.744 0.9309 0.2782 1.405 0.3053 1.075 0.8422-0.0516-0.0637-5.605-0.1164-14.04-5.101-12.37-7.86 1.114-16.23 2.347-22.97 4.222-0.3837 0.3928-0.0827 1.404 0.3391 1.136 7.492-1.331 15.45-3.263 22.6-4.103 2.353-0.4889 3.988 5.195 2.011 7.161-3.501 5.663-10.82 18.33-14.25 16.64-1.223-0.3974-0.4122 0.7678 2.115 3.037 0.8441 1.135 2.981 2.342 3.352 2.097zm21.53-29.37c1.978-2.318 5.351-1.75 6.218 1.342 0.2027 1.517-0.6515 3.107-1.968 3.746-3.396 1.307-6.048-2.116-4.25-5.089zm9.286-3.652c1.208-3.216 4.266-2.568 5.069-1.824 2.197 1.254 1.901 4.406 0.2382 5.525-2.685 1.912-6.211-0.5866-5.306-3.701zm11.2-6.552c0-0.9439 1.193-6.153 1.81-7.898 2.54-7.294 13.82-10.98 20.99-14.38 5.871 7.321 7.179 20.8 5.679 31.68-1.042 2.409-30.77-4.411-28.48-9.398zm26.99 7.893c0-0.436-0.3694-0.5661-2.066-0.7273-7.424-2.025-17.75-3.525-22.55-7.903 0.1036-1.474 0.4926-2.671 0.8998-4.082 0.2701-2.514 13.62-7.163 21.15-10.36 0.7636 0 1.388-0.1269 1.388-0.2822 0-0.6023-2.712-6.256-2.944-6.092 0.3455 5.735-7.154 7.616-11.39 10.17-6.396 3.174-6.722 3.226-6.722 1.129 0-1.053-0.0105-1.062-0.5931-0.5227-1.978 2.633-3.126 9.129-2.662 12.15 7.189 3.443 15.16 4.816 21.64 7.226 1.999 0.9498 3.718 0.4364 3.863-0.6979zm-55.16-4.88c1.208-1.269 4.297-0.5987 4.985 1.136 1.237 1.906-0.191 5.043-3.142 5.005-3.611-0.439-4.143-4.679-1.845-6.142zm-33.43 2.37c-2.253 0.2386-1.426-23.96 8.866-31.79 7.863 7.363 20.48 16.97 21.22 20.85-0.9986 3.2-5.847 8.766-8.908 9.349-6.799 0.588-14.71 1.623-21.18 1.595zm1.256-2.328c2.452-2.424 2.482-2.431 11.23-2.265 4.266 0.0816 8.078 0.2153 8.467 0.2981 0.7025 0.1484 0.6972 0.1651-0.4312 1.348-1.241 1.301-1.204 1.417 0.2482 0.776 1.734-0.7644 6.295-5.689 7.455-8.052 1.048-2.132 1.036-2.158-2.571-5.505-3.919-3.816-8.495-7.741-12.23-11.1-2.761-2.734-4.282-3.51-4.702-2.391 6.009 6.058 13.77 11.83 18.8 17.42 0 0.6935-2.591 3.657-3.531 4.04-4.136 1.72-22.9 1.072-24.3-0.2076-0.1801 0.1843-0.2876 5.981-0.1193 6.447 1.359 2.428 0.8005-0.14 1.695-0.8124zm50.01-5.992c0.1016-4.091 4.38-4.527 6.19-2.265 1.668 3.289-0.723 5.027-1.493 5.18-2.585 0.8679-4.443-0.8259-4.697-2.916zm-17.47-4.049c1.072-1.193 3.662-2.038 5.293-0.0105 2.283 3.021-0.6937 5.561-2.179 5.603-3.457 0.0592-4.779-3.123-3.112-5.593zm8.884-1.08c-0.7177-3.359 1.87-4.707 3.59-4.574 3.9 0.6302 3.888 5.19 1.188 6.536-1.348 0.4455-3.212 0.7494-4.779-1.961zm5.441-15.89c-0.0835-2.505 2.822-21.2 4.082-21.01 5.421-0.5078 19.08 6.843 24.23 12.05 3.359 3.216 3.594 3.911 1.854 5.505-7.851 6.016-20.71 15.95-22.32 15.54-1.443-0.6332-8.313-6.937-7.854-12.09zm9.675 10.42c6.47-4.606 13.79-9.58 19.54-14.41 0.2155-0.4121 0.2129-0.7744-8e-3 -1.198-0.403-0.7709-0.9015-0.7783-1.096-0.0175-7.193 5.91-12.74 10.31-19.96 14.87-3.338-3.552-3.128-6.438-2.552-9.176 2.23-6.386 2.88-18.66 5.073-18.85 0.5332-0.3991 0.498-0.4534-0.6107-0.936-1.885-0.8698-4.023-0.985-6.023-1.212-0.0329 0.6706 2.409 3.905 2.228 6.344-0.3016 4.261-1.461 8.642-2.255 12.64-0.3079 2.06-0.7951 3.011-1.546 3.011-0.8358-0.5687-1.316-1.193-2.032-1.973-0.1652 1.14 0.2347 2.218 0.518 3.228 2.557 3.715 5.367 9.199 8.712 7.678zm-14.47-31.82c0.5188 1.488-0.824 30.18-1.749 30.53-1.927 0.5153-7.856 0.6317-11.79-0.09225-5.404-5.174-15.38-13.61-15.9-17.32 1.46-5.623 20.76-14.71 29.44-13.11zm-2.207 29.02c0.7478-3.574 1.658-17.14 1.19-27.1-0.937-0.1628-1.004-0.05132-1.028 1.715-0.0736 8.772-0.895 16.12-1.31 24.05-3.16 0.668-5.104 0.2206-6.785-2.134-4.893-6.338-13.49-14.51-13.39-17.5-1.409 0.04621-3.982 3.448-4.592 4.627 1.031 0.1234 2.088 0.2766 2.972 0.4383 4.789 4.019 9.039 9.066 12.31 14.25-0.9071 0.5237-1.864 0.3165-2.717-0.01225-0.4779 0.3021 0.1927 1.129 1.353 1.668 0.7361 0.4527 8.612 1.188 12-0.0035z" style="fill:#000000;stroke-width:1.75"/>
  <path d="m-62.57 69.61c41.5-29.97 82.05 3.359 82.43 42.33 0.1528 15.62-22.84 51.2-52.27 48.12-55.11-5.777-61.86-67.53-30.16-90.39z" style="fill:#ffffff;stroke-width:1.75"/>
  <path d="m-32.29 49.43c29.29 0 61.21 20.62 61.21 61.34 0.5246 28.74-25.38 58.08-58.89 58.08-34.12 0-60.5-26.06-60.5-60.22 0-35.17 30.11-59.18 58.15-59.18zm47.32 75.97c9.11-28.01-4.768-56.05-36.06-64.26-36.52-5.824-57.98 23.19-58.82 45.02-1.492 25.15 15.38 43.06 32.8 49.38 31.32 9.89 56.84-10.91 62.07-30.16zm-64.23 25.47c4.395-8.752 8.07-15.39 12.86-23.61 1.286-1.854 1.887-1.815 6.158 0.4108 5.815 3.034 6.995 4.224 7.865 7.917 1.822 5.887 3.974 11.42 5.269 17.7-4.044 5.614-35.94 1.695-32.16-2.417zm30.14 2.389c-1.05-0.4422-3.202-2.407-3.688-3.364-0.7063-1.398-3.974-15.97-3.653-16.29 0.3154-0.3226 1.258-0.3562 1.808-0.0649 1.087 0.5763 0.3804-0.7756-0.8443-1.614-1.665-1.141-8.327-4.63-8.898-4.518-2.181 0.2547-13 20.94-13.33 23.79 0.2629 1.434 1.026 1.153 1.026-0.3778 0-0.7709 0.258-1.437 0.8409-2.167 2.561-4.198 9.876-21.34 11.88-19.71 0.7294 5e-3 3.38 1.354 3.947 2.011 2.577 8.18 3.223 12.51 5.174 20.45 0.56 1.53-0.1878 3.587-0.3315 4.007 2.354 0.4219 6.568-1.693 6.069-2.143zm-2.244-29.69c3.751-3.326 7.944-5.519 11.88-5.64 3.478 0.6925 17.11 5.945 20.73 8.325 1.069 3.116-10.72 19.26-19.27 23.7-4.217 4.182-10.86-20.87-13.33-26.38zm12.87 24.56c0.0828-0.5829-0.7907-0.331-1.139-0.4768-3.191-8.525-6.507-14.75-8.835-22.98 0.0942-0.8248 1.517-1.689 3.578-2.172 2.328-0.7567 12.82 4.586 17.13 6.694 4.196 2.057 5.293 2.874 5.337 3.974 0.471 0.1644 3.413-5.188 3.426-6.31-1.091-0.0287-3.343 0.8082-5.4 0.8469-5.521-2.017-10.67-3.977-15.45-7.105 0.0431-0.3196 0.5089-0.7979 1.035-1.062 1.457-0.7319 1.165-1.021-0.8829-0.8763-3.932 0.7954-6.962 2.262-9.734 4.838-0.7461 1.496-0.734 1.63 0.3588 4.087 2.568 6.841 5.778 13.95 8.268 20.11 0.3522 0.9197 1.039 1.87 1.35 1.87 0.7695-0.1428 1.018-0.8052 0.9575-1.431zm-66.31-27.06c10.42-2.043 25.35-5.26 28.38-4.164 1.992 2.211 3.618 10.35 2.223 13.29-1.288 2.782-11.26 18.64-11.98 18.38-5.194-0.1103-22.95-23.21-18.61-27.52zm18.12 26.76c-2.339-4.199 5.465-12.29 9.316-18.7 0.7991-0.7357 1.408-0.4108 1.744 0.9309 0.2782 1.405 0.3053 1.075 0.8422-0.0516-0.0637-5.605-0.1164-14.04-5.101-12.37-7.86 1.114-16.23 2.347-22.97 4.222-0.3837 0.3928-0.0826 1.404 0.3391 1.136 7.492-1.331 15.45-3.263 22.6-4.103 2.353-0.4889 3.988 5.195 2.011 7.161-3.501 5.663-10.82 18.33-14.25 16.64-1.223-0.3974-0.4122 0.7678 2.115 3.037 0.8441 1.135 2.981 2.342 3.352 2.097zm21.53-29.37c1.978-2.318 5.351-1.75 6.218 1.342 0.2027 1.517-0.6515 3.107-1.968 3.746-3.396 1.307-6.048-2.116-4.25-5.089zm9.286-3.652c1.207-3.216 4.266-2.568 5.069-1.824 2.197 1.254 1.901 4.406 0.2382 5.525-2.685 1.912-6.211-0.5866-5.306-3.701zm11.2-6.552c0-0.9439 1.193-6.153 1.81-7.898 2.54-7.294 13.82-10.98 20.99-14.38 5.871 7.321 7.179 20.8 5.679 31.68-1.042 2.409-30.77-4.411-28.48-9.398zm26.99 7.893c0-0.436-0.3694-0.5661-2.066-0.7273-7.424-2.025-17.75-3.525-22.55-7.903 0.1036-1.474 0.4926-2.671 0.8997-4.082 0.2701-2.514 13.62-7.163 21.15-10.36 0.7636 0 1.388-0.1269 1.388-0.2822 0-0.6023-2.712-6.256-2.944-6.092 0.3456 5.735-7.154 7.616-11.39 10.17-6.396 3.174-6.722 3.226-6.722 1.129 0-1.053-0.0105-1.062-0.5931-0.5227-1.978 2.633-3.126 9.129-2.662 12.15 7.189 3.443 15.16 4.816 21.64 7.226 1.999 0.9498 3.718 0.4364 3.863-0.6979zm-55.16-4.88c1.208-1.269 4.297-0.5987 4.985 1.136 1.237 1.906-0.191 5.043-3.142 5.005-3.611-0.439-4.143-4.679-1.845-6.142zm-33.43 2.37c-2.253 0.2386-1.426-23.96 8.866-31.79 7.863 7.363 20.48 16.97 21.22 20.85-0.9988 3.2-5.847 8.766-8.908 9.349-6.799 0.588-14.71 1.623-21.18 1.595zm1.256-2.328c2.452-2.424 2.482-2.431 11.23-2.265 4.266 0.0816 8.078 0.2153 8.467 0.2981 0.7025 0.1484 0.6972 0.1651-0.4312 1.348-1.241 1.301-1.204 1.417 0.2482 0.776 1.734-0.7644 6.295-5.689 7.455-8.052 1.048-2.132 1.036-2.158-2.571-5.505-3.919-3.816-8.495-7.741-12.23-11.1-2.761-2.734-4.282-3.51-4.702-2.391 6.009 6.058 13.77 11.83 18.8 17.42 0 0.6935-2.591 3.657-3.531 4.04-4.136 1.72-22.9 1.072-24.3-0.2076-0.1801 0.1843-0.2876 5.981-0.1194 6.447 1.359 2.428 0.8005-0.14 1.695-0.8124zm50.01-5.992c0.1015-4.091 4.38-4.527 6.19-2.265 1.668 3.289-0.723 5.027-1.493 5.18-2.585 0.8679-4.443-0.8259-4.697-2.916zm-17.47-4.049c1.072-1.193 3.662-2.038 5.293-0.0105 2.283 3.021-0.6937 5.561-2.179 5.603-3.457 0.0592-4.779-3.123-3.112-5.593zm8.884-1.08c-0.7177-3.359 1.87-4.707 3.59-4.574 3.9 0.6302 3.888 5.19 1.188 6.536-1.348 0.4455-3.212 0.7494-4.779-1.961zm5.44-15.89c-0.0835-2.505 2.822-21.2 4.082-21.01 5.421-0.5078 19.08 6.843 24.23 12.05 3.359 3.216 3.594 3.911 1.854 5.505-7.851 6.015-20.71 15.95-22.32 15.54-1.443-0.6332-8.313-6.937-7.854-12.09zm9.675 10.42c6.47-4.606 13.79-9.58 19.54-14.41 0.2153-0.4121 0.2129-0.7744-9e-3 -1.198-0.403-0.7709-0.9015-0.7783-1.096-0.0175-7.193 5.91-12.74 10.31-19.96 14.87-3.338-3.552-3.128-6.438-2.552-9.176 2.23-6.386 2.88-18.66 5.073-18.85 0.5332-0.3991 0.498-0.4534-0.6107-0.936-1.885-0.8698-4.023-0.985-6.023-1.212-0.0329 0.6706 2.409 3.905 2.228 6.344-0.3016 4.261-1.461 8.642-2.255 12.64-0.3079 2.06-0.7951 3.011-1.546 3.011-0.8358-0.5687-1.316-1.193-2.032-1.973-0.1652 1.14 0.2347 2.218 0.518 3.228 2.557 3.715 5.367 9.199 8.712 7.678zm-14.47-31.82c0.5188 1.488-0.824 30.18-1.749 30.53-1.927 0.5153-7.856 0.6317-11.79-0.09225-5.404-5.174-15.38-13.61-15.9-17.32 1.46-5.623 20.76-14.71 29.44-13.11zm-2.207 29.02c0.7478-3.574 1.658-17.14 1.19-27.1-0.937-0.1628-1.004-0.05132-1.028 1.715-0.0737 8.772-0.895 16.12-1.31 24.05-3.16 0.668-5.104 0.2206-6.785-2.134-4.893-6.338-13.49-14.51-13.39-17.5-1.409 0.04621-3.982 3.448-4.592 4.627 1.031 0.1234 2.088 0.2766 2.972 0.4383 4.789 4.019 9.04 9.066 12.31 14.25-0.9071 0.5237-1.864 0.3165-2.717-0.01225-0.4779 0.3021 0.1927 1.129 1.353 1.668 0.7361 0.4527 8.612 1.188 12-0.0035z" style="fill:#000000;stroke-width:1.75"/>
  <path d="m105.1-84.13c1.85-1.003 2.122-0.0253 13.39 17.12 10.03 15.74 20.78 38.34 24.54 51.1 2.736 8.035 4.248 36.94 1.741 37.71-0.7779 0.2291-8.294 3.009-9.799-0.5117-1.326-3.098-0.2825-12.05-1.103-20.06-1.687-16.15-5.647-31.47-12.07-45.64-6.375-17.43-18.45-29.72-20.43-39.81z" style="fill:#8a112b;stroke-width:1.75"/>
  <path d="m-230.3-101.3c-8.094 0.9563-24.07 2.62-38.56 7.217-16.67 0.2171-39.14 1.741-49.31 2.911-2.167 0.2493-7.1 0.5101-10.69 1.704-1.524 0.5068-0.7741-4.166-5.719-2.293 0.4852-6.393-2.23-5.624-8.845-1.763-3.394 3.587-0.1313 7.725-12.83 12.93-30.14 14.8-62.75 40.82-85.39 61.62-38.35 2.113-80.03 3.471-111.9 8.46-16.21 2.223-48.07 6.722-60.44 13.04-10.4 4.639-15.58 25.1-17.37 34.87-3.63 14.34-3.634 37.13-3.445 47.79 0.3881 20.59 2.37 22.14 6.172 27.9 4.243 11.26 11.19 9.264 16.95 17.04 0.487 2.144 0.6661 8.877 2.342 9.838 8.959 1.733 21.86 3.037 30.83 2.391-3.513-45.64-1.679-79.31 21.29-91.55 25.82-12.34 75.95-16.53 95.17 0 11.74 19.17 11.08 32.84 16.62 54.19 0.3881 6.738 3.483 20.5 4.479 25.03 0.982 0.3891 13.55 0.7121 26.68 0.4868 52.2 0.0623 107.5 1.225 161.9 0.5845 50.06-1.212 103.1-4.737 149-6.097 2.811-9.512 2.878-13.51 3.961-20.85 3.413-29.04 10.86-53.56 25.5-62.7 18.92-13.47 74.27-9.773 89.33 0 7.531 2.967 23.28 36.94 25.03 70.86 8.052-0.5234 39.72-3.525 52.69-4.6 27.27-2.26 38.97-3.883 39.09-4.439 0.9426 0.0422 14.95-18.26 18.64-27.59 1.934-7.464 1.73-14.47 1.803-19.87 0.2125-5.342 0.7242-12.93-2.176-15.86-2.605-4.156-3.324-2.606-4.332-4.796 0.4159-2.951-0.2067-5.504-1.014-13.84l-8.997-0.4584c-0.1957-4.781 0.5276-6.855-0.1192-10.14-1.493-19.4 0.1668-16.55-3.189-30.88-3.886-11.37-14.21-35.15-17.21-40.33-6.879-11.57-6.981-11.84-13.53-22.18-0.553-1.908 6.293 0.014 6.083 0.2726-4.429-6.837 1.283 1.632 7.17-3.834-0.4816-2.202 2.927-9.223-8.602-10.11-8-0.7517-20.71-0.223-30.83-1.443-5.883-3.172-3.667-4.555-13.36-6.654-37.34-1.701-107-0.3184-168.2 0.7406-10.66 0.3886-113.6 0.0209-124.9 2.36zm287.8-1.27c8.933-0.4354 9.489 2.612 16.19 5.085-133.1-0.8807-229.7-0.0272-335.6 3.053 3.319-0.9764 22.18-4.103 31.98-5.563 7.144-1.612 77.67-2.508 118.4-2.501 17.87-0.1824 158.7-0.9731 169-0.0726zm-169.9 78.72c-2.878-18.96-7.301-38.67-11.88-61.91l-0.6582-3.24c2.619 0.0147 4.812 0.1512 7.384 0.17 9.607 29.11 11.87 44.22 16.88 64.49-0.4268 4.145-4.353 3.536-11.42 3.697zm-445.8 23.47c-3.939 6.367-6.676 8.714-12.29 9.927-14.51 1.805-20.62 3.336-24.26 8.556-7.441 7.573-6.692 21.29-16.84 31.93-3.468 1.33-11.16 3.142-13.65 2.699 0.3021-5.829 5.668-39.51 8.733-41.49 23.21-10.99 37.36-8.891 58.31-11.64zm451.1 120.9c-48.8 3.032-127.2 2.936-145.7 3.914-19.13 0.2654-42.8 0.6671-62.77 0.7998-44.37 0.0481-109.1 2.407-120.6 0.1999 0.5435-0.845 2.999-2.295 4.611-1.616 9.631 0.696 93.7-0.4114 178.5-1.473 54.09-0.6769 98.17-2.545 143.9-3.529z" style="fill:#000000;stroke-width:1.75"/>
  <path d="m-260.2-86.13c-29.46-0.0357-65.71-0.8471-93.7 13.64-24.49 16.13-55.53 31.74-71.12 57.24 0.9253 2.281 2.449 4.124 5.006 5.204l157.3-5.63 0.3251-4.448-156.2 4.901c0.3256-10.18 50.59-45.81 70.81-54.63 29.72-12.94 61.35-11.92 87.59-12.93zm-14.31 87.4-39.51 1.82 0.7268 6.921 42.97-1.276zm9.643 60.18-162.4 2.664 3.279 14.02 159.6-9.024z" style="fill:#ffffff;stroke-width:1.75"/>
  <path d="m-260.2-85.86c-32.37 0.9486-47.05 1.57-57.24 3.471-24.23 3.499-42.92 13.25-62.44 27.11-12.6 9.915-30.72 23.11-41.7 35.78-1.237 1.688-6.991 9.442 6.911 8.462 20.92-0.5094 46.48-1.464 67.6-2.172 31.98-0.6734 51.52-2.27 84.39-2.964l0.2332-3.625c-73.7 1.624-128.7 5.001-137.9 5.159-4.369 0.0757-20.5 1.836-19.41-0.5962 3.058-9.271 25.71-27.69 44.43-40.09 30.84-20.92 48.02-24.4 87.14-27.04 12.56-0.3405 14.16-0.4642 27.89-0.7982zm-13.85 89.61c-2.174-1.889-22.23-0.4975-28.27-0.1389-16.11 0.6829-8.99 6.466-6.372 5.572 12.43-1.279 28.9 0.1992 35.25-2.024zm9.264 58.13c-23.54 0.5209-34.55 1.304-57.19 1.624-35.76 0.6333-71.65 1.181-103.3 2.066 0.3718 13.5 2.239 11.48 14.84 10.16 56.05-3.095 96.22-5.768 146-6.813zm-155.4 51.73c-9.066-18.75-9.836-40.8-12.72-62.02-0.4679-20.22-2.2-41.56-0.7877-60.13 0.9927-5.925 2.927-10.26 6.002-13.64 3.356-4.248 9.153-9.148 13.8-12.88 11.94-10.03 24.54-18.87 37.78-28.15 16.45-11.18 34.34-19.13 53.95-22.58 13.35-3.09 25.56-3.34 38.04-3.408l24.07-0.2746c-0.5482 23.28-0.2256 49.05-2.775 75.27 0 0-1.8 34.19-1.997 53-0.1134 10.86-0.0158 21.18 0.3666 31.05 1.54 22.42 3.708 26.33 6.774 42.85z" style="fill:#000000;stroke-width:1.75"/>
  <path d="m-146.9-2.348c-7.506 1.485-14.44 1.019-14.09 5.243 0.6547 2.214 5.173 2.426 16.42 1.992 7.089-0.9938 25.35-0.445 25.4-3.525-0.2234-5.164-7.357-5.054-27.75-3.709zm-117.7 71.59 145.3-4.691c5.551-6.892 3.116-3.041 4.784-8.922l-150.3 6.02m2.122-76.95 0.3638-4.868 149.3-3.982 0.5635 3.655zm2.377-67.48 0.0525-3.363c45.11-1.051 90.43-3.513 135.5-3.13l0.6718 3.807c-47.42-0.0867-95.59 1.77-136.1 2.689z" style="fill:#ffffff;stroke-width:1.75"/>
  <path d="m-262.5-19.78c53.53-1.177 107.7-3.125 149.3-4.044l0.4642 3.198c-23.56 0.2561-145.2 4.768-149.9 4.476 0.034-0.9281 0.1906-2.895 0.2034-3.63zm138.1-65.85c-46-0.5567-93.69 1.246-136 2.494l0.0394-2.706c41.14-1.301 89.55-3.405 135.3-3.14m-22.02 93c-14.42 0.5616-12.26 1.385-12.35-3.571 5.887-2.538 33.68-3.534 37.97-1.982 0.8794 0.8917 2.013 3.377 0.563 3.828-4.653 1.448-19.48 0.8539-26.19 1.724zm-118 57.89c52.93-1.16 105.5-3.361 148.7-4.527 1.256 0.8345-1.481 3.34-5.115 5.115-52.67 1.747-99.74 5.53-143.4 6.444zm151.9 46.65c3.399-36.99 8.745-77.53 2.631-116.7-4.371-28.04-9.857-56.73-15.28-84.44l-134.6 3.214c-0.3492 13.64-0.0567 44.69-2.775 75.27-1.245 19.4-1.845 43.01-1.997 53-0.2262 12.69-0.1159 22.98 0.3669 31.05 0.9426 16.11 3.237 26.47 6.776 42.85z" style="fill:#000000;stroke-width:1.75"/>
  <path d="m654.5 20.48c-7.022 0-11.16 2.292-13.97 7.736-1.818 3.514-1.823 3.931-0.0301 5.243 1.072 0.7837 1.949 3.098 1.949 5.147 0 5.464 2.234 9.466 6.486 11.62h7e-3c7.857 3.978 17.61-2.103 17.61-10.98 0-2.631 0.7742-4.928 1.949-5.787 1.793-1.312 1.788-1.729-0.0301-5.243-2.815-5.444-6.949-7.736-13.97-7.736zm0 8.53c4.781-4.87e-4 9.557 0.8256 11.2 2.485 1.134 1.146 0.7167 1.187-1.941 0.1837-1.865-0.7043-6.031-1.279-9.258-1.279s-7.392 0.5751-9.258 1.279c-2.655 1.002-3.08 0.9593-1.949-0.1837 1.643-1.66 6.425-2.485 11.21-2.485zm5.699 25.12 0.8235 6.574c0.8338 6.674-0.5784 13.07-2.882 13.07-0.679 0-1.239-2.03-1.25-4.515-0.0113-2.485-0.4878-5.271-1.066-6.184-1.838-2.902-3.735-0.1898-3.735 5.346 0 5.776-1.497 6.9-3.706 2.772-0.8831-1.65-1.098-5.136-0.5883-9.64 0.7536-6.661 0.6574-7.052-1.787-7.052-5.603 0-10.66 3.705-13.8 10.13-3.793 7.753-6.117 25.17-4.618 34.59 0.9809 6.162 1.206 6.478 4.633 6.478h3.603l0.7133-15.66c0.3895-8.614 1.301-17.02 2.029-18.68 0.9956-2.265 1.339 7.506 1.397 39.4 0.0704 39.07 0.2417 42.5 2.184 43.63 3.118 1.816 6.455 1.559 8.942-0.6912 2.003-1.813 2.206-4.324 2.206-27.71 0-16.34 0.4404-25.72 1.206-25.72 0.7652 0 1.206 9.307 1.206 25.51 0 22.04 0.2696 25.8 1.993 27.71 2.447 2.704 6.822 2.855 9.361 0.3162 1.645-1.645 1.904-7.371 1.971-43.68 0.0568-31.08 0.4124-41.01 1.382-38.77 0.7172 1.657 1.561 9.945 1.875 18.41 0.483 13.04 0.8912 15.56 2.669 16.52 1.409 0.7543 2.798 0.6138 4.221-0.4265 1.888-1.38 2.059-3.317 1.603-17.72-0.4119-13.02-0.9949-17.23-2.993-21.6-3.219-7.032-7.38-10.76-13.04-11.68zm-6.037 1.757c-1.072-0.09412-2.074 0.5888-2.074 2.132 0 1.724 0.776 2.5 2.5 2.5s2.374-0.65 2.096-2.096c-0.3023-1.57-1.45-2.443-2.522-2.537z" style="fill:#0d0d0d;stroke-width:1.205"/>
 </g>
 <path d="m1206 122.3c-5.416 0-12.54 3.046-11.41 4.875 0.3921 0.6344-0.044 1.154-0.9633 1.154-2.973 0-12.76 7.279-15.29 11.37-1.351 2.187-2.456 6.028-2.456 8.537 0 3.761 0.8506 5.369 4.853 9.177 2.67 2.54 6.195 4.957 7.831 5.368l2.978 0.75v44.52c0 28.39 0.4475 45.37 1.243 46.85 0.8609 1.608 2.531 2.331 5.383 2.331s4.514-0.7225 5.375-2.331c0.7465-1.395 1.25-12.52 1.25-27.71 0-16.12 0.4409-25.38 1.206-25.38 0.7653 0 1.206 9.307 1.206 25.51 0 22.04 0.2696 25.8 1.993 27.71 2.264 2.502 7.649 2.918 9.809 0.7574 1.064-1.064 1.481-12.58 1.574-43.67 0.1099-36.7 0.3332-41.59 1.713-37.41 0.9028 2.739 1.631 10.64 1.684 18.32 0.081 11.89 0.3573 13.66 2.331 14.71 6.041 3.233 8.546-6.493 6.331-24.57-2.172-17.73-8.483-27.14-18.21-27.14-2.474 0-2.586 0.3812-1.816 5.978 0.9901 7.199-0.1578 13.29-2.5 13.29-1.222 0-1.713-1.526-1.713-5.346 0-5.535-1.89-8.248-3.728-5.346-0.5784 0.9132-1.055 4.079-1.066 7.037-0.019 5.12-0.1197 5.277-2.125 3.272-1.661-1.661-2.053-3.882-1.853-10.5 0.2349-7.773 0.067-8.39-2.25-8.39-3.622 0-11.71-4.858-12.57-7.544-0.8404-2.648 2.703-6.926 8.927-10.77 3.385-2.092 3.965-3.072 3.537-5.986-0.3513-2.394-0.1257-3.096 0.728-2.243 0.6834 0.6834 4.555 1.243 8.603 1.243 4.922 0 8.135 0.6302 9.699 1.904 2.306 1.878 2.302 1.897-0.073 1.052-1.325-0.4719-5.245-1.123-8.714-1.449-5.895-0.5541-6.545-0.3418-9.942 3.294-1.998 2.139-3.633 4.894-3.633 6.118 0 8.536 9.682 14.5 17.25 10.63 4.512-2.307 6.794-6.186 6.824-11.6 0.019-3.736 0.5123-5.118 1.831-5.118 2.292 0 2.283-1.609-0.023-6.066-2.32-4.487-7.517-7.191-13.83-7.191zm0.3381 35.13c-1.072 0.0941-2.22 0.9666-2.522 2.537-0.2782 1.446 0.3716 2.096 2.096 2.096 1.724 0 2.5-0.7686 2.5-2.493 0-1.544-1.001-2.234-2.074-2.14z" style="fill:#0d0d0d;stroke-width:1.205"/>
 <g transform="matrix(1.334 0 0 1.334 -20.11 24.19)">
  <g transform="translate(-1.399,-5.743)">
   <path d="m462.4 178.5c-6.135-1.021-11.44-4.177-16.08-9.575-8.115-9.43-17.06-30.87-20.43-48.99-0.4025-2.161-0.7318-4.14-0.7318-4.4 0-0.3999 0.2526-0.5129 1.66-0.7428 2.531-0.4135 3.092-0.368 3.222 0.261 0.0605 0.2927 0.3355 1.809 0.6111 3.37 1.641 9.292 5.186 20.52 9.562 30.27 5.967 13.3 11.14 20.08 17.76 23.25 6.854 3.281 13.52 2.341 22.81-3.221 1.343-0.8035 2.527-1.461 2.63-1.461 0.2272 0 2.458 3.581 2.458 3.946 0 0.491-6.493 4.084-9.757 5.399-2.695 1.086-4.057 1.456-6.926 1.882-2.857 0.4245-4.277 0.426-6.793 7e-3z" style="fill:#e39fa0;stroke-width:.2378"/>
   <path d="m462.2 178.3c-6.092-1.014-11.39-4.145-15.9-9.403-8.105-9.444-17.03-30.92-20.4-49.07-0.4162-2.244-0.6996-4.227-0.6296-4.407 0.0806-0.2078 0.8844-0.4392 2.197-0.6324 2.249-0.331 2.496-0.2432 2.504 0.8888 2e-3 0.2861 0.3302 2.149 0.7293 4.139 2.468 12.31 6.607 24.06 12.61 35.78 4.293 8.386 9.089 13.82 14.46 16.4 2.936 1.406 4.781 1.808 8.3 1.811 3.379 3e-3 5.335-0.4116 8.894-1.886 1.817-0.7525 6.132-3.058 7.841-4.189l0.5985-0.3963 1.267 2.026c0.697 1.114 1.234 2.048 1.194 2.076-1.736 1.197-7.198 4.072-9.472 4.986-2.699 1.085-4.06 1.455-6.926 1.88-2.867 0.426-4.744 0.4279-7.272 7e-3z" style="fill:#a86a6b;stroke-width:.2378"/>
   <path d="m462.4 178.3c-6.092-1.014-11.39-4.145-15.9-9.403-8.073-9.406-17.01-30.86-20.37-48.92-0.4025-2.161-0.7318-4.092-0.7318-4.293 0-0.5537 3.629-1.178 4.336-0.7461 0.1133 0.0693 0.206 0.3804 0.206 0.6913s0.3265 2.194 0.7256 4.184c2.468 12.31 6.607 24.06 12.61 35.78 2.342 4.575 5.054 8.57 7.658 11.28 2.561 2.665 4.491 4.131 7.046 5.354 6.859 3.283 13.52 2.341 22.83-3.23 1.352-0.8086 2.548-1.415 2.659-1.347 0.2756 0.1685 2.175 3.299 2.17 3.576-9e-3 0.4412-6.459 3.961-9.514 5.191-2.695 1.086-4.057 1.456-6.926 1.882-2.857 0.4245-4.277 0.426-6.793 7e-3z" style="fill:#e44728;stroke-width:.2378"/>
   <path d="m462.4 178.3c-6.092-1.014-11.39-4.145-15.9-9.403-8.073-9.406-17.01-30.86-20.37-48.92-0.4025-2.161-0.7318-4.096-0.7318-4.302 0-0.4666 2.109-0.8538 2.37-0.4352 0.0912 0.146 0.4717 1.889 0.8457 3.874 3.661 19.43 12.93 40.98 21.31 49.54 4.302 4.394 8.288 6.436 14 7.178 5.213 0.6758 10.79-1.013 18.56-5.625 1.645-0.9755 1.783-1.017 2.189-0.6535 0.4328 0.3875 1.102 1.726 0.9276 1.857-1.277 0.9596-7.207 4.087-9.491 5.005-2.699 1.085-4.06 1.455-6.926 1.88-2.857 0.4245-4.277 0.426-6.793 7e-3zm0.5276-3.797c-3.172-0.4892-6.809-2.079-9.324-4.074-0.5917-0.4696-1.968-1.764-3.058-2.877-6.702-6.841-15.04-24.84-19.18-41.4-1.244-4.974-2.353-11.35-1.974-11.35 0.3995 0 0.38-0.0692 1.03 3.666 1.605 9.227 5.145 20.45 9.553 30.27 3.898 8.69 7.31 14.34 10.96 18.13 2.561 2.665 4.491 4.131 7.046 5.354 6.865 3.286 13.51 2.342 22.85-3.245 1.872-1.12 2.529-1.408 2.674-1.176 0.1333 0.2134-0.0914 0.4683-0.7284 0.8263-0.5067 0.2847-1.387 0.8258-1.957 1.202-0.8467 0.5598-5.531 2.823-7.49 3.62-1.491 0.606-6.057 1.446-7.576 1.394-0.435-0.0149-1.705-0.1681-2.822-0.3404z" style="fill:#ce3327;stroke-width:.2378"/>
   <path d="m462.4 178.3c-6.092-1.014-11.39-4.145-15.9-9.403-8.189-9.541-17.25-31.48-20.52-49.67-0.3678-2.049-0.6139-3.78-0.5469-3.846 0.067-0.0662 0.5405-0.1458 1.052-0.1767l0.9306-0.0563 0.2729 1.419c0.1501 0.7805 0.4609 2.483 0.6906 3.784 0.5454 3.088 1.847 8.407 2.75 11.23 2.243 7.026 2.896 9.037 3.091 9.517 0.1188 0.2938 0.6045 1.545 1.079 2.781s1.007 2.566 1.182 2.956c2.176 4.848 2.982 6.544 4.742 9.989 1.017 1.99 2.657 4.776 3.646 6.19s1.797 2.67 1.797 2.79c0 0.4046 5.229 5.463 6.746 6.527 4.506 3.158 10.14 4.594 15.13 3.857 0.5259-0.0777 1.334-0.1871 1.795-0.2432 0.7884-0.0958 2.626-0.6811 5.377-1.713 1.402-0.526 5.893-2.894 7.614-4.016 0.8444-0.5502 1.285-0.7112 1.489-0.544 0.3174 0.2606 0.9383 1.614 0.7911 1.725-1.277 0.9596-7.207 4.087-9.491 5.005-2.699 1.085-4.06 1.455-6.926 1.88-2.857 0.4245-4.277 0.426-6.793 7e-3z" style="fill:#ae2f24;stroke-width:.2378"/>
   <path d="m462.4 178.3c-6.092-1.014-11.39-4.145-15.9-9.403-8.073-9.406-17.01-30.86-20.37-48.92-0.8846-4.748-0.8829-4.704-0.1764-4.704 0.6159 0 0.6877 0.2525 1.58 5.558 0.2408 1.431 0.6585 3.347 0.9282 4.257s0.6038 2.28 0.7424 3.044c0.3943 2.174 3.232 10.84 5.278 16.11 0.5549 1.431 1.14 2.951 1.301 3.378 0.1604 0.4269 0.4173 0.9006 0.5708 1.052s0.2792 0.4227 0.2792 0.6017c0 0.802 5.043 10.43 7.256 13.86 2.045 3.165 2.863 4.186 5.212 6.504 3.033 2.993 3.572 3.439 5.352 4.425 1.939 1.074 2.365 1.278 2.679 1.279 0.1644 8e-4 0.2988 0.1079 0.2988 0.238s0.2474 0.2365 0.5498 0.2365 0.652 0.092 0.7769 0.2045 1.195 0.3896 2.379 0.6159c1.183 0.2263 2.313 0.463 2.51 0.5262 1.13 0.3617 6.135-0.0943 8.703-0.7931 2.663-0.7244 7.066-2.774 10.6-4.935 1.871-1.143 2.089-1.222 2.365-0.8629 0.5035 0.6551 0.378 0.8297-1.299 1.807-6.448 3.758-10.09 5.209-14.83 5.914-2.857 0.4245-4.277 0.426-6.793 7e-3z" style="fill:#871a1b;stroke-width:.2378"/>
   <path d="m462.4 178.3c-6.092-1.014-11.39-4.145-15.9-9.403-8.189-9.541-17.25-31.48-20.52-49.67-0.5943-3.311-0.6515-4.337-0.2181-3.908 0.0732 0.0724 0.442 1.82 0.8194 3.883 2.854 15.6 9.849 33.97 17.07 44.84 1.798 2.706 2.91 4.072 5.002 6.149 1.479 1.469 2.848 2.781 3.042 2.916 2.393 1.672 4.204 2.671 6.073 3.352 4.611 1.679 9.81 1.906 14.48 0.6329 3.037-0.8278 7.546-2.81 10.16-4.465 2.472-1.566 2.946-1.799 3.113-1.531 0.0893 0.143 0.1247 0.2874 0.0787 0.3209-1.414 1.029-7.207 4.082-9.482 4.997-2.699 1.085-4.06 1.455-6.926 1.88-2.857 0.4245-4.277 0.426-6.793 7e-3z" style="fill:#791416;stroke-width:.2378"/>
  </g>
  <rect x="111.6" y="260.9" width="13.7" height="161.5" style="fill:url(#SVGID_181_)"/>
  <g transform="translate(-2.094,-6.503)">
   <path d="m144.2 273.3c-5.3-0.5376-10.78-2.289-17.07-5.451-3.616-1.818-9.869-5.52-9.869-5.842 0-0.1203 0.5676-1.096 1.261-2.167 0.6938-1.072 1.441-2.243 1.66-2.602s0.4817-0.6537 0.5836-0.6537 1.615 0.8666 3.362 1.926c9.152 5.547 16.38 8.108 22.91 8.114 4.908 5e-3 8.548-0.8684 13.12-3.146 8.943-4.459 16.2-13.5 23.65-29.48 8.877-19.03 14.18-35.45 17.46-54.04 0.435-2.466 0.9076-4.6 1.05-4.744 0.1884-0.1894 1.085-0.1424 3.272 0.1717 1.657 0.238 3.048 0.4642 3.091 0.5028 0.1908 0.171-2.431 13.58-3.616 18.49-2.953 12.25-7.052 24.22-12.58 36.76-6.904 15.66-12.96 25.29-20.01 31.8-8.126 7.507-18.58 11.33-28.27 10.35z" style="fill:#d59f9f;stroke-width:.237"/>
   <path d="m144 273.1c-3.471-0.352-7.974-1.496-11.64-2.957-4.852-1.935-14.83-7.434-14.83-8.173 0-0.3282 3-4.937 3.29-5.054 0.0849-0.0343 1.586 0.8056 3.336 1.866 9.157 5.551 16.38 8.111 22.92 8.117 4.907 5e-3 8.547-0.8682 13.12-3.146 9.016-4.494 16.41-13.7 23.88-29.71 8.875-19.03 14.18-35.45 17.46-54.03 0.4341-2.46 0.8566-4.541 0.939-4.624 0.1161-0.1168 6.016 0.5943 6.206 0.748 0.1544 0.125-2.694 14.45-3.68 18.51-5.043 20.75-15.58 46.07-24.46 58.77-8.168 11.68-18.05 18.21-29.68 19.61-1.897 0.2274-5.045 0.2641-6.86 0.08z" style="fill:#e44728;stroke-width:.237"/>
   <path d="m144 273.1c-3.471-0.352-7.974-1.496-11.64-2.957-4.982-1.987-14.83-7.437-14.83-8.206 0-0.1981 0.401-0.9234 0.8911-1.612l0.8911-1.252 2.713 1.648c2.874 1.746 9.741 5.408 10.14 5.408 0.2049 0 0.8354 0.2614 3.442 1.427 1.256 0.5616 5.943 1.648 8.201 1.9 2.978 0.333 7.169 0.1657 9.216-0.3678 0.7938-0.2069 1.72-0.4172 2.057-0.4673 1.023-0.1519 4.297-1.426 6.415-2.497 1.616-0.817 5.869-3.515 6.37-4.041 0.065-0.0682 1.021-0.9774 2.124-2.02 3.851-3.64 7.657-8.528 10.92-14.02 2.669-4.494 7.627-14.75 10.52-21.75 2.814-6.819 6.662-17.67 7.505-21.16 0.1736-0.719 0.6904-2.539 1.148-4.044 0.4581-1.505 1.006-3.591 1.218-4.635 0.3441-1.697 0.9127-4.09 1.557-6.555 0.1917-0.7328 0.7317-3.714 1.945-10.73 0.2154-1.246 0.3577-1.581 0.6385-1.503 0.1988 0.0556 1.025 0.1727 1.837 0.2602 1.354 0.146 1.466 0.2015 1.363 0.6708-0.062 0.2814-0.5942 3.152-1.183 6.379-2.98 16.34-7.758 31.68-14.94 47.97-6.904 15.66-12.96 25.29-20.01 31.8-8.175 7.553-18.64 11.35-28.51 10.35zm-0.5908-5.452c-4.535-0.6661-9.407-2.381-14.65-5.158-3.989-2.112-8.202-4.688-8.333-5.097-0.2503-0.7784 0.809-0.3848 3.731 1.386 9.16 5.553 16.39 8.113 22.92 8.119 4.907 5e-3 8.547-0.8682 13.12-3.146 8.726-4.349 16.1-13.33 23.22-28.27 8.896-18.68 14.72-36.35 17.91-54.33 1.114-6.281 0.9909-5.824 1.563-5.824 0.3935 0 0.467 0.1086 0.3622 0.5348-0.0724 0.2942-0.5708 2.995-1.108 6.002-1.696 9.496-4.411 19.92-7.585 29.12-1.46 4.23-4.993 13.41-5.993 15.57-0.3027 0.6537-1.241 2.739-2.084 4.635-5.702 12.81-11.3 21.61-17.48 27.46-7.443 7.052-16.69 10.31-25.58 9z" style="fill:#9a5354;stroke-width:.237"/>
   <path d="m144.2 273.1c-5.211-0.5285-10.75-2.281-16.84-5.325-3.196-1.599-9.853-5.471-9.862-5.737-3e-3 -0.0928 0.3932-0.8004 0.8806-1.572l0.8862-1.404 2.718 1.654c2.87 1.746 9.743 5.413 10.15 5.413 0.2049 0 0.8354 0.2614 3.442 1.427 1.256 0.5616 5.943 1.648 8.201 1.9 2.978 0.333 7.169 0.1657 9.216-0.3678 0.7938-0.2069 1.72-0.4172 2.057-0.4673 1.023-0.1519 4.297-1.426 6.415-2.497 1.616-0.817 5.869-3.515 6.37-4.041 0.065-0.0682 1.021-0.9774 2.124-2.02 3.851-3.64 7.657-8.528 10.92-14.02 2.669-4.494 7.627-14.75 10.52-21.75 2.814-6.819 6.662-17.67 7.505-21.16 0.1736-0.719 0.6904-2.539 1.148-4.044 0.4581-1.505 1.006-3.591 1.218-4.635 0.3441-1.697 0.9127-4.09 1.557-6.555 0.1917-0.7328 0.7317-3.714 1.945-10.73 0.215-1.244 0.3581-1.582 0.6385-1.505 0.1988 0.0543 0.9729 0.1687 1.72 0.2542 0.7474 0.0855 1.359 0.1883 1.359 0.2284s-0.529 2.951-1.176 6.469c-3.134 17.05-7.801 32.1-15.06 48.57-8.202 18.61-15.3 28.9-24.29 35.22-7.138 5.02-15.89 7.485-23.75 6.688zm-0.8272-5.452c-4.535-0.6661-9.407-2.381-14.65-5.158-3.989-2.112-8.202-4.688-8.333-5.097-0.2503-0.7784 0.809-0.3848 3.731 1.386 9.16 5.553 16.39 8.113 22.92 8.119 4.907 5e-3 8.547-0.8682 13.12-3.146 8.726-4.349 16.1-13.33 23.22-28.27 8.896-18.68 14.72-36.35 17.91-54.33 1.114-6.281 0.9909-5.824 1.563-5.824 0.3935 0 0.467 0.1086 0.3622 0.5348-0.0724 0.2942-0.5708 2.995-1.108 6.002-1.696 9.496-4.411 19.92-7.585 29.12-1.46 4.23-4.993 13.41-5.993 15.57-0.3027 0.6537-1.241 2.739-2.084 4.635-5.702 12.81-11.3 21.61-17.48 27.46-7.443 7.052-16.69 10.31-25.58 9z" style="fill:#cd3127;stroke-width:.237"/>
   <path d="m144.2 273.1c-5.211-0.5285-10.75-2.281-16.84-5.325-3.165-1.583-9.853-5.47-9.862-5.732-0.0104-0.3052 1.293-2.317 1.506-2.325 0.1164-4e-3 1.233 0.6248 2.481 1.398 6.088 3.77 11.6 6.4 15.98 7.625 1.04 0.291 2.007 0.6236 2.149 0.7391 0.1419 0.1155 0.3114 0.1564 0.3765 0.0909s1.119 0.0867 2.342 0.3381c4.043 0.8314 9.677 0.3679 14.62-1.203 4.227-1.343 9.681-4.534 12.73-7.448 0.8221-0.7859 1.639-1.51 1.816-1.61 0.4322-0.244 5.038-5.727 5.938-7.069 0.3946-0.5883 1.189-1.765 1.764-2.615 1.588-2.344 3.367-5.371 4.401-7.487 0.5105-1.046 1.578-3.132 2.372-4.635s1.653-3.268 1.909-3.922c0.2562-0.6537 0.935-2.205 1.509-3.447s1.264-2.793 1.535-3.447 0.8636-2.044 1.317-3.09c0.4535-1.046 1.001-2.436 1.217-3.09 0.3659-1.107 2.015-5.346 2.497-6.418 0.1175-0.2615 0.3694-1.027 0.5598-1.702 0.1903-0.6745 0.7151-2.279 1.166-3.565 1.186-3.381 3.214-10.32 3.733-12.76 0.2454-1.157 0.7087-3.082 1.03-4.279 0.7304-2.722 1.482-6.156 1.622-7.41 0.0588-0.5262 0.4569-2.758 0.8848-4.96l0.778-4.003 1.304 0.1542c0.7173 0.0848 1.337 0.1872 1.377 0.2275 0.1831 0.1842-2.416 13.44-3.589 18.3-2.951 12.24-7.051 24.22-12.58 36.76-8.202 18.61-15.3 28.9-24.29 35.22-7.138 5.02-15.89 7.485-23.75 6.688z" style="fill:#ae2e24;stroke-width:.237"/>
   <path d="m144.2 273.1c-5.211-0.5285-10.75-2.281-16.84-5.325-3.596-1.799-9.856-5.486-9.856-5.806-1.8e-4 -0.1307 0.1966-0.4953 0.4372-0.8101l0.4375-0.5724 0.6808 0.4536c0.3744 0.2495 0.893 0.5811 1.152 0.737 4.081 2.453 5.536 3.283 7.34 4.188 2.561 1.285 6.742 3.098 8.035 3.485 0.5114 0.1531 1.462 0.4404 2.112 0.6386 0.6499 0.1982 1.607 0.4516 2.127 0.5632 0.5199 0.1116 1.477 0.3269 2.127 0.4783 1.454 0.3388 7.534 0.4592 9.187 0.1819 4.403-0.739 7.533-1.748 11.26-3.626 2.504-1.264 5.595-3.288 7.056-4.619 0.4363-0.3978 1.518-1.376 2.405-2.174 0.8863-0.7981 2.231-2.213 2.988-3.144s1.603-1.932 1.879-2.224c0.2764-0.2919 0.8171-0.9937 1.202-1.56 0.3845-0.5658 1.212-1.776 1.838-2.69 2.768-4.035 7.423-12.88 10.64-20.21 1.605-3.659 2.175-4.94 2.499-5.616 0.1019-0.2126 0.5224-1.282 0.9345-2.377s1.105-2.9 1.54-4.011c2.232-5.702 4.537-12.71 6.568-19.97 0.9572-3.421 2.871-12.05 3.716-16.76 0.5165-2.876 0.9939-5.502 1.061-5.834 0.1071-0.5332 0.2187-0.5936 0.9406-0.5088 0.4504 0.0529 0.819 0.125 0.819 0.1603s-0.529 2.942-1.176 6.46c-3.134 17.05-7.801 32.1-15.06 48.57-8.202 18.61-15.3 28.9-24.29 35.22-7.138 5.02-15.89 7.485-23.75 6.688z" style="fill:#871a1b;stroke-width:.237"/>
   <path d="m144.2 273.1c-6.915-0.7014-14.08-3.429-23.21-8.833-3.052-1.806-4.087-2.654-3.242-2.654 0.3134 0 2.602 1.261 4.005 2.208 0.5849 0.3945 2.499 1.463 4.254 2.376 1.755 0.9121 3.426 1.805 3.714 1.984 0.2879 0.1792 0.6304 0.3258 0.7611 0.3258s0.7991 0.2532 1.485 0.5627c2.261 1.02 6.623 2.45 8.101 2.658 0.3899 0.0546 1.241 0.2101 1.891 0.3455 1.717 0.3578 6 0.6407 6.333 0.4183 0.1565-0.1047 0.8413-0.1687 1.522-0.1424 0.6804 0.0263 1.31-0.025 1.398-0.1141s0.4736-0.162 0.8556-0.162c1.784 0 7.279-1.799 10.57-3.46 7.655-3.864 14.52-10.83 20.37-20.67 1.726-2.903 6.353-12 7.976-15.69 0.5761-1.307 1.388-3.126 1.805-4.041 0.4167-0.9151 0.8357-1.931 0.9312-2.258 0.0954-0.3268 0.2538-0.7012 0.3519-0.8319s0.6773-1.575 1.287-3.209 1.513-3.987 2.008-5.229c1.504-3.777 5.517-16.64 6.305-20.2 0.2166-0.9805 0.7437-3.173 1.171-4.873 0.4276-1.7 1.002-4.374 1.276-5.942 1.322-7.569 1.764-9.627 2.068-9.627 0.1993 0 0.2679 0.1912 0.1917 0.5348-0.0652 0.2942-0.6 3.175-1.189 6.402-2.98 16.34-7.758 31.68-14.94 47.97-6.904 15.66-12.96 25.29-20.01 31.8-8.075 7.46-18.52 11.31-28.04 10.35z" style="fill:#791415;stroke-width:.237"/>
  </g>
  <circle cx="118.5" cy="243.5" r="10.6" style="fill:url(#SVGID_182_)"/>
  <polygon transform="translate(-749.9,-437.5)" points="860.9 690.4 875.8 690.4 878.9 696.5 857.9 696.5" style="fill:url(#SVGID_183_)"/>
  <rect x="105.9" y="257.8" width="25.2" height="4.2" style="fill:url(#SVGID_184_)"/>
  <rect x="108.4" y="262" width="20.5" height="2.3" style="fill:url(#SVGID_185_)"/>
  <rect x="97.2" y="422.4" width="42.5" height="3.2" style="fill:url(#SVGID_186_)"/>
  <rect x="90.3" y="425.5" width="56.4" height="6" style="fill:url(#SVGID_187_)"/>
  <rect x="203" y="165.9" width="11.1" height="130.6" style="fill:url(#SVGID_188_)"/>
  <circle cx="208.5" cy="151.9" r="8.6" style="fill:url(#SVGID_189_)"/>
  <g transform="translate(-1.808,-8.243)">
   <path d="m226.4 178.5c-2.604-0.4079-3.651-0.7014-6.355-1.782-3.543-1.415-9.885-4.974-9.885-5.547 0-0.392 2.172-3.881 2.42-3.888 0.1014-3e-3 1.266 0.6522 2.589 1.456 7.126 4.33 12.53 5.811 17.62 4.828 9.902-1.911 16.9-10.66 24.98-31.25 2.734-6.965 5.606-17.11 6.756-23.88 0.7087-4.165 0.6124-3.902 1.43-3.902 0.3933 0 1.45 0.122 2.349 0.2712 1.419 0.2355 1.634 0.3367 1.633 0.7686-2e-3 0.8619-1.381 7.923-2.237 11.45-1.114 4.591-3.811 13.15-5.499 17.45-3.442 8.762-6.374 14.69-9.928 20.07-5.545 8.396-11.47 12.71-19.17 13.97-2.504 0.4092-3.999 0.4048-6.707-0.0194z" style="fill:#e39fa0;stroke-width:.2359"/>
   <path d="m226.2 178.3c-2.604-0.4079-3.651-0.7014-6.355-1.782-2.753-1.1-9.644-4.805-9.639-5.183 8.6e-4 -0.065 0.5568-0.985 1.236-2.044l1.234-1.926 1.878 1.174c7.121 4.452 13.14 6.1 18.51 5.065 9.902-1.911 16.9-10.66 24.98-31.25 2.789-7.107 5.589-17.05 6.841-24.3 0.3098-1.794 0.6288-3.328 0.709-3.409 0.2724-0.2737 4.178 0.44 4.311 0.7877 0.1649 0.4319-1.155 7.521-2.185 11.74-0.4453 1.822-1.549 5.677-2.452 8.567-4.857 15.54-11.67 28.89-17.92 35.12-4.403 4.388-8.484 6.569-13.97 7.465-2.515 0.4111-4.463 0.4059-7.178-0.0194z" style="fill:#a86a6b;stroke-width:.2359"/>
   <path d="m226.4 178.3c-2.604-0.4079-3.651-0.7014-6.355-1.782-3.402-1.359-9.636-4.819-9.645-5.353-5e-3 -0.3051 2.056-3.614 2.251-3.614 0.0628 0 1.196 0.6574 2.519 1.461 7.126 4.33 12.53 5.811 17.62 4.828 8.943-1.726 15.45-8.948 22.51-24.98 4.469-10.15 7.943-21.34 9.48-30.53 0.2909-1.739 0.5929-3.239 0.671-3.332 0.2186-0.2607 1.406-0.2344 2.9 0.0642 0.9929 0.1985 1.353 0.3744 1.352 0.6609-2e-3 0.7729-1.433 8.03-2.237 11.35-0.452 1.864-1.563 5.759-2.468 8.655-4.861 15.55-11.67 28.9-17.92 35.13-4.403 4.388-8.484 6.569-13.97 7.465-2.504 0.4092-3.999 0.4048-6.707-0.0194z" style="fill:#e44728;stroke-width:.2359"/>
   <path d="m226.4 178.3c-2.604-0.4079-3.651-0.7014-6.355-1.782-3.658-1.461-9.637-4.826-9.645-5.428-2e-3 -0.2 0.2914-0.72 0.6532-1.155l0.6577-0.7917 1.755 1.057c7.939 4.784 13.41 6.395 18.82 5.547 4.066-0.6375 6.172-1.466 9.549-3.76 9.495-6.446 20.37-29.82 24.79-53.27l0.6682-3.548 1.11 0.04c0.6106 0.022 1.174 0.104 1.252 0.1822 0.0778 0.0782-0.1521 1.763-0.5108 3.744-2.933 16.2-9.751 34.33-17.09 45.44-5.476 8.291-11.27 12.49-18.94 13.75-2.504 0.4092-3.999 0.4048-6.707-0.0194zm0.4702-3.752c-2.887-0.5041-4.274-0.9699-7.574-2.544-3.967-1.892-7.041-3.795-6.791-4.202 0.1332-0.2166 0.8414 0.1037 2.625 1.188 7.167 4.355 12.56 5.836 17.66 4.851 8.943-1.726 15.45-8.948 22.51-24.98 4.475-10.17 7.903-21.22 9.531-30.74 0.4215-2.464 0.6329-3.209 0.926-3.266 0.2611-0.0505 0.35 0.0602 0.2845 0.3542-0.0524 0.2352-0.4087 2.139-0.7916 4.231-2.135 11.66-6.413 24.26-12.03 35.46-2.856 5.688-5.673 9.982-8.387 12.78-2.941 3.038-3.809 3.648-8.577 6.032-0.7019 0.3509-3.826 0.91-5.735 1.026-1.054 0.0643-2.66-0.0208-3.648-0.1934z" style="fill:#cf3327;stroke-width:.2359"/>
   <path d="m226.4 178.3c-2.604-0.4079-3.651-0.7014-6.355-1.782-3.631-1.45-9.638-4.826-9.644-5.419-2e-3 -0.1951 0.2344-0.6506 0.525-1.012l0.5284-0.6574 1.197 0.7954c1.375 0.9137 5.993 3.449 7.041 3.865 2.269 0.9008 4.935 1.775 5.704 1.87 0.4873 0.0603 1.31 0.1732 1.827 0.2509 4.968 0.7454 10.31-0.643 14.89-3.868 1.483-1.045 6.642-6.105 6.642-6.515 0-0.1205 0.7961-1.376 1.769-2.79 1.962-2.852 5.158-9.005 7.544-14.52 0.1687-0.3902 0.5251-1.195 0.792-1.789s0.4853-1.211 0.4853-1.372 0.1714-0.6248 0.3808-1.032c0.5318-1.033 1.341-3.291 2.565-7.16 0.5764-1.821 1.308-4.109 1.625-5.085 0.8899-2.734 2.016-7.471 2.952-12.42l0.8501-4.494 0.9101 0.0563c0.5005 0.031 0.9664 0.1129 1.035 0.1822 0.0689 0.0692-0.1682 1.747-0.5269 3.728-2.933 16.2-9.751 34.33-17.09 45.44-5.476 8.291-11.27 12.49-18.94 13.75-2.504 0.4092-3.999 0.4048-6.707-0.0194z" style="fill:#ae2f24;stroke-width:.2359"/>
   <path d="m226.4 178.3c-4.423-0.6929-8.254-2.264-14.41-5.908-1.646-0.9745-1.774-1.153-1.285-1.798 0.2637-0.3482 0.4834-0.2681 2.17 0.791 2.333 1.465 7.488 3.992 9.525 4.668 2.031 0.6744 5.603 1.233 7.674 1.2 2.041-0.0327 7.726-1.214 8.094-1.682 0.0647-0.0823 0.3824-0.2327 0.706-0.3343s0.9834-0.4352 1.466-0.7414c0.4828-0.3062 0.949-0.5567 1.036-0.5567 0.4285 0 2.544-1.813 5.003-4.287 2.295-2.309 3.115-3.351 5.117-6.504 2.201-3.465 7.147-13.07 7.147-13.88 0-0.19 0.1589-0.4778 0.353-0.6398 0.1942-0.1619 0.353-0.4469 0.353-0.6332s0.2148-0.8126 0.4773-1.392c1.413-3.118 5.586-15.7 6.112-18.43 0.1502-0.7805 0.4891-2.164 0.7529-3.075 0.2639-0.9106 0.6737-2.826 0.9108-4.257 0.8789-5.305 0.9496-5.558 1.556-5.558 0.6983 0 0.6979 9e-3 -0.1623 4.612-1.022 5.469-2.128 9.848-3.997 15.83-4.861 15.55-11.67 28.9-17.92 35.13-4.403 4.388-8.484 6.569-13.97 7.465-2.504 0.4092-3.999 0.4048-6.707-0.0194z" style="fill:#871a1b;stroke-width:.2359"/>
   <path d="m226.4 178.3c-2.604-0.4079-3.651-0.7014-6.355-1.782-3.428-1.369-9.637-4.82-9.645-5.36-2e-3 -0.1626 0.0624-0.2956 0.1442-0.2956 0.1683 0 1.295 0.6606 3.028 1.776 2.52 1.621 6.75 3.54 9.626 4.367 4.508 1.296 9.896 1.191 13.91-0.2702 2.081-0.7576 4.521-2.074 6.703-3.616 0.1917-0.1355 1.568-1.482 3.06-2.992 2.068-2.095 3.153-3.441 4.575-5.676 1.025-1.612 1.996-3.09 2.158-3.285 0.4633-0.5593 3.976-7.736 5.534-11.3 4.231-9.695 7.6-20.68 9.393-30.64 0.3716-2.063 0.7346-3.81 0.8067-3.883 0.4339-0.436 0.3795 0.6063-0.1978 3.795-2.933 16.2-9.751 34.33-17.09 45.44-5.476 8.291-11.27 12.49-18.94 13.75-2.504 0.4092-3.999 0.4048-6.707-0.0194z" style="fill:#791416;stroke-width:.2359"/>
  </g>
  <polygon transform="translate(-749.9,-437.5)" points="952.4 597 964.4 597 966.9 601.9 949.9 601.9" style="fill:url(#SVGID_190_)"/>
  <rect x="198.3" y="163.4" width="20.4" height="3.4" style="fill:url(#SVGID_191_)"/>
  <rect x="200.4" y="166.8" width="16.6" height="1.8" style="fill:url(#SVGID_192_)"/>
  <rect x="191.4" y="296.5" width="34.3" height="2.6" style="fill:url(#SVGID_193_)"/>
  <rect x="185.7" y="299" width="45.6" height="4.9" style="fill:url(#SVGID_194_)"/>
  <rect x="266" y="103.7" width="9.6" height="113.4" style="fill:url(#SVGID_195_)"/>
  <circle cx="270.8" cy="91.5" r="7.5" style="fill:url(#SVGID_196_)"/>
  <polygon transform="translate(-749.9,-437.5)" points="1016 535.6 1026 535.6 1028 539.9 1013 539.9" style="fill:url(#SVGID_197_)"/>
  <rect x="261.9" y="101.6" width="17.7" height="2.9" style="fill:url(#SVGID_198_)"/>
  <rect x="263.8" y="104.5" width="14.4" height="1.6" style="fill:url(#SVGID_199_)"/>
  <rect x="255.9" y="217.2" width="29.8" height="2.3" style="fill:url(#SVGID_200_)"/>
  <rect x="251" y="219.3" width="39.6" height="4.2" style="fill:url(#SVGID_201_)"/>
  <rect x="570.3" y="260.9" width="13.7" height="161.5" style="fill:url(#SVGID_202_)"/>
  <g transform="translate(2.893,-7.328)">
   <path d="m544 273.2c-9.751-1.455-17.72-6.018-24.95-14.28-4.277-4.891-7.671-10.16-11.7-18.18-7.814-15.55-13.6-31.15-17.42-46.97-1.174-4.862-3.356-16.11-3.356-17.29 0-0.5566 0.1092-0.6032 2.089-0.8923 1.149-0.1678 2.621-0.3125 3.272-0.3217l1.182-0.0166 0.5372 3.189c2.889 17.15 7.765 32.97 15.53 50.41 6.487 14.56 11.74 22.96 18.12 28.98 9.019 8.498 19.83 10.95 31.43 7.128 2.978-0.9818 8.861-3.834 13.02-6.314 3.302-1.967 3.429-2.02 3.88-1.614 0.2562 0.2308 0.4658 0.5069 0.4658 0.6135s0.6326 1.133 1.406 2.281 1.36 2.163 1.305 2.255c-0.0553 0.0926-1.52 1.012-3.256 2.043-10.71 6.363-17.95 8.914-26.08 9.188-2.159 0.0728-4.104-9e-4 -5.492-0.2079z" style="fill:#d59f9f;stroke-width:.2382"/>
   <path d="m544 272.9c-9.751-1.455-17.72-6.018-24.95-14.28-4.277-4.891-7.671-10.16-11.7-18.18-9.63-19.16-16.08-38.1-19.7-57.83-0.5904-3.217-1.073-6.004-1.073-6.193 0-0.3426 1.631-0.6784 5.028-1.035l1.327-0.1393 0.2995 1.99c1.52 10.1 5.345 24.88 9.189 35.51 3.763 10.4 9.443 23.06 13.71 30.54 11.36 19.94 25.85 27.37 42.61 21.84 2.974-0.9804 8.859-3.833 13.01-6.305 1.869-1.113 3.489-1.968 3.6-1.9 0.1113 0.0685 0.6159 0.798 1.121 1.621 0.5055 0.8232 1.222 1.869 1.593 2.323 0.3705 0.4547 0.6737 0.9382 0.6737 1.074s-1.477 1.115-3.283 2.175c-8.348 4.901-13.73 7.157-20.12 8.426-3.019 0.6003-8.535 0.7722-11.34 0.3534z" style="fill:#e44728;stroke-width:.2382"/>
   <path d="m544 272.9c-9.751-1.455-17.72-6.018-24.95-14.28-4.277-4.891-7.671-10.16-11.7-18.18-7.919-15.76-13.68-31.35-17.52-47.43-1.271-5.321-3.448-16.65-3.239-16.86 0.1119-0.1114 3.404-0.5897 3.5-0.5084 0.0727 0.0616 0.6194 3.043 1.375 7.501 0.5889 3.473 0.7258 4.116 1.566 7.369 0.2534 0.9805 0.7371 3.013 1.075 4.516 0.3378 1.503 0.9236 3.696 1.302 4.873 0.378 1.177 0.8633 2.835 1.078 3.684 0.4266 1.686 2.827 8.937 3.777 11.41 0.5769 1.502 2.68 6.866 3.728 9.508 0.2852 0.719 0.7695 1.842 1.076 2.496 0.3067 0.6537 1.273 2.779 2.146 4.723 1.935 4.304 5.384 11 7.489 14.53 7.357 12.35 16.24 19.88 26.54 22.49 3.487 0.8842 8.226 1.114 11.83 0.5725 1.438-0.2159 2.884-0.4848 3.212-0.5975 0.3283-0.1127 1.242-0.3863 2.029-0.608s1.755-0.5355 2.149-0.6973 1.468-0.5924 2.388-0.957c0.9192-0.3645 2.531-1.099 3.581-1.633 1.051-0.5337 2.421-1.218 3.045-1.521s2.532-1.394 4.239-2.425c3.039-1.835 3.109-1.864 3.378-1.357 0.151 0.2846 0.5803 0.8894 0.9541 1.344 0.3738 0.4547 0.6796 0.9382 0.6796 1.074s-1.477 1.115-3.283 2.175c-8.348 4.901-13.73 7.157-20.12 8.426-3.019 0.6003-8.535 0.7722-11.34 0.3534zm1.313-5.148c-11.29-1.417-20.67-8.54-28.78-21.85-2.105-3.455-6.262-11.66-8.797-17.38-7.236-16.3-12.02-31.76-14.93-48.23-0.2653-1.503-0.5804-3.242-0.7002-3.863-0.2064-1.07-0.1905-1.129 0.307-1.129 0.4743 0 0.5532 0.1887 0.8198 1.961 1.515 10.07 5.346 24.87 9.185 35.48 3.763 10.4 9.443 23.06 13.71 30.54 11.36 19.94 25.85 27.37 42.61 21.84 2.98-0.9824 8.861-3.834 13.03-6.319 3.054-1.819 3.461-2 3.783-1.679 0.3222 0.3208 0.0183 0.5642-2.825 2.263-6.772 4.046-13.78 7.127-17.72 7.789-4.833 0.8125-6.819 0.9287-9.696 0.5674z" style="fill:#9a5454;stroke-width:.2382"/>
   <path d="m544 272.9c-11.46-1.71-20.62-7.792-28.67-19.05-2.741-3.833-4.858-7.435-7.742-13.17-7.814-15.55-13.6-31.15-17.42-46.97-1.12-4.64-3.356-16.09-3.356-17.18 0-0.3917 0.2055-0.5049 1.134-0.6248 0.6238-0.0805 1.371-0.1948 1.66-0.254 0.4508-0.0922 0.5467 0.0202 0.6703 0.7855 0.0793 0.4912 0.2946 1.642 0.4784 2.557 0.1838 0.9151 0.5609 3.054 0.838 4.754s0.5972 3.464 0.7113 3.922c0.1141 0.4576 0.4288 1.688 0.6993 2.734s0.7682 3.132 1.106 4.635 0.9236 3.696 1.302 4.873c0.378 1.177 0.8633 2.835 1.078 3.684 0.4266 1.686 2.827 8.937 3.777 11.41 0.5769 1.502 2.68 6.866 3.728 9.508 0.2852 0.719 0.7695 1.842 1.076 2.496 0.3067 0.6537 1.273 2.779 2.146 4.723 1.935 4.304 5.384 11 7.489 14.53 7.357 12.35 16.24 19.88 26.54 22.49 3.487 0.8842 8.226 1.114 11.83 0.5725 1.438-0.2159 2.884-0.4848 3.212-0.5975 0.3283-0.1127 1.242-0.3863 2.029-0.608s1.755-0.5355 2.149-0.6973 1.468-0.5924 2.388-0.957c0.9192-0.3645 2.531-1.099 3.581-1.633 1.051-0.5337 2.421-1.218 3.045-1.521s2.521-1.388 4.215-2.411l3.079-1.86 0.9647 1.506 0.9647 1.507-3.15 1.871c-10.7 6.359-17.95 8.911-26.07 9.185-2.159 0.0727-4.104-9e-4 -5.492-0.208zm1.313-5.148c-11.29-1.417-20.67-8.54-28.78-21.85-2.105-3.455-6.262-11.66-8.797-17.38-7.236-16.3-12.02-31.76-14.93-48.23-0.2653-1.503-0.5804-3.242-0.7002-3.863-0.2064-1.07-0.1905-1.129 0.307-1.129 0.4743 0 0.5532 0.1887 0.8198 1.961 1.515 10.07 5.346 24.87 9.185 35.48 3.763 10.4 9.443 23.06 13.71 30.54 11.36 19.94 25.85 27.37 42.61 21.84 2.98-0.9824 8.861-3.834 13.03-6.319 3.054-1.819 3.461-2 3.783-1.679 0.3222 0.3208 0.0183 0.5642-2.825 2.263-6.772 4.046-13.78 7.127-17.72 7.789-4.833 0.8125-6.819 0.9287-9.696 0.5674z" style="fill:#cd3127;stroke-width:.2382"/>
   <path d="m544 272.9c-11.46-1.71-20.62-7.792-28.67-19.05-2.741-3.833-4.858-7.435-7.742-13.17-9.63-19.16-16.08-38.1-19.7-57.83-0.5904-3.217-1.073-6.057-1.073-6.312 0-0.3287 0.2167-0.5064 0.7461-0.6118 1.387-0.2763 1.863-0.184 1.991 0.3863 0.3838 1.715 1.535 7.831 1.645 8.735 0.1857 1.536 0.5146 3.059 1.36 6.299 0.4094 1.569 0.9412 3.762 1.182 4.873 0.2405 1.111 0.8289 3.251 1.308 4.754s0.9738 3.161 1.1 3.684c0.4323 1.786 2.665 8.315 3.984 11.65 0.7242 1.83 1.558 4.023 1.853 4.873 0.4659 1.342 1.188 3.083 2.656 6.404 2.712 6.135 7.078 15.01 8.775 17.84 0.6663 1.111 1.374 2.313 1.572 2.672 0.5714 1.032 3.093 4.593 4.654 6.571 2.265 2.872 6.936 7.378 9.555 9.219 7.549 5.306 16.51 7.443 24.76 5.903 6.053-1.13 13.11-4.087 20.32-8.521 1.417-0.8708 2.652-1.581 2.746-1.579 0.0933 2e-3 0.5162 0.5321 0.9399 1.177l0.7703 1.173-3.158 1.876c-10.71 6.364-17.95 8.916-26.08 9.19-2.159 0.0727-4.104-9e-4 -5.492-0.208z" style="fill:#ae2e24;stroke-width:.2382"/>
   <path d="m544 272.9c-11.46-1.71-20.62-7.792-28.67-19.05-2.741-3.833-4.858-7.435-7.742-13.17-9.63-19.16-16.08-38.1-19.7-57.83-0.5904-3.217-1.073-6.058-1.073-6.314 0-0.3392 0.201-0.4954 0.7384-0.5739 0.418-0.0611 0.7713 5e-3 0.8142 0.1513 0.0417 0.1426 0.414 2.185 0.8273 4.538 0.9427 5.366 1.021 5.753 2.197 10.82 1.948 8.387 4.982 18.47 7.549 25.08 0.4062 1.046 1.176 3.078 1.711 4.516 0.5349 1.438 1.186 3.068 1.447 3.622 0.2609 0.5542 0.4743 1.058 0.4743 1.12s0.4835 1.142 1.074 2.402 1.074 2.34 1.074 2.401c0 0.3351 6.293 13.05 7.513 15.18 0.9865 1.722 2.246 3.791 2.749 4.516 2.605 3.755 5.691 7.683 7.186 9.144 2.366 2.313 4.31 3.98 6.01 5.156 1.083 0.7495 2.085 1.475 2.226 1.613 0.141 0.1376 0.8394 0.5165 1.552 0.842s1.349 0.6464 1.415 0.7131c0.5991 0.609 5.542 2.397 8.118 2.936 3.394 0.7108 4.295 0.7981 7.693 0.7454 4.786-0.0742 8.669-0.9309 13.92-3.072 2.779-1.132 8.229-3.881 10.83-5.463 1.128-0.6856 2.445-1.481 2.926-1.768l0.8744-0.5212 0.5025 0.7026 0.5025 0.7025-3.168 1.882c-10.72 6.37-17.96 8.922-26.09 9.196-2.159 0.0727-4.104-9e-4 -5.492-0.208z" style="fill:#871a1b;stroke-width:.2382"/>
   <path d="m544.3 272.9c-9.75-1.454-17.72-6.018-24.95-14.28-4.277-4.891-7.671-10.16-11.7-18.18-9.712-19.33-16.24-38.59-19.84-58.54-0.8863-4.91-1.026-6.293-0.5904-5.859 0.1322 0.1316 1.379 6.416 1.912 9.64 0.2198 1.329 0.6593 3.415 0.9767 4.635s0.853 3.449 1.19 4.952c1.053 4.695 4.863 16.86 6.923 22.11 0.6931 1.765 1.586 4.065 1.984 5.111 0.6661 1.75 2.531 6.095 4.235 9.864 1.765 3.906 6.412 12.98 7.91 15.45 8.226 13.56 17.68 21.27 29.28 23.88 0.8946 0.2015 1.924 0.3664 2.288 0.3664 0.3639 0 0.7247 0.0627 0.8016 0.1393 0.1331 0.1325 1.738 0.2586 4.357 0.3425 3.181 0.1019 9.683-1.312 13.73-2.985 0.8536-0.353 1.874-0.7638 2.268-0.9129 1.472-0.5572 6.319-3.116 9.558-5.046 3.352-1.998 3.785-2.188 4.041-1.775 0.3072 0.4948-9.827 6.097-14.43 7.979-6.967 2.846-14.17 3.97-19.94 3.111z" style="fill:#791415;stroke-width:.2382"/>
  </g>
  <circle cx="577.2" cy="243.5" r="10.6" style="fill:url(#SVGID_203_)"/>
  <polygon transform="translate(-749.9,-437.5)" points="1334 690.4 1320 690.4 1317 696.5 1338 696.5" style="fill:url(#SVGID_204_)"/>
  <rect x="564.6" y="257.8" width="25.2" height="4.2" style="fill:url(#SVGID_205_)"/>
  <rect x="566.7" y="262" width="20.5" height="2.3" style="fill:url(#SVGID_206_)"/>
  <rect x="555.9" y="422.4" width="42.5" height="3.2" style="fill:url(#SVGID_207_)"/>
  <rect x="549" y="425.5" width="56.4" height="6" style="fill:url(#SVGID_208_)"/>
  <rect x="481.6" y="165.9" width="11.1" height="130.6" style="fill:url(#SVGID_209_)"/>
  <circle cx="487.1" cy="151.9" r="8.6" style="fill:url(#SVGID_210_)"/>
  <polygon transform="translate(-749.9,-437.5)" points="1243 597 1231 597 1228 601.9 1246 601.9" style="fill:url(#SVGID_211_)"/>
  <rect x="476.9" y="163.4" width="20.4" height="3.4" style="fill:url(#SVGID_212_)"/>
  <rect x="478.6" y="166.8" width="16.6" height="1.8" style="fill:url(#SVGID_213_)"/>
  <rect x="470" y="296.5" width="34.3" height="2.6" style="fill:url(#SVGID_214_)"/>
  <rect x="464.3" y="299" width="45.6" height="4.9" style="fill:url(#SVGID_215_)"/>
  <rect x="420" y="103.7" width="9.6" height="113.4" style="fill:url(#SVGID_216_)"/>
  <circle cx="424.8" cy="91.5" r="7.5" style="fill:url(#SVGID_217_)"/>
  <polygon transform="translate(-749.9,-437.5)" points="1180 535.6 1170 535.6 1167 539.9 1182 539.9" style="fill:url(#SVGID_218_)"/>
  <rect x="416" y="101.6" width="17.7" height="2.9" style="fill:url(#SVGID_219_)"/>
  <rect x="417.5" y="104.5" width="14.4" height="1.6" style="fill:url(#SVGID_220_)"/>
  <rect x="409.9" y="217.2" width="29.8" height="2.3" style="fill:url(#SVGID_221_)"/>
  <rect x="405" y="219.3" width="39.6" height="4.2" style="fill:url(#SVGID_222_)"/>
  <polygon transform="translate(-749.9,-437.5)" points="1053 654.7 904.6 869 1100 869 1295 869 1147 654.7 1100 654.7" style="fill:url(#SVGID_223_)"/>
  <polygon transform="translate(-749.9,-437.5)" points="1059 654.7 1057 654.7 913.8 869 918.1 869" style="fill:url(#SVGID_224_)"/>
  <polygon transform="translate(-749.9,-437.5)" points="1142 654.7 1144 654.7 1288 869 1283 869" style="fill:url(#SVGID_225_)"/>
 </g>
</svg>
