       <svg id="esv"  viewBox="0 0 300 104" >
 <path id="trim" d="m197.7 5.921c-4.524-0.1243-1.317-0.2681-3.569-0.00826l4.952 27c3.197-0.1726 2.669-0.3354 5.04-0.8625 0.4816-4.182-6.085-23.28-6.42-26.13zm-191.1 38.1c-3.423 5.465-2.937 12.52-4.019 17.6 0.3287 0.9386 8.44-2.527 9.406-3.121 1.086-5.36 6.535-12.73 6.53-12.74 6.56-0.774 9.786-2.357 12.17-6.015-4.703-3.312-20.13 0.2516-24.09 4.28zm135.4 42.06c-11.36 0.562-63.2-1.856-67.35 1.935 23.52 1.707 58.3 0.06515 77.1-0.2551 16.26-0.541 34.2-0.14 50.15-1.556-0.2574-0.3554-0.8916-0.8575-2.074-1.067-3.712-0.657-39.01 1.536-57.85 0.9431zm125.8-84.8c-4.141-1.691-10.62 0.1824-13.86-0.7155-33.48 0.04614-70-0.2526-94.81 0.725-5.305 0.335-13.04 1.263-17.38 2.882 4.7 0.02759 121.7-1.212 129-0.8846zm-249.4 84.91 6.674 0.568c1.332-18.01 7.753-26.54 25.42-25.84 15.24 5.957 15.71 15.57 16.9 25.56l8.094-0.71c-1.057-22.67-8.826-34.54-28.4-35.22-24.49 0.00729-28.54 16.39-28.68 35.64zm183.3-5.254 8.236 0.284c-1.45-12.58 15.59-21.74 18.03-21.16 10.36 2.456 19.16 6.948 22.01 19.17l8.782-0.6514c2.912-22.38-11.7-27.56-29.37-29.74-16.08 2.685-31.28 6.396-27.69 32.09z" style="fill:#ffffff"/>
 <path id="fHub" d="m34 66.66c15.8-11.41 31.23 1.279 31.38 16.11 0.0582 5.945-8.695 19.49-19.9 18.32-20.98-2.199-23.55-25.71-11.48-34.41z" style="fill:#ffffff;stroke-width:.5"/>
 <path id="fWheel" d="m45.49 58.91c11.15 0 23.3 7.85 23.3 23.35 0.1997 10.94-9.661 22.11-22.42 22.11-12.99 0-23.03-9.921-23.03-22.92 0-13.39 11.46-22.53 22.14-22.53zm18.01 28.92c3.468-10.66-1.815-21.34-13.73-24.46-13.9-2.217-22.07 8.83-22.39 17.14-0.568 9.576 5.855 16.39 12.49 18.8 11.92 3.765 21.64-4.152 23.63-11.48zm-24.37 10.41c-0.2195-0.2392-0.2248-0.2878-0.07655-0.7175 1.673-3.332 3.072-5.86 4.894-8.99 0.4895-0.706 0.7185-0.691 2.344 0.1564 2.214 1.155 2.663 1.608 2.994 3.014 0.6935 2.241 1.513 4.346 2.006 6.74-2.292 1.716-8.77 1.168-12.16-0.2032zm11.4 0.192c-0.3999-0.1683-1.219-0.916-1.404-1.281-0.2689-0.532-1.513-6.08-1.391-6.2 0.1201-0.1228 0.479-0.1356 0.6885-0.02471 0.4138 0.2194 0.1448-0.2953-0.3214-0.6145-0.634-0.4345-3.166-1.72-3.387-1.72-0.3988 0-0.6275 0.2819-1.333 1.645-0.4037 0.7795-1.316 2.439-2.028 3.688-1.696 2.978-1.807 3.218-1.714 3.721 0.1001 0.546 0.3906 0.4389 0.3906-0.1438 0-0.2935 0.0982-0.547 0.3201-0.825 0.9746-1.598 3.76-8.125 4.522-7.505 0.2777 0.00201 1.287 0.5155 1.503 0.7655 0.9811 3.114 1.227 4.761 1.97 7.785 0.144 0.3828 0.1366 0.989-0.01472 1.225-0.08816 0.1377-0.1384 0.2728-0.1115 0.3003 0.9786 0.0712 2.658-0.5645 2.31-0.812zm-0.8545-11.3c1.428-1.266 3.024-2.101 4.523-2.147 1.324 0.2636 6.515 2.263 7.89 3.169 0.4071 1.186-4.08 7.33-7.34 9.02-1.605 1.592-4.133-7.945-5.075-10.04zm4.901 9.346c0.03149-0.2219-0.301-0.126-0.4336-0.1815-1.215-3.245-2.477-5.615-3.363-8.75 0.03586-0.314 0.5775-0.643 1.362-0.827 0.8865-0.2881 4.879 1.746 6.52 2.548 1.597 0.783 2.015 1.094 2.032 1.513 0.5605-0.4788 1.018-1.616 1.304-2.402-0.02074-0.02115-0.4218 0.04273-0.8915 0.142-0.4696 0.09925-0.9936 0.1804-1.164 0.1804-2.102-0.768-4.063-1.514-5.88-2.705 0.01637-0.1217 0.1937-0.3037 0.3941-0.4044 0.5545-0.2786 0.4435-0.3885-0.3361-0.3336-1.497 0.3028-2.65 0.861-3.706 1.842-0.284 0.5695-0.2794 0.6205 0.1366 1.556 0.9776 2.604 2.2 5.31 3.147 7.655 0.1341 0.3501 0.3954 0.712 0.514 0.712 0.2786-0.08861 0.2956-0.3058 0.3669-0.546zm-25.24-10.3c3.966-0.6525 7.24-1.565 10.8-1.585 0.4144 0.5915 1.221 3.438 0.846 5.06-0.678 1.368-4.379 7.045-4.562 7-1.817 0.1189-8.81-9.376-7.08-10.48zm6.895 10.19c-0.1128-0.4661-0.1451-0.963-0.1224-1.355-0.4476-0.678 2.197-3.802 3.669-5.765 0.3042-0.2801 0.536-0.1564 0.664 0.3544 0.1059 0.535 0.1162 0.4093 0.3206-0.01963-0.02426-2.134-0.04431-5.345-1.942-4.708-2.992 0.4242-6.18 0.8935-8.74 1.607-0.1461 0.1495-0.03148 0.5345 0.1291 0.4326 2.852-0.5065 5.88-1.242 8.6-1.562 0.8955-0.1861 1.518 1.978 0.7655 2.726-1.333 2.156-4.121 6.975-5.425 6.335-0.4657-0.1513-0.1569 0.2923 0.805 1.156 0.2983 0.446 0.9436 0.6955 1.276 0.7965zm8.195-11.18c0.753-0.882 2.037-0.6665 2.367 0.511 0.07715 0.5775-0.248 1.183-0.749 1.426-1.293 0.4974-2.302-0.8055-1.618-1.937zm3.535-1.39c0.4597-1.224 1.624-0.9776 1.93-0.6945 0.8365 0.4775 0.724 1.677 0.0907 2.103-1.022 0.728-2.364-0.2233-2.02-1.409zm4.262-2.494c0-0.3593 0.4542-2.342 0.689-3.007 0.9671-2.777 5.26-4.18 7.99-5.475 2.235 2.787 2.733 7.915 2.162 12.06-0.928 0.4941-11.39-2.148-10.84-3.572zm10.1 3.277c0.0983-0.03867 0.1786-0.161 0.1786-0.2723 0-0.166-0.1406-0.2155-0.786-0.2769-2.826-0.771-6.76-1.342-8.585-3.009 0.03943-0.561 0.1875-1.017 0.3425-1.554 0.1028-0.957 5.185-2.727 8.05-3.945 0.2907 0 0.5285-0.04831 0.5285-0.1074 0-0.2293-1.009-2.319-1.121-2.319-0.2809 0.3666-0.413 0.914-0.5775 1.329-0.3729 0.8356-0.5265 0.9396-3.759 2.541-2.435 1.208-2.559 1.228-2.559 0.4299 0-0.4008-0.00402-0.4044-0.2258-0.199-0.1242 0.115-0.2258 0.2582-0.2258 0.3181-0.542 1.476-1.357 3.787-0.7875 4.307 2.737 1.311 5.77 1.833 8.235 2.751 0.4494 0.105 0.907 0.05586 1.287 0.00558zm-20.82-2.13c0.4598-0.483 1.636-0.2279 1.898 0.4326 0.4707 0.7255-0.0727 1.92-1.196 1.905-1.375-0.1671-1.577-1.781-0.7025-2.338zm-12.73 0.902c-0.7485 0.00486-0.543-9.12 3.375-12.1 2.587 2.075 5.14 4.58 7.53 6.91 0.561 0.5675 0.605 0.65 0.546 1.024-0.3802 1.218-2.226 3.337-3.391 3.559-2.753 0.115-5.585 0.6375-8.06 0.608zm0.478-0.8866c0.9336-0.923 0.9446-0.9256 4.277-0.8625 1.624 0.03108 3.075 0.082 3.223 0.1135 0.2674 0.05651 0.2654 0.06281-0.1641 0.513-0.4725 0.4952-0.4584 0.5395 0.09446 0.2954 0.66-0.291 2.396-2.166 2.838-3.065 0.3989-0.8115 0.3942-0.8215-0.9791-2.096-1.492-1.453-3.234-2.947-4.657-4.225-1.051-1.041-1.63-1.336-1.79-0.9105-0.03667 0.0974 0.0571 0.2003 0.2444 0.2684 2.302 2.058 4.813 3.993 6.91 6.365 0 0.264-0.9861 1.392-1.344 1.538-0.4553 0.1848-8.065 0.1988-8.7 0.01592-0.2765-0.08005-0.525-0.1228-0.5525-0.09495-0.06855 0.07015-0.1095 2.277-0.04542 2.454 0.4869 0.3865 0.1976 0.0783 0.643-0.3059zm19.04-2.281c0.03867-1.557 1.667-1.723 2.356-0.862 0.635 1.252-0.2752 1.914-0.5685 1.972-0.9841 0.3304-1.691-0.3144-1.788-1.11zm-6.65-1.541c0.4082-0.4543 1.394-0.7755 2.015-0.00402 0.869 1.15-0.2641 2.117-0.8295 2.133-1.316 0.02255-1.819-1.189-1.185-2.129zm3.382-0.4112c-0.2732-1.279 0.712-1.792 1.367-1.741 1.485 0.2399 1.48 1.976 0.4521 2.488-0.513 0.1696-1.223 0.2853-1.819-0.7465zm2.071-6.05c0.3472-2.715 0.7205-5.96 1.554-7.995 2.064-0.1933 7.265 2.605 9.225 4.587 1.279 1.224 1.368 1.489 0.706 2.096-2.989 2.29-7.88 6.07-8.495 5.915-0.628-0.06635-3.344-3.714-2.988-4.604zm3.683 3.967c2.463-1.753 5.25-3.647 7.44-5.485 0.082-0.1569 0.081-0.2948-0.003015-0.456-0.1534-0.2935-0.3432-0.2963-0.4173-0.00638-2.738 2.25-4.849 3.924-7.595 5.66-1.271-1.352-1.191-2.451-0.9716-3.493 0.4886-2.345 0.7975-4.3 1.357-6.35 0.08546-0.4719 0.3381-0.5645 0.574-0.8256 0.203-0.1519 0.1896-0.1726-0.2325-0.3563-0.7175-0.3311-1.531-0.375-2.293-0.4614-0.01253 0.2553 0.917 1.487 0.848 2.415-0.1148 1.622-0.556 3.29-0.8585 4.812-0.1172 0.7845-0.3027 1.146-0.5885 1.146-0.3182-0.2165-0.501-0.4543-0.7735-0.751-0.0629 0.434 0.08936 0.844 0.1972 1.229 1.472 1.795 1.953 3.622 3.317 2.921zm-16.72-7.125c0.219-2.105 8.66-5.655 11.21-4.992 0.2638 3.892-0.2584 11.07-0.666 11.62-1.496 0.2072-2.991 0.2405-4.487-0.03511-2.057-1.97-5.855-5.18-6.055-6.595zm10.37 6.055c0.2608-0.4799 0.1781-0.7315 0.4114-3.654 0.05045-2.225 0.3619-4.654 0.0416-6.66-0.3567-0.06196-0.3823-0.01954-0.3914 0.653-0.02802 3.339-0.3407 6.135-0.4986 9.155-1.203 0.2543-1.943 0.08396-2.583-0.8125-1.622-2.075-3.724-3.906-4.926-6.215-0.04072-0.2466-0.1186-0.4483-0.1731-0.4483-0.857 0.338-1.516 1.313-1.748 1.761 0.0965 0.05535 0.2239 0.07 0.2829 0.03269 0.05905-0.03746 0.4411 0.0231 0.8485 0.1342 1.823 1.53 3.441 3.451 4.686 5.425-0.3453 0.1994-0.7095 0.1205-1.034-0.00452-0.1819 0.115 0.07335 0.4299 0.515 0.635 1.629 0.1176 3.248 0.4986 4.569-3e-4z" style="fill:#000000;stroke-width:.5"/>
 <path id="brake" d="m281.8 8.026c0.7045-0.3821 0.808-0.00964 5.1 6.52 3.821 5.995 7.915 14.6 9.35 19.46 1.042 3.06 1.618 14.07 0.663 14.36-0.2963 0.08726-3.159 1.146-3.732-0.1949-0.505-1.18-0.1076-4.588-0.4202-7.64-0.6425-6.15-2.151-11.99-4.598-17.38-2.428-6.64-7.03-11.32-7.78-15.16z" style="fill:#8a112b;stroke-width:.5"/>
 <path id="rHub" d="m217.9 66.66c15.8-11.41 31.23 1.279 31.38 16.11 0.0582 5.945-8.695 19.49-19.9 18.32-20.98-2.199-23.55-25.71-11.48-34.41z" style="fill:#ffffff;stroke-width:.5"/>
 <path id="rWheel" d="m229.4 58.91c11.15 0 23.3 7.85 23.3 23.35 0.1997 10.94-9.661 22.11-22.42 22.11-12.99 0-23.03-9.921-23.03-22.92 0-13.39 11.46-22.53 22.14-22.53zm18.01 28.92c3.468-10.66-1.815-21.34-13.73-24.46-13.9-2.217-22.07 8.83-22.39 17.14-0.568 9.576 5.855 16.39 12.49 18.8 11.92 3.765 21.64-4.152 23.63-11.48zm-24.37 10.41c-0.2195-0.2392-0.2248-0.2878-0.07655-0.7175 1.673-3.332 3.072-5.86 4.894-8.99 0.4895-0.706 0.7185-0.691 2.344 0.1564 2.214 1.155 2.663 1.608 2.994 3.014 0.6935 2.241 1.513 4.346 2.006 6.74-2.292 1.716-8.77 1.168-12.16-0.2032zm11.4 0.192c-0.3999-0.1683-1.219-0.916-1.404-1.281-0.2689-0.532-1.513-6.08-1.391-6.2 0.1201-0.1228 0.479-0.1356 0.6885-0.02471 0.4138 0.2194 0.1448-0.2953-0.3214-0.6145-0.634-0.4345-3.166-1.72-3.387-1.72-0.3988 0-0.6275 0.2819-1.333 1.645-0.4037 0.7795-1.316 2.439-2.028 3.688-1.696 2.978-1.807 3.218-1.714 3.721 0.1 0.546 0.3906 0.4389 0.3906-0.1438 0-0.2935 0.0982-0.547 0.3201-0.825 0.9746-1.598 3.76-8.125 4.522-7.505 0.2777 0.00201 1.287 0.5155 1.503 0.7655 0.981 3.114 1.227 4.761 1.97 7.785 0.144 0.3828 0.1366 0.989-0.01471 1.225-0.08816 0.1377-0.1384 0.2728-0.1115 0.3003 0.9786 0.0712 2.658-0.5645 2.31-0.812zm-0.8546-11.3c1.428-1.266 3.024-2.101 4.523-2.147 1.324 0.2636 6.515 2.263 7.89 3.169 0.4071 1.186-4.08 7.33-7.34 9.02-1.605 1.592-4.133-7.945-5.075-10.04zm4.901 9.346c0.0315-0.2219-0.301-0.126-0.4336-0.1815-1.215-3.245-2.477-5.615-3.363-8.75 0.03586-0.314 0.5775-0.643 1.362-0.827 0.8865-0.2881 4.879 1.746 6.52 2.548 1.597 0.783 2.015 1.094 2.032 1.513 0.5605-0.4788 1.018-1.616 1.304-2.402-0.02074-0.02115-0.4218 0.04273-0.8916 0.142-0.4696 0.09925-0.9936 0.1804-1.164 0.1804-2.102-0.768-4.063-1.514-5.88-2.705 0.01637-0.1217 0.1937-0.3037 0.3941-0.4044 0.5545-0.2786 0.4435-0.3885-0.3361-0.3336-1.497 0.3028-2.65 0.861-3.706 1.842-0.284 0.5695-0.2794 0.6205 0.1366 1.556 0.9776 2.604 2.2 5.31 3.147 7.655 0.1341 0.3501 0.3954 0.712 0.514 0.712 0.2786-0.08861 0.2956-0.3058 0.3669-0.546zm-25.24-10.3c3.966-0.6525 7.24-1.565 10.8-1.585 0.4144 0.5915 1.221 3.438 0.846 5.06-0.678 1.368-4.379 7.045-4.562 7-1.817 0.1189-8.81-9.376-7.08-10.48zm6.895 10.19c-0.1128-0.4661-0.1451-0.963-0.1224-1.355-0.4476-0.678 2.197-3.802 3.669-5.765 0.3042-0.2801 0.536-0.1564 0.664 0.3544 0.1059 0.535 0.1162 0.4093 0.3206-0.01963-0.02426-2.134-0.04431-5.345-1.942-4.708-2.992 0.4242-6.18 0.8935-8.74 1.607-0.1461 0.1495-0.03148 0.5345 0.1291 0.4326 2.852-0.5065 5.88-1.242 8.6-1.562 0.8956-0.1861 1.518 1.978 0.7655 2.726-1.333 2.156-4.121 6.975-5.425 6.335-0.4657-0.1513-0.1569 0.2923 0.805 1.156 0.2983 0.446 0.9436 0.6955 1.276 0.7965zm8.195-11.18c0.753-0.882 2.037-0.6665 2.367 0.511 0.07715 0.5775-0.248 1.183-0.749 1.426-1.293 0.4974-2.302-0.8055-1.618-1.937zm3.535-1.39c0.4597-1.224 1.624-0.9776 1.93-0.6945 0.8365 0.4775 0.724 1.677 0.0907 2.103-1.022 0.728-2.364-0.2233-2.02-1.409zm4.262-2.494c0-0.3593 0.4542-2.342 0.689-3.007 0.967-2.777 5.26-4.18 7.99-5.475 2.235 2.787 2.733 7.915 2.162 12.06-0.928 0.4941-11.39-2.148-10.84-3.572zm10.1 3.277c0.0983-0.03867 0.1786-0.161 0.1786-0.2723 0-0.166-0.1406-0.2155-0.786-0.2769-2.826-0.771-6.76-1.342-8.585-3.009 0.03942-0.561 0.1875-1.017 0.3425-1.554 0.1028-0.957 5.185-2.727 8.05-3.945 0.2907 0 0.5285-0.04831 0.5285-0.1074 0-0.2293-1.009-2.319-1.121-2.319-0.2809 0.3666-0.413 0.914-0.5775 1.329-0.3729 0.8356-0.5265 0.9396-3.759 2.541-2.435 1.208-2.559 1.228-2.559 0.4299 0-0.4008-0.00402-0.4044-0.2258-0.199-0.1242 0.115-0.2258 0.2582-0.2258 0.3181-0.542 1.476-1.357 3.787-0.7875 4.307 2.737 1.311 5.77 1.833 8.235 2.751 0.4494 0.105 0.907 0.05586 1.287 0.00558zm-20.82-2.13c0.4598-0.483 1.636-0.2279 1.898 0.4326 0.4707 0.7255-0.0727 1.92-1.196 1.905-1.375-0.1671-1.577-1.781-0.7025-2.338zm-12.73 0.902c-0.7485 0.00486-0.543-9.12 3.375-12.1 2.587 2.075 5.14 4.58 7.53 6.91 0.561 0.5675 0.605 0.65 0.546 1.024-0.3802 1.218-2.226 3.337-3.391 3.559-2.753 0.115-5.585 0.6375-8.06 0.608zm0.478-0.8866c0.9336-0.923 0.9446-0.9256 4.277-0.8625 1.624 0.03108 3.075 0.082 3.223 0.1135 0.2674 0.05651 0.2654 0.06281-0.164 0.513-0.4725 0.4952-0.4584 0.5395 0.09445 0.2954 0.66-0.291 2.396-2.166 2.838-3.065 0.3989-0.8115 0.3942-0.8215-0.979-2.096-1.492-1.453-3.234-2.947-4.657-4.225-1.051-1.041-1.63-1.336-1.79-0.9105-0.03667 0.0974 0.0571 0.2003 0.2444 0.2684 2.302 2.058 4.813 3.993 6.91 6.365 0 0.264-0.9861 1.392-1.344 1.538-0.4553 0.1848-8.065 0.1988-8.7 0.01592-0.2765-0.08005-0.525-0.1228-0.5525-0.09495-0.06855 0.07015-0.1094 2.277-0.04542 2.454 0.4869 0.3865 0.1976 0.0783 0.643-0.3059zm19.04-2.281c0.03867-1.557 1.667-1.723 2.356-0.862 0.635 1.252-0.2752 1.914-0.5685 1.972-0.9841 0.3304-1.691-0.3144-1.788-1.11zm-6.65-1.541c0.4082-0.4543 1.394-0.7755 2.015-0.00402 0.869 1.15-0.2641 2.117-0.8295 2.133-1.316 0.02255-1.819-1.189-1.185-2.129zm3.382-0.4112c-0.2732-1.279 0.712-1.792 1.367-1.741 1.485 0.2399 1.48 1.976 0.4521 2.488-0.513 0.1696-1.223 0.2853-1.819-0.7465zm2.071-6.05c0.3471-2.715 0.7205-5.96 1.554-7.995 2.064-0.1933 7.265 2.605 9.225 4.587 1.279 1.224 1.368 1.489 0.706 2.096-2.989 2.29-7.88 6.07-8.495 5.915-0.628-0.06635-3.344-3.714-2.988-4.604zm3.683 3.967c2.463-1.753 5.25-3.647 7.44-5.485 0.082-0.1569 0.081-0.2948-0.00302-0.456-0.1534-0.2935-0.3432-0.2963-0.4173-0.00638-2.738 2.25-4.849 3.924-7.595 5.66-1.271-1.352-1.191-2.451-0.9716-3.493 0.4886-2.345 0.7976-4.3 1.357-6.35 0.08545-0.4719 0.3381-0.5645 0.574-0.8256 0.203-0.1519 0.1896-0.1726-0.2325-0.3563-0.7175-0.3311-1.531-0.375-2.293-0.4614-0.01252 0.2553 0.917 1.487 0.848 2.415-0.1148 1.622-0.556 3.29-0.8586 4.812-0.1172 0.7845-0.3027 1.146-0.5885 1.146-0.3182-0.2165-0.501-0.4543-0.7735-0.751-0.0629 0.434 0.08935 0.844 0.1972 1.229 1.472 1.795 1.953 3.622 3.317 2.921zm-16.72-7.125c0.219-2.105 8.66-5.655 11.21-4.992 0.2638 3.892-0.2584 11.07-0.666 11.62-1.496 0.2072-2.991 0.2405-4.487-0.03511-2.057-1.97-5.855-5.18-6.055-6.595zm10.37 6.055c0.2608-0.4799 0.1781-0.7315 0.4114-3.654 0.0505-2.225 0.3619-4.654 0.0416-6.66-0.3567-0.06196-0.3823-0.01954-0.3914 0.653-0.02802 3.339-0.3407 6.135-0.4986 9.155-1.203 0.2543-1.943 0.08396-2.583-0.8125-1.622-2.075-3.724-3.906-4.926-6.215-0.04072-0.2466-0.1186-0.4483-0.1731-0.4483-0.857 0.338-1.516 1.313-1.748 1.761 0.0965 0.05535 0.2239 0.07 0.2829 0.03269 0.05906-0.03746 0.4411 0.0231 0.8486 0.1342 1.823 1.53 3.441 3.451 4.686 5.425-0.3453 0.1994-0.7095 0.1205-1.034-0.00452-0.1819 0.115 0.07336 0.4299 0.515 0.635 1.629 0.1176 3.248 0.4986 4.569-3e-4z" style="fill:#000000;stroke-width:.5"/>
 <path id="body" d="m154.1 1.496c-3.083 0.3642-9.17 0.9981-14.69 2.749-6.35 0.08266-14.91 0.663-18.78 1.109-0.825 0.09496-2.704 0.1943-4.071 0.649-0.5805 0.193-0.2948-1.587-2.178-0.8735 0.1848-2.435-0.849-2.142-3.369-0.6715-1.293 1.366-0.05001 2.942-4.885 4.924-11.48 5.635-23.9 15.55-32.52 23.47-14.61 0.805-30.48 1.322-42.61 3.222-6.175 0.847-18.31 2.56-23.02 4.968-3.96 1.767-5.935 9.561-6.615 13.28-1.383 5.46-1.384 14.14-1.312 18.2 0.1478 7.84 0.9025 8.435 2.351 10.63 1.616 4.29 4.263 3.528 6.455 6.49 0.1855 0.817 0.2537 3.381 0.892 3.747 3.412 0.66 8.325 1.157 11.74 0.9106-1.338-17.38-0.6395-30.21 8.105-34.87 9.831-4.7 28.93-6.295 36.25 0 4.473 7.3 4.218 12.51 6.33 20.64 0.1478 2.566 1.327 7.81 1.706 9.536 0.374 0.1482 5.16 0.2712 10.16 0.1854 19.88 0.02371 40.96 0.4665 61.65 0.2226 19.07-0.4617 39.27-1.804 56.75-2.322 1.071-3.623 1.096-5.145 1.509-7.94 1.3-11.06 4.136-20.4 9.711-23.88 7.21-5.13 28.29-3.722 34.02 0 2.868 1.13 8.87 14.07 9.536 26.99 3.067-0.1993 15.13-1.343 20.07-1.752 10.39-0.861 14.84-1.479 14.89-1.691 0.359 0.01609 5.695-6.955 7.1-10.51 0.737-2.843 0.659-5.51 0.6865-7.565 0.08096-2.035 0.2758-4.925-0.829-6.04-0.992-1.583-1.266-0.993-1.65-1.827 0.1584-1.124-0.07875-2.096-0.3861-5.27l-3.427-0.1746c-0.07456-1.821 0.2009-2.611-0.04542-3.862-0.5685-7.385 0.0635-6.305-1.215-11.76-1.48-4.332-5.41-13.39-6.555-15.36-2.62-4.407-2.659-4.51-5.155-8.45-0.2106-0.7265 2.397 0.00536 2.317 0.1038-1.687-2.604 0.4885 0.6215 2.731-1.46-0.1834-0.839 1.115-3.513-3.276-3.852-3.047-0.2863-7.89-0.08496-11.74-0.5495-2.241-1.208-1.397-1.735-5.09-2.534-14.22-0.648-40.77-0.1213-64.05 0.2821-4.061 0.148-43.27 0.00794-47.56 0.8985zm109.6-0.4839c3.402-0.1658 3.614 0.995 6.165 1.937-50.7-0.3354-87.45-0.01034-127.8 1.163 1.264-0.3719 8.445-1.563 12.18-2.119 2.721-0.614 29.58-0.9556 45.08-0.953 6.805-0.0695 60.45-0.3706 64.35-0.02765zm-64.7 29.98c-1.096-7.22-2.781-14.73-4.525-23.58l-0.2507-1.234c0.9971 0.00562 1.833 0.05761 2.812 0.06476 3.659 11.09 4.521 16.84 6.43 24.56-0.1625 1.579-1.658 1.347-4.349 1.408zm-169.8 8.94c-1.5 2.425-2.543 3.319-4.68 3.781-5.525 0.6875-7.855 1.271-9.24 3.259-2.834 2.884-2.549 8.11-6.415 12.16-1.321 0.5065-4.251 1.197-5.2 1.028 0.1151-2.22 2.159-15.05 3.326-15.8 8.84-4.185 14.23-3.386 22.21-4.432zm171.8 46.03c-18.59 1.155-48.45 1.118-55.5 1.491-7.29 0.1011-16.3 0.2541-23.91 0.3046-16.9 0.01832-41.55 0.917-45.95 0.07616 0.207-0.3218 1.142-0.874 1.756-0.6155 3.668 0.2651 35.69-0.1567 68-0.561 20.6-0.2578 37.39-0.9691 54.8-1.344z" style="fill:#000000;stroke-width:.5"/>
 <path id="dDTrim" d="m142.7 7.266c-11.22-0.0136-25.03-0.3226-35.69 5.195-9.325 6.145-21.15 12.09-27.09 21.8 0.3524 0.8686 0.933 1.571 1.907 1.982l59.9-2.144 0.1238-1.694-59.5 1.867c0.124-3.876 19.27-17.45 26.97-20.81 11.32-4.929 23.37-4.538 33.36-4.923zm-5.45 33.29-15.05 0.6935 0.2768 2.636 16.37-0.486zm3.673 22.92-61.85 1.015 1.249 5.34 60.8-3.437z" style="fill:#ffffff;stroke-width:.5"/>
 <path id="dDoor" d="m142.7 7.366c-12.33 0.3613-17.92 0.598-21.8 1.322-9.23 1.333-16.35 5.045-23.78 10.33-4.799 3.776-11.7 8.8-15.88 13.63-0.4711 0.643-2.663 3.596 2.632 3.223 7.965-0.194 17.7-0.5575 25.75-0.8276 12.18-0.2565 19.62-0.8645 32.14-1.129l0.0888-1.381c-28.07 0.6185-49.03 1.905-52.5 1.965-1.664 0.02883-7.805 0.6995-7.395-0.2271 1.165-3.531 9.791-10.55 16.92-15.27 11.75-7.965 18.29-9.296 33.19-10.3 4.785-0.1297 5.395-0.1768 10.62-0.304zm-5.275 34.13c-0.828-0.7195-8.47-0.1895-10.77-0.05291-6.135 0.2601-3.424 2.463-2.427 2.122 4.734-0.4872 11.01 0.0759 13.43-0.771zm3.528 22.14c-8.965 0.1984-13.16 0.4965-21.78 0.6185-13.62 0.2412-27.29 0.4498-39.36 0.787 0.1416 5.14 0.853 4.374 5.65 3.868 21.35-1.179 36.65-2.197 55.6-2.595zm-59.2 19.7c-3.453-7.14-3.746-15.54-4.844-23.62-0.1782-7.7-0.838-15.83-0.3-22.9 0.3781-2.257 1.115-3.908 2.286-5.195 1.278-1.618 3.486-3.484 5.255-4.904 4.547-3.821 9.35-7.185 14.39-10.72 6.265-4.259 13.08-7.285 20.55-8.6 5.085-1.177 9.731-1.272 14.49-1.298l9.17-0.1046c-0.2088 8.87-0.08596 18.68-1.057 28.67 0 0-0.6855 13.02-0.7605 20.19-0.04321 4.136-0.00598 8.07 0.1396 11.83 0.5865 8.54 1.412 10.03 2.58 16.32z" style="fill:#000000;stroke-width:.5"/>
 <path id="rDTrim" d="m185.8 39.17c-2.859 0.5655-5.5 0.3882-5.365 1.997 0.2493 0.8435 1.97 0.924 6.255 0.7585 2.7-0.3785 9.651-0.1695 9.676-1.343-0.0851-1.967-2.802-1.925-10.57-1.413zm-44.82 27.27 55.35-1.787c2.114-2.625 1.187-1.158 1.822-3.398l-57.25 2.293m0.808-29.31 0.1385-1.854 56.85-1.517 0.2146 1.392zm0.9056-25.7 0.02-1.281c17.18-0.4004 34.44-1.338 51.6-1.192l0.2559 1.45c-18.06-0.03302-36.41 0.674-51.85 1.024z" style="fill:#ffffff;stroke-width:.5"/>
 <path id="rD" d="m141.8 32.53c20.39-0.4484 41.01-1.19 56.85-1.54l0.1768 1.218c-8.975 0.09751-55.3 1.816-57.1 1.705 0.01295-0.3535 0.0726-1.103 0.07745-1.383zm52.6-25.08c-17.52-0.212-35.68 0.4744-51.8 0.95l0.01501-1.031c15.67-0.4955 34.11-1.297 51.55-1.196m-8.385 35.42c-5.49 0.2139-4.668 0.5275-4.704-1.36 2.242-0.9666 12.83-1.346 14.46-0.755 0.3349 0.3396 0.767 1.286 0.2144 1.458-1.772 0.5515-7.42 0.3252-9.971 0.6565zm-44.93 22.05c20.16-0.4418 40.18-1.28 56.65-1.724 0.4783 0.3178-0.564 1.272-1.948 1.948-20.06 0.6655-37.99 2.106-54.6 2.454zm57.85 17.77c1.295-14.09 3.331-29.53 1.002-44.46-1.665-10.68-3.754-21.61-5.82-32.16l-51.25 1.224c-0.133 5.195-0.0216 17.02-1.057 28.67-0.4742 7.39-0.703 16.38-0.7605 20.19-0.08611 4.832-0.04412 8.755 0.1397 11.83 0.359 6.135 1.233 10.08 2.581 16.32z" style="fill:#000000;stroke-width:.5"/>
</svg>