 <svg id="mbz" viewBox="0 0 227 66.869331">
                <path id="fTire" d="m190.3 66.87c8.26 0.04084 15-6.599 15.08-14.86 0.08544-8.263-6.521-15.04-14.78-15.16-8.26-0.1266-15.07 6.444-15.24 14.86-1e-4 8.415 6.676 15.12 14.94 15.16z" style="fill:#000000;stroke-width:.258"/>
                <path id="fRim" d="m202.6 51.31c0.03877 7.063-4.85 12.76-12.27 12.73-6.728-0.03467-12.16-5.492-12.17-12.22-0.0195-7.159 5.748-12.21 12.22-12.16 6.369 0.01911 11.7 4.842 12.22 11.66zm-12.69-10.18c-0.04677 0.06-0.132 1.251-0.1894 2.647-0.09088 2.209-0.3248 5.136-0.4556 5.784-0.165 0.397-0.5185 0.4987-0.8196 0.476-2.055-0.4667-4.293-1.093-6.145-1.643-1.027-0.3065-1.898-0.5386-1.935-0.5159-0.03671 0.02289-0.1338 0.2416-0.2149 0.486-0.1599 0.4816-0.08423 0.8015 0.2105 0.891 0.07809 0.02368 0.9019 0.3212 1.831 0.6612 2.675 0.9785 5.533 2.206 5.75 2.469 0.2887 0.3488 0.2289 0.6042-0.3725 1.594-1.226 1.728-3.142 4.574-4.086 6.233 0.2008 0.2123 0.5263 0.5722 0.8645 0.7094 0.1834 0 0.4133-0.2562 1.802-2.008 1.999-2.52 3.722-4.494 3.999-4.582 0.3506-0.1113 0.6248 0.07716 1.38 0.9491 1.908 2.125 2.83 3.557 4.543 5.709 0.4298-0.1986 0.7298-0.4386 1.134-0.7295-1.439-2.302-3.168-4.829-4.406-7.032-0.1663-0.347-0.06142-0.5794 0.1181-0.875 0.2923-0.2472 3.24-1.419 5.998-2.384 1.983-0.6942 1.861-0.6405 1.924-0.8384 0.05487-0.1729-0.1793-1.001-0.3049-1.079-2.848 0.6893-5.644 1.535-8.26 2.026-0.4491-0.05451-0.6485-0.292-0.6893-0.6994-0.1616-1.099-0.3864-5.046-0.3898-7.104-0.00164-0.9646-0.02392-1.155-0.14-1.2-0.3836-0.09736-0.7938-0.03725-1.148 0.05778zm1.71 0.04179c0.0316 2.176 0.2395 4.089 0.6978 6.233 0.163 0.4288 1.205 1.233 1.713 1.324 1.856-0.3537 3.898-0.6073 6.067-1.061 0.138-0.06029 0.1443-0.1155 0.1505-0.1988 0.0375-0.4979-1.043-2.12-2.15-3.227-1.23-1.23-2.476-2.014-4.13-2.598-0.7295-0.2573-1.749-0.4837-2.167-0.4989-0.06187-0.01376-0.1379-0.00723-0.1811 0.02516zm-2.418-0.01771c-0.4205 6.5e-4 -1.441 0.2299-1.978 0.4076-2.175 0.7195-4.233 2.115-5.487 3.821-0.6163 0.8384-1.238 1.999-1.129 2.108 2.308 0.413 3.671 0.9333 5.856 1.169 0.9114 0.0832 1.984-0.7172 2.16-1.572 0.1557-2.061 0.638-4.749 0.759-5.905-0.07007-0.04421-0.1285-0.02034-0.1812-0.02868zm-0.7223 8.374c-0.01403 0.2126 0.2675 0.3808 0.4471 0.1813 0.1097-0.1213 0.06308-0.3199-0.05427-0.3828-0.2295-0.1198-0.3898 0.05902-0.3929 0.2016zm3.692-0.2124c-0.1267 0.00164-0.2639 0.08683-0.2611 0.2636 0.01481 0.2446 0.299 0.3294 0.4656 0.148 0.1065-0.1876 0.02085-0.3841-0.2045-0.4117zm-12.2 0.235c-0.05477-0.00133-0.08224 0.01778-0.1068 0.04805-0.2734 0.3361-0.3661 2.928-0.1492 4.174 0.2732 1.567 1.044 3.372 1.954 4.576 1.006 1.332 1.333 1.595 1.599 1.283 0.7231-1.637 2.763-4.158 2.951-5.544 0-0.4514-0.2729-1.404-0.4914-1.713-2.072-1.105-4.097-2.176-5.758-2.822zm20.92 0.195c-0.1629 0-5.211 2.273-5.572 2.508-0.3738 0.2444-0.8856 1.675-0.7822 2.188 0.6449 1.438 1.373 2.685 2.154 4.161 0.7716 1.461 0.7009 1.378 1.01 1.183 0.4316-0.2719 1.328-1.277 1.845-2.071 1.305-1.894 1.629-4.228 1.635-5.745 4e-3 -1.127-0.00987-1.632-0.0752-1.981-0.01641-0.1697-0.1314-0.2474-0.2148-0.2446zm-9.589 0.4747c1.175 0.7014 1.127 2.03 0.541 2.776-1.304 1.46-3.336 0.575-3.41-1.163 0.1842-1.553 1.507-2.314 2.869-1.612zm-3.947 2.536c0.00996 0.1677 0.2156 0.3222 0.4143 0.2012 0.1929-0.1631 0.0906-0.4024-0.07228-0.4574-0.244-0.05781-0.3328 0.1357-0.3421 0.2562zm5.554 0.0568c0.03431 0.2626 0.3586 0.3323 0.4772 0.111 0.07679-0.1069 0.0333-0.2578-0.07115-0.3318-0.2152-0.1366-0.4086 0.03709-0.406 0.2208zm-2.5 1.731c-0.1284 0.00383-0.2412 0.104-0.2512 0.2538 0.01079 0.2563 0.3085 0.3452 0.463 0.157 0.1306-0.1846-0.00207-0.4164-0.2119-0.4107zm-1.038 2.003c-0.3382 0.1418-4.463 4.424-4.463 4.633 1.016 0.7907 2.435 1.136 3.49 1.364 2.123 0.3746 4.453 0.1173 6.282-0.7455 0.769-0.3766 1.049-0.5482 1.049-0.6413-1.828-1.932-3.235-3.485-4.373-4.607-0.6671-0.1416-1.329-0.1732-1.987-0.00361z" style="fill:#fdfdfd;stroke-width:.258"/>
                <path id="rTire" d="m47.92 66.87c8.219 0.04453 14.93-6.56 15.01-14.78 0.08544-8.219-6.485-14.96-14.7-15.08-8.216-0.1266-14.99 6.408-15.16 14.78-0.003438 8.371 6.638 15.04 14.85 15.08z" style="fill:#000000;stroke-width:.258"/>
                <path id="rRim" d="m60.15 52.55c-0.3715 6.46-5.735 11.56-12.21 11.53-7.752 0.05242-12.48-7.009-12.11-12.48 0.06305-7.079 6.083-12 12.15-11.84 7.677-0.08309 12.71 6.656 12.16 12.79zm-12.63-11.32c-0.04654 0.05969-0.1313 1.244-0.1884 2.631-0.09726 2.365-0.3594 5.557-0.4809 5.858-0.0298 0.07417-0.1671 0.2015-0.3049 0.283-0.2384 0.1408-0.2887 0.1394-1.012-0.02918-1.286-0.2998-3.632-0.939-5.582-1.521-1.022-0.3049-1.888-0.5358-1.925-0.5131-0.03684 0.02277-0.1331 0.2404-0.2139 0.4834-0.1591 0.479-0.08384 0.7976 0.2094 0.8864 0.07762 0.02356 0.897 0.3196 1.821 0.6576 2.66 0.9738 5.505 2.195 5.722 2.456 0.2871 0.347 0.2277 0.6011-0.3704 1.585-0.8296 1.366-1.851 2.91-3.07 4.638-0.1109 0.1783-0.9645 1.325-0.9965 1.562 0.1997 0.2112 0.5234 0.5691 0.8603 0.7056 0.1824 0 0.4112-0.2548 1.793-1.997 1.988-2.507 3.702-4.471 3.978-4.558 0.3488-0.1107 0.6214 0.07677 1.373 0.9444 1.033 1.193 1.942 2.328 3.31 4.135 0.632 0.8356 1.177 1.53 1.211 1.542 0.4285-0.1963 0.7241-0.4386 1.128-0.7257 0.01851-0.01686-0.5905-0.9599-1.353-2.095-0.7628-1.135-1.788-2.74-2.278-3.565-0.7896-1.328-0.8856-1.533-0.8376-1.79 0.02987-0.1592 0.1219-0.3467 0.2045-0.4166 0.2907-0.246 3.225-1.412 5.967-2.372 1.972-0.6901 1.851-0.6372 1.914-0.8338 0.05456-0.172-0.1783-0.9958-0.3034-1.073-2.467 0.59-4.899 1.251-7.577 1.91-0.711 0.1411-0.7708 0.1414-0.9805 0.00423-0.1227-0.08043-0.2552-0.232-0.2941-0.3369-0.159-0.4272-0.4365-5.041-0.4401-7.321-0.001636-0.9591-0.02378-1.149-0.1392-1.194-0.3769-0.09491-0.768-0.04481-1.143 0.05577zm1.702 0.04151c-0.04553 0.04555-0.0252 0.5415 0.04935 1.201 0.3356 2.969 0.573 4.811 0.6447 4.999 0.1621 0.4264 1.198 1.227 1.705 1.317 0.1432 0.02544 1.452-0.1672 2.91-0.4277 3.24-0.5797 3.258-0.5843 3.276-0.825 0.0373-0.4953-1.038-2.108-2.139-3.209-1.224-1.224-2.463-2.003-4.109-2.585-0.7254-0.2559-1.74-0.4811-2.155-0.4961-0.06049-0.01386-0.1273 0.01757-0.1808 0.02496zm-4.373 0.388c-2.163 0.7156-4.21 2.104-5.456 3.8-0.6132 0.8338-1.232 1.988-1.123 2.097 1.317 0.2907 2.391 0.4659 4.28 0.8657 1.824 0.388 1.798 0.3867 2.374 0.09525 0.5766-0.2915 1.222-0.946 1.321-1.361 0.3235-1.877 0.6563-3.973 0.7551-5.874-0.6137-0.06978-1.465 0.1551-2.149 0.3766zm1.266 7.94c0.006119 0.2654 0.2691 0.3235 0.414 0.2151 0.1408-0.1102 0.1035-0.3021 0.03743-0.3681-0.1894-0.1855-0.436-0.05853-0.4514 0.153zm3.663-0.2284c-0.1407-0.00491-0.3165 0.1104-0.2608 0.3379 0.02727 0.08361 0.1864 0.2804 0.4213 0.1087 0.1385-0.1398 0.1006-0.4078-0.1605-0.4466zm-12.14 0.2388c-0.05448-0.00131-0.08183 0.01769-0.1063 0.04783-0.2722 0.3343-0.3643 2.912-0.1484 4.151 0.2719 1.559 1.038 3.354 1.944 4.553 1 1.325 1.325 1.586 1.591 1.276 0.1694-0.198 0.4981-0.7628 1.838-3.16 0.9553-1.708 1.099-2.015 1.099-2.357 0-0.4491-0.2716-1.396-0.4889-1.705-2.083-0.9377-3.975-2.2-5.727-2.807zm15.27 2.691c-0.372 0.2432-0.881 1.667-0.7783 2.176 0.6411 1.43 1.365 2.67 2.142 4.14 0.7675 1.454 0.6968 1.371 1.005 1.177 0.4293-0.2704 1.32-1.271 1.835-2.06 1.299-1.885 1.62-4.207 1.626-5.717 0.00671-1.881-0.03671-2.214-0.2431-2.214-0.2064 0-5.229 2.261-5.585 2.496zm-3.965-2.085c1.035 0.7602 1.217 1.949 0.5644 2.814-1.361 1.512-3.341 0.5214-3.41-1.22 0.1182-1.557 1.663-2.165 2.845-1.594zm-3.934 2.556c0.007974 0.2284 0.2155 0.3328 0.4089 0.2261 0.179-0.1413 0.1129-0.3857-0.04133-0.445-0.1696-0.05603-0.3168-0.00396-0.3676 0.2188zm5.505 0.09808c0.01943 0.1891 0.2987 0.3612 0.485 0.09178 0.01483 0 0.1054-0.3119-0.1874-0.3702-0.2443-0.03973-0.3173 0.2103-0.2977 0.2784zm-2.405 1.72c-0.1445-0.05337-0.3467 0.04615-0.341 0.2476 0.02252 0.275 0.3212 0.3041 0.446 0.1668 0.1266-0.1392 0.05322-0.356-0.1049-0.4146zm-1.118 1.981c-0.3364 0.141-4.44 4.401-4.44 4.61 1.011 0.7866 2.423 1.13 3.472 1.357 0.5301 0.1134 2.755 0.2345 3.039 0.1653 1.53-0.2372 3.155-0.5242 4.254-1.545 0-0.03694-0.915-1.057-2.033-2.267-1.289-1.394-2.137-2.242-2.316-2.316-0.6643-0.1409-1.322-0.1724-1.977-0.00361z" style="fill:#fdfdfd;stroke-width:.258"/>
                <path id="red" d="m20.59 23.59c0.3506-0.9372-11.05-3.41-11.05-2.938-4.783 4.84-4.687 8.691-6.901 12.84 3.898 1.525 15.48-6.648 17.95-9.903z" style="fill:#ac2b1f;stroke-width:.258"/>
                <path id="white" d="m3.198 46.41 23.59 3.521 0.01707-2.068c-7.535-1.338-14.68-3.217-23.2-3.207zm66.56 4.231c32.99 0.3452 65.91 0.3245 99.11 2.044 0.7822 0.5884 0.9344 1.125 0.1331 1.581-33.28-1.059-66.61-0.5993-99.24-2.408-0.5219-0.6976-0.4592-0.9305 4e-4 -1.217zm-15.1-28.51c-0.2696 0.6849-0.518 1.367 0.03503 1.962l10.61-0.3152-0.3152-1.787zm56.26 0.8056-0.2102 1.296 11.35 0.2802 0.07001-1.331c-4.148 0.07536-7.791-0.7195-11.21-0.2456zm115.4 19.46c-0.9511-4.029-2.267-8.002-4.468-11.83-3.348-2.279-17.45-3.694-17.16-0.5704-0.347 1.99 20.35 11.66 21.63 12.4zm-68.31-18.9c-5.619-7.396-28.66-19.49-37.12-19.93-10.47-2.502-36.43-2.706-50.38 1.611-8.162 3.219-16.73 7.662-21.86 14.99 38.36 0.2613 77.52 1.719 109.4 3.328z" style="fill:#ffffff;stroke-width:.258"/>
                <path id="black" d="m6.304 22.85c1.944-3.436 1.85-3.33 3.018-3.341 8.663-1.535 18.82-1.888 24.95-4.971 8.964-4.21 16.09-8.031 24.22-10.71 4.85-1.239 4.344-0.8389 3.741-2.967-0.2374-0.8371 0.8918-0.8683 1.713-0.04723 0.7716 0.7716 3.4 1.099 5.665 0.7061 12.01-1.045 25.85-2.004 36.73-1.266 7.703 0.4458 15.93 1.544 22.65 3.717 10.88 4.256 18.82 9.372 27.83 14.94 3.72 1.514 7.636 1.735 11.63 1.996 14.17 0.7262 27.81 2.094 42.57 5.889 2.76 0.6808 5.167 1.237 5.35 1.237 0.5495-0.6588 0.02874-2.616 0.3839-3.16 0.8289 0.9764 0.8717 2.236 0.7997 3.294 2.253 1.195 3.957 1.436 5.314 3.338 2.241 4.667 3.738 9.23 4.097 13.91 0.04135 2.719 0.1316 4.943-0.4084 7.863-0.2302 1.151-2.388 2.985-4.249 3.609-3.913 1.102-13.45 2.786-16.3 2.077-1.727-0.4349-1.071-1-0.5015-2.536 4.321-13.22-8.149-23.87-19.67-20.58-11.49 3.73-13.58 14.6-11.52 22.99l-7.884-0.02548c-36.27-0.2879-70.94-1.098-102.9-0.3305 2.142-8.709-0.5665-16.62-5.005-19.9-4.762-4.138-14.94-5.51-21.27 0.3519-6.382 5.495-5.773 14.72-5.389 17.99-10.37-1.025-18.09-3.436-27.65-5.072-4.429-1.894-4.264-4.244-4.262-8.531 0-2.299 0.06625-4.393 0.1449-4.654 2.097-5.608 4.282-11.19 6.168-15.82zm-2.876 10.01c5.453-2.374 13.74-6.519 15.39-8.056 0.7989-0.7442 0.4876-1.235-1.391-2.193-1.884-0.9604-6.266-2.289-8.696-0.01724-2.662 3.297-4.104 7.326-5.296 10.27zm46.02-12.94c15.55 0.05863 33.59-0.5763 50.41 0.0625 18.33 0.4865 35.78 1.445 52.08 2.861 2.92 0.2537 5.472 0.461 5.67 0.461-8.345-7.737-20.74-14.23-31.5-18.06-8.895-4.409-38.64-4.45-51.72-1.115-14.13 4.362-19.87 9.883-24.94 15.79zm51.05-16.72c0.769-0.01375 1.952-0.06006 2.727-0.06942 0.3826 5.368 1.444 11.25 2.024 15.87-1.556-0.04858-2.595-0.06117-4.135-0.1188m4.744 0.1978c-0.751-5.435-1.534-11.19-2.107-15.95 5.188-0.00853 10.5 0.2962 15.54 1.407 11.28 2.518 20.2 7.383 29.72 13.06 0.6648 0.479 1.244 0.8737 1.244 1.133 0 0.2595 0.1957 0.4723 0.4352 0.4723s0.599 0.197 0.7989 0.438c0.299 0.3601 0.1796 0.388-0.672 0.3188-0.5698-0.04604-1.143 0.1121-1.273 0.3083-0.1733 0.2608-0.3047 0.2524-0.4881-0.03055-0.3955-0.6104-1.826-0.3596-2.356 0.2021-0.5621 0.5157-1.282 1.175-2.05 1.034-0.6119 0.1904-1.274 0.07644-1.91-0.07595-1.885-0.4509-2.37-0.8258-2.227-2.078 0.1025-0.8964 0.1286-0.9078 2.158-0.9011 1.13 0.00368 3.034 0.1015 4.231 0.2171 2.468 0.2384 2.499-0.2272 0.03611-0.5564-0.8691-0.1162-1.964-0.4089-2.433-0.6503-0.4692-0.2416-1.5-0.4388-2.291-0.4388-0.9452 0-1.434-0.1353-1.428-0.395 0.01778-0.7009 0.8309-1.501 1.526-1.501 0.372 0 0.6761-0.1301 0.6761-0.2889-2.66-0.8111-3.635 2.998-3.276 4.089-0.1404 0.6341 0.2501 1.268 0.42 1.902-11.75-0.2905-23.77-1.279-34.28-1.715zm-5.402-0.1332c-11.77-0.4238-20.96 0.00679-31.11-0.4331 0.05722-3.72 0.1149-7.442 0.1727-11.17l3.062-1.01c8.91-2.453 17.75-3.111 27.34-3.152 0.4184 5.469 0.3501 11.04 0.5288 15.76zm-31.63-11.41c-0.01684 4.135-0.09465 8.056-0.3026 10.97-5.27 0.1404-11.15 0.2956-16.44 0.4752 0.2401-0.4747 2.083-1.884 4.017-3.692 3.191-2.933 8.433-6.743 12.73-7.757zm83.17 12.59c0.6003-0.01067 3.065 1.932 3.416 2.237 0.1241-0.00907-8.136-0.889-8.776-1.095 1.902-0.4968 3.624-0.6862 5.361-1.143zm-97.31 3.168c0.6862 0.939-0.8356 0.5675 5.861 0.4865 4.215-0.08451 4.912-0.1236 4.651-1.054-0.006163-0.8549-2.212-0.4331-4.819-0.4662-2.683 0.4086-4.865-0.3756-5.693 1.034zm56.57 0.04212c-1.071 1.155 2.248 0.827 5.074 0.9112 5.095 0.1518 5.846 0.4406 5.846-0.3083 0-0.7502-0.8451-0.6808-6.261-0.8817-1.698-0.00629-3.875-0.4484-4.659 0.2789zm109 15.71c1.2 0.735 3.103 0.9217 3.054 0.3496-0.2205-2.706-1.786-5.265-3.581-7.396-1.019-2.951-15.75-5.002-13.46-1.061 4.37 3.95 10 5.216 13.98 8.108zm1.288-8.307c-0.6934 1.944 1.112 4.427 1.847 6.124 1.166 2.407 2.639 5.402 2.722 5.201-0.2387-1.926-3.397-11.46-4.569-11.32zm-217.6 14.97c-0.1186 1 0.5415 0.2187 8.056 1.512 1.038 0.06901 11.63 2.512 14.87 2.034 0-0.2662 0.3057-1.209-2.616-1.398-2.845-0.6217-20.55-3.534-20.31-2.149zm90.01 6.658c21.28 0.0654 43.21 1.047 61.09 0.9746 14.98 0.3648 14.97 0.8603 14.55 0.0037-0.7964-1.242-56.21-1.961-72.49-2.101-9.191-0.08338-19.29-0.5954-25.18-0.228-5.889 0.3676 0.7375 1.285 22.02 1.351z" style="fill:#000000;stroke-width:.258"/>
               </svg>
