<svg id="esv" preserveAspectRatio="xMidYMid" viewBox="0 0 468 163" xmlns="http://www.w3.org/2000/svg">
 <path id="trim" d="m308.4 9.248c-7.058-0.1941-2.054-0.4186-5.567-0.0129l7.725 42.17c4.987-0.2696 4.163-0.5238 7.863-1.347 0.7513-6.531-9.493-36.36-10.02-40.8zm-298.1 59.5c-5.34 8.534-4.581 19.55-6.269 27.49 0.5127 1.466 13.17-3.946 14.68-4.874 1.694-8.371 10.19-19.88 10.19-19.9 10.23-1.209 15.27-3.68 18.98-9.393-7.337-5.172-31.4 0.3929-37.58 6.684zm211.2 65.69c-17.72 0.8777-98.6-2.899-105 3.021 36.69 2.665 90.95 0.1018 120.2-0.3983 25.37-0.8449 53.35-0.2186 78.23-2.43-0.4016-0.555-1.391-1.339-3.236-1.666-5.791-1.026-60.85 2.399-90.24 1.473zm196.3-132.4c-6.46-2.64-16.57 0.2849-21.62-1.117-52.23 0.07206-109.2-0.3945-147.9 1.132-8.276 0.5232-20.34 1.972-27.11 4.501 7.332 0.04308 189.8-1.893 201.2-1.382zm-389.1 132.6 10.41 0.8871c2.078-28.12 12.1-41.45 39.66-40.36 23.78 9.303 24.5 24.31 26.37 39.92l12.63-1.109c-1.648-35.4-13.77-53.94-44.31-55-38.2 0.01139-44.52 25.59-44.74 55.66zm285.9-8.205 12.84 0.4435c-2.262-19.65 24.32-33.95 28.12-33.05 16.16 3.836 29.89 10.85 34.33 29.93l13.7-1.017c4.543-34.95-18.25-43.04-45.81-46.45-25.09 4.193-48.8 9.989-43.19 50.11z" style="fill:#ffffff"/>
 <path id="fHub" d="m52.3 104c24.66-17.82 48.75 1.998 48.98 25.18 0.09084 9.288-13.57 30.45-31.06 28.62-32.74-3.436-36.76-40.17-17.92-53.77z" style="fill:#ffffff"/>
 <path id="fWheel" d="m70.26 91.97c17.4 0 36.37 12.26 36.37 36.48 0.3117 17.1-15.08 34.55-34.99 34.55-20.27 0-35.94-15.5-35.94-35.82 0-20.92 17.89-35.2 34.55-35.2zm28.11 45.19c5.412-16.66-2.833-33.34-21.42-38.22-21.7-3.464-34.45 13.8-34.95 26.78-0.8865 14.96 9.138 25.61 19.49 29.37 18.61 5.883 33.77-6.487 36.88-17.94zm-38.16 15.15c2.612-5.206 4.795-9.156 7.638-14.05 0.764-1.103 1.121-1.08 3.659 0.2444 3.455 1.804 4.156 2.512 4.673 4.709 1.083 3.501 2.361 6.79 3.131 10.53-2.403 3.339-21.35 1.008-19.11-1.438zm17.91 1.421c-0.6241-0.263-1.902-1.432-2.191-2.001-0.4197-0.8313-2.361-9.5-2.171-9.687 0.1874-0.1919 0.7476-0.2119 1.074-0.03863 0.6459 0.3428 0.226-0.4613-0.5016-0.9602-0.9895-0.6788-4.948-2.754-5.287-2.687-1.296 0.1515-7.722 12.45-7.921 14.15 0.1562 0.8531 0.6097 0.6857 0.6097-0.2247 0-0.4585 0.1533-0.8547 0.4996-1.289 1.522-2.497 5.868-12.69 7.058-11.72 0.4334 0.00314 2.008 0.8054 2.345 1.196 1.531 4.865 1.915 7.439 3.074 12.16 0.3327 0.9102-0.1116 2.133-0.197 2.383 1.399 0.2509 3.902-1.007 3.606-1.274zm-1.333-17.66c2.229-1.978 4.72-3.283 7.059-3.355 2.067 0.4119 10.17 3.536 12.31 4.952 0.6354 1.853-6.368 11.45-11.45 14.1-2.505 2.487-6.45-12.41-7.921-15.69zm7.65 14.61c0.04915-0.3467-0.4698-0.1969-0.6768-0.2836-1.896-5.07-3.866-8.773-5.249-13.67 0.05596-0.4906 0.9013-1.005 2.126-1.292 1.383-0.4501 7.615 2.728 10.18 3.981 2.493 1.223 3.145 1.71 3.171 2.363 0.2799 0.09777 2.028-3.086 2.035-3.753-0.6484-0.01708-1.986 0.4807-3.209 0.5037-3.28-1.199-6.341-2.366-9.177-4.226 0.02555-0.1901 0.3023-0.4746 0.6151-0.6319 0.8654-0.4353 0.6922-0.607-0.5246-0.5212-2.336 0.4731-4.136 1.345-5.784 2.878-0.4433 0.8898-0.4361 0.9695 0.2132 2.431 1.526 4.069 3.433 8.296 4.912 11.96 0.2093 0.547 0.6172 1.112 0.8022 1.112 0.4572-0.08493 0.6049-0.4789 0.5689-0.8513zm-39.4-16.1c6.19-1.215 15.06-3.129 16.86-2.477 1.184 1.315 2.15 6.153 1.321 7.906-0.7651 1.654-6.688 11.09-7.12 10.93-3.086-0.06558-13.64-13.81-11.06-16.37zm10.76 15.92c-1.39-2.498 3.247-7.309 5.535-11.12 0.4748-0.4376 0.8366-0.2444 1.036 0.5537 0.1653 0.8358 0.1814 0.6395 0.5004-0.03068-0.03786-3.334-0.06915-8.351-3.031-7.356-4.67 0.6628-9.645 1.396-13.65 2.511-0.228 0.2336-0.04913 0.8351 0.2015 0.6759 4.451-0.7914 9.177-1.941 13.43-2.44 1.398-0.2908 2.369 3.09 1.195 4.259-2.08 3.368-6.432 10.9-8.467 9.898-0.7269-0.2363-0.2449 0.4566 1.256 1.806 0.5015 0.675 1.771 1.393 1.992 1.247zm12.79-17.47c1.175-1.378 3.179-1.041 3.694 0.7984 0.1204 0.9023-0.3871 1.848-1.169 2.228-2.018 0.7771-3.593-1.259-2.525-3.027zm5.517-2.172c0.7175-1.913 2.535-1.527 3.012-1.085 1.305 0.7461 1.129 2.621 0.1416 3.286-1.595 1.137-3.69-0.3489-3.152-2.201zm6.652-3.897c0-0.5614 0.7089-3.66 1.075-4.698 1.509-4.338 8.209-6.531 12.47-8.554 3.488 4.354 4.265 12.37 3.374 18.84-0.619 1.433-18.28-2.624-16.92-5.59zm16.04 4.695c0-0.2594-0.2195-0.3367-1.227-0.4326-4.411-1.205-10.55-2.097-13.4-4.701 0.06154-0.8766 0.2927-1.589 0.5346-2.428 0.1605-1.495 8.093-4.26 12.56-6.164 0.4537 0 0.8249-0.07548 0.8249-0.1678 0-0.3583-1.611-3.721-1.749-3.623 0.2053 3.411-4.251 4.53-6.769 6.047-3.8 1.888-3.994 1.919-3.994 0.6716 0-0.6262-0.006273-0.6319-0.3524-0.3109-1.175 1.566-1.858 5.43-1.582 7.227 4.271 2.048 9.006 2.864 12.85 4.298 1.188 0.5649 2.209 0.2596 2.295-0.4151zm-32.77-2.903c0.7176-0.7546 2.553-0.3561 2.962 0.6759 0.7347 1.134-0.1135 3-1.867 2.977-2.146-0.2611-2.462-2.783-1.096-3.653zm-19.86 1.41c-1.339 0.1419-0.8475-14.25 5.268-18.91 4.672 4.379 12.17 10.09 12.61 12.4-0.5933 1.903-3.474 5.214-5.293 5.561-4.04 0.3497-8.737 0.9652-12.58 0.9484zm0.746-1.385c1.457-1.442 1.475-1.446 6.675-1.347 2.535 0.04856 4.8 0.128 5.031 0.1773 0.4174 0.0883 0.4143 0.09814-0.2562 0.8015-0.7375 0.7737-0.7154 0.8429 0.1475 0.4615 1.03-0.4547 3.74-3.384 4.43-4.789 0.6226-1.268 0.6153-1.284-1.528-3.274-2.329-2.27-5.047-4.604-7.269-6.601-1.64-1.626-2.544-2.088-2.794-1.422 3.57 3.603 8.184 7.034 11.17 10.36 0 0.4125-1.539 2.175-2.098 2.403-2.458 1.023-13.6 0.6375-14.44-0.1235-0.107 0.1096-0.1709 3.558-0.07089 3.835 0.8076 1.444 0.4756-0.08324 1.007-0.4832zm29.71-3.564c0.06035-2.433 2.602-2.692 3.678-1.347 0.9911 1.956-0.4295 2.99-0.8873 3.081-1.536 0.5162-2.64-0.4912-2.79-1.735zm-10.38-2.408c0.6371-0.7099 2.176-1.212 3.145-0.00628 1.356 1.797-0.4122 3.308-1.295 3.333-2.054 0.03522-2.839-1.857-1.849-3.326zm5.278-0.6425c-0.4264-1.998 1.111-2.8 2.133-2.721 2.317 0.3748 2.31 3.087 0.7056 3.888-0.8006 0.265-1.908 0.4457-2.839-1.166zm3.232-9.453c-0.04961-1.49 1.677-12.61 2.425-12.49 3.221-0.302 11.34 4.07 14.39 7.167 1.996 1.913 2.135 2.326 1.101 3.274-4.665 3.578-12.3 9.484-13.26 9.241-0.8572-0.3766-4.939-4.126-4.667-7.192zm5.748 6.198c3.844-2.739 8.194-5.698 11.61-8.57 0.128-0.2451 0.1265-0.4606-0.004706-0.7125-0.2394-0.4585-0.5356-0.4629-0.6513-0.00996-4.274 3.515-7.568 6.131-11.86 8.844-1.983-2.112-1.859-3.829-1.516-5.458 1.325-3.798 1.711-11.1 3.014-11.21 0.3168-0.2374 0.2959-0.2697-0.3629-0.5567-1.12-0.5174-2.39-0.5858-3.579-0.7209-0.01955 0.3989 1.431 2.323 1.324 3.773-0.1792 2.534-0.8678 5.14-1.34 7.518-0.1829 1.225-0.4724 1.791-0.9185 1.791-0.4966-0.3383-0.7819-0.7099-1.207-1.173-0.09817 0.6781 0.1395 1.319 0.3078 1.92 1.52 2.209 3.189 5.471 5.176 4.567zm-8.6-18.93c0.3083 0.885-0.4896 17.95-1.039 18.16-1.145 0.3065-4.668 0.3758-7.003-0.05486-3.211-3.078-9.138-8.093-9.45-10.3 0.8672-3.344 12.33-8.75 17.49-7.796zm-1.312 17.26c0.4443-2.126 0.9849-10.19 0.707-16.12-0.5567-0.09681-0.5967-0.03053-0.6109 1.02-0.04373 5.217-0.5318 9.586-0.7782 14.31-1.877 0.3973-3.033 0.1312-4.031-1.269-2.907-3.77-8.013-8.628-7.958-10.41-0.8374 0.02748-2.366 2.051-2.728 2.752 0.6127 0.0734 1.241 0.1645 1.766 0.2607 2.846 2.39 5.371 5.392 7.314 8.476-0.539 0.3115-1.108 0.1882-1.614-0.00706-0.2839 0.1797 0.1145 0.6716 0.8037 0.9921 0.4373 0.2692 5.117 0.7066 7.131-0.00246z" style="fill:#000000"/>
 <path id="rHub" d="m340 104c24.66-17.82 48.75 1.998 48.98 25.18 0.09082 9.288-13.57 30.45-31.06 28.62-32.74-3.436-36.76-40.17-17.92-53.77z" style="fill:#ffffff"/>
 <path id="rWheel" d="m358 91.97c17.4 0 36.37 12.26 36.37 36.48 0.3117 17.1-15.08 34.55-34.99 34.55-20.27 0-35.94-15.5-35.94-35.82 0-20.92 17.89-35.2 34.55-35.2zm28.11 45.19c5.412-16.66-2.833-33.34-21.42-38.22-21.7-3.464-34.45 13.8-34.95 26.78-0.8865 14.96 9.138 25.61 19.49 29.37 18.61 5.883 33.77-6.487 36.88-17.94zm-38.16 15.15c2.612-5.206 4.795-9.156 7.638-14.05 0.764-1.103 1.121-1.08 3.659 0.2444 3.455 1.804 4.156 2.512 4.673 4.709 1.083 3.501 2.361 6.79 3.131 10.53-2.403 3.339-21.35 1.008-19.11-1.438zm17.91 1.421c-0.6241-0.263-1.902-1.432-2.191-2.001-0.4197-0.8313-2.361-9.5-2.171-9.687 0.1874-0.1919 0.7476-0.2119 1.074-0.03863 0.6459 0.3428 0.226-0.4613-0.5016-0.9602-0.9895-0.6788-4.948-2.754-5.287-2.687-1.296 0.1515-7.722 12.45-7.921 14.15 0.1562 0.8531 0.6097 0.6857 0.6097-0.2247 0-0.4585 0.1533-0.8547 0.4996-1.289 1.522-2.497 5.868-12.69 7.058-11.72 0.4334 0.00314 2.008 0.8054 2.345 1.196 1.531 4.865 1.915 7.439 3.074 12.16 0.3327 0.9102-0.1116 2.133-0.197 2.383 1.399 0.2509 3.902-1.007 3.606-1.274zm-1.333-17.66c2.229-1.978 4.72-3.283 7.059-3.355 2.067 0.4119 10.17 3.536 12.31 4.952 0.6354 1.853-6.368 11.45-11.45 14.1-2.505 2.487-6.45-12.41-7.921-15.69zm7.65 14.61c0.04916-0.3467-0.4698-0.1969-0.6768-0.2836-1.896-5.07-3.866-8.773-5.249-13.67 0.05597-0.4906 0.9013-1.005 2.126-1.292 1.383-0.4501 7.615 2.728 10.18 3.981 2.493 1.223 3.145 1.71 3.171 2.363 0.2799 0.09777 2.028-3.086 2.035-3.753-0.6484-0.01708-1.986 0.4807-3.209 0.5037-3.28-1.199-6.341-2.366-9.177-4.226 0.02554-0.1901 0.3023-0.4746 0.6151-0.6319 0.8654-0.4353 0.6923-0.607-0.5246-0.5212-2.336 0.4731-4.136 1.345-5.784 2.878-0.4433 0.8898-0.4361 0.9695 0.2132 2.431 1.526 4.069 3.433 8.296 4.912 11.96 0.2093 0.547 0.6172 1.112 0.8022 1.112 0.4572-0.08493 0.6049-0.4789 0.5689-0.8513zm-39.4-16.1c6.19-1.215 15.06-3.129 16.86-2.477 1.184 1.315 2.15 6.153 1.321 7.906-0.7651 1.654-6.688 11.09-7.12 10.93-3.086-0.06558-13.64-13.81-11.06-16.37zm10.76 15.92c-1.39-2.498 3.247-7.309 5.535-11.12 0.4748-0.4376 0.8366-0.2444 1.036 0.5537 0.1653 0.8358 0.1814 0.6395 0.5004-0.03068-0.03787-3.334-0.06915-8.351-3.031-7.356-4.67 0.6628-9.645 1.396-13.65 2.511-0.228 0.2336-0.04914 0.8351 0.2014 0.6759 4.451-0.7914 9.177-1.941 13.43-2.44 1.398-0.2908 2.369 3.09 1.195 4.259-2.08 3.368-6.432 10.9-8.467 9.898-0.7269-0.2363-0.2449 0.4566 1.256 1.806 0.5015 0.675 1.771 1.393 1.992 1.247zm12.79-17.47c1.175-1.378 3.179-1.041 3.694 0.7984 0.1204 0.9023-0.3871 1.848-1.169 2.228-2.018 0.7771-3.593-1.259-2.525-3.027zm5.517-2.172c0.7174-1.913 2.535-1.527 3.012-1.085 1.305 0.7461 1.13 2.621 0.1416 3.286-1.595 1.137-3.69-0.3489-3.152-2.201zm6.652-3.897c0-0.5614 0.7089-3.66 1.075-4.698 1.509-4.338 8.209-6.531 12.47-8.554 3.488 4.354 4.265 12.37 3.374 18.84-0.619 1.433-18.28-2.624-16.92-5.59zm16.04 4.695c0-0.2594-0.2194-0.3367-1.227-0.4326-4.411-1.205-10.55-2.097-13.4-4.701 0.06154-0.8766 0.2927-1.589 0.5346-2.428 0.1605-1.495 8.093-4.26 12.56-6.164 0.4537 0 0.8249-0.07548 0.8249-0.1678 0-0.3583-1.611-3.721-1.749-3.623 0.2053 3.411-4.251 4.53-6.769 6.047-3.8 1.888-3.994 1.919-3.994 0.6716 0-0.6262-0.00627-0.6319-0.3524-0.3109-1.175 1.566-1.858 5.43-1.582 7.227 4.271 2.048 9.006 2.864 12.86 4.298 1.188 0.5649 2.209 0.2596 2.295-0.4151zm-32.77-2.903c0.7176-0.7546 2.553-0.3561 2.962 0.6759 0.7347 1.134-0.1135 3-1.867 2.977-2.146-0.2611-2.462-2.783-1.096-3.653zm-19.86 1.41c-1.339 0.1419-0.8475-14.25 5.268-18.91 4.672 4.379 12.17 10.09 12.61 12.4-0.5934 1.903-3.474 5.214-5.293 5.561-4.04 0.3497-8.737 0.9652-12.58 0.9484zm0.746-1.385c1.457-1.442 1.475-1.446 6.675-1.347 2.535 0.04856 4.8 0.128 5.031 0.1773 0.4174 0.0883 0.4142 0.09814-0.2562 0.8015-0.7375 0.7737-0.7154 0.8429 0.1475 0.4615 1.03-0.4547 3.74-3.384 4.43-4.789 0.6226-1.268 0.6153-1.284-1.528-3.274-2.329-2.27-5.047-4.604-7.269-6.601-1.64-1.626-2.544-2.088-2.794-1.422 3.57 3.603 8.184 7.034 11.17 10.36 0 0.4125-1.539 2.175-2.098 2.403-2.458 1.023-13.6 0.6375-14.44-0.1235-0.107 0.1096-0.1709 3.558-0.07089 3.835 0.8076 1.444 0.4756-0.08324 1.007-0.4832zm29.71-3.564c0.06035-2.433 2.602-2.692 3.678-1.347 0.9911 1.956-0.4295 2.99-0.8873 3.081-1.536 0.5162-2.64-0.4912-2.79-1.735zm-10.38-2.408c0.6371-0.7099 2.176-1.212 3.145-0.00628 1.356 1.797-0.4122 3.308-1.295 3.333-2.054 0.03522-2.839-1.857-1.849-3.326zm5.278-0.6425c-0.4264-1.998 1.111-2.8 2.133-2.721 2.317 0.3748 2.31 3.087 0.7056 3.888-0.8006 0.265-1.908 0.4457-2.839-1.166zm3.232-9.453c-0.04961-1.49 1.677-12.61 2.425-12.49 3.221-0.302 11.34 4.07 14.39 7.167 1.996 1.913 2.135 2.326 1.101 3.274-4.665 3.577-12.3 9.484-13.26 9.241-0.8572-0.3766-4.939-4.126-4.667-7.192zm5.748 6.198c3.844-2.739 8.194-5.698 11.61-8.57 0.1279-0.2451 0.1265-0.4606-0.0047-0.7125-0.2394-0.4585-0.5356-0.4629-0.6513-0.00996-4.274 3.515-7.568 6.131-11.86 8.844-1.983-2.112-1.859-3.829-1.516-5.458 1.325-3.798 1.711-11.1 3.014-11.21 0.3168-0.2374 0.2959-0.2697-0.3629-0.5567-1.12-0.5174-2.39-0.5858-3.579-0.7209-0.01956 0.3989 1.431 2.323 1.324 3.773-0.1792 2.534-0.8678 5.14-1.34 7.518-0.183 1.225-0.4724 1.791-0.9185 1.791-0.4966-0.3383-0.7819-0.7099-1.207-1.173-0.09817 0.6781 0.1395 1.319 0.3078 1.92 1.52 2.209 3.189 5.471 5.176 4.567zm-8.6-18.93c0.3083 0.885-0.4896 17.95-1.039 18.16-1.145 0.3065-4.668 0.3758-7.003-0.05486-3.211-3.078-9.138-8.093-9.45-10.3 0.8672-3.344 12.33-8.75 17.49-7.796zm-1.312 17.26c0.4443-2.126 0.9849-10.19 0.707-16.12-0.5567-0.09681-0.5967-0.03053-0.6109 1.02-0.04373 5.217-0.5318 9.586-0.7782 14.31-1.877 0.3973-3.033 0.1312-4.031-1.269-2.907-3.77-8.013-8.628-7.958-10.41-0.8374 0.02748-2.366 2.051-2.728 2.752 0.6127 0.0734 1.241 0.1645 1.766 0.2607 2.846 2.39 5.371 5.392 7.314 8.476-0.539 0.3115-1.108 0.1882-1.614-0.00706-0.2839 0.1797 0.1145 0.6716 0.8038 0.9921 0.4373 0.2692 5.117 0.7066 7.131-0.00246z" style="fill:#000000"/>
 <path id="brake" d="m439.6 12.53c1.099-0.5967 1.261-0.01506 7.956 10.18 5.961 9.362 12.35 22.8 14.58 30.39 1.626 4.779 2.524 21.97 1.034 22.43-0.4622 0.1363-4.928 1.79-5.822-0.3043-0.7878-1.843-0.1679-7.165-0.6556-11.93-1.002-9.605-3.355-18.72-7.173-27.14-3.788-10.37-10.96-17.68-12.14-23.68z" style="fill:#8a112b"/>
 <path id="body" d="m240.4 2.337c-4.809 0.5688-14.3 1.559-22.91 4.293-9.906 0.1291-23.26 1.035-29.3 1.731-1.288 0.1483-4.218 0.3034-6.351 1.014-0.9056 0.3014-0.4599-2.478-3.398-1.364 0.2883-3.802-1.325-3.345-5.255-1.048-2.017 2.133-0.07801 4.595-7.62 7.69-17.91 8.8-37.29 24.28-50.73 36.65-22.79 1.257-47.55 2.065-66.47 5.032-9.633 1.322-28.56 3.998-35.91 7.759-6.178 2.759-9.259 14.93-10.32 20.74-2.157 8.527-2.159 22.08-2.047 28.42 0.2306 12.24 1.408 13.17 3.667 16.6 2.521 6.7 6.65 5.51 10.07 10.14 0.2893 1.275 0.3957 5.28 1.392 5.851 5.323 1.031 12.99 1.806 18.32 1.422-2.087-27.14-0.9976-47.17 12.65-54.45 15.34-7.34 45.13-9.831 56.55 0 6.978 11.4 6.58 19.53 9.875 32.23 0.2306 4.007 2.07 12.19 2.661 14.89 0.5835 0.2314 8.05 0.4235 15.85 0.2896 31.01 0.03702 63.9 0.7285 96.17 0.3476 29.75-0.7211 61.26-2.817 88.53-3.626 1.67-5.658 1.71-8.035 2.354-12.4 2.028-17.27 6.452-31.86 15.15-37.29 11.24-8.012 44.13-5.813 53.07 0 4.474 1.765 13.83 21.97 14.87 42.15 4.784-0.3113 23.6-2.097 31.31-2.736 16.2-1.344 23.15-2.309 23.22-2.64 0.5601 0.02513 8.884-10.86 11.08-16.41 1.149-4.439 1.028-8.605 1.071-11.82 0.1263-3.178 0.4303-7.691-1.293-9.433-1.548-2.472-1.975-1.55-2.574-2.853 0.2471-1.755-0.1228-3.273-0.6024-8.23l-5.346-0.2727c-0.1163-2.843 0.3135-4.077-0.07086-6.031-0.8868-11.54 0.09907-9.846-1.895-18.37-2.309-6.765-8.44-20.91-10.23-23.99-4.087-6.882-4.148-7.043-8.042-13.19-0.3286-1.135 3.739 0.008371 3.614 0.1621-2.631-4.067 0.7622 0.9706 4.26-2.28-0.2861-1.31 1.739-5.486-5.111-6.016-4.753-0.4471-12.3-0.1326-18.32-0.8581-3.496-1.887-2.179-2.709-7.941-3.957-22.18-1.012-63.6-0.1894-99.92 0.4405-6.335 0.2311-67.5 0.0124-74.2 1.403zm171-0.7557c5.307-0.2589 5.638 1.553 9.617 3.025-79.1-0.5238-136.5-0.01615-199.4 1.816 1.972-0.5808 13.18-2.44 19-3.309 4.244-0.9589 46.15-1.492 70.33-1.488 10.62-0.1085 94.3-0.5788 100.4-0.04318zm-100.9 46.82c-1.71-11.28-4.338-23-7.059-36.83l-0.391-1.927c1.556 0.008777 2.859 0.08997 4.387 0.1011 5.708 17.31 7.053 26.3 10.03 38.36-0.2536 2.465-2.587 2.103-6.784 2.199zm-264.9 13.96c-2.34 3.787-3.967 5.183-7.301 5.904-8.619 1.073-12.25 1.984-14.42 5.089-4.421 4.504-3.976 12.66-10.01 18.99-2.06 0.791-6.631 1.869-8.112 1.605 0.1795-3.467 3.368-23.5 5.189-24.68 13.79-6.535 22.19-5.288 34.64-6.922zm268 71.88c-29 1.803-75.58 1.746-86.58 2.328-11.37 0.1578-25.43 0.3968-37.3 0.4757-26.37 0.02861-64.82 1.432-71.68 0.1189 0.3229-0.5026 1.782-1.365 2.739-0.9612 5.722 0.414 55.67-0.2447 106.1-0.8761 32.14-0.4026 58.33-1.514 85.49-2.099z" style="fill:#000000"/>
 <path id="dDTrim" d="m222.6 11.35c-17.5-0.02124-39.04-0.5038-55.67 8.113-14.55 9.596-32.99 18.88-42.26 34.05 0.5498 1.357 1.455 2.453 2.975 3.095l93.45-3.348 0.1931-2.646-92.82 2.915c0.1934-6.053 30.06-27.25 42.07-32.49 17.66-7.697 36.45-7.087 52.04-7.688zm-8.502 51.98-23.47 1.083 0.4318 4.117 25.53-0.759zm5.73 35.79-96.49 1.585 1.948 8.34 94.85-5.367z" style="fill:#ffffff"/>
 <path id="dDoor" d="m222.6 11.5c-19.23 0.5642-27.96 0.9339-34.01 2.065-14.39 2.081-25.5 7.878-37.1 16.13-7.486 5.897-18.25 13.74-24.77 21.28-0.7349 1.004-4.154 5.616 4.106 5.033 12.43-0.303 27.61-0.8706 40.17-1.292 19-0.4005 30.61-1.35 50.14-1.763l0.1385-2.156c-43.79 0.9659-76.49 2.975-81.9 3.068-2.596 0.04502-12.18 1.092-11.53-0.3546 1.817-5.514 15.28-16.47 26.4-23.84 18.33-12.44 28.53-14.51 51.77-16.09 7.464-0.2025 8.416-0.2761 16.57-0.4748zm-8.229 53.3c-1.292-1.123-13.21-0.2959-16.8-0.08263-9.571 0.4062-5.342 3.846-3.786 3.314 7.385-0.7609 17.17 0.1185 20.95-1.204zm5.504 34.58c-13.99 0.3098-20.53 0.7754-33.98 0.9659-21.25 0.3767-42.57 0.7025-61.4 1.229 0.2209 8.027 1.33 6.831 8.814 6.041 33.3-1.841 57.17-3.431 86.74-4.052zm-92.36 30.77c-5.386-11.15-5.844-24.27-7.557-36.89-0.278-12.03-1.307-24.72-0.468-35.76 0.5898-3.524 1.739-6.103 3.566-8.113 1.994-2.527 5.438-5.441 8.198-7.659 7.093-5.967 14.58-11.22 22.44-16.74 9.773-6.651 20.41-11.38 32.05-13.43 7.932-1.838 15.18-1.987 22.6-2.027l14.3-0.1634c-0.3257 13.85-0.1341 29.17-1.648 44.77 0 0-1.069 20.33-1.187 31.53-0.06742 6.459-0.00933 12.6 0.2178 18.47 0.9149 13.34 2.203 15.66 4.025 25.49z" style="fill:#000000"/>
 <path id="rDTrim" d="m289.9 61.17c-4.46 0.8831-8.58 0.6063-8.369 3.118 0.389 1.317 3.073 1.443 9.758 1.185 4.212-0.5911 15.06-0.2647 15.09-2.097-0.1327-3.071-4.371-3.006-16.48-2.206zm-69.92 42.58 86.34-2.79c3.298-4.099 1.851-1.808 2.842-5.307l-89.31 3.581m1.261-45.77 0.2161-2.895 88.68-2.369 0.3348 2.174zm1.412-40.14 0.03121-2c26.8-0.6253 53.73-2.09 80.5-1.862l0.3992 2.265c-28.17-0.05157-56.8 1.053-80.88 1.599z" style="fill:#ffffff"/>
 <path id="rD" d="m221.2 50.81c31.8-0.7003 63.97-1.858 88.68-2.405l0.2758 1.902c-14 0.1523-86.27 2.836-89.08 2.662 0.0202-0.552 0.1133-1.722 0.1208-2.159zm82.06-39.17c-27.33-0.3311-55.66 0.7409-80.81 1.484l0.02342-1.61c24.44-0.7738 53.21-2.025 80.42-1.868m-13.08 55.32c-8.565 0.334-7.282 0.8238-7.339-2.124 3.498-1.51 20.01-2.102 22.56-1.179 0.5225 0.5304 1.196 2.008 0.3345 2.277-2.764 0.8612-11.58 0.5079-15.56 1.025zm-70.09 34.43c31.45-0.69 62.68-1.999 88.37-2.692 0.7461 0.4963-0.8799 1.987-3.039 3.042-31.3 1.039-59.26 3.289-85.18 3.832zm90.24 27.75c2.02-22 5.196-46.11 1.563-69.43-2.597-16.68-5.857-33.74-9.08-50.23l-79.95 1.912c-0.2075 8.113-0.0337 26.58-1.648 44.77-0.7398 11.54-1.096 25.58-1.187 31.53-0.1344 7.546-0.06883 13.67 0.218 18.47 0.5601 9.581 1.923 15.74 4.026 25.49z" style="fill:#000000"/>
</svg>
