<svg id="esv" preserveAspectRatio="xMidYMid meet" version="1.1" viewBox="0 0 450 156.72278" xmlns="http://www.w3.org/2000/svg">
 <path id="trim" d="m296.5 8.885c-6.787-0.1866-1.975-0.4025-5.353-0.0124l7.428 40.55c4.795-0.2592 4.003-0.5037 7.561-1.295 0.7224-6.28-9.128-34.96-9.635-39.23zm-286.6 57.21c-5.135 8.206-4.405 18.8-6.028 26.43 0.493 1.41 12.66-3.794 14.12-4.687 1.629-8.049 9.798-19.12 9.798-19.13 9.837-1.162 14.68-3.538 18.25-9.032-7.055-4.973-30.19 0.3778-36.13 6.427zm203.1 63.16c-17.04 0.8439-94.81-2.787-101 2.905 35.28 2.562 87.45 0.09788 115.6-0.383 24.39-0.8124 51.3-0.2102 75.22-2.337-0.3862-0.5336-1.337-1.288-3.112-1.602-5.568-0.9865-58.51 2.307-86.77 1.416zm188.7-127.3c-6.212-2.538-15.93 0.2739-20.79-1.074-50.22 0.06929-105-0.3793-142.2 1.088-7.958 0.5031-19.56 1.896-26.07 4.328 7.05 0.04142 182.5-1.82 193.5-1.329z" style="fill:#ffffff"/>
 <path id="fHub" d="m50.24 99.99c23.71-17.13 46.87 1.921 47.1 24.21 0.08735 8.931-13.05 29.28-29.87 27.52-31.48-3.304-35.35-38.62-17.23-51.7z" style="fill:#ffffff"/>
 <path id="fWheel" d="m67.51 88.42c16.73 0 34.97 11.79 34.97 35.08 0.2997 16.44-14.5 33.22-33.64 33.22-19.49 0-34.56-14.9-34.56-34.44 0-20.12 17.2-33.85 33.22-33.85zm27.03 43.45c5.204-16.02-2.724-32.06-20.6-36.75-20.87-3.331-33.12 13.27-33.61 25.75-0.8524 14.38 8.787 24.62 18.74 28.24 17.89 5.657 32.47-6.237 35.46-17.25zm-36.69 14.57c2.512-5.006 4.611-8.804 7.344-13.51 0.7346-1.061 1.078-1.038 3.518 0.235 3.322 1.735 3.996 2.415 4.493 4.528 1.041 3.366 2.27 6.529 3.011 10.12-2.311 3.211-20.53 0.9692-18.37-1.383zm17.22 1.366c-0.6001-0.2529-1.829-1.377-2.107-1.924-0.4036-0.7993-2.27-9.135-2.087-9.314 0.1802-0.1845 0.7188-0.2038 1.033-0.03715 0.6211 0.3296 0.2173-0.4436-0.4823-0.9233-0.9514-0.6527-4.758-2.648-5.084-2.584-1.246 0.1457-7.425 11.97-7.616 13.61 0.1502 0.8203 0.5862 0.6593 0.5862-0.2161 0-0.4409 0.1474-0.8218 0.4804-1.239 1.463-2.401 5.642-12.2 6.787-11.27 0.4167 0.00302 1.931 0.7744 2.255 1.15 1.472 4.678 1.841 7.153 2.956 11.69 0.3199 0.8752-0.1073 2.051-0.1894 2.291 1.345 0.2412 3.752-0.9683 3.467-1.225zm-1.282-16.98c2.143-1.902 4.538-3.157 6.787-3.226 1.987 0.396 9.779 3.4 11.84 4.762 0.611 1.782-6.123 11.01-11.01 13.56-2.409 2.391-6.202-11.93-7.616-15.09zm7.356 14.05c0.04726-0.3334-0.4517-0.1893-0.6508-0.2727-1.823-4.875-3.717-8.436-5.047-13.14 0.05381-0.4717 0.8666-0.9663 2.044-1.242 1.33-0.4328 7.322 2.623 9.788 3.828 2.397 1.176 3.024 1.644 3.049 2.272 0.2691 0.09401 1.95-2.967 1.957-3.609-0.6235-0.01642-1.91 0.4622-3.086 0.4843-3.154-1.153-6.097-2.275-8.824-4.063 0.02457-0.1828 0.2907-0.4563 0.5914-0.6076 0.8321-0.4186 0.6656-0.5837-0.5044-0.5012-2.246 0.4549-3.977 1.293-5.562 2.767-0.4262 0.8556-0.4193 0.9322 0.205 2.338 1.467 3.912 3.301 7.977 4.723 11.5 0.2012 0.526 0.5935 1.069 0.7713 1.069 0.4396-0.08166 0.5816-0.4605 0.547-0.8186zm-37.88-15.48c5.952-1.168 14.48-3.009 16.21-2.382 1.138 1.264 2.067 5.916 1.27 7.602-0.7357 1.59-6.431 10.66-6.846 10.51-2.967-0.06306-13.12-13.28-10.63-15.74zm10.35 15.31c-1.337-2.402 3.122-7.028 5.322-10.69 0.4565-0.4208 0.8044-0.235 0.9962 0.5324 0.1589 0.8036 0.1744 0.6149 0.4812-0.0295-0.0364-3.206-0.06649-8.03-2.914-7.073-4.49 0.6373-9.274 1.342-13.12 2.414-0.2192 0.2246-0.04724 0.803 0.1938 0.6499 4.28-0.761 8.824-1.866 12.91-2.346 1.344-0.2796 2.278 2.971 1.149 4.095-2 3.238-6.185 10.48-8.141 9.517-0.6989-0.2272-0.2355 0.439 1.208 1.737 0.4822 0.649 1.703 1.339 1.915 1.199zm12.3-16.8c1.13-1.325 3.057-1.001 3.552 0.7677 0.1158 0.8676-0.3722 1.777-1.124 2.142-1.94 0.7472-3.455-1.211-2.428-2.911zm5.305-2.088c0.6899-1.839 2.437-1.468 2.896-1.043 1.255 0.7174 1.086 2.52 0.1362 3.16-1.534 1.093-3.548-0.3355-3.031-2.116zm6.396-3.747c0-0.5398 0.6816-3.519 1.034-4.517 1.451-4.171 7.893-6.28 11.99-8.225 3.354 4.187 4.101 11.89 3.244 18.12-0.5952 1.378-17.58-2.523-16.27-5.375zm15.42 4.514c0-0.2494-0.2111-0.3238-1.18-0.416-4.241-1.159-10.14-2.016-12.88-4.52 0.05917-0.8429 0.2814-1.528 0.514-2.335 0.1543-1.437 7.782-4.096 12.08-5.927 0.4362 0 0.7932-0.07258 0.7932-0.1614 0-0.3445-1.549-3.578-1.682-3.484 0.1974 3.28-4.087 4.356-6.509 5.814-3.654 1.815-3.84 1.845-3.84 0.6458 0-0.6021-0.006032-0.6076-0.3388-0.2989-1.13 1.506-1.787 5.221-1.521 6.949 4.107 1.969 8.66 2.754 12.36 4.133 1.142 0.5432 2.124 0.2496 2.207-0.3991zm-31.51-2.791c0.69-0.7256 2.455-0.3424 2.848 0.6499 0.7064 1.09-0.1091 2.885-1.795 2.862-2.063-0.2511-2.367-2.676-1.054-3.512zm-19.1 1.356c-1.287 0.1364-0.8149-13.7 5.065-18.18 4.492 4.211 11.7 9.702 12.12 11.92-0.5705 1.83-3.34 5.013-5.089 5.347-3.885 0.3362-8.401 0.9281-12.1 0.9119zm0.7173-1.332c1.401-1.387 1.418-1.39 6.418-1.295 2.437 0.04669 4.615 0.1231 4.837 0.1705 0.4013 0.08491 0.3984 0.09437-0.2463 0.7707-0.7091 0.7439-0.6879 0.8105 0.1418 0.4438 0.9904-0.4372 3.596-3.254 4.26-4.605 0.5987-1.219 0.5916-1.235-1.469-3.148-2.239-2.183-4.853-4.427-6.989-6.347-1.577-1.563-2.446-2.008-2.687-1.367 3.433 3.464 7.869 6.763 10.74 9.962 0 0.3966-1.48 2.091-2.017 2.311-2.363 0.9836-13.08 0.613-13.88-0.1188-0.1029 0.1054-0.1643 3.421-0.06816 3.687 0.7765 1.388 0.4573-0.08004 0.9683-0.4646zm28.57-3.427c0.05803-2.339 2.502-2.588 3.537-1.295 0.953 1.881-0.413 2.875-0.8532 2.962-1.477 0.4964-2.538-0.4723-2.683-1.668zm-9.981-2.315c0.6126-0.6826 2.092-1.165 3.024-0.00604 1.304 1.728-0.3963 3.181-1.245 3.205-1.975 0.03387-2.73-1.786-1.778-3.198zm5.075-0.6178c-0.41-1.921 1.068-2.692 2.051-2.616 2.228 0.3604 2.221 2.968 0.6785 3.738-0.7698 0.2548-1.835 0.4286-2.73-1.121zm3.108-9.089c-0.0477-1.433 1.612-12.12 2.332-12.01 3.097-0.2904 10.9 3.913 13.84 6.891 1.919 1.839 2.053 2.237 1.059 3.148-4.486 3.44-11.83 9.119-12.75 8.886-0.8242-0.3621-4.749-3.967-4.487-6.915zm5.527 5.96c3.696-2.634 7.879-5.479 11.16-8.24 0.1231-0.2357 0.1216-0.4429-0.004525-0.6851-0.2302-0.4409-0.515-0.4451-0.6262-0.00958-4.11 3.38-7.277 5.895-11.4 8.504-1.907-2.031-1.787-3.682-1.458-5.248 1.274-3.652 1.645-10.67 2.898-10.78 0.3046-0.2283 0.2845-0.2593-0.3489-0.5353-1.077-0.4975-2.298-0.5633-3.441-0.6932-0.0188 0.3836 1.376 2.234 1.273 3.628-0.1723 2.437-0.8344 4.942-1.288 7.229-0.1759 1.178-0.4542 1.722-0.8832 1.722-0.4775-0.3253-0.7518-0.6826-1.161-1.128-0.09439 0.652 0.1341 1.268 0.296 1.846 1.462 2.124 3.066 5.261 4.977 4.391zm-8.269-18.2c0.2964 0.851-0.4708 17.26-0.999 17.46-1.101 0.2947-4.488 0.3614-6.734-0.05275-3.087-2.96-8.787-7.782-9.087-9.904 0.8338-3.215 11.86-8.413 16.82-7.496zm-1.262 16.6c0.4272-2.044 0.947-9.798 0.6798-15.5-0.5353-0.09309-0.5737-0.02936-0.5874 0.9808-0.04205 5.016-0.5113 9.217-0.7483 13.76-1.805 0.382-2.916 0.1262-3.876-1.22-2.795-3.625-7.705-8.296-7.652-10.01-0.8052 0.02643-2.275 1.972-2.623 2.646 0.5891 0.07058 1.193 0.1582 1.698 0.2507 2.737 2.298 5.164 5.185 7.033 8.15-0.5183 0.2995-1.065 0.181-1.552-0.00679-0.273 0.1728 0.1101 0.6458 0.7728 0.9539 0.4205 0.2588 4.92 0.6794 6.857-0.00237z" style="fill:#000000"/>
 <path id="rHub" d="m326.9 99.99c23.71-17.13 46.87 1.921 47.1 24.21 0.08733 8.931-13.05 29.28-29.87 27.52-31.48-3.304-35.35-38.62-17.23-51.7z" style="fill:#ffffff"/>
 <path id="rWheel" d="m344.2 88.42c16.73 0 34.97 11.79 34.97 35.08 0.2997 16.44-14.5 33.22-33.64 33.22-19.49 0-34.56-14.9-34.56-34.44 0-20.12 17.2-33.85 33.22-33.85zm27.03 43.45c5.204-16.02-2.724-32.06-20.6-36.75-20.87-3.331-33.12 13.27-33.61 25.75-0.8524 14.38 8.787 24.62 18.74 28.24 17.89 5.657 32.47-6.237 35.46-17.25zm-36.69 14.57c2.512-5.006 4.611-8.804 7.344-13.51 0.7346-1.061 1.078-1.038 3.518 0.235 3.322 1.735 3.996 2.415 4.493 4.528 1.041 3.366 2.27 6.529 3.011 10.12-2.311 3.211-20.53 0.9692-18.37-1.383zm17.22 1.366c-0.6001-0.2529-1.829-1.377-2.107-1.924-0.4036-0.7993-2.27-9.135-2.088-9.314 0.1802-0.1845 0.7188-0.2038 1.033-0.03715 0.6211 0.3296 0.2173-0.4436-0.4823-0.9233-0.9514-0.6527-4.758-2.648-5.084-2.584-1.246 0.1457-7.425 11.97-7.616 13.61 0.1502 0.8203 0.5862 0.6593 0.5862-0.2161 0-0.4409 0.1474-0.8218 0.4804-1.239 1.463-2.401 5.642-12.2 6.787-11.27 0.4167 0.00302 1.931 0.7744 2.255 1.15 1.472 4.678 1.841 7.153 2.956 11.69 0.3199 0.8752-0.1073 2.051-0.1894 2.291 1.345 0.2412 3.752-0.9683 3.467-1.225zm-1.282-16.98c2.143-1.902 4.538-3.157 6.787-3.226 1.988 0.396 9.779 3.4 11.84 4.762 0.611 1.782-6.123 11.01-11.01 13.56-2.409 2.391-6.202-11.93-7.616-15.09zm7.356 14.05c0.04727-0.3334-0.4517-0.1893-0.6508-0.2727-1.823-4.875-3.717-8.436-5.047-13.14 0.05382-0.4717 0.8666-0.9663 2.044-1.242 1.33-0.4328 7.322 2.623 9.788 3.828 2.397 1.176 3.024 1.644 3.049 2.272 0.2691 0.09401 1.95-2.967 1.957-3.609-0.6235-0.01642-1.91 0.4622-3.086 0.4843-3.154-1.153-6.097-2.275-8.824-4.063 0.02456-0.1828 0.2907-0.4563 0.5914-0.6076 0.8321-0.4186 0.6657-0.5837-0.5044-0.5012-2.246 0.4549-3.977 1.293-5.562 2.767-0.4262 0.8556-0.4193 0.9322 0.205 2.338 1.467 3.912 3.301 7.977 4.723 11.5 0.2012 0.526 0.5935 1.069 0.7714 1.069 0.4396-0.08166 0.5816-0.4605 0.547-0.8186zm-37.88-15.48c5.952-1.168 14.48-3.009 16.21-2.382 1.138 1.264 2.067 5.916 1.27 7.602-0.7357 1.59-6.431 10.66-6.846 10.51-2.967-0.06306-13.12-13.28-10.63-15.74zm10.35 15.31c-1.337-2.402 3.122-7.028 5.322-10.69 0.4565-0.4208 0.8044-0.235 0.9962 0.5324 0.1589 0.8036 0.1744 0.6149 0.4812-0.0295-0.03641-3.206-0.06649-8.03-2.914-7.073-4.49 0.6373-9.274 1.342-13.12 2.414-0.2192 0.2246-0.04725 0.803 0.1936 0.6499 4.28-0.761 8.824-1.866 12.91-2.346 1.344-0.2796 2.278 2.971 1.149 4.095-2 3.238-6.185 10.48-8.141 9.517-0.6989-0.2272-0.2355 0.439 1.208 1.737 0.4822 0.649 1.703 1.339 1.915 1.199zm12.3-16.8c1.13-1.325 3.057-1.001 3.552 0.7677 0.1158 0.8676-0.3722 1.777-1.124 2.142-1.94 0.7472-3.455-1.211-2.428-2.911zm5.305-2.088c0.6898-1.839 2.438-1.468 2.896-1.043 1.255 0.7174 1.087 2.52 0.1362 3.16-1.534 1.093-3.548-0.3355-3.031-2.116zm6.396-3.747c0-0.5398 0.6816-3.519 1.034-4.517 1.451-4.171 7.893-6.28 11.99-8.225 3.354 4.187 4.101 11.89 3.244 18.12-0.5952 1.378-17.58-2.523-16.27-5.375zm15.42 4.514c0-0.2494-0.211-0.3238-1.18-0.416-4.241-1.159-10.14-2.016-12.88-4.52 0.05917-0.8429 0.2814-1.528 0.514-2.335 0.1543-1.437 7.782-4.096 12.08-5.927 0.4362 0 0.7932-0.07258 0.7932-0.1614 0-0.3445-1.549-3.578-1.682-3.484 0.1974 3.28-4.087 4.356-6.509 5.814-3.654 1.815-3.84 1.845-3.84 0.6458 0-0.6021-0.00603-0.6076-0.3388-0.2989-1.13 1.506-1.787 5.221-1.521 6.949 4.107 1.969 8.66 2.754 12.37 4.133 1.142 0.5432 2.124 0.2496 2.207-0.3991zm-31.51-2.791c0.69-0.7256 2.455-0.3424 2.848 0.6499 0.7064 1.09-0.1091 2.885-1.795 2.862-2.063-0.2511-2.367-2.676-1.054-3.512zm-19.1 1.356c-1.288 0.1364-0.8149-13.7 5.065-18.18 4.492 4.211 11.7 9.702 12.12 11.92-0.5706 1.83-3.34 5.013-5.089 5.347-3.885 0.3362-8.401 0.9281-12.1 0.9119zm0.7173-1.332c1.401-1.387 1.418-1.39 6.418-1.295 2.437 0.04669 4.615 0.1231 4.837 0.1705 0.4014 0.08491 0.3983 0.09437-0.2463 0.7707-0.7091 0.7439-0.6879 0.8105 0.1418 0.4438 0.9904-0.4372 3.596-3.254 4.26-4.605 0.5986-1.219 0.5916-1.235-1.469-3.148-2.239-2.183-4.853-4.427-6.989-6.347-1.577-1.563-2.446-2.008-2.687-1.367 3.433 3.464 7.869 6.763 10.74 9.962 0 0.3966-1.48 2.091-2.017 2.311-2.363 0.9836-13.08 0.613-13.88-0.1188-0.1029 0.1054-0.1643 3.421-0.06816 3.687 0.7765 1.388 0.4573-0.08004 0.9683-0.4646zm28.57-3.427c0.05803-2.339 2.502-2.588 3.537-1.295 0.953 1.881-0.413 2.875-0.8532 2.962-1.477 0.4964-2.538-0.4723-2.683-1.668zm-9.981-2.315c0.6126-0.6826 2.092-1.165 3.024-0.00604 1.304 1.728-0.3964 3.181-1.245 3.205-1.975 0.03387-2.73-1.786-1.778-3.198zm5.075-0.6178c-0.41-1.921 1.068-2.692 2.051-2.616 2.228 0.3604 2.221 2.968 0.6785 3.738-0.7698 0.2548-1.835 0.4286-2.73-1.121zm3.108-9.089c-0.04771-1.433 1.612-12.12 2.332-12.01 3.097-0.2904 10.9 3.913 13.84 6.891 1.919 1.839 2.053 2.237 1.059 3.148-4.486 3.439-11.83 9.119-12.75 8.886-0.8242-0.3621-4.749-3.967-4.487-6.915zm5.527 5.96c3.696-2.634 7.879-5.479 11.16-8.24 0.123-0.2357 0.1216-0.4429-0.00452-0.6851-0.2302-0.4409-0.515-0.4451-0.6262-0.00958-4.11 3.38-7.277 5.895-11.4 8.504-1.907-2.031-1.787-3.682-1.458-5.248 1.274-3.652 1.645-10.67 2.898-10.78 0.3046-0.2283 0.2845-0.2593-0.3489-0.5353-1.077-0.4975-2.298-0.5633-3.441-0.6932-0.01881 0.3836 1.376 2.234 1.273 3.628-0.1723 2.437-0.8344 4.942-1.288 7.229-0.176 1.178-0.4542 1.722-0.8832 1.722-0.4775-0.3253-0.7518-0.6826-1.161-1.128-0.0944 0.652 0.1341 1.268 0.296 1.846 1.462 2.124 3.066 5.261 4.977 4.391zm-8.269-18.2c0.2964 0.851-0.4708 17.26-0.999 17.46-1.101 0.2947-4.488 0.3614-6.734-0.05275-3.087-2.96-8.787-7.782-9.087-9.904 0.8338-3.215 11.86-8.413 16.82-7.496zm-1.262 16.6c0.4272-2.044 0.947-9.798 0.6798-15.5-0.5353-0.09309-0.5738-0.02936-0.5874 0.9808-0.04205 5.016-0.5114 9.217-0.7483 13.76-1.805 0.382-2.916 0.1262-3.876-1.22-2.795-3.625-7.705-8.296-7.652-10.01-0.8052 0.02643-2.275 1.972-2.623 2.646 0.5891 0.07058 1.193 0.1582 1.698 0.2507 2.737 2.298 5.164 5.185 7.033 8.15-0.5183 0.2995-1.065 0.181-1.552-0.00679-0.273 0.1728 0.1101 0.6458 0.7729 0.9539 0.4205 0.2588 4.92 0.6794 6.857-0.00237z" style="fill:#000000"/>
 <path id="brake" d="m422.6 12.04c1.057-0.5737 1.212-0.01448 7.65 9.788 5.732 9.002 11.87 21.92 14.02 29.22 1.563 4.595 2.427 21.12 0.9942 21.57-0.4444 0.1311-4.738 1.721-5.598-0.2926-0.7575-1.772-0.1614-6.889-0.6304-11.47-0.9634-9.236-3.226-18-6.897-26.1-3.642-9.971-10.54-17-11.67-22.77z" style="fill:#8a112b"/>
 <path id="body" d="m231.1 2.24c-4.624 0.5469-13.75 1.499-22.03 4.128-9.525 0.1241-22.37 0.9952-28.17 1.664-1.238 0.1426-4.056 0.2917-6.107 0.975-0.8708 0.2898-0.4422-2.383-3.267-1.312 0.2772-3.656-1.274-3.216-5.053-1.008-1.939 2.051-0.07501 4.418-7.327 7.394-17.22 8.462-35.86 23.35-48.78 35.24-21.91 1.209-45.72 1.986-63.91 4.838-9.262 1.271-27.46 3.844-34.53 7.461-5.94 2.653-8.903 14.36-9.923 19.94-2.074 8.199-2.076 21.23-1.968 27.33 0.2217 11.77 1.354 12.66 3.526 15.96 2.424 6.442 6.394 5.298 9.683 9.75 0.2782 1.226 0.3805 5.077 1.338 5.626 5.118 0.9913 12.49 1.737 17.62 1.367-2.007-26.1-0.9592-45.36 12.16-52.36 14.75-7.058 43.39-9.453 54.37 0 6.71 10.96 6.327 18.78 9.495 30.99 0.2217 3.853 1.99 11.72 2.559 14.32 0.5611 0.2225 7.74 0.4072 15.24 0.2785 29.82 0.03559 61.44 0.7005 92.47 0.3342 28.61-0.6934 58.9-2.709 85.12-3.487 1.606-5.44 1.644-7.726 2.263-11.92 1.95-16.61 6.204-30.63 14.57-35.86 10.81-7.704 42.43-5.589 51.03 0 4.302 1.697 13.3 21.12 14.3 40.53 4.6-0.2993 22.69-2.016 30.11-2.631 15.58-1.292 22.26-2.22 22.33-2.538 0.5386 0.02417 8.542-10.44 10.65-15.78 1.105-4.268 0.9885-8.274 1.03-11.37 0.1214-3.056 0.4137-7.395-1.243-9.07-1.488-2.377-1.899-1.49-2.475-2.743 0.2376-1.687-0.1181-3.147-0.5792-7.913l-5.14-0.2622c-0.1118-2.734 0.3014-3.92-0.06813-5.799-0.8527-11.1 0.09525-9.467-1.822-17.66-2.22-6.505-8.115-20.11-9.837-23.07-3.93-6.617-3.988-6.772-7.733-12.68-0.316-1.091 3.595 0.008049 3.475 0.1559-2.53-3.911 0.7329 0.9333 4.096-2.192-0.2751-1.26 1.672-5.275-4.914-5.785-4.57-0.4299-11.83-0.1275-17.62-0.8251-3.362-1.814-2.095-2.605-7.636-3.805-21.33-0.9731-61.15-0.1821-96.08 0.4236-6.091 0.2222-64.9 0.01192-71.35 1.349zm164.4-0.7266c5.103-0.2489 5.421 1.493 9.247 2.909-76.06-0.5037-131.2-0.01553-191.7 1.746 1.896-0.5585 12.67-2.346 18.27-3.182 4.081-0.922 44.37-1.435 67.62-1.431 10.21-0.1043 90.67-0.5565 96.54-0.04152zm-97.02 45.02c-1.644-10.85-4.171-22.12-6.787-35.41l-0.376-1.853c1.496 0.008439 2.749 0.08651 4.218 0.09721 5.488 16.64 6.782 25.29 9.644 36.88-0.2438 2.37-2.487 2.022-6.523 2.114zm-254.7 13.42c-2.25 3.641-3.814 4.984-7.02 5.677-8.287 1.032-11.78 1.908-13.87 4.893-4.251 4.331-3.823 12.17-9.625 18.26-1.981 0.7606-6.376 1.797-7.8 1.543 0.1726-3.334 3.238-22.6 4.989-23.73 13.26-6.284 21.34-5.085 33.31-6.656zm257.7 69.12c-27.88 1.734-72.67 1.679-83.25 2.238-10.93 0.1517-24.45 0.3815-35.87 0.4574-25.36 0.02751-62.33 1.377-68.92 0.1143 0.3105-0.4833 1.713-1.312 2.634-0.9242 5.502 0.3981 53.53-0.2353 102-0.8424 30.9-0.3871 56.09-1.456 82.2-2.018z" style="fill:#000000"/>
 <path id="dDTrim" d="m214 10.91c-16.83-0.02042-37.54-0.4844-53.53 7.801-13.99 9.227-31.72 18.15-40.63 32.74 0.5286 1.305 1.399 2.359 2.861 2.976l89.86-3.219 0.1857-2.544-89.25 2.803c0.186-5.82 28.9-26.2 40.45-31.24 16.98-7.401 35.05-6.814 50.04-7.392zm-8.175 49.98-22.57 1.041 0.4152 3.959 24.55-0.7298zm5.51 34.41-92.78 1.524 1.873 8.019 91.2-5.161z" style="fill:#ffffff"/>
 <path id="dDoor" d="m214 11.05c-18.49 0.5425-26.88 0.898-32.7 1.986-13.84 2.001-24.52 7.575-35.67 15.51-7.198 5.67-17.55 13.21-23.82 20.46-0.7066 0.9654-3.994 5.4 3.948 4.839 11.95-0.2913 26.55-0.8371 38.62-1.242 18.27-0.3851 29.43-1.298 48.21-1.695l0.1332-2.073c-42.11 0.9287-73.55 2.861-78.75 2.95-2.496 0.04329-11.71 1.05-11.09-0.341 1.747-5.302 14.69-15.84 25.38-22.92 17.62-11.96 27.43-13.95 49.78-15.47 7.177-0.1947 8.092-0.2655 15.93-0.4565zm-7.912 51.25c-1.242-1.08-12.7-0.2845-16.15-0.07945-9.203 0.3906-5.137 3.698-3.64 3.187 7.101-0.7316 16.51 0.1139 20.14-1.158zm5.292 33.25c-13.45 0.2979-19.74 0.7456-32.67 0.9287-20.43 0.3622-40.93 0.6755-59.04 1.182 0.2124 7.718 1.279 6.568 8.475 5.809 32.02-1.77 54.97-3.299 83.4-3.896zm-88.81 29.59c-5.179-10.72-5.619-23.34-7.266-35.47-0.2673-11.57-1.257-23.77-0.45-34.38 0.5671-3.388 1.672-5.868 3.429-7.801 1.917-2.43 5.229-5.232 7.883-7.364 6.82-5.737 14.02-10.79 21.58-16.1 9.397-6.395 19.62-10.94 30.82-12.91 7.627-1.767 14.6-1.911 21.73-1.949l13.75-0.1571c-0.3132 13.32-0.1289 28.05-1.585 43.05 0 0-1.028 19.55-1.141 30.32-0.06483 6.211-0.00898 12.12 0.2094 17.76 0.8797 12.83 2.118 15.06 3.87 24.51z" style="fill:#000000"/>
 <path id="rDInside" d="m298 122.2c1.942-21.15 4.996-44.34 1.503-66.76-2.497-16.04-5.632-32.44-8.731-48.3l-76.87 1.838c-0.1995 7.801-0.03241 25.56-1.585 43.05-0.7113 11.1-1.054 24.6-1.141 30.32-0.1292 7.256-0.06618 13.14 0.2096 17.76 0.5386 9.212 1.849 15.13 3.871 24.51z" style="fill:#000000"/>
 <path id="rDTrim" d="m278.7 58.81c-4.288 0.8491-8.25 0.583-8.047 2.998 0.374 1.266 2.955 1.387 9.383 1.139 4.05-0.5684 14.48-0.2545 14.51-2.016-0.1276-2.953-4.203-2.89-15.85-2.121zm-67.23 40.94 83.02-2.683c3.171-3.941 1.78-1.738 2.733-5.103l-85.87 3.443m1.212-44.01 0.2078-2.784 85.27-2.278 0.3219 2.09zm1.358-38.6 0.03001-1.923c25.77-0.6012 51.66-2.01 77.4-1.79l0.3838 2.178c-27.09-0.04959-54.62 1.012-77.77 1.537z" style="fill:#ffffff"/>
 <path id="rD" d="m212.6 48.85c30.58-0.6734 61.51-1.787 85.27-2.312l0.2652 1.829c-13.46 0.1464-82.95 2.727-85.65 2.56 0.01942-0.5308 0.1089-1.656 0.1162-2.076zm78.9-37.66c-26.28-0.3184-53.52 0.7124-77.7 1.427l0.02252-1.548c23.5-0.744 51.16-1.947 77.33-1.796m-12.58 53.19c-8.236 0.3212-7.002 0.7921-7.057-2.042 3.363-1.452 19.24-2.021 21.69-1.134 0.5024 0.51 1.15 1.931 0.3216 2.189-2.658 0.8281-11.13 0.4884-14.96 0.9856zm-67.39 33.11c30.24-0.6635 60.27-1.922 84.97-2.588 0.7174 0.4772-0.8461 1.911-2.922 2.925-30.1 0.999-56.98 3.162-81.9 3.685zm86.77 26.68c1.942-21.15 4.996-44.34 1.503-66.76-2.497-16.04-5.632-32.44-8.731-48.3l-76.87 1.838c-0.1995 7.801-0.03241 25.56-1.585 43.05-0.7113 11.1-1.054 24.6-1.141 30.32-0.1292 7.256-0.06618 13.14 0.2096 17.76 0.5386 9.212 1.849 15.13 3.871 24.51z" style="fill:#000000"/>
</svg>
