<?xml version="1.0" encoding="UTF-8" standalone="no"?>
<svg
   xmlns:dc="http://purl.org/dc/elements/1.1/"
   xmlns:cc="http://creativecommons.org/ns#"
   xmlns:rdf="http://www.w3.org/1999/02/22-rdf-syntax-ns#"
   xmlns:svg="http://www.w3.org/2000/svg"
   xmlns="http://www.w3.org/2000/svg"
   width="476"
   height="140"
   viewBox="0 0 125.94167 37.041666"
   version="1.1"
   id="svg4680">
  <defs
     id="defs4674" />
  <metadata
     id="metadata4677">
    <rdf:RDF>
      <cc:Work
         rdf:about="">
        <dc:format>image/svg+xml</dc:format>
        <dc:type
           rdf:resource="http://purl.org/dc/dcmitype/StillImage" />
        <dc:title></dc:title>
      </cc:Work>
    </rdf:RDF>
  </metadata>
  <g
     id="layer1"
     transform="matrix(-0.99456738,0,0,0.99292549,162.45725,-144.37448)">
    <path
       style="fill:#000000;stroke-width:0.17615516"
       d="m 66.773736,178.46414 c -0.766122,-2.84773 -0.09983,-6.45513 -1.767181,-9.49296 -1.956275,-2.91749 -4.995128,-4.65247 -8.263551,-4.72816 -3.514635,0.0308 -6.606724,2.12807 -8.090426,4.75275 -1.56972,3.77941 -1.228224,5.80002 -1.075628,9.60286 -0.921781,-0.0648 -1.775324,-0.35353 -2.586352,-0.4178 -1.943532,-0.14874 -5.066979,-0.59718 -5.812978,-0.83454 -0.311525,-0.0994 -0.957533,-0.53189 -1.435568,-0.96168 l -0.869146,-0.78121 c -0.757321,-4.41949 1.430843,-8.35389 1.902271,-11.65638 0,-0.7264 0.592308,-1.4267 1.56438,-1.84964 1.509748,-0.65689 1.510538,-0.65762 1.634586,-1.52068 0.12778,-0.88909 0.255281,-1.1789 0.518673,-1.1789 0.158356,0 0.09393,0.79727 -0.130951,1.62075 -0.07583,0.27797 0.005,0.27574 1.116353,-0.0307 8.700516,-1.99911 18.228706,-3.42019 27.248862,-3.88024 0.895842,0 1.312738,-0.079 1.54946,-0.2931 0.275961,-0.24969 0.386926,-0.25925 0.750418,-0.065 0.366321,0.19603 0.502669,0.18143 0.965329,-0.10333 9.33335,-5.74385 14.886796,-8.60805 18.598291,-9.59218 3.238763,-0.85872 7.2034,-1.27293 14.444722,-1.50921 6.27248,-0.29298 12.65481,-0.20022 18.59943,0.94058 1.26709,0.09 1.36014,0.0708 1.79759,-0.36679 0.4932,-0.49323 0.61796,-0.5345 0.95953,-0.31753 0.15656,0.0997 0.17269,0.29619 0.0574,0.6987 -0.15776,0.55009 -0.14737,0.56366 0.57475,0.74915 1.81587,0.46647 2.75772,0.74913 3.90623,1.17228 5.87961,1.81237 9.86867,5.49315 15.09182,6.39683 2.83751,0.36556 5.42211,1.00052 8.40362,1.38088 l 2.35686,0.29473 0.85291,1.49592 c 0.46911,0.82273 0.8552,1.65933 0.85799,1.85918 0.11083,1.35863 0.61855,2.3885 1.06201,3.78519 0,0.16219 0.23475,0.59036 0.52167,0.95147 0.99965,1.2579 1.23068,2.24512 1.25932,5.3806 0.0255,2.78238 0.0194,2.83143 -0.44444,3.53215 -0.4827,0.72933 -1.13531,1.11468 -1.59153,0.93964 -0.14191,-0.0546 -0.83545,0.0324 -1.54124,0.19286 -2.8178,0.64084 -12.36427,2.55831 -12.73727,2.55831 -0.37763,0 -0.40384,-0.0873 -0.5168,-1.71749 -0.53407,-5.43951 -3.23747,-10.5596 -7.91042,-11.08854 -3.46839,-0.20646 -6.13123,0.31132 -8.13786,2.31417 -2.15029,2.15645 -3.19809,4.91876 -3.36139,8.8619 -0.0412,0.99287 -0.1531,2.01114 -0.24887,2.26305 -0.16839,0.4429 -0.20845,0.45406 -1.21432,0.33725 z"
       id="path4604" />
    <g
       id="g4495">
      <path
         id="path4608"
         d="m 128.10179,172.59756 c 0.34015,-5.24768 5.03228,-7.46495 9.87075,-7.27788 3.7543,0.14507 6.7681,3.49326 7.40455,7.27788 0.75307,4.47798 -2.3362,8.97456 -6.82856,9.9265 -6.71351,1.40314 -11.05308,-5.50942 -10.44674,-9.9265 z m 15.93351,1.71441 c 0.0619,-2.37516 -1.55443,-5.38534 -3.45132,-6.36138 -5.88527,-2.79474 -12.89328,1.09124 -10.03152,9.01914 3.84187,7.13154 13.17649,4.04823 13.48284,-2.65776 z m -9.40971,5.64288 c 0,-0.32175 1.3079,-3.72593 2.17342,-3.83397 1.38611,0.38236 2.52759,3.11517 2.32147,4.01492 -0.68136,0.46792 -4.17112,0.82329 -4.49489,-0.18095 z m -1.57546,-0.59506 c -0.0208,-1.33058 2.733,-4.33725 2.69429,-5.02381 -1.06676,-0.40518 -4.9844,-1.52125 -5.04144,-2.25773 1.48805,-0.71206 4.27797,1.06992 5.41597,0.9557 0.39302,-1.7191 -0.11044,-4.65826 0.80142,-5.57657 0.69624,1.30025 0.635,2.40107 0.59979,4.60932 0.007,0.45218 0.0603,0.87021 0.11901,0.9291 1.00226,-0.0391 4.33633,-1.6124 5.3069,-1.07156 -0.84473,1.38428 -3.65369,1.91314 -4.92826,2.53163 0.53123,1.35487 2.64221,3.62883 2.64205,4.90995 -1.0858,0.12407 -3.12353,-3.93201 -3.74425,-3.97983 -1.11312,0.73714 -3.04948,4.12379 -3.86548,3.9738 z m 4.38689,-4.93588 c 0.36686,-0.44201 0.14888,-0.88917 -0.43335,-0.88917 -0.53767,0 -0.75527,0.35315 -0.54888,0.891 0.12592,0.32817 0.70927,0.32707 0.98223,-0.002 z m -5.76494,3.55662 c -0.70855,-0.88484 -1.48024,-3.82373 -1.11021,-4.22841 0.85577,0.002 3.93876,0.0381 4.33225,0.92315 -0.0632,1.04426 -2.88353,3.55118 -3.22204,3.30526 z m 7.40143,-3.60839 c 1.65506,-0.48612 2.62948,-0.57329 4.23427,-0.77846 0.23997,1.31544 -0.43649,3.89067 -1.44268,4.60912 -0.99605,-0.50085 -3.57443,-3.1571 -2.79159,-3.83066 z m -2.33406,1.36454 c 0,-0.0972 0.0795,-0.17625 0.17616,-0.17625 0.0972,0 0.17615,0.0796 0.17615,0.17625 0,0.0972 -0.0795,0.17611 -0.17615,0.17611 -0.0972,0 -0.17616,-0.0795 -0.17616,-0.17611 z m -1.5854,-1.05695 c 0,-0.0972 0.0795,-0.17613 0.17616,-0.17613 0.0972,0 0.17617,0.0795 0.17617,0.17613 0,0.0972 -0.0795,0.17612 -0.17617,0.17612 -0.0972,0 -0.17616,-0.0795 -0.17616,-0.17612 z m 3.17081,0 c 0,-0.0972 0.0795,-0.17613 0.17614,-0.17613 0.0972,0 0.17614,0.0795 0.17614,0.17613 0,0.0972 -0.0795,0.17612 -0.17614,0.17612 -0.0972,0 -0.17614,-0.0795 -0.17614,-0.17612 z m -2.64235,-2.02583 c 0,-0.14533 0.0795,-0.26417 0.17616,-0.26417 0.0972,0 0.17617,0.11884 0.17617,0.26417 0,0.14535 -0.0795,0.26431 -0.17617,0.26431 -0.0972,0 -0.17616,-0.11896 -0.17616,-0.26431 z m 1.93773,0 c 0,-0.14533 0.0795,-0.26417 0.17615,-0.26417 0.0972,0 0.17615,0.11884 0.17615,0.26417 0,0.14535 -0.0795,0.26431 -0.17615,0.26431 -0.0972,0 -0.17615,-0.11896 -0.17615,-0.26431 z m -5.88459,-2.08417 c -0.38735,-1.12517 2.26149,-2.61408 2.99686,-2.68595 1.03904,0.20584 1.49975,3.77053 0.87747,4.46758 -0.94253,0.2015 -3.31193,-1.13994 -3.87433,-1.78163 z m 6.23578,1.73062 c -0.31558,-0.38029 0.27242,-4.29455 0.66796,-4.44628 1.26606,0.29318 3.10842,1.28676 3.56089,2.58129 -0.64357,0.72163 -3.75149,2.36828 -4.22885,1.86499 z"
         style="fill:#000000;stroke-width:0.17615515" />
      <path
         id="path4606"
         d="m 54.442274,182.32666 c -3.080561,-0.76945 -5.791686,-3.87434 -6.298084,-7.21282 -0.702065,-4.62842 2.576675,-9.40893 7.277947,-10.20442 5.707364,-0.96579 10.549313,4.29739 9.565831,10.20442 -1.15088,5.56333 -5.590091,8.27126 -10.545694,7.21282 z m 9.132537,-9.76529 c -1.551077,-8.75578 -12.272863,-7.62039 -13.643717,-1.04834 -1.052758,4.87012 1.639876,8.47165 5.537568,9.49882 4.767382,1.23702 8.773917,-3.756 8.106149,-8.45048 z m -9.157678,7.27691 c -0.385186,-0.0167 1.050229,-3.20017 2.177269,-4.06984 0.96182,-0.11315 2.701433,3.36256 2.707572,3.80289 -0.840006,1.57546 -4.114886,0.91104 -4.884841,0.26695 z m -1.59521,-0.74954 c -0.148902,-0.7282 1.722074,-3.60858 2.148322,-4.12699 0.800778,-0.93553 0.765893,-1.1727 -0.208643,-1.41799 -0.629333,-0.13542 -4.542401,-1.677 -4.303568,-2.06162 1.482434,-0.29927 3.036196,0.30821 4.486173,0.71137 1.092415,0.45637 1.15079,0.41272 1.15079,-0.8607 0.02542,-0.79032 0.197284,-4.64715 0.697112,-4.67442 0.473373,0.74584 0.643469,3.51979 0.61799,5.32495 -0.183705,0.47873 0.24251,0.52597 1.375436,0.15248 0.906635,-0.26873 4.298866,-1.24195 4.355671,-0.7584 -1.446662,1.43098 -3.926767,1.4728 -5.174891,2.50588 -0.08677,0.0833 0.114374,0.48137 0.459225,0.90934 0.621226,0.8741 2.369753,3.49643 2.323368,4.27923 -1.058787,-0.17343 -2.792081,-2.59985 -3.365799,-3.55823 -0.242444,-0.41365 -0.510116,-0.75215 -0.594816,-0.75215 -0.08467,0 -0.420828,0.41612 -0.746941,0.92485 -0.596328,0.73063 -2.422587,3.36889 -3.219439,3.4024 z m 4.338779,-6.08062 c -0.390741,-0.37693 -1.023936,0.0721 -1.065695,0.51481 -0.02936,0.31212 0.304096,0.68492 0.616542,0.71006 0.590033,0.0477 0.870182,-0.81876 0.449153,-1.22487 z m -6.975487,-0.059 c 1.031037,-0.28945 4.091133,0.38267 4.543245,1.33067 0.229408,0.48105 -2.163041,3.28114 -2.898682,3.73576 -0.811922,-0.34108 -1.736245,-4.28516 -1.644563,-5.06643 z m 8.463695,0.99515 c 1.613094,-0.76153 3.404789,-1.29608 4.200672,-1.34211 1.297092,0.81678 -0.498822,4.96765 -0.95243,5.05385 -0.899703,-0.60216 -3.63657,-2.89036 -3.248242,-3.71174 z m -2.113516,1.3456 c 0.0599,-0.0972 0.183463,-0.17611 0.274632,-0.17611 0.09114,0 0.165753,0.0795 0.165753,0.17611 0,0.0972 -0.123582,0.17612 -0.274624,0.17612 -0.151051,0 -0.22564,-0.0795 -0.165761,-0.17612 z m -1.673475,-1.23305 c 0,-0.0972 0.07456,-0.17611 0.16576,-0.17611 0.09116,0 0.214752,0.0795 0.274626,0.17611 0.05992,0.0972 -0.01478,0.1761 -0.165753,0.1761 -0.151055,0 -0.274633,-0.0795 -0.274633,-0.1761 z m 3.363633,0.10006 c -0.183508,-0.11361 -0.170963,-0.35972 0.201179,-0.33463 0.205767,0.18454 0.0011,0.48495 -0.201179,0.33463 z m -2.65901,-2.12594 c 0,-0.14532 0.07921,-0.26417 0.176154,-0.26417 0.09689,0 0.176155,0.11885 0.176155,0.26417 0,0.14534 -0.07922,0.26432 -0.176155,0.26432 -0.09689,0 -0.176154,-0.11898 -0.176154,-0.26432 z m 2.201936,-0.25316 c 0.30887,0.0597 0.246114,0.51291 0,0.51748 -0.354694,-0.0525 -0.224302,-0.43636 0,-0.51748 z m -6.429661,-2.07875 c 0,-0.82849 3.222923,-3.05911 3.712517,-2.56948 0.233426,1.06801 1.209705,3.77575 0.594693,4.4705 -0.901216,0.9624 -4.258946,-1.60188 -4.30721,-1.90102 z m 6.40835,1.05332 c 0.35386,-1.79181 0.337749,-4.16251 1.921999,-3.3661 1.235022,0.70669 1.928623,1.27248 2.597703,2.41997 -0.783038,0.38767 -4.939424,3.7822 -4.519702,0.94613 z"
         style="fill:#000000;stroke-width:0.17615515" />
    </g>
  </g>
</svg>
