<svg preserveAspectRatio="xMidYMid meet"  version="1.1" viewBox="0 0 880 259" xmlns="http://www.w3.org/2000/svg">
 <path id="f-tire" d="m737.7 259.2c32.02 0.1583 58.15-25.58 58.47-57.59 0.3312-32.03-25.28-58.3-57.31-58.78-32.02-0.4908-58.42 24.98-59.07 57.59-3.8e-4 32.62 25.88 58.63 57.9 58.78z" style="fill:#000000"/>
 <path id="f-rim" d="m785.3 198.9c0.1503 27.38-18.8 49.47-47.56 49.35-26.08-0.1344-47.14-21.29-47.17-47.37-0.07562-27.75 22.28-47.35 47.36-47.15 24.69 0.07405 45.37 18.77 47.37 45.18zm-49.21-39.47c-0.1813 0.2326-0.5115 4.849-0.7343 10.26-0.3523 8.562-1.259 19.91-1.766 22.42-0.6396 1.539-2.01 1.933-3.177 1.845-7.965-1.809-16.64-4.236-23.82-6.37-3.982-1.188-7.358-2.088-7.501-2-0.1423 0.08874-0.5185 0.9366-0.8331 1.884-0.6199 1.867-0.3265 3.107 0.816 3.454 0.3027 0.0918 3.496 1.245 7.097 2.563 10.37 3.793 21.45 8.551 22.29 9.571 1.119 1.352 0.8872 2.342-1.444 6.179-4.754 6.698-12.18 17.73-15.84 24.16 0.7783 0.823 2.04 2.218 3.351 2.75 0.7108 0 1.602-0.993 6.986-7.783 7.749-9.767 14.43-17.42 15.5-17.76 1.359-0.4313 2.422 0.2991 5.351 3.679 7.397 8.239 10.97 13.79 17.61 22.13 1.666-0.7697 2.829-1.7 4.395-2.828-5.577-8.923-12.28-18.72-17.08-27.26-0.6446-1.345-0.2381-2.246 0.4579-3.392 1.133-0.9584 12.56-5.501 23.25-9.242 7.687-2.691 7.214-2.483 7.457-3.25 0.2127-0.6701-0.695-3.881-1.182-4.181-11.04 2.672-21.88 5.95-32.02 7.854-1.741-0.2113-2.514-1.132-2.672-2.711-0.6264-4.262-1.498-19.56-1.511-27.54-0.00634-3.739-0.0927-4.479-0.5426-4.652-1.487-0.3774-3.077-0.1444-4.449 0.224zm6.63 0.162c0.1225 8.436 0.9285 15.85 2.705 24.16 0.6318 1.662 4.67 4.781 6.642 5.133 7.196-1.371 15.11-2.354 23.52-4.113 0.5351-0.2337 0.5595-0.4478 0.5835-0.7708 0.1454-1.93-4.044-8.217-8.336-12.51-4.768-4.768-9.599-7.806-16.01-10.07-2.828-0.9974-6.779-1.875-8.399-1.934-0.2398-0.05334-0.5346-0.028-0.702 0.09755zm-9.373-0.06867c-1.63 0.00255-5.586 0.8913-7.669 1.58-8.43 2.789-16.41 8.199-21.27 14.81-2.389 3.25-4.8 7.749-4.378 8.171 8.945 1.601 14.23 3.618 22.7 4.532 3.533 0.3225 7.69-2.78 8.374-6.092 0.6035-7.991 2.473-18.41 2.942-22.89-0.2716-0.1714-0.498-0.07887-0.7025-0.1112zm-2.8 32.46c-0.05439 0.8241 1.037 1.476 1.733 0.7028 0.4254-0.4701 0.2445-1.24-0.2104-1.484-0.8898-0.4645-1.511 0.2288-1.523 0.7813zm14.31-0.8233c-0.491 0.00635-1.023 0.3366-1.012 1.022 0.05741 0.9481 1.159 1.277 1.805 0.5737 0.4128-0.7273 0.08084-1.489-0.7927-1.596zm-47.31 0.9111c-0.2123-0.00512-0.3188 0.06893-0.4142 0.1863-1.06 1.303-1.419 11.35-0.5783 16.18 1.059 6.075 4.047 13.07 7.573 17.74 3.899 5.164 5.167 6.181 6.199 4.973 2.803-6.345 10.71-16.12 11.44-21.49 0-1.75-1.058-5.441-1.905-6.642-8.033-4.284-15.88-8.436-22.32-10.94zm81.11 0.756c-0.6316 0-20.2 8.81-21.6 9.723-1.449 0.9475-3.433 6.494-3.032 8.481 2.5 5.573 5.322 10.41 8.349 16.13 2.991 5.664 2.717 5.343 3.915 4.587 1.673-1.054 5.146-4.952 7.151-8.029 5.059-7.343 6.313-16.39 6.338-22.27 0.0155-4.367-0.03826-6.325-0.2915-7.678-0.06363-0.658-0.5095-0.9592-0.8327-0.948zm-37.17 1.84c4.553 2.719 4.369 7.869 2.097 10.76-5.055 5.659-12.93 2.229-13.22-4.51 0.7142-6.021 5.841-8.971 11.12-6.249zm-15.3 9.83c0.03859 0.6502 0.8357 1.249 1.606 0.7799 0.7478-0.6323 0.3512-1.56-0.2802-1.773-0.9457-0.2241-1.29 0.526-1.326 0.9931zm21.53 0.2202c0.133 1.018 1.39 1.288 1.85 0.4301 0.2977-0.4143 0.1291-0.9992-0.2758-1.286-0.8342-0.5296-1.584 0.1438-1.574 0.8558zm-9.691 6.709c-0.4977 0.01483-0.9351 0.403-0.9738 0.9839 0.04185 0.9935 1.196 1.338 1.795 0.6085 0.5063-0.7154-0.00804-1.614-0.8215-1.592zm-4.023 7.763c-1.311 0.5496-17.3 17.15-17.3 17.96 3.94 3.065 9.44 4.402 13.53 5.287 8.228 1.452 17.26 0.4547 24.35-2.89 2.981-1.46 4.067-2.125 4.067-2.486-7.087-7.488-12.54-13.51-16.95-17.86-2.586-0.549-5.15-0.6716-7.702-0.01397z" style="fill:#fdfdfd"/>
 <path id="r-tire" d="m185.8 259.2c31.86 0.1726 57.86-25.43 58.19-57.28 0.3312-31.86-25.14-57.99-57-58.47-31.85-0.4908-58.11 24.84-58.77 57.28-0.01333 32.45 25.73 58.32 57.58 58.47z" style="fill:#000000"/>
 <path id="r-rim" d="m233.2 203.7c-1.44 25.04-22.23 44.82-47.32 44.69-30.05 0.2032-48.36-27.17-46.93-48.37 0.2444-27.44 23.58-46.52 47.11-45.9 29.76-0.3221 49.27 25.8 47.14 49.58zm-48.97-43.88c-0.1804 0.2314-0.5089 4.823-0.7304 10.2-0.377 9.167-1.393 21.54-1.864 22.71-0.1155 0.2875-0.6476 0.7811-1.182 1.097-0.924 0.5457-1.119 0.5405-3.922-0.1131-4.986-1.162-14.08-3.64-21.64-5.897-3.961-1.182-7.32-2.077-7.462-1.989-0.1428 0.08828-0.5159 0.9317-0.829 1.874-0.6168 1.857-0.325 3.092 0.8119 3.436 0.3009 0.09133 3.477 1.239 7.058 2.549 10.31 3.775 21.34 8.507 22.18 9.519 1.113 1.345 0.8826 2.33-1.436 6.145-3.216 5.294-7.175 11.28-11.9 17.98-0.43 0.6911-3.739 5.138-3.863 6.054 0.7741 0.8186 2.029 2.206 3.335 2.735 0.7071 0 1.594-0.9878 6.95-7.741 7.708-9.718 14.35-17.33 15.42-17.67 1.352-0.429 2.409 0.2976 5.322 3.661 4.005 4.624 7.527 9.025 12.83 16.03 2.45 3.239 4.562 5.93 4.696 5.979 1.661-0.7611 2.807-1.7 4.372-2.813 0.07177-0.06538-2.289-3.721-5.245-8.122-2.957-4.401-6.932-10.62-8.831-13.82-3.061-5.149-3.433-5.943-3.247-6.937 0.1158-0.6171 0.4724-1.344 0.7928-1.615 1.127-0.9534 12.5-5.472 23.13-9.193 7.646-2.675 7.175-2.47 7.418-3.232 0.2115-0.6668-0.6913-3.86-1.176-4.16-9.562 2.287-18.99 4.848-29.37 7.405-2.756 0.547-2.988 0.5483-3.801 0.01641-0.4758-0.3118-0.9891-0.8994-1.14-1.306-0.6163-1.656-1.692-19.54-1.706-28.38-0.00634-3.718-0.09216-4.455-0.5397-4.629-1.461-0.3679-2.977-0.1737-4.43 0.2162zm6.599 0.1609c-0.1765 0.1766-0.09767 2.099 0.1913 4.655 1.301 11.51 2.221 18.65 2.499 19.38 0.6285 1.653 4.644 4.758 6.608 5.105 0.5552 0.09858 5.63-0.6481 11.28-1.658 12.56-2.247 12.63-2.265 12.7-3.198 0.1446-1.92-4.023-8.173-8.292-12.44-4.743-4.743-9.547-7.765-15.93-10.02-2.812-0.992-6.745-1.865-8.355-1.923-0.2345-0.05372-0.4933 0.06812-0.7008 0.09677zm-16.95 1.504c-8.386 2.774-16.32 8.155-21.15 14.73-2.377 3.232-4.774 7.708-4.355 8.127 5.107 1.127 9.268 1.806 16.59 3.356 7.069 1.504 6.968 1.499 9.203 0.3692 2.235-1.13 4.738-3.667 5.119-5.276 1.254-7.277 2.544-15.4 2.927-22.77-2.379-0.2705-5.678 0.6013-8.33 1.46zm4.906 30.78c0.02372 1.029 1.043 1.254 1.605 0.8339 0.5458-0.4271 0.4011-1.171 0.1451-1.427-0.7342-0.719-1.69-0.2269-1.75 0.5932zm14.2-0.8853c-0.5456-0.01903-1.227 0.4279-1.011 1.31 0.1057 0.3241 0.7225 1.087 1.633 0.4212 0.537-0.5418 0.3898-1.581-0.622-1.731zm-47.07 0.9258c-0.2112-0.00509-0.3172 0.06856-0.4122 0.1854-1.055 1.296-1.412 11.29-0.5752 16.09 1.054 6.044 4.023 13 7.534 17.65 3.878 5.136 5.138 6.148 6.168 4.947 0.6567-0.7677 1.931-2.957 7.126-12.25 3.703-6.621 4.259-7.811 4.259-9.136 0-1.741-1.053-5.413-1.895-6.608-8.074-3.635-15.41-8.527-22.2-10.88zm59.19 10.43c-1.442 0.9426-3.415 6.461-3.017 8.437 2.485 5.544 5.293 10.35 8.303 16.05 2.975 5.635 2.701 5.314 3.894 4.564 1.664-1.048 5.118-4.926 7.113-7.985 5.034-7.306 6.28-16.31 6.304-22.16 0.02601-7.291-0.1423-8.582-0.9423-8.582-0.8 0-20.27 8.763-21.65 9.674zm-15.37-8.083c4.014 2.947 4.719 7.555 2.188 10.91-5.275 5.863-12.95 2.021-13.22-4.728 0.458-6.036 6.445-8.391 11.03-6.18zm-15.25 9.909c0.03091 0.8852 0.8353 1.29 1.585 0.8764 0.694-0.5479 0.4376-1.495-0.1602-1.725-0.6573-0.2172-1.228-0.01536-1.425 0.8483zm21.34 0.3802c0.07531 0.7331 1.158 1.4 1.88 0.3558 0.05747 0 0.4086-1.209-0.7264-1.435-0.947-0.154-1.23 0.8153-1.154 1.079zm-9.323 6.667c-0.5601-0.2069-1.344 0.1789-1.322 0.9599 0.08728 1.066 1.245 1.179 1.729 0.6467 0.4908-0.5397 0.2063-1.38-0.4067-1.607zm-4.332 7.678c-1.304 0.5467-17.21 17.06-17.21 17.87 3.92 3.049 9.392 4.379 13.46 5.259 2.055 0.4398 10.68 0.9089 11.78 0.6409 5.932-0.9193 12.23-2.032 16.49-5.99 0-0.1432-3.547-4.096-7.881-8.787-4.996-5.405-8.282-8.691-8.976-8.978-2.575-0.5463-5.124-0.6681-7.665-0.01397z" style="fill:#fdfdfd"/>
 <path id="red" d="m79.87 91.42c1.359-3.633-42.82-13.22-42.82-11.39-18.54 18.76-18.17 33.69-26.75 49.78 15.11 5.911 60.01-25.77 69.57-38.39z" style="fill:#ac2b1f"/>
 <path id="white" d="m12.44 179.9 91.44 13.65 0.06616-8.016c-29.21-5.185-56.92-12.47-89.94-12.43zm258 16.4c127.9 1.338 255.5 1.258 384.2 7.922 3.032 2.281 3.622 4.36 0.5159 6.129-129-4.106-258.2-2.323-384.7-9.333-2.023-2.704-1.78-3.607 0.00155-4.719zm-58.55-110.5c-1.045 2.655-2.008 5.301 0.1358 7.604l41.14-1.222-1.222-6.926zm218.1 3.123-0.8148 5.025 43.99 1.086 0.2714-5.159c-16.08 0.2921-30.2-2.789-43.44-0.9519zm447.2 75.43c-3.687-15.62-8.789-31.02-17.32-45.87-12.98-8.833-67.65-14.32-66.52-2.211-1.345 7.714 78.87 45.19 83.84 48.08zm-264.8-73.26c-21.78-28.67-111.1-75.55-143.9-77.26-40.6-9.7-141.2-10.49-195.3 6.246-31.64 12.48-64.86 29.7-84.74 58.11 148.7 1.013 300.5 6.662 423.9 12.9z" style="fill:#ffffff"/>
 <path id="black" d="m24.48 88.57c7.537-13.32 7.17-12.91 11.7-12.95 33.58-5.951 72.96-7.32 96.72-19.27 34.75-16.32 62.36-31.13 93.9-41.5 18.8-4.802 16.84-3.252 14.5-11.5-0.9203-3.245 3.457-3.366 6.639-0.1831 2.991 2.991 13.18 4.261 21.96 2.737 46.57-4.049 100.2-7.767 142.4-4.908 29.86 1.728 61.76 5.985 87.79 14.41 42.17 16.5 72.94 36.33 107.9 57.93 14.42 5.868 29.6 6.725 45.07 7.736 54.93 2.815 107.8 8.119 165 22.83 10.7 2.639 20.03 4.797 20.74 4.797 2.13-2.554 0.1114-10.14 1.488-12.25 3.213 3.785 3.379 8.668 3.1 12.77 8.735 4.634 15.34 5.568 20.6 12.94 8.686 18.09 14.49 35.78 15.88 53.92 0.1603 10.54 0.51 19.16-1.583 30.48-0.8924 4.461-9.255 11.57-16.47 13.99-15.17 4.272-52.14 10.8-63.18 8.052-6.696-1.686-4.15-3.878-1.944-9.832 16.75-51.23-31.59-92.52-76.25-79.79-44.55 14.46-52.63 56.59-44.66 89.11l-30.56-0.09876c-140.6-1.116-275-4.256-398.7-1.281 8.305-33.76-2.196-64.43-19.4-77.15-18.46-16.04-57.9-21.36-82.46 1.364-24.74 21.3-22.38 57.05-20.89 69.73-40.21-3.972-70.14-13.32-107.2-19.66-17.17-7.343-16.53-16.45-16.52-33.07 0-8.911 0.2568-17.03 0.5617-18.04 8.129-21.74 16.6-43.39 23.91-61.32zm-11.15 38.81c21.14-9.203 53.25-25.27 59.64-31.23 3.097-2.885 1.89-4.787-5.392-8.502-7.302-3.723-24.29-8.875-33.71-0.06683-10.32 12.78-15.91 28.4-20.53 39.8zm178.4-50.17c60.29 0.2273 130.2-2.234 195.4 0.2423 71.07 1.886 138.7 5.602 201.9 11.09 11.32 0.9835 21.21 1.787 21.98 1.787-32.35-29.99-80.39-55.16-122.1-69.99-34.48-17.09-149.8-17.25-200.5-4.321-54.78 16.91-77.03 38.31-96.67 61.19zm197.9-64.83c2.981-0.0533 7.568-0.2328 10.57-0.2691 1.483 20.81 5.599 43.62 7.847 61.53-6.031-0.1883-10.06-0.2371-16.03-0.4603m18.39 0.7669c-2.911-21.07-5.946-43.39-8.166-61.81 20.11-0.03307 40.7 1.148 60.23 5.454 43.73 9.76 78.29 28.62 115.2 50.61 2.577 1.857 4.823 3.387 4.823 4.393 0 1.006 0.7586 1.831 1.687 1.831s2.322 0.7638 3.097 1.698c1.159 1.396 0.6963 1.504-2.605 1.236-2.209-0.1785-4.43 0.4344-4.934 1.195-0.6717 1.011-1.181 0.9785-1.892-0.1184-1.533-2.366-7.079-1.394-9.133 0.7834-2.179 1.999-4.968 4.554-7.946 4.008-2.372 0.7379-4.937 0.2963-7.405-0.2944-7.307-1.748-9.188-3.201-8.634-8.054 0.3972-3.475 0.4986-3.519 8.365-3.493 4.38 0.01426 11.76 0.3935 16.4 0.8417 9.568 0.9242 9.687-0.8807 0.14-2.157-3.369-0.4505-7.615-1.585-9.433-2.521-1.819-0.9364-5.816-1.701-8.882-1.701-3.664 0-5.56-0.5245-5.534-1.531 0.06893-2.717 3.221-5.819 5.915-5.819 1.442 0 2.621-0.5043 2.621-1.12-10.31-3.144-14.09 11.62-12.7 15.85-0.5441 2.458 0.9695 4.916 1.628 7.374-45.54-1.126-92.14-4.959-132.9-6.649zm-20.94-0.5162c-45.64-1.643-81.24 0.02634-120.6-1.679 0.2218-14.42 0.4455-28.85 0.6694-43.29l11.87-3.915c34.54-9.509 68.8-12.06 106-12.22 1.622 21.2 1.357 42.81 2.05 61.1zm-122.6-44.24c-0.06526 16.03-0.3669 31.23-1.173 42.54-20.43 0.5444-43.21 1.146-63.73 1.842 0.9309-1.84 8.075-7.304 15.57-14.31 12.37-11.37 32.69-26.14 49.33-30.07zm322.4 48.82c2.327-0.04135 11.88 7.488 13.24 8.673 0.481-0.03516-31.54-3.446-34.02-4.243 7.373-1.926 14.05-2.66 20.78-4.43zm-377.2 12.28c2.66 3.64-3.239 2.2 22.72 1.886 16.34-0.3276 19.04-0.4792 18.03-4.085-0.02389-3.314-8.574-1.679-18.68-1.807-10.4 1.584-18.86-1.456-22.07 4.007zm219.3 0.1633c-4.15 4.476 8.714 3.206 19.67 3.532 19.75 0.5884 22.66 1.708 22.66-1.195 0-2.908-3.276-2.639-24.27-3.418-6.583-0.02437-15.02-1.738-18.06 1.081zm422.4 60.91c4.652 2.849 12.03 3.573 11.84 1.355-0.8546-10.49-6.924-20.41-13.88-28.67-3.951-11.44-61.04-19.39-52.16-4.114 16.94 15.31 38.77 20.22 54.19 31.43zm4.994-32.2c-2.688 7.534 4.311 17.16 7.159 23.74 4.52 9.33 10.23 20.94 10.55 20.16-0.9252-7.467-13.17-44.42-17.71-43.89zm-843.7 58.03c-0.4598 3.878 2.099 0.8476 31.23 5.86 4.023 0.2675 45.1 9.736 57.65 7.886 0-1.032 1.185-4.688-10.14-5.418-11.03-2.41-79.65-13.7-78.73-8.329zm348.9 25.81c82.49 0.2535 167.5 4.06 236.8 3.778 58.06 1.414 58.03 3.335 56.4 0.01434-3.087-4.815-217.9-7.602-281-8.145-35.63-0.3232-74.76-2.308-97.59-0.8836-22.83 1.425 2.859 4.983 85.35 5.237z" style="fill:#000000"/>
</svg>
