<svg  version="1.1" viewBox="0 0 340.09859 100.16391" 
    xmlns="http://www.w3.org/2000/svg">
    <g id="mbz" transform="matrix(-.3551 0 0 .3551 712.2 32.72)">
        <g id="f-wheel" class="wheel" transform="matrix(1.392 0 0 1.392 1212 508.2)">
            <path id="f-tire" d="m38.65-274.2a45.51 45.51 0 0 1 -45.28 45.51 45.51 45.51 0 0 1 -45.74 -45.04 45.51 45.51 0 0 1 44.81 -45.97 45.51 45.51 0 0 1 46.2 44.57" style="fill:#000000"/>
            <path id="f-rim" d="m-10.81-311.2c-18.25 1.96-32.32 16.98-33.09 35.32v3.647c1.132 19.69 17.47 35.04 37.19 34.95 20.39-0.1051 36.87-16.65 36.89-37.04 0.0011-0.266-3e-3 -0.5319-0.0057-0.7979-0.3965-18.65-14.58-34.1-33.13-36.08h-3.904zm3.29 4.128c0.9274-6e-3 1.948 0.1208 2.115 0.3343 0.1418 0.1819 0.4001 3.792 0.5741 8.022 0.2964 7.206 1.095 16.93 1.466 17.86 0.0908 0.226 0.5092 0.6141 0.9297 0.8625 0.7263 0.429 0.8798 0.4248 3.083-0.0889 3.919-0.9138 11.07-2.863 17.01-4.635 3.114-0.9294 5.755-1.633 5.867-1.564 0.1122 0.0694 0.4056 0.7325 0.6516 1.473 0.4848 1.46 0.2554 2.43-0.6382 2.702-0.2366 0.0718-2.734 0.9737-5.55 2.004-8.108 2.967-16.78 6.688-17.43 7.484-0.8747 1.057-0.6938 1.832 1.129 4.832 2.529 4.162 5.64 8.864 9.353 14.14 0.338 0.5432 2.94 4.039 3.036 4.76-0.6086 0.6436-1.595 1.735-2.621 2.15-0.5558 0-1.253-0.7766-5.464-6.085-6.059-7.639-11.28-13.63-12.12-13.89-1.063-0.3373-1.894 0.234-4.184 2.877-3.148 3.634-5.917 7.095-10.08 12.6-1.926 2.547-3.587 4.662-3.691 4.702-0.1044 0.0391-0.8973-0.4212-1.762-1.023-0.8648-0.602-1.618-1.137-1.675-1.188-0.0564-0.0514 1.799-2.925 4.123-6.385 2.324-3.46 5.448-8.349 6.943-10.86 2.407-4.049 2.699-4.673 2.553-5.454-0.091-0.4852-0.3714-1.056-0.6232-1.269-0.8863-0.7495-9.824-4.302-18.18-7.228-6.012-2.104-5.64-1.942-5.831-2.541-0.1663-0.5241 0.5435-3.035 0.9245-3.271 0.1172-0.0724 2.757 0.5864 5.867 1.464 6.371 1.799 13.78 3.673 17.22 4.357 2.165 0.43 2.349 0.4311 2.987 0.0129 0.374-0.2451 0.7776-0.707 0.8966-1.027 0.4844-1.302 1.33-15.36 1.342-22.32 5e-3 -2.923 0.07248-3.503 0.4243-3.638 0.2848-0.1093 0.8078-0.1608 1.364-0.1643zm-3.423 0.3824c0.1809 5e-3 0.3027 0.0304 0.3509 0.0785 0.1388 0.1388 0.07678 1.65-0.1504 3.66-1.023 9.052-1.746 14.66-1.965 15.24-0.4942 1.3-3.652 3.74-5.195 4.014-0.4366 0.0775-4.425-0.5095-8.864-1.304-9.872-1.767-9.929-1.781-9.984-2.515-0.1137-1.51 3.163-6.425 6.52-9.783 3.729-3.729 7.507-6.105 12.52-7.873 2.211-0.78 5.302-1.466 6.567-1.512 0.07299-3e-3 0.1397-3e-3 0.2-2e-3zm7.681 0.0248c1.274 2e-3 4.369 0.697 5.997 1.236 6.592 2.181 12.83 6.412 16.63 11.58 1.869 2.541 3.754 6.06 3.424 6.39-0.2832 0.2832 0.0032 0.221-5.236 1.132-2.183 0.3794-5.695 1.057-7.805 1.506-5.556 1.182-5.478 1.179-7.091 0.3633h-5.168e-4c-1.901-0.9615-3.869-2.956-4.168-4.221-0.0686-0.291-0.5469-3.446-1.062-7.011-0.5156-3.565-1.071-7.407-1.235-8.538-0.2179-1.507-0.2191-2.134-0.00413-2.35 0.0599-0.0599 0.2573-0.0863 0.5514-0.0858zm1.252 24.75c0.3901-0.0179 0.7956 0.2484 0.8568 0.6754 0.1098 0.7655-0.5894 0.9692-1.161 0.338-0.3327-0.3677-0.3861-0.5999-0.185-0.801 0.1373-0.1373 0.3115-0.2042 0.4889-0.2124zm-10.27 0.0165c0.04193 5.3e-4 0.08524 3e-3 0.1302 0.01 0.4363 0.062 0.5969 0.2615 0.5969 0.7426 0 0.772-0.683 1.013-1.179 0.4155-0.4503-0.5426-0.1773-1.175 0.4517-1.168zm37 0.694c0.166-4e-3 0.2493 0.0539 0.324 0.1457 0.8292 1.019 1.11 8.878 0.4522 12.65-0.8284 4.751-3.164 10.22-5.923 13.87-3.05 4.038-4.04 4.833-4.848 3.889-0.5163-0.6035-1.518-2.326-5.602-9.628-2.911-5.205-3.348-6.142-3.348-7.182 0-1.369 0.8277-4.254 1.49-5.194 0.2675-0.3797 1.999-1.375 4.307-2.476 2.123-1.013 5.468-2.618 7.432-3.567 3.977-1.922 5.217-2.499 5.715-2.512zm-63.42 0.5912c0.4939 0 15.8 6.89 16.89 7.605 1.134 0.741 2.684 5.079 2.371 6.632-0.079 0.3918-1.203 2.677-2.498 5.078-1.295 2.401-3.108 5.794-4.03 7.541-2.339 4.43-2.124 4.178-3.062 3.587-1.308-0.8238-4.024-3.872-5.592-6.278-1.86-2.853-3.339-6.179-4.241-9.535-0.6381-2.374-0.6979-3.035-0.7152-7.883-0.0204-5.732 0.1119-6.747 0.878-6.747zm31.78 0.6599c-1.027 0-2.054 0.1971-2.803 0.5912-3.48 1.831-4.304 5.939-1.72 8.575 1.947 1.986 4.999 2.658 7.132 1.57 1.931-0.985 3.474-3.286 3.474-5.178 0-1.898-1.359-3.956-3.279-4.967-0.749-0.394-1.776-0.5912-2.803-0.5912zm8.22 7.693c0.407 0.0228 1.04 0.5182 1.04 0.8739 0 0.2323-0.571 0.8273-0.7938 0.8273-0.0873 0-0.3018-0.1427-0.4765-0.3173-0.4375-0.4375-0.3982-1.182 0.07183-1.363 0.0464-0.0178 0.09999-0.0244 0.1581-0.0212zm-16.55 0.1643c0.3767-1.6e-4 0.6756 0.3189 0.6062 0.8056-0.1088 0.763-0.8925 0.917-1.252 0.246-0.209-0.3906-0.1818-0.5961 0.1111-0.8392 0.176-0.1461 0.3631-0.2123 0.5343-0.2124zm8.262 6.072c0.04193 5.3e-4 0.08524 3e-3 0.1302 0.01 0.4363 0.062 0.5969 0.2615 0.5969 0.7426 0 0.772-0.683 1.013-1.179 0.4155-0.4503-0.5426-0.1773-1.175 0.4517-1.168zm0.1995 5.676c1.22-2e-3 2.438 0.1144 3.003 0.3514 1.025 0.4298 13.53 13.41 13.53 14.05 2.598e-4 0.2228-0.5567 0.6506-1.256 0.9638-0.6912 0.3096-1.917 0.8603-2.724 1.224-1.525 0.6873-3.666 1.318-6.603 1.947-1.616 0.3459-8.392 0.7146-9.26 0.5038-3.338-0.5307-7.041-1.439-9.783-2.765-2.33-1.141-3.181-1.662-3.181-1.945 0-0.1126 2.788-3.221 6.196-6.907 3.928-4.249 6.511-6.832 7.057-7.058 0.5768-0.2389 1.8-0.3597 3.02-0.3617z" style="fill:#fdfdfd;stroke-width:.2646"/>
        </g>
        <g id="r-wheel" class="wheel" transform="matrix(1.384 0 0 1.384 1813 506.2)">
            <path id="r-tire" d="m38.65-274.2a45.51 45.51 0 0 1 -45.28 45.51 45.51 45.51 0 0 1 -45.74 -45.04 45.51 45.51 0 0 1 44.81 -45.97 45.51 45.51 0 0 1 46.2 44.57" style="fill:#000000"/>
            <path id="r-rim" d="m-10.81-311.2c-18.25 1.96-32.32 16.98-33.09 35.32v3.647c1.132 19.69 17.47 35.04 37.19 34.95 20.39-0.1051 36.87-16.65 36.89-37.04 0.0011-0.266-3e-3 -0.5319-0.0057-0.7979-0.3965-18.65-14.58-34.1-33.13-36.08h-3.904zm3.29 4.128c0.9274-6e-3 1.948 0.1208 2.115 0.3343 0.1418 0.1819 0.4001 3.792 0.5741 8.022 0.2964 7.206 1.095 16.93 1.466 17.86 0.0908 0.226 0.5092 0.6141 0.9297 0.8625 0.7263 0.429 0.8798 0.4248 3.083-0.0889 3.919-0.9138 11.07-2.863 17.01-4.635 3.114-0.9294 5.755-1.633 5.867-1.564 0.1122 0.0694 0.4056 0.7325 0.6516 1.473 0.4848 1.46 0.2554 2.43-0.6382 2.702-0.2366 0.0718-2.734 0.9737-5.55 2.004-8.108 2.967-16.78 6.688-17.43 7.484-0.8747 1.057-0.6938 1.832 1.129 4.832 2.529 4.162 5.64 8.864 9.353 14.14 0.338 0.5432 2.94 4.039 3.036 4.76-0.6086 0.6436-1.595 1.735-2.621 2.15-0.5558 0-1.253-0.7766-5.464-6.085-6.059-7.639-11.28-13.63-12.12-13.89-1.063-0.3373-1.894 0.234-4.184 2.877-3.148 3.634-5.917 7.095-10.08 12.6-1.926 2.547-3.587 4.662-3.691 4.702-0.1044 0.0391-0.8973-0.4212-1.762-1.023-0.8648-0.602-1.618-1.137-1.675-1.188-0.0564-0.0514 1.799-2.925 4.123-6.385 2.324-3.46 5.448-8.349 6.943-10.86 2.407-4.049 2.699-4.673 2.553-5.454-0.091-0.4852-0.3714-1.056-0.6232-1.269-0.8863-0.7495-9.824-4.302-18.18-7.228-6.012-2.104-5.64-1.942-5.831-2.541-0.1663-0.5241 0.5435-3.035 0.9245-3.271 0.1172-0.0724 2.757 0.5864 5.867 1.464 6.371 1.799 13.78 3.673 17.22 4.357 2.165 0.43 2.349 0.4311 2.987 0.0129 0.374-0.2451 0.7776-0.707 0.8966-1.027 0.4844-1.302 1.33-15.36 1.342-22.32 5e-3 -2.923 0.07248-3.503 0.4243-3.638 0.2848-0.1093 0.8078-0.1608 1.364-0.1643zm-3.423 0.3824c0.1809 5e-3 0.3027 0.0304 0.3509 0.0785 0.1388 0.1388 0.07678 1.65-0.1504 3.66-1.023 9.052-1.746 14.66-1.965 15.24-0.4942 1.3-3.652 3.74-5.195 4.014-0.4366 0.0775-4.425-0.5095-8.864-1.304-9.872-1.767-9.929-1.781-9.984-2.515-0.1137-1.51 3.163-6.425 6.52-9.783 3.729-3.729 7.507-6.105 12.52-7.873 2.211-0.78 5.302-1.466 6.567-1.512 0.07299-3e-3 0.1397-3e-3 0.2-2e-3zm7.681 0.0248c1.274 2e-3 4.369 0.697 5.997 1.236 6.592 2.181 12.83 6.412 16.63 11.58 1.869 2.541 3.754 6.06 3.424 6.39-0.2832 0.2832 0.0032 0.221-5.236 1.132-2.183 0.3794-5.695 1.057-7.805 1.506-5.556 1.182-5.478 1.179-7.091 0.3633h-5.168e-4c-1.901-0.9615-3.869-2.956-4.168-4.221-0.0686-0.291-0.5469-3.446-1.062-7.011-0.5156-3.565-1.071-7.407-1.235-8.538-0.2179-1.507-0.2191-2.134-0.00413-2.35 0.0599-0.0599 0.2573-0.0863 0.5514-0.0858zm1.252 24.75c0.3901-0.0179 0.7956 0.2484 0.8568 0.6754 0.1098 0.7655-0.5894 0.9692-1.161 0.338-0.3327-0.3677-0.3861-0.5999-0.185-0.801 0.1373-0.1373 0.3115-0.2042 0.4889-0.2124zm-10.27 0.0165c0.04193 5.3e-4 0.08524 3e-3 0.1302 0.01 0.4363 0.062 0.5969 0.2615 0.5969 0.7426 0 0.772-0.683 1.013-1.179 0.4155-0.4503-0.5426-0.1773-1.175 0.4517-1.168zm37 0.694c0.166-4e-3 0.2493 0.0539 0.324 0.1457 0.8292 1.019 1.11 8.878 0.4522 12.65-0.8284 4.751-3.164 10.22-5.923 13.87-3.05 4.038-4.04 4.833-4.848 3.889-0.5163-0.6035-1.518-2.326-5.602-9.628-2.911-5.205-3.348-6.142-3.348-7.182 0-1.369 0.8277-4.254 1.49-5.194 0.2675-0.3797 1.999-1.375 4.307-2.476 2.123-1.013 5.468-2.618 7.432-3.567 3.977-1.922 5.217-2.499 5.715-2.512zm-63.42 0.5912c0.4939 0 15.8 6.89 16.89 7.605 1.134 0.741 2.684 5.079 2.371 6.632-0.079 0.3918-1.203 2.677-2.498 5.078-1.295 2.401-3.108 5.794-4.03 7.541-2.339 4.43-2.124 4.178-3.062 3.587-1.308-0.8238-4.024-3.872-5.592-6.278-1.86-2.853-3.339-6.179-4.241-9.535-0.6381-2.374-0.6979-3.035-0.7152-7.883-0.0204-5.732 0.1119-6.747 0.878-6.747zm31.78 0.6599c-1.027 0-2.054 0.1971-2.803 0.5912-3.48 1.831-4.304 5.939-1.72 8.575 1.947 1.986 4.999 2.658 7.132 1.57 1.931-0.985 3.474-3.286 3.474-5.178 0-1.898-1.359-3.956-3.279-4.967-0.749-0.394-1.776-0.5912-2.803-0.5912zm8.22 7.693c0.407 0.0228 1.04 0.5182 1.04 0.8739 0 0.2323-0.571 0.8273-0.7938 0.8273-0.0873 0-0.3018-0.1427-0.4765-0.3173-0.4375-0.4375-0.3982-1.182 0.07183-1.363 0.0464-0.0178 0.09999-0.0244 0.1581-0.0212zm-16.55 0.1643c0.3767-1.6e-4 0.6756 0.3189 0.6062 0.8056-0.1088 0.763-0.8925 0.917-1.252 0.246-0.209-0.3906-0.1818-0.5961 0.1111-0.8392 0.176-0.1461 0.3631-0.2123 0.5343-0.2124zm8.262 6.072c0.04193 5.3e-4 0.08524 3e-3 0.1302 0.01 0.4363 0.062 0.5969 0.2615 0.5969 0.7426 0 0.772-0.683 1.013-1.179 0.4155-0.4503-0.5426-0.1773-1.175 0.4517-1.168zm0.1995 5.676c1.22-2e-3 2.438 0.1144 3.003 0.3514 1.025 0.4298 13.53 13.41 13.53 14.05 2.598e-4 0.2228-0.5567 0.6506-1.256 0.9638-0.6912 0.3096-1.917 0.8603-2.724 1.224-1.525 0.6873-3.666 1.318-6.603 1.947-1.616 0.3459-8.392 0.7146-9.26 0.5038-3.338-0.5307-7.041-1.439-9.783-2.765-2.33-1.141-3.181-1.662-3.181-1.945 0-0.1126 2.788-3.221 6.196-6.907 3.928-4.249 6.511-6.832 7.057-7.058 0.5768-0.2389 1.8-0.3597 3.02-0.3617z" style="fill:#fdfdfd;stroke-width:.2646"/>
        </g>
        <g id="body" transform="translate(1046 -93.82)">
            <path id="red" d="m872.4 101.1c-1.105-1.709 46.61-14.39 46.6-12.4 20.18 20.41 19.77 36.66 29.11 54.17-10.68 12.5-67.83-30.13-75.71-41.77z" style="fill:#ac2b1f;stroke-width:1.333"/>
            <path id="white" d="m945.8 197.5-99.51 14.85-0.072-8.724c31.8-5.642 61.94-13.57 97.88-13.52zm-280.8 17.85c-139.2 1.456-278 1.369-418.2 8.622-3.301 2.483-3.942 4.744-0.5615 6.67 140.4-4.468 281-2.529 418.8-10.16 2.76-2.848 2.818-3.401 0.01-5.135zm63.71-120.2c1.137 2.89 2.185 5.771-0.1478 8.276l-44.78-1.33 1.33-7.537zm-237.3 3.399 0.8867 5.468-47.88 1.182-0.2955-5.616c15.76-0.3463 31.13-3.477 47.29-1.034zm-395.3 26.59c1.333 11.56-85.96 52.34-91.36 55.51 4.013-17 9.565-33.76 18.85-49.93 14.13-9.615 70.94-10.8 72.51-5.577zm196.8-24.23c23.7-31.2 120.9-82.22 156.7-84.09 44.18-10.56 153.7-11.42 212.5 6.798 34.45 13.59 70.59 32.33 92.22 63.25-155.8-1.771-305-0.477-461.4 14.04z" style="fill:#ffffff"/>
            <path id="black" transform="translate(-1046 93.82)" d="m1979 4.254c-8.203-14.49-7.803-14.05-12.73-14.09-36.54-6.478-79.42-7.967-105.3-20.97-37.83-17.76-67.86-33.89-102.2-45.16-20.46-5.226-18.33-3.539-15.79-12.51 1.002-3.531-3.763-3.663-7.227-0.1992-3.256 3.256-14.34 4.638-23.9 2.979-50.69-4.408-109.1-8.453-154.9-5.342-32.51 1.88-67.2 6.514-95.55 15.69-45.89 17.96-79.38 39.54-117.5 63.06-15.69 6.387-32.2 7.32-49.05 8.42-59.78 3.064-117.3 8.835-179.6 24.84-11.65 2.871-21.8 5.221-22.57 5.221-2.318-2.78-0.1212-11.03-1.619-13.33-3.498 4.12-3.678 9.433-3.374 13.9-9.505 5.044-16.7 6.06-22.42 14.08-9.452 19.68-15.77 38.96-17.28 58.68-0.1745 11.47-0.5551 20.86 1.723 33.16 0.9712 4.856 10.07 12.59 17.93 15.23 16.52 4.648 56.73 11.76 68.75 8.764 7.287-1.835 4.518-4.22 2.115-10.7-18.22-55.76 34.38-100.7 82.97-86.84 48.5 15.74 57.27 61.6 48.6 96.99l33.25-0.1075c153.1-1.215 299.2-4.633 433.9-1.395-9.04-36.75 2.39-70.13 21.12-83.96 20.09-17.46 63.03-23.24 89.75 1.484 26.93 23.18 24.36 62.1 22.73 75.87 43.76-4.323 76.34-14.5 116.7-21.39 18.69-7.991 17.99-17.9 17.98-35.98 0-9.699-0.2795-18.53-0.6114-19.63-7.959-21.58-16.47-43.31-25.97-66.74zm12.13 42.25c-23.01-10.02-57.96-27.5-64.91-33.98-3.37-3.14-2.056-5.211 5.869-9.254 7.945-4.053 26.44-9.659 36.7-0.07274 14.18 18.35 15.8 27.34 22.35 43.31zm-276.2-111.9c31.32 10.32 60.62 32.4 82 57.3-65.62 0.2474-141.7-2.432-212.7 0.2637-77.35 2.052-150.9 6.095-219.7 12.07-12.32 1.07-23.09 1.945-23.93 1.945 35.31-32.44 86.82-62.83 132.9-76.16 24.25-13.99 163.7-24.31 241.4 4.582zm-133.4-13.25c-3.243-0.05801-8.237-0.2533-11.51-0.2927-1.613 22.65-6.095 47.48-8.541 66.95 6.565-0.205 10.95-0.2581 17.45-0.5009m-20.01 0.8345c3.168-22.93 6.471-47.22 8.887-67.27-21.89-0.036-44.29 1.249-65.54 5.936-47.59 10.62-85.2 31.13-125.4 55.07-2.805 2.021-5.248 3.686-5.248 4.781 0 1.095-0.8257 1.992-1.836 1.992s-2.528 0.8313-3.371 1.848c-1.261 1.52-0.7578 1.636 2.836 1.346 2.404-0.1943 4.821 0.4728 5.371 1.301 0.7311 1.1 1.285 1.065 2.059-0.1289 1.668-2.575 7.704-1.517 9.94 0.8526 2.371 2.175 5.408 4.955 8.648 4.361 2.582 0.803 5.373 0.3223 8.06-0.3205 7.952-1.903 10-3.483 9.396-8.765-0.4323-3.782-0.5427-3.829-9.104-3.801-4.767 0.01552-12.8 0.4283-17.85 0.916-10.41 1.006-10.54-0.9586-0.1524-2.348 3.667-0.4902 8.287-1.725 10.27-2.744 1.98-1.019 6.33-1.852 9.666-1.852 3.987 0 6.051-0.5707 6.024-1.666-0.075-2.958-3.506-6.334-6.438-6.334-1.569 0-2.854-0.5488-2.854-1.219 11.22-3.421 15.33 12.65 13.82 17.25 0.5922 2.675-1.055 5.35-1.772 8.025 49.09-1.374 100.7-5.487 144.6-7.231zm22.79-0.5619c49.68-1.788 88.42 0.02866 131.3-1.827-0.2414-15.7-0.485-31.4-0.7285-47.1l-12.92-4.26c-37.59-10.35-74.87-13.12-115.4-13.3-1.702 21.94-1.352 44.55-2.243 66.49zm133.5-48.14c0.071 17.45 0.3992 33.99 1.276 46.31 22.23 0.5925 47.02 1.247 69.36 2.005-1.013-2.003-8.789-7.949-16.95-15.57-10.46-10.6-39.3-29.8-53.69-32.74zm-350.8 53.13c-2.532-0.045-12.93 8.149-14.41 9.44-0.5234-0.03827 34.32-3.75 37.02-4.619-11.46-2.281-15.98-1.821-22.61-4.82zm410.6 13.36c-2.894 3.961 3.526 2.395-24.73 2.053-17.78-0.3565-20.72-0.5214-19.62-4.447 0.026-3.607 9.332-1.828 20.33-1.967 23.95 1.033 20.88-0.9077 24.02 4.361zm-238.6 0.1777c4.516 4.871-9.484 3.489-21.41 3.844-21.49 0.6404-24.66 1.859-24.66-1.301 0-3.164 3.566-2.871 26.41-3.719 7.365 0.3133 16.89-1.808 19.65 1.176zm-400.6 32.06c-19.99 16.55-42.25 21.65-58.97 34.2-5.063 3.101-13.09 3.887-12.89 1.475 0.9301-11.42 7.536-22.21 15.1-31.2 4.299-12.45 66.44-21.11 56.76-4.479zm-64.39-0.8282c2.926 8.2-4.691 18.67-7.791 25.83-4.92 10.15-11.13 22.8-11.48 21.94-1.308-6.359 15.49-48.01 19.27-47.77zm918.3 63.17c0.5004 4.221-2.284 0.9224-34 6.379-4.378 0.2912-49.08 10.6-62.74 8.584 0-1.123-1.29-5.102 11.04-5.897 33.83-6.949 88.23-15.22 85.7-9.066zm-282.7 22.05c16.24 3.046-7.697 5.015-96.95 6.032-88.03 1.821-182.3 4.418-257.8 4.111-63.18 1.539-63.16 3.629-61.38 0.0156 3.36-5.24 237.1-8.272 305.8-8.863 38.76-0.3517 76.81-1.348 110.3-1.295z" style="fill:#000000;stroke-width:1.333"/>
        </g>
    </g>
</svg>
