<?xml version="1.0" encoding="UTF-8" standalone="no"?>
<!-- Created with Inkscape (http://www.inkscape.org/) -->

<svg
   xmlns:dc="http://purl.org/dc/elements/1.1/"
   xmlns:cc="http://creativecommons.org/ns#"
   xmlns:rdf="http://www.w3.org/1999/02/22-rdf-syntax-ns#"
   xmlns:svg="http://www.w3.org/2000/svg"
   xmlns="http://www.w3.org/2000/svg"
   xmlns:sodipodi="http://sodipodi.sourceforge.net/DTD/sodipodi-0.dtd"
   xmlns:inkscape="http://www.inkscape.org/namespaces/inkscape"
   width="275.0658"
   height="101.10793"
   viewBox="0 0 72.777824 26.751474"
   version="1.1"
   id="svg14664"
   inkscape:version="0.92.1 r15371"
   sodipodi:docname="esv-5.svg">
  <defs
     id="defs14658" />
  <sodipodi:namedview
     id="base"
     pagecolor="#ffffff"
     bordercolor="#666666"
     borderopacity="1.0"
     inkscape:pageopacity="0.0"
     inkscape:pageshadow="2"
     inkscape:zoom="2.8"
     inkscape:cx="99.608171"
     inkscape:cy="13.280373"
     inkscape:document-units="px"
     inkscape:current-layer="layer1"
     showgrid="false"
     inkscape:snap-global="false"
     showborder="false"
     fit-margin-top="0"
     fit-margin-left="0"
     fit-margin-right="0"
     fit-margin-bottom="0"
     units="px"
     inkscape:window-width="1920"
     inkscape:window-height="1001"
     inkscape:window-x="-9"
     inkscape:window-y="41"
     inkscape:window-maximized="1" />
  <metadata
     id="metadata14661">
    <rdf:RDF>
      <cc:Work
         rdf:about="">
        <dc:format>image/svg+xml</dc:format>
        <dc:type
           rdf:resource="http://purl.org/dc/dcmitype/StillImage" />
        <dc:title></dc:title>
      </cc:Work>
    </rdf:RDF>
  </metadata>
  <g
     inkscape:label="Layer 1"
     inkscape:groupmode="layer"
     id="layer1"
     transform="translate(522.46607,31.342471)">
    <path
       style="display:inline;fill:#ffff00;stroke:#000000;stroke-width:0.01121766px;stroke-linecap:butt;stroke-linejoin:miter;stroke-opacity:1;enable-background:new"
       d="m -497.53041,-29.679626 c 6.83212,0.105084 14.39407,-0.06717 20.14741,1.015308 3.63681,1.166894 7.02356,3.552943 9.26473,6.282216 -1.38901,0.445959 -20.77151,-0.634575 -31.15722,-0.951859 0.35178,-2.140768 1.16483,-4.568057 1.74508,-6.345665 z m 2.04647,7.82105 c 0.71738,0.141927 1.30469,0.128287 1.82432,0.467986 -0.0626,0.211749 -0.79662,0.255612 -1.87191,0.214166 -0.67742,-0.09497 -1.55841,-0.108494 -2.03067,-0.285548 0.60073,-0.310436 1.33449,-0.310958 2.07826,-0.396604 z m 43.73028,1.391091 c 0.85878,1.37142 1.19087,2.655053 1.46257,3.928618 -0.0825,0.235463 -1.42023,0.165828 -1.53564,-0.05022 -0.86924,-0.981441 -1.4011,-2.998661 -1.4011,-2.998661 -1.89311,-0.68643 -2.99135,-0.847933 -3.69363,-1.687349 2.27067,-0.407082 4.18121,0.482433 5.1678,0.807612 z m -29.53187,-0.931037 c 0.62762,0.112933 1.44618,0.07735 1.80851,0.396607 l -1.77681,0.396605 -2.09412,-0.333155 c 0.59526,-0.314694 1.3405,-0.36696 2.06242,-0.460057 z m -16.13478,4.451765 28.95556,1.051657 -0.21028,1.822867 -29.93712,-1.472317 z m 0.67151,5.845516 c 4.47316,-0.0065 9.04941,0.218558 13.6397,0.198982 4.90953,-0.02094 9.99486,0.02679 14.8039,0.530539 -0.007,0.08619 -0.0225,0.112085 -0.13434,0.20643 l 0.14052,-0.01683 c -5.94495,0.08153 -10.51453,-0.244421 -17.6183,-0.365233 -4.08037,-0.135753 -8.23964,-0.05204 -12.24089,-0.407274 0.0128,-0.08829 0.0234,-0.123734 0.0291,-0.136649 0.45906,-0.0061 0.91935,-0.0093 1.38071,-0.01 z m -1.38076,0.01 h -0.004 c 0.004,2.65e-4 0.004,0 0.004,-5.29e-4 -1.3e-4,1.69e-4 -1.8e-4,2.65e-4 -2.6e-4,5.29e-4 z m 2.2e-4,-5.29e-4 c 0.006,-0.01233 0.006,-0.0025 0,0 z m -17.54506,-18.996525 c 0.37588,-0.836432 1.37232,-0.873304 2.18462,-1.098477 8.77816,0.111051 17.47879,-0.01048 26.33452,0.333148 1.34305,0.194844 2.60015,0.432427 3.68948,0.838714 -1.17926,0.0069 -30.44854,-0.389024 -32.20862,-0.07338 z"
       id="path5821"
       inkscape:connector-curvature="0"
       sodipodi:nodetypes="cccccccccccccccccccccccccccscccccccccccccccccccc"
       inkscape:label="white" />
    <path
       style="display:inline;fill:#8a112b;stroke-width:0.15574735;enable-background:new"
       d="m -517.93985,-27.717261 -0.10538,-0.401996 c -0.0906,-0.452839 0.0618,-0.831383 -0.98448,0.828415 -0.95874,1.504006 -1.83262,3.176033 -2.15543,4.124152 -0.26141,0.767766 -0.34088,3.582189 -0.1011,3.582189 0.0775,0 0.76421,0.195364 0.90809,-0.141002 0.12675,-0.296266 -0.18224,-1.052954 -0.10379,-1.81887 0.16123,-1.54408 0.64475,-3.200678 1.60353,-4.402684 0.26564,-0.333006 0.60815,-0.524043 0.60815,-0.602976 0.41677,-0.751864 0.33041,-1.167228 0.33041,-1.167228 z"
       id="path5746-1"
       inkscape:connector-curvature="0"
       sodipodi:nodetypes="ccccsscccc"
       inkscape:label="red" />
    <path
       style="display:inline;fill:#000000;stroke-width:0.15574735;enable-background:new"
       d="m -510.5681,-31.318162 c 8.64752,0.06368 16.67617,-0.260388 24.60619,0.439167 0.66073,0.124614 1.38684,0.307833 1.94723,0.479336 0.9446,0.294178 4.33974,0.750653 5.63471,0.757671 0.31642,0.0017 0.68232,-0.106236 0.81724,-0.24115 0.33169,-0.331717 0.75985,-0.166262 1.18818,0.458801 0.19426,0.283471 0.74479,0.728498 1.22354,0.989011 2.79123,1.591862 5.31261,3.49302 7.5676,5.295258 3.66683,0.20195 7.60093,0.488634 11.05797,1.216471 1.52693,0.360808 3.91808,0.580817 4.9599,1.210084 0.72122,0.763112 1.271,2.535483 1.44164,3.466901 0.34692,1.369719 0.45173,2.878939 0.43372,3.899235 -0.0371,1.966628 -0.0681,2.160618 -0.43143,2.709684 -0.21527,0.325276 -0.69247,0.7936504 -1.06045,1.0408004 -0.36798,0.247145 -0.69314,0.587155 -0.72228,0.755618 -0.0465,0.204977 -0.14013,0.406251 -0.30034,0.498042 0,8.73e-4 9e-5,0.0021 -0.004,0.003 v -2.34e-4 c -0.14804,0.115162 -0.71513,0.194608 -1.38848,0.194608 h -1.11269 l -0.0238,2.34e-4 v -2.34e-4 c -0.0181,-3.6040014 -1.38702,-6.9864244 -4.70918,-7.7311674 -3.24724,-0.831901 -6.65111,1.449673 -7.0613,4.733107 -0.0371,0.643781 -0.44379,1.3733914 -0.65733,1.6288614 -0.0939,0.0372 -0.68475,0.04948 -1.93991,0.02793 -9.65416,-0.309452 -18.90326,-0.447493 -27.94645,-0.37165 -0.63243,0.01212 -1.28813,-0.01126 -1.84524,0.242976 -0.38534,0.06573 -0.94483,0.127699 -1.25732,-0.05088 -0.17505,-0.26249 -0.19854,-0.6209514 -0.21858,-0.8509834 -0.60241,-5.008679 -4.74349,-6.900542 -8.37363,-5.138522 -2.18735,0.97399 -3.01841,3.010198 -3.19174,5.059355 -2.81604,-0.315025 -5.96593,-0.7316 -9.05281,-1.339939 -0.21015,-0.137669 -0.61513,-0.723178 -0.90002,-1.301342 -0.55045,-1.312319 -0.56109,-1.889665 -0.57566,-3.053272 -0.0203,-0.510505 0.0522,-1.098224 0.28198,-1.471767 0.17191,-0.275027 0.28533,-0.403838 0.48639,-0.462452 0,-2.32e-4 -9e-5,-4.49e-4 0.004,-6.61e-4 0.31218,-0.113326 1.19639,0.0057 0.92262,-0.198943 -0.19125,-0.229172 -0.18838,-0.532525 -0.53296,-1.223904 l 0.91905,-0.07934 -0.0834,-0.874177 c -0.24414,-1.773526 -0.0996,-2.01954 0.32856,-3.117838 0.45456,-1.075094 1.6652,-3.462287 1.91712,-3.877692 0.16715,-0.303185 0.29827,-0.51733 0.0185,-0.6245 -0.0665,-0.02549 -0.0748,-0.07441 -0.13452,-0.109748 0.0528,-0.182308 0.14498,-0.484323 0.16498,-0.459507 -0.72558,0.0929 -1.04663,-0.341609 -0.67349,-0.911213 0.20004,-0.30528 0.41156,-0.368554 1.51378,-0.453554 0.50007,-0.06588 1.12292,-0.06847 1.50623,-0.299099 0.0754,-0.06007 0.14061,-0.128457 0.21191,-0.174759 1.46605,-0.936626 3.39399,-0.674793 5.0437,-0.68762 z m -2.80752,0.199844 c -0.77079,0.06501 -1.71602,0.269517 -2.2511,0.910754 0.0525,0.03643 0.0976,0.03498 0.14622,0.03057 0.084,-0.09827 11.50479,-0.255239 20.58555,-0.09696 3.73385,0.02226 7.52244,0.189607 11.14882,0.259858 -0.11474,-0.07335 -0.64077,-0.221453 -1.52176,-0.414768 -4.17459,-0.640726 -8.43499,-0.493538 -12.3431,-0.581771 -5.53803,-0.100303 -10.65064,-0.107682 -15.76463,-0.107682 z m 19.3636,1.635347 h -0.004 -3.44815 c -0.65323,1.208529 -1.27485,4.206037 -1.7109,5.915585 0.0736,0.06868 1.88626,0.171741 4.0277,0.229059 2.14152,0.05732 6.76718,0.204837 10.2793,0.327845 3.51209,0.123007 7.70195,0.270012 9.31065,0.326704 2.68548,0.09464 2.9166,0.08209 2.82557,-0.155139 -0.0964,-0.251138 -0.28111,-0.327237 -0.37807,-0.1759 -0.006,0.17609 -0.27941,0.190666 -2.59767,0.06525 -2.6268,0.02339 -5.4831,-0.287403 -7.83655,-0.303657 -5.38178,-0.284712 -10.22028,-0.302495 -15.06319,-0.514993 0.40887,-1.812635 0.98766,-3.887863 1.52504,-5.481127 l 2.28466,0.01688 c 4.76202,0.06831 9.26309,-0.02142 13.72592,0.351572 2.94618,0.204625 4.03309,0.553314 5.53185,1.302939 0.78695,0.3936 1.70931,0.963934 2.2112,1.34104 0.29284,0.09857 0.32727,0.48701 0.60501,0.491882 0.30211,0 0.2905,-0.120335 -0.0593,-0.402221 -0.23999,-0.185187 -0.45367,-0.333989 -0.68559,-0.486635 -1.15917,-0.762107 -2.48492,-1.437405 -3.50202,-1.797559 -0.47963,-0.14457 -0.99984,-0.261661 -1.58265,-0.360926 -1.82626,-0.253983 -5.21107,-0.469466 -9.05215,-0.589299 -2.26095,-0.03688 -4.37992,-0.100669 -6.4068,-0.101297 z m 20.96153,4.163428 c -0.009,-0.0034 -0.015,0.03509 -0.0199,0.104491 l -0.008,0.171565 c -0.004,0.0794 -0.006,0.152617 -0.01,0.271721 l -0.0203,0.739876 h 0.77887 c 0.42829,0 0.7787,0.06299 0.7787,0.140082 0,0.209168 1.08955,0.170573 1.09485,-0.03878 0,-0.0513 0.0393,-0.04983 0.0981,-0.0146 0.0715,0.03398 0.18794,0.144829 0.36913,0.344043 0.31672,0.348178 0.47778,0.57513 0.46064,0.721852 v 0.01095 c 0,0.164817 -0.25738,0.239385 -0.97348,0.281988 -0.84121,0.05007 -0.80179,0.05861 0.29108,0.0632 0.69552,0.0029 1.3389,0.05128 1.4298,0.107457 0.0909,0.05617 0.21766,0.01741 0.28154,-0.08601 0.0668,-0.108125 0.0216,-0.219116 -0.10609,-0.261455 -0.12225,-0.04048 -0.67115,-0.51131 -1.21988,-1.046275 -0.63177,-0.615926 -1.0827,-0.940239 -1.22906,-0.884064 -0.19209,0.07372 -0.1814,0.125231 0.0632,0.304803 0.18322,0.134479 0.20993,0.179261 0,0.162211 -0.0141,0.02388 -0.0424,0.03878 -0.0838,0.03878 -0.0553,0 -0.10415,-0.02616 -0.13412,-0.06593 -0.0615,-0.0085 -0.10662,-0.01337 -0.18662,-0.02555 -0.11938,-0.01817 -0.23721,-0.04291 -0.35067,-0.06959 -0.10763,0.0049 -0.22741,-0.02847 -0.33628,-0.09651 -0.0931,-0.03282 -0.17196,-0.06539 -0.20852,-0.09422 -0.13302,-0.104889 -0.19483,-0.09408 -0.19483,0.03422 0,0.411158 -0.39548,0.02573 -0.48572,-0.473402 -0.0388,-0.215009 -0.0625,-0.332967 -0.0783,-0.340849 z m 1.95703,1.910718 v 0 c -0.0689,1.15e-4 -0.1268,0.0514 -0.14212,0.119777 0.0163,0.09128 0.0848,0.164008 0.17271,0.185026 0.004,8.47e-4 0.008,0.0019 0.0128,0.0025 0.005,8.47e-4 0.0102,0.0011 0.015,0.0016 0.0102,0.0011 0.0199,0.0019 0.03,0.0021 0.10896,-0.0023 0.16278,-0.06258 0.15104,-0.159702 -0.0539,-0.0835 -0.15991,-0.151138 -0.23912,-0.151255 z m -26.26319,1.969809 c 0.0415,0.04163 0.85362,0.105859 1.80441,0.142591 1.37745,0.05322 1.72887,0.02409 1.72887,-0.142819 -0.57261,-0.411549 -3.24529,-0.493115 -3.53328,2.34e-4 z m 40.52892,0.211263 c 0.43328,0.506011 1.1118,0.733882 1.64834,0.849842 1.36477,0.285546 2.15804,0.633965 2.15804,0.947944 0.36017,1.242935 0.56091,2.378623 1.48066,2.889693 0.29744,0.06984 0.88824,0.207523 1.05538,-0.02441 0.1079,-0.659613 -1.15475,-3.622199 -1.44755,-3.807977 -0.33677,-0.161204 -2.1055,-0.728754 -3.38105,-0.831641 -0.50837,-0.05956 -1.00646,-0.02074 -1.51382,-0.02345 z m -26.28398,0.289288 c 0.1045,0.06458 0.96585,0.127823 1.91416,0.140538 2.31062,-0.08277 1.61108,-0.357225 -0.0124,-0.39743 -0.48449,0.01843 -1.3815,-0.03971 -1.90158,0.256892 z m -13.66795,4.731739 c -0.60272,2.34e-4 -0.93746,0.03063 -0.93746,0.08966 0.0935,0.227714 0.32061,0.260197 0.51129,0.289971 1.27581,0.129186 7.84419,0.440258 18.95707,0.896385 2.73966,0.124724 5.48095,0.218539 8.21893,0.377353 0.67468,-0.0022 0.89441,-0.04824 0.97031,-0.143276 v -0.737822 c -3.02888,-0.0846 -5.83896,0.03707 -8.95564,-0.109278 -0.94227,-0.04713 -4.72693,-0.187097 -8.41036,-0.31119 -3.68343,-0.124094 -7.73091,-0.267743 -8.9944,-0.319177 -0.45911,-0.01505 -0.93512,-0.0323 -1.35974,-0.03263 z m -0.10724,5.131906 v 0 c -0.73896,0.0045 -1.18915,0.02684 -1.27966,0.06821 2.05968,0.269023 3.55496,0.240222 5.2391,0.276056 0.57575,0.04912 9.32155,0.208983 14.28988,0.33218 10.74584,0.266456 10.2013,0.261384 10.2013,0.09445 0,-0.07344 -2.15512,-0.18075 -4.78922,-0.238412 -4.35206,-0.09527 -8.61494,-0.196755 -20.79225,-0.495533 -0.96603,-0.02167 -1.92547,-0.03282 -2.86893,-0.03696 z"
       id="path5744-1"
       inkscape:connector-curvature="0"
       sodipodi:nodetypes="ccccccccccccccccccscccccccccccccccccccccccccsccccccccccccccccccccsscccccccccccccccccccccccssccccsccsccccccscccccsccccccccccccccccccccccccccccccccccsccsccccccssccccccsccc"
       inkscape:label="black" />
    <path
       style="display:inline;opacity:1;fill:#000000;fill-opacity:1;stroke:none;stroke-width:0.09576093;stroke-linecap:round;stroke-linejoin:round;stroke-miterlimit:4;stroke-dasharray:none;stroke-opacity:1;enable-background:new"
       inkscape:transform-center-x="5.8911131"
       inkscape:transform-center-y="-0.72347003"
       d="m -500.75298,-10.457782 a 5.4239581,5.4239594 0 0 1 -5.42396,5.4239598 5.4239581,5.4239594 0 0 1 -5.42396,-5.4239598 5.4239581,5.4239594 0 0 1 5.42396,-5.423959 5.4239581,5.4239594 0 0 1 5.42396,5.423959 z"
       id="path14419"
       inkscape:connector-curvature="0" />
    <path
       inkscape:label="r-rim"
       style="display:inline;opacity:1;fill:#ff00ff;stroke-width:0.02890609;enable-background:new"
       d="m -501.41754,-10.39823 c 0.0913,-2.550924 -1.84064,-4.730681 -4.63033,-4.819638 -2.72368,-0.08685 -4.92033,2.182412 -4.89128,4.899536 0.0256,2.3925141 1.9899,4.6053338 4.77923,4.6229398 2.75392,0.01738 4.64665,-2.0287298 4.74238,-4.7028378 z m -7.46402,3.7157588 c -3.9331,-3.2674848 -1.18993,-8.4900848 2.6558,-8.4434668 3.69331,0.119117 5.19153,3.211265 4.6111,5.8378038 -0.62266,1.9550582 -1.34708,2.491386 -2.96069,3.28405 -1.80039,0.521318 -2.9665,0.17607 -4.30621,-0.678387 z m 4.31475,0.503633 c 0.0658,-0.01685 0.1465,-0.05982 0.17934,-0.09547 0.0557,-0.06043 0.057,-0.07272 0.0194,-0.181311 -0.42624,-0.8407046 -0.76719,-1.5113427 -1.2409,-2.2709289 -0.12411,-0.178471 -0.18226,-0.174602 -0.59403,0.03952 -0.56136,0.2919071 -0.6753,0.4062241 -0.75921,0.761682 -0.1759,0.566067 -0.38364,1.0981239 -0.50861,1.7032969 0.82569,0.468148 1.95505,0.285638 2.904,0.0432 z m -2.71006,-0.04699 c 0.10138,-0.04251 0.30908,-0.231443 0.35586,-0.323705 0.0682,-0.134428 0.38366,-1.5362867 0.35283,-1.5677327 -0.0304,-0.03103 -0.12144,-0.03427 -0.17455,-0.0062 -0.10491,0.05545 -0.0367,-0.07459 0.0815,-0.155307 0.16073,-0.109787 0.80253,-0.434734 0.85864,-0.434734 0.33314,0.1336932 0.56874,0.85076 0.85208,1.3473512 0.43001,0.7523595 0.45807,0.8130615 0.43468,0.9402465 -0.0254,0.137895 -0.099,0.110869 -0.099,-0.03634 0,-0.07417 -0.0249,-0.138136 -0.0812,-0.208515 -0.44885,-0.6406777 -0.7635,-1.8416288 -1.14636,-1.8965047 -0.0704,4.233e-4 -0.3262,0.1301908 -0.38121,0.193399 -0.0459,0.05271 -0.19373,0.6245969 -0.39518,1.5286057 -0.0483,0.216745 -0.0952,0.413787 -0.10435,0.43787 -0.0365,0.0967 -0.0346,0.249827 0.004,0.309544 0.0224,0.03479 0.0351,0.06894 0.0283,0.07589 -0.2332,0.01331 -0.57399,-0.194944 -0.58572,-0.203867 z m -0.8233,-0.247243 c 0.3113,-0.8829358 0.78728,-1.7990278 1.03989,-2.6079667 -0.33481,-0.3421152 -0.77863,-0.5152861 -1.14674,-0.5424361 -0.77796,0.2301579 -1.38527,0.34925 -2.00049,0.8004779 -0.0424,0.06859 0.0283,0.253669 0.24428,0.6394691 0.39662,0.7083919 0.86497,1.1833328 1.61729,1.6400628 0.20201,0.122636 0.18544,0.117891 0.24577,0.0704 z m -0.2026,-0.24641 c 0.0171,-0.02101 0.0488,-0.03821 0.0705,-0.03821 0.0217,0 0.0394,-0.0034 0.0394,-0.0077 0,-0.0042 0.0593,-0.145411 0.13166,-0.313808 0.26125,-0.6759002 0.52209,-1.2273853 0.72108,-1.8970494 -0.009,-0.07933 -0.14649,-0.1624579 -0.34541,-0.2089539 -0.0932,-0.021781 -0.14441,-0.0096 -0.37211,0.08845 -0.49758,0.1899071 -0.98316,0.410486 -1.28017,0.5554631 -0.40494,0.1978142 -0.51069,0.2762991 -0.51516,0.3823459 -0.14858,-0.1206449 -0.2458,-0.4112109 -0.33043,-0.6069279 0.005,-0.0053 0.10694,0.01084 0.22598,0.03589 0.11906,0.02508 0.25184,0.04561 0.29508,0.04561 0.0432,0 0.39816,-0.1412142 0.78873,-0.3138072 0.5968,-0.263734 0.70891,-0.3227268 0.70259,-0.369702 -0.004,-0.03074 -0.0491,-0.07672 -0.0999,-0.102166 -0.14053,-0.0704 -0.11244,-0.09819 0.0852,-0.08429 0.14398,0.010178 0.24774,0.04602 0.53165,0.183946 0.31079,0.1509771 0.35932,0.1844781 0.40789,0.2815709 0.072,0.1438902 0.0708,0.1568432 -0.0346,0.39311 -0.26529,0.690853 -0.52277,1.2562832 -0.79776,1.9331555 -0.034,0.08847 -0.10024,0.179959 -0.13033,0.179959 -0.0804,-0.0048 -0.0838,-0.122213 -0.0939,-0.136943 z m 4.70314,0.02784 c 0.0467,-0.0071 0.12401,-0.04094 0.17174,-0.07536 0.88933,-0.6539585 1.38578,-1.5206476 1.58951,-2.4640345 0,-0.03105 -0.029,-0.07173 -0.0644,-0.0904 -0.89988,-0.158732 -1.9047,-0.4173612 -2.73821,-0.4004982 -0.0992,0.05231 -0.10894,0.07543 -0.179,0.4245911 -0.081,0.4036809 -0.0948,0.7345119 -0.0355,0.853612 0.33837,0.6018691 0.69344,1.2155271 1.25589,1.7520866 z m -0.0378,-0.115056 c 0.0212,-0.02607 0.0272,-0.123686 0.0175,-0.283249 -0.0137,-0.2234516 -0.024,-0.2568566 -0.12565,-0.4062766 -0.15798,-0.2322233 -0.73744,-0.9885652 -0.80456,-1.0501432 -0.0771,-0.07076 -0.13586,-0.03952 -0.16828,0.08954 l -0.0272,0.108205 -0.0541,-0.1131451 c -0.0738,-0.277074 0.0305,-0.5893768 0.077,-0.872758 0.0829,-0.3402579 0.11014,-0.3610769 0.41559,-0.3170319 0.75875,0.1071761 1.5672,0.225802 2.21619,0.4060309 0.037,0.03776 0.008,0.134952 -0.0327,0.109321 -0.72319,-0.12794 -1.49091,-0.3137918 -2.18019,-0.3945048 -0.15687,-1.932e-4 -0.20512,0.05518 -0.27023,0.3101128 -0.062,0.3762941 0.22234,0.5601841 0.44383,0.8548061 0.23325,0.3247231 0.51223,0.6423461 0.74411,0.9481711 0.10327,0.153084 0.17942,0.204261 0.26343,0.1770669 0.11808,-0.03822 0.0398,0.07385 -0.20408,0.2920438 -0.074,0.08627 -0.19922,0.118206 -0.31061,0.14181 z m -2.14386,-2.3675828 c 0.11574,-0.111162 0.11068,-0.284947 -0.0124,-0.426756 -0.17362,-0.1999929 -0.42831,-0.1034391 -0.51198,0.194101 0.0328,0.367484 0.31345,0.425241 0.5244,0.232655 z m -1.09486,-0.3491291 c 0.28837,-0.07969 0.33182,-0.3051929 0.18802,-0.4919999 -0.0629,-0.09156 -0.25301,-0.13996 -0.37423,-0.09526 -0.25997,0.3297617 -0.11302,0.5118567 0.18621,0.5872587 z m -3.19153,-0.1071308 c 0.4674,-0.110744 0.9823,-0.2971491 1.38825,-0.4128621 0.76254,-0.216809 0.9732,-0.326876 0.9732,-0.508487 0,-0.09078 -0.11515,-0.591555 -0.17468,-0.759655 -0.0733,-0.206896 -0.1522,-0.301157 -0.38151,-0.455582 -0.58081,-0.359778 -1.27042,-0.901193 -1.64398,-0.927415 -0.12524,0.04859 -0.13059,0.165315 -0.20465,0.290042 -0.32777,0.635192 -0.54943,1.921324 -0.34353,2.756073 0.0317,0.05228 0.19239,0.0597 0.3869,0.017891 z m -0.19803,-0.0932 c -0.0249,-0.0097 -0.0453,-0.04069 -0.0453,-0.06878 0,-0.04193 0.0356,-0.05446 0.19922,-0.06995 0.5017,-0.08959 0.74429,-0.1915971 1.06022,-0.2810791 1.05978,-0.300097 1.11632,-0.324364 1.11632,-0.479075 -0.01,-0.14172 -0.0475,-0.256921 -0.0868,-0.392714 -0.52935,-0.260058 -0.98795,-0.533116 -1.48946,-0.786561 -0.33786,-0.17032 -0.44247,-0.210232 -0.551,-0.210232 -0.0737,0 -0.13396,-0.01221 -0.13396,-0.02713 0,-0.05793 0.25594,-0.585888 0.28403,-0.585888 0.0164,0 0.0384,0.03612 0.0489,0.08027 0.0105,0.04416 0.0544,0.159093 0.0976,0.255425 0.0945,0.211173 0.13346,0.237411 0.95295,0.642271 0.6174,0.305022 0.64885,0.310286 0.64885,0.108602 0,-0.10127 10e-4,-0.102167 0.0572,-0.05028 0.0315,0.02906 0.0573,0.06524 0.0573,0.08039 0,0.01515 0.0188,0.06895 0.0418,0.119539 0.10654,0.234631 0.19027,0.517873 0.2065,0.698541 0.0162,0.180209 0.0118,0.20432 -0.0487,0.270021 -0.0537,0.07337 -0.14177,0.08118 -0.20958,0.111955 -0.66541,0.210508 -1.29636,0.384766 -1.87917,0.5833649 -0.0627,0.02105 -0.27421,0.021899 -0.32684,0.0013 z m 5.17984,-0.5703781 c -0.21295,-0.06467 -0.31018,0.05701 -0.35665,0.145561 -0.0872,0.1661951 -0.0546,0.4082161 0.192,0.441348 0.42499,-0.06613 0.42394,-0.412417 0.16465,-0.586909 z m 3.32682,0.260272 c 0.19587,-0.480443 0.0609,-1.142627 -0.0972,-1.710089 -0.18853,-0.530442 -0.34514,-1.024547 -0.75851,-1.347236 -0.65467,0.48202 -1.33565,1.191081 -1.90918,1.745876 -0.14228,0.143391 -0.15347,0.16428 -0.13847,0.258554 0.19606,0.399364 0.44933,0.705568 0.85974,0.899339 0.84174,0.101094 1.26504,0.18812 2.04363,0.153556 z m -0.12119,-0.223981 c -0.23667,-0.23331 -0.2395,-0.233879 -1.08442,-0.217828 -0.41172,0.0079 -0.77947,0.02072 -0.81722,0.02868 -0.0678,0.01428 -0.0673,0.01588 0.0416,0.129582 0.11979,0.125105 0.11621,0.13625 -0.024,0.07464 -0.16728,-0.07353 -0.6076,-0.547441 -0.71953,-0.774412 -0.10114,-0.205093 -0.0999,-0.20764 0.24814,-0.52976 0.37816,-0.367276 0.81988,-0.74462 1.18074,-1.067598 0.26644,-0.263049 0.41338,-0.337568 0.4538,-0.230137 0.009,0.0246 -0.0145,0.05059 -0.062,0.06782 -0.58356,0.519839 -1.22014,1.009016 -1.75145,1.607983 0,0.06671 0.24994,0.351769 0.34058,0.388432 0.11544,0.04669 2.04546,0.05024 2.20558,0.0041 0.0701,-0.02023 0.13311,-0.03102 0.14,-0.024 0.0174,0.01772 0.0277,0.57512 0.0115,0.619998 -0.0199,0.05495 -0.0377,0.0465 -0.16341,-0.07745 z m -4.85279,-0.586153 c 0,-0.111789 -0.0677,-0.251249 -0.14153,-0.291547 -0.39072,-0.09642 -0.58779,0.34701 -0.28668,0.56441 0.25125,0.09682 0.32526,-0.06829 0.42821,-0.272863 z m 1.65678,0.02315 c 0.12637,-0.131822 0.12528,-0.287022 -0.003,-0.409119 -0.40813,-0.223297 -0.58273,0.119993 -0.39877,0.419228 0.13068,0.119076 0.28144,0.115281 0.40165,-0.01006 z m -0.99958,-0.358751 c 0.2387,-0.170169 0.1539,-0.326135 0.0667,-0.483675 -0.31191,-0.129425 -0.51892,0.03206 -0.46638,0.359417 0.12011,0.204717 0.24613,0.239103 0.39963,0.124258 z m -0.40765,-1.307788 c 0.0904,-0.120393 0.0919,-0.12743 0.0787,-0.368806 -0.0597,-0.647411 -0.14611,-1.336161 -0.27298,-1.907248 -0.0255,-0.09642 -0.0399,-0.109875 -0.12082,-0.112925 -0.73398,-0.0017 -1.74007,0.64002 -2.33883,1.159448 -0.32419,0.309275 -0.34681,0.3762 -0.17907,0.529809 0.73528,0.50055 1.471,1.076546 2.1541,1.494476 0.32332,-0.157639 0.50041,-0.544687 0.67891,-0.794755 z m -0.85515,0.633407 c -0.67648,-0.498576 -1.23105,-0.856065 -1.88548,-1.385779 -0.0208,-0.03962 -0.0205,-0.07449 8.2e-4,-0.115199 0.0389,-0.07416 0.087,-0.07487 0.1058,-0.0015 0.63261,0.552664 1.30438,1.001239 1.92556,1.430421 l 0.10715,-0.118103 c 0.23793,-0.262259 0.24153,-0.282066 0.13917,-0.764465 -0.11495,-0.612839 -0.20405,-1.222494 -0.41313,-1.77232 -0.0119,0 -0.0463,-0.01833 -0.0763,-0.04074 -0.0515,-0.03837 -0.048,-0.04361 0.0589,-0.09004 0.0625,-0.02711 0.13933,-0.05424 0.17081,-0.06028 0.17081,-0.03276 0.402,-0.06447 0.41049,-0.0563 0.005,0.0052 -0.008,0.04147 -0.0286,0.08066 -0.19996,0.371284 -0.2024,0.378223 -0.18645,0.529578 0.0291,0.409685 0.14103,0.831527 0.21756,1.215918 0.0297,0.198208 0.0767,0.289439 0.14921,0.289439 0.0815,-0.05395 0.1259,-0.115813 0.19608,-0.189744 0.0176,0.109654 -0.0249,0.213351 -0.05,0.310424 -0.50972,0.784791 -0.60109,0.864927 -0.8416,0.738088 z m 4.18355,-1.690722 c 0.0948,-0.08752 0.0707,-0.168743 -0.0962,-0.324169 -0.64933,-0.604552 -1.64764,-1.023936 -2.48288,-1.043049 l -0.20871,-0.0047 -0.0255,0.116766 c 0.0253,0.999044 0.0562,1.577141 0.14505,2.723356 l 0.0492,0.09614 c 0.37914,-0.003 0.75829,-0.006 1.13744,-0.009 0.54683,-0.486799 1.06289,-1.048468 1.48162,-1.555314 z m -2.57243,1.419547 c -0.058,-0.05916 -0.075,-0.209162 -0.1043,-0.923294 -0.008,-0.208718 -0.0277,-0.642209 -0.0426,-0.963314 -0.0263,-0.568472 -0.02,-0.710565 0.032,-0.719567 0.0904,-0.01566 0.0969,-0.0048 0.0992,0.164931 0.007,0.843592 0.0795,1.555545 0.12643,2.313415 0.19036,0.06614 0.38962,0.03151 0.5021,-0.05204 0.27278,-0.261807 0.49607,-0.571623 0.75726,-0.84559 0.29341,-0.305747 0.62447,-0.757252 0.64468,-0.879218 0.0103,-0.06232 0.0301,-0.113288 0.0439,-0.113288 0.21805,0.08568 0.36983,0.335823 0.44326,0.444819 -0.0245,0.01396 -0.0568,0.01768 -0.0717,0.0083 -0.015,-0.0094 -0.11182,0.0059 -0.2152,0.03392 -0.1781,0.0484 -0.19751,0.06262 -0.36975,0.271005 -0.28035,0.361469 -0.59625,0.743932 -0.81855,1.099682 0,0.04555 0.13446,0.0537 0.199,0.01206 0.0229,-0.01475 0.0513,-0.02069 0.0632,-0.01322 0.0461,0.02906 -0.0186,0.108614 -0.13054,0.160462 -0.0997,0.04616 -0.19158,0.05443 -0.61106,0.05497 -0.44474,5.82e-4 -0.49907,-0.0047 -0.54731,-0.05397 z"
       id="path14364"
       inkscape:connector-curvature="0"
       sodipodi:nodetypes="ssssscccccccccccccccccccccscccccccccccccsccssccccccccsccccscccccccccccccccscccccccccccccccccccccccccscccccccscccccsssccsscsccccccccccccccccccsscccccccccscccsccccccccccccccccccccccccccccccccccccccccccscccccccccccccccccccccsccccc"
       inkscape:transform-center-x="6.4408102"
       inkscape:transform-center-y="-0.8048355" />
    <path
       sodipodi:nodetypes="cccc"
       inkscape:connector-curvature="0"
       id="path3718-1"
       d="m -457.44878,-13.748131 c -5.6608,-3.284697 -7.63696,0.286829 -8.45688,3.9162868 0.41825,2.9544449 2.31127,4.3670789 5.09746,4.8459349 5.13061,-1.307783 6.05045,-5.4537147 3.35942,-8.7622217 z"
       style="display:inline;fill:#00ffff;stroke-width:0.02847372;enable-background:new"
       inkscape:label="f-rim" />
    <path
       sodipodi:nodetypes="sssssscccccscsccsccscscssccccssscssssscccccccsccccsccsccccccssccscsccccccccssccscssccccccscccccscscsssccccccsccccsccccsccssccsssscccscccccscscscccscccccscscscccsccccscccccccccccsccccsccsscccccscccccsccsscccccsssccsscscccsccccccccccccccccccccccsccccccsccsscccccscccccccssscccscscscccccsccccccccccccccccccccscscccccccsccccccccccssccccccscsccccccccsssccccccccsccccccccssccsccscccccccccccccccscccscscccccscssccccc"
       inkscape:connector-curvature="0"
       id="path3716-8"
       d="m -455.51697,-9.9949323 c 0.0572,-3.4643887 -2.53029,-5.4357797 -5.29261,-5.4439487 -2.95397,-0.0087 -5.50177,1.783749 -5.554,5.5674017 -0.0349,2.530723 2.4172,5.211134 5.33283,5.279344 2.54397,0.05952 5.46128,-2.222511 5.51378,-5.402797 z m -5.94933,4.624792 c -0.28115,-0.0257 -0.42388,-0.05338 -0.71859,-0.139336 -0.28397,-0.08282 -0.75969,-0.284162 -0.84985,-0.359684 -0.0234,-0.01957 -0.14448,-0.09698 -0.26912,-0.172021 -0.12465,-0.07504 -0.27897,-0.183795 -0.34294,-0.241686 -0.064,-0.05789 -0.15958,-0.137687 -0.21246,-0.177325 -0.1089,-0.08162 -0.62023,-0.609819 -0.62023,-0.640691 0,-0.01108 -0.051,-0.08329 -0.11332,-0.160473 -0.0623,-0.07718 -0.11331,-0.152376 -0.11331,-0.167107 0,-0.01473 -0.0297,-0.06715 -0.0659,-0.116488 -0.0818,-0.1113 -0.35823,-0.696201 -0.43976,-0.9303869 -0.19069,-0.5476761 -0.29541,-1.415529 -0.23695,-1.9634788 0.10973,-1.028328 0.60426,-2.075847 1.3375,-2.833089 0.25365,-0.261941 0.63005,-0.572714 0.87016,-0.718422 0.16616,-0.100835 0.74457,-0.3847 0.74457,-0.36541 0,0.0095 0.0191,9.68e-4 0.0425,-0.01888 0.0234,-0.01985 0.0425,-0.02763 0.0425,-0.0173 0,0.01033 0.0378,-0.0012 0.0839,-0.02562 0.0462,-0.02442 0.24693,-0.08535 0.44617,-0.1354 0.31848,-0.08 0.4212,-0.09232 0.85011,-0.101971 0.27105,-0.0061 0.5732,0.0029 0.67988,0.02034 0.18099,0.02952 0.63427,0.148871 0.7586,0.199742 0.0312,0.01275 0.10764,0.03935 0.16997,0.05911 0.16776,0.05318 0.58792,0.252871 0.78796,0.374487 0.65252,0.396697 1.22573,0.969969 1.58321,1.583375 0.31105,0.533747 0.53969,1.166214 0.61829,1.710355 0.0184,0.127553 0.0435,0.28812 0.0557,0.356817 0.0533,0.299481 -0.006,0.9908647 -0.12665,1.4839898 -0.16236,0.6616429 -0.37245,1.0993899 -0.86261,1.7973239 -0.2191,0.311962 -0.75025,0.798032 -1.09279,1.00003 -0.25585,0.150875 -0.76841,0.409325 -0.93822,0.473075 -0.56602,0.212505 -1.31803,0.294717 -2.06837,0.226122 z m 0.75448,-0.153677 c 0.29438,-0.01732 0.63782,-0.07069 0.92068,-0.143071 0.1558,-0.03987 0.33656,-0.08618 0.40167,-0.102918 0.0651,-0.01673 0.14499,-0.0594 0.17749,-0.0948 0.0551,-0.06001 0.0564,-0.07221 0.0192,-0.180055 -0.0362,-0.105071 -0.15794,-0.353329 -0.23076,-0.470692 -0.0159,-0.02569 -0.0967,-0.170633 -0.17957,-0.3221 -0.0828,-0.151469 -0.20045,-0.36543 -0.26139,-0.47547 -0.0609,-0.11004 -0.11079,-0.216662 -0.11079,-0.236936 0,-0.02027 -0.0297,-0.07374 -0.066,-0.118806 -0.0363,-0.04507 -0.0746,-0.101512 -0.0851,-0.125428 -0.0419,-0.09565 -0.20827,-0.381304 -0.29453,-0.50576 -0.12283,-0.177234 -0.18038,-0.173392 -0.58791,0.03925 -0.55556,0.289884 -0.66833,0.403409 -0.75138,0.756403 -0.0131,0.0558 -0.10271,0.329751 -0.19909,0.608771 -0.19169,0.555012 -0.31647,0.99899 -0.30428,1.082724 0.0224,0.154132 0.93967,0.324899 1.55171,0.288892 z m -1.27477,-0.190599 c -0.15076,-0.06991 -0.15351,-0.07322 -0.085,-0.102048 0.10032,-0.04221 0.30589,-0.229841 0.35219,-0.321461 0.0675,-0.133498 0.3797,-1.525643 0.34918,-1.55687 -0.0301,-0.03082 -0.12019,-0.03403 -0.17275,-0.0062 -0.10382,0.05506 -0.0363,-0.07408 0.0806,-0.154232 0.15907,-0.109025 0.79425,-0.4317199 0.84978,-0.4317199 0.10006,0 0.15742,0.07075 0.33454,0.4126549 0.10131,0.195555 0.33025,0.611967 0.50876,0.925359 0.42558,0.747146 0.45335,0.807428 0.43019,0.933731 -0.0251,0.13694 -0.098,0.110102 -0.098,-0.03608 0,-0.07366 -0.0246,-0.137179 -0.0803,-0.207069 -0.0822,-0.103121 -0.19315,-0.306862 -0.52868,-0.970491 -0.40118,-0.793456 -0.48095,-0.913646 -0.60585,-0.912873 -0.0697,4.23e-4 -0.32283,0.129289 -0.37728,0.19206 -0.0454,0.05235 -0.19173,0.620269 -0.3911,1.518013 -0.0478,0.215243 -0.0943,0.41092 -0.10327,0.434836 -0.0361,0.09603 -0.0343,0.248095 0.004,0.307398 0.0221,0.03455 0.0347,0.06846 0.028,0.07536 -0.0301,0.03076 -0.35332,-0.03484 -0.4947,-0.100406 z m -0.8998,-0.347581 c 0.0252,-0.01993 0.0607,-0.09494 0.0789,-0.166687 0.0181,-0.07175 0.0493,-0.150018 0.0692,-0.173934 0.0199,-0.02392 0.0586,-0.115232 0.086,-0.202924 0.0274,-0.08769 0.0673,-0.180035 0.0886,-0.205206 0.0214,-0.02517 0.0389,-0.05676 0.0389,-0.0702 0,-0.03268 0.12995,-0.368883 0.215,-0.556237 0.0376,-0.08272 0.0683,-0.15765 0.0683,-0.166514 0,-0.0089 0.0902,-0.233004 0.20052,-0.49809 0.13862,-0.3331981 0.19536,-0.503005 0.18381,-0.5501051 -0.0265,-0.1080137 -0.14265,-0.1971288 -0.39281,-0.3013598 -0.12777,-0.05324 -0.31512,-0.1358289 -0.41633,-0.1835381 -0.1721,-0.08112 -0.19322,-0.08461 -0.32578,-0.05378 -0.22379,0.05204 -0.39191,0.0977 -0.45337,0.1231271 -0.0312,0.012891 -0.099,0.03195 -0.15063,0.04236 -0.0517,0.010401 -0.12817,0.03717 -0.16997,0.05949 -0.0418,0.02231 -0.10821,0.04065 -0.14759,0.04075 -0.0394,8.49e-5 -0.0967,0.017201 -0.12748,0.038 -0.06,0.04059 -0.37954,0.1767589 -0.49324,0.2101639 -0.0999,0.02935 -0.40206,0.2234321 -0.43757,0.2810452 -0.042,0.06812 0.028,0.2519118 0.24175,0.6350378 0.39253,0.703483 0.85605,1.175133 1.60062,1.628699 0.19992,0.121786 0.18353,0.117074 0.24323,0.0699 z m -0.17533,-0.157735 c -0.0418,-0.03663 -0.0482,-0.05862 -0.0252,-0.08697 0.0169,-0.02087 0.0483,-0.03794 0.0698,-0.03794 0.0215,0 0.039,-0.0034 0.039,-0.0076 0,-0.0042 0.0586,-0.144403 0.13031,-0.311632 0.0717,-0.16723 0.17933,-0.434505 0.23924,-0.593945 0.0599,-0.15944 0.19301,-0.498613 0.29579,-0.753717 0.10299,-0.255655 0.18315,-0.4963269 0.1786,-0.536243 -0.009,-0.07878 -0.14497,-0.161332 -0.34184,-0.2075069 -0.0922,-0.02163 -0.14292,-0.0095 -0.36827,0.08784 -0.14372,0.06211 -0.34417,0.142432 -0.44544,0.1784971 -0.18906,0.06733 -0.30642,0.1206249 -0.82153,0.3731158 -0.40077,0.196444 -0.50543,0.274386 -0.50985,0.379697 -0.001,0.02392 -0.0343,-0.0087 -0.0739,-0.07247 -0.0859,-0.138221 -0.26652,-0.5165391 -0.25312,-0.530249 0.005,-0.0053 0.10583,0.010729 0.22366,0.03563 0.11783,0.024911 0.24924,0.04528 0.29203,0.04528 0.0428,0 0.39406,-0.1402342 0.78059,-0.311632 0.59065,-0.261906 0.70161,-0.3204901 0.69535,-0.367139 -0.004,-0.03053 -0.0486,-0.07619 -0.0989,-0.1014622 -0.13908,-0.06991 -0.11128,-0.0975 0.0843,-0.0837 0.1425,0.010049 0.24519,0.0457 0.52617,0.182671 0.30758,0.1499301 0.35561,0.1831991 0.40368,0.2796201 0.0712,0.142893 0.0701,0.155756 -0.0343,0.3903859 -0.0489,0.1098282 -0.12459,0.3074722 -0.16829,0.4392102 -0.0437,0.131737 -0.10394,0.275233 -0.13386,0.318879 -0.0299,0.04365 -0.0709,0.131537 -0.091,0.195313 -0.0202,0.06378 -0.0715,0.194227 -0.11411,0.289891 -0.084,0.188579 -0.22305,0.521865 -0.28224,0.676466 -0.0336,0.08786 -0.0992,0.178712 -0.12898,0.178712 -0.007,0 -0.037,-0.02206 -0.0678,-0.04903 z m 4.62945,-0.05932 c 0.0462,-0.007 0.12274,-0.04065 0.16997,-0.07483 0.12584,-0.09106 0.51281,-0.465342 0.64388,-0.622754 0.20747,-0.249186 0.21436,-0.258922 0.42624,-0.602887 0.20616,-0.334662 0.503,-1.055421 0.503,-1.2213197 0,-0.03083 -0.0287,-0.07123 -0.0637,-0.08978 -0.0854,-0.04517 -0.44325,-0.1191303 -0.67194,-0.1388603 -0.10174,-0.0088 -0.27423,-0.0361 -0.38329,-0.06073 -0.2379,-0.0537 -0.48199,-0.09215 -0.69583,-0.109601 -0.0867,-0.0071 -0.31975,-0.03948 -0.51795,-0.07202 -0.3224,-0.05293 -0.36887,-0.05467 -0.44097,-0.01651 -0.0982,0.05195 -0.10781,0.07491 -0.17714,0.421648 -0.0802,0.4008842 -0.0938,0.729422 -0.0352,0.847698 0.1701,0.343188 1.09865,1.767812 1.14467,1.756205 0.008,-0.002 0.052,-0.0093 0.0983,-0.01626 z m -0.0508,-0.05568 c -0.0102,-0.01049 -0.004,-0.03685 0.0134,-0.05858 0.021,-0.02589 0.027,-0.12283 0.0173,-0.281288 -0.0135,-0.221903 -0.0237,-0.255077 -0.12435,-0.403461 -0.15635,-0.230614 -0.72983,-0.981715 -0.79626,-1.042867 -0.0763,-0.07027 -0.13446,-0.03923 -0.16654,0.08892 l -0.0269,0.107452 -0.0535,-0.112361 c -0.0464,-0.09744 -0.0491,-0.129258 -0.0203,-0.239576 0.0183,-0.06997 0.0333,-0.181107 0.0333,-0.2469751 0,-0.06587 0.0284,-0.2369399 0.0632,-0.3801588 0.082,-0.3379002 0.10901,-0.3585753 0.4113,-0.3148352 0.12075,0.01747 0.28966,0.03914 0.37535,0.04814 0.15889,0.016701 0.33433,0.04448 0.63739,0.1009232 0.0935,0.01741 0.24009,0.04395 0.32578,0.05898 0.41626,0.07299 0.82707,0.1667862 0.85481,0.1951752 0.0367,0.03751 0.008,0.1340178 -0.0324,0.1085649 -0.0368,-0.023289 -0.39942,-0.09377 -0.75162,-0.146099 -0.38106,-0.05662 -1.03071,-0.1761601 -1.16554,-0.214472 -0.0601,-0.017071 -0.16833,-0.03111 -0.24054,-0.0312 -0.15525,-1.921e-4 -0.203,0.0548 -0.26744,0.3079639 -0.0556,0.2184731 -0.0549,0.221919 0.0754,0.3760481 0.0637,0.0753 0.2274,0.2880748 0.36381,0.4728358 0.13641,0.184761 0.2815,0.375064 0.32242,0.422896 0.22378,0.261587 0.33389,0.399537 0.41402,0.518704 0.10221,0.152023 0.17756,0.202846 0.26071,0.175841 0.11686,-0.03796 0.0394,0.07333 -0.20197,0.290019 -0.23346,0.20962 -0.2816,0.239539 -0.32081,0.199408 z m -2.24291,-2.3207219 c 0.0312,-0.0077 0.0917,-0.04774 0.13456,-0.08903 0.11455,-0.1103929 0.10954,-0.282974 -0.0123,-0.4238001 -0.17183,-0.1986068 -0.42388,-0.10272 -0.50669,0.1927572 -0.0326,0.1164688 0.0281,0.2323287 0.15375,0.2933549 0.0991,0.04812 0.12947,0.05164 0.23067,0.02672 z m -0.949,-0.4357379 c 0.0911,-0.01669 0.13044,-0.05092 0.18355,-0.1598613 0.0542,-0.1111049 0.0552,-0.2517129 0.002,-0.3287299 -0.0622,-0.09093 -0.2504,-0.138991 -0.37037,-0.0946 -0.17006,0.06293 -0.21393,0.337217 -0.0778,0.4860859 0.0845,0.09234 0.1518,0.1172872 0.26204,0.0971 z m -3.15862,-0.1063911 c 0.1984,-0.0428 0.76745,-0.2098061 0.84985,-0.249415 0.0312,-0.014981 0.267,-0.08724 0.52408,-0.160586 0.75468,-0.215306 0.96317,-0.3246101 0.96317,-0.5049628 0,-0.09015 -0.11397,-0.587456 -0.17288,-0.75439 -0.0725,-0.205462 -0.15063,-0.299071 -0.37757,-0.452426 -0.12572,-0.08496 -0.27958,-0.192709 -0.3419,-0.239449 -0.21039,-0.157783 -0.70664,-0.460224 -0.95227,-0.580352 -0.18997,-0.09291 -0.26374,-0.115333 -0.33286,-0.101187 -0.0488,0.01 -0.0888,0.03507 -0.0888,0.05572 0,0.02065 -0.0439,0.126645 -0.0976,0.235537 -0.15201,0.308376 -0.32015,0.884912 -0.38323,1.314065 -0.054,0.367194 -0.0359,1.3154198 0.0271,1.4196789 0.0313,0.05191 0.19041,0.05929 0.38291,0.017759 z m -0.19598,-0.09255 c -0.0247,-0.0097 -0.0448,-0.04042 -0.0448,-0.06831 0,-0.04164 0.0353,-0.05407 0.19717,-0.06947 0.10844,-0.010311 0.22636,-0.03087 0.26204,-0.04568 0.0685,-0.02844 0.1319,-0.04724 0.78724,-0.2334479 1.04885,-0.2980179 1.1048,-0.3221149 1.1048,-0.4757549 0,-0.05161 -0.0193,-0.160471 -0.043,-0.241914 l -0.043,-0.148078 -0.30405,-0.15424 c -0.16723,-0.08483 -0.40603,-0.213607 -0.53068,-0.286168 -0.12464,-0.07256 -0.41235,-0.225877 -0.63936,-0.340703 -0.33438,-0.169139 -0.43791,-0.208775 -0.54532,-0.208775 -0.0729,0 -0.13259,-0.01212 -0.13259,-0.02694 0,-0.05753 0.25331,-0.581827 0.2811,-0.581827 0.0162,0 0.038,0.03587 0.0484,0.07972 0.0104,0.04385 0.0539,0.15799 0.0966,0.253654 0.0936,0.20971 0.13209,0.235766 0.94313,0.637821 0.61103,0.302909 0.64215,0.308136 0.64215,0.107853 0,-0.100569 10e-4,-0.101464 0.0566,-0.04994 0.0312,0.02886 0.0567,0.06478 0.0567,0.07983 0,0.01505 0.0186,0.06847 0.0413,0.118711 0.10544,0.233005 0.18831,0.514283 0.20438,0.693701 0.016,0.178959 0.0117,0.202903 -0.0482,0.2681488 -0.0362,0.0394 -0.0776,0.07164 -0.092,0.07164 -0.0144,0 -0.0664,0.017791 -0.11546,0.03954 -0.0491,0.021741 -0.24862,0.08223 -0.44337,0.1344099 -0.19476,0.05218 -0.36686,0.1043882 -0.38244,0.116015 -0.0156,0.011631 -0.0602,0.02764 -0.0992,0.03557 -0.10441,0.02128 -0.76976,0.2226921 -0.83568,0.2529731 -0.0312,0.014311 -0.0758,0.03247 -0.0992,0.04035 -0.062,0.02091 -0.27138,0.021759 -0.32346,0.0013 z m 5.15345,0.013761 c 0.094,-0.04796 0.16496,-0.1708993 0.16099,-0.2790544 -0.005,-0.1401919 -0.0887,-0.2739409 -0.18802,-0.3011329 -0.10114,-0.02768 -0.30699,0.05663 -0.35298,0.1445509 -0.0863,0.1650431 0.01,0.3871172 0.19002,0.4382902 0.12217,0.03472 0.11656,0.0348 0.18999,-0.0027 z m 3.26547,-0.3217201 c 0.0903,-0.04452 0.10128,-0.119421 0.0836,-0.5690387 -0.0149,-0.379251 -0.0755,-0.759817 -0.17986,-1.1292 -0.0725,-0.256509 -0.2587,-0.730794 -0.33167,-0.844672 -0.0363,-0.0566 -0.10166,-0.161621 -0.14531,-0.233368 -0.0903,-0.148429 -0.20606,-0.258327 -0.2737,-0.25986 -0.0423,-9.52e-4 -0.20044,0.12935 -0.53768,0.442955 -0.0717,0.06671 -0.18448,0.166949 -0.25053,0.222753 -0.16405,0.138597 -0.22998,0.20257 -0.31373,0.304433 -0.0393,0.04781 -0.19812,0.204324 -0.35291,0.347821 -0.1548,0.143496 -0.35039,0.330613 -0.43464,0.415815 -0.14082,0.142398 -0.15189,0.163143 -0.13704,0.256763 0.017,0.107184 0.0245,0.118124 0.35349,0.514099 0.24153,0.2907215 0.28209,0.3216225 0.49738,0.3790074 0.1626,0.04334 0.21217,0.04894 0.88904,0.1004221 0.20658,0.015711 0.45516,0.04178 0.55241,0.05793 0.22631,0.03758 0.49858,0.03484 0.58111,-0.0059 z m -0.11994,-0.222432 c -0.23423,-0.2316937 -0.23703,-0.2322587 -1.07324,-0.2163197 -0.40747,0.0078 -0.77142,0.02058 -0.80878,0.02848 -0.0671,0.014179 -0.0666,0.015759 0.0412,0.1286847 0.11855,0.1242391 0.11501,0.1353061 -0.0237,0.07412 -0.16556,-0.07302 -0.60134,-0.5436457 -0.71211,-0.7690447 -0.10009,-0.203673 -0.0989,-0.206202 0.24558,-0.526089 0.17529,-0.162776 0.43801,-0.407503 0.58382,-0.543838 0.14581,-0.136334 0.31154,-0.283032 0.36827,-0.325995 0.0567,-0.04296 0.15415,-0.128628 0.21648,-0.190368 0.26369,-0.261226 0.40911,-0.335227 0.44912,-0.228542 0.009,0.02444 -0.0143,0.05024 -0.0613,0.06735 -0.0714,0.02599 -0.29106,0.221379 -0.65146,0.579413 -0.0849,0.08436 -0.18781,0.171156 -0.22865,0.192884 -0.0408,0.02173 -0.1399,0.109248 -0.22012,0.19449 -0.0802,0.08524 -0.19415,0.194121 -0.25316,0.241952 -0.21963,0.17802 -0.38001,0.341808 -0.38001,0.388101 0,0.06625 0.24736,0.349332 0.33707,0.38574 0.11425,0.04637 2.02437,0.04989 2.18284,0.004 0.0694,-0.02008 0.13173,-0.03081 0.13855,-0.02383 0.0172,0.0176 0.0274,0.5711338 0.0114,0.6157018 -0.0196,0.05457 -0.0373,0.04618 -0.16172,-0.07691 z m -5.01019,-0.2838897 c 0.0875,-0.01743 0.20745,-0.189831 0.20745,-0.298203 0,-0.111015 -0.067,-0.249509 -0.14007,-0.289526 -0.1816,-0.09945 -0.45483,0.06652 -0.45483,0.276291 0,0.1018 0.0747,0.225965 0.1711,0.284207 0.0784,0.04742 0.10086,0.05024 0.21635,0.02723 z m 1.84714,-0.275212 c 0.12507,-0.130909 0.12399,-0.285034 -0.003,-0.406285 -0.0816,-0.07797 -0.10576,-0.08575 -0.22899,-0.07363 -0.18685,0.01837 -0.25582,0.09142 -0.25582,0.270928 0,0.116922 0.013,0.148471 0.0901,0.219029 0.12933,0.118249 0.27854,0.11448 0.39751,-0.01004 z m -0.98927,-0.356266 c 0.093,-0.04856 0.13029,-0.08984 0.15975,-0.176911 0.0482,-0.142572 0.034,-0.188658 -0.0937,-0.303411 -0.088,-0.07905 -0.1179,-0.08981 -0.2133,-0.07672 -0.12807,0.01758 -0.19773,0.07326 -0.26019,0.207949 -0.0412,0.08888 -0.0404,0.104662 0.0119,0.225693 0.0474,0.109562 0.0735,0.1346 0.16521,0.15843 0.0914,0.02374 0.12853,0.01809 0.23029,-0.03503 z m -0.97684,-0.553263 c 0.0464,-0.02475 0.0937,-0.06055 0.10515,-0.07954 0.0349,-0.05785 0.37118,-0.536152 0.46825,-0.665919 0.0894,-0.119557 0.0909,-0.126545 0.0779,-0.36625 -0.007,-0.134402 -0.0263,-0.323658 -0.0422,-0.420569 -0.0159,-0.09691 -0.033,-0.260994 -0.038,-0.36463 -0.005,-0.103636 -0.0171,-0.207997 -0.027,-0.231913 -0.01,-0.02392 -0.0244,-0.108709 -0.0323,-0.188429 -0.015,-0.151367 -0.0815,-0.502 -0.13064,-0.68849 -0.0252,-0.09575 -0.0395,-0.109119 -0.11957,-0.112142 -0.05,-0.0019 -0.0999,-0.0021 -0.11089,-4.39e-4 -0.011,0.0016 -0.0647,0.0087 -0.11945,0.01562 -0.0547,0.0069 -0.11037,0.01951 -0.12367,0.02792 -0.0133,0.0084 -0.0551,0.02123 -0.093,0.02849 -0.11539,0.02214 -0.71575,0.257266 -0.79121,0.309869 -0.0389,0.02716 -0.13722,0.0836 -0.21836,0.125439 -0.0811,0.04184 -0.20226,0.11573 -0.26913,0.164208 -0.0669,0.04848 -0.16619,0.118417 -0.22072,0.155419 -0.0545,0.037 -0.22026,0.183201 -0.36827,0.324888 -0.32085,0.307131 -0.34324,0.373592 -0.17722,0.526137 0.0564,0.05182 0.11357,0.09422 0.12706,0.09422 0.0135,0 0.0527,0.03112 0.0872,0.06915 0.0344,0.03803 0.10255,0.09347 0.15135,0.123204 0.0488,0.02973 0.19131,0.129386 0.31668,0.221459 0.12538,0.09207 0.29837,0.209478 0.38442,0.260901 0.0861,0.05142 0.3171,0.210903 0.51343,0.354399 0.31704,0.231714 0.50881,0.357111 0.55178,0.360793 0.008,6.61e-4 0.0521,-0.01904 0.0985,-0.04379 z m -0.27294,-0.116441 c -0.0477,-0.02521 -0.16052,-0.100223 -0.25084,-0.166687 -0.0903,-0.06646 -0.24474,-0.179546 -0.34316,-0.251294 -0.0984,-0.07175 -0.22269,-0.169586 -0.27616,-0.217418 -0.0535,-0.04783 -0.13976,-0.113058 -0.19177,-0.144945 -0.24194,-0.148328 -0.77767,-0.545301 -0.8041,-0.595832 -0.0206,-0.03935 -0.0203,-0.07397 8.2e-4,-0.114401 0.0385,-0.07365 0.0861,-0.07435 0.10471,-0.0016 0.008,0.03103 0.13102,0.143573 0.27354,0.250095 0.14253,0.106522 0.27188,0.20958 0.28747,0.229018 0.0156,0.01944 0.0718,0.0583 0.12481,0.08636 0.0531,0.02806 0.11044,0.06239 0.12748,0.07627 0.0959,0.07813 0.43118,0.325651 0.62677,0.462675 0.12416,0.08699 0.23212,0.166429 0.23991,0.176539 0.008,0.01011 0.0618,0.04564 0.11994,0.07896 l 0.10577,0.06058 0.10604,-0.117285 c 0.23548,-0.26044 0.23905,-0.28011 0.13774,-0.759167 -0.0378,-0.178793 -0.0844,-0.442484 -0.10359,-0.58598 -0.0192,-0.143496 -0.0453,-0.274956 -0.0581,-0.292132 -0.0128,-0.01718 -0.0363,-0.12493 -0.0522,-0.239452 -0.0159,-0.114522 -0.0403,-0.23092 -0.0542,-0.258661 -0.0139,-0.02774 -0.0465,-0.125448 -0.0723,-0.217126 -0.0259,-0.09168 -0.0567,-0.166687 -0.0685,-0.166687 -0.0118,0 -0.0458,-0.01821 -0.0755,-0.04046 -0.0509,-0.03811 -0.0476,-0.0433 0.0583,-0.08941 0.0618,-0.02692 0.13789,-0.05386 0.16905,-0.05986 0.16905,-0.03254 0.39785,-0.06402 0.40626,-0.05591 0.005,0.0051 -0.007,0.04118 -0.0283,0.0801 -0.19789,0.36871 -0.20031,0.375602 -0.18453,0.525908 0.0367,0.349828 0.1042,0.764644 0.14216,0.874117 0.0226,0.06513 0.0555,0.215147 0.0732,0.333375 0.0294,0.196835 0.0759,0.287433 0.14767,0.287433 0.0118,0 0.0603,-0.0424 0.10776,-0.09421 l 0.0863,-0.09421 -1e-5,0.115957 c -10e-6,0.06378 -0.0223,0.150318 -0.0494,0.192315 -0.50446,0.779355 -0.59489,0.858934 -0.83292,0.732975 z m 2.7911,-0.239233 c 0.23566,-0.210964 0.88321,-0.861208 0.92818,-0.932034 0.0255,-0.0401 0.11787,-0.148801 0.20538,-0.241566 0.0875,-0.09276 0.15909,-0.178797 0.15909,-0.191183 0,-0.01239 0.0255,-0.04613 0.0567,-0.07499 0.0938,-0.08691 0.07,-0.167575 -0.0952,-0.321922 -0.64264,-0.600363 -1.63065,-1.016842 -2.45728,-1.035822 l -0.20655,-0.0047 -0.0252,0.115956 c -0.0261,0.120275 -0.0226,0.213584 0.0544,1.420465 0.0254,0.3986 0.0449,0.829088 0.0433,0.95664 -0.002,0.16741 0.0107,0.258466 0.0458,0.327381 l 0.0487,0.09547 0.56285,-0.0044 0.56286,-0.0044 z m -1.19659,-0.03006 c -0.0574,-0.05875 -0.0742,-0.207714 -0.10323,-0.916897 -0.009,-0.207272 -0.0275,-0.63776 -0.0421,-0.95664 -0.026,-0.564532 -0.0197,-0.70564 0.0317,-0.71458 0.0895,-0.01555 0.0959,-0.0049 0.0982,0.163788 0.004,0.301314 0.0671,1.351899 0.0965,1.608894 0.0155,0.135524 0.0283,0.345876 0.0284,0.467449 l 2.4e-4,0.221042 0.0885,0.01812 c 0.19054,0.039 0.29697,0.02081 0.40839,-0.0698 0.0595,-0.04836 0.12759,-0.116843 0.1514,-0.152193 0.0584,-0.0867 0.40982,-0.490718 0.59805,-0.687538 0.29039,-0.303629 0.61804,-0.752005 0.63803,-0.873126 0.0102,-0.06188 0.0298,-0.112503 0.0434,-0.112503 0.0137,0 0.0684,0.03914 0.12165,0.08697 0.0532,0.04783 0.10951,0.08697 0.12505,0.08697 0.0155,0 0.075,0.05458 0.13215,0.121288 0.0873,0.10196 0.0969,0.125308 0.0598,0.146514 -0.0242,0.01388 -0.0562,0.01756 -0.071,0.0082 -0.0148,-0.0094 -0.11066,0.0058 -0.21298,0.03368 -0.17626,0.04806 -0.19547,0.06219 -0.36593,0.269128 -0.099,0.120121 -0.26164,0.329285 -0.36153,0.464809 -0.0999,0.135524 -0.20291,0.272497 -0.22892,0.304385 -0.14363,0.17603 -0.21967,0.287787 -0.21967,0.322866 0,0.04523 0.13308,0.05333 0.19695,0.01198 0.0226,-0.01465 0.0507,-0.02055 0.0625,-0.01312 0.0456,0.02886 -0.0184,0.107866 -0.12919,0.15935 -0.0986,0.04584 -0.1896,0.05405 -0.60476,0.05459 -0.44015,5.82e-4 -0.49393,-0.0047 -0.54167,-0.0536 z"
       style="display:inline;fill:#020202;stroke-width:0.02865685;enable-background:new"
       inkscape:label="f-tire" />
  </g>
</svg>
