<svg width="299.8" height="108.8" style="enable-background:new" version="1.1" viewBox="0 0 299.7771 108.83997" xmlns="http://www.w3.org/2000/svg">
 <path id="fHub" d="m266.4 71.01c-16.33-11.79-32.28 1.322-32.43 16.65-0.06017 6.149 8.986 20.14 20.57 18.93 21.69-2.273 24.34-26.57 11.86-35.57z" style="fill:#ffffff"/>
 <path id="fRim" d="m276.1 86.59c-0.0144-13.77-11.73-22.64-21.8-22.43-11.36-0.4108-22.66 7.973-22.88 22.93-0.2064 11.3 9.52 21.72 21.97 21.75 12.48 0.0577 22.5-9.155 22.71-22.26zm-40.41 6.258c-3.585-11.02 1.876-22.06 14.19-25.28 14.37-2.292 22.81 9.128 23.14 17.72 0.5872 9.9-6.053 16.94-12.91 19.43-12.32 3.892-22.37-4.292-24.42-11.86zm25.19 10.76c0.2269-0.2472 0.2323-0.2975 0.07914-0.7417-1.729-3.444-3.175-6.058-5.059-9.29-0.506-0.7301-0.743-0.7143-2.422 0.1617-2.289 1.194-2.753 1.662-3.095 3.116-0.7169 2.316-1.564 4.492-2.073 6.968 4.049 2.116 8.827 1.384 12.57-0.2139zm-11.43 0.6188c-0.621-0.288-0.6324-0.3016-0.3501-0.4204 0.4133-0.1739 1.26-0.9468 1.451-1.324 0.2779-0.5499 1.564-6.285 1.438-6.413-0.1241-0.127-0.4951-0.1402-0.7116-0.02554-0.4277 0.2268-0.1496-0.3052 0.3322-0.6353 0.6553-0.4491 3.272-1.778 3.501-1.778 0.4122 0 0.6484 0.2914 1.378 1.7 0.4173 0.8056 1.36 2.521 2.096 3.812 1.753 3.078 1.868 3.326 1.772 3.846-0.1034 0.5641-0.4037 0.4536-0.4037-0.1486 0-0.3034-0.1015-0.5651-0.3309-0.853-0.3384-0.4248-0.7956-1.264-2.178-3.998-1.653-3.269-1.981-3.764-2.496-3.76-0.2871 0.001783-1.33 0.5326-1.554 0.7912-1.014 3.219-1.268 4.921-2.036 8.044-0.1488 0.3956-0.1412 1.022 0.01523 1.266 0.09112 0.1423 0.143 0.282 0.1152 0.3104-0.7102 0.03088-1.391-0.221-2.038-0.4138zm-3.707-1.432c1.384-3.458 3.355-7.371 4.24-10.67-1.476-1.308-3.125-2.172-4.675-2.219-2.2 0.4908-4.441 1.359-6.354 2.117-0.4115 0.1209-1.656 0.9204-1.803 1.158-0.173 0.2806 0.1152 1.038 0.9959 2.616 1.617 2.898 3.667 4.627 6.594 6.709 0.6051 0.4303 0.8752 0.2613 1.002 0.2871zm-0.8259-1.008c-0.03257-0.2294 0.3111-0.1302 0.4482-0.1876 1.255-3.354 2.56-5.804 3.476-9.045-0.03708-0.3245-0.5972-0.6646-1.408-0.8548-0.9163-0.2978-5.043 1.805-6.736 2.634-1.651 0.8092-2.082 1.13-2.1 1.564-0.0041 0.09854-0.1411-0.03584-0.3044-0.2985-0.354-0.5694-1.098-2.128-1.043-2.184 0.02144-0.02183 0.436 0.0442 0.9213 0.1468 0.4854 0.1026 1.027 0.1865 1.203 0.1865 2.173-0.7935 4.199-1.565 6.08-2.796-0.0169-0.1258-0.2002-0.3139-0.4073-0.418-0.5729-0.288-0.4584-0.4016 0.3474-0.3448 1.547 0.3129 2.739 0.8897 3.83 1.904 0.2935 0.5886 0.2888 0.6416-0.1412 1.608-1.01 2.691-2.274 5.485-3.253 7.909-0.1386 0.3619-0.4087 0.7362-0.5313 0.7362-0.3229-0.01929-0.347-0.5086-0.382-0.56zm19.87-0.1944c2.938-2.579 5.771-6.162 6.48-10.08 0-0.127-0.1182-0.2934-0.2626-0.3698-4.099-0.6745-7.485-1.617-11.16-1.638-0.4044 0.214-0.4441 0.3086-0.7297 1.737-0.3302 1.651-0.3863 3.005-0.1448 3.492 0.7007 1.414 4.526 7.282 4.715 7.234 0.3331 0.05362 0.7583-0.2221 1.105-0.3748zm-0.9095 0.0789c-0.04221-0.04321-0.0173-0.1518 0.05519-0.2413 0.08651-0.1066 0.1111-0.506 0.07128-1.159-0.05574-0.9141-0.09784-1.051-0.5122-1.662-0.6441-0.95-3.006-4.044-3.28-4.296-0.3144-0.2895-0.5539-0.1616-0.6861 0.3663l-0.1108 0.4426-0.2206-0.4629c-0.3068-1.13 0.1248-2.415 0.3137-3.57 0.3378-1.392 0.4491-1.477 1.694-1.297 3.093 0.4385 6.389 0.9236 9.035 1.661 0.151 0.1545 0.03254 0.5521-0.1334 0.4472-0.1517-0.09594-1.645-0.3863-3.096-0.6018-1.936-0.23-3.885-0.8007-5.792-1.012-0.6395-7.9e-4 -0.8362 0.2257-1.102 1.269-0.2291 0.9-0.2262 0.9142 0.3108 1.549 1.589 2.144 2.986 3.78 4.532 5.827 0.421 0.6262 0.7315 0.8356 1.074 0.7244 0.4814-0.1564 0.1622 0.3021-0.832 1.195-0.2658 0.4742-1.222 0.9658-1.321 0.8204zm-8.47-11.55c-0.7781-0.9118-2.105-0.6887-2.446 0.5284-0.07971 0.597 0.2563 1.223 0.774 1.474 1.336 0.5141 2.379-0.8326 1.672-2.002zm-3.654-1.437c-0.4752-1.265-1.679-1.01-1.995-0.7178-0.8647 0.4936-0.7485 1.733-0.09374 2.174 1.056 0.7527 2.443-0.2308 2.088-1.456zm-14.03 1.191c1.906-0.453 4.005-1.215 5.66-1.688 3.109-0.8869 3.968-1.337 3.968-2.08 0-0.3714-0.4695-2.42-0.7122-3.108-0.9996-2.87-5.437-4.32-8.257-5.658-2.31 2.881-2.825 8.183-2.235 12.46 0.617 0.2543 1.069 0.1128 1.576 0.0739zm-0.8073-0.3812c-0.1016-0.03996-0.1846-0.1665-0.1846-0.2814 0-0.1715 0.1453-0.2227 0.8122-0.2862 2.921-0.7967 6.987-1.387 8.873-3.11-0.04073-0.5797-0.1938-1.051-0.354-1.606-2.088-1.017-4.209-2.268-6.073-3.217-1.377-0.6967-1.804-0.86-2.246-0.86-0.3004 0-0.5462-0.04993-0.5462-0.111 0-0.237 1.043-2.397 1.158-2.397 0.2903 0.3789 0.4269 0.9446 0.597 1.373 0.3854 0.8639 0.5441 0.9712 3.885 2.627 2.517 1.248 2.645 1.269 2.645 0.4443 0-0.4143 0.00412-0.418 0.2334-0.2057 0.1284 0.1189 0.2334 0.2669 0.2334 0.3288 0.5603 1.525 1.402 3.914 0.8138 4.452-2.829 1.355-5.964 1.895-8.515 2.844-0.4405 0.1028-0.9622 0.1364-1.332 0.0053zm21.52-2.201c-0.4753-0.4993-1.691-0.2356-1.962 0.4471-0.4865 0.75 0.07517 1.984 1.236 1.969 1.421-0.1727 1.63-1.841 0.726-2.416zm13.16 0.9322c0.3718-0.1834 0.4172-0.4919 0.3445-2.344-0.183-3.298-1.094-6.462-2.706-9.093-0.372-0.6114-0.8488-1.064-1.127-1.07-2.674 2.145-5.312 4.734-7.783 7.143-0.5801 0.5866-0.6257 0.672-0.5645 1.058 0.393 1.259 2.3 3.449 3.505 3.679 3.118 0.247 5.955 0.6744 8.33 0.6277zm-0.4941-0.9163c-0.9649-0.9544-0.9764-0.9568-4.421-0.8911-1.679 0.03213-3.178 0.08478-3.332 0.1173-0.2764 0.05841-0.2743 0.06492 0.1696 0.5301 0.4884 0.5118 0.4738 0.5574-0.09766 0.3053-0.682-0.3008-2.477-2.239-2.933-3.168-0.4123-0.839-0.4074-0.8494 1.012-2.167 1.542-1.502 3.343-3.046 4.814-4.367 1.086-1.076 1.685-1.381 1.85-0.9414 0.0379 0.1007-0.05903 0.207-0.2526 0.2774-2.379 2.127-4.975 4.127-7.141 6.578 0 0.2729 1.019 1.439 1.389 1.589 0.4706 0.191 8.339 0.2055 8.992 0.01648 0.2858-0.08272 0.5427-0.1269 0.5708-0.09816 0.07084 0.0725 0.1131 2.353 0.04695 2.536-0.5656 0.02632-0.08131 0.02114-0.6671-0.3172zm-19.68-2.358c-0.03998-1.609-1.723-1.781-2.435-0.8909-0.6562 1.294 0.2845 1.978 0.5876 2.038 1.017 0.3415 1.748-0.325 1.848-1.147zm6.872-1.592c-0.4219-0.4696-1.441-0.8014-2.082-0.004205-0.8983 1.189 0.273 2.188 0.8575 2.204 1.36 0.0233 1.88-1.229 1.225-2.2zm-3.496-0.425c0.2824-1.322-0.736-1.852-1.413-1.8-1.535 0.248-1.53 2.042-0.4673 2.572 0.5298 0.1753 1.264 0.2949 1.88-0.7713zm-2.461-4.746c0.3684-0.4925 0.3746-0.5213 0.3209-1.509-0.3588-2.806-0.7452-6.164-1.606-8.264-0.206-0.007828-0.4116-0.008652-0.4568-0.001813-3.798 0.7061-6.596 2.183-9.078 4.744-1.322 1.265-1.414 1.539-0.73 2.167 2.998 2.047 6.498 4.811 8.783 6.114 1.287-0.6076 2.085-2.119 2.767-3.251zm-3.486 2.591c-2.546-1.812-5.424-3.77-7.687-5.668-0.08477-0.1621-0.08374-0.3047 0.00335-0.4713 0.1586-0.3034 0.3547-0.3063 0.4313-0.006591 2.83 2.325 5.012 4.056 7.85 5.851 1.314-1.397 1.231-2.533 1.004-3.61-0.505-2.424-0.8243-4.445-1.402-6.564-0.00758-0.5523-0.3494-0.5835-0.5933-0.8533-0.2098-0.157-0.1959-0.1784 0.2403-0.3683 0.7418-0.3422 1.583-0.3876 2.37-0.4769 0.02183 0.02101-0.03048 0.1696-0.1167 0.33-0.8152 1.519-0.8252 1.547-0.7601 2.166 0.1186 1.676 0.5748 3.401 0.887 4.974 0.1211 0.8108 0.3128 1.184 0.6083 1.184 0.3289-0.2238 0.5179-0.4696 0.7994-0.7762 0.06502 0.4486-0.09237 0.8727-0.2038 1.27-0.9767 1.209-2.099 3.822-3.432 3.019zm17.06-6.916c0.3866-0.358 0.2883-0.6903-0.3923-1.326-3.202-3.135-7.105-4.198-10.97-4.286-0.2727 4.023 0.2671 11.44 0.6881 12.01 1.546 0.2142 3.092 0.2486 4.638-0.03626 2.205-2.196 4.379-4.295 6.037-6.363zm-10.49 5.807c-0.2696-0.4961-0.1841-0.7562-0.4252-3.777-0.05215-2.299-0.3741-4.81-0.043-6.885 0.3687-0.06406 0.3951-0.02019 0.4046 0.6747 0.0471 2.855 0.3941 5.714 0.5144 8.554l9.7e-4 0.9106c1.243 0.2629 2.008 0.08682 2.67-0.8398 0.2405-0.3571 1.688-2.021 2.464-2.832 1.196-1.251 2.546-3.098 2.628-3.597 0.04209-0.2549 0.1226-0.4634 0.1789-0.4634 0.8857 0.3493 1.567 1.357 1.807 1.82-0.09976 0.05718-0.2314 0.07234-0.2924 0.03378-0.06105-0.03872-0.4559 0.02389-0.8774 0.1387-1.884 1.581-3.557 3.567-4.844 5.608 0 0.1863 0.5482 0.2197 0.8113 0.04935 0.09323-0.06035 0.2091-0.08465 0.2574-0.05405 0.188 0.1189-0.07582 0.4443-0.5322 0.6564-0.4063 0.1888-0.781 0.2227-2.491 0.2249-0.7346 0.1095-1.845 0.08774-2.232-0.2219z" style="fill:#000000"/>
 <path id="trim" d="m102.4 7.01c28.14 0.4329 59.29-0.2767 82.99 4.182 14.98 4.807 28.93 14.64 38.16 25.88-5.722 1.837-85.57-2.614-128.3-3.921 1.449-8.819 4.798-18.82 7.189-26.14zm8.43 32.22c2.955 0.5846 5.374 0.5285 7.515 1.928-0.2577 0.8723-3.282 1.053-7.711 0.8822-2.791-0.3912-6.42-0.4469-8.365-1.176 2.475-1.279 5.497-1.281 8.561-1.634zm180.1 5.73c3.538 5.649 4.906 10.94 6.025 16.18-0.3397 0.97-5.85 0.6831-6.326-0.2069-3.581-4.043-5.772-12.35-5.772-12.35-7.798-2.828-12.32-3.493-15.22-6.951 9.354-1.677 17.22 1.987 21.29 3.327zm-121.7-3.835c2.585 0.4652 5.957 0.3186 7.45 1.634l-7.319 1.634-8.626-1.372c2.452-1.296 5.522-1.512 8.496-1.895zm-66.46 18.34 119.3 4.332-0.8662 7.509-123.3-6.065zm2.766 24.08c18.43-0.02678 37.28 0.9003 56.19 0.8197 20.22-0.08626 41.17 0.1104 60.98 2.185-0.02925 0.355-0.09275 0.4617-0.5534 0.8504l0.5789-0.06933c-24.49 0.3359-43.31-1.007-72.58-1.505-16.81-0.5592-33.94-0.2144-50.42-1.678 0.05273-0.3637 0.0964-0.5097 0.12-0.5629 1.891-0.02513 3.787-0.03831 5.688-0.04119zm-5.688 0.04119h-0.01812c0.01812 0.001104 0.01812 0 0.01812-0.002183-5.5e-4 6.96e-4 -7.3e-4 0.001137-0.00109 0.002183zm9.09e-4 -0.002183c0.02348-0.05079 0.02554-0.0103 0 0zm-72.27-78.25c1.548-3.446 5.653-3.597 8.999-4.525 36.16 0.4575 72-0.04317 108.5 1.372 5.533 0.8026 10.71 1.781 15.2 3.455-4.858 0.02852-125.4-1.603-132.7-0.3023z" style="fill:#ffffff"/>
 <path id="red" d="m18.57 12.66c-0.3734-1.865-0.09895-2.939-4.409 3.899-3.949 6.196-7.549 13.08-8.879 16.99-1.077 3.163-1.404 14.76-0.4165 14.76 0.3192 0 3.148 0.8048 3.741-0.5808 0.5221-1.22-0.7507-4.337-0.4276-7.493 0.6642-6.361 2.656-13.18 6.606-18.14 2.358-3.161 4.732-5.82 3.785-9.435z" style="fill:#8a112b"/>
 <path id="body" d="m48.96 0.1097c35.62 0.2623 68.7-1.073 101.4 1.809 2.722 0.5133 5.713 1.268 8.021 1.975 3.891 1.212 17.88 3.092 23.21 3.121 1.303 0.007086 2.811-0.4376 3.367-0.9934 1.366-1.366 3.13-0.6849 4.895 1.89 0.8002 1.168 3.068 3.001 5.04 4.074 11.5 6.557 21.88 14.39 31.17 21.81 15.1 0.8319 31.31 2.013 45.55 5.011 6.29 1.486 16.14 2.393 20.43 4.985 2.971 3.144 5.236 10.44 5.939 14.28 1.429 5.642 1.861 11.86 1.787 16.06-0.1528 8.101-0.2804 8.9-1.777 11.16-2.648 3.453-5.677 4.389-7.343 7.4-0.1917 0.8444-0.5772 1.673-1.237 2.052-3.527 0.6823-7.23 0.8234-10.42 0.8131-0.07455-14.85-5.714-28.78-19.4-31.85-13.38-3.427-27.4 5.972-29.09 19.5-0.1528 2.652-1.828 5.657-2.708 6.71-0.3866 0.1532-2.821 0.2038-7.991 0.1151-39.77-1.275-77.87-1.843-115.1-1.531-2.605 0.04993-5.306-0.04638-7.601 1.001-1.587 0.2708-3.892 0.526-5.179-0.2096-0.7211-1.081-0.8178-2.558-0.9004-3.506-2.482-20.63-19.45-28.24-34.49-21.17-8.925 4.199-12.43 12.4-13.15 20.84-11.6-1.298-24.58-3.014-37.29-5.52-5.808-4.876-6.008-12.56-6.079-17.94-0.08366-2.103 0.215-4.524 1.162-6.063 1.731-3.074 6.566-2.109 5.823-2.727-0.7878-0.944-0.776-2.194-2.195-5.042l3.786-0.3268-0.3434-3.601c-1.006-7.306-0.4103-8.319 1.353-12.84 1.872-4.429 6.86-14.26 7.897-15.97 0.6885-1.249 1.229-2.131 0.07638-2.573-0.2741-0.105-0.3083-0.3065-0.5541-0.4521 0.2177-0.751 0.5972-1.995 0.6796-1.893-2.989 0.3827-4.311-1.407-2.774-3.754 0.824-1.258 1.695-1.518 6.236-1.868 2.06-0.2714 4.626-0.2821 6.205-1.232 0.3106-0.2474 0.5792-0.5292 0.873-0.7199 6.039-3.858 13.98-2.78 20.78-2.833zm-11.57 0.8232c-3.175 0.2678-7.069 1.11-9.273 3.752 46.18-1.073 88.51-0.07029 131.3 0.7965-0.4727-0.3022-2.64-0.9122-6.269-1.709-17.2-2.639-34.75-2.033-50.85-2.397-22.54-0.3611-45.59-0.4423-64.94-0.4425zm65.55 6.737c-2.691 4.978-5.252 17.33-7.048 24.37 0.3034 0.2829 7.77 0.7075 16.59 0.9436 27.65 0.8016 52.75 1.71 80.69 2.697 11.06 0.3898 12.01 0.3382 11.64-0.6391-0.3973-1.035-1.158-1.348-1.557-0.7246-29.55-0.5852-73.57-1.798-105-3.103 1.684-7.467 4.069-16.02 6.282-22.58 22.55 0.06502 46.41 1.071 65.95 1.518 13.88 1.442 19.75 2.651 31.9 10.89 1.206 0.406 1.348 2.006 2.492 2.026 1.245 0 1.197-0.4957-0.2442-1.657-8.134-5.665-16.99-10.35-23.77-10.9-9.266-1.878-51.29-4.082-77.89-2.844zm100.6 17.15c-0.4477 1.253-0.1964 3.681-0.2401 5.304h3.208c1.764 0 3.208 0.2595 3.208 0.577 0 0.8616 4.488 0.7027 4.51-0.1598 0-0.2113 0.1618-0.2053 0.4041-0.06014 1.459 1.141 2.797 2.676 3.419 4.391-0.08248 1.044-2.394 1.105-4.01 1.207-3.465 0.2063-3.303 0.2414 1.199 0.2603 2.865 0.01199 5.515 0.2112 5.89 0.4427 1.757 0.2746 1.21-0.7667 0.723-1.431-0.5036-0.1668-2.765-2.106-5.025-4.31-2.602-2.537-4.46-3.873-5.063-3.642-0.7913 0.3037-0.7473 0.5159 0.2604 1.256 1.072 1.073-0.1269 0.7399-0.8975 0.5564-1.682-0.2409-2.803 0.01867-4.458-1.178-0.548-0.4321-0.8026-0.3875-0.8026 0.141 0 1.694-1.629 0.106-2.001-1.95-0.0597-0.4674-0.2136-0.9802-0.3247-1.405zm7.477 8.364c-0.06556 0.3369 0.201 0.7381 0.7114 0.7622 0.564 0.0572 0.8044-0.1463 0.8605-0.6324-0.1855-0.9567-1.298-0.8863-1.572-0.1298zm-107.6 7.621c1.921 1.046 3.516 0.4361 7.433 0.5874 5.674 0.2192 7.122 0.09924 7.122-0.5883-3.582-0.7081-12.96-1.931-14.56 9e-4zm167 0.8703c1.785 2.084 4.58 3.023 6.79 3.501 5.622 1.176 8.89 2.612 8.89 3.905 1.484 5.12 2.311 9.798 6.099 11.9 1.225 0.2877 3.659 0.8549 4.347-0.1006 0.4445-2.717-4.757-14.92-5.963-15.69-1.387-0.6641-8.673-3.002-13.93-3.426-2.169-0.2365-4.398-0.09274-6.233-0.0894zm-100.4 1.771c9.518-0.341 6.637-1.472-0.05091-1.637-1.996 0.07592-6.091-0.1636-6.947 0.5802-0.8563 0.7438 3.092 1.004 6.998 1.057zm-68.05 19.28c0.385 0.938 1.321 1.072 2.106 1.194 43.44 2.717 71.18 2.919 112 5.247 3.787 0.09033 3.997-0.1774 3.997-3.629-12.48-0.3485-22.81-0.2009-36.89-0.4502-27.03-1.104-54.54-2.132-81.16-2.362zm-1.851 21.05c26.47 2.019 53.28 1.843 80.45 2.505 44.27 1.098 42.02 1.077 42.02 0.3891-38.8-1.972-77.59-2.342-105.4-3.023-6.223 0.1943-11.01-0.6198-17.09 0.129z" style="fill:#000000"/>
 <path id="rHub" d="m80.39 70c-17.48-13.41-34.69 3.854-32.94 17.42 1.052 8.176 7.802 18.49 19.45 18.41 20.47-0.1467 25.72-26.45 13.5-35.83z" style="fill:#ffffff"/>
 <path id="rRim" d="m89.42 85.91c0.1064-12.77-10.61-22.39-21.8-22.43-11.15-0.03584-22.98 7.988-22.88 22.93 0.08268 11.74 10.37 21.65 21.97 21.75 12.18 0.09837 22.61-9.382 22.71-22.26zm-41.6 0.2324c0.2336-12.88 9.925-19.14 18.84-19.52 11.99-0.612 18.82 10.07 19.47 16.53 1.524 6.842-2.912 15.91-8.833 18.93-12.94 8.397-29.58-1.771-29.48-15.94zm20.2 18.18c2.283-0.3951 4.366-0.3845 6.179-1.404 0.2269-0.2472 0.2323-0.2975 0.07913-0.7417-1.543-3.285-3.574-6.656-5.059-9.29-0.506-0.7301-0.7431-0.7143-2.422 0.1617-2.289 1.194-2.753 1.662-3.095 3.116-0.7169 2.316-1.564 4.492-2.073 6.968 1.981 0.9574 4.386 1.281 6.39 1.19zm-5.251-0.7851c-0.621-0.288-0.6324-0.3016-0.3501-0.4204 0.4133-0.1739 1.26-0.9468 1.451-1.324 0.2779-0.5499 1.564-6.285 1.438-6.413-0.1241-0.127-0.4951-0.1402-0.7116-0.02554-0.4277 0.2268-0.1496-0.3052 0.3322-0.6353 0.6553-0.4491 3.272-1.778 3.501-1.778 0.4794-0.2407 2.318 3.481 3.474 5.512 1.753 3.078 1.868 3.326 1.772 3.846-0.1034 0.5641-0.4037 0.4536-0.4037-0.1486 0-0.3034-0.1015-0.5651-0.3309-0.853-0.3384-0.4248-0.7956-1.264-2.178-3.998-1.653-3.269-1.981-3.764-2.496-3.76-0.2871 0.001742-1.33 0.5326-1.554 0.7912-0.1871 0.2156-0.7898 2.555-1.611 6.253-0.1969 0.8867-0.3883 1.693-0.4254 1.791-0.1488 0.3956-0.1412 1.022 0.01524 1.266 0.09112 0.1423 0.1429 0.282 0.1152 0.3104-0.1239 0.1267-1.455-0.1435-2.038-0.4136zm-3.707-1.432c1.479-3.842 3.229-6.946 4.239-10.67-0.4613-0.7361-1.947-1.374-3.333-1.997-0.7089-0.3342-0.7959-0.3485-1.342-0.2215-2.829 0.7878-5.955 1.808-8.157 3.275-0.173 0.2806 0.1152 1.038 0.9959 2.616 1.617 2.898 3.526 4.841 6.594 6.709 0.3216 0.4374 0.8751 0.4488 1.002 0.2871zm-0.7222-0.6498c-0.1722-0.1509-0.1984-0.2415-0.1037-0.3583 0.0697-0.08597 0.1991-0.1563 0.2875-0.1563s0.1607-0.01401 0.1607-0.03131c1.255-3.354 2.869-6.71 3.476-9.045-0.03707-0.3245-0.5972-0.6646-1.408-0.8548-0.6732-0.4635-5.043 1.805-6.736 2.634-1.651 0.8092-2.082 1.13-2.1 1.564-0.00412 0.09854-0.1411-0.03584-0.3045-0.2985-0.3539-0.5694-1.098-2.128-1.043-2.184 0.02142-0.02183 0.436 0.0442 0.9213 0.1468 0.4854 0.1026 1.027 0.1865 1.203 0.1865 1.222-0.3737 5.746-2.139 6.08-2.796-0.01689-0.1258-0.2002-0.3139-0.4073-0.418-0.5729-0.288-0.4584-0.4016 0.3474-0.3448 1.547 0.3129 2.739 0.8897 3.83 1.904 0.2935 0.5886 0.2888 0.6416-0.1412 1.608-1.266 2.897-2.341 6.154-3.784 8.645-0.02678 0-0.1524-0.09087-0.2792-0.202zm19.07-0.2444c0.1905-0.02884 0.5056-0.1675 0.7002-0.3083 2.938-2.579 5.772-6.162 6.48-10.08 0-0.127-0.1181-0.2934-0.2626-0.3698l-9.347-1.57c-1.328-0.218-1.519-0.2252-1.816-0.06801-0.4044 0.214-0.4441 0.3086-0.7297 1.737-0.3302 1.651-0.3863 3.005-0.1448 3.492 0.7007 1.414 4.526 7.282 4.715 7.234 0.03213-0.00824 0.2142-0.03831 0.4048-0.06698zm-0.2093-0.2294c-0.04222-0.04321-0.0173-0.1518 0.0552-0.2413 0.08651-0.1066 0.1111-0.506 0.07126-1.159-0.05574-0.9141-0.09784-1.051-0.5122-1.662-0.6441-0.95-3.006-4.044-3.28-4.296-0.3144-0.2895-0.5539-0.1616-0.6861 0.3663l-0.1108 0.4426-0.2206-0.4629c-0.3511-0.5331 0.1247-2.415 0.3137-3.57 0.3378-1.392 0.4491-1.477 1.694-1.297l9.035 1.661c0.151 0.1545 0.03254 0.5521-0.1333 0.4472l-8.888-1.614c-0.6395-7.91e-4 -0.8362 0.2257-1.102 1.269-0.2291 0.9-0.2262 0.9142 0.3108 1.549l4.532 5.827c0.421 0.6262 0.7315 0.8356 1.074 0.7244 0.4814-0.1564 0.1621 0.3021-0.832 1.195-0.9617 0.8635-1.16 0.9867-1.322 0.8214zm-8.579-11.63c-0.7078-0.8181-2.066-0.6184-2.376 0.544-0.1892 0.9251 0.4751 1.434 0.9693 1.606 1.555 0.1704 2.059-1.208 1.407-2.15zm-3.513-1.367c-0.4752-1.273-1.734-0.9398-2.018-0.6866-1.06 0.7983-0.4829 1.936 0.06251 2.244 0.9546 0.6355 2.334-0.2934 1.956-1.558zm-8.405-0.4815c3.109-0.8869 3.968-1.337 3.968-2.08 0-0.3714-0.4695-2.42-0.7121-3.108-0.2987-0.8464-0.6205-1.232-1.555-1.864-2.378-1.417-4.218-3.267-6.702-3.794-0.2012 0.04119-0.3658 0.1445-0.3658 0.2295-1.909 2.813-2.477 8.633-1.869 12.23 0.4436 0.6734 5.022-0.9737 7.236-1.615zm-6.467 1.307c-0.1015-0.03996-0.1846-0.1665-0.1846-0.2814 0-0.1715 0.1453-0.2227 0.8122-0.2862 0.4467-0.04247 0.9325-0.1272 1.079-0.1882 0.2822-0.1172 0.5434-0.1946 3.243-0.9617 4.321-1.228 4.551-1.327 4.551-1.96-0.04073-0.5797-0.08326-1.029-0.354-1.606-2.869-1.262-5.625-3.239-8.318-4.077-0.3004 0-0.5462-0.04993-0.5462-0.111 0-0.237 1.043-2.397 1.158-2.397 0.06669 0 0.1564 0.1478 0.1993 0.3284 0.04292 0.1806 0.2219 0.6508 0.3977 1.045 0.3854 0.8639 0.5441 0.9712 3.885 2.627 2.517 1.248 2.645 1.269 2.645 0.4443 0-0.4143 0.00412-0.418 0.2334-0.2057 0.6697 1.089 0.9891 2.447 1.246 3.676 0.06603 0.7372 0.04832 0.8358-0.1984 1.105-2.014 1.036-5.642 1.881-8.107 2.678-0.1284 0.05895-0.3122 0.1338-0.4084 0.1662-0.2555 0.08614-1.118 0.08964-1.332 0.005355zm21.33-2.318c-1.221-0.5124-1.835 0.577-1.891 0.8689-0.215 0.7815 0.3849 1.611 1.228 1.688 1.738-0.1255 1.788-2.042 0.6635-2.557zm13.35 1.049c0.3719-0.1834 0.4172-0.4919 0.3445-2.344-0.1831-3.298-1.094-6.462-2.706-9.093-0.372-0.6114-0.8488-1.064-1.127-1.07-1.642 0.9479-5.312 4.734-7.783 7.143-0.5801 0.5866-0.6257 0.672-0.5645 1.058 0.7993 1.634 2.605 3.749 3.505 3.679 3.369 0.4817 5.132 0.9559 8.332 0.628zm-0.4941-0.9163c-0.9649-0.9544-0.9764-0.9568-4.421-0.8911-1.679 0.03213-3.178 0.08478-3.332 0.1173-0.2764 0.05841-0.2743 0.06492 0.1696 0.5301 0.4884 0.5118 0.4738 0.5574-0.09767 0.3053-0.682-0.3008-2.477-2.239-2.933-3.168-0.4123-0.839-0.4074-0.8494 1.012-2.167 1.542-1.502 3.343-3.046 4.814-4.367 1.086-1.076 1.685-1.381 1.85-0.9414 0.0379 0.1007-0.05903 0.207-0.2526 0.2774-2.379 2.127-4.975 4.127-7.141 6.578 0 0.2729 1.019 1.439 1.389 1.589 0.4706 0.191 8.339 0.2055 8.992 0.01648 0.2858-0.08272 0.5427-0.1269 0.5707-0.09816 0.07086 0.0725 0.1131 2.353 0.04696 2.536-0.08094 0.2248-0.1536 0.1902-0.6662-0.3168zm-19.65-2.178c0.1016-0.4729-0.1119-1.434-1.108-1.576-0.8653-0.1519-1.624 0.5865-1.562 1.404 0.2623 1.72 2.366 1.603 2.67 0.1722zm6.704-1.953c-0.8166-0.7631-1.684-0.2372-1.86-0.04918-1.097 1.213 0.1386 2.195 0.3781 2.245 1.611 0.5142 2.377-1.329 1.482-2.196zm-5.04-2.011c-1.385 0.6289-1.087 2.072-0.1986 2.505 0.3765 0.1862 1.48 0.3397 1.921-0.9729 0.1148-1.387-1.186-1.716-1.722-1.532zm-2.708-0.2346c0.1436-0.2383 1.529-2.209 1.929-2.743 0.3684-0.4925 0.3745-0.5213 0.3209-1.509-0.2433-2.648-0.5957-5.465-1.113-7.802-0.1039-0.3944-0.1626-0.4495-0.4925-0.462-3.098 0.1101-11.25 3.776-10.27 6.909 3.154 1.976 5.943 4.549 8.783 6.114 0.3994 0.08909 0.5671-0.3208 0.8378-0.5075zm-1.557-0.152c-2.586-1.886-5.5-3.809-7.687-5.668-0.08478-0.1621-0.08375-0.3047 0.003345-0.4713 0.1586-0.3034 0.3547-0.3063 0.4313-0.006591 2.585 2.252 5.318 4.095 7.85 5.851l0.4368-0.4831c0.97-1.073 0.9847-1.154 0.5674-3.127-0.6806-2.632-1.109-4.521-1.684-7.25-0.04865 0-0.1887-0.07501-0.3112-0.1667 0.1247-0.706 1.797-0.754 2.611-0.8452 0.02183 0.02101-0.03048 0.1696-0.1167 0.33-0.8152 1.519-0.8252 1.547-0.7601 2.166 0.1185 1.676 0.5748 3.401 0.887 4.974 0.1211 0.8108 0.3128 1.184 0.6083 1.184 0.3289-0.2238 0.5179-0.4696 0.7994-0.7762 0.06502 0.4486-0.09237 0.8727-0.2038 1.27-0.9767 1.209-2.06 3.811-3.432 3.019zm17.06-6.916c0.3866-0.358 0.2883-0.6903-0.3923-1.326-2.647-2.473-6.717-4.189-10.12-4.267l-0.8509-0.01936-0.1037 0.4777c0.01471 4.786 0.1398 6.465 0.5913 11.14l0.2004 0.3933 4.638-0.03626c2.161-2.058 4.391-4.249 6.037-6.363zm-10.49 5.807c-0.2365-0.242-0.3056-0.8556-0.4252-3.777-0.05214-2.299-0.4053-6.467-0.043-6.885 0.3687-0.06406 0.3951-0.02019 0.4046 0.6747 0.02898 3.451 0.3795 7.248 0.5154 9.465 0.776 0.2706 1.78 0.7446 2.047-0.2129 2.003-2.383 4.171-4.764 5.716-7.056 0.0421-0.2549 0.1226-0.4634 0.1789-0.4634 0.9034 0.3584 1.835 1.619 1.807 1.82-0.09977 0.05718-0.2314 0.07234-0.2924 0.03378-0.06105-0.03872-0.4559 0.02389-0.8773 0.1387-1.748 1.706-3.336 3.699-4.844 5.608 0 0.1863 0.5482 0.2197 0.8113 0.04935 0.09322-0.06035 0.2091-0.08465 0.2575-0.05405-0.6166 1.11-1.79 0.9459-3.023 0.8813-1.813 0.002398-2.035-0.01936-2.231-0.2208z" style="fill:#000000"/>
</svg>
