<svg id="rDoor" viewBox="0 0 600 206.01548" xmlns="http://www.w3.org/2000/svg">
 <path d="m291.6 62.79c40.59-0.8928 83.4-1.292 114.8-2.412l0.6516 3.597c-5.09-0.02834-13.11-0.03153-20.87 0.31-30.47 0.7823-61.9 1.499-94.59 2.187zm104.6-48.54c-34.89-0.4221-72.13 0.7455-104.2 1.693l-0.4503-2.697c31.2-0.9865 69.1-1.308 103.9-1.107m-10.16 68.41c-10.93 0.4222-13.41 1.712-13.83-1.58 4.228-2.77 27.79-4.325 28.41-1.268-1.424 3.55-7.93 1.982-14.58 2.848zm-95.11 43.63c40.14-0.8797 78.54-1.956 111.3-2.276 5.182 0.3977-0.7939 2.861-6.041 4.019-39.94 1.842-71.96 2.547-105 3.24zm0.5931 46.51c38.2-0.4735 77.35-1.088 118.8-0.5461v-1e-5c-35.97 2.744-78.75 3.428-118.9 3.701zm115.9 3.151c3.991-47.83 7.942-109.2-11.99-164l-103 0.5914c-0.454 55.74-2.223 112.2-0.945 167z" style="fill:#000000;stroke-width:1.926"/>
</svg>
