<svg id="esv" version="1.1" viewBox="0 0 600 208.7" xmlns="http://www.w3.org/2000/svg" xmlns:xlink="http://www.w3.org/1999/xlink">
 <defs>
  <linearGradient id="linearGradientSlvr" x1="-1869" x2="-1869" y1="794.4" y2="828" gradientTransform="matrix(1.301,0,0,1.301,1365,-35.3)" gradientUnits="userSpaceOnUse">
   <stop style="stop-color:#696969" offset="0"/>
   <stop style="stop-color:#c7c7c9" offset=".17"/>
   <stop style="stop-color:#f9f9ff" offset=".36"/>
   <stop style="stop-color:#ccccce" offset=".73"/>
   <stop style="stop-color:#696969" offset="1"/>
  </linearGradient>
  <linearGradient id="linearGradient5990" x1="-1869" x2="-1869" y1="794.4" y2="828" gradientTransform="matrix(1.305,0,0,1.305,2563,-927)" gradientUnits="userSpaceOnUse" xlink:href="#linearGradientSlvr"/>
  <linearGradient id="linearGradient7643" x1="-1080" x2="-1080" y1="31.71" y2="108.7" gradientTransform="matrix(1.301,0,0,1.301,1365,-35.34)" gradientUnits="userSpaceOnUse" xlink:href="#linearGradientSlvr"/>
  <linearGradient id="linearGradientPurp" x1="96.87" x2="96.87" y1=".6183" y2="84.13" gradientTransform="scale(.7835 1.276)" gradientUnits="userSpaceOnUse">
   <stop style="stop-color:#1c072d" offset="0"/>
   <stop style="stop-color:#5700aa" offset=".29"/>
   <stop style="stop-color:#4b127b" offset=".64"/>
   <stop style="stop-color:#290a43" offset="1"/>
  </linearGradient>
  <linearGradient id="linearGradientBlk" x1="884.1" x2="884.1" y1="-861.1" y2="-669.4" gradientTransform="matrix(.5122 0 0 .5116 -456 447.2)" gradientUnits="userSpaceOnUse">
   <stop style="stop-color:#141414" offset="0"/>
   <stop style="stop-color:#0a0a0a" offset=".15"/>
   <stop style="stop-color:#6d6d6d" offset=".3"/>
   <stop style="stop-color:#000000" offset=".44"/>
   <stop style="stop-color:#141414" offset=".62"/>
   <stop style="stop-color:#262626" offset=".75"/>
   <stop style="stop-color:#040404" offset="1"/>
  </linearGradient>
  <linearGradient id="linearGradient5945" x1="96.87" x2="96.87" y1=".6183" y2="84.13" gradientTransform="scale(.7835 1.276)" gradientUnits="userSpaceOnUse" xlink:href="#linearGradientPurp"/>
  <linearGradient id="linearGradient5949" x1="884.1" x2="884.1" y1="-861.1" y2="-669.4" gradientTransform="matrix(.5122 0 0 .5116 -456 447.2)" gradientUnits="userSpaceOnUse" xlink:href="#linearGradientBlk"/>
 </defs>
 <g transform="matrix(.6996 0 0 .6996 162.2 47.71)">
  <path id="tp1T" d="m0 108.7v8.314h12.76v39.41h9.757v-39.41h12.82v-8.314z" style="fill:#290a43;stroke-width:1.02"/>
  <path id="ts1T" d="m2.249 115.3v-4.262h30.84v4.262h-12.61v38.76h-5.682v-38.76z" style="fill:url(#linearGradient5990);stroke-width:1.003"/>
  <path id="tp1R" d="m56.89 137c0.9621 0.1915 2.004 0.1161 2.942 0.0356 2.492 1.302 3.669 5.009 4.387 7.281 0.5445 1.75 1.034 3.583 1.617 5.854 0.5826 2.272 1.357 4.422 2.437 6.738h10.37l-1.269-2.811c-1.747-3.696-2.427-7.475-3.308-10.3-0.8809-2.828-1.592-4.561-2.468-6.14-0.593-1.118-1.428-2.079-2.362-2.964 4.028-2.61 6.588-6.983 6.637-11.37-0.2718-4.259-2.034-8.115-5.028-10.65-3.761-3.071-8.449-4.312-12.85-4.336-4.402-0.02387-8.815 0.6617-12.72 1.425l-1.607 0.3147v46.83h9.699c-0.006616-13.18 0.01599-27.91 0.01489-39.92 1.538-0.3032 3.379-0.4336 5.043-0.2849 1.832 0.2854 3.501 0.8616 5.194 1.988 1.451 1.262 1.94 2.755 2.209 4.512 0 1.968-0.9245 3.458-2.069 4.756-1.391 1.224-2.855 2.616-4.608 2.885-1.621 0.04997-3.151 0.7453-4.231 1.84-1.014 1.028-1.525 2.899-1.531 3.315 1.191 0.4832 2.044 0.8244 3.502 0.9983z" style="fill:#290a43;stroke-width:1.02"/>
  <path id="ts1R" d="m71.49 130c-1.302 1.776-2.979 3.176-5.031 4.202l-1.421 0.4734 1.184 0.4735c1.46 0.9865 2.565 2.19 3.315 3.611 0.7892 1.421 1.44 2.999 1.953 4.735 0.5524 1.697 1.065 3.512 1.539 5.445 0.513 1.894 1.223 3.847 2.131 5.86h-5.919c-0.7892-1.697-1.421-3.512-1.894-5.445-0.4341-1.934-0.9273-3.788-1.48-5.564s-1.263-3.354-2.131-4.735c-0.8286-1.381-2.012-2.368-3.551-2.959-0.1184 0.03953-0.2959 0.05929-0.5327 0.05929-0.8681 0.07892-1.795 0.09862-2.782 0.05909-0.9865-0.07892-2.032-0.2565-3.137-0.5328 0.4341-1.026 1.085-1.874 1.953-2.545 0.9076-0.6708 1.993-1.026 3.255-1.065 1.026-0.03939 2.052-0.2761 3.078-0.7102 2.095-0.931 3.779-2.5 4.735-4.38 1.032-2.354 1.173-4.603 0-6.629-1.155-2.164-3.064-3.66-5.149-4.439-2.299-0.7889-4.474-0.6884-6.748-0.5919-0.9076 0.03946-2.072 0.1973-3.492 0.4734v39h-5.623v-42.5c2.21-0.434 4.242-0.7694 6.096-1.006 1.855-0.2367 3.867-0.355 6.037-0.355 4.762 0.04807 8.364 1.184 11.36 3.788 3.185 2.415 4.239 5.973 4.262 9.273 0 2.091-0.6708 4.182-2.012 5.997z" style="fill:url(#linearGradient5990);stroke-width:1.003"/>
  <path id="tp1A" d="m114.2 141.7c-1.016-1.707-2.574-3.358-4.727-3.428l-6.102-0.2 4.749-14.02 11.22 32.4h10.39l-17.2-47.73h-8.391l-17.21 47.73h9.969l3.707-11.07h14.9s-0.7138-2.683-1.31-3.684z" style="fill:#290a43;stroke-width:1.02"/>
  <path id="ts1A" d="m111.1 111 15.51 43.03h-6.037l-12.02-34.68-0.4143-1.716-0.4143 1.716-6.629 19-0.6511 1.243 0.7104-0.1184h7.991q2.131 0 3.255 1.302 1.125 1.243 1.776 2.959h-14.92l-3.551 10.3h-5.623l15.51-43.03z" style="fill:url(#linearGradient5990);stroke-width:1.003"/>
  <path id="tp1N" d="m138.4 108.7v47.73h8.856v-31.18l19.53 31.18h8.207v-47.73h-9.037v29.95l-18.75-29.95z" style="fill:#290a43;stroke-width:1.02"/>
  <path id="ts1N" d="m146.1 119.7-0.8286-2.012 0.1185 2.012v34.39h-4.794v-43.03h5.623l20.9 33.38 0.7103 1.953-0.1184-2.072v-33.27h4.972v43.03h-5.031z" style="fill:url(#linearGradient5990);stroke-width:1.003"/>
  <path id="tpS" d="m189.4 111.7c-2.56 2.514-3.921 5.765-4.016 9.162 0.1688 4.846 2.526 8.532 5.886 11.07s6.826 3.889 10.04 5.848c2.426 1.432 3.736 3.119 4.296 5.709 0 1.584-0.4925 2.705-1.698 3.822-3.212 2.06-6.446 1.724-9.757 1.086-2.67-0.583-4.494-1.388-6.888-2.452l-3.023 7.559c2.79 1.429 5.983 2.504 8.674 3.074 2.184 0.3876 4.29 0.5669 6.38 0.6352 4.43-0.1063 8.715-1.283 11.85-4.052 2.739-2.605 4.372-6.032 4.402-9.55-0.1614-4.922-2.535-8.712-6.077-11.45-3.247-2.413-6.742-3.998-9.986-5.957-1.387-0.8394-2.491-1.729-3.341-2.645-1.144-1.54-1.279-2.965-0.7001-4.446 0.7762-1.64 2.686-2.533 4.696-2.756 2.791 0.08974 5.503 0.4884 8.09 1.239l1.724 0.5212 3.152-7.585-2.08-0.6534c-3.832-1.195-7.768-1.884-11.55-1.843-3.782 0.0412-7.42 1.243-10.08 3.664z" style="fill:#290a43;stroke-width:1.02"/>
  <path id="tsS" d="m197.3 115.5c-1.731 0.6703-2.735 1.968-3.492 3.433-0.8554 2.286-0.3085 4.812 1.065 6.392 0.9865 1.065 2.229 2.052 3.729 2.959 3.279 2.038 6.767 3.559 9.648 5.741 1.499 1.144 2.742 2.486 3.729 4.025 1.922 3.44 1.948 6.785 0.5327 9.944-1.615 3.369-3.87 5.144-7.103 6.215-1.736 0.6314-3.729 0.947-5.978 0.947-2.043-0.06263-4.047-0.249-5.919-0.5919-2.275-0.4515-4.43-1.136-6.392-2.072l1.539-3.847c1.776 0.7892 3.551 1.361 5.327 1.716 1.815 0.3551 3.413 0.5327 4.794 0.5327 2.802 0 4.972-0.6905 6.511-2.072 1.539-1.421 2.308-3.157 2.308-5.209-0.179-3.498-2.584-5.668-5.149-7.28-1.46-0.9076-3.058-1.776-4.794-2.604-3.366-1.702-6.507-3.874-8.464-6.807-1.867-3.745-2.039-6.267-0.6511-9.707 1.354-2.753 3.663-4.734 6.274-5.741 1.46-0.5524 3.078-0.8286 4.854-0.8286 3.746 0.00889 7.472 0.7672 10.71 1.776l-1.598 3.847c-1.697-0.5129-3.275-0.8483-4.735-1.006-2.282-0.2588-4.706-0.5781-6.748 0.2368z" style="fill:url(#linearGradient5990);stroke-width:1.003"/>
  <path id="tpP" d="m238.1 138c2.952 0.3534 6.309-0.1269 8.854-1.081 3.754-1.519 6.878-3.928 8.705-7.319 1.787-3.989 1.798-8.35 0.09159-12.03-2.001-3.994-5.495-6.711-9.319-8.069-2.209-0.8092-4.626-1.203-7.227-1.203l-0.0049 0.00458c-2.252 0-4.351 0.1021-6.307 0.3087-3.046 0.3036-5.219 0.7005-8.013 1.247v46.79l9.699 0.2032c-4e-4 -13.22 0.00107-27.96 0.00102-39.93 1.616-0.1032 3.273-0.2504 5.052-0.2659 1.779-0.01555 3.551 0.7663 5.154 2.025 1.609 1.263 2.327 3.066 2.437 4.845-0.2898 4.068-3.2 6.888-6.536 7.889-1.656 0.3352-3.154 0.5427-4.346 1.507-1.09 0.882-2.178 3.599-2.178 3.599s2.545 1.315 3.938 1.481z" style="fill:#290a43;stroke-width:1.02"/>
  <path id="tsP" d="m253.7 129c-1.693 3.157-4.472 5.271-7.517 6.452-1.657 0.6314-3.374 1.026-5.149 1.184-0.8681 0.07892-1.795 0.09862-2.782 0.05909-0.9865-0.03939-2.032-0.2169-3.137-0.5325 0.434-1.026 1.085-1.874 1.953-2.545 0.9076-0.7103 1.993-1.065 3.255-1.065 1.026 0 2.052-0.217 3.078-0.6511 2.116-0.9586 3.766-2.59 4.735-4.498 0.9621-2.308 0.9934-4.816 0-6.925-0.513-1.065-1.204-1.993-2.072-2.782-1.984-1.671-4.44-2.471-6.807-2.486-2.21 0-4.38 0.1184-6.511 0.3551v39.13l-5.623-0.1183v-42.5c2.21-0.434 4.242-0.73 6.096-0.8878 4.27-0.3494 8.633-0.614 12.49 0.7695 3.543 1.34 6.568 3.706 8.05 6.925 1.38 3.357 1.507 7.069-0.05919 10.12z" style="fill:url(#linearGradient5990);stroke-width:1.003"/>
  <path id="tp1O" d="m278.4 110.1c-4.246 1.739-8.513 6.375-10.9 12.5-2.391 6.127-2.604 13.64-0.2675 19.83s6.573 10.69 11.9 13.15c5.738 2.205 11.99 2.189 17.49-0.2341 5.497-2.423 9.614-7.282 11.74-12.6 2.206-6.556 2.264-13.39 0.3406-19.55-1.996-5.95-6.141-10.82-11.33-13.35-2.91-1.135-5.919-1.758-8.877-1.845-2.957-0.08653-5.85 0.359-10.1 2.098zm17.63 10.29c2.84 3.624 3.878 7.944 3.961 12.18-0.1244 4.317-1.055 8.562-3.389 11.61-2.334 3.043-5.428 4.713-8.782 4.824-3.577-0.09281-6.558-1.853-8.594-4.353-2.599-3.651-3.538-8.036-3.557-12.07 0.02316-5.929 2.398-12.89 7.549-15.3 3.98-1.861 9.971-0.5202 12.81 3.104z" style="fill:#290a43;stroke-width:1.02"/>
  <path id="ts1O" d="m269.6 123c2.327-5.111 6.269-9.19 11.13-11.13 5.109-1.858 10.97-1.721 15.57 0.4143 2.486 1.184 4.577 2.802 6.274 4.854 5.738 7.444 6.602 16.94 3.551 25.04-2.135 5.209-5.973 9.401-10.71 11.54-5.118 2.007-10.74 1.932-15.45 0-5.195-2.279-8.734-6.686-10.59-11.42-1.954-6.407-2.215-13.34 0.2368-19.3zm4.262 9.884c0.05379 4.785 1.21 9.461 3.906 13.08 2.638 3.143 6.23 5 10 5.031 4.188-0.1663 7.772-2.19 10.06-5.268 2.724-3.892 3.825-8.508 3.847-12.84-0.1127-4.803-1.269-9.622-4.084-13.2-2.596-3.035-6.133-4.823-9.825-4.854-4.015 0.1471-7.517 2.013-9.825 4.854-2.957 3.952-4.062 8.752-4.084 13.2z" style="fill:url(#linearGradient5990);stroke-width:1.003"/>
  <path id="tp2R" d="m335.4 137.4c0.5112 0.2232 1.51 1.943 1.972 2.477 1.815 3.154 2.722 6.753 3.441 9.883v0.03875c0.7031 2.689 1.502 4.722 2.59 7.054h10.37c-1.279-2.763-2.599-5.82-3.326-8.469-0.4406-1.736-1.055-3.963-1.576-5.579-1.018-3.111-2.294-6.053-4.506-8.163 1.608-1.05 3.07-2.269 4.2-3.808 1.609-2.178 2.437-4.779 2.437-7.562-0.272-4.259-2.033-8.115-5.027-10.65-3.761-3.071-8.45-4.313-12.85-4.338-4.399-0.02754-8.811 0.6574-12.72 1.421l-1.607 0.3164v46.83h9.698c0-13.2-0.07557-27.93 0.01541-39.91 2.601-0.4416 5.523-0.284 7.696 0.2454h0.0308c2.813 1.298 4.677 3.117 4.724 5.955 0.05008 3.058-1.564 5.382-3.879 6.634-1.268 1.175-4.646 0.9243-6.253 2.301-2.078 1.779-2.224 2.532-2.537 3.779 2.415 1.737 4.317 1.221 7.109 1.536z" style="fill:#290a43;stroke-width:1.02"/>
  <path id="ts2R" d="m346.6 130c-1.302 1.776-2.979 3.176-5.031 4.202l-1.421 0.4734 1.184 0.4735c1.46 0.9865 2.565 2.19 3.315 3.611 0.7892 1.421 1.44 2.999 1.953 4.735 0.5524 1.697 1.065 3.512 1.539 5.445 0.513 1.894 1.223 3.847 2.131 5.86h-5.919c-0.7892-1.697-1.421-3.512-1.894-5.445-0.434-1.934-0.9273-3.788-1.48-5.564s-1.263-3.354-2.131-4.735c-0.8286-1.381-2.012-2.368-3.551-2.959-0.1184 0.03953-0.296 0.05929-0.5327 0.05929-0.8681 0.07892-1.795 0.09862-2.782 0.05909-0.9865-0.07892-2.032-0.2565-3.137-0.5328 0.434-1.026 1.085-1.874 1.953-2.545 0.9076-0.6708 1.993-1.026 3.255-1.065 1.026-0.03939 2.052-0.2761 3.078-0.7102 2.095-0.931 3.779-2.5 4.735-4.38 0.9435-2.2 1.018-4.625 0-6.629-1.155-2.164-3.064-3.66-5.149-4.439-2.299-0.7889-4.474-0.6884-6.748-0.5919-0.9076 0.03946-2.072 0.1973-3.492 0.4734v39h-5.623v-42.5c2.21-0.434 4.242-0.7694 6.096-1.006 4.265-0.4284 8.609-0.6636 12.49 0.6512 3.487 1.34 6.553 3.636 8.05 6.807 1.61 3.806 1.365 8.121-0.8878 11.25z" style="fill:url(#linearGradient5990);stroke-width:1.003"/>
  <path id="tp2T" d="m362.1 108.7v8.314h12.76v39.41h9.758v-39.41h12.82v-8.314z" style="fill:#290a43;stroke-width:1.02"/>
  <path id="ts2T" d="m364.3 115.3v-4.262h30.84v4.262h-12.61v38.76h-5.682v-38.76z" style="fill:url(#linearGradient5990);stroke-width:1.003"/>
  <path id="tp2A" d="m422.2 108.7-17.21 47.73h9.969l3.609-10.47h15.2l3.628 10.47h10.38l-17.2-47.73zm3.978 15.33 6.287 17.45c-1.15-1.342-1.399-3.036-4.606-3.54l-6.43-0.2968z" style="fill:#290a43;stroke-width:1.02"/>
  <path id="ts2A" d="m429.2 111.4 15.51 43.03h-6.037l-12.02-34.68-0.4143-1.716-0.4143 1.716-6.629 19-0.6511 1.243 0.7103-0.1184h7.991q2.131 0 3.255 1.302 1.125 1.243 1.776 2.959h-14.92l-3.551 10.3h-5.623l15.51-43.03z" style="fill:url(#linearGradient5990);stroke-width:1.003"/>
  <path id="tp3T" d="m455.2 108.7v8.314h12.76v39.41h9.757v-39.41h12.82v-8.314z" style="fill:#290a43;stroke-width:1.02"/>
  <path id="ts3T" d="m457.4 115.3v-4.262h30.84v4.262h-12.61v38.76h-5.682v-38.76z" style="fill:url(#linearGradient5990);stroke-width:1.003"/>
  <path id="tpI" d="m498.8 108.7v47.73h9.517v-47.73z" style="fill:#290a43;stroke-width:1.02"/>
  <path id="tsI" d="m506.3 154.4h-5.445v-43.03h5.445z" style="fill:url(#linearGradient5990);stroke-width:1.003"/>
  <path id="tp2O" d="m529.4 110.1c-4.248 1.74-8.516 6.376-10.9 12.5-2.389 6.127-2.6 13.64-0.2639 19.83s6.571 10.69 11.9 13.15c5.738 2.205 11.99 2.189 17.49-0.2341 5.497-2.423 9.613-7.281 11.74-12.6 2.208-6.556 2.266-13.39 0.3426-19.55-1.997-5.949-6.141-10.82-11.33-13.35-6.492-2.613-13.64-1.898-18.98 0.2524zm17.87 10.3c2.594 3.617 3.632 7.941 3.715 12.18-0.1248 4.317-1.055 8.562-3.39 11.6-2.335 3.043-5.425 4.713-8.779 4.824-3.577-0.09281-6.558-1.853-8.594-4.353-2.599-3.651-3.538-8.036-3.557-12.07 0.09557-4.447 0.8686-8.997 3.715-12.18 2.275-2.542 5.625-4.112 8.771-4.096 3.146 0.01647 6.144 1.658 8.118 4.085z" style="fill:#290a43;stroke-width:1.02"/>
  <path id="ts2O" d="m520.7 122.6c2.393-5.465 6.269-9.19 11.13-11.13 5.153-2.034 10.97-1.721 15.57 0.4143 5.077 2.536 8.464 6.705 10.12 11.96 1.826 6.159 1.776 12.43-0.296 17.93-2.135 5.452-5.774 9.379-10.71 11.54-5.207 2.162-10.74 1.932-15.45 0-5.482-2.323-8.756-6.598-10.59-11.42-1.999-6.05-2.253-13.25 0.2368-19.3zm5.268 17.22c1.3 4.314 3.837 7.686 7.339 9.47 3.715 1.891 7.902 1.704 11.25-0.1184 3.833-2.059 6.065-5.857 7.221-9.589 1.381-4.656 1.418-9.735-0.1184-14.56-1.331-4.208-3.847-7.579-7.399-9.352-3.686-1.785-7.503-1.563-10.77 0-4.243 2.246-6.206 5.665-7.458 9.352-1.47 5.137-1.452 10.1-0.05919 14.8z" style="fill:url(#linearGradient5990)"/>
  <path id="tp2N" d="m568.4 108.7v47.73h8.856v-31.18l19.53 31.18h8.207v-47.73h-9.037v29.95l-18.75-29.95z" style="fill:#290a43;stroke-width:1.02"/>
  <path id="ts2N" d="m576.2 119.7-0.8286-2.012 0.1184 2.012v34.39h-4.794v-43.03h5.623l20.9 33.38 0.7103 1.953-0.1184-2.072v-33.27h4.972v43.03h-5.031z" style="fill:url(#linearGradient5990);stroke-width:1.003"/>
  <path id="rsO" d="m220.1 53.84c0 7.62 1.151 14.53 3.457 20.74 4.295 12.1 13 21.84 23.95 26.05 12.18 4.648 25.12 4.691 36.59-0.2642 11.39-4.958 20.1-14.98 24.08-26.19 4.517-11.64 4.582-26.87 0.6672-39.21-3.772-12.64-11.98-22.26-22.88-27.25-12.65-5.175-25.25-5.563-37.48-0.639s-20.09 14.22-23.59 22.9c-3.506 8.677-4.792 15.8-4.792 23.87zm67.44-28.57c6.365 8.389 7.994 17.91 8.651 28.57-0.1681 10.34-2.723 20.49-8.518 28.31-5.467 7.016-13.54 11.1-21.69 11.17-9.144-0.129-17.07-4.415-21.95-11.3-6.092-8.463-8.336-18.7-8.382-28.17 0.2044-10.33 2.601-20.64 8.515-28.44 5.48-7.362 13.74-10.83 22.19-10.78 8.445 0.04654 16.27 3.785 21.18 10.64z" style="fill:url(#linearGradient7643);stroke-width:7.272;stroke:url(#linearGradient7643)"/>
  <path id="rpO" d="m220.1 53.84c0 7.62 1.151 14.53 3.457 20.74 4.295 12.1 12.94 21.27 23.95 26.05 12.18 4.648 25.12 4.691 36.59-0.2642 11.39-4.958 20.1-14.98 24.08-26.19 4.517-11.64 4.582-26.87 0.6672-39.21-3.772-12.64-11.98-22.26-22.88-27.25-12.65-5.175-25.25-5.563-37.48-0.639s-20.09 14.22-23.59 22.9c-3.506 8.677-4.792 15.8-4.792 23.87zm76.09 0c-0.1681 10.34-2.723 20.49-8.518 28.31-13.64 15.61-33.01 14.32-43.63-0.1301-6.092-8.463-8.336-18.7-8.382-28.17 0.2044-10.33 2.601-20.64 8.515-28.44 5.48-7.362 13.74-10.83 22.19-10.78 8.447 0.05004 16.27 3.785 21.91 11.41 5.636 7.621 7.972 17.32 7.922 27.8z" style="fill:url(#linearGradient5945);stroke-width:3.565;stroke:url(#linearGradient5945)"/>
  <path id="rbO" d="m248.8 7.02c-12.32 5.123-20.98 14.95-24.83 25.47-5.587 13.96-4.673 30.37-0.4026 42.05 4.515 11.94 13.16 21.31 23.91 26 12.28 4.591 24.77 4.793 36.52-0.2639 12.22-5.14 19.89-15.3 24.05-26.14 4.627-12.17 4.571-26.82 0.6646-39.14-3.892-12.18-11.15-21.74-22.85-27.2-13.92-5.228-25.55-5.319-37.07-0.7779zm28.97 10.35c9.335 5.012 13.42 12.46 15.93 20.43 2.86 10.73 3.094 21.79 0 31.84-2.83 9.271-8.197 16.63-15.8 20.7-8.067 4.194-17.16 3.721-24.43 0-8.172-4.716-13.22-12.78-15.8-20.83-2.689-10.62-2.923-21.65 0.1329-31.57 2.8-8.756 7.508-16.02 15.8-20.43 8.162-3.642 15.99-4.071 24.16-0.1349z" style="fill:url(#linearGradient5949);stroke-width:1.001"/>
  <path id="rsS" d="m170.4 6.078c-6.84 2.365-11.87 6.881-14.64 12.63-3.151 7.67-2.648 16.25 1.328 22.46 2.218 3.368 4.968 6.292 8.249 8.773 6.958 5.068 14.69 8.122 21.56 12.36 3.37 1.95 6.165 4.166 8.383 6.647 3.658 4.5 4.199 10.48 1.996 15.15-2.068 4.117-5.403 6.781-9.578 8.106-6.393 2.111-13.05 1.1-18.76 0-4.08-0.7975-8.247-2.17-12.5-4.118l-3.859 9.702c4.967 2.393 9.978 4.031 15.03 4.917 5.056 0.9747 9.491 1.462 13.3 1.462 5.056 0 9.582-0.6643 13.57-1.993 7.419-2.392 13.2-6.938 16.36-13.69 1.508-3.189 2.263-6.601 2.263-10.24 0-5.051-1.108-9.302-3.326-12.76-2.217-3.545-5.012-6.603-8.383-9.173-3.371-2.658-7.006-4.961-10.91-6.909-6.907-3.83-14.03-7.23-19.29-12.63-2.218-2.393-3.326-5.27-3.326-8.638 0-3.633 1.284-6.736 3.857-9.305 2.573-2.57 6.208-3.956 10.91-3.956 2.573 0 5.455 0.3232 8.649 0.7663 3.282 0.3547 6.875 1.109 10.78 2.261l3.99-9.57c-4.879-1.506-9.225-2.569-13.04-3.189-7.723-1.09-15.38-1.508-22.62 0.937z" style="fill:url(#linearGradient7643);stroke-width:7.272;stroke:url(#linearGradient7643)"/>
  <path id="rpS" d="m161.6 11c-5.599 4.774-7.807 11.29-7.852 17.68 0 4.962 1.108 9.126 3.326 12.49 2.218 3.368 4.968 6.292 8.249 8.773 6.958 5.068 14.69 8.122 21.56 12.36 6.225 3.583 11.69 8.288 11.71 15.82-0.1482 4.873-2.08 8.217-5.054 10.9-4.062 3.141-8.799 4.429-13.7 4.386-3.192 0-6.831-0.399-10.91-1.197-4.08-0.7975-8.247-2.17-12.5-4.118l-3.859 9.702c4.967 2.393 9.978 4.031 15.03 4.917 9.346 1.905 18.64 2.143 26.87-0.5304 7.391-2.488 13.36-7.27 16.36-13.69 3.433-7.328 2.966-16.58-1.063-23-2.217-3.545-5.012-6.603-8.383-9.173-3.371-2.658-7.006-4.961-10.91-6.909-6.907-3.83-14.03-7.23-19.29-12.63-2.218-2.393-3.326-5.27-3.326-8.638 0-3.633 1.284-6.736 3.857-9.305 5.904-5.184 12.87-4.111 19.56-3.19 3.282 0.3547 6.875 1.109 10.78 2.261l3.99-9.57c-4.879-1.506-9.225-2.569-13.04-3.189-3.814-0.6201-7.671-0.9312-11.62-0.9273-7.563 0.2183-14.46 2.201-19.78 6.783z" style="fill:url(#linearGradient5945);stroke-width:3.964;stroke:url(#linearGradient5945)"/>
  <path id="rbS" d="m170.4 6.078c-6.861 2.32-11.82 6.641-14.64 12.63-3.072 7.243-2.647 16.25 1.33 22.46 2.219 3.368 4.968 6.292 8.25 8.773 7.496 5.457 14.36 7.818 21.56 12.36 3.371 1.95 6.166 4.165 8.384 6.646 4.042 4.519 3.989 11.43 1.994 15.15-2.367 4.717-5.684 6.736-9.58 8.108-6.062 2.066-12.8 1.079-18.75 0-4.081-0.7975-8.249-2.169-12.5-4.118l-3.861 9.702c4.968 2.393 9.98 4.031 15.04 4.918 9.244 1.866 18.04 2.245 26.89-0.5324 7.409-2.732 13.12-6.76 16.36-13.69 1.508-3.189 2.263-6.601 2.263-10.24 0-5.051-1.107-9.303-3.326-12.76-4.874-7.703-12.07-12.44-19.3-16.08-6.907-3.831-13.86-7.061-19.3-12.63-5.06-5.676-3.909-13.83 0.5334-17.94 2.573-2.57 6.209-3.856 10.91-3.856 6.742 0.1318 13.48 1.113 19.43 2.927l3.99-9.572c-4.88-1.506-9.228-2.568-13.05-3.188-3.951-0.4259-8.022-0.9083-11.8-0.9145-3.779-0.006205-7.46 0.6135-10.83 1.854z" style="fill:url(#linearGradient5949);stroke-width:1.001"/>
  <path id="rsR" d="m25.13 5.994c-7.481 0.4242-14.58 1.539-21.28 2.789v95.43h14.5v-86.53c4.557-0.9419 9.586-1.063 13.7-1.066 5.414 0.1899 10.75 1.908 14.64 5.185 3.71 3.392 6.078 8.11 6.12 12.76-0.1382 4.953-2.308 9.479-5.587 12.62-1.597 1.595-3.461 2.88-5.588 3.855-2.129 0.886-3.154 1.771-5.283 1.86-2.838 0.177-5.233 1.395-7.185 3.256s-3.016 2.946-3.992 5.25c2.04 0.5316 3.559 0.5975 5.421 0.7745 1.952 0.1769 3.802 0.2125 5.487 0.1239 0.8445 0.05147 1.777-0.03965 2.528-0.1326 3.192 1.506 4.575 4.507 6.348 7.607 1.774 3.101 3.238 6.601 4.39 10.5 1.242 3.81 2.35 7.841 3.326 12.1 0.9757 4.164 2.351 8.107 4.125 11.83h15.03c-2.129-4.608-3.769-9.17-4.922-13.69-1.064-4.608-2.263-8.904-3.594-12.89-1.33-4.076-3.014-7.666-5.055-10.77-1.952-3.189-4.835-5.712-8.649-7.574l3.326-1.199c4.524-2.304 8.161-5.448 10.91-9.436 4.991-7.836 5.333-17.62 1.46-25.52-3.955-7.815-11.32-12.72-18.76-15.15-7.325-2.058-14.42-2.541-21.43-1.992l0.003002 5e-5z" style="fill:url(#linearGradient7643);stroke-width:7.272;stroke:url(#linearGradient7643)"/>
  <path id="rpR" d="m24.95 5.994c-7.481 0.4242-14.58 1.539-21.28 2.789v95.43h14.5v-86.53c4.557-0.9419 9.586-1.063 13.7-1.066 5.414 0.1899 10.75 1.908 14.64 5.185 3.71 3.392 6.388 8.021 6.12 12.76 0.1712 5.44-2.042 9.788-5.587 12.62-3.098 3.493-7.475 5.115-11.57 5.317-2.838 0.177-5.233 1.196-7.185 3.056s-3.417 3.943-4.392 6.247c2.04 0.5316 3.994 0.8868 5.857 1.064 1.952 0.1769 3.768 0.2212 5.453 0.1326 0.8445 0.05147 1.777-0.03965 2.528-0.1326 3.192 1.506 5.275 3.809 7.049 6.909 1.774 3.101 3.238 6.601 4.39 10.5 1.242 3.81 2.35 7.841 3.326 12.1 0.9757 4.164 2.351 8.107 4.125 11.83h15.03c-2.129-4.608-3.769-9.17-4.922-13.69-1.064-4.608-2.263-8.904-3.594-12.89-1.33-4.076-3.014-7.666-5.055-10.77-1.952-3.189-4.835-5.712-8.649-7.574l3.326-1.199c4.7-2.039 7.896-4.874 10.91-9.436 2.75-4.076 4.27-7.835 4.122-14.09 0.2812-5.139-0.8875-7.887-2.662-11.43-3.955-8.169-11.32-12.72-18.76-15.15-7.325-2.058-14.42-2.541-21.43-1.992z" style="fill:url(#linearGradient5945);stroke-width:3.565;stroke:url(#linearGradient5945)"/>
  <path id="rbR" d="m3.856 8.822v95.42h14.51v-86.53c4.557-0.9407 9.587-1.062 13.7-1.065 2.838 0 5.502 0.4861 7.986 1.461 7.627 2.769 12.68 9.159 12.78 16.48-0.04023 7.64-5.442 13.72-11.18 16.48-2.129 0.886-4.256 1.374-6.385 1.463-2.838 0.177-5.234 1.196-7.186 3.057-1.952 1.86-3.418 3.941-4.393 6.245 2.04 0.5316 3.994 0.8882 5.857 1.065 2.414 0.2267 4.383 0.1312 6.653 0.1312 0.4436 0 0.8877-0.04193 1.332-0.1312 3.194 1.506 5.678 3.808 7.453 6.909 3.868 7.287 6.01 15.2 7.717 22.6 0.9758 4.164 2.351 8.106 4.125 11.83h15.04c-2.13-4.608-3.771-9.17-4.924-13.69-2.106-8.364-4.201-16.8-8.65-23.66-1.952-3.189-4.836-5.712-8.651-7.573l3.328-1.201c4.525-2.304 8.163-5.448 10.91-9.435 5.115-7.711 5.332-17.61 1.461-25.52-3.954-7.814-11.32-12.72-18.76-15.15-4.346-1.506-9.182-2.26-14.51-2.26-9.607 0.3517-19.42 1.335-28.21 3.064z" style="fill:url(#linearGradient5949);stroke-width:1.001"/>
  <path id="rsU" d="m382.1 5.819 0.2007 60.41c0.1506 10.37 3.074 20.51 9.712 27.64 7.466 7.354 16.76 10.43 27.01 10.23 10.96 0.01574 19.81-3.642 26.46-10.37 7.474-7.22 10.06-18.04 10.11-27.51v-60.41h-14.23v62.54c-0.4727 7.321-1.951 13.59-6.256 18.34-4.371 4.551-10.41 6.606-16.1 6.644-7.408 0.2014-12.17-2.469-16.23-6.644-4.437-5.306-6.4-11.77-6.121-18.34l-0.2006-62.54z" style="fill:url(#linearGradient7643);stroke-width:7.272;stroke:url(#linearGradient7643)"/>
  <path id="rpU" d="m382.1 5.819 0.2007 60.41c0.01943 5.849 0.843 11.12 2.529 15.81 1.685 4.608 4.078 8.549 7.183 11.83 3.192 3.279 7.052 5.806 11.57 7.578 4.524 1.772 9.67 2.656 15.44 2.656 5.498 0 10.47-0.8844 14.89-2.656 4.524-1.86 8.38-4.432 11.57-7.711 3.192-3.367 5.677-7.355 7.45-11.96 1.774-4.697 2.662-9.879 2.662-15.55v-60.41h-14.23v62.54c0.2621 13.52-8.925 25.47-22.35 24.99-6.346-0.04859-12.17-2.469-16.23-6.644-4.437-5.306-6.088-12.14-6.121-18.34l-0.2006-62.54z" style="fill:url(#linearGradient5945);stroke-width:3.565;stroke:url(#linearGradient5945)"/>
  <path id="rbU" d="m382 5.719v60.61c0.1336 11.81 3.078 20.53 9.713 27.65 8.649 8.121 17.99 10.18 27.31 10.24 11.35 0.00895 19.82-3.634 26.47-10.37 7.94-8.381 10.06-18.03 10.11-27.51v-60.61h-14.54v62.73c-0.09916 7.238-1.951 13.59-6.257 18.34-4.567 5.043-9.688 6.487-15.8 6.645-6.348-0.04825-11.63-1.931-16.23-6.645-4.856-5.785-6.086-12.14-6.119-18.34v-62.73z" style="fill:url(#linearGradient5949);stroke-width:1.001"/>
  <path id="rsL" d="m321.6 7.521v96.63h53.35c-0.1009-3.602 0.1295-7.605 0.1327-10.9h-38.85v-85.73z" style="fill:url(#linearGradient7643);stroke-width:7.272;stroke:url(#linearGradient7643)"/>
  <path id="rpL" d="m321.6 7.521v96.63h53.35c-0.1009-3.602 0.1295-7.605 0.1327-10.9h-38.85v-85.73z" style="fill:url(#linearGradient5945);stroke-width:3.565;stroke:url(#linearGradient5945)"/>
  <path id="rbL" d="m321.6 7.521v96.73h53.36c-0.1015-3.602 0.1301-7.605 0.1333-10.9h-38.86v-85.83z" style="fill:url(#linearGradient5949);stroke-width:1.001"/>
  <path id="rsT" d="m465 7.521v10.77h27.28v85.86h14.63v-85.86h27.41v-10.77z" style="fill:url(#linearGradient7643);stroke-width:7.272;stroke:url(#linearGradient7643)"/>
  <path id="rpT" d="m465 7.521v10.77h27.28v85.86h14.63v-85.86h27.41v-10.77z" style="fill:url(#linearGradient5945);stroke-width:3.565;stroke:url(#linearGradient5945)"/>
  <path id="rbT" d="m465 7.521v10.77h27.27v85.86h14.64v-85.86h27.41v-10.77z" style="fill:url(#linearGradient5949);stroke-width:1.001"/>
  <path id="rs2E" d="m543.8 7.521v96.63h58.01v-10.77h-43.5v-75.1h41.51v-10.76zm35.14 41.27c-1.685 0-3.19-0.08934-4.521 0.5312-1.242 0.6201-2.351 1.219-3.326 2.194-1.804 1.979-3.375 4.391-4.125 6.578h30.72v-9.302z" style="fill:url(#linearGradient7643);stroke-width:7.272;stroke:url(#linearGradient7643)"/>
  <path id="rp2E" d="m543.8 7.521v96.63h58.01v-10.77h-43.5v-75.1h41.51v-10.76zm34.24 40.67c-1.685 0-3.189 0.3098-4.521 0.9304-4.308 1.998-6.069 5.393-7.451 9.568h32.13v-10.5z" style="fill:url(#linearGradient9323);stroke-width:3.565;stroke:url(#linearGradient5945)"/>
  <path id="rb2E" d="m543.8 7.521v96.63h58.02v-10.76h-43.5v-75.1h41.52v-10.76zm34.24 40.47c-1.685 0-3.394 0.5094-4.724 1.13-4.048 2.164-6.001 5.375-7.454 9.769h32.44l-3.7e-4 -10.9z" style="fill:url(#linearGradient5949);stroke-width:1.001"/>
  <path id="rs1E" d="m83.85 7.521v96.63h58.01v-10.77h-43.5v-75.1h41.51v-10.76zm35.14 41.27c-1.685 0-3.19-0.08934-4.521 0.5312-1.242 0.6201-2.351 1.219-3.326 2.194-1.804 1.979-3.375 4.391-4.125 6.578h30.72v-9.302z" style="fill:url(#linearGradient7643);stroke-width:7.272;stroke:url(#linearGradient7643)"/>
  <path id="rp1E" d="m83.85 7.521v96.63h58.01v-10.77h-43.5v-75.1h41.51v-10.76zm34.24 40.67c-1.685 0-3.189 0.3098-4.521 0.9304-3.998 1.926-7.216 9.053-7.451 9.568h32.13v-10.5z" style="fill:url(#linearGradient9323);stroke-width:3.565;stroke:url(#linearGradient5945)"/>
  <path id="rb1E" d="m84.32 7.521v96.63h58.02v-10.76h-43.5v-75.1h41.52v-10.76zm34.24 40.67c-1.685 0-3.194 0.3096-4.524 0.9302-4.048 2.164-6.001 5.175-7.454 9.568h31.94v-10.5z" style="fill:url(#linearGradient5949)"/>
 </g>
 <path id="fHub" d="m67.98 133.3c31.6-22.81 62.45 2.558 62.75 32.21 0.1164 11.89-17.39 38.97-39.79 36.63-41.96-4.398-47.1-51.41-22.95-68.82z" style="fill:#ffffff"/>
 <path id="fWheel" d="m90.97 117.8c22.3 0 46.59 15.7 46.59 46.69 0.3994 21.87-19.32 44.21-44.83 44.21-25.98 0-46.05-19.84-46.05-45.83 0-26.78 22.91-45.06 44.28-45.06zm36.01 57.83c6.936-21.32-3.63-42.68-27.45-48.92-27.8-4.434-44.13 17.66-44.78 34.28-1.136 19.15 11.71 32.77 24.98 37.6 23.83 7.53 43.28-8.304 47.25-22.95zm-48.73 20.82c-0.439-0.4783-0.4495-0.5756-0.1531-1.435 3.346-6.663 6.143-11.72 9.788-17.98 0.979-1.412 1.437-1.382 4.687 0.3129 4.428 2.31 5.326 3.216 5.988 6.028 1.387 4.481 3.026 8.691 4.011 13.48-4.584 3.432-17.54 2.335-24.32-0.4063zm22.79 0.3839c-0.7997-0.3365-2.438-1.832-2.807-2.561-0.5377-1.064-3.026-12.16-2.782-12.4 0.2402-0.2457 0.9579-0.2713 1.377-0.04942 0.8275 0.4388 0.2895-0.5905-0.6427-1.229-1.268-0.8689-6.331-3.44-6.774-3.44-0.7975 0-1.255 0.5638-2.666 3.289-0.8074 1.559-2.632 4.877-4.056 7.375-3.392 5.955-3.614 6.435-3.428 7.442 0.2001 1.092 0.7811 0.8777 0.7811-0.2875 0-0.587 0.1964-1.094 0.6402-1.65 1.949-3.195 7.519-16.25 9.044-15.01 0.5554 0.00402 2.573 1.031 3.006 1.531 1.962 6.228 2.454 9.521 3.939 15.57 0.2879 0.7655 0.2732 1.978-0.02943 2.45-0.1763 0.2753-0.2767 0.5456-0.2229 0.6005 1.957 0.1424 5.316-1.129 4.62-1.624zm-1.709-22.6c2.856-2.531 6.047-4.202 9.046-4.293 2.647 0.5272 13.03 4.526 15.78 6.337 0.8141 2.371-8.16 14.66-14.68 18.04-3.209 3.183-8.266-15.89-10.15-20.08zm9.802 18.69c0.06298-0.4438-0.6019-0.2519-0.8672-0.363-2.429-6.49-4.953-11.23-6.726-17.5 0.07172-0.6279 1.155-1.286 2.724-1.654 1.773-0.5762 9.757 3.492 13.04 5.096 3.194 1.566 4.029 2.187 4.063 3.026 1.121-0.9576 2.035-3.232 2.607-4.803-0.04148-0.04229-0.8436 0.08547-1.783 0.284-0.9391 0.1985-1.987 0.3609-2.327 0.3609-4.204-1.536-8.125-3.028-11.76-5.41 0.03274-0.2434 0.3873-0.6074 0.7881-0.8088 1.109-0.5572 0.8869-0.777-0.6722-0.6671-2.993 0.6055-5.299 1.722-7.411 3.684-0.5679 1.139-0.5588 1.241 0.2732 3.112 1.955 5.207 4.399 10.62 6.294 15.31 0.2682 0.7002 0.7908 1.424 1.028 1.424 0.5572-0.1772 0.5912-0.6116 0.7338-1.092zm-50.48-20.6c7.931-1.305 14.48-3.129 21.59-3.169 0.8287 1.183 2.442 6.876 1.692 10.12-1.356 2.736-8.757 14.09-9.123 14-3.633 0.2378-17.62-18.75-14.16-20.95zm13.79 20.37c-0.2255-0.9322-0.2902-1.926-0.2447-2.71-0.8951-1.356 4.393-7.604 7.337-11.53 0.6083-0.5602 1.072-0.3127 1.328 0.7087 0.2117 1.07 0.2323 0.8186 0.6411-0.03927-0.04851-4.268-0.08862-10.69-3.884-9.416-5.984 0.8484-12.36 1.787-17.48 3.214-0.2922 0.2989-0.06296 1.069 0.2581 0.8652 5.704-1.013 11.76-2.484 17.2-3.123 1.791-0.3722 3.035 3.955 1.531 5.452-2.666 4.311-8.242 13.95-10.85 12.67-0.9314-0.3026-0.3138 0.5846 1.61 2.312 0.5965 0.892 1.887 1.391 2.552 1.593zm16.39-22.35c1.506-1.764 4.073-1.333 4.733 1.022 0.1543 1.155-0.4959 2.366-1.498 2.852-2.585 0.9947-4.603-1.611-3.235-3.873zm7.07-2.78c0.9194-2.448 3.248-1.955 3.86-1.389 1.673 0.955 1.448 3.353 0.1814 4.206-2.043 1.456-4.727-0.4466-4.04-2.817zm8.523-4.987c0-0.7186 0.9084-4.683 1.378-6.013 1.934-5.553 10.52-8.359 15.98-10.95 4.47 5.574 5.466 15.83 4.324 24.11-1.856 0.9882-22.77-4.296-21.68-7.144zm20.19 6.554c0.1966-0.07734 0.3572-0.3221 0.3572-0.5445 0-0.3319-0.2811-0.4309-1.572-0.5537-5.652-1.542-13.52-2.684-17.17-6.017 0.07885-1.122 0.375-2.034 0.6849-3.108 0.2055-1.914 10.37-5.454 16.1-7.889 0.5813 0 1.057-0.09662 1.057-0.2147 0-0.4585-2.018-4.637-2.241-4.637-0.5617 0.7331-0.8259 1.828-1.155 2.657-0.7457 1.671-1.053 1.879-7.517 5.082-4.87 2.415-5.117 2.455-5.117 0.8597 0-0.8016-0.00804-0.8088-0.4516-0.398-0.2484 0.23-0.4516 0.5164-0.4516 0.6362-1.084 2.951-2.713 7.573-1.575 8.614 5.474 2.622 11.54 3.666 16.47 5.502 0.8987 0.21 1.814 0.1117 2.574 0.01115zm-41.63-4.259c0.9196-0.966 3.271-0.4558 3.796 0.8651 0.9413 1.451-0.1454 3.839-2.392 3.81-2.749-0.3342-3.154-3.562-1.405-4.675zm-25.46 1.804c-1.497 0.00972-1.086-18.24 6.75-24.2 5.174 4.15 10.28 9.159 15.06 13.82 1.122 1.135 1.21 1.3 1.092 2.047-0.7603 2.436-4.451 6.673-6.782 7.118-5.506 0.23-11.17 1.275-16.12 1.216zm0.956-1.773c1.867-1.846 1.889-1.851 8.554-1.725 3.248 0.06217 6.149 0.164 6.446 0.227 0.5348 0.113 0.5307 0.1256-0.3281 1.026-0.945 0.9903-0.9167 1.079 0.1889 0.5907 1.32-0.582 4.792-4.332 5.675-6.13 0.7977-1.623 0.7883-1.643-1.958-4.192-2.983-2.906-6.468-5.894-9.314-8.449-2.101-2.082-3.26-2.672-3.58-1.821-0.07333 0.1948 0.1142 0.4006 0.4887 0.5368 4.603 4.115 9.625 7.985 13.82 12.73 0 0.528-1.972 2.784-2.688 3.075-0.9105 0.3695-16.13 0.3976-17.4 0.03184-0.5529-0.1601-1.05-0.2455-1.105-0.1899-0.1371 0.1403-0.2189 4.553-0.09084 4.907 0.9737 0.773 0.3951 0.1566 1.286-0.6118zm38.08-4.562c0.07734-3.113 3.334-3.446 4.712-1.724 1.27 2.504-0.5504 3.827-1.137 3.943-1.968 0.6607-3.382-0.6288-3.576-2.219zm-13.3-3.081c0.8163-0.9086 2.788-1.551 4.029-0.00804 1.738 2.3-0.5282 4.234-1.659 4.265-2.632 0.04509-3.637-2.377-2.37-4.257zm6.764-0.8223c-0.5464-2.558 1.424-3.584 2.734-3.482 2.97 0.4798 2.96 3.951 0.9042 4.976-1.026 0.3392-2.446 0.5706-3.637-1.493zm4.141-12.1c0.6943-5.429 1.441-11.92 3.108-15.99 4.128-0.3865 14.53 5.209 18.45 9.174 2.558 2.448 2.736 2.978 1.412 4.192-5.977 4.579-15.76 12.14-16.99 11.83-1.256-0.1327-6.688-7.428-5.976-9.208zm7.366 7.933c4.926-3.505 10.5-7.294 14.88-10.97 0.164-0.3137 0.162-0.5896-0.00603-0.9119-0.3068-0.587-0.6863-0.5926-0.8345-0.01276-5.475 4.499-9.698 7.848-15.19 11.32-2.542-2.703-2.381-4.901-1.943-6.985 0.9771-4.69 1.595-8.6 2.713-12.7 0.1709-0.9437 0.6761-1.129 1.148-1.651 0.4059-0.3037 0.3791-0.3451-0.4649-0.7126-1.435-0.6621-3.062-0.7499-4.585-0.9228-0.02505 0.5106 1.834 2.973 1.696 4.829-0.2295 3.243-1.112 6.58-1.717 9.624-0.2343 1.569-0.6053 2.291-1.177 2.291-0.6364-0.433-1.002-0.9086-1.547-1.502-0.1258 0.868 0.1787 1.688 0.3943 2.457 2.943 3.59 3.905 7.243 6.633 5.841zm-33.44-14.25c0.4379-4.21 17.32-11.31 22.42-9.983 0.5276 7.784-0.5168 22.14-1.332 23.24-2.991 0.4144-5.982 0.481-8.973-0.07021-4.114-3.939-11.71-10.36-12.11-13.19zm20.73 12.11c0.5216-0.9598 0.3562-1.463 0.8227-7.308 0.1009-4.449 0.7238-9.307 0.0832-13.32-0.7133-0.1239-0.7645-0.03907-0.7828 1.306-0.05604 6.678-0.6813 12.27-0.9972 18.31-2.405 0.5086-3.885 0.1679-5.166-1.625-3.244-4.15-7.448-7.811-9.852-12.43-0.08144-0.4932-0.2372-0.8966-0.3461-0.8966-1.714 0.6759-3.032 2.626-3.496 3.521 0.193 0.1107 0.4478 0.14 0.5658 0.06539 0.1181-0.07493 0.8821 0.0462 1.697 0.2684 3.645 3.059 6.882 6.901 9.372 10.85-0.6906 0.3988-1.419 0.241-2.068-0.00904-0.3637 0.23 0.1467 0.8597 1.03 1.27 3.257 0.2351 6.495 0.9972 9.138-6.1e-4z" style="fill:#000000"/>
 <path id="trim" d="m395.4 11.82c-9.047-0.2485-2.634-0.5362-7.138-0.01651l9.903 54c6.393-0.3453 5.337-0.6708 10.08-1.725 0.9632-8.364-12.17-46.56-12.84-52.26zm-382.1 76.2c-6.845 10.93-5.873 25.04-8.037 35.19 0.6573 1.877 16.88-5.054 18.81-6.242 2.172-10.72 13.07-25.46 13.06-25.47 13.12-1.548 19.57-4.713 24.34-12.03-9.405-6.623-40.25 0.5032-48.17 8.559zm270.8 84.12c-22.71 1.124-126.4-3.712-134.7 3.87 47.04 3.413 116.6 0.1303 154.2-0.5102 32.52-1.082 68.39-0.28 100.3-3.112-0.5148-0.7108-1.783-1.715-4.148-2.134-7.424-1.314-78.02 3.072-115.7 1.886zm251.6-169.6c-8.282-3.382-21.24 0.3648-27.72-1.431-66.96 0.09227-140-0.5052-189.6 1.45-10.61 0.67-26.07 2.525-34.75 5.764 9.399 0.05518 243.4-2.423 258-1.769z" style="fill:#ffffff"/>
 <path id="brake" d="m563.6 16.03c1.409-0.7641 1.616-0.01928 10.2 13.04 7.641 11.99 15.83 29.19 18.7 38.91 2.084 6.12 3.236 28.14 1.326 28.71-0.5925 0.1745-6.317 2.291-7.464-0.3897-1.01-2.36-0.2152-9.176-0.8403-15.28-1.285-12.3-4.301-23.98-9.195-34.76-4.856-13.28-14.06-22.64-15.56-30.32z" style="fill:#8a112b"/>
 <path id="rHub" d="m435.7 133.3c31.6-22.81 62.45 2.558 62.75 32.21 0.1164 11.89-17.39 38.97-39.79 36.63-41.96-4.398-47.1-51.41-22.95-68.82z" style="fill:#ffffff"/>
 <path id="rWheel" d="m458.7 117.8c22.3 0 46.59 15.7 46.59 46.69 0.3994 21.87-19.32 44.21-44.83 44.21-25.98 0-46.05-19.84-46.05-45.83 0-26.78 22.91-45.06 44.28-45.06zm36.01 57.83c6.936-21.32-3.63-42.68-27.45-48.92-27.8-4.434-44.13 17.66-44.78 34.28-1.136 19.15 11.71 32.77 24.98 37.6 23.83 7.53 43.28-8.304 47.25-22.95zm-48.73 20.82c-0.439-0.4783-0.4495-0.5756-0.1531-1.435 3.346-6.663 6.143-11.72 9.788-17.98 0.979-1.412 1.437-1.382 4.687 0.3129 4.428 2.31 5.326 3.216 5.988 6.028 1.387 4.481 3.026 8.691 4.011 13.48-4.584 3.432-17.54 2.335-24.32-0.4063zm22.79 0.3839c-0.7997-0.3365-2.438-1.832-2.807-2.561-0.5377-1.064-3.026-12.16-2.782-12.4 0.2402-0.2457 0.9579-0.2713 1.377-0.04942 0.8275 0.4388 0.2895-0.5905-0.6427-1.229-1.268-0.8689-6.331-3.44-6.774-3.44-0.7975 0-1.255 0.5638-2.666 3.289-0.8074 1.559-2.632 4.877-4.056 7.375-3.392 5.955-3.614 6.435-3.428 7.442 0.2001 1.092 0.7811 0.8777 0.7811-0.2875 0-0.587 0.1964-1.094 0.6402-1.65 1.949-3.195 7.519-16.25 9.044-15.01 0.5554 0.00402 2.573 1.031 3.006 1.531 1.962 6.228 2.454 9.521 3.939 15.57 0.2879 0.7655 0.2732 1.978-0.02943 2.45-0.1763 0.2753-0.2767 0.5456-0.2229 0.6005 1.957 0.1424 5.316-1.129 4.62-1.624zm-1.709-22.6c2.856-2.531 6.047-4.202 9.046-4.293 2.647 0.5272 13.03 4.526 15.78 6.337 0.8141 2.371-8.16 14.66-14.68 18.04-3.209 3.183-8.266-15.89-10.15-20.08zm9.802 18.69c0.06298-0.4438-0.6019-0.2519-0.8672-0.363-2.429-6.49-4.953-11.23-6.726-17.5 0.07172-0.6279 1.155-1.286 2.724-1.654 1.773-0.5762 9.757 3.492 13.04 5.096 3.194 1.566 4.029 2.187 4.063 3.026 1.121-0.9576 2.035-3.232 2.607-4.803-0.04148-0.04229-0.8436 0.08547-1.783 0.284-0.9391 0.1985-1.987 0.3609-2.327 0.3609-4.204-1.536-8.125-3.028-11.76-5.41 0.03274-0.2434 0.3873-0.6074 0.7881-0.8088 1.109-0.5572 0.8869-0.777-0.6722-0.6671-2.993 0.6055-5.299 1.722-7.411 3.684-0.5679 1.139-0.5588 1.241 0.2732 3.112 1.955 5.207 4.399 10.62 6.294 15.31 0.2682 0.7002 0.7908 1.424 1.028 1.424 0.5572-0.1772 0.5912-0.6116 0.7338-1.092zm-50.48-20.6c7.931-1.305 14.48-3.129 21.59-3.169 0.8288 1.183 2.442 6.876 1.692 10.12-1.356 2.736-8.757 14.09-9.123 14-3.633 0.2378-17.62-18.75-14.16-20.95zm13.79 20.37c-0.2255-0.9322-0.2902-1.926-0.2447-2.71-0.8951-1.356 4.393-7.604 7.337-11.53 0.6083-0.5602 1.072-0.3127 1.328 0.7087 0.2118 1.07 0.2323 0.8186 0.6411-0.03927-0.04851-4.268-0.08862-10.69-3.884-9.416-5.984 0.8484-12.36 1.787-17.48 3.214-0.2922 0.2989-0.06296 1.069 0.2581 0.8652 5.704-1.013 11.76-2.484 17.2-3.123 1.791-0.3722 3.035 3.955 1.531 5.452-2.666 4.311-8.242 13.95-10.85 12.67-0.9314-0.3026-0.3138 0.5846 1.61 2.312 0.5965 0.892 1.887 1.391 2.552 1.593zm16.39-22.35c1.506-1.764 4.073-1.333 4.733 1.022 0.1543 1.155-0.4959 2.366-1.498 2.852-2.585 0.9947-4.603-1.611-3.235-3.873zm7.07-2.78c0.9194-2.448 3.248-1.955 3.86-1.389 1.673 0.955 1.448 3.353 0.1814 4.206-2.043 1.456-4.727-0.4466-4.04-2.817zm8.523-4.987c0-0.7186 0.9084-4.683 1.378-6.013 1.934-5.553 10.52-8.359 15.98-10.95 4.47 5.574 5.466 15.83 4.324 24.11-1.856 0.9882-22.77-4.296-21.68-7.144zm20.19 6.554c0.1966-0.07734 0.3572-0.3221 0.3572-0.5445 0-0.3319-0.2811-0.4309-1.572-0.5537-5.652-1.542-13.52-2.684-17.17-6.017 0.07885-1.122 0.375-2.034 0.6849-3.108 0.2055-1.914 10.37-5.454 16.1-7.889 0.5813 0 1.057-0.09662 1.057-0.2147 0-0.4585-2.018-4.637-2.241-4.637-0.5617 0.7331-0.8259 1.828-1.155 2.657-0.7457 1.671-1.053 1.879-7.517 5.082-4.87 2.415-5.117 2.455-5.117 0.8597 0-0.8016-0.00804-0.8088-0.4516-0.398-0.2484 0.23-0.4516 0.5164-0.4516 0.6362-1.084 2.951-2.713 7.573-1.575 8.614 5.474 2.622 11.54 3.666 16.47 5.502 0.8987 0.21 1.814 0.1117 2.574 0.01115zm-41.63-4.259c0.9196-0.966 3.271-0.4558 3.796 0.8651 0.9413 1.451-0.1454 3.839-2.392 3.81-2.749-0.3342-3.154-3.562-1.405-4.675zm-25.46 1.804c-1.497 0.00972-1.086-18.24 6.75-24.2 5.174 4.15 10.28 9.159 15.06 13.82 1.122 1.135 1.21 1.3 1.092 2.047-0.7603 2.436-4.451 6.673-6.782 7.118-5.506 0.23-11.17 1.275-16.12 1.216zm0.956-1.773c1.867-1.846 1.889-1.851 8.554-1.725 3.248 0.06217 6.149 0.164 6.446 0.227 0.5348 0.113 0.5307 0.1256-0.3281 1.026-0.945 0.9903-0.9167 1.079 0.1889 0.5907 1.32-0.582 4.792-4.332 5.675-6.13 0.7977-1.623 0.7883-1.643-1.958-4.192-2.983-2.906-6.468-5.894-9.314-8.449-2.101-2.082-3.26-2.672-3.58-1.821-0.07333 0.1948 0.1142 0.4006 0.4888 0.5368 4.603 4.115 9.625 7.985 13.82 12.73 0 0.528-1.972 2.784-2.688 3.075-0.9105 0.3695-16.13 0.3976-17.4 0.03184-0.5529-0.1601-1.05-0.2455-1.105-0.1899-0.1371 0.1403-0.2189 4.553-0.09084 4.907 0.9737 0.773 0.3951 0.1566 1.286-0.6118zm38.08-4.562c0.07734-3.113 3.334-3.446 4.712-1.724 1.27 2.504-0.5504 3.827-1.137 3.943-1.968 0.6607-3.382-0.6288-3.576-2.219zm-13.3-3.081c0.8163-0.9086 2.788-1.551 4.029-0.00804 1.738 2.3-0.5282 4.234-1.659 4.265-2.632 0.04509-3.637-2.377-2.37-4.257zm6.764-0.8223c-0.5464-2.558 1.424-3.584 2.734-3.482 2.97 0.4798 2.96 3.951 0.9042 4.976-1.026 0.3392-2.446 0.5706-3.637-1.493zm4.141-12.1c0.6942-5.429 1.441-11.92 3.108-15.99 4.128-0.3865 14.53 5.209 18.45 9.174 2.558 2.448 2.736 2.978 1.412 4.192-5.977 4.579-15.76 12.14-16.99 11.83-1.256-0.1327-6.688-7.428-5.976-9.208zm7.366 7.933c4.926-3.505 10.5-7.294 14.88-10.97 0.164-0.3137 0.162-0.5896-0.00603-0.9119-0.3068-0.587-0.6863-0.5926-0.8345-0.01276-5.475 4.499-9.698 7.848-15.19 11.32-2.542-2.703-2.381-4.901-1.943-6.985 0.9771-4.69 1.595-8.6 2.713-12.7 0.1709-0.9437 0.6761-1.129 1.148-1.651 0.4059-0.3037 0.3791-0.3451-0.4649-0.7126-1.435-0.6621-3.062-0.7499-4.585-0.9228-0.02505 0.5106 1.834 2.973 1.696 4.829-0.2295 3.243-1.112 6.58-1.717 9.624-0.2343 1.569-0.6053 2.291-1.177 2.291-0.6364-0.433-1.002-0.9086-1.547-1.502-0.1258 0.868 0.1787 1.688 0.3943 2.457 2.943 3.59 3.905 7.243 6.633 5.841zm-33.44-14.25c0.4379-4.21 17.32-11.31 22.42-9.983 0.5276 7.784-0.5168 22.14-1.332 23.24-2.991 0.4144-5.982 0.481-8.973-0.07021-4.114-3.939-11.71-10.36-12.11-13.19zm20.73 12.11c0.5216-0.9598 0.3562-1.463 0.8227-7.308 0.101-4.449 0.7238-9.307 0.0832-13.32-0.7133-0.1239-0.7645-0.03907-0.7828 1.306-0.05604 6.678-0.6813 12.27-0.9972 18.31-2.405 0.5086-3.885 0.1679-5.166-1.625-3.244-4.15-7.448-7.811-9.852-12.43-0.08144-0.4932-0.2372-0.8966-0.3461-0.8966-1.714 0.6759-3.032 2.626-3.496 3.521 0.193 0.1107 0.4478 0.14 0.5658 0.06539 0.1181-0.07493 0.8821 0.0462 1.697 0.2684 3.645 3.059 6.882 6.901 9.372 10.85-0.6906 0.3988-1.419 0.241-2.068-0.00904-0.3637 0.23 0.1467 0.8597 1.03 1.27 3.257 0.2351 6.495 0.9972 9.138-6.1e-4z" style="fill:#000000"/>
 <path id="body" d="m308.1 2.971c-6.166 0.7284-18.34 1.996-29.37 5.498-12.7 0.1653-29.81 1.326-37.56 2.218-1.65 0.1899-5.407 0.3885-8.142 1.298-1.161 0.3859-0.5895-3.174-4.355-1.747 0.3695-4.87-1.698-4.284-6.737-1.343-2.586 2.732-0.1 5.884-9.769 9.848-22.96 11.27-47.8 31.09-65.03 46.94-29.22 1.61-60.95 2.643-85.22 6.444-12.35 1.694-36.61 5.119-46.03 9.936-7.92 3.534-11.87 19.12-13.23 26.55-2.765 10.92-2.767 28.28-2.624 36.4 0.2956 15.68 1.805 16.87 4.701 21.25 3.232 8.579 8.526 7.055 12.91 12.98 0.3709 1.634 0.5074 6.761 1.784 7.494 6.824 1.32 16.65 2.313 23.48 1.821-2.675-34.75-1.279-60.42 16.21-69.74 19.66-9.399 57.85-12.59 72.49 0 8.946 14.6 8.436 25.01 12.66 41.28 0.2956 5.132 2.654 15.62 3.412 19.07 0.748 0.2964 10.32 0.5424 20.32 0.3707 39.75 0.04741 81.92 0.9329 123.3 0.4452 38.13-0.9233 78.53-3.608 113.5-4.644 2.142-7.246 2.192-10.29 3.017-15.88 2.599-22.11 8.271-40.8 19.42-47.75 14.42-10.26 56.57-7.443 68.03 0 5.736 2.259 17.74 28.14 19.07 53.97 6.133-0.3986 30.26-2.685 40.14-3.504 20.78-1.722 29.67-2.957 29.77-3.381 0.718 0.03218 11.39-13.91 14.2-21.02 1.474-5.685 1.318-11.02 1.373-15.13 0.1619-4.069 0.5515-9.849-1.658-12.08-1.984-3.165-2.532-1.986-3.3-3.654 0.3167-2.247-0.1575-4.191-0.7722-10.54l-6.853-0.3491c-0.1491-3.642 0.4018-5.222-0.09084-7.723-1.137-14.77 0.127-12.61-2.429-23.52-2.96-8.664-10.82-26.78-13.11-30.71-5.24-8.813-5.318-9.019-10.31-16.9-0.4212-1.453 4.793 0.01072 4.633 0.2076-3.374-5.207 0.9769 1.243 5.462-2.92-0.3667-1.678 2.23-7.025-6.551-7.703-6.093-0.5726-15.78-0.1699-23.48-1.099-4.481-2.415-2.794-3.469-10.18-5.067-28.43-1.296-81.54-0.2425-128.1 0.5641-8.122 0.296-86.54 0.01588-95.11 1.797zm219.2-0.9678c6.804-0.3315 7.228 1.99 12.33 3.873-101.4-0.6707-174.9-0.02068-255.6 2.326 2.527-0.7437 16.89-3.125 24.35-4.237 5.442-1.228 59.15-1.911 90.16-1.906 13.61-0.139 120.9-0.7412 128.7-0.05529zm-129.4 59.95c-2.191-14.44-5.561-29.46-9.05-47.16l-0.5014-2.467c1.994 0.01123 3.666 0.1152 5.623 0.1295 7.317 22.17 9.041 33.68 12.86 49.11-0.3249 3.158-3.316 2.693-8.697 2.816zm-339.5 17.88c-2.999 4.85-5.086 6.637-9.359 7.562-11.05 1.375-15.71 2.542-18.48 6.518-5.668 5.767-5.097 16.22-12.83 24.32-2.642 1.013-8.501 2.394-10.4 2.055 0.2302-4.44 4.317-30.1 6.651-31.59 17.68-8.369 28.45-6.772 44.42-8.863zm343.6 92.06c-37.18 2.309-96.89 2.236-111 2.982-14.58 0.2022-32.6 0.5082-47.82 0.6091-33.79 0.03662-83.1 1.834-91.89 0.1523 0.4139-0.6436 2.283-1.748 3.512-1.231 7.335 0.5302 71.37-0.3134 136-1.122 41.19-0.5156 74.77-1.938 109.6-2.687z" style="fill:#000000"/>
 <path id="dDTrim" d="m285.3 14.51c-22.43-0.02721-50.06-0.6451-71.37 10.39-18.65 12.29-42.29 24.18-54.17 43.6 0.7047 1.737 1.866 3.141 3.813 3.964l119.8-4.287 0.2475-3.388-119 3.733c0.2479-7.751 38.54-34.9 53.93-41.61 22.63-9.858 46.73-9.076 66.71-9.845zm-10.9 66.57-30.1 1.387 0.5536 5.272 32.74-0.972zm7.345 45.83-123.7 2.03 2.498 10.68 121.6-6.874z" style="fill:#ffffff"/>
 <path id="dDoor" d="m285.3 14.71c-24.65 0.7226-35.83 1.196-43.59 2.643-18.46 2.666-32.7 10.09-47.56 20.66-9.597 7.551-23.39 17.6-31.75 27.25-0.9422 1.286-5.325 7.191 5.264 6.445 15.93-0.3879 35.39-1.115 51.5-1.655 24.35-0.513 39.23-1.729 64.28-2.258l0.1776-2.761c-56.13 1.237-98.06 3.81-105 3.93-3.327 0.05764-15.61 1.399-14.79-0.4541 2.33-7.061 19.58-21.09 33.84-30.54 23.5-15.93 36.58-18.59 66.37-20.59 9.57-0.2593 10.79-0.3535 21.23-0.6079zm-10.55 68.25c-1.656-1.439-16.94-0.3789-21.53-0.1058-12.27 0.5201-6.848 4.925-4.853 4.244 9.468-0.9744 22.02 0.1518 26.85-1.542zm7.056 44.28c-17.93 0.3968-26.31 0.9929-43.55 1.237-27.24 0.4823-54.57 0.8995-78.72 1.574 0.2832 10.28 1.706 8.748 11.3 7.735 42.69-2.358 73.29-4.393 111.2-5.19zm-118.4 39.4c-6.906-14.28-7.491-31.08-9.688-47.24-0.3563-15.4-1.676-31.66-0.6-45.79 0.7561-4.513 2.229-7.815 4.571-10.39 2.556-3.235 6.972-6.967 10.51-9.808 9.094-7.642 18.7-14.37 28.77-21.43 12.53-8.517 26.15-14.57 41.09-17.2 10.17-2.353 19.46-2.544 28.97-2.595l18.34-0.2092c-0.4175 17.74-0.1719 37.35-2.114 57.34 0 0-1.371 26.04-1.521 40.37-0.08641 8.272-0.01197 16.14 0.2791 23.66 1.173 17.08 2.823 20.06 5.16 32.63z" style="fill:#000000"/>
 <path id="rDTrim" d="m371.6 78.31c-5.717 1.131-11 0.7763-10.73 3.994 0.4986 1.687 3.94 1.848 12.51 1.517 5.4-0.7569 19.3-0.339 19.35-2.686-0.1702-3.934-5.604-3.849-21.13-2.825zm-89.63 54.54 110.7-3.574c4.227-5.249 2.374-2.316 3.643-6.795l-114.5 4.585m1.616-58.61 0.277-3.708 113.7-3.033 0.4292 2.783zm1.811-51.39 0.04-2.562c34.36-0.8008 68.88-2.676 103.2-2.384l0.5117 2.899c-36.11-0.06602-72.81 1.348-103.7 2.047z" style="fill:#ffffff"/>
 <path id="rD" d="m283.6 65.03c40.77-0.8967 82.02-2.38 113.7-3.08l0.3536 2.436c-17.95 0.195-110.6 3.631-114.2 3.41 0.02591-0.7069 0.1452-2.205 0.1549-2.765zm105.2-50.16c-35.04-0.424-71.35 0.9488-103.6 1.9l0.03-2.062c31.34-0.9909 68.21-2.593 103.1-2.391m-16.77 70.84c-10.98 0.4277-9.336 1.055-9.407-2.72 4.483-1.933 25.65-2.692 28.91-1.51 0.6698 0.6792 1.534 2.572 0.4288 2.916-3.544 1.103-14.84 0.6504-19.94 1.313zm-89.86 44.09c40.32-0.8836 80.35-2.559 113.3-3.447 0.9566 0.6355-1.128 2.543-3.896 3.895-40.12 1.331-75.97 4.211-109.2 4.907zm115.7 35.53c2.589-28.18 6.661-59.05 2.004-88.92-3.329-21.35-7.508-43.22-11.64-64.32l-102.5 2.447c-0.2659 10.39-0.04319 34.04-2.114 57.34-0.9483 14.78-1.406 32.76-1.521 40.37-0.1722 9.664-0.08823 17.51 0.2793 23.66 0.718 12.27 2.466 20.16 5.161 32.63z" style="fill:#000000"/>
</svg>
