<?xml version="1.0" standalone="no"?><!-- Generator: Gravit.io --><svg xmlns="http://www.w3.org/2000/svg" xmlns:xlink="http://www.w3.org/1999/xlink" style="isolation:isolate" viewBox="0.0000052957588155730605 1.8769488060407568e-7 275.067459088307 99.7614682300168" width="275.067459088307" height="99.7614682300168"><path d=" M 245.4738901404539 66.4251698637519 C 227.7125353811814 52.872414401005166 214.1555369672334 69.93889175452745 214.75681102373693 80.6838378353967 C 216.30987165797623 91.36776493762278 223.51136128642938 97.26677369426415 232.9993835884656 97.41374482276294 C 249.63872328836572 95.44277084467957 256.2742801550136 79.28270010626036 245.4738901404539 66.4251698637519 Z " fill="rgb(249,249,249)"/><path d=" M 253.28175402644518 79.34144413697075 C 253.34751333520882 67.02344909400503 242.57354542102013 58.91955148898485 233.27817530750963 58.76588848566895 C 222.2622737358366 59.09755617626274 212.8936059843682 65.74931027980531 212.28666644319895 79.8080390557825 C 212.15462818152366 89.37297741721686 220.81013023435898 99.61704420136363 232.44224776394395 99.76146841771168 C 242.5922827565231 99.66388754012098 252.99150396065303 92.26264001646092 253.28175402644518 79.34144413697075 Z  M 230.79609974102414 96.82097737946998 C 229.73348189747597 96.72383454052996 229.19402904233004 96.61923624940403 228.0801423536103 96.29435303542536 C 227.00686233366554 95.98131524921334 225.2088852417088 95.22035305625678 224.86810723289443 94.93491747355827 C 224.7797750160245 94.8609335920255 224.32206013239187 94.56836218029423 223.85095497575236 94.2847587808221 C 223.37984981911285 94.00115618847914 222.7965940636605 93.5900990210435 222.55481851940448 93.37129840874286 C 222.31304297514845 93.15249779644225 221.9516912436731 92.85090671618465 221.75180570357963 92.70109547008428 C 221.34023439485975 92.39261715657969 219.40763622786892 90.3962662774735 219.40763622786892 90.2795844554744 C 219.40763622786892 90.23769848695774 219.21490992355425 89.96476856369073 218.9793573452345 89.67307207998472 C 218.74381283820648 89.38137801766624 218.5510865338918 89.09716362140892 218.5510865338918 89.0414862366856 C 218.5510865338918 88.98580885196228 218.439000505413 88.78768850337366 218.30201454189725 88.60121745016227 C 217.99298899481226 88.1805554455487 216.9480795653552 85.96990612067792 216.63991764648705 85.08479454659872 C 215.91923200647295 83.0148367152843 215.5234077879498 79.73476141227749 215.74439168466776 77.66376884136125 C 216.15909465458515 73.77717389870217 218.02819596940898 69.818049521283 220.79951434690963 66.9560308099141 C 221.75815781018383 65.96601665701013 223.18079562206918 64.79144353990944 224.08827516696448 64.24073365416514 C 224.71627816385748 63.8596250147536 226.90239560459503 62.786750980783616 226.90239560459503 62.85965573060992 C 226.90239560459503 62.89543092414558 226.97466595089008 62.863320097062676 227.06299816776 62.78830470444475 C 227.1513303846299 62.71328769756847 227.22360073092494 62.683864610637045 227.22360073092494 62.7229207842675 C 227.22360073092494 62.76197776502714 227.3663253828722 62.718408932181404 227.54076214009007 62.62609514709312 C 227.71519889730797 62.53378378339235 228.47404560469786 62.30349691580779 229.22708098203051 62.1143453866075 C 230.43080114788495 61.81198995502153 230.81903835216667 61.76542021590457 232.44011694292294 61.72894362711617 C 233.46454143392828 61.70589201788916 234.60653236050808 61.74006263862568 235.009741810979 61.80583075229004 C 235.69379185775728 61.91740506087217 237.4069558160454 62.36849341398122 237.8768664215065 62.5607612689247 C 237.99464271066637 62.60894930203676 238.28372409584662 62.70947562647676 238.51927667416638 62.78415202484135 C 239.153333139869 62.98516754577931 240.74135979092478 63.7398874016994 241.4974219026622 64.1995369739636 C 243.96362123828305 65.69886497150418 246.13008508361867 67.86556288430046 247.48118703675786 70.18394619714056 C 248.6568271786274 72.20125822091151 249.5209719581376 74.59168507674859 249.81804957205077 76.64828411309394 C 249.88768948436575 77.13037106928326 249.9825134411871 77.73724100299731 250.02877001418432 77.9968839657918 C 250.23042236004105 79.12877770639719 250.00739561938212 81.74188585160644 249.55006896488248 83.60566576378204 C 248.93644900988113 86.10636180032591 248.14240339918626 87.76084101058612 246.2898078759833 90.39869896480579 C 245.46173369928667 91.57776859853826 243.45421780230805 93.41488499843044 242.1595906775167 94.1783404134074 C 241.19260149857695 94.74857959666068 239.25535426754038 95.72539557330134 238.61357357563668 95.96634219589504 C 236.47426962702684 96.76950998052143 233.63204495153622 97.08023372738981 230.79609974102408 96.82097737946995 L 230.79609974102414 96.82097737946998 Z  M 233.64767904364854 96.24014866144572 C 234.76027432568884 96.17469371390109 236.05832367818056 95.9729800262271 237.1273904838339 95.69941004952463 C 237.71626385834153 95.54871983975309 238.39941799173602 95.37367854278344 238.64552781965972 95.31042867214387 C 238.89162957629168 95.2471796086335 239.19349588759786 95.08594264193727 239.3163409479743 94.95212304617357 C 239.52457220373333 94.72529876274811 239.5294956916985 94.67919635142326 239.38895835981444 94.27160096101753 C 239.25204503792443 93.87448372155666 238.79204597872763 92.93618475625783 238.51681493018378 92.49260754724774 C 238.45657887988224 92.39552040022079 238.151153128916 91.8476968084049 237.83810807854147 91.27522026307958 C 237.52505495687512 90.7027421034959 237.08049627878873 89.89406969789864 236.85019004010397 89.47816975541531 C 236.6198757301275 89.06226981293196 236.4314514243135 88.65929120140504 236.4314514243135 88.5826639718254 C 236.4314514243135 88.50603593511659 236.31919589870802 88.30397114625163 236.18200815289862 88.13363137672411 C 236.04480426450573 87.9632908000674 235.90014250253944 87.74996413782902 235.86052053135757 87.65957293443468 C 235.70208107438057 87.29808237674133 235.07334358993867 86.21842684344624 234.74732797372803 85.74803841751378 C 234.283075343781 85.0781785087544 234.06557017380567 85.09269956973492 232.52530942730363 85.89637665287047 C 230.42554673695818 86.99200042975616 229.99932603371903 87.42107191324004 229.68545771158637 88.75522334658314 C 229.63584348122274 88.96613588546022 229.29723664988808 90.0015260334319 228.93298732467593 91.05608953494655 C 228.20846782108242 93.15377306053816 227.7368864582299 94.83180107159694 227.78296546280868 95.14827642096364 C 227.867786667769 95.73082028848395 231.33447104307606 96.37623790444846 233.64767904364854 96.24014866144572 Z  M 228.82961829128294 95.51977699468057 C 228.2598415930467 95.25555518807846 228.24942962669417 95.24304549300112 228.508413164953 95.1340806330405 C 228.8875863086038 94.97454832316106 229.66452885208858 94.26539333053555 229.83952252843693 93.91911070075031 C 230.09449463469795 93.41455084695215 231.27461434348658 88.1529023928972 231.1592836557258 88.0348791222099 C 231.04546229952155 87.9184006967628 230.7050152136688 87.90625501694319 230.50637265250418 88.01158698848884 C 230.1139625903897 88.21967780377148 230.36914455023606 87.73161486317329 230.81116077142244 87.42866457738563 C 231.4123670797182 87.01660091986925 233.81304366894375 85.79696658807896 234.02292146821898 85.79696658807896 C 234.40108570040155 85.79696658807896 234.61788059670323 86.06437978343747 235.28732160542097 87.35660650606351 C 235.6702236858585 88.09571486948818 236.53551458879667 89.66955461104175 237.21018579456594 90.8540271674691 C 238.81866509890648 93.67788803997888 238.92362417677347 93.90572284913094 238.83611523166167 94.38309132816548 C 238.74122912589388 94.90066049000006 238.46573979601416 94.79922453098027 238.46573979601416 94.24671797569329 C 238.46573979601416 93.96833508772255 238.37260516055528 93.72824725057066 238.1621462282743 93.46409243569005 C 237.8516274922163 93.07434186420589 237.43213824629345 92.30429704664738 236.16396881584598 89.7960914802629 C 234.647712090997 86.79720303197942 234.34622513040296 86.3429402398266 233.87414334746217 86.34586204743871 C 233.6106963848677 86.34750051966319 232.65399003161258 86.83451661372189 232.4481963059609 87.07175851340412 C 232.2765602869789 87.26962380917354 231.72354766169946 89.41608215078716 230.97001993557026 92.80913051723573 C 230.78935214112437 93.62265054065571 230.61372083272806 94.36221493206406 230.579732623185 94.45260613545841 C 230.44327129363276 94.8155511399244 230.45017224807575 95.39029006832618 230.5936878866141 95.61442741872935 C 230.6772903265208 95.74500154808192 230.7248463774891 95.87317688952754 230.69935723815473 95.89926249732196 C 230.58572152166064 96.0155415618629 229.3639700900453 95.76757291545005 228.82961829128297 95.51977699468054 L 228.82961829128294 95.51977699468057 Z  M 225.42879565662446 94.20608467165565 C 225.52414182602178 94.13075853430547 225.65827862355113 93.8472584473677 225.7268926746852 93.57608564431382 C 225.79549865452748 93.30491203413075 225.91322651593688 93.00908627756743 225.98852359663675 92.91869507417307 C 226.0638126060449 92.82830387077871 226.21005634119342 92.48317382145483 226.3135222300874 92.151739947095 C 226.41698004768958 91.82030607273515 226.567711421049 91.47129373208136 226.64848083755277 91.37615741626945 C 226.72924218276478 91.28102110045754 226.79532991958231 91.16162974581925 226.79532991958231 91.11084114250659 C 226.79532991958231 90.98733181481941 227.28650030750276 89.71664091283047 227.60795564387683 89.00852953822772 C 227.74988123794117 88.69589128095714 227.8660029122931 88.41268741042644 227.8660029122931 88.37918670690486 C 227.8660029122931 88.34568600338326 228.2070472737351 87.49854017141963 228.62386492208998 86.49664023429028 C 229.14778054062458 85.23730886830486 229.36222669102813 84.5955184908511 229.31856100268143 84.41750373000215 C 229.21843662857037 84.00926182912757 228.77942292791363 83.67244763168974 227.83394374147738 83.27850563840181 C 227.351038356305 83.07729479220359 226.6429439314149 82.76513516253357 226.2603969878142 82.5848160478911 C 225.60996387115864 82.27822722378427 225.53011458191395 82.26504438297528 225.0291133606467 82.38155428646019 C 224.18329041340024 82.57825328057228 223.5478698993925 82.75082718365516 223.31561040810521 82.84691752615147 C 223.19784219023705 82.89564552868134 222.94164324763068 82.96768342177413 222.7462937734985 83.0070035266447 C 222.55094429936634 83.04632282438608 222.2618629141861 83.14749969494082 222.10388352083862 83.2318390437839 C 221.94591219878288 83.31617919975616 221.6948869541858 83.3854898033679 221.54605233438667 83.38586108278824 C 221.39720964329587 83.38618393445807 221.1803986044107 83.45086161660754 221.0642446448918 83.52948084099012 C 220.83757048749283 83.68290399014688 219.62975010543136 84.1975473087235 219.20004260415786 84.32380248986271 C 218.82254828919025 84.43471575965084 217.6804282219425 85.16826946009581 217.5462107114957 85.38601919021107 C 217.38750490189108 85.64349097552585 217.65193656207856 86.33812652142922 218.4599293649108 87.78616145992301 C 219.94351350077136 90.44499508713258 221.6953954455658 92.2276117037672 224.5094997406128 93.94187497199115 C 225.2651098600125 94.40216782620755 225.2031465532773 94.38436013522798 225.42879565662452 94.20608467165565 L 225.42879565662446 94.20608467165565 Z  M 224.7661345329735 93.60991807792618 C 224.60815513962604 93.47149461735046 224.58407847634726 93.3883465911691 224.67095786070286 93.2812227928558 C 224.73491477649938 93.20235497268743 224.8536273355018 93.13782499517693 224.93474381755067 93.13782499517693 C 225.01586837089127 93.13782499517693 225.0822305316281 93.12493433512914 225.0822305316281 93.10918240215736 C 225.0822305316281 93.09342804779803 225.30386820297753 92.56340649705747 225.57474075397843 91.9313581687413 C 225.84562137627108 91.2993074190376 226.25251940706994 90.28913440786846 226.4789594970083 89.68652611619638 C 226.7053915156549 89.08391863165349 227.2084670589009 87.80200701987904 227.59689797418457 86.83783472175874 C 227.9861763751016 85.87157680185123 228.28914038208524 84.96195190760977 228.27194045937415 84.81108735793654 C 228.23800067758157 84.51332933412917 227.72402889047825 84.20133032316491 226.97994457569206 84.02681043164205 C 226.6313454851757 83.94504743912432 226.43975723299724 83.99074386447435 225.58806645665132 84.35879315384062 C 225.04486852213518 84.59353133882318 224.28725672238244 84.89711602814208 223.90449185390457 85.03342561740949 C 223.18994039561755 85.28788600377379 222.7463987002912 85.48933333882016 220.79951434690966 86.44362799010153 C 219.28479923878422 87.18609239663425 218.88923330159696 87.4806775956562 218.8725095850989 87.87870285543852 C 218.8687160779782 87.96909405883287 218.74300570903188 87.84583332693148 218.59317024905627 87.60478984883682 C 218.26842182564977 87.08238114047123 217.58587303913626 85.65251790821472 217.63651232355164 85.60069860094606 C 217.6561094199113 85.5806438623444 218.03650939990752 85.64125280632462 218.48183485070982 85.73538424631414 C 218.92716837280386 85.82951487917447 219.42385145298692 85.90653114501629 219.58557592570463 85.90653114501629 C 219.74730039842228 85.90653114501629 221.07491489258018 85.37651120853407 222.535850983801 84.72870771872941 C 224.768216926244 83.7388283563976 225.18758510279065 83.51740780279619 225.16392814668268 83.34109769876403 C 225.1484393378218 83.22571535473607 224.9802739742907 83.05315113720329 224.79022733883573 82.957620135225 C 224.26457639257572 82.69338864307281 224.3696565398189 82.5891010966791 225.10900300635006 82.64126827662201 C 225.64758416198742 82.67926872529208 226.03569222560122 82.81400521979815 227.09768857968493 83.33167688703793 C 228.2601967298835 83.89834452369354 228.4417281525462 84.02408475641936 228.6234048584604 84.38851084292077 C 228.8926470085286 84.92857873049778 228.88837729519486 84.97719454207237 228.4938364120594 85.86398494483478 C 228.3091652569074 86.2790809866602 228.02293303771353 87.02608307341262 227.85777019471197 87.52398976142442 C 227.69260735171045 88.02189564230702 227.46494849671842 88.56424205554396 227.35186162806306 88.7292047305102 C 227.2387747594077 88.89416659834728 227.08394316984123 89.22635271709785 227.00780667479978 89.46739619519252 C 226.93165403717478 89.708438866158 226.7375717558468 90.20148179376356 226.57651720034403 90.56304660734097 C 226.25904101080084 91.27578363924343 225.73347077745825 92.53545077096548 225.50979106929708 93.11976628702408 C 225.38266822429517 93.45185312888617 225.13483921122952 93.79521556531765 225.02228504782943 93.79521556531765 C 224.99771603575414 93.79521556531765 224.88244991832727 93.71183266454648 224.76613453297347 93.60991807792615 L 224.7661345329735 93.60991807792618 Z  M 242.2632906338713 93.38573391403088 C 242.43809867050948 93.35935935399198 242.72718005568973 93.23208315444685 242.90570088653118 93.1028980944038 C 243.38130175267327 92.75872126463511 244.84386824482684 91.344127302104 245.3392357044553 90.7491827019449 C 246.12340205405286 89.80737676038237 246.1494158273507 89.77058135557002 246.95024132311238 88.47055615085884 C 247.72941154311908 87.20569272151062 248.85133723841795 84.48156153694549 248.85133723841795 83.85454081625801 C 248.85133723841795 83.73802526286889 248.74293171897537 83.58533821551936 248.61043339367052 83.51523581818732 C 248.28772700707577 83.34449894110588 246.93515607883882 83.06497880812813 246.07082565961844 82.99040895081458 C 245.68627703566466 82.95723029183367 245.03436687261956 82.8539500426499 244.62215793185175 82.76089450585013 C 243.72302410262193 82.55792250379291 242.80046738474482 82.41260777432433 241.9922647283272 82.34665240669145 C 241.6646832815178 82.3199202884282 240.7837582864673 82.19742794350103 240.03463748563152 82.07444809255242 C 238.8161226420064 81.87441000504492 238.64049940490185 81.86783270940097 238.36800452425996 82.01203198635022 C 237.99695917139752 82.20838472204645 237.9605092178719 82.29513980850916 237.69848280262474 83.60566576378206 C 237.39552686693287 85.12081591453264 237.3440320255924 86.36253572192794 237.56559705531606 86.80956179390114 C 238.20849965677246 88.1066522769334 241.71797802091763 93.4910578142848 241.891922429339 93.44718953651525 C 241.92135843033722 93.4397639481088 242.08848259723308 93.41210847406978 242.2632906338713 93.38573391403088 L 242.2632906338713 93.38573391403088 Z  M 242.07129881710551 93.1752975813668 C 242.0325404741405 93.13564574640547 242.05533380203164 93.0360153353493 242.1219381015209 92.95389397747805 C 242.20129504196908 92.85604086486438 242.22383008852435 92.48965587585617 242.18731556466474 91.89075876412898 C 242.13619200274462 91.05207245304447 242.09753858657228 90.92668977854302 241.71732424628618 90.36586656424079 C 241.126400763675 89.49425745412373 238.95889572170415 86.65544693504171 238.70784626323177 86.42432388163226 C 238.419354082349 86.15872269127074 238.19962123585168 86.27604214531779 238.07837429124095 86.76041408420045 L 237.97673251428165 87.1665300068291 L 237.7743690876221 86.7418597987344 C 237.59887499118548 86.37359581300768 237.58869709229356 86.25332630182743 237.6976676021584 85.8363762842879 C 237.76678207338068 85.57192767438774 237.82332954335425 85.15187505230101 237.82332954335425 84.90292493681181 C 237.82332954335425 84.65397401419344 237.9308149355378 84.00740543202595 238.06218327999818 83.46610667245766 C 238.37212088305048 82.18900393630557 238.47420658105585 82.11085930387765 239.6167302128909 82.27617711568072 C 240.0731052620937 82.34221238910189 240.71149601146396 82.42409322247909 241.0353727353619 82.4581338954185 C 241.6358849125675 82.52124655409837 242.29896574338926 82.62623791713233 243.44440311154472 82.83957668630833 C 243.79773197902432 82.90538434930224 244.3518100148143 83.0056895203484 244.67568673871222 83.06247912907433 C 246.24894292587254 83.3383357027285 247.80161731908015 83.69285024296565 247.90647147015443 83.80014838118066 C 248.0449990503937 83.94190528524754 247.93624646540601 84.30667278738983 247.78413490115798 84.21047186819659 C 247.6449777601626 84.122460081609 246.2745047068326 83.85607032604389 244.9433630581817 83.65828816457945 C 243.50311368770625 83.44429642790121 241.047770239484 82.99248488705169 240.5381569499236 82.84768187747981 C 240.31107922793728 82.78315916413189 239.90197773449177 82.73009203515926 239.6290389328038 82.72975626942264 C 239.04228023673366 82.72902985316549 238.86179001070616 82.9368672298873 238.6182468535577 83.89371483074797 C 238.40807848777962 84.71943703302979 238.41068551501363 84.73246086939139 238.90338137707408 85.31499666561994 C 239.14407536823614 85.59959121971852 239.76284480737155 86.40378405839664 240.27840663894887 87.10209284917369 C 240.79397654181793 87.8004024470799 241.34234010305164 88.51965785419657 241.49700219549143 88.70044026098526 C 242.34280900015438 89.68911619371772 242.75897287387784 90.21050388367742 243.06179159761 90.6608981056963 C 243.44809976316446 91.23547157261729 243.73290336371923 91.42756105201317 244.0471671791475 91.32549230372048 C 244.4888444060805 91.18203881412856 244.19592915732085 91.60265481237919 243.28380054837976 92.42163022189041 C 242.40143886339845 93.21389207710936 242.21951194744014 93.32697248873134 242.07129881710551 93.17529758136679 L 242.07129881710551 93.1752975813668 Z  M 233.5941421654963 84.4040400082404 C 233.7119184546562 84.37504066412563 233.94077993211835 84.2236224238386 234.10272232971317 84.06755592663498 C 234.53565834768514 83.65032260675517 234.51673923983216 82.99804681419397 234.05624783183885 82.4657935512856 C 233.40682362665154 81.71514969769731 232.454169061853 82.07755957552055 232.14118051052066 83.19432206548942 C 232.0178108161807 83.6345222460329 232.24732606827433 84.07241726565368 232.72229737366024 84.3030649199793 C 233.09681338197356 84.48492726560363 233.21163557835433 84.4982255258846 233.5941421654963 84.40404000824037 L 233.5941421654963 84.4040400082404 Z  M 230.00737311158997 82.75715749777166 C 230.35179127298184 82.6940956882298 230.50036761144503 82.56469189618039 230.70109256588015 82.15295835449643 C 230.90580473843784 81.73303164456092 230.9098888120614 81.2016008462815 230.7106489753076 80.9105113237148 C 230.47541117736594 80.56683410690522 229.76426580419582 80.3851937218039 229.31084484777213 80.55297650610625 C 228.66807945827543 80.79082375266944 228.50226284064243 81.82749723602873 229.01698525787816 82.39015182642817 C 229.3362452028973 82.73913995320672 229.59072496036177 82.83344250458127 230.00737311158997 82.75715749777166 L 230.00737311158997 82.75715749777166 Z  M 218.06927884439693 82.3550481643658 C 218.8191502753651 82.19328010667269 220.9698831730875 81.56208249250656 221.2813220364046 81.41237698032808 C 221.39909832556447 81.35576494002055 222.2904433582592 81.08264211288079 223.26208160124472 80.80543763350502 C 226.11441960529328 79.99168192836603 226.90239560459503 79.57856577440594 226.90239560459503 78.89691451553462 C 226.90239560459503 78.5562051127001 226.4716630492698 76.67661031147709 226.24900032386864 76.04567662855106 C 225.97494768391974 75.26912715697433 225.67969983184543 74.91533096170261 224.8219717292734 74.33572181586119 C 224.34679864159386 74.01462403771149 223.76529435645045 73.60737248433414 223.52974984942244 73.43071612188606 C 222.7345904004666 72.83437115260901 220.85896748191186 71.69128656599759 219.93062364785274 71.23726106982211 C 219.21263381928188 70.88611467963064 218.933811045911 70.80135481648757 218.67257561725495 70.85482066727243 C 218.48797710372867 70.89259996254867 218.33694709257463 70.98737710587788 218.33694709257463 71.06543698974247 C 218.33694709257463 71.14349687360703 218.170960977815 71.54409364693967 217.96808905977542 71.95565284872194 C 217.3935422281172 73.12116997648344 216.75806521506726 75.30020243732619 216.51966347076112 76.92219792682482 C 216.31568578575232 78.31001860750479 216.38408191200924 81.89386504666983 216.62207202043632 82.28791680952551 C 216.7405666545616 82.48411941919525 217.3417245351069 82.51200492504903 218.06927884439693 82.3550481643658 L 218.06927884439693 82.3550481643658 Z  M 217.3285602582689 82.00524967989594 C 217.23540948022654 81.96867300708989 217.1592084148511 81.85249241230824 217.1592084148511 81.7470708494242 C 217.1592084148511 81.58969599582852 217.2925542257893 81.54271381370333 217.90440656789826 81.48452141447191 C 218.31428290535143 81.44554030385467 218.75994735040706 81.36784120673116 218.89479442161007 81.31185711292149 C 219.15368110436793 81.20437091360878 219.39333389889475 81.13330641830059 221.87019541091223 80.42953417014058 C 225.83434578170176 79.30316765012296 226.04584591061797 79.21208957980102 226.04584591061797 78.6314061450282 C 226.04584591061797 78.43634562314054 225.97276843514828 78.02490103370108 225.88343537810186 77.71708456611967 L 225.72102484558576 77.15741877505383 L 224.57185046935186 76.57446569304199 C 223.93980375529404 76.25384008545942 223.0372396270721 75.7671298933579 222.56613447043264 75.49288515666544 C 222.09503738508485 75.21864041997297 221.00761646200078 74.639176557383 220.14963814938463 74.20518723583817 C 218.88583528777187 73.5659215584426 218.49454713521004 73.41611515511727 218.08857730296202 73.41611515511727 C 217.8129669037061 73.41611515511727 217.58747115490206 73.37029120335767 217.58747115490206 73.31428208854358 C 217.58747115490206 73.09683664612714 218.5448474253721 71.11524896675385 218.64990335874006 71.11524896675385 C 218.71108375017587 71.11524896675385 218.79337864081967 71.25083617540997 218.8327826871244 71.41655351615447 C 218.87217866213737 71.58227085689899 219.0363971640046 72.01368301498925 219.1977019295515 72.37524782856667 C 219.5513052209505 73.16785190655567 219.69692746663458 73.26633054427967 222.7622587885724 74.78590941281136 C 225.07168135331594 75.9307616123152 225.1893042879326 75.95051609886391 225.1893042879326 75.19354193115912 C 225.1893042879326 74.81343897469914 225.19317850797077 74.81005468206999 225.40343565795808 75.00480849487127 C 225.52121194711796 75.11387989588292 225.61757509927529 75.24965597276591 225.61757509927529 75.30653597995939 C 225.61757509927529 75.36341437289454 225.68788412167603 75.56531612166623 225.77380302231384 75.75520536693212 C 226.17230690969672 76.6358567451924 226.4855133859062 77.69895402347026 226.54624178500427 78.3770692494276 C 226.60682490085088 79.05344914765953 226.59056124798238 79.14394689210494 226.36417765708626 79.39054584030846 C 226.22745804619817 79.53947327996262 226.07104448344944 79.66132395719596 226.01660362062165 79.66132395719596 C 225.9621546865021 79.66132395719596 225.7657882296099 79.72856508160399 225.5802211610741 79.81074858842169 C 225.39466216383 79.89293209523937 224.64057751857035 80.12153690562403 223.9044918539046 80.31875730518296 C 223.1683981179471 80.51597770474189 222.5179569299998 80.71329415267257 222.4590768567116 80.75723668632617 C 222.40018064083992 80.80117921997976 222.2315471423875 80.86168565855479 222.08433485222943 80.89169391413782 C 221.6896890423012 80.97213805758422 219.17499738586952 81.7333666031684 218.92582853837402 81.84781267735382 C 218.80805224921414 81.90190728176572 218.63941875076173 81.97053263270821 218.55108653389183 82.00031085647647 C 218.31663165124957 82.07935382367575 217.52541099266585 82.08255005520721 217.3285602582689 82.00525048702512 L 217.3285602582689 82.00524967989594 Z  M 236.80618535750392 82.05726834807072 C 237.1616046895458 81.8759871354521 237.4296522884356 81.41134950488879 237.414631614496 81.00257570588812 C 237.39516365880428 80.47271477385331 237.07953579507094 79.96720815753335 236.70400280399764 79.8644323640837 C 236.32176256948327 79.75982115889097 235.54372233032103 80.07844912176637 235.36993127644283 80.41077003108911 C 235.04369773535504 81.0345541637864 235.40758385243862 81.87388940672727 236.08809060214037 82.0672977351945 C 236.54984113164608 82.19852967482439 236.52865399081242 82.19882589123148 236.80618535750392 82.0572723837166 L 236.80618535750392 82.05726834807072 Z  M 249.14810249334053 80.84131856096255 C 249.4892840667422 80.67305714905964 249.53089157569363 80.38996224096752 249.46422270587038 78.69061794840715 C 249.40797387369145 77.25722998304511 249.17888640006038 75.81886768057993 248.7844585150093 74.42277473298932 C 248.5105592296036 73.45329071777087 247.806678019005 71.66071816276738 247.5308900513307 71.2303141090162 C 247.393807232314 71.01637725712182 247.14665620775503 70.61946744985883 246.9816709331719 70.34829383967578 C 246.64034407651877 69.78730597102192 246.20287199258553 69.37194196231053 245.94724611169306 69.36614919622431 C 245.78749103416146 69.36253325752203 245.1896665971073 69.85502572303051 243.9150482045547 71.04030863714917 C 243.64390930092614 71.29243884158635 243.21781773835494 71.67129236208402 242.9681726846464 71.88220490096111 C 242.34813605270688 72.4060381923199 242.0989591339196 72.64782987915943 241.78241921421892 73.03282242415922 C 241.6338751609227 73.2135039398011 241.0336374076365 73.80507151149361 240.44857368283306 74.34741792473054 C 239.86351802932134 74.88976514509665 239.12428456087457 75.59697899205722 238.80583981632185 75.91900496875775 C 238.27362690987218 76.45720031664963 238.23178533346015 76.53560968744682 238.28788888238765 76.88944704630646 C 238.3521282933953 77.29455486459602 238.380563454217 77.33590409221156 239.62393787642026 78.83249915036691 C 240.53681711549376 79.93128848787545 240.6900909457532 80.04808007944229 241.5037982231417 80.2649702169866 C 242.11834637669386 80.42877143307057 242.3056972007056 80.44993274577064 244.86395768998307 80.6445154471869 C 245.64471795446374 80.70389997620924 246.5842405275913 80.80242865594207 246.95178293983594 80.86346779977234 C 247.80714615392634 81.00551769172961 248.83620356639398 80.99514043193156 249.1481024933406 80.84131856096255 L 249.14810249334053 80.84131856096255 Z  M 248.69479453500128 80.00062572674996 C 247.8095271849914 79.12493173588017 247.7989295789287 79.12279526495496 244.63847001247072 79.18303938654824 C 243.09842719084583 79.2123954817582 241.72284500984057 79.26083453204356 241.58162968944987 79.29068055466249 C 241.3280297027857 79.34427877463199 241.32994259892953 79.35025960181589 241.7371957665652 79.7770477168648 C 242.18525738526947 80.24661287103913 242.17188325484608 80.28843991912606 241.64757214301594 80.05718772504866 C 241.02186139297885 79.78120523924323 239.3748013140917 78.00245961413007 238.95615148251045 77.1505605984571 C 238.57784196707644 76.38077244797613 238.58230539141206 76.37121281003198 239.8843096768594 75.16218980550036 C 240.5468416598424 74.5469741561208 241.53980425562128 73.62202268598259 242.09089591346515 73.10674092822885 C 242.64199564260082 72.59146078473347 243.26834402468583 72.03701146952316 243.48278210379766 71.87463322217404 C 243.6972282542012 71.71225497482492 244.06540022720202 71.388479949203 244.30095280552177 71.15513164065914 C 245.29757976775335 70.16781975623178 245.8472105217912 69.8881317403857 245.9984100300719 70.29135168353582 C 246.03304394295463 70.38370986072871 245.9442516624552 70.4812320503808 245.7666267449976 70.54590973253025 C 245.49690031742466 70.64412524614332 244.66658232162254 71.38261777000777 243.30442269879114 72.7358166447426 C 242.98347585379707 73.05465203981586 242.59459294617565 73.38270646432159 242.4402375628222 73.46482701506366 C 242.28587410817704 73.5469483729349 241.91150338311516 73.87773492969671 241.60829723737913 74.19990861103618 C 241.30509109164313 74.52208229237566 240.87451189086107 74.93359225927827 240.65146981474783 75.1143738589378 C 239.82135360123942 75.78720400305976 239.21521573368676 76.40624544472699 239.21521573368676 76.5812092572959 C 239.21521573368676 76.83161946946197 240.15012959922723 77.90152246094019 240.4891803516079 78.03912668540366 C 240.9210025313189 78.21437864308791 248.1403290772075 78.22767690336886 248.73927542381432 78.05432250637415 C 249.00152783523038 77.9784208859225 249.23716919775933 77.93789170154835 249.26294083230482 77.96425980455386 C 249.32794701602833 78.03078581251319 249.36668921640987 80.12287916144142 249.30602538764578 80.2913221774086 C 249.2317533609977 80.49755255994376 249.16510063375793 80.46584933309404 248.69479453500128 80.00062572674994 L 248.69479453500128 80.00062572674996 Z  M 229.75865625643223 78.92765645153737 C 230.08943393477307 78.86176242572176 230.5427015366536 78.21018479989661 230.5427015366536 77.80058692200868 C 230.5427015366536 77.38100404910156 230.28946475811802 76.85756302252165 230.01329743973162 76.70631508649046 C 229.32693900351393 76.33042211580528 228.29427372363577 76.95773340299561 228.29427372363577 77.75056589854105 C 228.29427372363577 78.13532276182187 228.57680121991814 78.60460864930178 228.9409456183376 78.82473537483631 C 229.23742837804906 79.0039503367679 229.32214465621672 79.01461332029375 229.75865625643223 78.92765645153739 L 229.75865625643223 78.92765645153737 Z  M 236.739952337435 77.88748325607693 C 237.21265560984025 77.392709843521 237.20856346492496 76.81019018987593 236.72916102037038 76.3519183871128 C 236.42089417470953 76.05723471833156 236.32943836793388 76.02782777398362 235.86368447772205 76.07362509048048 C 235.15748680639234 76.1430632205018 234.8968082968668 76.41913126199972 234.8968082968668 77.09760323905225 C 234.8968082968668 77.53951211205839 234.94588982197513 77.65875576205772 235.2375459492224 77.92542881996313 C 235.72634337736952 78.37235561504787 236.29030874554851 78.35811220650342 236.739952337435 77.88748325607693 Z  M 233.00096679248793 76.54096821803711 C 233.35250383319993 76.35744399344223 233.49340437321257 76.2014186598265 233.60478012801772 75.87232626720221 C 233.78715903631382 75.33347068764549 233.7333800194092 75.15928736898844 233.2506522026552 74.72557408562133 C 232.91815533917242 74.42682087154168 232.80503618535005 74.386136718366 232.4444592978824 74.43562665083672 C 231.96043200315728 74.50206306745767 231.6971222525225 74.71250505002597 231.46106118282273 75.22157514165185 C 231.30527718083022 75.5575144110644 231.30843305590298 75.61714834300167 231.50616356110027 76.07458638132744 C 231.6851605981547 76.48868158297633 231.78385635362667 76.58331344305411 232.1305909757497 76.67338018052027 C 232.47600190602637 76.76309743105382 232.61638588336723 76.74173917883515 233.00096679248793 76.54096821803708 L 233.00096679248793 76.54096821803711 Z  M 229.30898037937874 74.44989265899807 C 229.48429690739698 74.35634477340179 229.6631325186165 74.22106104531532 229.70640271366761 74.1492636767166 C 229.8381342662566 73.93062610450926 231.10928200335837 72.12286579982703 231.47615449838804 71.63240407132187 C 231.81415598284173 71.1805376456885 231.8197816731888 71.15412434344921 231.77052257966204 70.24815413011042 C 231.74291876189017 69.74017769851613 231.67106005147417 69.0248796457426 231.61086435763136 68.6586028120438 C 231.55066866378854 68.29232597834499 231.48606604465232 67.67216746990007 231.46729222005075 67.28047252423428 C 231.44852646674096 66.88877757856848 231.40261695928882 66.49434323648403 231.36527109237937 66.40395203308968 C 231.32792522546993 66.31356082969532 231.27297587126213 65.99308292675171 231.2431524482601 65.69177999160945 C 231.18653233666083 65.11968198986702 230.93507931360114 63.79445336954931 230.74940731827263 63.0896092538454 C 230.65408536275055 62.727709481660526 230.6002175616367 62.67719368800887 230.2975037646972 62.6657655460255 C 230.10848218329403 62.6586305241219 229.9198883803534 62.65788796528125 229.87839386948642 62.664102859925784 C 229.8369074299112 62.670325825862065 229.633736874077 62.69689571116123 229.4269100230818 62.72314678043643 C 229.22008317208662 62.74939865684079 229.0097533804736 62.79687722340837 228.95950151806204 62.82865470614215 C 228.90925772694226 62.86043218887593 228.75106848000937 62.90889464590737 228.60798061993356 62.93634753052356 C 228.1718806555971 63.020016962151715 225.9027661218339 63.90869281866602 225.61757509927529 64.10750729834481 C 225.47036280911718 64.21013942280138 225.09897039070967 64.42348222762324 224.79226937564755 64.58160448283462 C 224.48556836058546 64.73972593091682 224.02785347695283 65.0190103821756 223.77511711850548 65.20223596897586 C 223.52239690264167 65.38546236290529 223.1469769096528 65.64979555333348 222.94087647491477 65.78964440403156 C 222.73476796888497 65.92949325472965 222.10841958679995 66.48205792331721 221.5489902845823 67.01756714531598 C 220.33632712747314 68.17837790286032 220.25171577609822 68.42957103032577 220.87916992515247 69.00611954233703 C 221.0923004550014 69.20196620804076 221.30841736279643 69.36220556307715 221.35941178404863 69.36220556307715 C 221.41042234788432 69.36220556307715 221.55865969209418 69.4798139693687 221.6888415566679 69.62355721833431 C 221.8190153499499 69.76730046729992 222.0764411289017 69.97684411509687 222.2608701453013 70.08920941027012 C 222.44530723299266 70.20157389831421 222.983920673797 70.57822879894022 223.4577862122137 70.92621931405895 C 223.9316517506304 71.27421144343603 224.58545866723586 71.71795007828102 224.91070751073062 71.91230436214087 C 225.23595635422538 72.10666106738827 226.10919747953352 72.70941787082847 226.85123975750793 73.25176509119459 C 228.04948758755842 74.12753333794844 228.77430572894656 74.60147474650753 228.93668397629568 74.61539126773627 C 228.96612804858563 74.61790951076105 229.13366385136055 74.54343812320681 229.30898037937874 74.44989023761056 L 229.30898037937874 74.44989265899807 Z  M 228.2774208664698 74.00980144089314 C 228.09732613373788 73.91450369924631 227.67070186591144 73.63100441943772 227.32935079538308 73.37980241355133 C 226.9880077961465 73.12860202192331 226.40436461869035 72.70120371721839 226.0323749246936 72.43003010703535 C 225.66037715940513 72.15885649685228 225.19069255011294 71.7890743011481 224.98861968995624 71.60829189435941 C 224.78654682979953 71.4275094875707 224.4603778590457 71.18098802376792 224.26379347727638 71.06046749541436 C 223.34938069277112 70.49985897747257 221.3245922314557 68.99949059042589 221.22470999609703 68.80850526374088 C 221.14694310012285 68.6598013988681 221.1478793699654 68.52892621033338 221.2277770869606 68.37612293638273 C 221.37334283360246 68.09777798348321 221.5532115701655 68.09509912175267 221.623528663858 68.37023089340803 C 221.65348929881975 68.48751079812553 222.1187427689433 68.91287029453535 222.65740463749808 69.31547359099608 C 223.19608264863638 69.71807688745682 223.68498500357617 70.1075877415761 223.74388121944787 70.18105102479124 C 223.8027693640278 70.25451430800638 224.01506047953512 70.40140132510712 224.21563207942705 70.50746536281414 C 224.41621175061073 70.61352940052117 224.63302278949593 70.74325765849878 224.69743976892198 70.79574849724071 C 225.0597923405738 71.09102702022365 226.32710621409615 72.02655430393686 227.06631546866765 72.54443986040789 C 227.53558037078906 72.87321020849151 227.94362452501588 73.17346871848183 227.97306052601408 73.21167982786648 C 228.00251266959583 73.24989013012194 228.20649842589637 73.3841883534862 228.4263765556451 73.51011906869721 L 228.82615570712383 73.73908466582293 L 229.22694377007085 73.29580286609075 C 230.11694896833575 72.31145718138012 230.13042802555182 72.23711493449382 229.7475259451143 70.42650707808353 C 229.6046156534569 69.75075270496194 229.42843549722184 68.75412493560118 229.3560117963836 68.21177771523506 C 229.28359616683713 67.66943130199813 229.18471477165497 67.17257630330087 229.1362789498863 67.1076572895282 C 229.08785119940939 67.04273827575554 228.99913156053566 66.63548187960316 228.93914572027825 66.202641910003 C 228.87915988002084 65.76980194040281 228.7870260847385 65.32987456952034 228.73441740513707 65.22502606835029 C 228.6818006542439 65.12017676005105 228.55877802544902 64.75089175591845 228.4610346824031 64.40439200838523 C 228.36329133935715 64.0578930679812 228.24681452816844 63.77439298104341 228.20219642739568 63.77439298104341 C 228.15757025533122 63.77439298104341 228.02909950460767 63.70557956900323 227.91669869575074 63.62147590187913 C 227.72419838760499 63.477436436506444 227.73699945631438 63.45781674052989 228.1371418159217 63.28353818063024 C 228.3707814980976 63.18177694855308 228.65830512397085 63.07997132437132 228.77607334183898 63.05730310150225 C 229.41500486775624 62.93433132184537 230.27976306543917 62.81532981059843 230.3115235984603 62.84600798339638 C 230.33159690103298 62.865400876074865 230.2834193606002 63.00163863084572 230.20445791344758 63.14875971540709 C 229.45652359249848 64.54231101322682 229.44737881895009 64.56835707169165 229.50704180753766 65.13644444856541 C 229.64590031073848 66.458630999024 229.9008724169995 68.02643825712649 230.04433155649565 68.44019607878039 C 230.12968546671118 68.6863478774212 230.2541125002699 69.25334724416759 230.32082979784363 69.70019413346404 C 230.4319230574377 70.44413720064466 230.60783686104512 70.78655691020019 230.8789434795067 70.78655691020019 C 230.92358579415466 70.78655691020019 231.10687675841808 70.6263175551638 231.28625314618458 70.4304700823309 L 231.61238983177142 70.07438406159078 L 231.61232526143743 70.51264390359849 C 231.6122849049787 70.75368738169315 231.52819011627554 71.0807748654477 231.425442572347 71.23950488892756 C 229.51882589348705 74.185097790682 229.17703897320442 74.4858720562149 228.27741279517812 74.00980386228068 L 228.2774208664698 74.00980144089314 Z  M 238.82644582414974 73.10561256164273 C 239.71712901092133 72.30827063539873 242.16457873581584 69.85065511854995 242.33451171223936 69.5829658850137 C 242.43071343856178 69.43141850405874 242.78002280275183 69.02056634743346 243.1107520533422 68.66995911953063 C 243.44148130393262 68.31935269875697 243.71207135972242 67.99419102521307 243.71207135972242 67.94737672595619 C 243.71207135972242 67.90056242669932 243.80843451187974 67.77302068165578 243.92621080103964 67.6639500877733 C 244.2808956455326 67.33548241313017 244.1906908889776 67.03059824584014 243.5662554030364 66.44723594933677 C 241.1373615778663 64.17814724370712 237.40314616634123 62.604055677851086 234.27888634336472 62.53231803681127 L 233.49820679180152 62.514392504972236 L 233.40303011953085 62.95265234697995 C 233.30429400760016 63.40723476228591 233.3178053499832 63.75989936245483 233.60867049063938 68.32134065791405 C 233.70473500500208 69.82786017640046 233.77845818381144 71.4549018374988 233.7725015705028 71.93698717942976 C 233.76467241750902 72.56971833902767 233.81280960148308 72.91386530501687 233.94557427941555 73.17433315382783 L 234.12948673314344 73.53515863708128 L 236.256812884802 73.51836227895754 L 238.3841390364605 73.5015659208338 L 238.82644582414974 73.10561256164273 Z  M 234.3038992764861 72.99199218060295 C 234.08692681176598 72.7699557874413 234.0235348863917 72.20693314613825 233.9137491760605 69.52655643412902 C 233.88165772007778 68.74316654279741 233.80998464937193 67.11612488169908 233.75446223345014 65.91090910548411 C 233.6561781138572 63.7772421470298 233.67984314125692 63.24392185935259 233.874304773297 63.210131396457314 C 234.21262103812882 63.151344143024204 234.23682684207552 63.191714322950936 234.24551155199438 63.82917364525373 C 234.26101650343873 64.96799901121071 234.499192251576 68.93871457070654 234.61024515471132 69.91003399766807 C 234.66881851891316 70.42225027881662 234.7171009861387 71.21728220136286 234.7175449071847 71.67677115492131 L 234.7184327492768 72.51220392830294 L 235.0530120060301 72.58068238173566 C 235.77318915466418 72.72807708308721 236.17543812141724 72.65932581999348 236.59654969698107 72.31686252546251 C 236.82128674436098 72.13409861655013 237.07878516493852 71.87525067599262 237.1687558540329 71.74164577658937 C 237.38940075649754 71.4139545602122 238.71767709657857 69.88696382447003 239.42911303625155 69.1430780634608 C 240.52663114531006 67.99550422438017 241.76499329533897 66.30085177371183 241.84055672866646 65.84307231974522 C 241.8791778596718 65.60920906278793 241.9530301791491 65.41786617787857 242.00469451761626 65.41786617787857 C 242.05635885608336 65.41786617787857 242.26325027741254 65.56577905616024 242.46445950935242 65.74656146294893 C 242.66566067000053 65.92734386973764 242.87835535009518 66.07525674801931 242.9370982114237 66.07525674801931 C 242.99584107275217 66.07525674801931 243.22060233400737 66.28154201533833 243.43657395855092 66.53366818412964 C 243.7666655770934 66.91902958716224 243.80271196603172 67.00727301982293 243.66274769586167 67.08742336824977 C 243.5711869622933 67.13986255072453 243.4504323664791 67.15378230046994 243.39442567305252 67.11835578673772 C 243.33841090833423 67.08292846587634 242.97617940605858 67.14021768756136 242.58946767591686 67.24566427144981 C 241.92326325518934 67.42732322052214 241.85067005722442 67.48071077977707 241.20640340746291 68.2628407424671 C 240.83243624698838 68.71684121763816 240.2175571704746 69.50738227345686 239.8400144277565 70.01959936173458 C 239.46247168503842 70.53181564288312 239.07311257120395 71.04950990973978 238.97478002386055 71.1700320523517 C 238.43193722618122 71.83534055969541 238.14455888355943 72.25773062787184 238.14455888355943 72.39031289461086 C 238.14455888355943 72.56127173221532 238.647521428721 72.59185869941655 238.88892569355673 72.43558154149835 C 238.974449100899 72.3802197442823 239.08074801319583 72.35790100834583 239.12514818909142 72.38598668223491 C 239.2976478362902 72.49507906860512 239.0555655829478 72.79367166397904 238.6368753949078 72.9882543653953 C 238.26409471431998 73.1614981856931 237.92027382851728 73.19253553097377 236.35117435660624 73.19457998917306 C 234.68760041480647 73.19675116665277 234.48435721734657 73.17663427910466 234.30392349036129 72.99199218060295 L 234.3038992764861 72.99199218060295 Z " fill-rule="evenodd" fill="rgb(2,2,2)"/><path d=" M 40.82175278564838 77.9176115446455 C 40.82175278564838 66.6033543921972 50.00749484917337 57.417612917233086 61.321752726563595 57.41761291723308 C 72.63601060395382 57.41761291723308 81.82175266747882 66.60335439219719 81.82175266747882 77.9176115446455 C 81.82175266747883 89.23186869709379 72.63601060395384 98.4176101720579 61.32175272656361 98.41761017205792 C 50.00749484917338 98.41761017205792 40.82175278564838 89.2318686970938 40.82175278564838 77.9176115446455 Z " fill="rgb(0,0,0)"/><path d=" M 77.60783241827859 78.12038474847358 C 77.92032423455717 69.43444213118612 71.3093672211505 62.01232663122761 61.763385351773636 61.70942538039327 C 52.44327742861336 61.41369188648813 44.92660952838666 69.14058167050449 45.026023304067735 78.39244026139806 C 45.11356413327711 86.53899544053198 51.83520240763592 94.07369261183678 61.3799512035919 94.13364065837378 C 70.80354869002802 94.19282719023039 77.28024837402226 87.22577697397831 77.60783241827858 78.12038474847358 L 77.60783241827859 78.12038474847358 Z  M 52.06684300260527 90.77261726831232 C 38.608230564695006 79.64676916720813 47.99504259135372 61.8637128676626 61.1546531838833 62.022449138339304 C 73.792747556112 62.42804240116627 78.91946812178335 72.95686928998262 76.93330433869083 81.9002836818394 C 74.80263468781351 88.55729857270802 72.32374362614479 90.38350157227262 66.80218113723029 93.0825380539911 C 60.641465746928276 94.85763682847042 56.651181087572084 93.68206025622351 52.06684300260527 90.77261726831232 Z  M 66.83140571567249 92.48749560831125 C 67.05654129457118 92.43011620936926 67.33269067146307 92.2838416871018 67.44507017724635 92.16244160253399 C 67.63556894526269 91.9566671558299 67.64007298590184 91.91484242646061 67.51150846851034 91.54507286443118 C 66.052981970784 88.68245936823593 64.88626562076209 86.39892140510449 63.265313080445694 83.81251733797014 C 62.84061158286694 83.20482130075962 62.64162897436802 83.21799477250477 61.23259523796004 83.94708869760612 C 59.31171050944242 84.94103669632266 58.92180087988278 85.33028858633404 58.634679364646985 86.5406283037409 C 58.032754943427605 88.46809737905909 57.32192134281905 90.27976130603341 56.89426637596874 92.3403907421519 C 59.7196879872709 93.93444086581897 63.58422869238996 93.31299070191952 66.83140571567247 92.48749560831125 L 66.83140571567249 92.48749560831125 Z  M 57.557910921290784 92.32751308957106 C 57.90478111989046 92.18278576011096 58.615533500094045 91.5394420491502 58.77561891828638 91.22529454449261 C 59.00886915400872 90.76755905349293 60.088450776846116 85.99420417705024 59.982945470792416 85.88713301630996 C 59.87881352795 85.78146479992317 59.567377576935996 85.7704462682784 59.3856579963294 85.866003180606 C 59.0266711900431 86.05478266987554 59.2601134012681 85.6120124067969 59.6644728792389 85.33717736528897 C 60.2144605433177 84.9633534698121 62.410615991618926 83.85690412490356 62.60261364529059 83.85690412490356 C 63.74258633105843 84.31213101081188 64.54878007077285 86.75375868936732 65.51835234691741 88.44465810364171 C 66.98979288903368 91.00645792434283 67.08581755872565 91.21314984979165 67.00575639044654 91.64621665850052 C 66.91896131222823 92.11575416259498 66.66694177928507 92.02373170350033 66.66694177928507 91.52249907973709 C 66.66694177928507 91.26995152269245 66.58174157447341 91.05214367958685 66.38921229633287 90.81250306414923 C 64.85330490369137 88.63097731471305 63.77661029706694 84.54171304243741 62.466517781256584 84.35486150331545 C 62.2255073050232 84.35634792139354 61.35030575577852 84.79816775557299 61.16205162440859 85.0133923065705 C 61.005037814258685 85.19289596125232 60.499130679058084 87.14015782822985 59.80979833474656 90.21832318029004 C 59.644522194309445 90.95634732947032 59.48386084960916 91.627277641954 59.45276081817951 91.70928032519625 C 59.327925055743364 92.03854389625963 59.334245479984546 92.55994567566847 59.465527189105885 92.76328254316965 C 59.542007275893226 92.88173908060747 59.58551187826346 92.99801944340093 59.5621942383644 93.02168424431981 C 58.764188992205405 93.067007547865 57.59804856869144 92.35789606086743 57.557910921290784 92.32751308957106 L 57.557910921290784 92.32751308957106 Z  M 54.740655652524524 91.48563664362648 C 55.80589079837526 88.47922281564938 57.434640497568594 85.35991443630395 58.29903973295251 82.60545872371983 C 57.15336685149053 81.44055141148064 55.63464865000957 80.85089887884152 54.375023540377185 80.7584502644161 C 51.71295093081244 81.54214552432731 49.6348161146032 81.94765502053944 47.52960536884683 83.48409362973214 C 47.384420203129565 83.71767141675278 47.62633148749079 84.34784312041971 48.365481474740534 85.6614976809607 C 49.72267444175927 88.07358517994777 51.32530808891873 89.69077070538572 53.89967742846417 91.24594696907002 C 54.59091476045586 91.6635228118381 54.53422291778807 91.64736771722895 54.740655652524524 91.48563664362646 L 54.740655652524524 91.48563664362648 Z  M 54.047373043062265 90.6466041621229 C 54.105888653005266 90.57505546454601 54.21448033444777 90.51651475571643 54.28869363356917 90.51651475571643 C 54.3628995490174 90.51651475571643 54.42361549356771 90.5048203797928 54.42361549356771 90.49052953169931 C 54.42361549356771 90.4762372191545 54.62636377538787 89.99540293766665 54.874167230945886 89.42201020790525 C 55.768123310065036 87.12055102188668 56.66068387495338 85.24273416818144 57.34158406449457 82.96251684839193 C 57.31052833510401 82.69239148229198 56.840343410743046 82.40934745897455 56.15965734772405 82.25102343134118 C 55.840749119452994 82.17684750811694 55.665482869204766 82.2183031957565 54.88635029169113 82.55219662963155 C 53.18368264030356 83.19883169490807 51.522068211790824 83.94990337302096 50.50574990075047 84.44355453236035 C 49.12007810628063 85.11711646384532 48.758211667454546 85.38436271867285 48.74291269662781 85.74545028112014 C 48.23450249621955 85.3346497223306 47.901838484816125 84.34527081169642 47.61222128804587 83.6788502770171 C 47.63014146285113 83.66065739841224 47.978133979774 83.71564168723927 48.38552076374816 83.80103677193755 C 48.79291493139549 83.88643185663582 49.24729141148036 83.95630156078757 49.39523068729336 83.95630156078757 C 49.54317734677953 83.95630156078757 50.75768821328866 83.47546801152538 52.094162593367315 82.88778223699352 C 54.136346304868354 81.9897667823652 54.51998719589909 81.78889385419049 54.49834564981164 81.62894575005605 C 54.48418376465446 81.5242718961077 54.3303449339715 81.36772131900885 54.156481581627276 81.28105655502615 C 53.67561248217642 81.04134564592573 53.771747906966056 80.94673623359469 54.448107137502205 80.99406217430418 C 54.9408048813857 81.02853609033072 55.295841422521264 81.15076871546736 56.267362988385045 81.6203999444456 C 57.330833436346026 82.13447873508655 57.4968996298133 82.24855070530685 57.66309872939779 82.5791571782201 C 57.909403299300465 83.06910474020043 57.9054973361888 83.11320888803132 57.54457600752964 83.91770374987644 C 56.63679030854635 86.27007312118192 55.75571873912443 88.1953733441123 54.81474342920187 90.50013120670314 C 54.698450576633746 90.80139959432857 54.47173489167477 91.11289717434352 54.368769569194626 91.11289717434352 C 54.09357268614281 91.09646456621141 54.08194340088599 90.69675795830901 54.047373043062265 90.64660416212291 L 54.047373043062265 90.6466041621229 Z  M 70.14096000997061 90.74141640096016 C 70.30087560367983 90.71748946325707 70.56533662592949 90.60202479984241 70.72864132562783 90.48482842275551 C 73.77181484264976 88.25808627471966 75.47063560031113 85.30699063046792 76.16775771982643 82.09474011660613 C 76.16775771982643 81.9890374856136 76.06858760536024 81.850520161927 75.94737722645496 81.78692416718063 C 72.8680901639149 81.24643839054573 69.42972030733722 80.36580231182043 66.57753288076142 80.4232205187221 C 66.23809804105294 80.60135125030224 66.2047533729769 80.68005525697222 65.96504242322301 81.86896126502863 C 65.68790363412512 83.24350185316968 65.64079579924356 84.36998782088043 65.84348501167831 84.77552807057002 C 67.00132618653916 86.82490319838308 68.21632437547808 88.91441747210942 70.1409600099706 90.74141640096015 L 70.14096000997061 90.74141640096016 Z  M 70.01164974158806 90.34965224472913 C 70.08425339995647 90.26088013531358 70.10486123179885 89.92849655073755 70.07146487801054 89.38517925749775 C 70.02468930842204 88.62432431241876 69.98933628124134 88.51057745038892 69.6415062051284 88.00179997348455 C 69.10093272435272 87.21107827619541 67.11807682684437 84.63571617192675 66.88842243996018 84.42604189138827 C 66.62450042585259 84.18508912757828 66.42349469090261 84.29152105532242 66.31257715240878 84.73094211825864 L 66.21958717239336 85.09936951066388 L 66.03446371845128 84.71410971491933 C 65.78186087532698 83.77066917737989 66.13875071843046 82.70727103981147 66.29775812033867 81.74235432383364 C 66.5812911704095 80.58376904789301 66.6746798687766 80.51287642450231 67.71986834194654 80.66285234745186 C 70.31619672552611 81.0278024002252 73.08261540445545 81.4317141800598 75.30338063546205 82.04539542976794 C 75.430106618232 82.17399768587069 75.33061900581912 82.50491315801 75.19147368476223 82.41763991450864 C 72.7168208514982 81.98199713594822 70.08979115484064 81.34916891760776 67.7311284435444 81.07433900167942 C 67.19435755445589 81.07367999859062 67.02925123850189 81.26222883677907 66.80645628400092 82.13027868873391 C 66.59442672499482 83.41156887535817 67.56727735203081 84.03771773128078 68.32518186915505 85.04091154333321 C 69.12334217245079 86.14660083801266 70.07798466142755 87.22811057713832 70.8714415649083 88.26945188132453 C 71.22483154692497 88.79070355447426 71.4853718387166 88.9649666701488 71.77286992128452 88.87237014614124 C 72.1769192849818 88.74222948393896 71.90895101797217 89.12381131022232 71.0745368793679 89.8667845725995 C 70.82129904035021 90.16053080607908 70.3928318694502 90.26927729911623 70.01164974158806 90.34965224472913 Z  M 62.67561602201066 82.28798691459208 C 63.07166886765516 81.90947384602556 63.054361537723764 81.31773080914364 62.633108215519556 80.83487192372186 C 62.039010487869845 80.15388961745698 61.16750815888781 80.48266699068597 60.88119146402852 81.49579124706098 C 60.99358573715817 82.7470799519547 61.953780748365475 82.94374477929458 62.675616022010644 82.28798691459208 L 62.67561602201066 82.28798691459208 Z  M 58.929162402042195 81.09919659818904 C 59.91591648567412 80.82782644847691 60.06459412880501 80.06000291184668 59.572523997141715 79.4239228793758 C 59.35733422601504 79.11213973135571 58.70676616589287 78.94735600900077 58.29198094139342 79.09956741687269 C 57.402381229449844 80.22241715198454 57.905216756608 80.84245265592004 58.92916240204218 81.09919659818904 L 58.929162402042195 81.09919659818904 Z  M 48.00811907655361 80.73440397393138 C 49.607511291187535 80.35731874539059 51.36941815248966 79.7226065104418 52.758530738660895 79.32860027925756 C 55.367861770708544 78.5903630524119 56.088707632147745 78.21558506690758 56.088707632147745 77.59719267734016 C 56.088707632147745 77.28810192305066 55.694677912954276 75.58293802080632 55.49097713729401 75.01055649467341 C 55.24027928184988 74.30607194158489 54.970177133291514 73.9851088805378 54.185521568240034 73.45928885153135 C 52.198043491321656 72.23423872073111 49.838258461702225 70.39071126218757 48.56001172831259 70.30142366591143 C 48.13144856966126 70.46686785580648 48.113122292831164 70.86432213759649 47.85970724565718 71.28902180375454 C 46.73813467345121 73.45186554784883 45.97961731145314 77.83116366953712 46.68419694087916 80.67350256959256 C 46.79259664681899 80.85149710720103 47.342540008858705 80.87679477132883 48.008119076553626 80.73440397393138 L 48.00811907655361 80.73440397393138 Z  M 47.33049723790387 80.41706762654965 C 47.24528226574586 80.38388535657717 47.17557300726361 80.27848659923113 47.17557300726361 80.18284840985591 C 47.17557300726361 80.04007831956957 47.29755867185267 79.99745546423716 47.85728540085448 79.94466419124454 C 49.574048484340636 79.63961019698678 50.40413579046205 79.29227017119754 51.485216298954796 78.98758082531559 C 55.11164831139976 77.96574454810661 55.30513008338039 77.88311874083261 55.30513008338039 77.35632338725475 C 55.27084768881062 76.87376617880251 55.1425046816145 76.48150410912662 55.007981539967616 76.0191255752535 C 53.196611452039875 75.1336216603789 51.62734462397597 74.2038525080295 49.911238687402744 73.3408681931506 C 48.7551105247194 72.76092790158911 48.39715004900496 72.62502389126244 48.02576605545127 72.62502389126244 C 47.773635767410426 72.62502389126244 47.56735808981071 72.5834525119695 47.56735808981071 72.5326411771459 C 47.56735808981071 72.3353751925439 48.44316510025607 70.5376835955035 48.53927837402617 70.5376835955035 C 48.59524661672245 70.5376835955035 48.6705231647816 70.6606879864797 48.706570257241125 70.81102636112811 C 48.74260996602747 70.96136473577651 48.89283818052594 71.3527408124108 49.040400889006804 71.6807515453798 C 49.36388699464882 72.39980006673085 49.49709584246985 72.48913965102842 52.301282009709425 73.8676979613342 C 54.41396503272287 74.9063058671532 54.521567301959394 74.92422709004035 54.521567301959394 74.23750120574373 C 54.521567301959394 73.8926727139485 54.525111465085274 73.88960322400598 54.71745615139635 74.06628268433946 C 54.825198710423265 74.16523199812308 54.91335238450648 74.28840772990237 54.91335238450648 74.34000913620689 C 54.91335238450648 74.39160907806009 54.97766417789495 74.57477386101303 55.05626337888464 74.74704166177979 C 55.420817474747835 75.54596575084757 55.70734091245613 76.51040505569885 55.76289566945438 77.12558956467511 C 55.81831752033541 77.7391997884948 55.80343941887986 77.82129985774905 55.5963421535573 78.045013100756 C 55.41249607507518 78.29479138037635 55.11123482570174 78.32141730184091 54.879173361361225 78.42622075973006 C 52.60223314480935 79.14300231045561 50.44320280525177 79.73635917267946 48.44887267962336 80.41258713777145 C 48.23439174112187 80.4842947283153 47.510577643064764 80.48719434190603 47.330497237903884 80.4170683587753 L 47.33049723790387 80.41706762654965 Z  M 65.05528528350094 78.47492182021819 C 64.32658319379938 78.25472911815677 63.99386011301053 78.66907731024104 63.83486747844867 78.97055877553184 C 63.53642679222959 79.53645497904529 63.64821560415855 80.36054273494614 64.4918519505633 80.47335747371815 C 65.94611806886539 80.24818710165933 65.94254437104681 79.06907021837424 65.05528528350092 78.47492182021819 L 65.05528528350094 78.47492182021819 Z  M 76.43924061526924 79.3611513707161 C 77.10950831543278 77.72523478081743 76.64763002339812 75.47048719818446 76.10656922019264 73.53826304946773 C 75.46146507822289 71.73209960160796 74.92554331154994 70.04966544812206 73.5110678080091 68.95090374035722 C 71.27084659817604 70.59219047320397 68.94062579596502 73.00655446175003 66.97806761602554 74.89564026827377 C 66.4911955902802 75.38388906673629 66.45291124484747 75.45502186014158 66.50424254078737 75.7760229969227 C 67.17514523684429 77.13586854840912 68.04179649254776 78.17849564084415 69.44617851485303 78.83828953335274 C 72.32649035256735 79.18251979678847 73.77499720578987 79.47884273234526 76.43924061526924 79.3611513707161 Z  M 76.02454399484792 78.59847684488636 C 75.21470272058312 77.8040493535612 75.20500795769918 77.80211115225445 72.31379781837276 77.85676447508577 C 70.90495605746743 77.88339552212992 69.64656402125595 77.92733931254254 69.51737927531742 77.95441628501011 C 69.2853842640355 78.00303972957889 69.28713419457891 78.00846625390234 69.65969219216808 78.39564740976357 C 70.0695820413499 78.8216350608474 70.05733991121924 78.85958119092626 69.57770388518927 78.64978975428312 C 69.00529200566605 78.39941910410849 67.4985575057545 76.78574460068253 67.11556637796352 76.01290385386955 C 66.76948623239399 75.31455461953777 66.77357678733512 75.30588140666349 67.96465187517431 74.20905863243104 C 69.25868490182049 72.95847798974495 70.77018925460563 71.67361161302547 72.00502737337634 70.5738650617557 C 72.91674857016399 69.67817808470781 73.41956194630262 69.424445054329 73.55788029596347 69.79024595331252 C 73.58956363757426 69.87403307047413 73.50832846525968 69.96250496737144 73.34584335328421 70.02118040572142 C 71.34895847673589 71.791240735474 69.17065675018131 73.45689447364204 67.35256013598756 75.49638968070265 C 67.35256013598756 75.72356122547448 68.20782576764913 76.69417538926784 68.51799911054952 76.81900961215396 C 68.91302562562217 76.97799776845571 75.51732256582146 76.99006191833472 76.06524280141016 76.83279522454603 C 76.30514572666671 76.76393745624843 76.52071944879869 76.7271694772472 76.54428813358584 76.75109055714506 C 76.60376362104209 76.81144206001754 76.63919786862776 78.70938486805478 76.58370956468812 78.86219596873751 C 76.51576500409563 79.04928767787405 76.45478324731086 79.02052658640177 76.0245439948479 78.59847684488636 L 76.02454399484792 78.59847684488636 Z  M 59.41889190930776 76.6026069100788 C 59.41889190930776 76.22196233263283 59.18722916331889 75.74709715467822 58.934582018155524 75.6098853893331 C 57.59759078095435 75.28158615945632 56.92321775850333 76.7914588896881 57.953594583276356 77.53171193375982 C 58.813342104557535 77.86138335451261 59.066594710921564 77.29918855168127 59.41889190930776 76.6026069100788 L 59.41889190930776 76.6026069100788 Z  M 65.08817216383989 76.68143905623826 C 65.52060436723698 76.23258180129605 65.51686822860844 75.70412063435482 65.07830019279966 75.28837755239925 C 63.68173748039089 74.52804980979131 63.084272797771575 75.69695727077955 63.7137604709679 76.71586244869466 C 64.16092310235696 77.12131409908011 64.676835114715 77.10839251296 65.08817216383989 76.68143905623826 L 65.08817216383989 76.68143905623826 Z  M 61.66772986574064 75.45988310625998 C 62.48452656014 74.8804546404308 62.19435558788132 74.34938821461185 61.896143795530776 73.81296189700397 C 60.828826453843575 73.37226676142939 60.1204811510963 73.92210598857136 60.30026620933003 75.03678262093077 C 60.71126360948868 75.73384972814199 61.14247012313808 75.8509370036064 61.66772986574064 75.45988310625998 L 61.66772986574064 75.45988310625998 Z  M 60.27282109612395 71.00684546783737 C 60.5820271778379 70.59691332867372 60.58716621437044 70.57295051191356 60.54210365695944 69.75105650407278 C 60.33790817519619 67.54661282388503 60.04211822764833 65.20140491236812 59.60798039574692 63.256842029152054 C 59.52077921550378 62.92852742253654 59.47150058070761 62.8826996155156 59.19458330180511 62.87233203247743 C 56.68298995162691 62.86667192817028 53.24026372787367 65.05161424250907 51.19137564112616 66.82027602126209 C 50.08202304803132 67.87336046760049 50.004627385769794 68.10124227125692 50.578619371353284 68.62428570058255 C 53.09464292543883 70.3286639246999 55.61219489987245 72.28994498405321 57.94968862016471 73.71300430849448 C 59.056050825622066 73.17623970263435 59.662014116070324 71.85833237549363 60.27282109612395 71.00684546783737 Z  M 57.346590194909865 73.16361466790421 C 55.03177911862328 71.46595461416437 53.13408650756067 70.24869536432507 50.89472180381637 68.44501050030485 C 50.82358749641057 68.31010671022183 50.82443661882614 68.191377052615 50.897527599624354 68.05275502065983 C 51.0306995290795 67.8002411459953 51.1952446858719 67.79781088904892 51.25956386293355 68.047409773384 C 53.42427224716572 69.92923922367437 55.72297953224907 71.45664436497091 57.848583983325625 72.91802105789775 L 58.21522765869847 72.51587687079244 C 59.02940314911929 71.62288082302383 59.041741267001285 71.55543771469017 58.69145242771977 69.91285860356372 C 58.298116773805106 67.8261304484517 57.99321537355445 65.7502424548151 57.27777436088225 63.878076186483526 C 57.23695003187596 63.878076186483526 57.11942410588695 63.815648823881304 57.01660645687039 63.739350178485466 C 56.84050585155296 63.60867792045822 56.85221635721474 63.59087897925533 57.218261955060086 63.432773154866915 C 57.43199714257051 63.34045634105926 57.695025732223456 63.24809852261496 57.80276090757718 63.227533965116066 C 58.38725986009429 63.11597426111539 59.178353988157795 63.00801637510784 59.20740874211688 63.03584753999926 C 59.22577193731287 63.05343999356766 59.18169879210785 63.17703529064682 59.109464317398405 63.310503186221894 C 58.42524147492671 64.5747295862001 58.41688315688816 64.59835850806193 58.4714632690268 65.11372601585431 C 58.57099518347874 66.50871254093828 58.95405276432834 67.94509075713964 59.215922117292195 69.25394923964544 C 59.31754361125377 69.92885260852894 59.478470768188515 70.2394942167541 59.72648096659552 70.2394942167541 C 60.00535491889045 70.05578392568876 60.157325680259135 69.84515042954324 60.397442732037874 69.59341344629783 C 60.457604901099785 69.96678409409473 60.312124388455345 70.3198772168492 60.22642947754072 70.65040827052005 C 58.48223604819485 73.32264309661696 58.169574407433146 73.59550478998673 57.34658281123667 73.16361686458117 L 57.346590194909865 73.16361466790421 Z  M 71.6622181950251 67.40667278575226 C 71.98667894552672 67.10868799085064 71.90416639775222 66.83209780444955 71.33292113859127 66.30287365837663 C 69.1109597525297 64.2443610866245 65.69487382160601 62.81634898785805 62.8367720728139 62.75126877171058 L 62.12260843560165 62.735006772155906 L 62.03553277780256 63.13259505124063 C 62.121929137669184 66.53436533450838 62.22777409268912 68.50279335558231 62.5318559052169 72.40567983873427 L 62.70010028227196 72.73301985300401 C 63.99750026388773 72.72286168650295 65.29489286183032 72.71270278777624 66.59229284344609 72.7025446212752 C 68.4634928351427 71.04498490548895 70.22937211261508 69.13249277370227 71.6622181950251 67.40667278575226 Z  M 62.8596614596686 72.24026054451146 C 62.66116617359948 72.03882966038823 62.60318218812536 71.5280568685761 62.5027420818724 69.09642480242648 C 62.47339198098615 68.38573536914406 62.4078175794841 66.90968809589944 62.357032675359434 65.81631849785231 C 62.26711430338645 63.88066094304293 62.28876323314705 63.39683405530627 62.46666545472014 63.36617942829216 C 62.77615949968809 63.31284777276672 62.79829575187851 63.349471503314064 62.806247967892205 63.92777307386139 C 62.83052548530452 66.80021889614157 63.078188651072125 69.22443542020062 63.23887953046513 71.80499779106557 C 63.89026717831014 72.03019452324797 64.57210509434506 71.91227251053773 64.95700120981621 71.62778453823017 C 65.8904008710572 70.73632396765848 66.65448552263219 69.68139548423248 67.5482422425755 68.74853487517093 C 68.55226673777292 67.7074579044459 69.68512156259628 66.1700735525982 69.7542548945706 65.7547771282917 C 69.78957838705858 65.54261694165713 69.85714638031894 65.36903186693841 69.90440927233726 65.36903186693841 C 70.65057374910701 65.66077619547934 71.1699339368396 66.51251425653501 71.42120771879169 66.88364941940956 C 71.33743994657677 66.93122285239019 71.22698019582 66.94385008379729 71.17574488763142 66.91171123538207 C 71.12449481209649 66.8795716547412 70.79312294349938 66.93154429945238 70.4393563941506 67.02720518782289 C 69.8299080099619 67.19200545847762 69.7635066370638 67.2404385243763 69.17412707657542 67.94998495341247 C 68.2147738041105 69.18079330675752 67.133826201735 70.4830844573706 66.37313065614914 71.69441853721591 C 66.37313065614914 71.84951198526285 66.83323686662084 71.87726040865533 67.05408253140259 71.73548614525873 C 67.13231254873334 71.68526205540982 67.229562908173 71.66501455161921 67.27018049433026 71.69049380770926 C 67.42797697383713 71.7894621593599 67.20652584785472 72.0603446467863 66.82350518537102 72.23686960750675 C 66.48248285592906 72.3940359863808 66.16794576217991 72.42219299168833 64.73253016150363 72.42404771927049 C 63.210681282594805 72.42601740628035 63.02475300827622 72.40776741407447 62.85969099436129 72.24026054451146 L 62.8596614596686 72.24026054451146 Z " fill-rule="evenodd" fill="rgb(255,255,255)"/><path d=" M 93.98704073723138 6.417963566377651 C 119.80924064846249 6.815133069160865 148.38983325725167 6.164098329308359 170.13476466900647 10.255349849052791 C 183.8801737098429 14.665656180549348 196.68047741894134 23.68379485670495 205.15105069937545 33.99915734539859 C 199.9012442115295 35.6846736120531 126.6445681218629 31.600764012258622 87.39149369492316 30.401581528943083 C 88.72104865313213 22.31048873006739 91.79397587581889 13.13648276199261 93.98704073723138 6.417963566377651 Z  M 101.72175340449985 35.977839812890835 C 104.43309106965216 36.514253833379314 106.65285382179172 36.46270354362166 108.61681740840231 37.746603440068725 C 108.38037421365061 38.54691609868537 105.60596278165622 38.712696651155156 101.54187636572624 38.55604844593219 C 98.9815486449993 38.19711199128831 95.65182108588169 38.14599220501864 93.86690022895937 37.47681624841708 C 96.13738897348003 36.30351236430694 98.91063237275557 36.301541726247635 101.72175340449985 35.977839812890835 Z  M 267.0015535613484 41.23550382370148 C 270.24734962649336 46.41882422054624 271.5024842142998 51.270351574525705 272.5293518363901 56.083826091128216 C 272.2176539621514 56.97376356891566 267.1615740438938 56.7105774307463 266.72539725414026 55.89401243114955 C 263.44005493835584 52.18462918556537 261.42987062842394 44.56049250721533 261.42987062842394 44.56049250721533 C 254.27483591356668 41.9661082896297 250.12398135277408 41.355702733609306 247.46971042905125 38.18310727898378 C 256.05174740327084 36.64453286565477 263.27269253586064 40.00647643578941 267.0015535613484 41.23550382370148 Z  M 155.3850143513805 37.71662671463673 C 157.75712194248126 38.1434592426359 160.85090689229855 38.00899031013445 162.22034182478046 39.21561149325383 L 155.5048211360181 40.714589597398245 L 147.59006456815814 39.45542195947347 C 149.83986244736616 38.26602759034574 152.65648991907256 38.068484891001575 155.38501435138005 37.71662671463673 L 155.3850143513805 37.71662671463673 Z  M 94.40319410893972 54.54219476931095 L 203.8415191592121 58.5169600545768 L 203.04675632463022 65.40653597331651 L 89.89859249601295 59.84187458565336 L 94.40319410893972 54.54219476931095 Z  M 96.94116234618241 76.63548359650909 C 113.8476016491054 76.61077136140486 131.14366329482664 77.46152801593212 148.49278699836805 77.38753981763654 C 167.04848850095595 77.30839725781243 186.2686337590144 77.488791568219 204.4445577660099 79.39272661614808 C 204.41785987528283 79.71849261018176 204.35945823931752 79.81635539726 203.93679725674428 80.17293576304724 L 204.46791842039602 80.10932803838995 C 181.9988067226691 80.41746675007104 164.72794121132165 79.18553429792422 137.8790405398172 78.72892194143716 C 122.45717082313695 78.215840208826 106.73711903939875 78.5322369118326 91.6142656988618 77.18961834196767 C 91.66265562580475 76.85593642333345 91.70270246189557 76.72196307042861 91.724394498111 76.67314931447052 C 93.45942367173711 76.65000558044648 95.19912497624045 76.638008215801 96.94283096435265 76.63550528854535 L 96.94116234618241 76.63548359650909 Z  M 91.72255901812377 76.6731276224343 L 91.70587283641908 76.6731276224343 C 91.72255901812377 76.67413880504557 91.72255901812377 76.6731276224343 91.72255901812377 76.67112528062975 C 91.72205843267238 76.67176269277087 91.7218915708554 76.67216816698627 91.72155784722099 76.6731276224343 L 91.72255901812377 76.6731276224343 Z  M 91.72339332720912 76.67112528062975 M 25.411339201106784 4.8733904707259015 C 26.832000711421188 1.7120715376962323 30.598071922110194 1.5727135539553885 33.66816249390695 0.7216632226301201 C 66.8454644386311 1.1413857686050406 99.72975703262591 0.6820502272638223 133.20023518989683 1.980805831282325 C 138.27633852619965 2.717223762916369 143.02756190471746 3.615177282394612 147.14471037846715 5.150751520253181 C 142.68766438339844 5.176915453165719 32.063619261209624 3.680423590095252 25.411339201106784 4.8733904707259015 Z " fill-rule="evenodd" fill="rgb(255,255,255)" vector-effect="non-scaling-stroke" stroke-width="0.042397451879684474" stroke="rgb(0,0,0)" stroke-linejoin="miter" stroke-linecap="butt" stroke-miterlimit="4"/><path d=" M 17.1566851119278 13.562494329851944 L 16.758385954643018 12.043140729228256 C 16.33047171771659 10.28235213011007 16.300709138045477 9.960812974904343 12.993718416597403 15.182249914610708 C 9.370147197664664 20.86668137731189 6.1111002708667 27.178063184992027 4.8910066646394625 30.76150413692571 C 3.9030178459202034 33.663296211433774 3.860173647249667 44.062067571812975 4.5088931036079885 44.300486755278826 C 4.801735592520799 44.300486755278826 7.39727115664391 45.03887031911765 7.9410738183910325 43.76756515262109 C 8.420134095125377 42.647820574545804 7.2522682376325065 39.78789746717048 7.54878168651976 36.89309690279657 C 8.158161042365464 31.057203300146156 9.98563166263375 24.796044001958606 13.609369743383922 20.253030798748583 C 14.613377296539056 18.99442548514726 15.907891273168389 18.272397716615103 15.907891273168389 17.974065473921698 C 17.48306682606608 15.13237535729479 17.1566851119278 13.562494329851944 17.1566851119278 13.562494329851944 L 17.1566851119278 13.562494329851944 Z " fill="rgb(138,17,43)"/><path d=" M 44.97038080958191 0.09187499794185072 C 77.65393863767213 0.3325514769919522 107.99842751443657 -0.8922693245124265 137.97014709192354 1.7517195740441167 C 140.46740104580795 2.2227004015968603 143.2117773507348 2.915183616803162 145.32975439447728 3.56338170576592 C 148.8999298319559 4.6752353885131726 161.73193728629212 6.400494802751297 166.6263281038341 6.427022494424989 C 167.82222674658988 6.433530105289719 169.20517748625252 6.025501235453248 169.71510719914022 5.515589877365919 C 170.96874003059338 4.261855260204101 172.58696593228842 4.887194948849974 174.20585928125183 7.249639572125915 C 174.94005127624632 8.321027595621771 177.020818134788 10.003016403463988 178.8302676788162 10.987632944860493 C 189.3797723378043 17.004119423479708 198.90941757101837 24.18959807685667 207.4322186001873 31.001206142964264 C 221.29109367661385 31.764483821287925 236.1601501934265 32.84801271059193 249.2260979152593 35.59889495776517 C 254.99718071955158 36.96257649479561 264.034583592485 37.79410899938121 267.972188751095 40.17244053625795 C 270.6980433943295 43.05664203801321 272.7759736019816 49.75536808489041 273.4208945248579 53.27568354281807 C 274.7320946831919 58.45257975970662 275.1282246368546 64.15671259714622 275.0601450155009 68.01295092791104 C 274.91998108918324 75.44587731287373 274.80284409361866 76.179066468348 273.4295713393444 78.25427682838213 C 272.61595311943665 79.48366630643721 270.812343739005 81.25389998622325 269.4215504939416 82.18800912421864 C 268.03075724887776 83.12210157603232 266.801819966347 84.40717784828954 266.6916911670978 85.04388916976697 C 266.51581881193306 85.81860355703085 266.16207175979935 86.57932491231739 265.5565302257455 86.9262506533704 C 265.5565302257455 86.92958788971129 265.5568639493795 86.9340931587715 265.5398440440413 86.93743039511236 L 265.5398440440413 86.9365476961002 C 264.9803563714918 87.37180674586014 262.8370163315585 87.67207458563124 260.29203989799953 87.67207458563124 L 256.08662152303395 87.67207458563124 L 255.99651614182994 87.67295728464339 L 255.99651614182994 87.67207458563124 C 255.9281027968418 74.0506538865674 250.75421843575077 61.26668928659426 238.19803356498824 58.451913981056606 C 226.31603163360523 55.39400172185532 213.46098553949378 64.02727191968474 211.50965396148058 76.34082231379065 C 211.36949003516338 78.77401301025705 209.83235897655186 81.53159309076645 209.02524836750854 82.49714900680198 C 208.6705001444725 82.63774677384347 206.43722158515266 82.68414603930896 201.69334012658464 82.60272247844588 C 165.20516600806832 81.43314128147398 130.24794906093302 80.91140943226725 96.06897562849235 81.19806134776755 C 93.67868009933363 81.24384823036448 91.20044839259208 81.15551158442128 89.09481912331103 82.1163937009614 C 87.63844918414861 82.36481924279505 85.52380937674707 82.59903650090737 84.34276143570787 81.92408378819974 C 83.68115433112735 80.93199684325415 83.59238384446007 79.57718401179963 83.5166285795217 78.70777053750862 C 81.23979908595311 59.777330766202454 65.588494370837 52.62698486840418 51.86828146437392 59.28658682503897 C 43.60111273891698 62.96780880176057 40.46010589487605 70.6637110790032 39.805006401160426 78.40855893303939 C 29.16172540099342 77.2180682817737 17.256635340337652 75.64361190330749 5.589657092603829 73.34437620494606 C 4.795394843473332 72.824051000857 3.2647713957267115 70.61110622256186 2.1880120903397255 68.42591723891381 C 0.10757895543247287 63.465973087928006 0.0673652575246706 61.283877722367976 0.012300857899845141 56.885992584532204 C -0.06445557794086199 54.95652267274082 0.20953152564561606 52.73522312326625 1.0780472833612293 51.32341029510941 C 1.727807198931714 50.28393793135959 2.156475206918458 49.79709355086045 2.916363921737684 49.57556279669801 C 2.916363921737684 49.57468009768584 2.9160301981037264 49.57389417852755 2.9330501034419285 49.573059869442346 C 4.112930011761819 49.1447406026533 7.454838483523872 49.594418182024015 6.4201283560323645 48.821148818095736 C 5.69728296459698 47.95498914923712 5.708128982704693 46.80845991228989 4.405772500674175 44.19537382224995 L 7.879334946084327 43.89549643913071 L 7.564299835505153 40.59152733870992 C 6.641553987250063 33.88844119255337 7.187859576253231 32.95862540911054 8.806085477948272 28.807577288610133 C 10.524094746236187 24.74422840191184 15.099779493223195 15.721768004694795 16.051893021277465 14.151733464380257 C 16.683631860606965 13.005836633719625 17.179211457228575 12.196471721528354 16.121974984436292 11.791419666507949 C 15.87051422615059 11.695056967164902 15.7680199885408 11.538106465522205 15.542422811896813 11.404558610250845 C 15.803616897714619 10.758446924279568 16.161521235075725 9.546108701560726 16.237109638197126 9.639903397539456 C 13.494735675074935 9.991034056382006 12.281316541529122 8.348781721650724 13.691632619187203 6.19594724432757 C 14.447683512214553 5.04213448906637 15.247118477673212 4.802989801496722 19.41299060199981 4.481730745141441 C 21.30303440366015 4.232744547602529 23.657120918520377 4.222941415851174 25.105815214098584 3.351276975648261 C 25.39081519761021 3.1242447873778616 25.63727010138473 2.8657674896854743 25.90675193591096 2.6907694904421575 C 31.447732294499474 -0.8492356618967349 38.734420983004384 0.14037004782939988 44.96954650049656 0.09189001550535636 L 44.97038080958191 0.09187499794185072 Z  M 34.359304140104086 0.8471916989743349 C 31.446063676328777 1.0929107421355155 27.873552173411554 1.865838039338847 25.8511869508352 4.2894124892889565 C 26.04975251311771 4.42710686071387 26.220118428319893 4.421633793114815 26.403833288885835 4.4049642975920875 C 26.721204464904076 4.033556590742336 69.88652105426263 3.440281068859683 104.20749389300818 4.0384940319086695 C 118.31966520770811 4.122625760062377 132.63874517554314 4.7551188148049235 146.34477482755756 5.020632675322069 C 145.91110096505918 4.743386760448544 143.92294241497711 4.183645457937288 140.59321485585951 3.4530042824093172 C 124.81526202160694 1.031363760918751 108.71292981501983 1.5876643727625606 93.94215490844635 1.2541843569269489 C 73.01100857841584 0.8750876575477875 53.6877427174245 0.8471983734470072 34.359304140104086 0.8471983734470072 L 34.359304140104086 0.8471916989743349 Z  M 107.54456337207603 7.028030392909457 L 107.52787719037133 7.028030392909457 L 94.49546869376445 7.028030392909457 C 92.02658124877826 11.595699098205927 89.6771668647948 22.92486226009713 88.02907269784919 29.38614894717486 C 88.30739820867893 29.6457175211507 95.15824383106474 30.03524642133148 103.25187626679553 30.251881449781862 C 111.34584242616074 30.468536501650277 128.82862244515445 31.026066885085697 142.10281371465862 31.490980616970717 C 155.3768381223449 31.955891011619386 171.21252514529533 32.51149914692246 177.2926360347533 32.72576807480715 C 187.44250664192032 33.08345473444136 188.3160282541471 33.036049292219104 187.9719591874018 32.13941731833184 C 187.60753297897736 31.190233883784686 186.90954999828136 30.902615838363687 186.54312144805226 31.474596455155137 C 186.51976079366614 32.140134824145136 185.48705300797928 32.19522258442413 176.72513899498563 31.72120987765568 C 166.79702774267025 31.80961326832572 156.00156876535902 30.634964477970215 147.10666588418144 30.573532631407204 C 126.76604352467075 29.49745412223423 108.47882268570675 29.430242182328797 90.1749156650385 28.627102884531453 C 91.72022295268516 21.776195523273586 93.90778137413554 13.932814097654571 95.93882341119797 7.911029756344206 L 104.57375558142076 7.97483771518192 C 122.57197175326382 8.23303301640351 139.58386772455924 7.893876361552046 156.45126136229328 9.303615097323046 C 167.586450999107 10.077001264523247 171.69442207291922 11.394879232775025 177.35904703793722 14.228109455277789 C 180.33335892675086 15.715730944154174 183.81943600843897 17.871321978694894 185.71632114459817 19.29660556134172 C 186.82311557705225 19.66915460302006 186.95326779434663 21.137273282720315 188.0029954853726 21.155686484231154 C 189.14483089940586 21.155686484231154 189.10094624152316 20.70087790398634 187.77890006508187 19.635483556958718 C 186.8718392276296 18.935563310566764 186.06422803313535 18.373162230691804 185.18770290820203 17.796234161024998 C 180.80657903988822 14.915827096989318 175.79588553586655 12.36352209242591 171.95172299480146 11.002311778905906 C 170.13893621443322 10.455902735576487 168.17280342420054 10.01335349302991 165.97006057739918 9.638181383587636 C 159.06765465354692 8.678243704931973 146.27469286439873 7.8638212110660675 131.75721419609863 7.410906512444697 C 123.21188682162847 7.271510150485938 115.20318705077307 7.030424859984066 107.54256103027183 7.028052084945699 L 107.54456337207603 7.028030392909457 Z  M 186.76921921014673 22.76382058323138 C 186.73584684673824 22.751139085136032 186.71248619235166 22.896459041599854 186.69413139247672 23.158747463193535 L 186.66242764723847 23.8071824959365 C 186.64574146553423 24.10728847974508 186.63906699285235 24.38400210542224 186.62571804748904 24.83416024682603 L 186.54896161164834 27.630542374270902 L 189.49273778794304 27.630542374270902 C 191.11146427508947 27.630542374270902 192.43584651696938 27.868609134502435 192.43584651696938 28.159983239425088 C 192.43584651696938 28.950542824835495 196.55382929980442 28.80467222437541 196.5738527178496 28.013395133151718 C 196.5738527178496 27.819490021419114 196.72235973501893 27.82504485130852 196.94461967532197 27.958213930255184 C 197.21493581893355 28.086630784652428 197.6549504304794 28.50560245245066 198.33975132762907 29.258534698117572 C 199.53681800310414 30.574483743764333 200.14552991168193 31.432256937698327 200.0807875266687 31.98679548875414 L 200.0807875266687 32.028193905562816 C 200.0807875266687 32.65112410957056 199.10798313330042 32.93295538717646 196.40148446084322 33.093975372005985 C 193.2220993988817 33.28321502733404 193.37110700150242 33.31547442242319 197.50160442061588 33.332826382777625 C 200.13034548633095 33.343839262702545 202.56202274611678 33.526644726365376 202.9055912274107 33.73896303960882 C 203.2491597087046 33.95127968423408 203.7282199854385 33.804756654069365 203.96966903470184 33.413881179025054 C 204.22229782570685 33.00522157152017 204.05143132505327 32.585727626234586 203.56870008834449 32.42570714368915 C 203.1066597169488 32.27271154364129 201.03206674563808 30.493195340973074 198.95814122159527 28.471278976684673 C 196.57034861969214 26.14337141230054 194.8660220204024 24.91761952185705 194.31287509690037 25.129936166482324 C 193.58685933094102 25.40854701101925 193.6272398906658 25.603249722237337 194.55182121890812 26.28194514550127 C 195.24429775964154 26.790214583308895 195.34524915895327 26.95946753019139 194.55182121890812 26.895027165067063 C 194.498425437454 26.985299408087997 194.39163387454528 27.041615271340433 194.23528435197522 27.041615271340433 C 194.02620649521896 27.041615271340433 193.84165732556812 26.942732958560015 193.72835815179496 26.792415490675708 C 193.49591964065212 26.76036133562151 193.32538686363296 26.74187304629301 193.02303325114872 26.695835870970512 C 192.57183889786074 26.6271722332568 192.1264847081702 26.5336461848035 191.69764983836603 26.43283995527257 C 191.2908407284126 26.451511792599817 190.83814461877137 26.325247455642426 190.42666337794026 26.06809337215921 C 190.07491866761075 25.944048297368525 189.7767366005528 25.82095600355315 189.63857501604025 25.711971876368878 C 189.13582036128582 25.31553990281698 188.90221381742413 25.356404361811116 188.90221381742413 25.84130647075986 C 188.90221381742413 27.39528890427475 187.40746566034204 25.938553537733256 187.06640010630326 24.052070567248805 C 186.91956170730418 23.23943850067981 186.83029063518597 22.793610423428305 186.77055410468392 22.763820583231393 L 186.76921921014673 22.76382058323138 Z  M 194.1658698360843 29.985434831707423 L 194.1658698360843 29.985434831707423 C 193.90556540149555 29.985868672431735 193.68664269753344 30.179710376673867 193.62874164701907 30.438134278584798 C 193.69048051932532 30.783131097032793 193.94928319756082 31.05800423686796 194.28150507529608 31.13744547934455 C 194.29819125700078 31.140615853868397 194.31320882053478 31.14462053747745 194.32989500223903 31.146956602916077 C 194.34824980211397 31.15012697743991 194.36827322015915 31.15096128652513 194.3866280200341 31.15296362832966 C 194.42500623795422 31.156968311938726 194.4617158377041 31.15997182464551 194.50009405562423 31.160806133730745 C 194.9119090200893 31.151962457427402 195.11531357506647 30.92428785116138 195.07092833173283 30.557208539845732 C 194.86735691493868 30.241594418761068 194.4665548303983 29.985960446431108 194.16720473062105 29.98551492537959 L 194.1658698360843 29.985434831707423 Z  M 94.90344583643764 37.43038194197001 C 95.06029594445954 37.587715949261025 98.12971906898838 37.83047986964236 101.72325516085311 37.969307232804994 C 106.92934385263334 38.17046249048818 108.25756391630557 38.060363726366035 108.25756391630557 37.42951926637589 C 106.09336614924177 35.874056768543824 95.99188546901723 35.565776224318256 94.90344583643764 37.43040196538806 L 94.90344583643764 37.43038194197001 Z  M 248.0835950539572 38.22885411474465 C 249.72117692642905 40.141339162179094 252.2856761925823 41.00258475052577 254.31354785512076 41.4408573247015 C 259.4717472054099 42.520087853598426 262.4699203340606 43.836946296148085 262.4699203340606 45.02363917245785 C 263.8311790375078 49.72134662901324 264.58989971960773 54.013710022368414 268.06613195409045 55.94530742232713 C 269.1902800155176 56.20925778761857 271.4232248512035 56.72964973643445 272.054963690533 55.85304952368337 C 272.4627739713892 53.360025516861256 267.6905260039239 42.16285005225207 266.5838984332863 41.460695526129896 C 265.31107649287287 40.85141962461087 258.62609151662946 38.7063492276348 253.80511989858678 38.317484437485874 C 251.8837060753226 38.092366154256965 250.00117105542904 38.23910944202018 248.08359505395674 38.22886412645367 L 248.0835950539572 38.22885411474465 Z  M 148.7425791384826 39.32222951987242 C 149.13754105942644 39.566326666171946 152.39301510995938 39.80533786428795 155.97720694007012 39.85339406759668 C 164.71025385871462 39.54058322503836 162.06632836764857 38.50325169840123 155.93048563129787 38.351298984709885 C 154.09934405105378 38.42094710714416 150.70904565234923 38.20122346646029 148.74341344756795 39.32222951987242 L 148.7425791384826 39.32222951987242 Z  M 97.0841629233887 57.20596346765994 C 94.80616539710081 57.20684783529026 93.54101910027111 57.32173219632523 93.54101910027111 57.54484146327694 C 93.89426556695389 58.4054996980276 94.75276961564668 58.52826494268159 95.47344580346089 58.640801557950724 C 100.29541859240544 59.12906092665841 125.12078600861378 60.30476428369764 167.12224142408922 62.02870882681745 C 177.47685148077016 62.50010514029462 187.83763542468114 62.854686501513655 198.18590473231416 63.454923498403375 C 200.73588702038433 63.44658040755117 201.56635828381377 63.272581910591924 201.85319374731262 62.91341018078603 L 201.85319374731262 60.124790465070035 C 190.4054719271753 59.8050365023045 179.78471727230908 60.26490433284208 168.00510729807047 59.71177075828578 C 164.44377553689537 59.533630751027516 150.13954627077737 59.00463373830664 136.21793115114178 58.5356185429587 C 122.2963160315062 58.06660334761074 106.99875836852425 57.52367837902119 102.22334002653452 57.32928603078281 C 100.48814399109142 57.272402837352416 98.6890398797209 57.20720992543325 97.08416292338916 57.20595846180541 L 97.0841629233887 57.20596346765994 Z  M 96.67885556978854 76.60214293684552 L 96.67885556978854 76.60214293684552 C 93.88592247610177 76.61932970400107 92.18443252770157 76.70359492160841 91.84236580276092 76.85996446759691 C 99.6269701533256 77.87674362422868 105.27841303479772 77.76788798064354 111.64369076958428 77.90332638030202 C 113.81973572565857 78.08898851827263 146.87472795848907 78.69318180884449 165.65268940138048 79.15880970930647 C 206.26685566994956 80.16588751989528 204.2087820185261 80.14671676573508 204.2087820185261 79.5157955493091 C 204.2087820185261 79.2382376028377 196.06342241951143 78.83264825276643 186.10777896738364 78.61471003352494 C 169.65904162861307 78.25462223234345 153.5473651602715 77.87107032244921 107.52287133585969 76.74183297560228 C 103.87176791711454 76.65993719579697 100.24552690910923 76.61778790081158 96.67968987887389 76.60213626237285 L 96.67885556978854 76.60214293684552 Z " fill-rule="evenodd" fill="rgb(0,0,0)"/></svg>