<?xml version="1.0" encoding="UTF-8" standalone="no"?>
<svg
   xmlns:dc="http://purl.org/dc/elements/1.1/"
   xmlns:cc="http://creativecommons.org/ns#"
   xmlns:rdf="http://www.w3.org/1999/02/22-rdf-syntax-ns#"
   xmlns:svg="http://www.w3.org/2000/svg"
   xmlns="http://www.w3.org/2000/svg"
   style="enable-background:new"
   id="svg5070"
   version="1.1"
   viewBox="0 0 72.778265 26.420546"
   height="99.857185"
   width="275.06747">
  <defs
     id="defs5064" />
  <metadata
     id="metadata5067">
    <rdf:RDF>
      <cc:Work
         rdf:about="">
        <dc:format>image/svg+xml</dc:format>
        <dc:type
           rdf:resource="http://purl.org/dc/dcmitype/StillImage" />
        <dc:title></dc:title>
      </cc:Work>
    </rdf:RDF>
  </metadata>
  <path
     style="display:inline;fill:#f9f9f9;stroke-width:0.02847372;"
     d="m 65.120721,17.35984 c -5.660801,-3.284697 -7.636962,0.286829 -8.456875,3.916287 0.418244,2.954444 2.311262,4.367077 5.097457,4.845934 5.130606,-1.307783 6.050453,-5.453714 3.359418,-8.762221 z"
     id="path3718-1" />
  <path
     style="display:inline;fill:#020202;stroke-width:0.02865685;"
     d="m 67.024717,21.016612 c 0.0572,-3.464389 -2.530296,-5.43578 -5.292613,-5.443949 -2.953973,-0.0087 -5.501772,1.783749 -5.554003,5.567402 -0.03494,2.530723 2.417199,5.211134 5.33283,5.279344 2.543975,0.05952 5.461278,-2.222511 5.513786,-5.402797 z m -5.949329,4.624792 c -0.281151,-0.0257 -0.423881,-0.05338 -0.718597,-0.139336 -0.283972,-0.08282 -0.759687,-0.284162 -0.849851,-0.359684 -0.02337,-0.01957 -0.144475,-0.09698 -0.269121,-0.172021 -0.124647,-0.07504 -0.278967,-0.183795 -0.342936,-0.241686 -0.06397,-0.05789 -0.159578,-0.137687 -0.212464,-0.177325 -0.108895,-0.08162 -0.620228,-0.609819 -0.620228,-0.640691 0,-0.01108 -0.05099,-0.08329 -0.113316,-0.160473 -0.06232,-0.07718 -0.113313,-0.152376 -0.113313,-0.167107 0,-0.01473 -0.02966,-0.06715 -0.0659,-0.116488 -0.08176,-0.1113 -0.358229,-0.696201 -0.439763,-0.930387 -0.190682,-0.547676 -0.29541,-1.415529 -0.236942,-1.963479 0.109724,-1.028328 0.604257,-2.075847 1.337501,-2.833089 0.253642,-0.261941 0.630048,-0.572714 0.870152,-0.718422 0.166159,-0.100835 0.744569,-0.3847 0.744569,-0.36541 0,0.0095 0.01912,9.69e-4 0.04249,-0.01888 0.02337,-0.01985 0.04249,-0.02763 0.04249,-0.0173 0,0.01033 0.03776,-0.0012 0.08392,-0.02562 0.04615,-0.02442 0.246931,-0.08535 0.446172,-0.1354 0.318484,-0.08 0.421205,-0.09232 0.850116,-0.101971 0.271045,-0.0061 0.573197,0.0029 0.679879,0.02034 0.180989,0.02952 0.634263,0.148871 0.758594,0.199742 0.03116,0.01275 0.107647,0.03935 0.169971,0.05911 0.16776,0.05318 0.587926,0.252871 0.787967,0.374487 0.652515,0.396697 1.225725,0.969969 1.583204,1.583375 0.311055,0.533747 0.539693,1.166214 0.618295,1.710355 0.01843,0.127553 0.04351,0.28812 0.05575,0.356817 0.05335,0.299481 -0.0057,0.990865 -0.126656,1.48399 -0.162354,0.661643 -0.372445,1.09939 -0.862611,1.797324 -0.219094,0.311962 -0.750249,0.798032 -1.092786,1.00003 -0.255849,0.150875 -0.768413,0.409325 -0.938217,0.473075 -0.566024,0.212505 -1.318029,0.294717 -2.068373,0.226122 z m 0.75448,-0.153677 c 0.294374,-0.01732 0.637817,-0.07069 0.920674,-0.143071 0.155806,-0.03987 0.336557,-0.08618 0.401674,-0.102918 0.06511,-0.01673 0.144983,-0.0594 0.177486,-0.0948 0.05509,-0.06001 0.0564,-0.07221 0.01921,-0.180055 -0.03623,-0.105071 -0.157933,-0.353329 -0.230755,-0.470692 -0.01594,-0.02569 -0.09675,-0.170633 -0.179574,-0.3221 -0.08283,-0.151469 -0.200452,-0.36543 -0.261387,-0.47547 -0.06094,-0.11004 -0.110791,-0.216662 -0.110791,-0.236936 0,-0.02027 -0.0297,-0.07374 -0.066,-0.118806 -0.0363,-0.04507 -0.07458,-0.101512 -0.08506,-0.125428 -0.04192,-0.09565 -0.208274,-0.381304 -0.294532,-0.50576 -0.122833,-0.177234 -0.180382,-0.173392 -0.587909,0.03925 -0.555562,0.289884 -0.668333,0.403409 -0.751377,0.756403 -0.01313,0.0558 -0.102717,0.329751 -0.199091,0.608771 -0.191696,0.555012 -0.316469,0.99899 -0.304277,1.082724 0.02244,0.154132 0.939669,0.324899 1.551705,0.288892 z M 60.55509,25.297128 c -0.150754,-0.06991 -0.153508,-0.07322 -0.08499,-0.102048 0.100323,-0.04221 0.305889,-0.229841 0.35219,-0.321461 0.06746,-0.133498 0.379701,-1.525643 0.349186,-1.55687 -0.03012,-0.03082 -0.120191,-0.03403 -0.172749,-0.0062 -0.103825,0.05506 -0.03631,-0.07408 0.08064,-0.154232 0.159069,-0.109025 0.794248,-0.43172 0.849778,-0.43172 0.100056,0 0.157416,0.07075 0.334539,0.412655 0.10131,0.195555 0.330251,0.611967 0.508758,0.925359 0.425577,0.747146 0.453347,0.807428 0.430194,0.933731 -0.02511,0.13694 -0.098,0.110102 -0.098,-0.03608 0,-0.07366 -0.02464,-0.137179 -0.08033,-0.207069 -0.08216,-0.103122 -0.193148,-0.306863 -0.528684,-0.970492 -0.401177,-0.793456 -0.480945,-0.913646 -0.60585,-0.912873 -0.0697,4.33e-4 -0.322832,0.129289 -0.377282,0.19206 -0.04541,0.05235 -0.19173,0.620269 -0.391101,1.518013 -0.0478,0.215243 -0.09427,0.41092 -0.103263,0.434836 -0.03611,0.09603 -0.03428,0.248095 0.0037,0.307398 0.02212,0.03455 0.0347,0.06846 0.02796,0.07536 -0.03007,0.03076 -0.353322,-0.03484 -0.494702,-0.100406 z m -0.899801,-0.347581 c 0.02523,-0.01993 0.06072,-0.09494 0.07887,-0.166687 0.01815,-0.07175 0.0493,-0.150018 0.06922,-0.173934 0.01992,-0.02392 0.05861,-0.115232 0.08599,-0.202924 0.02737,-0.08769 0.06725,-0.180035 0.08862,-0.205206 0.02137,-0.02517 0.03885,-0.05676 0.03885,-0.0702 0,-0.03268 0.129956,-0.368883 0.215007,-0.556237 0.03755,-0.08272 0.06827,-0.15765 0.06827,-0.166514 0,-0.0089 0.09023,-0.233004 0.200518,-0.49809 0.138619,-0.333198 0.195358,-0.503005 0.183805,-0.550105 -0.02649,-0.108014 -0.142647,-0.197129 -0.392805,-0.30136 -0.127769,-0.05324 -0.315119,-0.135829 -0.416334,-0.183538 -0.172094,-0.08112 -0.193221,-0.08461 -0.325777,-0.05378 -0.223791,0.05204 -0.391913,0.0977 -0.453365,0.123127 -0.03116,0.01289 -0.09895,0.03195 -0.150631,0.04236 -0.05169,0.0104 -0.128173,0.03717 -0.169971,0.05949 -0.0418,0.02231 -0.108214,0.04065 -0.147593,0.04075 -0.03938,8.5e-5 -0.09675,0.0172 -0.127478,0.038 -0.05998,0.04059 -0.379544,0.176759 -0.493237,0.210164 -0.09988,0.02935 -0.402065,0.223432 -0.437576,0.281045 -0.04199,0.06812 0.02797,0.251912 0.241754,0.635038 0.392532,0.703483 0.856051,1.175133 1.600616,1.628699 0.199921,0.121786 0.183527,0.117074 0.24323,0.0699 z M 59.47996,24.791812 c -0.0418,-0.03663 -0.04817,-0.05862 -0.02518,-0.08697 0.01692,-0.02087 0.04833,-0.03794 0.06979,-0.03794 0.02146,0 0.03902,-0.0034 0.03902,-0.0076 0,-0.0042 0.05864,-0.144403 0.13031,-0.311632 0.07167,-0.16723 0.179329,-0.434505 0.239241,-0.593945 0.05991,-0.15944 0.193015,-0.498613 0.295788,-0.753717 0.102996,-0.255655 0.183155,-0.496327 0.178605,-0.536243 -0.009,-0.07878 -0.144969,-0.161332 -0.341841,-0.207507 -0.09223,-0.02163 -0.142924,-0.0095 -0.368268,0.08784 -0.143721,0.06211 -0.344172,0.142432 -0.445445,0.178497 -0.189059,0.06733 -0.306412,0.120625 -0.821526,0.373116 -0.400768,0.196444 -0.505428,0.274386 -0.509853,0.379697 -10e-4,0.02392 -0.03426,-0.0087 -0.07391,-0.07247 -0.08592,-0.138221 -0.266514,-0.516539 -0.253116,-0.530249 0.0052,-0.0053 0.105832,0.01073 0.223658,0.03563 0.117828,0.02491 0.249242,0.04528 0.292032,0.04528 0.04279,0 0.394054,-0.140234 0.780593,-0.311632 0.590647,-0.261906 0.701605,-0.32049 0.695345,-0.367139 -0.0041,-0.03053 -0.04859,-0.07619 -0.09887,-0.101462 -0.139078,-0.06991 -0.111276,-0.0975 0.08434,-0.0837 0.1425,0.01005 0.245187,0.0457 0.526173,0.182671 0.30758,0.14993 0.355611,0.183199 0.403679,0.27962 0.07124,0.142893 0.07011,0.155756 -0.03428,0.390386 -0.04886,0.109828 -0.124594,0.307472 -0.168293,0.43921 -0.0437,0.131737 -0.103934,0.275233 -0.133855,0.318879 -0.02992,0.04365 -0.07089,0.131537 -0.09103,0.195313 -0.02015,0.06378 -0.0715,0.194227 -0.114112,0.289891 -0.084,0.188579 -0.223056,0.521865 -0.282238,0.676466 -0.03364,0.08786 -0.09921,0.178712 -0.128986,0.178712 -0.0065,0 -0.037,-0.02206 -0.06777,-0.04903 z m 4.629455,-0.05932 c 0.04625,-0.007 0.122738,-0.04065 0.169971,-0.07483 0.125836,-0.09106 0.512807,-0.465342 0.643873,-0.622754 0.207477,-0.249186 0.21436,-0.258922 0.426245,-0.602887 0.206156,-0.334662 0.502998,-1.055421 0.502998,-1.22132 0,-0.03083 -0.02868,-0.07123 -0.06374,-0.08978 -0.08538,-0.04517 -0.44325,-0.11913 -0.671938,-0.13886 -0.101745,-0.0088 -0.274229,-0.0361 -0.383293,-0.06073 -0.237896,-0.0537 -0.481989,-0.09215 -0.695826,-0.109601 -0.08667,-0.0071 -0.31975,-0.03948 -0.517955,-0.07202 -0.322399,-0.05293 -0.368866,-0.05467 -0.440963,-0.01651 -0.09817,0.05195 -0.107817,0.07491 -0.177145,0.421648 -0.08016,0.400884 -0.09378,0.729422 -0.03516,0.847698 0.170101,0.343188 1.098651,1.767812 1.144673,1.756205 0.0078,-0.002 0.05201,-0.0093 0.09826,-0.01626 z m -0.0508,-0.05568 c -0.01025,-0.01049 -0.0042,-0.03685 0.0134,-0.05858 0.021,-0.02589 0.02696,-0.12283 0.0173,-0.281288 -0.01353,-0.221903 -0.02375,-0.255077 -0.124351,-0.403461 -0.156349,-0.230614 -0.729835,-0.981715 -0.796258,-1.042867 -0.07633,-0.07027 -0.134468,-0.03923 -0.166548,0.08892 l -0.02689,0.107452 -0.05354,-0.112361 c -0.04643,-0.09744 -0.04913,-0.129258 -0.02029,-0.239576 0.01829,-0.06997 0.03325,-0.181107 0.03325,-0.246975 0,-0.06587 0.02844,-0.23694 0.0632,-0.380159 0.08201,-0.3379 0.109015,-0.358575 0.411308,-0.314835 0.120749,0.01747 0.289656,0.03914 0.375349,0.04814 0.158885,0.0167 0.334325,0.04448 0.637389,0.100923 0.09349,0.01741 0.240085,0.04395 0.325777,0.05898 0.416257,0.07299 0.827069,0.166786 0.854812,0.195175 0.03665,0.03751 0.0079,0.134018 -0.03237,0.108565 -0.03682,-0.02329 -0.399423,-0.09377 -0.75162,-0.146099 -0.381066,-0.05662 -1.030709,-0.17616 -1.165544,-0.214472 -0.06008,-0.01707 -0.168323,-0.03111 -0.240538,-0.0312 -0.155246,-1.92e-4 -0.203001,0.0548 -0.267439,0.307964 -0.05561,0.218473 -0.05492,0.221919 0.07544,0.376048 0.06368,0.0753 0.2274,0.288075 0.363809,0.472836 0.136411,0.184761 0.281499,0.375064 0.32242,0.422896 0.223786,0.261587 0.333896,0.399537 0.414017,0.518704 0.102211,0.152023 0.177565,0.202846 0.260714,0.175841 0.116861,-0.03796 0.03936,0.07333 -0.201974,0.290019 -0.233458,0.20962 -0.281593,0.239539 -0.320808,0.199408 z M 61.815703,22.35609 c 0.03116,-0.0077 0.09172,-0.04774 0.134562,-0.08903 0.114548,-0.110393 0.109542,-0.282974 -0.0123,-0.4238 -0.171827,-0.198607 -0.423884,-0.10272 -0.506695,0.192757 -0.03264,0.116469 0.02808,0.232329 0.153754,0.293355 0.09909,0.04812 0.12947,0.05164 0.230675,0.02672 z m -0.948999,-0.435738 c 0.09113,-0.01669 0.130438,-0.05092 0.183547,-0.159861 0.05416,-0.111105 0.05524,-0.251713 0.0025,-0.32873 -0.06224,-0.09093 -0.250397,-0.138991 -0.370365,-0.0946 -0.170065,0.06293 -0.213937,0.337217 -0.07775,0.486086 0.08447,0.09234 0.151802,0.117287 0.26204,0.0971 z m -3.15862,-0.106391 c 0.198403,-0.0428 0.767451,-0.209806 0.849853,-0.249415 0.03116,-0.01498 0.266996,-0.08724 0.524076,-0.160586 0.754681,-0.215306 0.963166,-0.32461 0.963166,-0.504963 0,-0.09015 -0.113965,-0.587456 -0.172878,-0.75439 -0.07251,-0.205462 -0.150627,-0.299071 -0.377567,-0.452426 -0.125723,-0.08496 -0.27958,-0.192709 -0.341901,-0.239449 -0.210386,-0.157783 -0.706644,-0.460224 -0.952269,-0.580352 -0.189968,-0.09291 -0.263739,-0.115333 -0.332858,-0.101187 -0.04884,0.01 -0.0888,0.03507 -0.0888,0.05572 0,0.02065 -0.04392,0.126645 -0.09759,0.235537 -0.152016,0.308376 -0.320152,0.884912 -0.38323,1.314065 -0.05397,0.367194 -0.03587,1.31542 0.0271,1.419679 0.03135,0.05191 0.190408,0.05929 0.382907,0.01776 z m -0.195982,-0.09255 c -0.02465,-0.0097 -0.04481,-0.04042 -0.04481,-0.06831 0,-0.04164 0.03528,-0.05407 0.197167,-0.06947 0.108447,-0.01031 0.226362,-0.03087 0.26204,-0.04568 0.0685,-0.02844 0.131906,-0.04724 0.787242,-0.233448 1.048848,-0.298018 1.104807,-0.322115 1.104807,-0.475755 0,-0.05161 -0.01933,-0.160471 -0.04297,-0.241914 l -0.04297,-0.148078 -0.304052,-0.15424 c -0.167229,-0.08483 -0.406033,-0.213607 -0.530679,-0.286168 -0.124645,-0.07256 -0.412358,-0.225877 -0.639365,-0.340703 -0.334381,-0.169139 -0.437909,-0.208775 -0.545322,-0.208775 -0.07292,0 -0.132585,-0.01212 -0.132585,-0.02694 0,-0.05753 0.253306,-0.581827 0.281102,-0.581827 0.01619,0 0.03796,0.03587 0.04839,0.07972 0.01042,0.04385 0.05387,0.15799 0.09655,0.253654 0.09356,0.20971 0.132086,0.235766 0.943122,0.637821 0.611035,0.302909 0.642156,0.308136 0.642156,0.107853 0,-0.100569 10e-4,-0.101464 0.05665,-0.04994 0.03116,0.02886 0.05666,0.06478 0.05666,0.07983 0,0.01505 0.0186,0.06847 0.04133,0.118711 0.105438,0.233005 0.188307,0.514283 0.204375,0.693701 0.01603,0.178959 0.01173,0.202903 -0.04817,0.268149 -0.03617,0.0394 -0.07756,0.07164 -0.09196,0.07164 -0.01441,0 -0.06636,0.01779 -0.115459,0.03954 -0.0491,0.02174 -0.248614,0.08223 -0.44337,0.13441 -0.194758,0.05218 -0.366854,0.104388 -0.382433,0.116015 -0.01558,0.01163 -0.0602,0.02764 -0.09915,0.03557 -0.104417,0.02128 -0.769763,0.222692 -0.835689,0.252973 -0.03116,0.01431 -0.07578,0.03247 -0.09915,0.04035 -0.06203,0.02091 -0.271377,0.02176 -0.32346,0.0013 z m 5.153454,0.01376 c 0.09404,-0.04796 0.164959,-0.170899 0.160985,-0.279054 -0.0052,-0.140192 -0.08866,-0.273941 -0.188021,-0.301133 -0.101134,-0.02768 -0.30699,0.05663 -0.352973,0.144551 -0.08632,0.165043 0.01,0.387117 0.190013,0.43829 0.122172,0.03472 0.116566,0.0348 0.189996,-0.0027 z m 3.265465,-0.32172 c 0.09027,-0.04452 0.10128,-0.119421 0.08364,-0.569039 -0.01488,-0.379251 -0.0755,-0.759817 -0.179855,-1.1292 -0.07247,-0.256509 -0.258704,-0.730794 -0.331673,-0.844672 -0.03627,-0.0566 -0.101662,-0.16162 -0.145314,-0.233368 -0.09031,-0.148428 -0.206057,-0.258326 -0.273692,-0.259859 -0.04227,-9.57e-4 -0.200443,0.129349 -0.537685,0.442955 -0.07174,0.06671 -0.184476,0.166948 -0.250528,0.222752 -0.164051,0.138597 -0.229979,0.202571 -0.31373,0.304434 -0.0393,0.04781 -0.198116,0.204324 -0.352914,0.34782 -0.154796,0.143496 -0.350384,0.330613 -0.43464,0.415815 -0.140814,0.142398 -0.151885,0.163144 -0.137041,0.256763 0.017,0.107185 0.02452,0.118125 0.353497,0.514099 0.241532,0.290722 0.282086,0.321623 0.497379,0.379008 0.162599,0.04334 0.212169,0.04894 0.889042,0.100422 0.206576,0.01571 0.455158,0.04178 0.552404,0.05793 0.226315,0.03758 0.498586,0.03484 0.581109,-0.0059 z M 65.811084,21.19102 c -0.234227,-0.231694 -0.237031,-0.232259 -1.073236,-0.21632 -0.40747,0.0078 -0.771426,0.02058 -0.808789,0.02848 -0.0671,0.01418 -0.06659,0.01576 0.04116,0.128685 0.11855,0.124239 0.115011,0.135306 -0.02371,0.07412 -0.165552,-0.07302 -0.601337,-0.543646 -0.712105,-0.769045 -0.100094,-0.203673 -0.09891,-0.206202 0.245576,-0.526089 0.175294,-0.162776 0.438016,-0.407503 0.583825,-0.543838 0.145812,-0.136334 0.311534,-0.283032 0.36827,-0.325995 0.05674,-0.04296 0.154151,-0.128628 0.216475,-0.190368 0.26369,-0.261226 0.409114,-0.335227 0.449118,-0.228542 0.0092,0.02444 -0.01433,0.05024 -0.06133,0.06735 -0.07137,0.02599 -0.291053,0.221379 -0.651458,0.579413 -0.08492,0.08436 -0.187809,0.171156 -0.228649,0.192884 -0.04084,0.02173 -0.139894,0.109248 -0.220117,0.19449 -0.08022,0.08524 -0.194147,0.194121 -0.253161,0.241952 -0.219635,0.17802 -0.380009,0.341808 -0.380009,0.388101 0,0.06625 0.247363,0.349332 0.33707,0.38574 0.114253,0.04637 2.024366,0.04989 2.182838,0.004 0.06939,-0.02008 0.131734,-0.03081 0.138553,-0.02383 0.0172,0.0176 0.02745,0.571134 0.0114,0.615702 -0.01965,0.05457 -0.03729,0.04618 -0.161721,-0.07691 z m -5.010186,-0.28389 c 0.08752,-0.01743 0.207445,-0.189831 0.207445,-0.298203 0,-0.111015 -0.067,-0.249509 -0.140071,-0.289526 -0.181599,-0.09945 -0.454825,0.06652 -0.454825,0.276291 0,0.1018 0.07475,0.225965 0.171098,0.284207 0.07844,0.04742 0.100859,0.05024 0.216353,0.02723 z m 1.847134,-0.275212 c 0.12507,-0.130909 0.123987,-0.285034 -0.0029,-0.406285 -0.08156,-0.07797 -0.10576,-0.08575 -0.228991,-0.07363 -0.186848,0.01837 -0.255819,0.09142 -0.255819,0.270928 0,0.116922 0.01299,0.148471 0.09015,0.219029 0.129328,0.118249 0.278544,0.11448 0.397512,-0.01004 z m -0.989273,-0.356266 c 0.09301,-0.04856 0.130291,-0.08984 0.159759,-0.176911 0.04825,-0.142572 0.03402,-0.188658 -0.0937,-0.303411 -0.08797,-0.07905 -0.117903,-0.08981 -0.213306,-0.07672 -0.128065,0.01758 -0.197732,0.07326 -0.26019,0.207949 -0.04122,0.08888 -0.04038,0.104662 0.01193,0.225693 0.04736,0.109562 0.07347,0.1346 0.165213,0.15843 0.09139,0.02374 0.128533,0.01809 0.230287,-0.03503 z m -0.976838,-0.553263 c 0.04639,-0.02475 0.0937,-0.06055 0.105151,-0.07954 0.03485,-0.05785 0.371179,-0.536151 0.468247,-0.665919 0.08943,-0.119556 0.09092,-0.126544 0.07789,-0.366249 -0.0073,-0.134402 -0.02632,-0.323658 -0.04224,-0.420569 -0.01593,-0.09691 -0.03302,-0.260994 -0.03799,-0.36463 -0.005,-0.103636 -0.01711,-0.207997 -0.02699,-0.231913 -0.0099,-0.02392 -0.02442,-0.108709 -0.03231,-0.188429 -0.01498,-0.151367 -0.08151,-0.502 -0.130637,-0.68849 -0.02522,-0.09575 -0.03947,-0.109119 -0.119566,-0.112142 -0.05001,-0.0019 -0.09991,-0.0021 -0.11089,-4.4e-4 -0.01098,0.0016 -0.06473,0.0087 -0.119455,0.01562 -0.05472,0.0069 -0.110372,0.01951 -0.123668,0.02792 -0.01329,0.0084 -0.05515,0.02123 -0.09301,0.02849 -0.115385,0.02214 -0.715754,0.257266 -0.791211,0.309869 -0.03895,0.02716 -0.137214,0.0836 -0.218362,0.125439 -0.08115,0.04184 -0.202252,0.11573 -0.269122,0.164208 -0.06686,0.04848 -0.166195,0.118417 -0.220726,0.155419 -0.05453,0.037 -0.220254,0.183201 -0.36827,0.324888 -0.32085,0.307131 -0.343237,0.373592 -0.177223,0.526137 0.05639,0.05182 0.113572,0.09422 0.127064,0.09422 0.0135,0 0.05272,0.03112 0.08716,0.06915 0.03444,0.03803 0.102552,0.09347 0.151349,0.123204 0.0488,0.02973 0.191307,0.129386 0.316684,0.221459 0.125377,0.09207 0.298363,0.209478 0.384419,0.260901 0.08605,0.05142 0.3171,0.210903 0.513432,0.354399 0.317036,0.231714 0.508811,0.357111 0.551774,0.360793 0.0078,6.66e-4 0.05212,-0.01904 0.0985,-0.04379 z m -0.272933,-0.116441 c -0.04765,-0.02521 -0.160528,-0.100223 -0.250844,-0.166687 -0.09031,-0.06646 -0.244736,-0.179546 -0.343158,-0.251294 -0.09842,-0.07175 -0.222695,-0.169586 -0.27616,-0.217418 -0.05346,-0.04783 -0.139764,-0.113058 -0.191777,-0.144945 -0.241938,-0.148328 -0.777664,-0.545301 -0.804091,-0.595832 -0.02058,-0.03935 -0.02033,-0.07397 8.12e-4,-0.114401 0.03851,-0.07365 0.0861,-0.07435 0.104709,-0.0016 0.0079,0.03103 0.131025,0.143573 0.273546,0.250095 0.142525,0.106522 0.271881,0.20958 0.287464,0.229018 0.01558,0.01944 0.07175,0.0583 0.124817,0.08636 0.05307,0.02806 0.110435,0.06239 0.127478,0.07627 0.09587,0.07813 0.431183,0.325651 0.626765,0.462675 0.12416,0.08699 0.232122,0.16643 0.23991,0.17654 0.0078,0.01011 0.06176,0.04564 0.11994,0.07896 l 0.105775,0.06058 0.106042,-0.117285 c 0.23548,-0.260441 0.239046,-0.280111 0.137737,-0.759168 -0.03781,-0.178793 -0.08443,-0.442484 -0.103588,-0.58598 -0.01916,-0.143496 -0.04532,-0.274956 -0.05814,-0.292132 -0.01281,-0.01718 -0.03629,-0.12493 -0.05216,-0.239452 -0.01587,-0.114522 -0.04025,-0.23092 -0.05417,-0.258661 -0.01392,-0.02774 -0.04647,-0.125448 -0.07233,-0.217126 -0.02586,-0.09168 -0.05668,-0.166687 -0.06848,-0.166687 -0.01181,0 -0.0458,-0.01821 -0.07554,-0.04046 -0.05093,-0.03811 -0.04755,-0.0433 0.05833,-0.08941 0.06182,-0.02692 0.137891,-0.05386 0.169051,-0.05986 0.16905,-0.03254 0.397851,-0.06402 0.406254,-0.05591 0.0053,0.0051 -0.0074,0.04118 -0.02833,0.0801 -0.19789,0.36871 -0.20031,0.375602 -0.184524,0.525908 0.03674,0.349828 0.104201,0.764644 0.142158,0.874117 0.02258,0.06513 0.0555,0.215147 0.07316,0.333375 0.02939,0.196835 0.07594,0.287433 0.147667,0.287433 0.01181,0 0.06031,-0.0424 0.107767,-0.09421 l 0.08629,-0.09421 -1.7e-5,0.115957 c -1.1e-5,0.06378 -0.02226,0.150318 -0.04945,0.192315 -0.504459,0.779355 -0.59489,0.858934 -0.832916,0.732975 z m 2.791095,-0.239233 c 0.23566,-0.210964 0.883215,-0.861208 0.928176,-0.932034 0.02545,-0.0401 0.117875,-0.148801 0.20538,-0.241566 0.08751,-0.09276 0.159099,-0.178797 0.159099,-0.191183 0,-0.01239 0.0255,-0.04613 0.05666,-0.07499 0.09384,-0.08691 0.06998,-0.167575 -0.09524,-0.321922 -0.642645,-0.600363 -1.630656,-1.016842 -2.457283,-1.035822 l -0.206555,-0.0047 -0.02518,0.115956 c -0.02612,0.120275 -0.02255,0.213584 0.05441,1.420465 0.02542,0.3986 0.04492,0.829088 0.04335,0.95664 -0.0021,0.16741 0.01066,0.258466 0.04579,0.327381 l 0.04866,0.09547 0.562855,-0.0044 0.562854,-0.0044 z m -1.19659,-0.03006 c -0.05741,-0.05875 -0.07418,-0.207714 -0.103227,-0.916897 -0.0085,-0.207272 -0.02745,-0.63776 -0.04214,-0.95664 -0.026,-0.564532 -0.01974,-0.70564 0.03171,-0.71458 0.08951,-0.01555 0.09592,-0.0049 0.09821,0.163788 0.0041,0.301314 0.06712,1.351899 0.0965,1.608894 0.0155,0.135524 0.02827,0.345876 0.02839,0.467449 l 2.35e-4,0.221042 0.08852,0.01812 c 0.190547,0.039 0.296975,0.02081 0.408394,-0.0698 0.05946,-0.04836 0.127592,-0.116843 0.151396,-0.152193 0.05838,-0.0867 0.409819,-0.490718 0.598053,-0.687538 0.290385,-0.303629 0.618035,-0.752005 0.638028,-0.873126 0.01022,-0.06188 0.02976,-0.112503 0.04343,-0.112503 0.01367,0 0.06841,0.03914 0.121646,0.08697 0.05324,0.04783 0.10951,0.08697 0.125052,0.08697 0.01554,0 0.07501,0.05458 0.132153,0.121288 0.08734,0.10196 0.09687,0.125308 0.05984,0.146514 -0.02422,0.01388 -0.05617,0.01756 -0.07099,0.0082 -0.01482,-0.0094 -0.110661,0.0058 -0.212979,0.03368 -0.176266,0.04806 -0.195473,0.06219 -0.365936,0.269128 -0.09895,0.120121 -0.261632,0.329285 -0.361523,0.464809 -0.09989,0.135524 -0.20291,0.272497 -0.228927,0.304385 -0.143627,0.17603 -0.219662,0.287787 -0.219662,0.322866 0,0.04523 0.133075,0.05333 0.196947,0.01198 0.02263,-0.01465 0.05075,-0.02055 0.0625,-0.01312 0.04564,0.02886 -0.01841,0.107866 -0.129189,0.15935 -0.09863,0.04584 -0.189601,0.05405 -0.604758,0.05459 -0.440154,5.75e-4 -0.493929,-0.0047 -0.541668,-0.0536 z"
     id="path3716-8" />
  <path
     id="path14419"
     d="m 21.763268,20.943432 a 5.4239578,5.4239593 0 0 1 -5.423958,5.423959 5.4239578,5.4239593 0 0 1 -5.423958,-5.423959 5.4239578,5.4239593 0 0 1 5.423958,-5.423959 5.4239578,5.4239593 0 0 1 5.423958,5.423959 z"
     style="display:inline;opacity:1;fill:#000000;fill-opacity:1;stroke:none;stroke-width:0.09576092;stroke-linecap:round;stroke-linejoin:round;stroke-miterlimit:4;stroke-dasharray:none;stroke-opacity:1" />
  <path
     transform="matrix(-0.01945529,0,0,0.01944644,41.990104,16.149269)"
     id="path14364"
     d="m 1097.8793,249.30095 c -4.2322,-118.62385 85.3026,-219.987623 214.5876,-224.124343 126.2259,-4.03883 228.0271,101.487243 226.6807,227.839803 -1.1856,111.25744 -92.2194,214.15874 -221.4877,214.97745 -127.6275,0.80831 -215.344,-94.34064 -219.7806,-218.69291 z M 1443.791,422.09239 C 1626.0663,270.14677 1498.937,27.28371 1320.7112,29.45157 1149.5485,34.990754 1080.1153,178.78286 1107.0147,300.923 c 28.8565,90.9148 62.4291,115.85524 137.2098,152.71596 83.437,24.24251 137.479,8.18767 199.5665,-31.54657 z m -199.9623,23.42008 c -3.0491,-0.78363 -6.7891,-2.7813 -8.3111,-4.43926 -2.58,-2.81026 -2.641,-3.38146 -0.8998,-8.4314 19.7534,-39.09469 35.5547,-70.28095 57.5079,-105.60345 5.7519,-8.2993 8.4468,-8.11939 27.5299,1.83784 26.0153,13.57434 31.296,18.89035 35.1846,35.41995 8.1521,26.32343 17.7792,51.06531 23.5711,79.20731 -38.2658,21.76993 -90.6048,13.28279 -134.5826,2.00901 z m 125.5946,-2.18488 c -4.6978,-1.97654 -14.3238,-10.76268 -16.4919,-15.05299 -3.159,-6.25129 -17.7802,-71.44096 -16.3513,-72.90323 1.4103,-1.44311 5.6282,-1.59359 8.0893,-0.28857 4.8619,2.57816 1.7003,-3.46875 -3.7761,-7.22217 -7.4487,-5.10531 -37.1921,-20.21608 -39.7924,-20.21608 -15.4391,6.21703 -26.3577,39.56232 -39.489,62.65492 -19.9283,34.98648 -21.2288,37.80927 -20.1445,43.72366 1.1755,6.41247 4.5887,5.15572 4.5887,-1.68961 0,-3.44904 1.1539,-6.42364 3.7614,-9.69641 20.8014,-29.79308 35.3835,-85.64013 53.1266,-88.19196 3.2641,0.0203 15.1173,6.05423 17.6669,8.99355 2.1265,2.45148 8.9782,29.04522 18.3141,71.0837 2.2384,10.07919 4.4143,19.24208 4.8355,20.36199 1.6907,4.49675 1.6051,11.61753 -0.1729,14.3945 -1.0358,1.61776 -1.625,3.2058 -1.3092,3.52899 10.8077,0.61898 26.6012,-9.06535 27.1448,-9.48029 z m 38.1552,-11.4975 c -14.4269,-41.05857 -36.4857,-83.65894 -48.1926,-121.27652 15.5163,-15.90913 36.0849,-23.96201 53.1445,-25.22458 36.0535,10.70292 64.1985,16.24096 92.7102,37.22409 1.9663,3.18997 -1.31,11.79622 -11.3206,29.73679 -18.381,32.94186 -40.0861,55.02775 -74.9518,76.26678 -9.3617,5.70283 -8.5939,5.4822 -11.3897,3.27344 z m 9.3894,-11.45866 c -0.7925,-0.97714 -2.2632,-1.77663 -3.2683,-1.77663 -1.005,0 -1.8273,-0.15971 -1.8273,-0.35488 0,-0.19519 -2.7459,-6.76194 -6.102,-14.59276 -12.1072,-31.43101 -24.1955,-57.07634 -33.4172,-88.21725 0.4206,-3.6891 6.7885,-7.55463 16.0073,-9.71686 4.3191,-1.01302 6.6928,-0.44686 17.2449,4.11312 23.0599,8.83109 45.5638,19.08847 59.3282,25.83026 18.7667,9.19883 23.6676,12.84861 23.8748,17.77998 6.8856,-5.6103 11.391,-19.12224 15.3134,-28.22354 -0.2427,-0.24846 -4.9557,0.50246 -10.4731,1.6687 -5.5175,1.16624 -11.6713,2.12045 -13.6749,2.12045 -2.0037,0 -18.4523,-6.56674 -36.5527,-14.59276 -27.6581,-12.26419 -32.8539,-15.00751 -32.5608,-17.19192 0.1918,-1.42953 2.2753,-3.56754 4.63,-4.75112 6.5126,-3.27373 5.2106,-4.56581 -3.9496,-3.91948 -6.6728,0.47081 -11.4812,2.14014 -24.6389,8.55389 -14.403,7.02077 -16.6521,8.57865 -18.903,13.09374 -3.3358,6.69121 -3.2829,7.29354 1.6052,18.28052 12.2945,32.12629 24.2272,58.4201 36.9712,89.89616 1.575,4.11442 4.6455,8.36854 6.04,8.36854 3.7271,-0.22442 3.8846,-5.68321 4.3528,-6.36816 z m -217.9618,1.29485 c -2.1658,-0.32677 -5.7475,-1.90367 -7.9592,-3.50422 -41.2149,-30.4106 -64.2227,-70.71369 -73.6641,-114.58337 0,-1.44358 1.3431,-3.33531 2.9847,-4.20384 41.704,-7.38141 88.2712,-19.40825 126.8995,-18.62409 4.5971,2.43273 5.0487,3.50759 8.2952,19.74447 3.7534,18.77209 4.3914,34.1565 1.6463,39.69496 -15.6811,27.9883 -32.1363,56.52478 -58.2024,81.47609 z m 1.7513,-5.35032 c -0.9833,-1.21236 -1.2624,-5.75172 -0.8101,-13.1718 0.6335,-10.39099 1.1123,-11.94443 5.8231,-18.8928 7.3212,-10.79888 34.1758,-45.97058 37.2861,-48.8341 3.5744,-3.29069 6.2967,-1.83715 7.7989,4.16402 l 1.2594,5.03161 2.5072,-5.26149 c 3.4211,-12.88456 -1.4124,-27.40738 -3.5659,-40.58524 -3.84,-15.82279 -5.1048,-16.79097 -19.2602,-14.74275 -35.1631,4.98412 -72.6298,10.50034 -102.7065,18.88138 -1.7163,1.75632 -0.3689,6.27563 1.5156,5.08374 33.5152,-5.94957 69.0941,-14.5921 101.0384,-18.34545 7.2697,-0.009 9.5058,2.56601 12.5232,14.42096 2.8716,17.49857 -10.3041,26.04988 -20.5687,39.75049 -10.8098,15.10039 -23.7389,29.87056 -34.485,44.09215 -4.7861,7.11873 -8.3147,9.49864 -12.2084,8.23405 -5.4722,-1.77733 -1.843,3.43393 9.4578,13.58071 3.4297,4.01169 9.2326,5.49684 14.3951,6.59452 z m 99.3548,-110.0981 c -5.3639,-5.16935 -5.1295,-13.25078 0.5757,-19.84518 8.0461,-9.30017 19.8492,-4.81006 23.7269,9.02617 -1.5222,17.08884 -14.5265,19.77469 -24.3026,10.81901 z m 50.7397,-16.2353 c -13.364,-3.7061 -15.3776,-14.19226 -8.7133,-22.8792 2.9144,-4.25802 11.7253,-6.50847 17.3429,-4.42972 12.0482,15.33475 5.2381,23.80257 -8.6296,27.30892 z m 147.908,-4.98197 c -21.6612,-5.14985 -45.5234,-13.81811 -64.3367,-19.19905 -35.3392,-10.0821 -45.1019,-15.20044 -45.1019,-23.64582 0,-4.22125 5.3365,-27.50866 8.0953,-35.32567 3.3953,-9.62114 7.0534,-14.00453 17.6803,-21.18565 26.9172,-16.7305 58.8767,-41.90754 76.1885,-43.12694 5.8042,2.25947 6.0524,7.6875 9.4845,13.48762 15.1899,29.53794 25.4628,89.34598 15.9204,128.16378 -1.4681,2.43087 -8.9162,2.77636 -17.9304,0.83173 z m 9.1773,-4.33386 c 1.1541,-0.45317 2.0982,-1.8926 2.0982,-3.19873 0,-1.94981 -1.6521,-2.53191 -9.2327,-3.25288 -23.2508,-4.16612 -34.493,-8.90974 -49.1345,-13.07088 -49.1142,-13.95521 -51.7346,-15.08363 -51.7346,-22.27807 0.4643,-6.59028 2.2025,-11.9474 4.0244,-18.2621 24.5321,-12.09332 45.7853,-24.79117 69.0272,-36.57694 15.6579,-7.92024 20.5059,-9.77628 25.5357,-9.77628 3.4147,0 6.2084,-0.56774 6.2084,-1.26167 0,-2.69406 -11.8614,-27.24512 -13.1631,-27.24512 -0.758,0 -1.7775,1.67987 -2.2657,3.73304 -0.4881,2.05317 -2.5227,7.39819 -4.5212,11.87783 -4.3811,9.82004 -6.1852,11.04015 -44.1634,29.86711 -28.6129,14.18426 -30.0702,14.42901 -30.0702,5.0504 0,-4.70932 -0.048,-4.75124 -2.653,-2.33833 -1.4592,1.35135 -2.6531,3.03356 -2.6531,3.73828 0,0.7047 -0.871,3.20618 -1.9355,5.55884 -4.9373,10.9109 -8.8178,24.08224 -9.5702,32.48381 -0.7506,8.38007 -0.5491,9.50131 2.2557,12.55656 2.4899,3.41122 6.57,3.77485 9.7129,5.20615 30.8375,9.78908 60.0781,17.89255 87.0881,27.12779 2.9048,0.97931 12.7077,1.01891 15.1466,0.0612 z m -240.0538,-26.52387 c 9.8691,-3.00717 14.3753,2.65158 16.5286,6.76891 4.0419,7.72844 2.5279,18.983 -8.8978,20.52371 -19.6957,-3.07515 -19.6473,-19.17834 -7.6308,-27.29262 z m -154.1774,12.10323 c -9.0777,-22.3417 -2.8223,-53.13477 4.5055,-79.52314 8.7369,-24.66676 15.9951,-47.64375 35.1519,-62.64953 30.3402,22.41504 61.8993,55.38799 88.479,81.18722 6.5939,6.66801 7.1124,7.63947 6.4172,12.02338 -9.0863,18.5714 -20.8237,32.81055 -39.8438,41.82135 -39.0092,4.70115 -58.6269,8.74803 -94.7098,7.14072 z m 5.6164,-10.41584 c 10.968,-10.84949 11.0993,-10.87596 50.2561,-10.12956 19.0805,0.3637 36.1234,0.96384 37.873,1.33363 3.142,0.66405 3.1183,0.73816 -1.9274,6.02589 -5.5513,5.81771 -5.3855,6.33594 1.1104,3.47082 7.7524,-3.41931 28.1587,-25.45725 33.3457,-36.01193 4.6871,-9.53735 4.6317,-9.6558 -11.4995,-24.6351 -17.5256,-17.07917 -37.9965,-34.62658 -54.7204,-49.64581 -12.3478,-12.23239 -19.1576,-15.69762 -21.0309,-10.70188 -0.4291,1.14428 0.6711,2.35254 2.8717,3.15387 27.0446,24.1737 56.5462,46.92152 81.1694,74.77489 0,3.10248 -11.5832,16.35815 -15.784,18.06301 -5.35,2.1713 -94.7946,2.33606 -102.2153,0.18827 -3.2491,-0.94039 -6.1687,-1.44253 -6.4879,-1.11584 -0.8055,0.82422 -1.2854,26.74441 -0.5339,28.83135 0.9202,2.55511 1.7461,2.16232 7.573,-3.60161 z m 224.8969,-27.25758 c 0,-5.19846 3.1375,-11.68369 6.5592,-13.55759 18.1074,-4.48358 27.2407,16.13674 13.2859,26.24637 -11.6439,4.50232 -15.0738,-3.17557 -19.8451,-12.68878 z m -76.7813,1.07661 c -5.8566,-6.13004 -5.806,-13.34723 0.1337,-19.02503 18.9142,-10.38379 27.0059,5.57997 18.4805,19.49515 -6.0561,5.53725 -13.0433,5.36078 -18.6142,-0.47012 z m 46.3244,-16.68278 c -11.0622,-7.91325 -7.1323,-15.16602 -3.0935,-22.49199 14.4551,-6.01857 24.0485,1.49058 21.6136,16.71371 -5.5663,9.51984 -11.4063,11.1189 -18.5201,5.77828 z m 18.8918,-60.8151 c -4.1877,-5.59844 -4.2573,-5.9257 -3.647,-17.1503 2.7655,-30.10607 6.7715,-62.134556 12.6512,-88.691436 1.181,-4.48379 1.8484,-5.10966 5.5988,-5.25125 34.0155,-0.0773 80.6417,29.76244 108.3906,53.91704 15.0244,14.381966 16.0726,17.494146 8.2988,24.637346 -34.0755,23.27668 -68.1717,50.06188 -99.8293,69.49659 -14.9839,-7.33059 -23.1907,-25.32924 -31.4631,-36.95799 z m 39.6311,29.45498 c 31.3504,-23.18493 57.0516,-39.80903 87.3802,-64.44194 0.9634,-1.84238 0.9519,-3.46387 -0.038,-5.35703 -1.8036,-3.44858 -4.0321,-3.48177 -4.9032,-0.073 -29.3175,25.70013 -60.4498,46.55989 -89.2377,66.5179 l -4.9656,-5.49208 c -11.0267,-12.19564 -11.1938,-13.11671 -6.4497,-35.5494 5.3271,-28.49843 9.4565,-56.848816 19.146,-82.416976 0.5529,0 2.1446,-0.85257 3.5371,-1.89458 2.385,-1.78459 2.2264,-2.02767 -2.7311,-4.18692 -2.8947,-1.26077 -6.457,-2.5221 -7.9161,-2.80295 -7.9161,-1.52357 -18.6302,-2.99795 -19.0237,-2.61786 -0.2487,0.24026 0.3482,1.9282 1.3265,3.75097 9.2667,17.26553 9.3799,17.58823 8.6407,24.6266 -1.348,19.05132 -6.5359,38.667926 -10.0825,56.542996 -1.3763,9.21715 -3.5558,13.45958 -6.9147,13.45958 -3.7769,-2.50893 -5.8351,-5.38555 -9.0871,-8.82352 -0.8148,5.09912 1.1555,9.92131 2.3161,14.43537 23.6223,36.49469 27.8568,40.22116 39.0029,34.32287 z m -193.8822,-78.62251 c -4.3943,-4.069576 -3.2768,-7.846966 4.4598,-15.074576 30.0929,-28.11309 76.3583,-47.61544 115.0667,-48.50424 l 9.6722,-0.22209 1.1793,5.42986 c -1.1701,46.45795 -2.6036,73.340756 -6.7219,126.642446 l -2.2786,4.47048 c -17.5712,-0.13873 -35.1423,-0.27747 -52.7135,-0.4162 -25.3424,-22.63728 -49.2584,-48.75617 -68.664,-72.32568 z m 119.2165,66.01227 c 2.6883,-2.75094 3.4736,-9.72656 4.8339,-42.93534 0.3975,-9.70588 1.2856,-29.864246 1.9734,-44.796386 1.2178,-26.43526 0.9246,-33.04288 -1.4848,-33.46153 -4.1916,-0.72835 -4.4914,-0.22818 -4.5991,7.66968 -0.3288,39.22897 -3.683,72.336476 -5.8593,107.579196 -8.822,3.07551 -18.0564,1.46505 -23.2692,-2.4202 -12.6414,-12.17467 -22.9897,-26.58182 -35.0942,-39.32189 -13.5979,-14.21798 -28.9406,-35.214026 -29.8769,-40.885726 -0.4784,-2.89747 -1.3935,-5.26812 -2.0336,-5.26812 -10.1056,3.98435 -17.1395,15.61653 -20.5426,20.68512 1.1345,0.64971 2.6305,0.82216 3.3244,0.38324 0.6941,-0.43893 5.182,0.27086 9.9732,1.5773 8.254,2.250676 9.1533,2.912126 17.1355,12.602396 12.9929,16.80914 27.6326,34.59452 37.935,51.1377 0,2.11811 -6.2314,2.49707 -9.2224,0.56086 -1.0595,-0.68591 -2.3766,-0.96243 -2.9267,-0.61446 -2.1371,1.35161 0.8621,5.05105 6.0495,7.46185 4.6186,2.14642 8.8785,2.53096 28.3189,2.55629 20.611,0.0269 23.1291,-0.22234 25.3646,-2.50998 z"
     style="display:inline;opacity:1;fill:#ffffff;stroke-width:1.34190869;" />
  <path
     id="path5821"
     d="M 24.867402,1.698086 C 31.699525,1.8031705 39.261473,1.630918 45.01482,2.7133944 48.651626,3.880288 52.038373,6.266337 54.279545,8.9956099 52.890534,9.4415694 33.508039,8.3610351 23.12233,8.0437514 23.474108,5.9029831 24.287153,3.4756942 24.867402,1.698086 Z m 2.046476,7.8210503 c 0.717375,0.1419262 1.304687,0.1282869 1.824319,0.4679854 -0.06256,0.2117493 -0.796622,0.2556123 -1.871912,0.2141663 -0.67742,-0.09497 -1.55841,-0.108494 -2.03067,-0.2855475 0.600733,-0.3104367 1.334487,-0.3109581 2.078263,-0.3966042 z m 43.730279,1.3910907 c 0.858783,1.37142 1.190871,2.655053 1.462563,3.928618 -0.08247,0.235463 -1.420225,0.165828 -1.53563,-0.05022 -0.869247,-0.981441 -1.401108,-2.998661 -1.401108,-2.998661 -1.893103,-0.68643 -2.99135,-0.847933 -3.693625,-1.687349 2.270663,-0.4070818 4.181205,0.482433 5.1678,0.807613 z M 41.112282,9.9791903 c 0.62762,0.1129327 1.446184,0.077354 1.808513,0.3966067 l -1.776814,0.396605 -2.094113,-0.333155 c 0.595259,-0.314694 1.340492,-0.36696 2.062414,-0.4600567 z m -16.134773,4.4517647 28.955556,1.051657 -0.210281,1.822867 -29.937117,-1.472317 z m 0.671504,5.845516 c 4.473162,-0.0065 9.049412,0.218558 13.6397,0.198982 4.909529,-0.02094 9.994859,0.02679 14.803906,0.530539 -0.0071,0.08619 -0.02252,0.112085 -0.134345,0.20643 l 0.140526,-0.01683 c -5.944953,0.08153 -10.514536,-0.244421 -17.618307,-0.365233 -4.08037,-0.135753 -8.239633,-0.05204 -12.240888,-0.407274 0.0128,-0.08829 0.0234,-0.123734 0.02914,-0.136649 0.45906,-0.0061 0.919356,-0.0093 1.380712,-0.01 z m -1.380755,0.01 h -0.0044 c 0.0044,2.68e-4 0.0044,0 0.0044,-5.3e-4 -1.33e-4,1.69e-4 -1.77e-4,2.76e-4 -2.65e-4,5.3e-4 z m 2.2e-4,-5.3e-4 c 0.0057,-0.01233 0.0062,-0.0025 0,0 z M 6.7234152,1.2894178 C 7.0992985,0.45298553 8.0957381,0.41611374 8.9080329,0.19094001 17.686193,0.3019916 26.386829,0.18045907 35.242559,0.52408815 36.585611,0.71893205 37.842706,0.95651558 38.932035,1.3628029 37.752775,1.3697254 8.4834975,0.97377866 6.7234152,1.2894178 Z"
     style="display:inline;fill:#ffffff;stroke:#000000;stroke-width:0.01121766px;stroke-linecap:butt;stroke-linejoin:miter;stroke-opacity:1;" />
  <path
     id="path5746-1"
     d="M 4.5393714,3.5884097 4.433988,3.1864141 C 4.3433504,2.7335749 4.4957964,2.3550311 3.4495127,4.0148289 2.4907762,5.5188347 1.6168938,7.1908622 1.2940774,8.1389809 1.032672,8.9067467 0.95320409,11.72117 1.1929765,11.72117 c 0.077481,0 0.7642167,0.195364 0.9080978,-0.141002 C 2.2278257,11.283902 1.9188278,10.527214 1.9972803,9.7612981 2.158512,8.217218 2.6420302,6.5606196 3.6008109,5.3586141 3.8664545,5.0256081 4.2089613,4.8345716 4.2089613,4.7556379 4.6257265,4.0037741 4.5393714,3.5884097 4.5393714,3.5884097 Z"
     style="display:inline;fill:#8a112b;stroke-width:0.15574735;" />
  <path
     id="path5744-1"
     d="m 11.898411,0.02430855 c 8.647524,0.06367898 16.67617,-0.26038818 24.606187,0.43916719 0.660732,0.12461368 1.386848,0.30783319 1.94723,0.47933559 0.944609,0.29417787 4.339744,0.75065277 5.634718,0.75767157 0.316415,0.00172 0.68232,-0.1062359 0.817239,-0.2411499 0.331691,-0.3317173 0.759846,-0.1662628 1.188178,0.4588006 0.194255,0.2834714 0.744792,0.7284976 1.223542,0.9890107 2.791223,1.591862 5.312608,3.4930198 7.567599,5.2952577 3.666827,0.2019506 7.600932,0.4886343 11.057963,1.2164718 1.526933,0.3608074 3.918079,0.580817 4.959903,1.2100842 0.721216,0.763112 1.271002,2.535483 1.441637,3.4669 0.346922,1.36972 0.451731,2.878939 0.433718,3.899235 -0.03708,1.966628 -0.06808,2.160618 -0.431422,2.709684 -0.21527,0.325276 -0.692475,0.79365 -1.060456,1.0408 -0.36798,0.247145 -0.693137,0.587155 -0.722275,0.755618 -0.04653,0.204977 -0.140128,0.406251 -0.300345,0.498042 0,8.83e-4 8.9e-5,0.0021 -0.0044,0.003 v -2.34e-4 c -0.148032,0.115162 -0.715124,0.194608 -1.388482,0.194608 h -1.112683 l -0.02384,2.34e-4 v -2.34e-4 c -0.0181,-3.604001 -1.387024,-6.986424 -4.709181,-7.731167 -3.247237,-0.831901 -6.651114,1.449673 -7.061301,4.733107 -0.03708,0.643781 -0.443784,1.373391 -0.657332,1.628861 -0.09386,0.0372 -0.684749,0.04948 -1.939901,0.02793 -9.654162,-0.309452 -18.903259,-0.447493 -27.946445,-0.37165 -0.632432,0.01212 -1.288131,-0.01126 -1.845245,0.242976 -0.385332,0.06573 -0.94483,0.127699 -1.257316,-0.05088 -0.17505,-0.26249 -0.198537,-0.620951 -0.218581,-0.850983 -0.602411,-5.008679 -4.743485,-6.900541 -8.373624,-5.138522 -2.187355,0.97399 -3.018413,3.010198 -3.191742,5.059355 C 7.7157048,20.430613 4.5658165,20.014038 1.4789287,19.405699 1.2687801,19.26803 0.86380266,18.682521 0.5789101,18.104357 0.02846219,16.792038 0.01782232,16.214692 0.0032532,15.051085 -0.01705528,14.54058 0.05543714,13.952861 0.28523193,13.579319 c 0.17191563,-0.275027 0.28533404,-0.403838 0.48638792,-0.462452 0,-2.33e-4 -8.83e-5,-4.41e-4 0.004415,-6.62e-4 0.31217645,-0.113326 1.19638965,0.0057 0.92262265,-0.198943 -0.1912528,-0.229171 -0.1883832,-0.532524 -0.532965,-1.223903 l 0.9190467,-0.07934 -0.083353,-0.874176 C 1.757243,8.9663163 1.9017864,8.7203025 2.329942,7.6220044 2.7844986,6.5469101 3.9951484,4.1597175 4.2470618,3.7443126 4.4142094,3.4411274 4.5453315,3.2269829 4.2656043,3.1198129 4.199072,3.0943169 4.190772,3.0453987 4.1310828,3.0100641 4.1839289,2.8277568 4.2760676,2.5257411 4.296067,2.5505576 3.5704806,2.6434609 3.2494301,2.2089483 3.6225763,1.6393442 3.8226147,1.3340646 4.0341319,1.2707909 5.1363522,1.1857911 5.6364262,1.1199135 6.2592783,1.1173198 6.6425786,0.88669196 6.7179849,0.82662302 6.7831927,0.75823424 6.8544931,0.71193269 8.3205441,-0.22469364 10.24848,0.03713953 11.89819,0.02431252 Z m -2.8075135,0.1998442 c -0.7707949,0.0650132 -1.7160218,0.26951684 -2.251106,0.91075415 0.052537,0.036432 0.097613,0.034984 0.146221,0.030573 0.083971,-0.098268 11.5047935,-0.25523905 20.5855505,-0.096962 3.733845,0.02226 7.522435,0.1896069 11.148822,0.2598575 C 38.605642,1.2550209 38.079609,1.1069227 37.198618,0.9136073 33.024035,0.27288161 28.763627,0.42006947 24.855526,0.33183622 19.317494,0.23153356 14.20488,0.22415452 9.0908975,0.22415452 Z M 28.454496,1.8594995 h -0.0044 -3.448158 c -0.653226,1.208529 -1.274842,4.2060366 -1.7109,5.9155853 0.07364,0.068678 1.88626,0.1717404 4.0277,0.2290584 2.141528,0.057323 6.76718,0.2048366 10.27931,0.327845 3.512085,0.1230075 7.701944,0.2700122 9.31064,0.3267042 2.685487,0.094638 2.916606,0.082095 2.825571,-0.1551387 -0.09644,-0.2511381 -0.281111,-0.327237 -0.378062,-0.1759005 -0.0062,0.1760904 -0.279418,0.1906657 -2.597674,0.06525 C 44.13171,8.4162931 41.275412,8.1055006 38.921969,8.0892468 33.540179,7.8045343 28.701686,7.7867512 23.858777,7.5742539 24.26764,5.7616181 24.846431,3.6863902 25.383811,2.0931264 l 2.284659,0.016883 c 4.762028,0.068314 9.263092,-0.021421 13.725923,0.3515723 2.946185,0.2046251 4.033086,0.5533136 5.531851,1.3029391 0.786954,0.3935998 1.709311,0.9639333 2.211196,1.3410395 0.292839,0.09857 0.327275,0.48701 0.605016,0.4918818 0.30211,0 0.290499,-0.1203347 -0.05929,-0.4022203 C 49.44317,5.0100342 49.22949,4.8612322 48.997576,4.7085867 47.838404,3.946479 46.512658,3.2711817 45.495557,2.9110281 45.015923,2.7664574 44.495717,2.6493662 43.912908,2.550102 42.086647,2.2961185 38.701843,2.0806359 34.86076,1.9608022 32.599809,1.9239202 30.48084,1.8601331 28.453966,1.8595053 Z m 20.961523,4.1634277 c -0.0088,-0.00336 -0.01501,0.035094 -0.01987,0.1044911 l -0.0084,0.1715651 c -0.0044,0.079403 -0.0062,0.1526168 -0.0097,0.2717211 l -0.02031,0.7398761 h 0.778875 c 0.428288,0 0.778697,0.062989 0.778697,0.1400812 0,0.2091689 1.08955,0.170574 1.094847,-0.038785 0,-0.051304 0.03929,-0.049834 0.0981,-0.0146 0.07152,0.033977 0.187942,0.1448299 0.369129,0.3440432 0.316724,0.3481782 0.477779,0.5751307 0.460649,0.7218523 v 0.010953 c 0,0.1648169 -0.257388,0.2393848 -0.973482,0.281988 -0.841213,0.05007 -0.801788,0.058605 0.291073,0.063196 0.695521,0.00291 1.338902,0.051281 1.429805,0.107457 0.0909,0.056175 0.217654,0.017408 0.281537,-0.086011 0.06684,-0.1081245 0.02163,-0.2191156 -0.10609,-0.2614544 -0.122248,-0.04048 -0.67115,-0.5113103 -1.219877,-1.0462757 -0.63177,-0.6159255 -1.082706,-0.940239 -1.22906,-0.8840636 -0.192091,0.073716 -0.181407,0.1252309 0.06322,0.3048024 0.183217,0.1344796 0.209927,0.1792611 0,0.1622113 -0.01413,0.023885 -0.04238,0.038785 -0.08375,0.038785 -0.05532,0 -0.104147,-0.026163 -0.134124,-0.065934 -0.0615,-0.00848 -0.106619,-0.013373 -0.186617,-0.025553 -0.119376,-0.018168 -0.237209,-0.042913 -0.350672,-0.069585 -0.107634,0.00494 -0.22741,-0.028467 -0.336281,-0.096506 -0.09307,-0.03282 -0.17196,-0.065389 -0.208515,-0.094224 -0.133021,-0.1048893 -0.194829,-0.094077 -0.194829,0.03422 0,0.4111579 -0.395486,0.02573 -0.485726,-0.4734019 -0.03885,-0.2150089 -0.06247,-0.3329676 -0.07828,-0.3408495 z m 1.95703,1.9107187 v 0 c -0.06887,1.148e-4 -0.126795,0.051402 -0.142115,0.1197767 0.01633,0.09128 0.08481,0.1640073 0.17271,0.1850261 0.0044,8.388e-4 0.0084,0.0019 0.0128,0.00252 0.0049,8.388e-4 0.01015,0.00106 0.01501,0.00159 0.01015,0.00106 0.01987,0.00185 0.03002,0.00207 0.10896,-0.00234 0.162777,-0.062579 0.151034,-0.1597018 -0.05386,-0.083506 -0.159907,-0.1511427 -0.23911,-0.1512606 z M 25.109867,9.9034547 c 0.0415,0.041628 0.853618,0.1058593 1.804408,0.1425913 1.377444,0.05322 1.728869,0.02409 1.728869,-0.1428195 C 28.070534,9.491677 25.39785,9.4101112 25.109867,9.90346 Z M 65.63878,10.114718 c 0.433277,0.506011 1.111801,0.733882 1.648342,0.849842 1.364773,0.285546 2.15804,0.633965 2.15804,0.947944 0.360166,1.242935 0.560911,2.378623 1.480664,2.889692 0.297431,0.06984 0.888231,0.207524 1.055379,-0.02441 0.107899,-0.659613 -1.154758,-3.622199 -1.447553,-3.807977 -0.336768,-0.161204 -2.105503,-0.728754 -3.381052,-0.831641 -0.508374,-0.05956 -1.006461,-0.02074 -1.51382,-0.02345 z m -26.283976,0.289288 c 0.1045,0.06458 0.965845,0.127823 1.914162,0.140538 2.310619,-0.08277 1.61108,-0.357225 -0.01236,-0.39743 -0.484489,0.01843 -1.381506,-0.03971 -1.901579,0.256892 z m -13.667955,4.731738 c -0.60272,2.34e-4 -0.937457,0.03063 -0.937457,0.08966 0.09346,0.227715 0.320609,0.260197 0.511288,0.289972 1.275813,0.129186 7.844192,0.440257 18.957076,0.896384 2.739657,0.124724 5.480948,0.21854 8.218928,0.377353 0.674682,-0.0022 0.894411,-0.04824 0.970303,-0.143276 v -0.737822 c -3.028876,-0.0846 -5.838951,0.03707 -8.955639,-0.109278 -0.942269,-0.04713 -4.72693,-0.187097 -8.410357,-0.31119 -3.683427,-0.124094 -7.730906,-0.267743 -8.994402,-0.319176 -0.459104,-0.01505 -0.935117,-0.0323 -1.35974,-0.03263 z m -0.107238,5.131906 v 0 c -0.738963,0.0045 -1.189149,0.02684 -1.279654,0.06821 2.059676,0.269023 3.554954,0.240222 5.2391,0.276056 0.575745,0.04912 9.321545,0.208983 14.28988,0.33218 10.745831,0.266456 10.201299,0.261384 10.201299,0.09445 0,-0.07344 -2.155126,-0.18075 -4.789223,-0.238412 -4.352062,-0.09527 -8.614943,-0.196755 -20.792256,-0.495533 -0.966021,-0.02167 -1.925464,-0.03282 -2.868925,-0.03696 z"
     style="display:inline;fill:#000000;stroke-width:0.15574735;" />
</svg>
