<svg xmlns="http://www.w3.org/2000/svg" id="esv" viewBox="0 0 605 431">
  <defs>
    <linearGradient id="SVGID_225_" x1="1150" x2="1150" y1="652.7" y2="871.1" gradientTransform="matrix(-1 0 0 1 2365 0)" gradientUnits="userSpaceOnUse">
      <stop offset="0" stop-color="#E8C069"/>
      <stop offset=".058" stop-color="#E9C26C"/>
      <stop offset=".118" stop-color="#EBC776"/>
      <stop offset=".18" stop-color="#EECF87"/>
      <stop offset=".242" stop-color="#F3DA9E"/>
      <stop offset=".303" stop-color="#F9EABE"/>
      <stop offset=".35" stop-color="#FFFCDD"/>
      <stop offset=".374" stop-color="#F8EAC3"/>
      <stop offset=".466" stop-color="#E1BA72"/>
      <stop offset=".531" stop-color="#D59F41"/>
      <stop offset=".562" stop-color="#D09530"/>
      <stop offset=".798" stop-color="#895323"/>
      <stop offset="1" stop-color="#E8C069"/>
    </linearGradient>
    <linearGradient id="SVGID_224_" x1="986.2" x2="986.2" y1="652.7" y2="871.1" gradientUnits="userSpaceOnUse">
      <stop offset="0" stop-color="#E8C069"/>
      <stop offset=".058" stop-color="#E9C26C"/>
      <stop offset=".118" stop-color="#EBC776"/>
      <stop offset=".18" stop-color="#EECF87"/>
      <stop offset=".242" stop-color="#F3DA9E"/>
      <stop offset=".303" stop-color="#F9EABE"/>
      <stop offset=".35" stop-color="#FFFCDD"/>
      <stop offset=".374" stop-color="#F8EAC3"/>
      <stop offset=".466" stop-color="#E1BA72"/>
      <stop offset=".531" stop-color="#D59F41"/>
      <stop offset=".562" stop-color="#D09530"/>
      <stop offset=".798" stop-color="#895323"/>
      <stop offset="1" stop-color="#E8C069"/>
    </linearGradient>
    <linearGradient id="SVGID_223_" x1="1100" x2="1100" y1="652.7" y2="871.1" gradientUnits="userSpaceOnUse">
      <stop offset="0" stop-color="#F04E29"/>
      <stop offset=".288" stop-color="#D13020"/>
      <stop offset=".512" stop-color="#BF191B"/>
      <stop offset=".696" stop-color="#9A1617"/>
      <stop offset=".891" stop-color="#7E1214"/>
      <stop offset="1" stop-color="#741112"/>
    </linearGradient>
    <linearGradient id="SVGID_222_" x1="-3211" x2="-3154" y1="659" y2="659" gradientTransform="matrix(-1 0 0 1 -2755 -437.5)" gradientUnits="userSpaceOnUse">
      <stop offset="0" stop-color="#E8C069"/>
      <stop offset=".058" stop-color="#E9C26C"/>
      <stop offset=".118" stop-color="#EBC776"/>
      <stop offset=".18" stop-color="#EECF87"/>
      <stop offset=".242" stop-color="#F3DA9E"/>
      <stop offset=".303" stop-color="#F9EABE"/>
      <stop offset=".35" stop-color="#FFFCDD"/>
      <stop offset=".374" stop-color="#F8EAC3"/>
      <stop offset=".466" stop-color="#E1BA72"/>
      <stop offset=".531" stop-color="#D59F41"/>
      <stop offset=".562" stop-color="#D09530"/>
      <stop offset=".798" stop-color="#895323"/>
      <stop offset="1" stop-color="#E8C069"/>
    </linearGradient>
    <linearGradient id="SVGID_221_" x1="-3199" x2="-3163" y1="655.8" y2="655.8" gradientTransform="matrix(-1 0 0 1 -2755 -437.5)" gradientUnits="userSpaceOnUse">
      <stop offset="0" stop-color="#E8C069"/>
      <stop offset=".058" stop-color="#E9C26C"/>
      <stop offset=".118" stop-color="#EBC776"/>
      <stop offset=".18" stop-color="#EECF87"/>
      <stop offset=".242" stop-color="#F3DA9E"/>
      <stop offset=".303" stop-color="#F9EABE"/>
      <stop offset=".35" stop-color="#FFFCDD"/>
      <stop offset=".374" stop-color="#F8EAC3"/>
      <stop offset=".466" stop-color="#E1BA72"/>
      <stop offset=".531" stop-color="#D59F41"/>
      <stop offset=".562" stop-color="#D09530"/>
      <stop offset=".798" stop-color="#895323"/>
      <stop offset="1" stop-color="#E8C069"/>
    </linearGradient>
    <linearGradient id="SVGID_220_" x1="-3189" x2="-3172" y1="542.8" y2="542.8" gradientTransform="matrix(-1 0 0 1 -2755 -437.5)" gradientUnits="userSpaceOnUse">
      <stop offset="0" stop-color="#E8C069"/>
      <stop offset=".058" stop-color="#E9C26C"/>
      <stop offset=".118" stop-color="#EBC776"/>
      <stop offset=".18" stop-color="#EECF87"/>
      <stop offset=".242" stop-color="#F3DA9E"/>
      <stop offset=".303" stop-color="#F9EABE"/>
      <stop offset=".35" stop-color="#FFFCDD"/>
      <stop offset=".374" stop-color="#F8EAC3"/>
      <stop offset=".466" stop-color="#E1BA72"/>
      <stop offset=".531" stop-color="#D59F41"/>
      <stop offset=".562" stop-color="#D09530"/>
      <stop offset=".798" stop-color="#895323"/>
      <stop offset="1" stop-color="#E8C069"/>
    </linearGradient>
    <linearGradient id="SVGID_219_" x1="-3191" x2="-3170" y1="540.6" y2="540.6" gradientTransform="matrix(-1 0 0 1 -2755 -437.5)" gradientUnits="userSpaceOnUse">
      <stop offset="0" stop-color="#E8C069"/>
      <stop offset=".058" stop-color="#E9C26C"/>
      <stop offset=".118" stop-color="#EBC776"/>
      <stop offset=".18" stop-color="#EECF87"/>
      <stop offset=".242" stop-color="#F3DA9E"/>
      <stop offset=".303" stop-color="#F9EABE"/>
      <stop offset=".35" stop-color="#FFFCDD"/>
      <stop offset=".374" stop-color="#F8EAC3"/>
      <stop offset=".466" stop-color="#E1BA72"/>
      <stop offset=".531" stop-color="#D59F41"/>
      <stop offset=".562" stop-color="#D09530"/>
      <stop offset=".798" stop-color="#895323"/>
      <stop offset="1" stop-color="#E8C069"/>
    </linearGradient>
    <linearGradient id="SVGID_218_" x1="-3187" x2="-3172" y1="537.8" y2="537.8" gradientTransform="matrix(-1 0 0 1 -2005 0)" gradientUnits="userSpaceOnUse">
      <stop offset="0" stop-color="#E8C069"/>
      <stop offset=".058" stop-color="#E9C26C"/>
      <stop offset=".118" stop-color="#EBC776"/>
      <stop offset=".18" stop-color="#EECF87"/>
      <stop offset=".242" stop-color="#F3DA9E"/>
      <stop offset=".303" stop-color="#F9EABE"/>
      <stop offset=".35" stop-color="#FFFCDD"/>
      <stop offset=".374" stop-color="#F8EAC3"/>
      <stop offset=".466" stop-color="#E1BA72"/>
      <stop offset=".531" stop-color="#D59F41"/>
      <stop offset=".562" stop-color="#D09530"/>
      <stop offset=".798" stop-color="#895323"/>
      <stop offset="1" stop-color="#E8C069"/>
    </linearGradient>
    <radialGradient id="SVGID_217_" cx="-3181" cy="526.3" r="10.18" gradientTransform="matrix(-1 0 0 .9 -2755 -396.5)" gradientUnits="userSpaceOnUse">
      <stop offset="0" stop-color="#FFFCDD"/>
      <stop offset=".145" stop-color="#F5E1AC"/>
      <stop offset=".32" stop-color="#ECC97C"/>
      <stop offset=".404" stop-color="#E8C069"/>
      <stop offset=".475" stop-color="#E7BD65"/>
      <stop offset=".549" stop-color="#E2B55A"/>
      <stop offset=".625" stop-color="#DAA847"/>
      <stop offset=".7" stop-color="#D19631"/>
      <stop offset=".704" stop-color="#D09530"/>
      <stop offset="1" stop-color="#895323"/>
    </radialGradient>
    <linearGradient id="SVGID_216_" x1="-3186" x2="-3174" y1="598" y2="598" gradientTransform="matrix(-1 0 0 1 -2755 -437.5)" gradientUnits="userSpaceOnUse">
      <stop offset="0" stop-color="#E8C069"/>
      <stop offset=".058" stop-color="#E9C26C"/>
      <stop offset=".118" stop-color="#EBC776"/>
      <stop offset=".18" stop-color="#EECF87"/>
      <stop offset=".242" stop-color="#F3DA9E"/>
      <stop offset=".303" stop-color="#F9EABE"/>
      <stop offset=".35" stop-color="#FFFCDD"/>
      <stop offset=".374" stop-color="#F8EAC3"/>
      <stop offset=".466" stop-color="#E1BA72"/>
      <stop offset=".531" stop-color="#D59F41"/>
      <stop offset=".562" stop-color="#D09530"/>
      <stop offset=".798" stop-color="#895323"/>
      <stop offset="1" stop-color="#E8C069"/>
    </linearGradient>
    <linearGradient id="SVGID_215_" x1="-3278" x2="-3213" y1="738.9" y2="738.9" gradientTransform="matrix(-1 0 0 1 -2755 -437.5)" gradientUnits="userSpaceOnUse">
      <stop offset="0" stop-color="#E8C069"/>
      <stop offset=".058" stop-color="#E9C26C"/>
      <stop offset=".118" stop-color="#EBC776"/>
      <stop offset=".18" stop-color="#EECF87"/>
      <stop offset=".242" stop-color="#F3DA9E"/>
      <stop offset=".303" stop-color="#F9EABE"/>
      <stop offset=".35" stop-color="#FFFCDD"/>
      <stop offset=".374" stop-color="#F8EAC3"/>
      <stop offset=".466" stop-color="#E1BA72"/>
      <stop offset=".531" stop-color="#D59F41"/>
      <stop offset=".562" stop-color="#D09530"/>
      <stop offset=".798" stop-color="#895323"/>
      <stop offset="1" stop-color="#E8C069"/>
    </linearGradient>
    <linearGradient id="SVGID_214_" x1="-3264" x2="-3223" y1="735.3" y2="735.3" gradientTransform="matrix(-1 0 0 1 -2755 -437.5)" gradientUnits="userSpaceOnUse">
      <stop offset="0" stop-color="#E8C069"/>
      <stop offset=".058" stop-color="#E9C26C"/>
      <stop offset=".118" stop-color="#EBC776"/>
      <stop offset=".18" stop-color="#EECF87"/>
      <stop offset=".242" stop-color="#F3DA9E"/>
      <stop offset=".303" stop-color="#F9EABE"/>
      <stop offset=".35" stop-color="#FFFCDD"/>
      <stop offset=".374" stop-color="#F8EAC3"/>
      <stop offset=".466" stop-color="#E1BA72"/>
      <stop offset=".531" stop-color="#D59F41"/>
      <stop offset=".562" stop-color="#D09530"/>
      <stop offset=".798" stop-color="#895323"/>
      <stop offset="1" stop-color="#E8C069"/>
    </linearGradient>
    <linearGradient id="SVGID_213_" x1="-3253" x2="-3233" y1="605.2" y2="605.2" gradientTransform="matrix(-1 0 0 1 -2755 -437.5)" gradientUnits="userSpaceOnUse">
      <stop offset="0" stop-color="#E8C069"/>
      <stop offset=".058" stop-color="#E9C26C"/>
      <stop offset=".118" stop-color="#EBC776"/>
      <stop offset=".18" stop-color="#EECF87"/>
      <stop offset=".242" stop-color="#F3DA9E"/>
      <stop offset=".303" stop-color="#F9EABE"/>
      <stop offset=".35" stop-color="#FFFCDD"/>
      <stop offset=".374" stop-color="#F8EAC3"/>
      <stop offset=".466" stop-color="#E1BA72"/>
      <stop offset=".531" stop-color="#D59F41"/>
      <stop offset=".562" stop-color="#D09530"/>
      <stop offset=".798" stop-color="#895323"/>
      <stop offset="1" stop-color="#E8C069"/>
    </linearGradient>
    <linearGradient id="SVGID_212_" x1="-3255" x2="-3231" y1="602.6" y2="602.6" gradientTransform="matrix(-1 0 0 1 -2755 -437.5)" gradientUnits="userSpaceOnUse">
      <stop offset="0" stop-color="#E8C069"/>
      <stop offset=".058" stop-color="#E9C26C"/>
      <stop offset=".118" stop-color="#EBC776"/>
      <stop offset=".18" stop-color="#EECF87"/>
      <stop offset=".242" stop-color="#F3DA9E"/>
      <stop offset=".303" stop-color="#F9EABE"/>
      <stop offset=".35" stop-color="#FFFCDD"/>
      <stop offset=".374" stop-color="#F8EAC3"/>
      <stop offset=".466" stop-color="#E1BA72"/>
      <stop offset=".531" stop-color="#D59F41"/>
      <stop offset=".562" stop-color="#D09530"/>
      <stop offset=".798" stop-color="#895323"/>
      <stop offset="1" stop-color="#E8C069"/>
    </linearGradient>
    <linearGradient id="SVGID_211_" x1="-3251" x2="-3234" y1="599.4" y2="599.4" gradientTransform="matrix(-1 0 0 1 -2005 0)" gradientUnits="userSpaceOnUse">
      <stop offset="0" stop-color="#E8C069"/>
      <stop offset=".058" stop-color="#E9C26C"/>
      <stop offset=".118" stop-color="#EBC776"/>
      <stop offset=".18" stop-color="#EECF87"/>
      <stop offset=".242" stop-color="#F3DA9E"/>
      <stop offset=".303" stop-color="#F9EABE"/>
      <stop offset=".35" stop-color="#FFFCDD"/>
      <stop offset=".374" stop-color="#F8EAC3"/>
      <stop offset=".466" stop-color="#E1BA72"/>
      <stop offset=".531" stop-color="#D59F41"/>
      <stop offset=".562" stop-color="#D09530"/>
      <stop offset=".798" stop-color="#895323"/>
      <stop offset="1" stop-color="#E8C069"/>
    </linearGradient>
    <radialGradient id="SVGID_210_" cx="-3243" cy="586.2" r="11.71" gradientTransform="matrix(-1 0 0 .9 -2755 -391.8)" gradientUnits="userSpaceOnUse">
      <stop offset="0" stop-color="#FFFCDD"/>
      <stop offset=".145" stop-color="#F5E1AC"/>
      <stop offset=".32" stop-color="#ECC97C"/>
      <stop offset=".404" stop-color="#E8C069"/>
      <stop offset=".475" stop-color="#E7BD65"/>
      <stop offset=".549" stop-color="#E2B55A"/>
      <stop offset=".625" stop-color="#DAA847"/>
      <stop offset=".7" stop-color="#D19631"/>
      <stop offset=".704" stop-color="#D09530"/>
      <stop offset="1" stop-color="#895323"/>
    </radialGradient>
    <linearGradient id="SVGID_209_" x1="-3249" x2="-3236" y1="668.7" y2="668.7" gradientTransform="matrix(-1 0 0 1 -2755 -437.5)" gradientUnits="userSpaceOnUse">
      <stop offset="0" stop-color="#E8C069"/>
      <stop offset=".058" stop-color="#E9C26C"/>
      <stop offset=".118" stop-color="#EBC776"/>
      <stop offset=".18" stop-color="#EECF87"/>
      <stop offset=".242" stop-color="#F3DA9E"/>
      <stop offset=".303" stop-color="#F9EABE"/>
      <stop offset=".35" stop-color="#FFFCDD"/>
      <stop offset=".374" stop-color="#F8EAC3"/>
      <stop offset=".466" stop-color="#E1BA72"/>
      <stop offset=".531" stop-color="#D59F41"/>
      <stop offset=".562" stop-color="#D09530"/>
      <stop offset=".798" stop-color="#895323"/>
      <stop offset="1" stop-color="#E8C069"/>
    </linearGradient>
    <linearGradient id="SVGID_208_" x1="-3377" x2="-3296" y1="866" y2="866" gradientTransform="matrix(-1 0 0 1 -2755 -437.5)" gradientUnits="userSpaceOnUse">
      <stop offset="0" stop-color="#E8C069"/>
      <stop offset=".058" stop-color="#E9C26C"/>
      <stop offset=".118" stop-color="#EBC776"/>
      <stop offset=".18" stop-color="#EECF87"/>
      <stop offset=".242" stop-color="#F3DA9E"/>
      <stop offset=".303" stop-color="#F9EABE"/>
      <stop offset=".35" stop-color="#FFFCDD"/>
      <stop offset=".374" stop-color="#F8EAC3"/>
      <stop offset=".466" stop-color="#E1BA72"/>
      <stop offset=".531" stop-color="#D59F41"/>
      <stop offset=".562" stop-color="#D09530"/>
      <stop offset=".798" stop-color="#895323"/>
      <stop offset="1" stop-color="#E8C069"/>
    </linearGradient>
    <linearGradient id="SVGID_207_" x1="-3360" x2="-3309" y1="861.5" y2="861.5" gradientTransform="matrix(-1 0 0 1 -2755 -437.5)" gradientUnits="userSpaceOnUse">
      <stop offset="0" stop-color="#E8C069"/>
      <stop offset=".058" stop-color="#E9C26C"/>
      <stop offset=".118" stop-color="#EBC776"/>
      <stop offset=".18" stop-color="#EECF87"/>
      <stop offset=".242" stop-color="#F3DA9E"/>
      <stop offset=".303" stop-color="#F9EABE"/>
      <stop offset=".35" stop-color="#FFFCDD"/>
      <stop offset=".374" stop-color="#F8EAC3"/>
      <stop offset=".466" stop-color="#E1BA72"/>
      <stop offset=".531" stop-color="#D59F41"/>
      <stop offset=".562" stop-color="#D09530"/>
      <stop offset=".798" stop-color="#895323"/>
      <stop offset="1" stop-color="#E8C069"/>
    </linearGradient>
    <linearGradient id="SVGID_206_" x1="-3345" x2="-3321" y1="700.6" y2="700.6" gradientTransform="matrix(-1 0 0 1 -2755 -437.5)" gradientUnits="userSpaceOnUse">
      <stop offset="0" stop-color="#E8C069"/>
      <stop offset=".058" stop-color="#E9C26C"/>
      <stop offset=".118" stop-color="#EBC776"/>
      <stop offset=".18" stop-color="#EECF87"/>
      <stop offset=".242" stop-color="#F3DA9E"/>
      <stop offset=".303" stop-color="#F9EABE"/>
      <stop offset=".35" stop-color="#FFFCDD"/>
      <stop offset=".374" stop-color="#F8EAC3"/>
      <stop offset=".466" stop-color="#E1BA72"/>
      <stop offset=".531" stop-color="#D59F41"/>
      <stop offset=".562" stop-color="#D09530"/>
      <stop offset=".798" stop-color="#895323"/>
      <stop offset="1" stop-color="#E8C069"/>
    </linearGradient>
    <linearGradient id="SVGID_205_" x1="-3349" x2="-3318" y1="697.4" y2="697.4" gradientTransform="matrix(-1 0 0 1 -2755 -437.5)" gradientUnits="userSpaceOnUse">
      <stop offset="0" stop-color="#E8C069"/>
      <stop offset=".058" stop-color="#E9C26C"/>
      <stop offset=".118" stop-color="#EBC776"/>
      <stop offset=".18" stop-color="#EECF87"/>
      <stop offset=".242" stop-color="#F3DA9E"/>
      <stop offset=".303" stop-color="#F9EABE"/>
      <stop offset=".35" stop-color="#FFFCDD"/>
      <stop offset=".374" stop-color="#F8EAC3"/>
      <stop offset=".466" stop-color="#E1BA72"/>
      <stop offset=".531" stop-color="#D59F41"/>
      <stop offset=".562" stop-color="#D09530"/>
      <stop offset=".798" stop-color="#895323"/>
      <stop offset="1" stop-color="#E8C069"/>
    </linearGradient>
    <linearGradient id="SVGID_204_" x1="-3343" x2="-3322" y1="693.4" y2="693.4" gradientTransform="matrix(-1 0 0 1 -2005 0)" gradientUnits="userSpaceOnUse">
      <stop offset="0" stop-color="#E8C069"/>
      <stop offset=".058" stop-color="#E9C26C"/>
      <stop offset=".118" stop-color="#EBC776"/>
      <stop offset=".18" stop-color="#EECF87"/>
      <stop offset=".242" stop-color="#F3DA9E"/>
      <stop offset=".303" stop-color="#F9EABE"/>
      <stop offset=".35" stop-color="#FFFCDD"/>
      <stop offset=".374" stop-color="#F8EAC3"/>
      <stop offset=".466" stop-color="#E1BA72"/>
      <stop offset=".531" stop-color="#D59F41"/>
      <stop offset=".562" stop-color="#D09530"/>
      <stop offset=".798" stop-color="#895323"/>
      <stop offset="1" stop-color="#E8C069"/>
    </linearGradient>
    <radialGradient id="SVGID_203_" cx="-3333" cy="677.1" r="14.49" gradientTransform="matrix(-1 0 0 .9 -2755 -384.8)" gradientUnits="userSpaceOnUse">
      <stop offset="0" stop-color="#FFFCDD"/>
      <stop offset=".145" stop-color="#F5E1AC"/>
      <stop offset=".32" stop-color="#ECC97C"/>
      <stop offset=".404" stop-color="#E8C069"/>
      <stop offset=".475" stop-color="#E7BD65"/>
      <stop offset=".549" stop-color="#E2B55A"/>
      <stop offset=".625" stop-color="#DAA847"/>
      <stop offset=".7" stop-color="#D19631"/>
      <stop offset=".704" stop-color="#D09530"/>
      <stop offset="1" stop-color="#895323"/>
    </radialGradient>
    <linearGradient id="SVGID_202_" x1="-3341" x2="-3325" y1="779.1" y2="779.1" gradientTransform="matrix(-1 0 0 1 -2755 -437.5)" gradientUnits="userSpaceOnUse">
      <stop offset="0" stop-color="#E8C069"/>
      <stop offset=".058" stop-color="#E9C26C"/>
      <stop offset=".118" stop-color="#EBC776"/>
      <stop offset=".18" stop-color="#EECF87"/>
      <stop offset=".242" stop-color="#F3DA9E"/>
      <stop offset=".303" stop-color="#F9EABE"/>
      <stop offset=".35" stop-color="#FFFCDD"/>
      <stop offset=".374" stop-color="#F8EAC3"/>
      <stop offset=".466" stop-color="#E1BA72"/>
      <stop offset=".531" stop-color="#D59F41"/>
      <stop offset=".562" stop-color="#D09530"/>
      <stop offset=".798" stop-color="#895323"/>
      <stop offset="1" stop-color="#E8C069"/>
    </linearGradient>
    <linearGradient id="SVGID_201_" x1="989.5" x2="1046" y1="659" y2="659" gradientTransform="translate(-749.9 -437.5)" gradientUnits="userSpaceOnUse">
      <stop offset="0" stop-color="#E8C069"/>
      <stop offset=".058" stop-color="#E9C26C"/>
      <stop offset=".118" stop-color="#EBC776"/>
      <stop offset=".18" stop-color="#EECF87"/>
      <stop offset=".242" stop-color="#F3DA9E"/>
      <stop offset=".303" stop-color="#F9EABE"/>
      <stop offset=".35" stop-color="#FFFCDD"/>
      <stop offset=".374" stop-color="#F8EAC3"/>
      <stop offset=".466" stop-color="#E1BA72"/>
      <stop offset=".531" stop-color="#D59F41"/>
      <stop offset=".562" stop-color="#D09530"/>
      <stop offset=".798" stop-color="#895323"/>
      <stop offset="1" stop-color="#E8C069"/>
    </linearGradient>
    <linearGradient id="SVGID_200_" x1="1001" x2="1037" y1="655.8" y2="655.8" gradientTransform="translate(-749.9 -437.5)" gradientUnits="userSpaceOnUse">
      <stop offset="0" stop-color="#E8C069"/>
      <stop offset=".058" stop-color="#E9C26C"/>
      <stop offset=".118" stop-color="#EBC776"/>
      <stop offset=".18" stop-color="#EECF87"/>
      <stop offset=".242" stop-color="#F3DA9E"/>
      <stop offset=".303" stop-color="#F9EABE"/>
      <stop offset=".35" stop-color="#FFFCDD"/>
      <stop offset=".374" stop-color="#F8EAC3"/>
      <stop offset=".466" stop-color="#E1BA72"/>
      <stop offset=".531" stop-color="#D59F41"/>
      <stop offset=".562" stop-color="#D09530"/>
      <stop offset=".798" stop-color="#895323"/>
      <stop offset="1" stop-color="#E8C069"/>
    </linearGradient>
    <linearGradient id="SVGID_199_" x1="1012" x2="1029" y1="542.8" y2="542.8" gradientTransform="translate(-749.9 -437.5)" gradientUnits="userSpaceOnUse">
      <stop offset="0" stop-color="#E8C069"/>
      <stop offset=".058" stop-color="#E9C26C"/>
      <stop offset=".118" stop-color="#EBC776"/>
      <stop offset=".18" stop-color="#EECF87"/>
      <stop offset=".242" stop-color="#F3DA9E"/>
      <stop offset=".303" stop-color="#F9EABE"/>
      <stop offset=".35" stop-color="#FFFCDD"/>
      <stop offset=".374" stop-color="#F8EAC3"/>
      <stop offset=".466" stop-color="#E1BA72"/>
      <stop offset=".531" stop-color="#D59F41"/>
      <stop offset=".562" stop-color="#D09530"/>
      <stop offset=".798" stop-color="#895323"/>
      <stop offset="1" stop-color="#E8C069"/>
    </linearGradient>
    <linearGradient id="SVGID_198_" x1="1009" x2="1031" y1="540.6" y2="540.6" gradientTransform="translate(-749.9 -437.5)" gradientUnits="userSpaceOnUse">
      <stop offset="0" stop-color="#E8C069"/>
      <stop offset=".058" stop-color="#E9C26C"/>
      <stop offset=".118" stop-color="#EBC776"/>
      <stop offset=".18" stop-color="#EECF87"/>
      <stop offset=".242" stop-color="#F3DA9E"/>
      <stop offset=".303" stop-color="#F9EABE"/>
      <stop offset=".35" stop-color="#FFFCDD"/>
      <stop offset=".374" stop-color="#F8EAC3"/>
      <stop offset=".466" stop-color="#E1BA72"/>
      <stop offset=".531" stop-color="#D59F41"/>
      <stop offset=".562" stop-color="#D09530"/>
      <stop offset=".798" stop-color="#895323"/>
      <stop offset="1" stop-color="#E8C069"/>
    </linearGradient>
    <linearGradient id="SVGID_197_" x1="1013" x2="1028" y1="537.8" y2="537.8" gradientUnits="userSpaceOnUse">
      <stop offset="0" stop-color="#E8C069"/>
      <stop offset=".058" stop-color="#E9C26C"/>
      <stop offset=".118" stop-color="#EBC776"/>
      <stop offset=".18" stop-color="#EECF87"/>
      <stop offset=".242" stop-color="#F3DA9E"/>
      <stop offset=".303" stop-color="#F9EABE"/>
      <stop offset=".35" stop-color="#FFFCDD"/>
      <stop offset=".374" stop-color="#F8EAC3"/>
      <stop offset=".466" stop-color="#E1BA72"/>
      <stop offset=".531" stop-color="#D59F41"/>
      <stop offset=".562" stop-color="#D09530"/>
      <stop offset=".798" stop-color="#895323"/>
      <stop offset="1" stop-color="#E8C069"/>
    </linearGradient>
    <radialGradient id="SVGID_196_" cx="1020" cy="526.3" r="10.18" gradientTransform="matrix(1 0 0 .9 -749.9 -396.5)" gradientUnits="userSpaceOnUse">
      <stop offset="0" stop-color="#FFFCDD"/>
      <stop offset=".145" stop-color="#F5E1AC"/>
      <stop offset=".32" stop-color="#ECC97C"/>
      <stop offset=".404" stop-color="#E8C069"/>
      <stop offset=".475" stop-color="#E7BD65"/>
      <stop offset=".549" stop-color="#E2B55A"/>
      <stop offset=".625" stop-color="#DAA847"/>
      <stop offset=".7" stop-color="#D19631"/>
      <stop offset=".704" stop-color="#D09530"/>
      <stop offset="1" stop-color="#895323"/>
    </radialGradient>
    <linearGradient id="SVGID_195_" x1="1014" x2="1026" y1="598" y2="598" gradientTransform="translate(-749.9 -437.5)" gradientUnits="userSpaceOnUse">
      <stop offset="0" stop-color="#E8C069"/>
      <stop offset=".058" stop-color="#E9C26C"/>
      <stop offset=".118" stop-color="#EBC776"/>
      <stop offset=".18" stop-color="#EECF87"/>
      <stop offset=".242" stop-color="#F3DA9E"/>
      <stop offset=".303" stop-color="#F9EABE"/>
      <stop offset=".35" stop-color="#FFFCDD"/>
      <stop offset=".374" stop-color="#F8EAC3"/>
      <stop offset=".466" stop-color="#E1BA72"/>
      <stop offset=".531" stop-color="#D59F41"/>
      <stop offset=".562" stop-color="#D09530"/>
      <stop offset=".798" stop-color="#895323"/>
      <stop offset="1" stop-color="#E8C069"/>
    </linearGradient>
    <linearGradient id="SVGID_194_" x1="922.5" x2="988" y1="738.9" y2="738.9" gradientTransform="translate(-749.9 -437.5)" gradientUnits="userSpaceOnUse">
      <stop offset="0" stop-color="#E8C069"/>
      <stop offset=".058" stop-color="#E9C26C"/>
      <stop offset=".118" stop-color="#EBC776"/>
      <stop offset=".18" stop-color="#EECF87"/>
      <stop offset=".242" stop-color="#F3DA9E"/>
      <stop offset=".303" stop-color="#F9EABE"/>
      <stop offset=".35" stop-color="#FFFCDD"/>
      <stop offset=".374" stop-color="#F8EAC3"/>
      <stop offset=".466" stop-color="#E1BA72"/>
      <stop offset=".531" stop-color="#D59F41"/>
      <stop offset=".562" stop-color="#D09530"/>
      <stop offset=".798" stop-color="#895323"/>
      <stop offset="1" stop-color="#E8C069"/>
    </linearGradient>
    <linearGradient id="SVGID_193_" x1="936.1" x2="977.5" y1="735.3" y2="735.3" gradientTransform="translate(-749.9 -437.5)" gradientUnits="userSpaceOnUse">
      <stop offset="0" stop-color="#E8C069"/>
      <stop offset=".058" stop-color="#E9C26C"/>
      <stop offset=".118" stop-color="#EBC776"/>
      <stop offset=".18" stop-color="#EECF87"/>
      <stop offset=".242" stop-color="#F3DA9E"/>
      <stop offset=".303" stop-color="#F9EABE"/>
      <stop offset=".35" stop-color="#FFFCDD"/>
      <stop offset=".374" stop-color="#F8EAC3"/>
      <stop offset=".466" stop-color="#E1BA72"/>
      <stop offset=".531" stop-color="#D59F41"/>
      <stop offset=".562" stop-color="#D09530"/>
      <stop offset=".798" stop-color="#895323"/>
      <stop offset="1" stop-color="#E8C069"/>
    </linearGradient>
    <linearGradient id="SVGID_192_" x1="947.8" x2="967.9" y1="605.2" y2="605.2" gradientTransform="translate(-749.9 -437.5)" gradientUnits="userSpaceOnUse">
      <stop offset="0" stop-color="#E8C069"/>
      <stop offset=".058" stop-color="#E9C26C"/>
      <stop offset=".118" stop-color="#EBC776"/>
      <stop offset=".18" stop-color="#EECF87"/>
      <stop offset=".242" stop-color="#F3DA9E"/>
      <stop offset=".303" stop-color="#F9EABE"/>
      <stop offset=".35" stop-color="#FFFCDD"/>
      <stop offset=".374" stop-color="#F8EAC3"/>
      <stop offset=".466" stop-color="#E1BA72"/>
      <stop offset=".531" stop-color="#D59F41"/>
      <stop offset=".562" stop-color="#D09530"/>
      <stop offset=".798" stop-color="#895323"/>
      <stop offset="1" stop-color="#E8C069"/>
    </linearGradient>
    <linearGradient id="SVGID_191_" x1="945.2" x2="969.8" y1="602.6" y2="602.6" gradientTransform="translate(-749.9 -437.5)" gradientUnits="userSpaceOnUse">
      <stop offset="0" stop-color="#E8C069"/>
      <stop offset=".058" stop-color="#E9C26C"/>
      <stop offset=".118" stop-color="#EBC776"/>
      <stop offset=".18" stop-color="#EECF87"/>
      <stop offset=".242" stop-color="#F3DA9E"/>
      <stop offset=".303" stop-color="#F9EABE"/>
      <stop offset=".35" stop-color="#FFFCDD"/>
      <stop offset=".374" stop-color="#F8EAC3"/>
      <stop offset=".466" stop-color="#E1BA72"/>
      <stop offset=".531" stop-color="#D59F41"/>
      <stop offset=".562" stop-color="#D09530"/>
      <stop offset=".798" stop-color="#895323"/>
      <stop offset="1" stop-color="#E8C069"/>
    </linearGradient>
    <linearGradient id="SVGID_190_" x1="949.9" x2="966.9" y1="599.4" y2="599.4" gradientUnits="userSpaceOnUse">
      <stop offset="0" stop-color="#E8C069"/>
      <stop offset=".058" stop-color="#E9C26C"/>
      <stop offset=".118" stop-color="#EBC776"/>
      <stop offset=".18" stop-color="#EECF87"/>
      <stop offset=".242" stop-color="#F3DA9E"/>
      <stop offset=".303" stop-color="#F9EABE"/>
      <stop offset=".35" stop-color="#FFFCDD"/>
      <stop offset=".374" stop-color="#F8EAC3"/>
      <stop offset=".466" stop-color="#E1BA72"/>
      <stop offset=".531" stop-color="#D59F41"/>
      <stop offset=".562" stop-color="#D09530"/>
      <stop offset=".798" stop-color="#895323"/>
      <stop offset="1" stop-color="#E8C069"/>
    </linearGradient>
    <radialGradient id="SVGID_189_" cx="957.4" cy="586.2" r="11.71" gradientTransform="matrix(1 0 0 .9 -749.9 -391.8)" gradientUnits="userSpaceOnUse">
      <stop offset="0" stop-color="#FFFCDD"/>
      <stop offset=".145" stop-color="#F5E1AC"/>
      <stop offset=".32" stop-color="#ECC97C"/>
      <stop offset=".404" stop-color="#E8C069"/>
      <stop offset=".475" stop-color="#E7BD65"/>
      <stop offset=".549" stop-color="#E2B55A"/>
      <stop offset=".625" stop-color="#DAA847"/>
      <stop offset=".7" stop-color="#D19631"/>
      <stop offset=".704" stop-color="#D09530"/>
      <stop offset="1" stop-color="#895323"/>
    </radialGradient>
    <linearGradient id="SVGID_188_" x1="951.2" x2="964.6" y1="668.7" y2="668.7" gradientTransform="translate(-749.9 -437.5)" gradientUnits="userSpaceOnUse">
      <stop offset="0" stop-color="#E8C069"/>
      <stop offset=".058" stop-color="#E9C26C"/>
      <stop offset=".118" stop-color="#EBC776"/>
      <stop offset=".18" stop-color="#EECF87"/>
      <stop offset=".242" stop-color="#F3DA9E"/>
      <stop offset=".303" stop-color="#F9EABE"/>
      <stop offset=".35" stop-color="#FFFCDD"/>
      <stop offset=".374" stop-color="#F8EAC3"/>
      <stop offset=".466" stop-color="#E1BA72"/>
      <stop offset=".531" stop-color="#D59F41"/>
      <stop offset=".562" stop-color="#D09530"/>
      <stop offset=".798" stop-color="#895323"/>
      <stop offset="1" stop-color="#E8C069"/>
    </linearGradient>
    <linearGradient id="SVGID_187_" x1="823.9" x2="905" y1="866" y2="866" gradientTransform="translate(-749.9 -437.5)" gradientUnits="userSpaceOnUse">
      <stop offset="0" stop-color="#E8C069"/>
      <stop offset=".058" stop-color="#E9C26C"/>
      <stop offset=".118" stop-color="#EBC776"/>
      <stop offset=".18" stop-color="#EECF87"/>
      <stop offset=".242" stop-color="#F3DA9E"/>
      <stop offset=".303" stop-color="#F9EABE"/>
      <stop offset=".35" stop-color="#FFFCDD"/>
      <stop offset=".374" stop-color="#F8EAC3"/>
      <stop offset=".466" stop-color="#E1BA72"/>
      <stop offset=".531" stop-color="#D59F41"/>
      <stop offset=".562" stop-color="#D09530"/>
      <stop offset=".798" stop-color="#895323"/>
      <stop offset="1" stop-color="#E8C069"/>
    </linearGradient>
    <linearGradient id="SVGID_186_" x1="840.8" x2="892" y1="861.5" y2="861.5" gradientTransform="translate(-749.9 -437.5)" gradientUnits="userSpaceOnUse">
      <stop offset="0" stop-color="#E8C069"/>
      <stop offset=".058" stop-color="#E9C26C"/>
      <stop offset=".118" stop-color="#EBC776"/>
      <stop offset=".18" stop-color="#EECF87"/>
      <stop offset=".242" stop-color="#F3DA9E"/>
      <stop offset=".303" stop-color="#F9EABE"/>
      <stop offset=".35" stop-color="#FFFCDD"/>
      <stop offset=".374" stop-color="#F8EAC3"/>
      <stop offset=".466" stop-color="#E1BA72"/>
      <stop offset=".531" stop-color="#D59F41"/>
      <stop offset=".562" stop-color="#D09530"/>
      <stop offset=".798" stop-color="#895323"/>
      <stop offset="1" stop-color="#E8C069"/>
    </linearGradient>
    <linearGradient id="SVGID_185_" x1="855.3" x2="880" y1="700.6" y2="700.6" gradientTransform="translate(-749.9 -437.5)" gradientUnits="userSpaceOnUse">
      <stop offset="0" stop-color="#E8C069"/>
      <stop offset=".058" stop-color="#E9C26C"/>
      <stop offset=".118" stop-color="#EBC776"/>
      <stop offset=".18" stop-color="#EECF87"/>
      <stop offset=".242" stop-color="#F3DA9E"/>
      <stop offset=".303" stop-color="#F9EABE"/>
      <stop offset=".35" stop-color="#FFFCDD"/>
      <stop offset=".374" stop-color="#F8EAC3"/>
      <stop offset=".466" stop-color="#E1BA72"/>
      <stop offset=".531" stop-color="#D59F41"/>
      <stop offset=".562" stop-color="#D09530"/>
      <stop offset=".798" stop-color="#895323"/>
      <stop offset="1" stop-color="#E8C069"/>
    </linearGradient>
    <linearGradient id="SVGID_184_" x1="852" x2="882.4" y1="697.4" y2="697.4" gradientTransform="translate(-749.9 -437.5)" gradientUnits="userSpaceOnUse">
      <stop offset="0" stop-color="#E8C069"/>
      <stop offset=".058" stop-color="#E9C26C"/>
      <stop offset=".118" stop-color="#EBC776"/>
      <stop offset=".18" stop-color="#EECF87"/>
      <stop offset=".242" stop-color="#F3DA9E"/>
      <stop offset=".303" stop-color="#F9EABE"/>
      <stop offset=".35" stop-color="#FFFCDD"/>
      <stop offset=".374" stop-color="#F8EAC3"/>
      <stop offset=".466" stop-color="#E1BA72"/>
      <stop offset=".531" stop-color="#D59F41"/>
      <stop offset=".562" stop-color="#D09530"/>
      <stop offset=".798" stop-color="#895323"/>
      <stop offset="1" stop-color="#E8C069"/>
    </linearGradient>
    <linearGradient id="SVGID_183_" x1="857.9" x2="878.9" y1="693.4" y2="693.4" gradientUnits="userSpaceOnUse">
      <stop offset="0" stop-color="#E8C069"/>
      <stop offset=".058" stop-color="#E9C26C"/>
      <stop offset=".118" stop-color="#EBC776"/>
      <stop offset=".18" stop-color="#EECF87"/>
      <stop offset=".242" stop-color="#F3DA9E"/>
      <stop offset=".303" stop-color="#F9EABE"/>
      <stop offset=".35" stop-color="#FFFCDD"/>
      <stop offset=".374" stop-color="#F8EAC3"/>
      <stop offset=".466" stop-color="#E1BA72"/>
      <stop offset=".531" stop-color="#D59F41"/>
      <stop offset=".562" stop-color="#D09530"/>
      <stop offset=".798" stop-color="#895323"/>
      <stop offset="1" stop-color="#E8C069"/>
    </linearGradient>
    <radialGradient id="SVGID_182_" cx="867.1" cy="677.1" r="14.49" gradientTransform="matrix(1 0 0 .9 -749.9 -384.8)" gradientUnits="userSpaceOnUse">
      <stop offset="0" stop-color="#FFFCDD"/>
      <stop offset=".145" stop-color="#F5E1AC"/>
      <stop offset=".32" stop-color="#ECC97C"/>
      <stop offset=".404" stop-color="#E8C069"/>
      <stop offset=".475" stop-color="#E7BD65"/>
      <stop offset=".549" stop-color="#E2B55A"/>
      <stop offset=".625" stop-color="#DAA847"/>
      <stop offset=".7" stop-color="#D19631"/>
      <stop offset=".704" stop-color="#D09530"/>
      <stop offset="1" stop-color="#895323"/>
    </radialGradient>
    <linearGradient id="SVGID_181_" x1="859.4" x2="876" y1="779.1" y2="779.1" gradientTransform="translate(-749.9 -437.5)" gradientUnits="userSpaceOnUse">
      <stop offset="0" stop-color="#E8C069"/>
      <stop offset=".058" stop-color="#E9C26C"/>
      <stop offset=".118" stop-color="#EBC776"/>
      <stop offset=".18" stop-color="#EECF87"/>
      <stop offset=".242" stop-color="#F3DA9E"/>
      <stop offset=".303" stop-color="#F9EABE"/>
      <stop offset=".35" stop-color="#FFFCDD"/>
      <stop offset=".374" stop-color="#F8EAC3"/>
      <stop offset=".466" stop-color="#E1BA72"/>
      <stop offset=".531" stop-color="#D59F41"/>
      <stop offset=".562" stop-color="#D09530"/>
      <stop offset=".798" stop-color="#895323"/>
      <stop offset="1" stop-color="#E8C069"/>
    </linearGradient>
  </defs>
  <path id="fHub" fill="#fff" d="M67.98 133.3c31.6-22.81 62.45 2.558 62.75 32.21.116 11.89-17.39 38.97-39.79 36.63-41.96-4.398-47.1-51.41-22.95-68.82z"/>
  <path id="fWheel" d="M90.97 117.8c22.3 0 46.59 15.7 46.59 46.69.4 21.87-19.32 44.21-44.83 44.21-25.98 0-46.05-19.84-46.05-45.83 0-26.78 22.91-45.06 44.28-45.06zm36.01 57.83c6.936-21.32-3.63-42.68-27.45-48.92-27.8-4.434-44.13 17.66-44.78 34.28-1.136 19.15 11.71 32.77 24.98 37.6 23.83 7.53 43.28-8.304 47.25-22.95zm-48.73 20.82c-.44-.478-.45-.576-.153-1.435 3.346-6.663 6.143-11.72 9.788-17.98.98-1.412 1.437-1.382 4.687.313 4.428 2.31 5.326 3.216 5.988 6.028 1.387 4.48 3.026 8.69 4.01 13.48-4.583 3.432-17.54 2.335-24.32-.406zm22.79.384c-.8-.337-2.438-1.832-2.807-2.56-.538-1.065-3.026-12.16-2.782-12.4.24-.247.96-.272 1.38-.05.83.438.29-.59-.64-1.23-1.27-.868-6.33-3.44-6.77-3.44-.79 0-1.25.564-2.66 3.29-.8 1.558-2.63 4.876-4.05 7.374-3.39 5.955-3.61 6.435-3.43 7.442.2 1.092.79.878.79-.287 0-.587.2-1.094.64-1.65 1.95-3.195 7.52-16.25 9.05-15.01.56.004 2.58 1.03 3.01 1.53 1.96 6.23 2.46 9.522 3.94 15.57.29.766.27 1.98-.03 2.45-.18.276-.28.547-.22.6 1.96.144 5.32-1.128 4.62-1.623zm-1.71-22.6c2.857-2.53 6.048-4.202 9.047-4.293 2.647.53 13.03 4.53 15.78 6.34.814 2.37-8.16 14.66-14.68 18.04-3.21 3.19-8.266-15.89-10.15-20.08zm9.803 18.69c.063-.444-.602-.252-.867-.363-2.43-6.49-4.953-11.23-6.726-17.5.072-.62 1.155-1.28 2.724-1.65 1.773-.57 9.757 3.49 13.04 5.1 3.194 1.57 4.03 2.19 4.063 3.03 1.12-.96 2.035-3.23 2.607-4.8-.042-.04-.844.09-1.783.29-.93.2-1.98.36-2.32.36-4.2-1.53-8.12-3.02-11.76-5.41.04-.24.39-.6.79-.8 1.11-.55.89-.77-.67-.66-2.99.61-5.3 1.72-7.41 3.68-.57 1.14-.56 1.24.28 3.11 1.96 5.21 4.4 10.62 6.3 15.31.27.7.79 1.43 1.03 1.43.56-.17.59-.61.74-1.09zm-50.48-20.6c7.93-1.305 14.48-3.13 21.59-3.17.83 1.184 2.442 6.877 1.692 10.12-1.356 2.737-8.757 14.09-9.123 14-3.633.24-17.62-18.75-14.16-20.95zm13.79 20.37c-.226-.932-.29-1.926-.245-2.71-.895-1.356 4.393-7.604 7.337-11.53.61-.56 1.072-.313 1.328.71.212 1.07.233.817.64-.04-.047-4.27-.087-10.69-3.883-9.417-5.984.85-12.36 1.787-17.48 3.214-.292.3-.063 1.07.258.87 5.704-1.01 11.76-2.48 17.2-3.12 1.79-.37 3.035 3.96 1.53 5.45-2.665 4.31-8.24 13.95-10.85 12.67-.93-.3-.312.59 1.61 2.31.598.89 1.888 1.39 2.553 1.6zm16.39-22.35c1.506-1.764 4.073-1.333 4.733 1.022.154 1.155-.496 2.366-1.498 2.852-2.585.995-4.603-1.61-3.235-3.873zm7.07-2.78c.92-2.448 3.248-1.955 3.86-1.39 1.673.956 1.448 3.354.18 4.207-2.042 1.46-4.726-.44-4.04-2.81zm8.523-4.987c0-.72.908-4.683 1.378-6.013 1.934-5.553 10.52-8.36 15.98-10.95 4.47 5.574 5.466 15.83 4.324 24.11-1.856.988-22.77-4.296-21.68-7.144zm20.19 6.554c.197-.07.357-.32.357-.54 0-.33-.28-.43-1.572-.55-5.65-1.54-13.52-2.68-17.17-6.01.08-1.12.38-2.03.69-3.11.21-1.91 10.37-5.45 16.1-7.89.58 0 1.06-.09 1.06-.21 0-.46-2.02-4.63-2.24-4.63-.56.73-.82 1.83-1.15 2.66-.74 1.67-1.05 1.88-7.51 5.09-4.87 2.42-5.11 2.46-5.11.86 0-.8-.01-.81-.45-.4-.24.23-.45.52-.45.64-1.08 2.95-2.71 7.57-1.57 8.61 5.47 2.62 11.54 3.67 16.47 5.5.9.21 1.81.12 2.57.01zm-41.63-4.25c.92-.96 3.27-.45 3.796.87.94 1.45-.145 3.84-2.392 3.81-2.75-.33-3.154-3.56-1.405-4.67zm-25.46 1.81c-1.497.01-1.086-18.24 6.75-24.2 5.174 4.15 10.28 9.16 15.06 13.82 1.122 1.14 1.21 1.3 1.092 2.05-.76 2.44-4.45 6.68-6.782 7.12-5.506.23-11.17 1.28-16.12 1.22zm.956-1.77c1.867-1.84 1.89-1.85 8.554-1.72 3.248.06 6.15.17 6.446.23.535.12.53.13-.328 1.03-.945.99-.917 1.08.19.59 1.32-.58 4.79-4.33 5.674-6.13.797-1.62.788-1.64-1.958-4.19-2.983-2.9-6.468-5.89-9.314-8.45-2.1-2.08-3.26-2.67-3.58-1.82-.074.2.114.4.488.54 4.603 4.11 9.625 7.98 13.82 12.73 0 .53-1.972 2.78-2.688 3.07-.91.37-16.13.4-17.4.04-.552-.16-1.05-.24-1.105-.19-.13.14-.21 4.55-.09 4.91.98.77.4.16 1.29-.61zm38.08-4.56c.077-3.11 3.334-3.44 4.712-1.72 1.27 2.51-.55 3.83-1.137 3.95-1.968.66-3.382-.63-3.576-2.22zm-13.3-3.08c.816-.91 2.788-1.55 4.03 0 1.737 2.3-.53 4.23-1.66 4.27-2.632.05-3.637-2.37-2.37-4.25zm6.764-.82c-.546-2.56 1.424-3.58 2.734-3.48 2.97.48 2.96 3.95.904 4.98-1.026.34-2.446.57-3.637-1.49zm4.14-12.1c.695-5.43 1.442-11.92 3.11-15.99 4.127-.38 14.53 5.21 18.45 9.18 2.557 2.45 2.735 2.98 1.41 4.2-5.976 4.58-15.76 12.14-16.99 11.83-1.255-.13-6.687-7.43-5.975-9.21zm7.367 7.94c4.926-3.5 10.5-7.29 14.88-10.97.164-.31.162-.59-.006-.91-.307-.59-.686-.59-.835-.01-5.475 4.5-9.698 7.85-15.19 11.32-2.542-2.7-2.38-4.9-1.943-6.98.97-4.69 1.59-8.6 2.71-12.7.17-.94.67-1.13 1.15-1.65.4-.3.38-.34-.47-.71-1.44-.66-3.06-.75-4.59-.92-.03.51 1.83 2.98 1.69 4.83-.23 3.24-1.11 6.58-1.72 9.63-.24 1.57-.61 2.29-1.18 2.29-.64-.43-1.01-.91-1.55-1.5-.13.87.18 1.69.39 2.46 2.94 3.59 3.9 7.24 6.63 5.84zm-33.44-14.25c.438-4.21 17.32-11.31 22.42-9.98.528 7.79-.517 22.14-1.332 23.24-2.99.42-5.98.48-8.97-.07-4.11-3.94-11.71-10.36-12.11-13.19zm20.73 12.11c.522-.96.356-1.46.823-7.31.1-4.45.723-9.31.083-13.32-.72-.12-.77-.04-.79 1.31-.06 6.68-.68 12.27-1 18.31-2.41.51-3.89.17-5.17-1.62-3.25-4.15-7.45-7.81-9.85-12.43-.08-.5-.24-.9-.35-.9-1.72.68-3.03 2.63-3.5 3.52.19.11.44.14.56.07.11-.07.88.05 1.69.27 3.64 3.06 6.88 6.9 9.37 10.85-.69.4-1.42.24-2.07-.01-.37.23.14.86 1.03 1.27 3.25.24 6.49 1 9.13 0z"/>
  <path id="trim" fill="#fff" d="M395.4 11.82c-9.047-.248-2.634-.536-7.138-.017l9.903 54c6.393-.345 5.337-.67 10.08-1.725.963-8.364-12.17-46.56-12.84-52.26zM13.3 88.02c-6.845 10.93-5.873 25.04-8.037 35.19.657 1.877 16.88-5.054 18.81-6.242 2.172-10.72 13.07-25.46 13.06-25.47 13.12-1.548 19.57-4.713 24.34-12.03-9.405-6.623-40.25.503-48.17 8.56zm270.8 84.12c-22.71 1.124-126.4-3.712-134.7 3.87 47.04 3.413 116.6.13 154.2-.51 32.52-1.082 68.39-.28 100.3-3.112-.515-.71-1.783-1.715-4.148-2.134-7.424-1.314-78.02 3.072-115.7 1.886zM535.7 2.54c-8.282-3.382-21.24.365-27.72-1.43-66.96.09-140-.506-189.6 1.45-10.61.67-26.07 2.524-34.75 5.763 9.4.055 243.4-2.423 258-1.77z"/>
  <path id="brake" fill="#8a112b" d="M563.6 16.03c1.41-.764 1.616-.02 10.2 13.04 7.64 11.99 15.83 29.19 18.7 38.91 2.084 6.12 3.236 28.14 1.326 28.71-.592.174-6.317 2.29-7.464-.39-1.01-2.36-.215-9.176-.84-15.28-1.285-12.3-4.3-23.98-9.195-34.76-4.856-13.28-14.06-22.64-15.56-30.32z"/>
  <path id="rHub" fill="#fff" d="M435.7 133.3c31.6-22.81 62.45 2.558 62.75 32.21.116 11.89-17.39 38.97-39.79 36.63-41.96-4.398-47.1-51.41-22.95-68.82z"/>
  <path id="rWheel" d="M458.7 117.8c22.3 0 46.59 15.7 46.59 46.69.4 21.87-19.32 44.21-44.83 44.21-25.98 0-46.05-19.84-46.05-45.83 0-26.78 22.91-45.06 44.28-45.06zm36.01 57.83c6.936-21.32-3.63-42.68-27.45-48.92-27.8-4.434-44.13 17.66-44.78 34.28-1.136 19.15 11.71 32.77 24.98 37.6 23.83 7.53 43.28-8.304 47.25-22.95zm-48.73 20.82c-.44-.478-.45-.576-.153-1.435 3.346-6.663 6.143-11.72 9.788-17.98.98-1.412 1.437-1.382 4.687.313 4.428 2.31 5.326 3.216 5.988 6.028 1.387 4.48 3.026 8.69 4.01 13.48-4.583 3.432-17.54 2.335-24.32-.406zm22.79.384c-.8-.337-2.438-1.832-2.807-2.56-.538-1.065-3.026-12.16-2.782-12.4.24-.247.96-.272 1.38-.05.83.438.29-.59-.64-1.23-1.27-.868-6.33-3.44-6.77-3.44-.79 0-1.25.564-2.66 3.29-.8 1.558-2.63 4.876-4.05 7.374-3.39 5.955-3.61 6.435-3.43 7.442.2 1.092.79.878.79-.287 0-.587.2-1.094.64-1.65 1.95-3.195 7.52-16.25 9.05-15.01.56.004 2.58 1.03 3.01 1.53 1.96 6.23 2.46 9.522 3.94 15.57.29.766.27 1.98-.03 2.45-.18.276-.28.547-.22.6 1.96.144 5.32-1.128 4.62-1.623zm-1.71-22.6c2.857-2.53 6.048-4.202 9.047-4.293 2.647.53 13.03 4.53 15.78 6.34.814 2.37-8.16 14.66-14.68 18.04-3.21 3.19-8.266-15.89-10.15-20.08zm9.803 18.69c.063-.444-.602-.252-.867-.363-2.43-6.49-4.953-11.23-6.726-17.5.072-.62 1.155-1.28 2.724-1.65 1.773-.57 9.757 3.49 13.04 5.1 3.194 1.57 4.03 2.19 4.063 3.03 1.12-.96 2.035-3.23 2.607-4.8-.042-.04-.844.09-1.783.29-.93.2-1.98.36-2.32.36-4.2-1.53-8.12-3.02-11.76-5.41.04-.24.39-.6.79-.8 1.11-.55.89-.77-.67-.66-2.99.61-5.3 1.72-7.41 3.68-.57 1.14-.56 1.24.28 3.11 1.96 5.21 4.4 10.62 6.3 15.31.27.7.79 1.43 1.03 1.43.56-.17.59-.61.74-1.09zm-50.48-20.6c7.93-1.305 14.48-3.13 21.59-3.17.83 1.184 2.442 6.877 1.692 10.12-1.356 2.737-8.757 14.09-9.123 14-3.633.24-17.62-18.75-14.16-20.95zm13.79 20.37c-.226-.932-.29-1.926-.245-2.71-.895-1.356 4.393-7.604 7.337-11.53.61-.56 1.072-.313 1.328.71.212 1.07.233.817.64-.04-.047-4.27-.087-10.69-3.883-9.417-5.984.85-12.36 1.787-17.48 3.214-.292.3-.063 1.07.258.87 5.704-1.01 11.76-2.48 17.2-3.12 1.79-.37 3.035 3.96 1.53 5.45-2.665 4.31-8.24 13.95-10.85 12.67-.93-.3-.312.59 1.61 2.31.598.89 1.888 1.39 2.553 1.6zm16.39-22.35c1.506-1.764 4.073-1.333 4.733 1.022.154 1.155-.496 2.366-1.498 2.852-2.585.995-4.603-1.61-3.235-3.873zm7.07-2.78c.92-2.448 3.248-1.955 3.86-1.39 1.673.956 1.448 3.354.18 4.207-2.042 1.46-4.726-.44-4.04-2.81zm8.523-4.987c0-.72.908-4.683 1.378-6.013 1.934-5.553 10.52-8.36 15.98-10.95 4.47 5.574 5.466 15.83 4.324 24.11-1.856.988-22.77-4.296-21.68-7.144zm20.19 6.554c.197-.07.357-.32.357-.54 0-.33-.28-.43-1.572-.55-5.65-1.54-13.52-2.68-17.17-6.01.08-1.12.38-2.03.69-3.11.21-1.91 10.37-5.45 16.1-7.89.58 0 1.06-.09 1.06-.21 0-.46-2.02-4.63-2.24-4.63-.56.73-.82 1.83-1.15 2.66-.74 1.67-1.05 1.88-7.51 5.09-4.87 2.42-5.11 2.46-5.11.86 0-.8-.01-.81-.45-.4-.25.23-.45.52-.45.64-1.08 2.95-2.71 7.57-1.57 8.61 5.47 2.62 11.54 3.67 16.47 5.5.9.21 1.81.12 2.57.01zm-41.63-4.25c.92-.96 3.27-.45 3.796.87.94 1.45-.145 3.84-2.392 3.81-2.75-.33-3.154-3.56-1.405-4.67zm-25.46 1.81c-1.497.01-1.086-18.24 6.75-24.2 5.174 4.15 10.28 9.16 15.06 13.82 1.122 1.14 1.21 1.3 1.092 2.05-.76 2.44-4.45 6.68-6.782 7.12-5.506.23-11.17 1.28-16.12 1.22zm.956-1.77c1.867-1.84 1.89-1.85 8.554-1.72 3.248.06 6.15.17 6.446.23.535.12.53.13-.328 1.03-.945.99-.917 1.08.19.59 1.32-.58 4.79-4.33 5.674-6.13.798-1.62.788-1.64-1.958-4.19-2.983-2.9-6.468-5.89-9.314-8.45-2.1-2.08-3.26-2.67-3.58-1.82-.074.2.114.4.49.54 4.602 4.11 9.624 7.98 13.82 12.73 0 .53-1.973 2.78-2.69 3.07-.91.37-16.13.4-17.4.04-.552-.16-1.05-.24-1.104-.19-.137.14-.22 4.55-.09 4.91.972.77.394.16 1.285-.61zm38.08-4.56c.077-3.11 3.334-3.44 4.712-1.72 1.27 2.51-.55 3.83-1.137 3.95-1.968.66-3.382-.63-3.576-2.22zm-13.3-3.08c.816-.91 2.788-1.55 4.03 0 1.737 2.3-.53 4.23-1.66 4.27-2.632.05-3.637-2.37-2.37-4.25zm6.764-.82c-.546-2.56 1.424-3.58 2.734-3.48 2.97.48 2.96 3.95.904 4.98-1.026.34-2.446.57-3.637-1.49zm4.14-12.1c.695-5.43 1.442-11.92 3.11-15.99 4.127-.38 14.53 5.21 18.45 9.18 2.557 2.45 2.735 2.98 1.41 4.2-5.976 4.58-15.76 12.14-16.99 11.83-1.255-.13-6.687-7.43-5.975-9.21zm7.367 7.94c4.926-3.5 10.5-7.29 14.88-10.97.164-.31.162-.59-.006-.91-.307-.59-.686-.59-.835-.01-5.475 4.5-9.698 7.85-15.19 11.32-2.542-2.7-2.38-4.9-1.943-6.98.97-4.69 1.59-8.6 2.71-12.7.17-.94.67-1.13 1.15-1.65.4-.3.38-.34-.47-.71-1.44-.66-3.06-.75-4.59-.92-.03.51 1.83 2.98 1.69 4.83-.23 3.24-1.11 6.58-1.72 9.63-.24 1.57-.61 2.29-1.18 2.29-.64-.43-1.01-.91-1.55-1.5-.13.87.18 1.69.39 2.46 2.94 3.59 3.9 7.24 6.63 5.84zm-33.44-14.25c.438-4.21 17.32-11.31 22.42-9.98.528 7.79-.517 22.14-1.332 23.24-2.99.42-5.98.48-8.97-.07-4.11-3.94-11.71-10.36-12.11-13.19zm20.73 12.11c.522-.96.356-1.46.823-7.31.1-4.45.724-9.31.083-13.32-.72-.12-.77-.04-.79 1.31-.06 6.68-.68 12.27-1 18.31-2.41.51-3.89.17-5.17-1.62-3.25-4.15-7.45-7.81-9.85-12.43-.08-.5-.24-.9-.35-.9-1.72.68-3.03 2.63-3.5 3.52.19.11.44.14.56.07.11-.07.88.05 1.69.27 3.64 3.06 6.88 6.9 9.37 10.85-.69.4-1.42.24-2.07-.01-.37.23.14.86 1.03 1.27 3.25.24 6.49 1 9.13 0z"/>
  <path id="body" d="M308.1 2.97c-6.166.73-18.34 1.997-29.37 5.5-12.7.164-29.81 1.325-37.56 2.217-1.65.19-5.407.39-8.142 1.298-1.16.386-.59-3.174-4.355-1.747.37-4.87-1.698-4.284-6.737-1.343-2.586 2.732-.1 5.884-9.77 9.848-22.96 11.27-47.8 31.09-65.03 46.94-29.22 1.61-60.95 2.643-85.22 6.444-12.35 1.694-36.61 5.12-46.03 9.936-7.92 3.534-11.87 19.12-13.23 26.55-2.764 10.92-2.766 28.28-2.623 36.4.296 15.68 1.805 16.87 4.7 21.25 3.233 8.58 8.527 7.055 12.91 12.98.372 1.634.508 6.76 1.785 7.494 6.824 1.32 16.65 2.313 23.48 1.82-2.675-34.75-1.28-60.42 16.21-69.74 19.66-9.398 57.85-12.59 72.49 0 8.946 14.6 8.436 25.01 12.66 41.28.296 5.133 2.654 15.62 3.412 19.07.748.297 10.32.543 20.32.372 39.75.04 81.92.93 123.3.44 38.13-.93 78.53-3.61 113.5-4.65 2.142-7.25 2.192-10.29 3.017-15.88 2.6-22.11 8.27-40.8 19.42-47.75 14.42-10.26 56.57-7.45 68.03 0 5.736 2.26 17.74 28.14 19.07 53.97 6.133-.4 30.26-2.69 40.14-3.51 20.78-1.72 29.67-2.96 29.77-3.38.718.03 11.39-13.91 14.2-21.02 1.474-5.69 1.318-11.02 1.373-15.13.162-4.07.552-9.85-1.658-12.08-1.984-3.17-2.532-1.99-3.3-3.66.317-2.25-.157-4.19-.772-10.54l-6.853-.35c-.15-3.65.402-5.23-.09-7.73-1.138-14.77.126-12.61-2.43-23.52-2.96-8.67-10.82-26.78-13.11-30.71-5.24-8.82-5.318-9.02-10.31-16.9-.42-1.46 4.793.01 4.633.2-3.374-5.21.977 1.24 5.462-2.92-.367-1.68 2.23-7.03-6.55-7.71-6.094-.57-15.78-.17-23.48-1.1-4.482-2.42-2.795-3.47-10.18-5.07-28.43-1.3-81.54-.24-128.1.56-8.123.29-86.54.01-95.11 1.8zm219.2-.967c6.804-.33 7.228 1.99 12.33 3.873-101.4-.67-174.9-.02-255.6 2.326 2.527-.743 16.89-3.125 24.35-4.237 5.442-1.228 59.15-1.91 90.16-1.906 13.61-.14 120.9-.75 128.7-.06zm-129.4 59.95c-2.19-14.44-5.56-29.46-9.05-47.16l-.5-2.467c1.993.01 3.665.115 5.622.13 7.317 22.17 9.04 33.68 12.86 49.11-.325 3.158-3.316 2.693-8.697 2.816zM58.4 79.833c-3 4.85-5.086 6.637-9.36 7.562-11.05 1.375-15.71 2.542-18.48 6.518-5.667 5.767-5.096 16.22-12.83 24.32-2.64 1.013-8.5 2.394-10.4 2.055.23-4.44 4.318-30.1 6.652-31.59 17.68-8.37 28.45-6.772 44.42-8.863zm343.6 92.06c-37.18 2.31-96.89 2.236-111 2.982-14.58.202-32.6.508-47.82.61-33.79.036-83.1 1.833-91.89.152.414-.644 2.283-1.748 3.512-1.23 7.335.53 71.37-.315 136-1.123 41.19-.516 74.77-1.938 109.6-2.687z"/>
  <path id="dDTrim" fill="#fff" d="M285.3 14.51c-22.43-.027-50.06-.645-71.37 10.39-18.65 12.29-42.29 24.18-54.17 43.6.705 1.737 1.866 3.14 3.813 3.964l119.8-4.287.247-3.388-119 3.73c.248-7.75 38.54-34.9 53.93-41.61 22.63-9.86 46.73-9.08 66.71-9.85zm-10.9 66.57l-30.1 1.387.554 5.272 32.74-.98zm7.345 45.83l-123.7 2.03 2.498 10.68 121.6-6.874z"/>
  <path id="dDoor" d="M285.3 14.71c-24.65.723-35.83 1.196-43.59 2.643-18.46 2.666-32.7 10.09-47.56 20.66-9.597 7.55-23.39 17.6-31.75 27.25-.942 1.286-5.325 7.19 5.264 6.445 15.93-.388 35.39-1.115 51.5-1.655 24.35-.513 39.23-1.73 64.28-2.258l.178-2.76c-56.13 1.236-98.06 3.81-105 3.93-3.327.057-15.61 1.398-14.79-.455 2.33-7.06 19.58-21.09 33.84-30.54 23.5-15.93 36.58-18.59 66.37-20.59 9.57-.26 10.79-.354 21.23-.608zm-10.55 68.25c-1.656-1.44-16.94-.38-21.53-.106-12.27.52-6.848 4.925-4.853 4.244 9.468-.974 22.02.152 26.85-1.542zm7.056 44.28c-17.93.397-26.31.993-43.55 1.237-27.24.482-54.57.9-78.72 1.574.283 10.28 1.706 8.75 11.3 7.74 42.69-2.36 73.29-4.39 111.2-5.19zm-118.4 39.4c-6.906-14.28-7.49-31.08-9.688-47.24-.356-15.4-1.676-31.66-.6-45.79.756-4.513 2.23-7.815 4.57-10.39 2.557-3.235 6.973-6.967 10.51-9.808 9.095-7.642 18.7-14.37 28.77-21.43 12.53-8.517 26.15-14.57 41.09-17.2 10.17-2.353 19.46-2.544 28.97-2.595l18.34-.21c-.417 17.74-.17 37.35-2.113 57.34 0 0-1.37 26.04-1.52 40.37-.087 8.273-.013 16.14.278 23.66 1.173 17.08 2.823 20.06 5.16 32.63z"/>
  <path id="rDTrim" fill="#fff" d="M371.6 78.31c-5.717 1.13-11 .776-10.73 3.994.5 1.687 3.94 1.848 12.51 1.517 5.4-.75 19.3-.33 19.35-2.68-.17-3.93-5.604-3.85-21.13-2.82zm-89.63 54.54l110.7-3.574c4.227-5.25 2.374-2.316 3.643-6.795l-114.5 4.59m1.616-58.61l.27-3.71 113.7-3.03.43 2.79zm1.81-51.39l.04-2.56c34.36-.8 68.88-2.67 103.2-2.38l.51 2.9c-36.11-.06-72.81 1.35-103.7 2.05z"/>
  <path id="rD" d="M283.6 65.03c40.77-.897 82.02-2.38 113.7-3.08l.354 2.436c-17.95.195-110.6 3.63-114.2 3.41.026-.707.145-2.205.154-2.765zm105.2-50.16c-35.04-.424-71.35.95-103.6 1.9l.03-2.062c31.34-.99 68.21-2.593 103.1-2.39m-16.77 70.84c-10.98.427-9.336 1.054-9.407-2.72 4.483-1.934 25.65-2.693 28.91-1.51.67.678 1.534 2.57.43 2.915-3.545 1.103-14.84.65-19.94 1.313zm-89.86 44.09c40.32-.885 80.35-2.56 113.3-3.448.957.636-1.128 2.543-3.896 3.895-40.12 1.33-75.97 4.21-109.2 4.907zm115.7 35.53c2.59-28.18 6.66-59.05 2.004-88.92-3.33-21.35-7.508-43.22-11.64-64.32l-102.5 2.446c-.266 10.39-.043 34.04-2.114 57.34-.948 14.78-1.406 32.76-1.52 40.37-.173 9.664-.09 17.51.278 23.66.718 12.27 2.466 20.16 5.16 32.63z"/>
  <g stroke-width=".238">
    <path fill="#e39fa0" d="M461 172.757c-6.134-1.02-11.44-4.177-16.08-9.575-8.114-9.43-17.06-30.87-20.43-48.99-.402-2.16-.73-4.14-.73-4.4 0-.4.252-.513 1.66-.743 2.53-.42 3.09-.37 3.22.26.062.29.337 1.81.612 3.37 1.64 9.29 5.186 20.52 9.562 30.27 5.967 13.3 11.14 20.08 17.76 23.25 6.854 3.28 13.52 2.34 22.81-3.22 1.343-.81 2.527-1.47 2.63-1.47.227 0 2.458 3.58 2.458 3.94 0 .49-6.493 4.08-9.757 5.4-2.695 1.08-4.057 1.45-6.926 1.88-2.86.42-4.28.42-6.8.01z"/>
    <path fill="#a86a6b" d="M460.8 172.557c-6.09-1.014-11.39-4.145-15.9-9.403-8.104-9.444-17.03-30.92-20.4-49.07-.415-2.244-.7-4.227-.63-4.407.082-.208.886-.44 2.198-.632 2.25-.33 2.496-.244 2.504.888.002.287.33 2.15.73 4.14 2.468 12.31 6.607 24.06 12.61 35.78 4.293 8.385 9.09 13.82 14.46 16.4 2.936 1.405 4.78 1.807 8.3 1.81 3.38.003 5.335-.41 8.894-1.886 1.817-.752 6.132-3.058 7.84-4.19l.6-.395 1.266 2.026c.697 1.114 1.234 2.048 1.194 2.076-1.736 1.197-7.198 4.072-9.472 4.986-2.7 1.085-4.06 1.455-6.926 1.88-2.867.426-4.744.428-7.272.007z"/>
    <path fill="#e44728" d="M461 172.557c-6.09-1.014-11.39-4.145-15.9-9.403-8.072-9.406-17.01-30.86-20.37-48.92-.402-2.16-.73-4.092-.73-4.293 0-.55 3.628-1.17 4.335-.74.114.07.206.38.206.69 0 .31.33 2.2.73 4.19 2.47 12.31 6.61 24.06 12.61 35.78 2.34 4.58 5.06 8.57 7.66 11.28 2.56 2.67 4.49 4.13 7.05 5.36 6.86 3.29 13.52 2.34 22.83-3.23 1.36-.81 2.55-1.41 2.66-1.34.28.17 2.18 3.3 2.17 3.58-.01.44-6.46 3.96-9.51 5.19-2.69 1.09-4.05 1.46-6.92 1.88-2.85.43-4.27.43-6.79.01z"/>
    <path fill="#ce3327" d="M461 172.557c-6.09-1.014-11.39-4.145-15.9-9.403-8.072-9.406-17.01-30.86-20.37-48.92-.402-2.16-.73-4.096-.73-4.302 0-.467 2.108-.854 2.37-.435.09.146.47 1.89.845 3.874 3.66 19.43 12.93 40.98 21.31 49.54 4.302 4.4 8.288 6.44 14 7.18 5.213.68 10.79-1.01 18.56-5.62 1.645-.97 1.783-1.01 2.19-.65.432.39 1.1 1.73.927 1.86-1.277.96-7.207 4.09-9.49 5.01-2.7 1.09-4.06 1.46-6.927 1.88-2.857.43-4.277.43-6.793.01zm.53-3.797c-3.173-.49-6.81-2.08-9.325-4.074-.592-.47-1.968-1.764-3.058-2.877-6.702-6.85-15.04-24.84-19.18-41.4-1.244-4.98-2.353-11.35-1.974-11.35.4 0 .38-.07 1.03 3.66 1.605 9.22 5.145 20.45 9.553 30.27 3.898 8.69 7.31 14.34 10.96 18.13 2.56 2.66 4.49 4.13 7.046 5.35 6.865 3.28 13.51 2.34 22.85-3.25 1.872-1.12 2.53-1.41 2.674-1.18.133.21-.092.47-.73.82-.506.28-1.386.83-1.956 1.2-.847.56-5.53 2.82-7.49 3.62-1.49.61-6.057 1.45-7.576 1.39-.435-.02-1.705-.17-2.822-.34z"/>
    <path fill="#ae2f24" d="M461 172.557c-6.09-1.014-11.39-4.145-15.9-9.403-8.188-9.54-17.25-31.48-20.52-49.67-.367-2.05-.613-3.78-.546-3.846.067-.066.54-.146 1.052-.177l.93-.05.274 1.42c.15.78.46 2.48.69 3.79.546 3.09 1.847 8.41 2.75 11.23 2.243 7.03 2.896 9.04 3.09 9.52.12.3.606 1.55 1.08 2.78s1.007 2.57 1.182 2.96c2.176 4.85 2.982 6.55 4.742 9.99 1.017 1.99 2.657 4.78 3.646 6.19s1.797 2.67 1.797 2.79c0 .41 5.23 5.46 6.746 6.53 4.506 3.16 10.14 4.59 15.13 3.86.526-.07 1.334-.18 1.795-.24.79-.09 2.626-.68 5.377-1.71 1.402-.53 5.893-2.89 7.614-4.02.84-.55 1.28-.71 1.48-.54.32.26.94 1.61.79 1.72-1.28.96-7.21 4.09-9.49 5.01-2.7 1.08-4.06 1.45-6.93 1.88-2.86.42-4.28.43-6.8.01z"/>
    <path fill="#871a1b" d="M461 172.557c-6.09-1.014-11.39-4.145-15.9-9.403-8.072-9.406-17.01-30.86-20.37-48.92-.884-4.748-.882-4.704-.175-4.704.615 0 .687.253 1.58 5.558.24 1.43.658 3.347.928 4.257s.604 2.28.742 3.044c.394 2.17 3.232 10.84 5.278 16.11.555 1.43 1.14 2.95 1.3 3.37.162.42.418.9.572 1.05s.28.42.28.6c0 .8 5.042 10.43 7.255 13.86 2.045 3.16 2.863 4.18 5.212 6.5 3.033 2.99 3.572 3.44 5.352 4.42 1.94 1.07 2.365 1.28 2.68 1.28.164 0 .298.1.298.23s.247.23.55.23c.302 0 .652.09.777.2.12.11 1.19.39 2.37.61 1.18.22 2.31.46 2.51.52 1.13.36 6.13-.1 8.7-.8 2.66-.73 7.06-2.78 10.6-4.94 1.87-1.15 2.09-1.23 2.36-.87.5.654.38.83-1.3 1.806-6.45 3.76-10.09 5.21-14.83 5.913-2.86.43-4.28.43-6.79.01z"/>
    <path fill="#791416" d="M461 172.557c-6.09-1.014-11.39-4.145-15.9-9.403-8.188-9.54-17.25-31.48-20.52-49.67-.593-3.31-.65-4.337-.217-3.908.073.072.442 1.82.82 3.883 2.853 15.6 9.848 33.97 17.07 44.84 1.797 2.7 2.91 4.07 5 6.14 1.48 1.47 2.85 2.78 3.043 2.91 2.393 1.67 4.204 2.67 6.073 3.35 4.61 1.68 9.81 1.9 14.48.63 3.03-.83 7.54-2.81 10.16-4.47 2.47-1.57 2.94-1.8 3.11-1.53.09.14.12.28.08.32-1.42 1.03-7.21 4.08-9.49 4.99-2.7 1.08-4.06 1.45-6.93 1.88-2.86.42-4.28.42-6.8.01z"/>
  </g>
  <path fill="url(#SVGID_181_)" d="M111.6 260.9h13.7v161.5h-13.7z"/>
  <g stroke-width=".237">
    <path fill="#d59f9f" d="M142.106 266.797c-5.3-.538-10.78-2.29-17.07-5.45-3.616-1.82-9.87-5.52-9.87-5.843 0-.12.57-1.096 1.262-2.167.694-1.072 1.44-2.243 1.66-2.602s.482-.654.584-.654c.102 0 1.615.87 3.362 1.93 9.152 5.55 16.38 8.11 22.91 8.12 4.908.01 8.548-.86 13.12-3.14 8.943-4.46 16.2-13.5 23.65-29.48 8.877-19.03 14.18-35.45 17.46-54.04.435-2.46.907-4.6 1.05-4.74.188-.19 1.085-.14 3.272.18 1.657.24 3.048.47 3.09.51.19.17-2.43 13.58-3.615 18.49-2.95 12.25-7.05 24.22-12.58 36.76-6.9 15.66-12.96 25.29-20.01 31.8-8.12 7.51-18.58 11.33-28.27 10.35z"/>
    <path fill="#e44728" d="M141.906 266.597c-3.47-.352-7.974-1.496-11.64-2.957-4.852-1.935-14.83-7.434-14.83-8.173 0-.328 3-4.937 3.29-5.054.085-.034 1.586.806 3.336 1.866 9.157 5.55 16.38 8.11 22.92 8.11 4.907 0 8.547-.87 13.12-3.15 9.016-4.5 16.41-13.7 23.88-29.71 8.875-19.03 14.18-35.45 17.46-54.03.434-2.46.857-4.54.94-4.63.115-.12 6.015.59 6.205.75.154.12-2.694 14.45-3.68 18.51-5.043 20.75-15.58 46.07-24.46 58.77-8.168 11.68-18.05 18.21-29.68 19.61-1.897.22-5.045.26-6.86.08z"/>
    <path fill="#9a5354" d="M141.906 266.597c-3.47-.352-7.974-1.496-11.64-2.957-4.982-1.987-14.83-7.437-14.83-8.206 0-.198.4-.923.89-1.612l.892-1.252 2.713 1.648c2.88 1.746 9.75 5.408 10.14 5.408.21 0 .84.26 3.45 1.427 1.26.562 5.95 1.648 8.2 1.9 2.98.333 7.17.166 9.22-.368.8-.207 1.72-.417 2.06-.467 1.03-.152 4.3-1.426 6.42-2.497 1.62-.81 5.87-3.51 6.37-4.04l2.13-2.02c3.85-3.64 7.66-8.52 10.92-14.02 2.67-4.49 7.63-14.75 10.52-21.75 2.82-6.82 6.66-17.67 7.51-21.16.18-.72.7-2.54 1.15-4.04.46-1.5 1.01-3.59 1.22-4.63.35-1.69.92-4.09 1.56-6.55.2-.73.74-3.71 1.95-10.73.22-1.24.36-1.58.64-1.5.2.06 1.03.18 1.84.26 1.36.15 1.47.2 1.37.67-.06.28-.6 3.16-1.18 6.38-2.98 16.34-7.76 31.68-14.94 47.97-6.9 15.66-12.96 25.29-20.01 31.8-8.17 7.56-18.64 11.35-28.51 10.35zm-.59-5.452c-4.536-.666-9.408-2.38-14.65-5.158-3.99-2.112-8.203-4.688-8.334-5.097-.25-.778.81-.385 3.73 1.386 9.16 5.553 16.39 8.113 22.92 8.12 4.908.004 8.548-.87 13.12-3.147 8.727-4.35 16.1-13.33 23.22-28.27 8.897-18.68 14.72-36.35 17.91-54.33 1.115-6.29.992-5.83 1.564-5.83.394 0 .467.11.362.53-.072.29-.57 2.99-1.108 6-1.696 9.49-4.41 19.92-7.585 29.12-1.46 4.23-4.993 13.41-5.993 15.57-.302.65-1.24 2.74-2.084 4.63-5.702 12.81-11.3 21.61-17.48 27.46-7.443 7.05-16.69 10.31-25.58 9z"/>
    <path fill="#cd3127" d="M142.106 266.597c-5.21-.528-10.75-2.28-16.84-5.325-3.196-1.6-9.853-5.47-9.862-5.737-.003-.093.393-.8.88-1.572l.887-1.404 2.72 1.65c2.87 1.74 9.75 5.41 10.15 5.41.21 0 .84.26 3.44 1.42 1.26.56 5.95 1.65 8.21 1.9 2.98.33 7.17.16 9.22-.37.8-.21 1.72-.42 2.06-.47 1.03-.16 4.3-1.43 6.42-2.5 1.62-.82 5.87-3.52 6.37-4.04.07-.07 1.02-.98 2.13-2.02 3.85-3.64 7.66-8.53 10.92-14.02 2.67-4.5 7.63-14.75 10.52-21.75 2.82-6.82 6.67-17.67 7.51-21.16.18-.72.69-2.54 1.15-4.05.46-1.51 1.01-3.59 1.22-4.64.34-1.7.91-4.09 1.56-6.56.19-.73.73-3.72 1.95-10.73.22-1.25.36-1.58.64-1.51.2.05.98.17 1.72.25.75.08 1.36.19 1.36.23 0 .04-.53 2.95-1.17 6.46-3.14 17.05-7.8 32.1-15.06 48.57-8.2 18.61-15.3 28.9-24.29 35.22-7.14 5.02-15.89 7.48-23.75 6.69zm-.827-5.452c-4.54-.666-9.41-2.38-14.65-5.158-3.99-2.112-8.21-4.688-8.34-5.097-.25-.778.81-.385 3.73 1.386 9.16 5.553 16.39 8.113 22.92 8.12 4.91.004 8.55-.87 13.12-3.147 8.72-4.35 16.1-13.33 23.22-28.27 8.89-18.68 14.72-36.35 17.91-54.33 1.11-6.29.99-5.83 1.56-5.83.39 0 .46.11.36.53-.07.29-.57 2.99-1.11 6-1.7 9.49-4.41 19.92-7.59 29.12-1.46 4.23-5 13.41-6 15.57-.31.65-1.24 2.74-2.09 4.63-5.71 12.81-11.3 21.61-17.48 27.46-7.45 7.05-16.69 10.31-25.58 9z"/>
    <path fill="#ae2e24" d="M142.106 266.597c-5.21-.528-10.75-2.28-16.84-5.325-3.165-1.583-9.853-5.47-9.862-5.732-.01-.305 1.293-2.317 1.506-2.325.116-.004 1.233.625 2.48 1.398 6.09 3.77 11.6 6.4 15.98 7.625 1.04.29 2.008.624 2.15.74.142.115.31.156.376.09.066-.065 1.12.087 2.342.338 4.043.832 9.677.368 14.62-1.203 4.227-1.343 9.68-4.534 12.73-7.448.823-.786 1.64-1.51 1.816-1.61.433-.244 5.038-5.727 5.938-7.07l1.764-2.614c1.588-2.34 3.367-5.37 4.4-7.48.512-1.04 1.58-3.13 2.373-4.63s1.65-3.27 1.91-3.92c.25-.65.93-2.2 1.5-3.44s1.26-2.79 1.53-3.44.86-2.04 1.31-3.09c.45-1.04 1-2.43 1.21-3.09.36-1.1 2.01-5.34 2.49-6.41.12-.26.37-1.03.56-1.7.19-.67.71-2.28 1.17-3.57 1.18-3.38 3.21-10.32 3.73-12.76.24-1.15.71-3.08 1.03-4.28.73-2.72 1.48-6.15 1.62-7.41.06-.52.46-2.75.88-4.96l.77-4 1.3.16c.72.09 1.34.19 1.38.23.18.19-2.42 13.44-3.59 18.3-2.95 12.24-7.05 24.22-12.58 36.76-8.2 18.61-15.3 28.9-24.29 35.22-7.14 5.02-15.89 7.49-23.75 6.69z"/>
    <path fill="#871a1b" d="M142.106 266.597c-5.21-.528-10.75-2.28-16.84-5.325-3.596-1.8-9.856-5.486-9.856-5.806 0-.13.197-.495.437-.81l.438-.572.68.453c.375.25.894.58 1.153.737 4.08 2.453 5.536 3.283 7.34 4.188 2.56 1.285 6.742 3.098 8.035 3.485.51.153 1.462.44 2.112.64.65.197 1.607.45 2.127.562.52.11 1.477.32 2.127.47 1.45.34 7.53.46 9.18.18 4.4-.74 7.53-1.75 11.26-3.63 2.5-1.27 5.59-3.29 7.05-4.62.43-.4 1.52-1.38 2.4-2.18.88-.8 2.23-2.22 2.99-3.15s1.6-1.93 1.88-2.23c.27-.3.81-1 1.2-1.56.38-.57 1.21-1.78 1.84-2.69 2.76-4.04 7.42-12.88 10.64-20.21 1.6-3.66 2.17-4.94 2.5-5.62.1-.22.52-1.29.93-2.38.41-1.1 1.1-2.9 1.54-4.02 2.23-5.7 4.53-12.71 6.56-19.97.96-3.42 2.87-12.05 3.72-16.76.51-2.88.99-5.5 1.06-5.83.11-.53.22-.59.94-.51.45.05.82.12.82.16s-.53 2.94-1.18 6.46c-3.14 17.05-7.8 32.1-15.06 48.57-8.2 18.61-15.3 28.9-24.29 35.22-7.14 5.02-15.89 7.48-23.75 6.69z"/>
    <path fill="#791415" d="M142.106 266.597c-6.915-.7-14.08-3.43-23.21-8.833-3.052-1.806-4.087-2.654-3.242-2.654.313 0 2.602 1.26 4.005 2.208.58.395 2.49 1.463 4.25 2.376 1.75.912 3.42 1.805 3.71 1.984.29.18.63.326.76.326s.8.253 1.48.562c2.26 1.02 6.62 2.45 8.1 2.66.39.053 1.24.21 1.89.344 1.71.358 6 .64 6.33.418.15-.104.84-.168 1.52-.142.68.026 1.31-.025 1.4-.114s.47-.162.85-.162c1.78 0 7.28-1.8 10.57-3.46 7.65-3.864 14.52-10.83 20.37-20.67 1.73-2.903 6.35-12 7.98-15.69.57-1.307 1.38-3.126 1.8-4.04.41-.916.83-1.932.93-2.26.09-.326.25-.7.35-.83.1-.132.68-1.576 1.29-3.21s1.51-3.987 2.01-5.23c1.5-3.776 5.51-16.64 6.3-20.2.21-.98.74-3.172 1.17-4.872.42-1.7 1-4.374 1.27-5.942 1.32-7.57 1.76-9.627 2.07-9.627.2 0 .26.19.19.53-.07.29-.6 3.17-1.19 6.4-2.98 16.34-7.76 31.68-14.94 47.97-6.9 15.66-12.96 25.29-20.01 31.8-8.08 7.46-18.52 11.31-28.04 10.35z"/>
  </g>
  <circle cx="118.5" cy="243.5" r="10.6" fill="url(#SVGID_182_)"/>
  <path fill="url(#SVGID_183_)" d="M860.9 690.4h14.9l3.1 6.1h-21z" transform="translate(-749.9 -437.5)"/>
  <path fill="url(#SVGID_184_)" d="M105.9 257.8h25.2v4.2h-25.2z"/>
  <path fill="url(#SVGID_185_)" d="M108.4 262h20.5v2.3h-20.5z"/>
  <path fill="url(#SVGID_186_)" d="M97.2 422.4h42.5v3.2H97.2z"/>
  <path fill="url(#SVGID_187_)" d="M90.3 425.5h56.4v6H90.3z"/>
  <path fill="url(#SVGID_188_)" d="M203 165.9h11.1v130.6H203z"/>
  <circle cx="208.5" cy="151.9" r="8.6" fill="url(#SVGID_189_)"/>
  <g stroke-width=".236">
    <path fill="#e39fa0" d="M224.592 170.257c-2.604-.408-3.65-.7-6.355-1.782-3.543-1.415-9.885-4.974-9.885-5.547 0-.392 2.172-3.88 2.42-3.888.1-.003 1.266.652 2.59 1.456 7.125 4.33 12.53 5.81 17.62 4.828 9.9-1.91 16.9-10.66 24.98-31.25 2.733-6.965 5.605-17.11 6.755-23.88.71-4.165.612-3.902 1.43-3.902.393 0 1.45.122 2.35.27 1.418.237 1.633.338 1.632.77-.01.862-1.39 7.923-2.24 11.45-1.12 4.59-3.81 13.15-5.5 17.45-3.44 8.762-6.38 14.69-9.93 20.07-5.55 8.396-11.47 12.71-19.17 13.97-2.51.41-4 .405-6.71-.02z"/>
    <path fill="#a86a6b" d="M224.392 170.057c-2.604-.408-3.65-.7-6.355-1.782-2.753-1.1-9.644-4.805-9.64-5.183.002-.065.558-.985 1.237-2.044l1.234-1.926 1.878 1.174c7.12 4.452 13.14 6.1 18.51 5.065 9.902-1.91 16.9-10.66 24.98-31.25 2.79-7.1 5.59-17.05 6.84-24.3.31-1.79.63-3.32.71-3.4.272-.27 4.178.44 4.31.79.166.44-1.154 7.52-2.184 11.74-.445 1.83-1.55 5.68-2.452 8.57-4.857 15.54-11.67 28.89-17.92 35.12-4.403 4.39-8.484 6.57-13.97 7.47-2.515.41-4.463.41-7.178-.02z"/>
    <path fill="#e44728" d="M224.592 170.057c-2.604-.408-3.65-.7-6.355-1.782-3.402-1.36-9.636-4.82-9.645-5.353-.005-.305 2.056-3.614 2.25-3.614.064 0 1.197.657 2.52 1.46 7.126 4.33 12.53 5.812 17.62 4.83 8.943-1.727 15.45-8.95 22.51-24.98 4.47-10.15 7.943-21.34 9.48-30.53.29-1.74.593-3.24.67-3.333.22-.26 1.407-.234 2.9.064.994.19 1.354.37 1.353.66-.002.77-1.433 8.03-2.237 11.35-.452 1.86-1.563 5.76-2.468 8.65-4.86 15.55-11.67 28.9-17.92 35.13-4.403 4.39-8.484 6.57-13.97 7.46-2.504.41-4 .4-6.707-.02z"/>
    <path fill="#cf3327" d="M224.592 170.057c-2.604-.408-3.65-.7-6.355-1.782-3.658-1.46-9.637-4.826-9.645-5.428-.002-.2.29-.72.653-1.155l.658-.792 1.755 1.057c7.94 4.784 13.41 6.395 18.82 5.547 4.066-.637 6.172-1.466 9.55-3.76 9.494-6.446 20.37-29.82 24.79-53.27l.667-3.548 1.11.04c.61.022 1.174.104 1.252.183.078.07-.152 1.76-.51 3.74-2.934 16.2-9.752 34.33-17.09 45.44-5.477 8.29-11.27 12.49-18.94 13.75-2.505.41-4 .4-6.708-.02zm.47-3.752c-2.887-.504-4.274-.97-7.574-2.544-3.967-1.89-7.04-3.79-6.79-4.2.132-.21.84.11 2.624 1.19 7.167 4.36 12.56 5.84 17.66 4.85 8.943-1.72 15.45-8.94 22.51-24.98 4.475-10.17 7.903-21.22 9.53-30.74.423-2.46.634-3.21.927-3.26.26-.05.35.06.28.36-.06.24-.41 2.14-.79 4.23-2.14 11.66-6.42 24.26-12.03 35.46-2.86 5.69-5.68 9.99-8.39 12.78-2.94 3.04-3.81 3.65-8.58 6.04-.7.35-3.83.91-5.74 1.03-1.06.07-2.66-.02-3.65-.19z"/>
    <path fill="#ae2f24" d="M224.592 170.057c-2.604-.408-3.65-.7-6.355-1.782-3.63-1.45-9.638-4.826-9.644-5.42-.002-.194.234-.65.525-1.01l.528-.658 1.197.795c1.375.914 5.993 3.45 7.04 3.865 2.27.9 4.936 1.775 5.705 1.87.488.06 1.31.173 1.827.25 4.968.746 10.31-.642 14.89-3.867 1.483-1.045 6.642-6.105 6.642-6.515 0-.12.797-1.376 1.77-2.79 1.96-2.852 5.157-9.005 7.543-14.52.17-.39.526-1.195.792-1.79s.486-1.21.486-1.37.17-.626.38-1.033c.532-1.033 1.34-3.29 2.565-7.16.577-1.82 1.308-4.11 1.625-5.085.89-2.734 2.016-7.47 2.952-12.42l.85-4.494.91.056c.5.03.967.11 1.036.18.07.07-.168 1.74-.527 3.73-2.94 16.2-9.76 34.33-17.09 45.44-5.48 8.29-11.27 12.49-18.94 13.75-2.51.41-4 .4-6.71-.02z"/>
    <path fill="#871a1b" d="M224.592 170.057c-4.423-.693-8.254-2.264-14.41-5.908-1.646-.98-1.774-1.16-1.285-1.8.264-.35.483-.27 2.17.79 2.333 1.46 7.488 3.99 9.525 4.67 2.03.67 5.603 1.23 7.674 1.2 2.04-.04 7.726-1.22 8.094-1.69.065-.08.382-.24.706-.34.324-.1.983-.44 1.466-.74s.95-.56 1.036-.56c.428 0 2.544-1.82 5.003-4.29 2.3-2.31 3.12-3.35 5.12-6.51 2.2-3.47 7.15-13.07 7.15-13.88 0-.19.16-.48.36-.64.2-.16.36-.45.36-.64s.22-.82.48-1.4c1.42-3.12 5.59-15.7 6.12-18.43.15-.78.49-2.17.76-3.08.27-.91.68-2.83.91-4.26.88-5.3.95-5.56 1.56-5.56.7 0 .7.01-.16 4.61-1.02 5.47-2.13 9.85-3.99 15.83-4.86 15.55-11.67 28.9-17.92 35.13-4.4 4.39-8.48 6.57-13.97 7.46-2.5.41-4 .4-6.71-.02z"/>
    <path fill="#791416" d="M224.592 170.057c-2.604-.408-3.65-.7-6.355-1.782-3.428-1.37-9.637-4.82-9.645-5.36-.002-.163.062-.296.144-.296.17 0 1.295.66 3.028 1.77 2.52 1.62 6.75 3.54 9.626 4.36 4.508 1.29 9.896 1.19 13.91-.27 2.08-.76 4.52-2.08 6.703-3.62.192-.14 1.568-1.48 3.06-2.99 2.068-2.1 3.153-3.44 4.575-5.68 1.025-1.62 1.996-3.09 2.158-3.29.464-.56 3.976-7.74 5.534-11.3 4.23-9.7 7.6-20.68 9.393-30.64.372-2.07.735-3.81.807-3.89.434-.44.38.6-.198 3.79-2.933 16.2-9.75 34.33-17.09 45.44-5.476 8.29-11.27 12.49-18.94 13.75-2.504.41-4 .41-6.707-.02z"/>
  </g>
  <path fill="url(#SVGID_190_)" d="M952.4 597h12l2.5 4.9h-17z" transform="translate(-749.9 -437.5)"/>
  <path fill="url(#SVGID_191_)" d="M198.3 163.4h20.4v3.4h-20.4z"/>
  <path fill="url(#SVGID_192_)" d="M200.4 166.8H217v1.8h-16.6z"/>
  <path fill="url(#SVGID_193_)" d="M191.4 296.5h34.3v2.6h-34.3z"/>
  <path fill="url(#SVGID_194_)" d="M185.7 299h45.6v4.9h-45.6z"/>
  <path fill="url(#SVGID_195_)" d="M266 103.7h9.6v113.4H266z"/>
  <circle cx="270.8" cy="91.5" r="7.5" fill="url(#SVGID_196_)"/>
  <path fill="url(#SVGID_197_)" d="M1016 535.6h10l2 4.3h-15z" transform="translate(-749.9 -437.5)"/>
  <path fill="url(#SVGID_198_)" d="M261.9 101.6h17.7v2.9h-17.7z"/>
  <path fill="url(#SVGID_199_)" d="M263.8 104.5h14.4v1.6h-14.4z"/>
  <path fill="url(#SVGID_200_)" d="M255.9 217.2h29.8v2.3h-29.8z"/>
  <path fill="url(#SVGID_201_)" d="M251 219.3h39.6v4.2H251z"/>
  <path fill="url(#SVGID_202_)" d="M570.3 260.9H584v161.5h-13.7z"/>
  <g stroke-width=".238">
    <path fill="#d59f9f" d="M546.893 265.872c-9.75-1.455-17.72-6.018-24.95-14.28-4.277-4.89-7.67-10.16-11.7-18.18-7.814-15.55-13.6-31.15-17.42-46.97-1.174-4.862-3.356-16.11-3.356-17.29 0-.557.11-.603 2.09-.892 1.148-.168 2.62-.313 3.27-.322l1.183-.017.537 3.19c2.89 17.15 7.765 32.97 15.53 50.41 6.487 14.56 11.74 22.96 18.12 28.98 9.02 8.5 19.83 10.95 31.43 7.13 2.978-.98 8.86-3.83 13.02-6.31 3.302-1.96 3.43-2.02 3.88-1.61.256.23.466.51.466.62 0 .11.633 1.14 1.406 2.28s1.36 2.17 1.3 2.26c-.06.1-1.52 1.02-3.26 2.05-10.71 6.36-17.95 8.91-26.08 9.19-2.16.07-4.11 0-5.49-.21z"/>
    <path fill="#e44728" d="M546.893 265.572c-9.75-1.455-17.72-6.018-24.95-14.28-4.277-4.89-7.67-10.16-11.7-18.18-9.63-19.16-16.08-38.1-19.7-57.83-.59-3.217-1.073-6.004-1.073-6.193 0-.35 1.63-.68 5.028-1.04l1.327-.14.3 1.99c1.52 10.1 5.345 24.88 9.19 35.51 3.762 10.4 9.442 23.06 13.71 30.54 11.36 19.94 25.85 27.37 42.61 21.84 2.973-.98 8.858-3.83 13.01-6.31 1.868-1.12 3.488-1.97 3.6-1.9.11.06.614.79 1.12 1.62.505.82 1.222 1.87 1.593 2.32.37.45.673.94.673 1.07s-1.47 1.11-3.28 2.17c-8.35 4.9-13.73 7.15-20.12 8.42-3.02.6-8.53.77-11.34.35z"/>
    <path fill="#9a5454" d="M546.893 265.572c-9.75-1.455-17.72-6.018-24.95-14.28-4.277-4.89-7.67-10.16-11.7-18.18-7.92-15.76-13.68-31.35-17.52-47.43-1.27-5.32-3.448-16.65-3.24-16.86.113-.11 3.405-.59 3.5-.508.074.06.62 3.043 1.376 7.5.58 3.474.72 4.117 1.56 7.37.25.98.73 3.013 1.07 4.516.33 1.503.92 3.696 1.3 4.873s.86 2.835 1.08 3.684c.42 1.686 2.82 8.937 3.77 11.41.57 1.502 2.68 6.866 3.73 9.508.28.72.77 1.842 1.07 2.496.31.66 1.27 2.78 2.14 4.73 1.93 4.31 5.38 11 7.49 14.53 7.35 12.35 16.24 19.88 26.54 22.49 3.48.89 8.22 1.12 11.83.57 1.43-.21 2.88-.48 3.21-.59.33-.11 1.24-.38 2.03-.61s1.75-.53 2.15-.69c.39-.16 1.46-.59 2.38-.95.92-.36 2.53-1.1 3.58-1.63 1.05-.53 2.42-1.22 3.04-1.52s2.53-1.39 4.24-2.42c3.04-1.84 3.11-1.87 3.38-1.36.15.29.58.89.95 1.35.37.46.68.94.68 1.08s-1.48 1.12-3.28 2.18c-8.35 4.9-13.73 7.16-20.12 8.43-3.02.6-8.54.77-11.34.358zm1.313-5.148c-11.29-1.417-20.67-8.54-28.78-21.85-2.105-3.455-6.262-11.66-8.797-17.38-7.24-16.3-12.02-31.76-14.93-48.23-.27-1.503-.58-3.242-.7-3.863-.21-1.07-.2-1.12.3-1.12.47 0 .55.19.82 1.96 1.51 10.07 5.34 24.87 9.18 35.48 3.76 10.4 9.44 23.06 13.71 30.54 11.36 19.94 25.85 27.37 42.61 21.84 2.98-.98 8.86-3.83 13.03-6.32 3.05-1.82 3.46-2 3.78-1.68.32.32.02.57-2.83 2.27-6.78 4.05-13.78 7.13-17.72 7.79-4.84.81-6.82.93-9.7.57z"/>
    <path fill="#cd3127" d="M546.893 265.572c-11.46-1.71-20.62-7.792-28.67-19.05-2.74-3.833-4.858-7.435-7.742-13.17-7.81-15.55-13.6-31.15-17.42-46.97-1.12-4.64-3.35-16.09-3.35-17.18 0-.392.21-.505 1.14-.625.63-.08 1.37-.195 1.66-.254.45-.092.55.02.67.786.08.49.3 1.64.48 2.55.19.91.56 3.05.84 4.75.28 1.7.6 3.46.71 3.92.12.46.43 1.69.7 2.73.27 1.04.77 3.13 1.11 4.63.34 1.5.93 3.69 1.3 4.87.38 1.17.87 2.83 1.08 3.68.43 1.68 2.83 8.93 3.78 11.41.58 1.5 2.68 6.86 3.73 9.51.29.72.77 1.84 1.08 2.49.31.65 1.28 2.78 2.15 4.72 1.94 4.3 5.39 11 7.49 14.53 7.36 12.35 16.24 19.88 26.54 22.49 3.49.88 8.23 1.11 11.83.57 1.44-.22 2.89-.49 3.21-.6.33-.12 1.25-.39 2.03-.61s1.76-.54 2.15-.7l2.39-.96c.92-.37 2.53-1.1 3.58-1.63 1.05-.54 2.42-1.22 3.05-1.52s2.52-1.39 4.22-2.41l3.08-1.86.97 1.5.97 1.51-3.15 1.87c-10.7 6.36-17.95 8.91-26.07 9.18-2.16.07-4.1 0-5.49-.21zm1.313-5.148c-11.29-1.417-20.67-8.54-28.78-21.85-2.105-3.455-6.262-11.66-8.797-17.38-7.24-16.3-12.02-31.76-14.93-48.23-.27-1.503-.58-3.242-.7-3.863-.21-1.07-.2-1.12.3-1.12.47 0 .55.19.82 1.96 1.51 10.07 5.34 24.87 9.18 35.48 3.76 10.4 9.44 23.06 13.71 30.54 11.36 19.94 25.85 27.37 42.61 21.84 2.98-.98 8.86-3.83 13.03-6.32 3.05-1.82 3.46-2 3.78-1.68.32.32.02.57-2.83 2.27-6.78 4.05-13.78 7.13-17.72 7.79-4.84.81-6.82.93-9.7.57z"/>
    <path fill="#ae2e24" d="M546.893 265.572c-11.46-1.71-20.62-7.792-28.67-19.05-2.74-3.833-4.858-7.435-7.742-13.17-9.63-19.16-16.08-38.1-19.7-57.83-.59-3.217-1.07-6.057-1.07-6.312 0-.33.22-.506.75-.612 1.39-.276 1.87-.184 1.99.386.39 1.715 1.54 7.83 1.65 8.735.19 1.53.52 3.05 1.36 6.29.41 1.57.94 3.76 1.19 4.87.24 1.11.83 3.25 1.31 4.75s.98 3.16 1.1 3.68c.44 1.78 2.67 8.31 3.99 11.65.73 1.83 1.56 4.02 1.86 4.87.47 1.34 1.19 3.08 2.66 6.4 2.71 6.13 7.08 15.01 8.77 17.84.67 1.11 1.38 2.31 1.57 2.67.58 1.03 3.1 4.59 4.66 6.57 2.27 2.87 6.94 7.38 9.56 9.22 7.55 5.3 16.51 7.44 24.76 5.9 6.05-1.13 13.11-4.09 20.32-8.52 1.42-.87 2.65-1.58 2.75-1.58.09 0 .51.53.94 1.18l.77 1.17-3.16 1.88c-10.71 6.36-17.95 8.91-26.08 9.19-2.16.07-4.1 0-5.49-.21z"/>
    <path fill="#871a1b" d="M546.893 265.572c-11.46-1.71-20.62-7.792-28.67-19.05-2.74-3.833-4.858-7.435-7.742-13.17-9.63-19.16-16.08-38.1-19.7-57.83-.59-3.217-1.07-6.058-1.07-6.314 0-.34.2-.495.74-.574.42-.06.77.005.82.15.04.144.42 2.186.83 4.54.95 5.365 1.02 5.752 2.2 10.82 1.95 8.386 4.99 18.47 7.55 25.08.41 1.045 1.18 3.077 1.71 4.515.54 1.43 1.19 3.06 1.45 3.62.26.55.48 1.06.48 1.12s.49 1.14 1.08 2.4 1.08 2.34 1.08 2.4c0 .33 6.3 13.05 7.52 15.18.99 1.72 2.25 3.79 2.75 4.51 2.61 3.75 5.69 7.68 7.19 9.14 2.37 2.31 4.31 3.98 6.01 5.15 1.08.75 2.09 1.47 2.23 1.61.14.13.84.51 1.56.84s1.35.64 1.42.71c.6.61 5.54 2.39 8.12 2.93 3.397.71 4.298.8 7.696.74 4.784-.08 8.67-.93 13.92-3.07 2.78-1.14 8.23-3.88 10.83-5.47 1.126-.69 2.44-1.48 2.924-1.77l.875-.52.5.7.5.7-3.17 1.88c-10.72 6.37-17.96 8.92-26.09 9.19-2.16.07-4.11-.01-5.5-.21z"/>
    <path fill="#791415" d="M547.193 265.572c-9.75-1.454-17.72-6.018-24.95-14.28-4.277-4.89-7.67-10.16-11.7-18.18-9.712-19.33-16.24-38.59-19.84-58.54-.886-4.91-1.026-6.293-.59-5.86.132.133 1.38 6.417 1.912 9.64.22 1.33.66 3.416.976 4.636.32 1.22.86 3.45 1.19 4.952 1.06 4.695 4.87 16.86 6.93 22.11.7 1.765 1.59 4.065 1.99 5.11.67 1.75 2.53 6.096 4.24 9.865 1.77 3.906 6.41 12.98 7.91 15.45 8.23 13.56 17.68 21.27 29.28 23.88.9.202 1.93.366 2.29.366s.73.07.81.14c.14.14 1.74.26 4.36.35 3.18.1 9.69-1.31 13.73-2.98.86-.35 1.88-.76 2.27-.91 1.47-.55 6.32-3.11 9.56-5.04 3.35-2 3.79-2.19 4.04-1.77.31.5-9.83 6.1-14.43 7.98-6.97 2.85-14.17 3.97-19.94 3.11z"/>
  </g>
  <circle cx="577.2" cy="243.5" r="10.6" fill="url(#SVGID_203_)"/>
  <path fill="url(#SVGID_204_)" d="M1334 690.4h-14l-3 6.1h21z" transform="translate(-749.9 -437.5)"/>
  <path fill="url(#SVGID_205_)" d="M564.6 257.8h25.2v4.2h-25.2z"/>
  <path fill="url(#SVGID_206_)" d="M566.7 262h20.5v2.3h-20.5z"/>
  <path fill="url(#SVGID_207_)" d="M555.9 422.4h42.5v3.2h-42.5z"/>
  <path fill="url(#SVGID_208_)" d="M549 425.5h56.4v6H549z"/>
  <path fill="url(#SVGID_209_)" d="M481.6 165.9h11.1v130.6h-11.1z"/>
  <circle cx="487.1" cy="151.9" r="8.6" fill="url(#SVGID_210_)"/>
  <path fill="url(#SVGID_211_)" d="M1243 597h-12l-3 4.9h18z" transform="translate(-749.9 -437.5)"/>
  <path fill="url(#SVGID_212_)" d="M476.9 163.4h20.4v3.4h-20.4z"/>
  <path fill="url(#SVGID_213_)" d="M478.6 166.8h16.6v1.8h-16.6z"/>
  <path fill="url(#SVGID_214_)" d="M470 296.5h34.3v2.6H470z"/>
  <path fill="url(#SVGID_215_)" d="M464.3 299h45.6v4.9h-45.6z"/>
  <path fill="url(#SVGID_216_)" d="M420 103.7h9.6v113.4H420z"/>
  <circle cx="424.8" cy="91.5" r="7.5" fill="url(#SVGID_217_)"/>
  <path fill="url(#SVGID_218_)" d="M1180 535.6h-10l-3 4.3h15z" transform="translate(-749.9 -437.5)"/>
  <path fill="url(#SVGID_219_)" d="M416 101.6h17.7v2.9H416z"/>
  <path fill="url(#SVGID_220_)" d="M417.5 104.5h14.4v1.6h-14.4z"/>
  <path fill="url(#SVGID_221_)" d="M409.9 217.2h29.8v2.3h-29.8z"/>
  <path fill="url(#SVGID_222_)" d="M405 219.3h39.6v4.2H405z"/>
  <path fill="url(#SVGID_223_)" d="M1100 869h195l-148-214.3h-94L904.6 869z" transform="translate(-749.9 -437.5)"/>
  <path fill="url(#SVGID_224_)" d="M1059 654.7h-2L913.8 869h4.3z" transform="translate(-749.9 -437.5)"/>
  <path fill="url(#SVGID_225_)" d="M1142 654.7h2L1288 869h-5z" transform="translate(-749.9 -437.5)"/>
</svg>
