<?xml version="1.0" standalone="no"?><!-- Generator: Gravit.io --><svg xmlns="http://www.w3.org/2000/svg" xmlns:xlink="http://www.w3.org/1999/xlink" style="isolation:isolate" viewBox="-0.9661972213156513 -0.1788541247991695 275 98" width="275" height="98"><g transform="translate(0,0)"><path d=" M 245.47388942800666 66.42516886298827 C 227.71253141079586 52.87241523974939 214.1555413706182 69.9388922519516 214.75681392664262 80.68383744288815 C 216.30987146328522 91.36776678495443 223.5113578303414 97.2667715121799 232.9993835884656 97.41374688486988 C 249.6387243273806 95.44277235170013 256.27427978056073 79.28270238944157 245.47388942800666 66.42516886298827 Z " fill="rgb(249,249,249)"/><path d=" M 253.28175580780447 79.34144178336945 C 253.34751240096102 67.02344806267709 242.57354979592563 58.91955143101178 233.2781745350618 58.765889485121875 C 222.26227023066292 59.09755681450156 212.8936010985837 65.74931061743318 212.28666794080192 79.80803870581633 C 212.15463256398283 89.37297757328284 220.81012740192924 99.61704489915363 232.44224606140585 99.76146998467729 C 242.5922796855856 99.66388932860562 252.99150163398144 92.26264189658116 253.28175580780447 79.34144178336945 Z  M 230.7961045333536 96.82097583457428 C 229.73348626417095 96.72383362147465 229.19403391348072 96.6192378778502 228.08014244819577 96.2943516355607 C 227.0068636105691 95.98131320616764 225.20888287707254 95.22035355440684 224.86810923495312 94.93491732695082 C 224.7797703655732 94.86093377016144 224.3220556080545 94.56836422333996 223.85095109774892 94.28476058898062 C 223.3798465874433 94.00115695462128 222.79658935015226 93.59009942618451 222.55481514585676 93.37129667782915 C 222.31304094156127 93.15249885579931 221.95169496403417 92.85090428060931 221.75180437938334 92.70109472128281 C 221.34022958676604 92.39261806932927 219.40763208187337 90.3962640594447 219.40763208187337 90.27958403929844 C 219.40763208187337 90.23770041965378 219.21491422719225 89.96476720638952 218.97935704571393 89.6730696191866 C 218.74380971688666 89.3813769583092 218.55108200955448 89.09716245958433 218.55108200955448 89.04148512845941 C 218.55108200955448 88.98580779733453 218.43899825112646 88.78769068987401 218.30201684347657 88.60121941596321 C 217.99298844306384 88.18055555274556 216.94807538783118 85.96990638236434 216.63991402071147 85.08479347463029 C 215.91923200647298 83.01483523502202 215.52341160289632 79.73475961357754 215.74438686080984 77.66376684560825 C 216.15909479646336 73.7771718777264 218.02819196529163 69.81804908224888 220.7995160967405 66.95603129781739 C 221.7581593393153 65.96601721427609 223.18079347813233 64.79144327112914 224.0882719037665 64.24073426660595 C 224.71627988215988 63.85962387105788 226.90239595140838 62.78675145528731 226.90239595140838 62.85965614678592 C 226.90239595140838 62.89543112277504 226.97466514691376 62.86331886981648 227.06299416364263 62.7883057109916 C 227.15133303302252 62.71328762584119 227.22360222852797 62.68386514662128 227.22360222852797 62.72292105541248 C 227.22360222852797 62.76197696420368 227.36632773174424 62.71840854122823 227.54075906606298 62.6260941271467 C 227.71520025303278 62.533784639390696 228.47404158481623 62.30349616306527 229.22707970512698 62.1143449680669 C 230.43079779010145 61.81198927558273 230.81904150501504 61.765420720360325 232.44011788877748 61.728943742983375 C 233.46453742981092 61.70589100267202 234.60652865591135 61.740062459701555 235.00973854778096 61.80583136867191 C 235.69378840538837 61.917405252407725 237.40695751858354 62.36849410209039 237.8768698581112 62.560761197985634 C 237.9946385961993 62.60895051430697 238.28372523087205 62.709474649882004 238.5192725596993 62.78415281857094 C 239.15333006584189 62.985166605442316 240.74136065795807 63.739887065921074 241.4974235421434 64.19953786937253 C 243.96362092299822 65.69886504401973 246.1300809533874 67.86556400119701 247.48118484552828 70.18394698456446 C 248.65682780131496 72.20126004641071 249.52097426759903 74.59168561430926 249.81805140227925 76.6482836590838 C 249.88768993995237 77.13036894899278 249.982511853728 77.7372429908682 250.02877005044206 77.99688497785614 C 250.23042425963217 79.1287772366228 250.00739472397322 81.7418874973933 249.5500691461713 83.60566423465062 C 248.93645096464712 86.10636067318265 248.14240118431033 87.76084247035493 246.2898121323286 90.39869766425586 C 245.46173622156533 91.57776934261048 243.45421915803283 93.4148848061067 242.15959066175247 94.17834210491054 C 241.19260222373214 94.74857906382934 239.25535426754038 95.72539552127935 238.6135722829689 95.96634210288605 C 236.4742661588937 96.76951051177639 233.63204235043636 97.080233568171 230.7961045333536 96.82097583457428 L 230.7961045333536 96.82097583457428 Z  M 233.64767850766432 96.24014727576886 C 234.7602694230097 96.17469611479513 236.058326641858 95.97297786337313 237.12738854483217 95.6994091541157 C 237.7162617932259 95.54871778251956 238.39941505958706 95.3736805101608 238.64552443034776 95.31042649037283 C 238.89163380110847 95.24717739691039 239.19349932420255 95.08594368868293 239.31634217758517 94.95212498202244 C 239.5245681050305 94.7252972493809 239.52949443055917 94.6791966950837 239.3889562158776 94.27160237349358 C 239.25204377678511 93.87448141997737 238.7920432042211 92.93618390183592 238.51681924958604 92.49260769858446 C 238.45658014102162 92.39551967506566 238.15115781089582 91.84769749730226 237.8381095288517 91.27521906026794 C 237.52505139415655 90.70274062323361 237.08049977845042 89.89406950872774 236.85019405998563 89.47816940229629 C 236.6198784888698 89.06226929586484 236.43144653739859 88.65929094129504 236.43144653739859 88.58266194769678 C 236.43144653739859 88.50603788042402 236.3191952839026 88.3039698598895 236.18200697058052 88.13363230208509 C 236.04480880460738 87.96328981795514 235.9001423291328 87.74996514358764 235.86052481923133 87.65957199646229 C 235.7020843375786 87.29808315549487 235.073347263007 86.21842472630857 234.74733289217147 85.74803945953016 C 234.28307597435068 85.0781774194453 234.06556884960935 85.09270022710379 232.5253137624701 85.89637604752359 C 230.42554632708791 86.99200069774827 229.99933049499947 87.42107379864336 229.68545459026652 88.75522127831462 C 229.6358464921929 88.9661369794986 229.29724043330611 90.00152744748436 228.93298792371712 91.05609117442768 C 228.20846337556628 93.15377477411124 227.73688593800992 94.83179948098496 227.782966787005 95.14827648559702 C 227.86778825995742 95.73081940568642 231.33447309242752 96.37623701849807 233.64767850766432 96.24014727576886 Z  M 228.82961390882375 95.5197756200387 C 228.2598449508302 95.25555707663463 228.2494306986626 95.24304420979183 228.50841748435522 95.13407881542344 C 228.88758690764502 94.97454961582889 229.66452755942078 94.26539520332747 229.83952049484978 93.91910900294147 C 230.09449725156207 93.41454981597076 231.2746182372543 88.1529040875532 231.15928310397737 88.0348791805376 C 231.04546527896323 87.918401139738 230.70501677432873 87.90625282098432 230.50637747636216 88.0115875134381 C 230.11396609005135 88.21967550376863 230.36913989978478 87.7316145809934 230.81115938416917 87.42866526628302 C 231.41236815168665 87.01660276743839 233.81304540301034 85.7969677246808 234.02291672318222 85.7969677246808 C 234.40108117606417 85.7969677246808 234.61787890992935 86.06437852702743 235.28731728601875 87.35660790277532 C 235.67022086405925 88.095714374491 236.535510237866 89.66955222275914 237.21019022431784 90.8540280802187 C 238.818665067378 93.6778865471052 238.9236253590916 93.9057241764801 238.83611411240048 94.38309004653263 C 238.74123308271854 94.90065965922454 238.4657431065049 94.79922661658946 238.4657431065049 94.24671950324833 C 238.4657431065049 93.96833284762383 238.3726059960601 93.72824837298467 238.16214351682476 93.46409387181248 C 237.85162736610235 93.07434270128715 237.43214089468603 92.3042989052515 236.16396676649458 89.79608982028826 C 234.64771273733092 86.79720393369405 234.34622161497703 86.34294253037095 233.87414169221677 86.34586384140943 C 233.61069165559516 86.34749938148495 232.65398938527863 86.83451592324812 232.44819706264445 87.07175790805724 C 232.27656388122602 87.2696237729158 231.7235444300299 89.41608292165861 230.97002352981735 92.8091290401263 C 230.78935546737932 93.62265258527788 230.61372210963162 94.36221720526771 230.57973046348388 94.45260542606755 C 230.44327124634003 94.81555245939145 230.45016810208017 95.39029207984342 230.5936916700321 95.6144251124208 C 230.67729141425343 95.74500229688343 230.72485016090707 95.87317543448805 230.6993613526218 95.89926032816231 C 230.58572087532673 96.01554131594077 229.36397243891733 95.76757472045574 228.82961390882375 95.5197756200387 L 228.82961390882375 95.5197756200387 Z  M 225.42879404867185 94.20608224396241 C 225.5241381529535 94.13075872662924 225.65828199709887 93.847258545106 225.726895859062 93.57608403005548 C 225.79549986837412 93.30491444133048 225.91322919585798 93.00908859333452 225.988523155238 92.91869544620918 C 226.06381711461802 92.82830229908383 226.21006001426178 92.48317378519708 226.31352270301466 92.15174045628001 C 226.4169755391165 91.82030712736292 226.56771124764236 91.47129174263407 226.64848328101027 91.37615947035015 C 226.7292454617271 91.2810222717407 226.79532719236852 91.16162784622813 226.79532719236852 91.11084235635319 C 226.79532719236852 90.98732952269867 227.28650155287784 89.71664296848758 227.60795414627387 89.0085280106727 C 227.74988158475452 88.69589353997299 227.86600493011605 88.41268893798147 227.86600493011605 88.37918499806106 C 227.86600493011605 88.34568598446619 228.20704459381403 87.4985402675815 228.6238609967938 86.49663896053954 C 229.1477757167666 85.23730758667202 229.36222851968017 84.59552067577499 229.31856157019416 84.4175029764714 C 229.21843893014972 84.00926330623702 228.77942450433778 83.67244550351711 227.83394440357554 83.2785069562924 C 227.35103641730328 83.07729611639988 226.64294609111604 82.76513457295093 226.2603972085136 82.58481627962544 C 225.60996459631377 82.27822641034939 225.53011871214528 82.2650435632347 225.0291114058807 82.381556088313 C 224.18329087056327 82.57825441402127 223.5478736985748 82.7508285236157 223.3156073025496 82.84691650305217 C 223.1978385644615 82.89564771518167 222.9416400790181 82.96768537338724 222.74629156650468 83.00700237743146 C 222.55094305399126 83.04632430780121 222.26186627196958 83.1475011815088 222.1038790122655 83.23183987455943 C 221.94591145786353 83.31617856761005 221.69488561422523 83.38549196779829 221.5460514673534 83.38586144221293 C 221.39720746783053 83.38618165337229 221.18039988131426 83.45085938123805 221.06424697799957 83.52947861034991 C 220.83756703512387 83.68290409261445 219.62975024730952 84.19754746794234 219.2000465767468 84.32380426491632 C 218.82255210413672 84.43471555786853 217.68043279357258 85.16827006071341 217.54621012821875 85.38601857540564 C 217.3875036249875 85.64349297916097 217.65193892671482 86.3381245840039 218.45992528197218 87.78616378357222 C 219.94351777288085 90.44499527157419 221.6953979520802 92.22761079574687 224.50950229441997 93.9418735532094 C 225.26511195665665 94.40216970530514 225.20314863415717 94.38436103851905 225.42879404867185 94.20608224396241 L 225.42879404867185 94.20608224396241 Z  M 224.7661342965099 93.6099180337863 C 224.6081568894569 93.47149321275651 224.58407701027278 93.38834669048381 224.6709576872962 93.28122374186316 C 224.73491124530926 93.20235327014933 224.85362583789885 93.13782333204944 224.93474271405375 93.13782333204944 C 225.0158694428597 93.13782333204944 225.08222704773073 93.12493606446647 225.08222704773073 93.10918167542582 C 225.08222704773073 93.09342728638516 225.30387228591613 92.56340884908235 225.57474136878386 91.93135635742993 C 225.84562030430268 91.29930879210306 226.25251508766775 90.2891361844985 226.47895856691807 89.68652834053088 C 226.7053921935173 89.08392049656328 227.2084685565039 87.80200684647238 227.59689947178757 86.83783626665442 C 227.98617771506215 85.87157692481233 228.28913688242358 84.96195062124767 228.27194400632857 84.81108682825803 C 228.2380016234361 84.51332986065486 227.72402822838012 84.20133088594835 226.97994616788048 84.02681087777009 C 226.63134952082157 83.94504865297094 226.43975486836098 83.99074524857478 225.58806215301337 84.35879102882085 C 225.04486579492138 84.59353044026142 224.28725604452006 84.89711525096499 223.90449040359437 85.03342667834298 C 223.18993673831352 85.28788617087477 222.7463999456663 85.48933347439265 220.7995160967405 86.44362677152566 C 219.2847990811418 87.18609299725188 218.88923484649266 87.4806774112146 218.87250504499733 87.87870480862807 C 218.86871177434026 87.9690930294279 218.74300179949995 87.84583143837534 218.59317253487134 87.60479125658361 C 218.2684193033711 87.08237906589703 217.5858769013755 85.65251800752947 217.63650967515906 85.60069798929351 C 217.65610659811205 85.58064291806635 218.036507602784 85.64125150104542 218.48183757792367 85.73538372924703 C 218.92716755306333 85.82951595744863 219.42384954551372 85.90652920443816 219.58558081261958 85.90652920443816 C 219.74730222707439 85.90652920443816 221.07491739909463 85.37651076713533 222.53584879257144 84.7287088127678 C 224.768213205883 83.73882774001578 225.18758144548661 83.5174091128047 225.163925230298 83.34109592213402 C 225.1484368628359 83.22571645192731 224.98027181458963 83.05315219498394 224.79022402834502 82.9576208903322 C 224.26457524178613 82.69338756795153 224.36965376531242 82.58910218283538 225.1090065533045 82.64126704385833 C 225.64758201805063 82.6792687189864 226.03568779584938 82.81400372219522 227.09768534801543 83.33167678772323 C 228.26019964626823 83.89834216063375 228.44172488934825 84.02408661975275 228.62340777484516 84.38851155073525 C 228.89265117028845 84.92857969211653 228.88837511972957 84.97719267243333 228.4938355607904 85.86398545717266 C 228.3091673220231 86.27908257254293 228.022937956157 87.02608101775553 227.85776811383215 87.52398966526255 C 227.69260812415834 88.02189338644405 227.46495276882797 88.56424241654511 227.3518640399921 88.72920535319777 C 227.23877531115622 88.89416828985043 227.0839408997905 89.22635042024785 227.00780946507058 89.4673955283651 C 226.9316583250486 89.70844063648236 226.7375709518705 90.20148207436708 226.57651951768761 90.56304481021743 C 226.2590375426677 91.27578558770372 225.73346757731724 92.5354519517072 225.50979269301405 93.1197683489869 C 225.38266393642147 93.45185195287377 225.13484020437681 93.79521684222127 225.02228351869803 93.79521684222127 C 224.99772085961212 93.79521684222127 224.88245469489257 93.71183385632318 224.7661342965099 93.6099180337863 L 224.7661342965099 93.6099180337863 Z  M 242.26328981413073 93.38573573795364 C 242.43809554918965 93.3593601910732 242.72718218386237 93.23208364471478 242.9057023683699 93.10289568405125 C 243.38129968755763 92.75872287731706 244.84386662110995 91.34412850176281 245.3392382109697 90.74918109399226 C 246.12340085597052 89.80737603207442 246.1494118547618 89.77058130670086 246.9502451853516 88.47055848396661 C 247.7294125362663 87.2056948465304 248.85133883848852 84.48155998732054 248.85133883848852 83.85454220035844 C 248.85133883848852 83.73802474895462 248.74293011890484 83.58533821551937 248.61043166748607 83.51523660324656 C 248.28772778740574 83.34450001307431 246.93516077658285 83.06498030257825 246.07082710992867 82.99041051305093 C 245.6862781391616 82.95723171061542 245.03436762930318 82.85395129590711 244.6221622670182 82.76089300667076 C 243.72301918417855 82.5579234685645 242.8004662024267 82.41260671812013 241.99226308884607 82.34665307194246 C 241.6646821464924 82.31991790329843 240.78375661545772 82.19742974535386 240.0346398502678 82.07444895485644 C 238.81612308340522 81.87441058043973 238.64049957830855 81.86783393585898 238.36800480801634 82.01203241040832 C 237.99696382184885 82.20838589332959 237.96050901293677 82.29513848588927 237.69848761071847 83.60566423465062 C 237.39552844335705 85.12081476689585 237.34402863628046 86.36253452699842 237.5655950532574 86.80956408444547 C 238.20850024004943 88.10665081716462 241.7179751360614 93.49105565143083 241.89192369047834 93.44719164892365 C 241.92135355918657 93.43976275002643 242.0884840790718 93.41210635850854 242.26328981413073 93.38573573795364 L 242.26328981413073 93.38573573795364 Z  M 242.07130105562786 93.17529789034595 C 242.03254072636838 93.13564589616577 242.05532990826396 93.03601588867417 242.1219338294114 92.95389404211144 C 242.2012969336781 92.8560424381357 242.22382994664616 92.4896568295928 242.18731602182777 91.89075850874826 C 242.13619061549133 91.05207129279628 242.09753866539347 90.9266913817664 241.71732486109164 90.36586863093288 C 241.126402261278 89.4942587814729 238.9588978498768 86.65544891660691 238.7078424482853 86.42432542810437 C 238.41935682532704 86.15872258722676 238.19962300144678 86.27604302969175 238.07837627753543 86.76041413464603 L 237.97673632922817 87.16653055857758 L 237.77437272916194 86.7418615927051 C 237.598877308529 86.37359412781025 237.5886995199868 86.25332774267912 237.6976698406807 85.83637832891006 C 237.7667861878478 85.57192824820615 237.82333055226576 85.15187524935403 237.82333055226576 84.90292338876328 C 237.82333055226576 84.65397645449806 237.93081312265002 84.0074060815127 238.06217851919723 83.46610635874924 C 238.3721232161583 82.18900572869985 238.47420653376315 82.11085942683874 239.61672980302063 82.27617705892946 C 240.07310459999556 82.34221445264113 240.71149727260334 82.42409490925296 241.03537361815944 82.45813581865599 C 241.63588284745185 82.52124697500363 242.29896626360926 82.6262368246704 243.44440591757973 82.83957627801448 C 243.7977318371462 82.9053821344263 244.35180552200546 83.00569197484084 244.67568186756156 83.06247772920969 C 246.24894333574284 83.33833717983796 247.80161276321434 83.6928503438568 247.90646960209182 83.80015064019652 C 248.0449978759577 83.94190565728366 247.93624431358705 84.30667050472763 247.78413416023864 84.21047414612954 C 247.6449753167051 84.12246041423452 246.27450111258554 83.85606936127232 244.94335869148676 83.65828724394774 C 243.5031178652303 83.44429751563388 241.04776825318956 82.99248449609851 240.53815958255197 82.84768008350912 C 240.31107568098292 82.78315999806028 239.90197390378103 82.73009361946558 239.62903576419123 82.72975862932962 C 239.04228083577485 82.72902953315139 238.86179012105586 82.93686628087995 238.61824243957005 83.89371634096233 C 238.40807553986645 84.71943746812286 238.41068649239662 84.73246267282065 238.9033781611688 85.31499574025898 C 239.14407842649905 85.59958956604956 239.76284461820066 86.40378265064987 240.27840429007688 87.10209422066272 C 240.79397381460416 87.80040086435005 241.34234281450122 88.51965917051075 241.4969998781479 88.70044053843594 C 242.3428105608143 89.68911466143345 242.75897668882433 90.21050217641005 243.06178806641992 90.66089641419318 C 243.44810066172624 91.23547346590271 243.73290139318902 91.42756075091617 244.04717140396428 91.32549221228788 C 244.48884604556167 91.18203761289337 244.19592672962764 91.60265713918128 243.28379785269442 92.42162920036756 C 242.4014436872564 93.21389072453745 242.21951448548307 93.32697452704781 242.07130105562786 93.17529789034595 L 242.07130105562786 93.17529789034595 Z  M 233.59413920181885 84.40403932880157 C 233.71191779255804 84.37504297673989 233.9407751713174 84.22362250896552 234.1027231967465 84.06755651621762 C 234.53565853685606 83.6503213755679 234.51674144682602 82.99804631762036 234.05624824170914 82.46579132852753 C 233.40682059991718 81.71514740242372 232.4541677691852 82.077557466265 232.14117860304742 83.19432097933317 C 232.01781355915875 83.6345226495975 232.2473212128879 84.07241879951441 232.72229781505902 84.30306443444067 C 233.09681678704976 84.48492959398214 233.21163958247172 84.498225746584 233.59413920181885 84.40403932880157 L 233.59413920181885 84.40403932880157 Z  M 230.00737025826223 82.75715885192002 C 230.35178938127285 82.69409695882767 230.5003673592172 82.56469223984087 230.7010954192079 82.15295980480667 C 230.90580395022576 81.73302996409276 230.90989280041455 81.20160259768875 230.71065249073348 80.91051094852585 C 230.475410594089 80.56683570067005 229.76426594607398 80.38519222577736 229.31084694441626 80.55297794695794 C 228.66807969473905 80.7908258698071 228.50225957744442 81.8274971824303 229.01698177398075 82.39015252636051 C 229.33624707884204 82.73913835313618 229.5907213503504 82.8334430027313 230.00737025826223 82.75715885192002 L 230.00737025826223 82.75715885192002 Z  M 218.06927752020064 82.35504753064328 C 218.81915293952196 82.19328177925874 220.96987828617256 81.5620815419228 221.28132058609435 81.41237543543238 C 221.39909917683352 81.35576702878258 222.2904389600358 81.08264168882269 223.2620778493552 80.80543735132508 C 226.1144203304484 79.99168226887366 226.90239595140838 79.57856553636589 226.90239595140838 78.89691479929097 C 226.90239595140838 78.55620519940342 226.47166760513565 76.67661003087358 226.24899769124028 76.04567581511618 C 225.97494620208101 75.26912926938272 225.67970166049747 74.91533042256552 224.8219692700517 74.33572359249122 C 224.34679561485945 74.01462569453327 223.7652921494566 73.60737128940461 223.52975467328037 73.43071818227244 C 222.7345866170486 72.83437169805177 220.85896699322035 71.691286827684 219.9306206526468 71.23726188798625 C 219.21263826479802 70.88611340430347 218.93380823987596 70.80135597358291 218.67257504974225 70.85482138454545 C 218.48797577953238 70.89260137502473 218.33694449147475 70.98737895187058 218.33694449147475 71.06543657987217 C 218.33694449147475 71.14349913419929 218.17095687911217 71.5440931472132 217.968090793842 71.95565316085391 C 217.39354330008564 73.12116759135367 216.7580670121908 75.3002045308175 216.51966241455693 76.92219721112826 C 216.31568297971728 78.31001700743425 216.38408008335716 81.8938646399524 216.62207086964668 82.28791649266427 C 216.74056870391303 82.48411725949413 217.3417282081752 82.51200518831186 218.06927752020064 82.35504753064328 L 218.06927752020064 82.35504753064328 Z  M 217.32856506636261 82.00524886015538 C 217.2354082506157 81.96867089310507 217.1592078473384 81.85249335816273 217.1592078473384 81.74706999184944 C 217.1592078473384 81.58969359651093 217.29255362674814 81.54271615626963 217.9044032574075 81.4845214727996 C 218.31428339404295 81.44553945889132 218.75994835931854 81.36784145265332 218.89479174168898 81.31185868934566 C 219.15368000087102 81.20437119263585 219.3933358851892 81.13330402055942 221.87019383448808 80.42953408186082 C 225.83434887149312 79.3031691603373 226.04584587908948 79.21209125396348 226.04584587908948 78.6314055585984 C 226.04584587908948 78.43634769929116 225.97276876619736 78.02490099113763 225.88343477906068 77.71708446680492 L 225.72102367903187 77.15741940247064 L 224.57184987031064 76.57446759736237 C 223.9398023049838 76.25383770032965 223.03724035222723 75.76713151707479 222.56613584192164 75.49288297489437 C 222.09504118426707 75.21863935903949 221.0076139397221 74.63917539240552 220.1496352329999 74.20518581863283 C 218.8858356818779 73.56592118640648 218.4945474977876 73.41611655340552 218.08857886362193 73.41611655340552 C 217.81297065559562 73.41611655340552 217.5874730308468 73.37029187333792 217.5874730308468 73.31428447840261 C 217.5874730308468 73.09683646956762 218.5448452814352 71.11524665729243 218.64990409965935 71.11524665729243 C 218.71107921007425 71.11524665729243 218.79337840435602 71.2508339148177 218.83277915593425 71.41655550560176 C 218.87217990751242 71.58227217006032 219.03639404268472 72.01368527558151 219.19770164579512 72.37524801143186 C 219.55130343959115 73.16784945206324 219.69692562221832 73.26633162570664 222.76226271386858 74.78591092460215 C 225.0716847110994 75.93075941950917 225.18930565942165 75.9505139848791 225.18930565942165 75.19353973047097 C 225.18930565942165 74.81343923165628 225.19317775128718 74.81005484601809 225.4034333248503 75.00480727314255 C 225.52121191558948 75.11388104667256 225.61757084293004 75.24965550456793 225.61757084293004 75.30653485912181 C 225.61757084293004 75.3634142136757 225.68787936087506 75.56531473914224 225.77380433074592 75.7552048829699 C 226.17230465541013 76.63585453977498 226.48551057987117 77.69895558885946 226.54624232098848 78.37706922420482 C 226.6068262723399 79.05344879296408 226.5905595454443 79.14394539292553 226.36417518210033 79.39054739623913 C 226.227459796029 79.53947514329599 226.0710489604941 79.66132287892182 226.01660321075136 79.66132287892182 C 225.96215746100864 79.66132287892182 225.76578427278525 79.72856722238802 225.58021944277175 79.81074818485709 C 225.39466446540928 79.8929340736517 224.6405819640865 80.12153528348357 223.90449040359437 80.31875579969787 C 223.16839884310224 80.51597631591218 222.51795637825137 80.71329535863707 222.45907693553283 80.7572381823527 C 222.40017778751218 80.80118100606833 222.2315496646662 80.86168613621132 222.0843313525678 80.89169238500637 C 221.689693267118 80.97213928088937 219.17500113775907 81.7333649542287 218.9258275925195 81.8478133489105 C 218.80804900178038 81.9019093295407 218.6394208789344 81.9705330441549 218.55108200955448 82.00031268197566 C 218.31662832499458 82.07935557508299 217.52541118183677 82.08254783402555 217.32856506636261 82.00524886015538 L 217.32856506636261 82.00524886015538 Z  M 236.8061822677126 82.05726593141247 C 237.16160680195424 81.8759870046089 237.42964817396853 81.41135075972244 237.41463273375717 81.00257412000542 C 237.39516389526793 80.47271332511951 237.07953421864678 79.96720828364728 236.70400042359717 79.86443035414288 C 236.32176682582855 79.75981983154182 235.54372267713438 80.07844964040993 235.36993176513437 80.41076970792216 C 235.04370063597554 81.03455582533746 235.4075885974754 81.87388838993368 236.08809150070218 82.06729593018882 C 236.54984584515438 82.19852831594676 236.5286527927301 82.19882389547847 236.8061822677126 82.057270857738 L 236.8061822677126 82.05726593141247 Z  M 249.14810068833486 80.84132070647584 C 249.48928321547317 80.67305713171899 249.53089096088823 80.3899609088891 249.4642229975089 78.69061999145288 C 249.40797421262266 77.25723168400678 249.17888529656346 75.81886778777675 248.78445904311144 74.42277669090814 C 248.51056027004356 73.45329060584476 247.8066770258578 71.66071897777866 247.53089147011244 71.23031576899083 C 247.393811535952 71.01637530393226 247.14665778417918 70.61946618241379 246.98167514222445 70.34829413052603 C 246.64033989899474 69.78730634778728 246.20287233939882 69.3719407476757 245.94724530771674 69.36614985201675 C 245.78749442347342 69.36253392907872 245.1896651152686 69.85502608166699 243.91504735328567 71.04030739335049 C 243.64391224883934 71.29243673390722 243.21781464856358 71.67129087236316 242.96816817607328 71.88220657354715 C 242.34814084503634 72.40603754598598 242.09895744714572 72.6478314555836 241.78242132662734 73.03282379564824 C 241.63387290663616 73.21350171073732 241.03363955157337 73.8050696591952 240.44856942648778 74.34741868929626 C 239.86351900670434 74.88976279307178 239.1242844505249 75.59698115964045 238.80583691570138 75.91900520679779 C 238.2736262635383 76.4572013444782 238.23178205449784 76.53560874159231 238.28789290226928 76.88944699901373 C 238.35213218716297 77.2945535262119 238.38056693811438 77.33590510269946 239.62394194359462 78.83249816667822 C 240.53681962200818 79.93129044421784 240.6900874618558 80.04807884352574 241.50379820737749 80.26497017757598 C 242.11834746442656 80.42877050140387 242.30569562428144 80.449933995875 244.86395617661583 80.64451400160594 C 245.64471965700184 80.70390085585392 246.5842389038744 80.80242736642708 246.95178219891653 80.86346946605269 C 247.80714995310854 81.00552006267155 248.83620516646448 80.99514029478267 249.14810068833486 80.84132070647584 L 249.14810068833486 80.84132070647584 Z  M 248.6947949921643 80.00062354970817 C 247.80952444201336 79.12492977638492 247.79893284212676 79.12279667743101 244.63846840451808 79.18304071232097 C 243.09843007570208 79.21239668614625 241.72284234568372 79.26083231874401 241.58163415073028 79.29068092512216 C 241.32802691251493 79.34427934687396 241.32993832682007 79.35025990606576 241.73719765827423 79.77704719191554 C 242.1852568177568 80.2466146886562 242.171886770272 80.28843919239452 241.64756809160582 80.05718761942822 C 241.02186563355986 79.78120501066172 239.3747979563082 78.00246157835457 238.9561489602318 77.15056195733474 C 238.57784657023507 76.38077433022659 238.58230982116402 76.37121233237546 239.88430810043525 75.1621885948066 C 240.54683976813345 74.54697428381115 241.53979979434092 73.62202218152683 242.09089797858087 73.10674331020576 C 242.64199616282082 72.59145951255915 243.26834889583654 72.03701142695971 243.482781993448 71.8746348112096 C 243.6972249437105 71.71225326913395 244.0653988084203 71.38848037641395 244.30095598989863 71.15513018877246 C 245.2975812022994 70.1678206579464 245.84721134153182 69.88813098921958 245.9984101246574 70.29135073374027 C 246.03304219312386 70.38370948475155 245.94425010179532 70.48123102491687 245.76662650853402 70.54590875278262 C 245.49690033318893 70.64412736801026 244.6665780179846 71.38261804903485 243.30441945135738 72.73581562952543 C 242.98347919581636 73.05465234406573 242.59459505858405 73.38270621367015 242.44023357446906 73.46482806023289 C 242.2858720903541 73.54694990679562 241.91150090812926 73.87773296074292 241.60829542449136 74.19990972399164 C 241.30508994085352 74.52208156091484 240.87450938434665 74.93359231130026 240.6514650697111 75.11437367922544 C 239.821349660179 75.78720629360407 239.21521456713288 76.40624343320975 239.21521456713288 76.58120681068559 C 239.21521456713288 76.83162178995835 240.15013262596165 77.90152116827237 240.48918205414606 78.03912821926438 C 240.92100404468613 78.21437732362088 248.14032720126278 78.22767840254826 248.73927478536257 78.05432100719477 C 249.0015277248807 77.97842110977473 249.23716865389304 77.93789222965046 249.26294318905897 77.96425792387984 C 249.3279460544096 78.03078795014437 249.3666916046925 80.12288017035289 249.30602390580708 80.29132109282878 C 249.23175462213703 80.497551858435 249.16510143773428 80.46585095365808 248.6947949921643 80.00062354970817 L 248.6947949921643 80.00062354970817 Z  M 229.75865978762238 78.9276550705898 C 230.08943298891862 78.86176054031846 230.54270420081048 78.21018502059599 230.54270420081048 77.80058568451568 C 230.54270420081048 77.38100561291432 230.28946151068425 76.85756382019227 230.01330155419873 76.70631577381138 C 229.32693632359286 76.33042235699817 228.29427011362446 76.957735723492 228.29427011362446 77.75056377509769 C 228.29427011362446 78.13532457786249 228.57680473534407 78.6046063477225 228.94094886577142 78.82473427764506 C 229.23742498873713 79.00394907405213 229.32214793517903 79.01461456882167 229.75865978762238 78.9276550705898 L 229.75865978762238 78.9276550705898 Z  M 236.73995274730532 77.88748114051569 C 237.21265338708218 77.39271056237041 237.2085645368934 76.81019227390868 236.72916409439756 76.35192084160524 C 236.42089434811624 76.05723297480642 236.3294420410022 76.02782773772586 235.8636875202207 76.07362285984027 C 235.1574889030365 76.14306434449223 234.89680746136202 76.41913070079272 234.89680746136202 77.09760395790167 C 234.89680746136202 77.53951013679891 234.94589336892955 77.65875677254562 235.2375416928772 77.92542862606294 C 235.72634156448174 78.37235473067389 236.29030731100255 78.35811272357054 236.73995274730532 77.88748114051569 Z  M 233.0009701975642 76.5409685837675 C 233.35250293463818 76.35744325252287 233.49340569740886 76.20141667037919 233.60478006496078 75.87232827241375 C 233.78716248868278 75.33347200711252 233.7333768665609 75.15928698907021 233.2506560806587 74.72557328952713 C 232.91815866542743 74.42682120416717 232.80504037863835 74.38613468162598 232.44446290789375 74.43562454788689 C 231.96043171940096 74.50206097396637 231.69711961989415 74.7125037478996 231.4610599532119 75.22157544905457 C 231.30527968734467 75.55751636583037 231.308432535683 75.61714953635479 231.5061653897523 76.07458841964387 C 231.68515850151056 76.48868056460631 231.78385250715172 76.58331527801184 232.13058700316083 76.67337836132678 C 232.47600124392824 76.7630966018547 232.61638181619287 76.74174098068798 233.0009701975642 76.5409685837675 L 233.0009701975642 76.5409685837675 Z  M 229.30898479336645 74.44989118661789 C 229.48429301362927 74.35634519115419 229.66312848297065 74.2210633658117 229.70640132641438 74.1492621712315 C 229.8381312710507 73.93062691794412 231.10928089986146 72.12286742827317 231.47615421463172 71.63240245863994 C 231.81415926180404 71.18053524952376 231.81978512555776 71.15412521836461 231.77052187027118 70.24815424834222 C 231.74291474200857 69.74017865461738 231.67105935784755 69.02487865101895 231.61085965988735 68.65860388480044 C 231.5506698145782 68.29232665541915 231.48606598159537 67.67216631359294 231.4672966813312 67.28047170764654 C 231.44852738106698 66.88877710170016 231.40261402713992 66.49434345875983 231.36527247963267 66.40395277479723 C 231.32792107947438 66.31355962767188 231.27297284452771 65.99308244673054 231.24314886977723 65.69178098790951 C 231.1865355368019 65.11968187794088 230.93507617651704 63.79445351063926 230.74940296734192 63.0896096329754 C 230.65408842101345 62.727709443826335 230.60021412503204 62.67719490185547 230.29750127394703 62.665765826628984 C 230.1084781634124 62.658630044100725 229.9198885695243 62.65788863210866 229.8783892032709 62.66410319176306 C 229.83690954231957 62.67032514090576 229.63373802486666 62.69689527764458 229.42691117387147 62.7231476663868 C 229.2200843228763 62.74939759196626 229.00974992810467 62.79687751741147 228.95950140771237 62.828654780234075 C 228.90925288732004 62.86043204305668 228.75106857459483 62.90889477044486 228.6079785232894 62.93634671945331 C 228.17188048219046 63.02001789539481 225.90276568043512 63.90869253648608 225.61757084293004 64.10750671900891 C 225.47036238348267 64.21013932191022 225.0989667018771 64.42348123841705 224.79227337976494 64.58160397207317 C 224.48557020500175 64.73972670572928 224.02785544748303 65.01900995259999 223.77511524256073 65.20223477798737 C 223.52239474294055 65.38546206653753 223.14697917970364 65.64979637859152 222.9408715722356 65.78964490769907 C 222.7347639647676 65.92949343680662 222.10842108440292 66.48205720289135 221.5489875573685 67.01756602999586 C 220.33632326523394 68.17837828277852 220.25171855060478 68.42957162148481 220.8791747805389 69.00611920340582 C 221.09229747555975 69.20196527479763 221.30841537650198 69.36220632843106 221.35941269837465 69.36220632843106 C 221.4104198728984 69.36220632843106 221.55866286070676 69.47981496093949 221.68884593912708 69.62355775037744 C 221.81901916489636 69.76730053981541 222.07643937907088 69.97684425933966 222.2608711542128 70.08920881832282 C 222.44530292935468 70.20157337730599 222.98391780470502 70.57822791141339 223.45779090995774 70.92621862043228 C 223.9316541625594 71.2742093294512 224.5854563814208 71.71794810144509 224.91071209812498 71.91230642252725 C 225.23595796217802 72.10665981728388 226.109198425388 72.70941545101735 226.85124098711879 73.25176448111841 C 228.04949085075646 74.1275321493246 228.77430112578799 74.6014742231347 228.9366826678636 74.61539109275316 C 228.96613224187394 74.6179084450983 229.13366672045254 74.54343718208158 229.30898479336645 74.44989118661789 L 229.30898479336645 74.44989118661789 Z  M 228.27742208031643 74.00980282184071 C 228.09732547163975 73.91450305448882 227.6707056808579 73.63100287296558 227.32935073232613 73.37980460793376 C 226.9880056364454 73.12860141657642 226.4043641457631 72.70120326636108 226.03237730509414 72.43002875131054 C 225.6603806117741 72.15885423626003 225.19069488322071 71.78907438942787 224.98861701003517 71.60829302150267 C 224.78654898950066 71.42751165357751 224.4603769762482 71.18098847147239 224.2637968823526 71.06046591741375 C 223.3493821903741 70.49985992490349 221.32459342953808 68.999490832407 221.22470725311902 68.80850458114921 C 221.1469402783236 68.6598009819039 221.14787628017405 68.5289257547468 221.2277812802489 68.37612345266163 C 221.3733443469697 68.09777867080413 221.55321434467209 68.09509874971656 221.62353271526814 68.37023156732936 C 221.65348477448237 68.48751013602737 222.11874666271098 68.91287125063661 222.65740094866555 69.31547274130344 C 223.1960847925733 69.71807669513305 223.6849831906884 70.10758893887025 223.74388233870906 70.1810503051536 C 223.80277163407862 70.25451413459973 224.01505685375957 70.40140238288772 224.21562727133337 70.50746617151975 C 224.4162075415582 70.61352996015177 224.63302498072554 70.74325981662345 224.69744161333827 70.7957498151313 C 225.0597925612732 71.09102884099356 226.3271095088227 72.02655283786237 227.06631450704896 72.5444377353881 C 227.53557657160684 72.8732108485197 227.9436241151456 73.17347038949143 227.97306383650488 73.21167897029171 C 228.00251341051518 73.24989247741752 228.20650269800586 73.38418903765427 228.42637445900095 73.51012069714336 L 228.82615562830262 73.73908645506435 L 229.22694176801218 73.29580090501909 C 230.11695144332168 72.31145702216126 230.1304298699681 72.23711384360828 229.7475262919276 70.42650693778177 C 229.60461358834124 69.75075301236464 229.42843833478534 68.75412533680111 229.356011496863 68.21177876986283 C 229.28359451159173 67.66943220292453 229.1847133055805 67.17257532591788 229.13627767298271 67.10765620810122 C 229.08785189303603 67.04273709028455 228.9991287702649 66.63548268515589 228.93914583062792 66.20264094523138 C 228.87916289099098 65.76980166846963 228.78703075095405 65.32987340927215 228.73441759430796 65.2250264230457 C 228.68180443766187 65.12017697365651 228.55877438390917 64.75089222253999 228.46103608542057 64.40439172699351 C 228.36328793428095 64.05789369460979 228.24680989348136 63.77439351308656 228.20219708949384 63.77439351308656 C 228.15757443285523 63.77439351308656 228.02909586306782 63.705580134939495 227.91669681980596 63.621475442351475 C 227.72419572344808 63.47743707338179 227.73700416982263 63.45781551880115 228.13714003456235 63.283539363736566 C 228.37078580173556 63.18177625729107 228.65830586489017 63.079971277078585 228.77607460297827 63.05730279015846 C 229.41500917139422 62.93433185231209 230.27976650204386 62.81532906967905 230.31152159640158 62.84600776190877 C 230.33160129925642 62.86540024235234 230.28342183558613 63.00163777484738 230.2044626900128 63.148760023598 C 229.45652824294976 64.54231159965659 229.4473751301175 64.5683570827266 229.5070427849206 65.13644370055215 C 229.6458961962714 66.45863006183981 229.9008729529837 68.02643808766088 230.0443275523782 68.44019524248736 C 230.12968106848774 68.68634895017783 230.25411019869063 69.25334685006155 230.32083235165075 69.70019413346402 C 230.431920992322 70.44413825684885 230.6078400769504 70.78655729169483 230.8789456234435 70.78655729169483 C 230.92358798538422 70.78655729169483 231.10687685300348 70.62631870122416 231.28625421815298 70.43047016666958 L 231.61238682080125 70.07438304164432 L 231.61232770489488 70.51264373965037 C 231.61228829429066 70.75368884776762 231.5281860648654 71.08077715756842 231.4254426196397 71.23950336610179 C 229.51882655558518 74.18509626312697 229.17703809040685 74.4858730682792 228.27741222766537 74.00980282184071 L 228.27742208031643 74.00980282184071 Z  M 238.82644866171327 73.10561025533417 C 239.7171283172947 72.30826968954423 242.16457610318747 69.85065396776031 242.33451462862408 69.5829648280213 C 242.43071591354771 69.43141873894595 242.78002195148275 69.02056565301861 243.11075574217477 68.66995906514398 C 243.4414796802157 68.31935247726938 243.71207288885387 67.99419036075028 243.71207288885387 67.9473779524142 C 243.71207288885387 67.90056308091536 243.80843181619443 67.7730205129784 243.9262104069336 67.66394920261114 C 244.28089599234593 67.3354815216623 244.1906949719162 67.03059862418193 243.5662536532056 66.44723547089202 C 241.13735840925375 64.17814776392711 237.40314454262435 62.604056209894246 234.27888859765133 62.53231905754593 L 233.49820393847378 62.51439215894713 L 233.4030273292601 62.95265285695317 C 233.3042939130147 63.40723447143565 233.3178018976143 63.75990026338125 233.6086718621284 68.32134024962019 C 233.70473520993727 69.8278598595392 233.77846259779915 71.45490202351685 233.77250174390946 71.93698731342583 C 233.7646688863189 72.56971963800117 233.81280893938495 72.9138628867822 233.94557341238232 73.17433249645896 L 234.12948299701816 73.53515628348 L 236.25680829740764 73.51836243975282 L 238.38414345044822 73.50156366970009 L 238.82644866171327 73.10561025533417 Z  M 234.30389462603478 72.99199440966672 C 234.08692939710164 72.76995506543904 234.02353744019885 72.20693517341972 233.91374934946717 69.5265559375554 C 233.88165926497348 68.74316672566262 233.8099812285315 67.11612456168498 233.75446153982352 65.91090887374976 C 233.6561813455268 63.777240929242126 233.67984741336647 63.2439218538351 233.87430918728472 63.21013218703403 C 234.2126196666398 63.15134388133779 234.23682763028762 63.19171511904514 234.24550781586913 63.82917425296524 C 234.26101588863335 64.96799785175072 234.49919387529292 68.93871475435995 234.61024310535993 69.91003343251998 C 234.6688171158957 70.42225059252502 234.7171049587276 71.21728071164202 234.7175483280252 71.67676894635105 L 234.71843506662034 72.5122047874541 L 235.0530113912247 72.58068071230244 C 235.77319092025925 72.72807637211992 236.1754352523253 72.65932457304194 236.59654741116606 72.3168612012662 C 236.82128638178347 72.13409945047852 237.07878541716644 71.87525060190069 237.16875982662185 71.74164372723794 C 237.38940009439938 71.41395440572265 238.7176753940405 69.88696345006929 239.42911562158724 69.14307844259082 C 240.5266319808149 67.99550322650367 241.76499198690692 66.30085217097071 241.8405519678655 65.84307337122013 C 241.87917436001018 65.6092083825609 241.95302983233583 65.41786497270228 242.0046971344804 65.41786497270228 C 242.0563545839739 65.41786497270228 242.2632504035265 65.56577789670024 242.464461243419 65.74656172778819 C 242.66566223066047 65.92734309571335 242.8783514090348 66.07525601971133 242.93710276728956 66.07525601971133 C 242.9958442728933 66.07525601971133 243.2206029488128 66.28154097489838 243.4365730599892 66.53366785229235 C 243.76666642836244 66.91902966677165 243.80270742593012 67.00727247280375 243.66275051766092 67.08742378915501 C 243.5711898313853 67.13986206124481 243.45043574002682 67.15378139402604 243.394423418766 67.11835618714946 C 243.33841109750512 67.0829285171101 242.97617838138288 67.14021675668288 242.58947168003425 67.24566475462382 C 241.92326497349165 67.42732300849309 241.85067064050136 67.48070959824716 241.20640578786342 68.26284013396736 C 240.8324385643319 68.71684044203747 240.2175543171469 69.50738267859786 239.84001058128155 70.01959983860289 C 239.46246684541626 70.53181453544514 239.07310978093318 71.04950976943803 238.97478032338117 71.17003232349666 C 238.43193866072727 71.83534243879302 238.14455653468744 72.25773051594572 238.14455653468744 72.3903127148985 C 238.14455653468744 72.56127098971953 238.6475245185124 72.59185854492696 238.88892432206774 72.43558072018135 C 238.97444533324523 72.38021867389028 239.0807455855026 72.35790241924545 239.12515148381794 72.38598740108435 C 239.29765169852945 72.49508087991649 239.0555622094001 72.793670396534 238.63687380271944 72.98825532859047 C 238.26409874996585 73.1614994184568 237.92027078601868 73.19253526928735 236.35117698923466 73.19457969438173 C 234.68759626881092 73.19675220393988 234.4843557828006 73.17663309048083 234.303924183988 72.99199440966672 L 234.30389462603478 72.99199440966672 Z " fill-rule="evenodd" fill="rgb(2,2,2)"/><path d=" M 40.82175278564838 77.9176115446455 C 40.82175278564838 66.6033543921972 50.00749484917337 57.417612917233086 61.321752726563595 57.41761291723308 C 72.63601060395382 57.41761291723308 81.82175266747882 66.60335439219719 81.82175266747882 77.9176115446455 C 81.82175266747883 89.23186869709379 72.63601060395384 98.4176101720579 61.32175272656361 98.41761017205792 C 50.00749484917338 98.41761017205792 40.821752785648385 89.2318686970938 40.82175278564838 77.9176115446455 Z " fill="rgb(0,0,0)"/><path d=" M 77.60783445167297 78.12038468233015 C 77.92032462393057 69.43444165566848 71.30936834600696 62.012326689022665 61.763383952913685 61.70942539005557 C 52.44328119255614 61.4136919105411 44.92660815836919 69.14058158827211 45.02602455871535 78.39243976335592 C 45.11356146534834 86.5389965202788 51.835200734772485 94.07369190749861 61.37995030947525 94.13364109527795 C 70.8035524828133 94.19282829285926 77.28024704726852 87.22577761539083 77.60783445167297 78.12038468233015 L 77.60783445167297 78.12038468233015 Z  M 52.066841848906336 90.77261629511005 C 38.60823173281517 79.64676836419113 47.99504172607952 61.86371290279013 61.15465453947954 62.0224491757461 C 73.79275036825317 62.42804234067185 78.91946395404594 72.95686983414642 76.93330814589731 81.90028398574164 C 74.80263351969334 88.55729850477694 72.32374010736304 90.38350074923383 66.80218207461068 93.08253706791768 C 60.64146581903445 94.85763680844862 56.65118173652773 93.68206022976614 52.066841848906336 90.77261629511005 Z  M 66.83140310542865 92.487496464243 C 67.05654564978465 92.43011703812857 67.33269430561472 92.2838417350111 67.44507179242487 92.16244172480995 C 67.63556731566295 91.95666638356067 67.64007395212471 91.91484183653272 67.51150862714395 91.54507324413024 C 66.05298080266385 88.68245930531027 64.88626670235485 86.39892216378752 63.26531068652042 83.81251738158905 C 62.84061427963822 83.20482237764618 62.641628253306195 83.21799519939805 61.23259231044901 83.94708797896669 C 59.311710624812335 84.9410360377486 58.9217964381419 85.33028789272184 58.63467862916394 86.54062776029218 C 58.03275423678704 88.46809649094946 57.321922467675535 90.27976058810904 56.89426970727442 92.3403898990913 C 59.71968741042146 93.93443987474012 63.584227322372485 93.31299105945158 66.83140310542865 92.487496464243 L 66.83140310542865 92.487496464243 Z  M 57.557907979358504 92.32751204128706 C 57.90478378781924 92.18278529889461 58.61553443747444 91.53944211422103 58.77561917786865 91.22529433712403 C 59.00886465458288 90.76755945106858 60.08844744554044 85.99420481274224 59.98294708597092 85.8871328997545 C 59.87881674388578 85.78146430009336 59.567381124560214 85.77044560898929 59.38565551587669 85.86600275514286 C 59.0266748818797 86.05478191619797 59.260109637325314 85.61201198133375 59.66447210049212 85.33717708855916 C 60.21446201428384 84.96335274187683 62.410618068277 83.85690498655583 62.60260979482038 83.85690498655583 C 63.7425905276383 84.3121304444811 64.54878272428039 86.7537593236292 65.51834950593377 88.44465802999011 C 66.98979335051325 91.0064579028909 67.08582076024017 91.21314942003812 67.00575585686076 91.64621682868578 C 66.91895803860749 92.11575474179693 66.66693791439363 92.02373269386413 66.66693791439363 91.52249956383551 C 66.66693791439363 91.26995232570947 66.58174445872073 91.0521437961423 66.38921193580194 90.81250346530021 C 64.85330516327363 88.63097692357297 63.776606619651574 84.54171295162428 62.46651838694852 84.35486222910554 C 62.22550346897424 84.35634822172045 61.35030565482987 84.79816846205634 61.16205443654974 85.01339158793107 C 61.00503420894951 85.19289502666352 60.49912821302661 87.1401576258667 59.809802113110564 90.21832317313941 C 59.644525727512416 90.95634755042514 59.48386413765111 91.6272765679277 59.45275933279213 91.70928101451806 C 59.327925502801705 92.03854345935547 59.33424380712107 92.5599458665906 59.46553114052472 92.76328328612126 C 59.542008761280584 92.88173812599689 59.58551582968229 92.99801872404643 59.56219849262921 93.02168511169259 C 58.76419034780166 93.06700676916017 57.59804408368683 92.35789556246775 57.557907979358504 92.32751204128706 L 57.557907979358504 92.32751204128706 Z  M 54.74065630148016 91.48563577410852 C 55.80588996194352 88.47922244167084 57.43464245885677 85.35991389285522 58.2990423720388 82.60545787064835 C 57.15336525073323 81.44055138931364 55.63464678967003 80.85089834683382 54.375023872065626 80.75844949500711 C 51.71295371411111 81.54214635809208 49.634817455778204 81.94765474881508 47.529605325583105 83.48409290251193 C 47.38441952533144 83.71767083040021 47.626335770598075 84.34784342789729 48.36547822996228 85.6614966526985 C 49.72267884023644 88.07358444557691 51.3253108722174 89.69077121451137 53.899681884626304 91.24594628260847 C 54.59091879840213 91.66352361485511 54.53422531171333 91.64736763499658 54.74065630148016 91.48563577410852 L 54.74065630148016 91.48563577410852 Z  M 54.047373374750705 90.64660412136425 C 54.10588754257003 90.57505525288704 54.21447945475232 90.516513847585 54.28869474400439 90.516513847585 C 54.362901019983525 90.516513847585 54.423614426396185 90.50482031472197 54.423614426396185 90.4905302052897 C 54.423614426396185 90.47623786128207 54.62636800081023 89.99540193514676 54.8741699132959 89.42200989756742 C 55.76812434839408 87.1205514616511 56.6606817261891 85.24273499551063 57.34158041592168 82.96251619839865 C 57.310529690700236 82.69239179048462 56.840343295373145 82.40934706783449 56.15966092419073 82.25102293437162 C 55.8407533016116 82.17684843984549 55.665481196341304 82.2183042819389 54.88634684501555 82.55219676692386 C 53.183685510129635 83.1988314811039 51.52207062013731 83.94990354392128 50.50575199182977 84.44355475975074 C 49.120078452390274 85.11711610702832 48.758213571057766 85.38436238187765 48.742909033633666 85.74544964900346 C 48.23450636111096 85.33464978382611 47.90183547077764 84.34527143165701 47.61222098519987 83.67884955265717 C 47.63013937177179 83.66065787464495 47.97813282607504 83.7156418359726 48.385523748944124 83.8010361333853 C 48.79291467181322 83.88643266537333 49.2472917864325 83.95630113317924 49.395226634925834 83.95630113317924 C 49.543179509965015 83.95630113317924 50.75769099658733 83.47546744161927 52.09416107913745 82.88778306003232 C 54.136343391778524 81.98976755606458 54.519984340494204 81.78889487315686 54.498343472204894 81.6289462034067 C 54.48418362044208 81.5242719897811 54.33034507818385 81.3677221091547 54.156479043489625 81.28105633836174 C 53.67561191974819 81.04134673568345 53.771747488750194 80.94673704948285 54.448103488929334 80.99406312104907 C 54.94080504001931 81.02853591514003 55.295837860475814 81.15076942195073 56.267360522353584 81.62039895265167 C 57.330836594596875 82.1344786564295 57.49689713493936 82.24855149402259 57.66310188764862 82.57915691865182 C 57.909407596829 83.06910544310846 57.9054958363802 83.11320925700441 57.54457734870465 83.91770331297226 C 56.636787539668916 86.27007207933352 55.75572208485134 88.19537327189083 54.81474540491129 90.50013217561502 C 54.69844714437943 90.80139986033242 54.471736290534736 91.11289743105152 54.36876866065671 91.11289743105152 C 54.09357541175655 91.09646436384826 54.081939276412314 90.69675693076188 54.047373374750705 90.64660412136425 L 54.047373374750705 90.64660412136425 Z  M 70.14095975038835 90.74141715392267 C 70.300873238597 90.7174893209593 70.56534069271822 90.60202434291644 70.72864317154612 90.48482756896897 C 73.77181253525188 88.25808662939147 75.4706342158724 85.30699021001021 76.16775679686727 82.09474120278853 C 76.16775679686727 81.98903684992159 76.06858375489004 81.8505199924568 75.94737326061487 81.78692397768864 C 72.86808771230464 81.24643829687233 69.42972238399528 80.36580332006083 66.57753526026546 80.4232207339564 C 66.23809540196662 80.60135214341733 66.2047553054226 80.6800561221998 65.9650382987493 81.86896194290941 C 65.68790719617057 83.2435028771415 65.64079481859946 84.36998806972274 65.84348530010304 84.77552774450079 C 67.00133033985531 86.82490373396611 68.2163285432155 88.91441716606198 70.14095975038835 90.74141715392267 L 70.14095975038835 90.74141715392267 Z  M 70.01164632375495 90.34965140166855 C 70.08425725042663 90.2608806608857 70.10486159232974 89.92849651426927 70.07146741614818 89.38517962647084 C 70.02468852967525 88.6243245927239 69.9893384732693 88.51057800313349 69.64150725787866 88.00180094668681 C 69.10093621429199 87.21107857866753 67.11807926403337 84.63571706790209 66.88842106994268 84.42604239264821 C 66.6245034254698 84.18508813149397 66.42349842600292 84.2915209559285 66.31258108940638 84.7309412623269 L 66.21959115265467 85.0993691095129 L 66.03446754007899 84.7141104407094 C 65.7818615531251 83.77066825423212 66.13875110780384 82.70727182781214 66.29775425544723 81.74235537211763 C 66.58129379507456 80.58376826990326 66.6746803158349 80.5128763665821 67.71986845731641 80.66285212649706 C 70.31619580256695 81.02780297442168 73.08261262115677 81.43171364376171 75.303383923504 82.04539507509614 C 75.43011054080836 82.1739971216851 75.3306220342788 82.5049131522895 75.19147512688588 82.41763957699838 C 72.71681795282962 81.9819979375351 70.08979140000166 81.34916842993404 67.73112603519786 81.07433800631019 C 67.19435859278491 81.0736810411541 67.02925345937231 81.2622278063717 66.80645436597642 82.1302776547512 C 66.5944261337241 83.41156975917741 67.56727374672163 84.03771788644971 68.32518184031255 85.04091261807459 C 69.12334321077981 86.14660061777292 70.07798401247187 87.22811051206749 70.87144045447306 88.26945167967645 C 71.22483285925749 88.79070437036242 71.48537052638406 88.96496772987382 71.77286689282481 88.87236916149794 C 72.17692290471221 88.74222972706076 71.90894928742375 89.1238102848204 71.0745365332582 89.86678424653027 C 70.82129961719966 90.16053035058323 70.39283566223543 90.26927819509156 70.01164632375495 90.34965140166855 Z  M 62.67561730550071 82.28798727998985 C 63.07166953103204 81.90947479420058 63.05436404701892 81.31773018918305 62.633110710393495 80.83487197234622 C 62.03900983891418 80.15388960029546 61.16750746666844 80.48266714227955 60.88119183898067 81.4957923268078 C 60.993587352336675 82.74708078786466 61.95378033014961 82.94374576536799 62.67561730550071 82.28798727998985 L 62.67561730550071 82.28798727998985 Z  M 58.92916028212039 81.099197657199 C 59.91591537523888 80.82782635623364 60.064598325384864 80.06000391651176 59.57252770339953 79.42392310176075 C 59.35733581235107 79.11213950539546 58.70676678600606 78.94735521456454 58.2919849793397 79.09956778441564 C 57.402383955063584 80.22241732288487 57.90521642491957 80.84245165197004 58.92916028212039 81.099197657199 L 58.92916028212039 81.099197657199 Z  M 48.00811998509151 80.73440322954963 C 49.607507238820006 80.35731863741591 51.369421829904994 79.72260761736106 52.75852942632832 79.32860058602006 C 55.367862924407476 78.59036280678738 56.088708439736976 78.21558541371368 56.088708439736976 77.59719238023102 C 56.088708439736976 77.28810144717549 55.69467518734051 75.58293832899896 55.4909752192695 75.0105563194827 C 55.240280046175386 74.3060718010748 54.970179296476985 73.98510856912738 54.18551980884912 73.45928840640394 C 52.19803904958074 72.23423832923352 49.83825603893443 70.3907114220044 48.56001169947008 70.30142337702553 C 48.13144859850371 70.46686798487556 48.11312461465023 70.86432184871059 47.859707433133224 71.28902188991975 C 46.738131803625095 73.4518651470554 45.9796198207483 77.8311635933828 46.68419637845089 80.6735021126666 C 46.79259901190177 80.85149721303051 47.342543859328885 80.87679484069005 48.00811998509151 80.73440322954963 L 48.00811998509151 80.73440322954963 Z  M 47.330493113430165 80.41706671341278 C 47.24528163121144 80.38388550388038 47.175572978421116 80.27848728783788 47.175572978421116 80.18284746239596 C 47.175572978421116 80.04007820801957 47.29755861416771 79.99745591758781 47.8572828627168 79.94466407468909 C 49.574049969727994 79.63961101931051 50.404136352890276 79.29227085980429 51.485215347153144 78.98757980563417 C 55.11165162828418 77.96574424634956 55.305130544859935 77.8831185878089 55.305130544859935 77.35632303294048 C 55.270844054658966 76.87376648377736 55.1425040615013 76.48150465579313 55.00798096311813 76.01912520485028 C 53.19661054350192 75.13362220561531 51.62734564788374 74.20385226848303 49.91123650979597 73.34086820244643 C 48.75511300517208 72.76092774177229 48.39715087101544 72.62502422019193 48.02576797347571 72.62502422019193 C 47.773639689986766 72.62502422019193 47.56736192585964 72.58345218017976 47.56736192585964 72.53264128833838 C 47.56736192585964 72.33537521006298 48.443163629289884 70.53768391263444 48.53928117174604 70.53768391263444 C 48.59524458332804 70.53768391263444 48.67052343878507 70.66068834794461 48.706567517206125 70.81102610906801 C 48.742611595627196 70.96136498747909 48.89283581544309 71.35274080633276 49.040401119746576 71.68075188896812 C 49.363887484970846 72.39980025228999 49.49709464550719 72.48913969250215 52.301286090919376 73.86769839323294 C 54.41396121109513 74.90630555788798 54.52157067652874 74.92422685228152 54.52157067652874 74.23750162155352 C 54.52157067652874 73.89267312475283 54.525112892787675 73.88960281820711 54.71745613697509 74.06628287097121 C 54.82520080150255 74.16523210252245 54.91335061069434 74.28840748284773 54.91335061069434 74.34000941436683 C 54.91335061069434 74.39160911131057 54.97766031300348 74.57477390177168 55.05626506616929 74.74704178548589 C 55.42081590283301 75.54596616236697 55.70733883579801 76.51040553622195 55.76289665009844 77.1255897194865 C 55.81831926530502 77.73919964440938 55.80343835170834 77.82130017774026 55.59634037974517 78.04501357269831 C 55.41249665192463 78.29479105466464 55.11123701772969 78.32141713737617 54.87917227976844 78.4262209563727 C 52.60223026056198 79.14300122570336 50.443199877740696 79.73635919413138 48.448869031050464 80.4125863898144 C 48.23438918856296 80.48429391314221 47.510578306441616 80.48719439196053 47.330493113430165 80.41706894798814 L 47.330493113430165 80.41706671341278 Z  M 65.05528359621624 78.4749212917858 C 64.32658752017038 78.25472958759636 63.99386255019952 78.66907684115898 63.83486841582905 78.97055904511102 C 63.53642993605918 79.5364540823549 63.64821254685637 80.36054312966154 64.4918548924956 80.4733579013265 C 65.94611943888289 80.24818644594552 65.94254116953226 79.06907029989155 65.05528359621624 78.4749212917858 L 65.05528359621624 78.4749212917858 Z  M 76.43923657732296 79.36115164530072 C 77.10950861827874 77.72523466569211 76.6476324605871 75.47048667583013 76.10656568698965 73.53826276880507 C 75.4614677173092 71.73209907889608 74.92554752255106 70.04966494400185 73.51106756284807 68.95090356927813 C 71.27084561753195 70.59219079212257 68.94062614207469 73.00655450000596 66.97806708243978 74.89563992969092 C 66.4911971189313 75.38388905958566 66.45290873555228 75.45502229704576 66.5042393248516 75.77602351677432 C 67.17514229491202 77.13586876614615 68.04179552632492 78.17849593187525 69.44618062035359 78.83829006035498 C 72.3264891556047 79.18251969095898 73.77499422059388 79.47884226040294 76.43923657732296 79.36115164530072 Z  M 76.02454490338583 78.59847654992242 C 75.21470233120974 77.80404925595494 75.20500404954404 77.80211076182945 72.31379846732843 77.85676400600371 C 70.90495180320262 77.88339567515364 69.64656370398875 77.9273397169113 69.51737646317628 77.95441606655803 C 69.28538383139842 78.00303930912119 69.28713240634558 78.00846597538487 69.65969604263827 78.39564749628633 C 70.06958364210718 78.821635770191 70.05734361747707 78.85958109439261 69.57770229885324 78.64979022121997 C 69.00529637530079 78.39941945949535 67.4985565539529 76.78574432574038 67.1155645608877 76.01290414704584 C 66.76948192044424 75.31455465529099 66.7735739463515 75.30588115102807 67.96465092337272 74.20905882907367 C 69.25868651699902 72.95847761111851 70.77018534645052 71.67361130340271 72.00503077678822 70.57386503958871 C 72.9167503728186 69.67817796314692 73.41956481612874 69.42444528279198 73.55788250241271 69.79024638664139 C 73.5895641567388 69.87403290708197 73.50832752787933 69.96250533205415 73.34584525688747 70.02118081187783 C 71.34895464068696 71.7912404676825 69.17065388035523 73.45689405890485 67.35255955913811 75.49638987341243 C 67.35255955913811 75.72356127374131 68.20782902684863 76.69417589660583 68.5180027879649 76.81900933184882 C 68.91302750038295 76.97799825148152 75.5173229696161 76.99006160656677 76.06523983063542 76.83279554453723 C 76.3051461160401 76.76393710479441 76.52071656455136 76.72716940180794 76.5442862732463 76.75109053104522 C 76.60376486126846 76.81144194238951 76.63919603713072 78.70938411151695 76.58371032901367 78.86219554756474 C 76.51576827771636 79.04928760422246 76.45478447311599 79.0205263847537 76.02454490338583 78.59847654992242 L 76.02454490338583 78.59847654992242 Z  M 59.41888745314563 76.60260746747127 C 59.41888745314563 76.22196207950013 59.18722831246593 75.74709693872886 58.93458627242035 75.60988507327475 C 57.59759342004065 75.28158573041786 56.92322033990469 76.79145925222562 57.95359066069997 77.53171150114605 C 58.81333972505348 77.86138287327447 59.06659466765787 77.29918829282806 59.41888745314563 76.60260746747127 L 59.41888745314563 76.60260746747127 Z  M 65.08817302911407 76.68143881704931 C 65.52060282416464 76.2325818989023 65.51687132917432 75.70412046810242 65.07830349526286 75.28837772222698 C 63.68174192213178 74.5280500482652 63.08427008657908 75.6969575367834 63.71375706755603 76.71586245048232 C 64.16092356383652 77.12131385953363 64.6768342927045 77.10839242750984 65.08817302911407 76.68143881704931 L 65.08817302911407 76.68143881704931 Z  M 61.66772608737662 75.45988361574317 C 62.48452690624967 74.88045487282665 62.194353597750634 74.34938792715607 61.89614044980385 73.81296135248265 C 60.82882472329517 73.37226622084093 60.12048061751055 73.92210583411752 60.30026837251552 75.03678241320465 C 60.711264604554 75.7338492587024 61.14246859448697 75.8509365384572 61.66772608737662 75.45988361574317 L 61.66772608737662 75.45988361574317 Z  M 60.27282295646347 71.00684529979729 C 60.582023284104 70.5969135671476 60.58716986294331 70.57294998097846 60.54210349832583 69.7510564039638 C 60.33790780024404 67.54661261598014 60.042119222713666 65.20140510500639 59.60797690580765 63.256842152160964 C 59.520782503545746 62.92852744659845 59.471497927200076 62.88269965781164 59.1945831431715 62.872332066103326 C 56.68298957667476 62.866671886714435 53.24026182427042 65.05161425620255 51.191373636574255 66.82027618511904 C 50.08202000515037 67.87336060489281 50.00462303055632 68.10124204154258 50.578615290143304 68.62428574438022 C 53.09464338691842 70.32866396796128 55.61219472681759 72.28994517569039 57.9496879135241 73.71300432744368 C 59.05604913833737 73.17623921460309 59.662011476984006 71.85833247560261 60.27282295646347 71.00684529979729 Z  M 57.34659179566714 73.1636149811023 C 55.03177600363615 71.46595444969962 53.134085469231636 70.24869521952459 50.89471978484323 68.44501023233457 C 50.823587034930995 68.31010668322817 50.82443428258581 68.19137699058318 50.89753192599537 68.05275510807643 C 51.03070303344002 67.8002413885808 51.195240330658436 67.7978107292321 51.25956805951343 68.04741000381341 C 53.42426779100359 69.92923920865803 55.72297686432029 71.45664409145888 57.84858603114125 72.91802062421137 L 58.21522794712321 72.51587638669403 C 59.02940590357552 71.62288085627432 59.04174507420778 71.55543802002256 58.69145323530904 69.91285865397575 C 58.29811400492768 67.8261306200671 57.993213008471656 65.75024251123367 57.27777545689625 63.878076168892946 C 57.236954343825744 63.878076168892946 57.11942126490335 63.81564883703849 57.016606860665036 63.73935009930999 C 56.84050553428577 63.60867799797117 56.8522137758134 63.59087904657862 57.2182608157824 63.43277306353535 C 57.43200156989019 63.340456330976856 57.69502690034365 63.2480985380961 57.80276255159819 63.22753402037265 C 58.387264287413984 63.11597424209469 59.178350238636284 63.008016319976406 59.20740903054164 63.03584767677315 C 59.225769067486794 63.05343992994483 59.181703176163836 63.17703541043794 59.109461793682016 63.31050324487503 C 58.425237206240666 64.57472961794896 58.41688190224059 64.59835857645781 58.47146628306528 65.11372595428729 C 58.57099084268651 66.50871269442679 58.9540549419351 67.94509103261808 59.21592657345434 69.25394941733887 C 59.31754221239383 69.92885262712062 59.47847420044286 70.23949435547654 59.726483418205774 70.23949435547654 C 60.00535408245874 70.05578432862738 60.15732687722179 69.84514990325604 60.39744046790372 69.59341381598598 C 60.45760406466806 69.96678454387006 60.31212082640991 70.31987761764265 60.22643164072623 70.65040818399729 C 58.48223714420885 73.32264300580381 58.1695757197657 73.59550476853481 57.34658278239422 73.16361721567766 L 57.34659179566714 73.1636149811023 Z  M 71.66221995441597 67.40667289265434 C 71.98667975311598 67.10868779914196 71.90416323950139 66.83209764742148 71.33292002815605 66.30287366777972 C 69.11095897378293 64.24436105830796 65.69487445614044 62.81634897026747 62.83677462537281 62.751268638815915 L 62.12260794527961 62.735006795949666 L 62.03553071556571 63.13259501362826 C 62.121931949810346 66.53436506092484 62.22777481375097 68.50279355794547 62.53185560237094 72.40567942006423 L 62.70009735476091 72.73302013009136 C 63.997503912460616 72.7228617505012 65.29489244361446 72.71270225362335 66.59228998804123 72.70254499132086 C 68.46349051332359 71.0449850320553 70.22937094449492 69.13249298410989 71.66221995441597 67.40667289265434 Z  M 62.859659325325566 72.24026050983085 C 62.66116902900434 72.03882918308294 62.60318664428749 71.52805665083909 62.50274273082805 69.09642470321134 C 62.47339551418915 68.38573532767035 62.4078149403978 66.90968824903042 62.35703416074682 65.81631834600846 C 62.26711775006203 63.88066101394154 62.28876763162425 63.39683410868581 62.4666625993153 63.366179365920694 C 62.776160364962294 63.31284787307234 62.7982969632624 63.34947144594805 62.806246669980936 63.92777312491697 C 62.83052842723683 66.80021863668057 63.07818612735572 69.22443514597353 63.23888377030873 71.80499763089122 C 63.890263991216855 72.03019478388883 64.5721090746064 71.91227289023678 64.95700286825844 71.62778463190358 C 65.89039938566984 70.73632425475672 66.65448157121335 69.68139575166646 67.54824672758012 68.74853483816636 C 68.55226223834711 67.70745790909382 69.68512248555545 66.17007341273167 69.75425428887867 65.75477702328455 C 69.78957730546585 65.54261694158564 69.8571498125733 65.36903177569623 69.90440640251119 65.36903177569623 C 70.6505702014828 65.66077625886977 71.16993301388048 66.51251426575934 71.4212050364417 66.88364930099495 C 71.33743567789072 66.93122285178238 71.22697801821329 66.94384987850238 71.17574657491613 66.91171109837579 C 71.12449710507313 66.87957175960534 70.79312412604081 66.9315440719905 70.4393531637936 67.02720512589833 C 69.8299117017985 67.19200561740062 69.7635109201711 67.24043836241428 69.17412399043079 67.94998475265822 C 68.21477826027265 69.18079333053342 67.13382545183072 70.48308429826884 66.37313225690643 71.69441855187472 C 66.37313225690643 71.84951148936588 66.83323279983212 71.8772604461962 67.05408502627654 71.73548669514305 C 67.13231122197956 71.68526237933388 67.22956443682408 71.66501489198974 67.27017824461736 71.6904935202535 C 67.427973613689 71.7894617456953 67.20652651123163 72.06034479194433 66.82350747834766 72.23686954172085 C 66.48248128401428 72.39403616514683 66.16794509880305 72.42219293198049 64.73252730609877 72.42404762952995 C 63.21068123933111 72.42601740771049 63.024755445465246 72.40776763073889 62.85969537841726 72.24026050983085 L 62.859659325325566 72.24026050983085 Z " fill-rule="evenodd" fill="rgb(255,255,255)"/><path d=" M 93.98703715230931 6.4179620395268415 C 119.80926997964116 6.815135989650045 148.3898557444886 6.1640958496016225 170.1348510330331 10.255349719914136 C 183.88017468754924 14.66565654270795 196.68038258146316 23.683797345374003 205.15098258586022 33.999155359433374 C 199.9013126509467 35.6846733301479 126.64465676720329 31.600764985076054 87.39139201350372 30.401579345807164 C 88.72107211807497 22.31048965848069 91.7939204724812 13.136482411647975 93.98703715230931 6.4179620395268415 Z  M 101.72170973363427 35.97783871663803 C 104.43301057186136 36.51425301740221 106.65281047682765 36.46270066998089 108.61677732245835 37.746601729898046 C 108.38029469356616 38.54691389110678 105.60605403421232 38.712697430875664 101.54185257488143 38.55604805810883 C 98.98148509411249 38.197110303930785 95.65178523666327 38.14599079508517 93.86686079481933 37.47681599176927 C 96.13737919642108 36.30351155321837 98.91060141206708 36.301544683808174 101.72170973363427 35.97783871663803 Z  M 267.0014763225781 41.23550343465598 C 270.24725641852547 46.41882176202313 271.5023864437044 51.27035022529148 272.52938507839326 56.08382072026349 C 272.21774130388394 56.973762293009386 267.16157567340406 56.710583708433305 266.72547807783303 55.89400827426971 C 263.4399786772915 52.18463260264771 261.42977448733836 44.56049298995765 261.42977448733836 44.56049298995765 C 254.2748000643487 41.9661094893564 250.1240308898764 41.35570525323904 247.4697628992717 38.18310670295203 C 256.051780645274 36.64453106341679 263.27275022051253 40.006477394756004 267.0014763225781 41.23550343465598 Z  M 155.38493450539409 37.716627658530356 C 157.75709358900895 38.14345741636265 160.8509218837903 38.00899102060079 162.22032129295576 39.215611298934775 L 155.50490717414277 40.71458857406601 L 147.5899700565824 39.45542296569586 C 149.83991589529205 38.26602711656574 152.65652381287964 38.06848722894097 155.38493450539409 37.716627658530356 L 155.38493450539409 37.716627658530356 Z  M 94.40317325121259 54.54218974960561 L 203.84146766669846 58.51695912086761 L 203.04667419733005 65.40653984421735 L 89.89859673273895 59.84187800110617 L 94.40317325121259 54.54218974960561 Z  M 96.94113497041599 76.63548005558403 C 113.8475042044115 76.61077006512969 131.14373368965562 77.46152701622779 148.49271855895086 77.38753708087461 C 167.04855922168736 77.30839127425199 186.26862887048492 77.48879584649731 204.4445900303067 79.39272543556814 C 204.41790680516897 79.71848738597288 204.35944813635615 79.81635982626801 203.93679399772464 80.17292969882601 L 204.46801423558054 80.1093278892898 C 181.9989054709713 80.41747076355401 164.72793338967404 79.18553579381435 137.8791093051368 78.72891655753637 C 122.45722361925937 78.2158373482213 106.73713761581257 78.53224234706298 91.61426700247011 77.18961527685948 C 91.66274492294906 76.85593492662858 91.70266791628501 76.72195865690097 91.72446261162668 76.67314974221685 C 93.4594833118008 76.65000560896289 95.19918885303014 76.63801343430654 96.9427644803477 76.63550551667672 L 96.94113497041599 76.63548005558403 Z  M 91.72262941295276 76.67312428112416 L 91.70592693614935 76.67312428112416 C 91.72262941295276 76.67414272483171 91.72262941295276 76.67312428112416 91.72262941295276 76.67112558534811 C 91.72201834672842 76.67176211266533 91.72181465798712 76.67216949014835 91.72161096924538 76.67312428112416 L 91.72262941295276 76.67312428112416 Z  M 91.72344416791884 76.67112558534811 M 25.411352237186293 4.873390312663432 C 26.832081209211992 1.712071026437485 30.598082350973527 1.5727161008794113 33.66807906299891 0.721666347215411 C 66.84551234622359 1.1413860949144023 99.72983753041672 0.6820488869918933 133.20017522393164 1.9808064944928674 C 138.27630235107972 2.717224043599458 143.02754593552072 3.6151794952691034 147.14470646764357 5.150750725867084 C 142.68758942594195 5.1769183638778316 32.06362284613169 3.6804235452837304 25.411352237186293 4.873390312663432 Z " fill-rule="evenodd" fill="rgb(255,255,255)"/><path d=" M 17.156662298788888 13.56249741451424 L 16.758450809138594 12.043138534685752 C 16.330500763227974 10.282351208710438 16.300762206967647 9.960815799692 12.993671799826188 15.182249382814021 C 9.370049088379801 20.866680205932553 6.111029224234244 27.178064975416063 4.890933662594762 30.76150371732689 C 3.903043266275745 33.66329808577757 3.8602686305589486 44.06206663948491 4.5088135835235335 44.3004843114213 C 4.8017179938137815 44.3004843114213 7.397323626863908 45.03886872993809 7.94117256669324 43.76756454562863 C 8.420044797981063 42.64781751554828 7.252297242909663 39.78790027929723 7.548868050546844 36.8930949807896 C 8.158101076400726 31.057202482539537 9.98559646522017 24.796046083657544 13.609422865408305 20.25302968049739 C 14.613404672306388 18.994424216166394 15.907846624596914 18.27239854970206 15.907846624596914 17.974064561396133 C 17.482971662686396 15.132377467510153 17.156662298788888 13.56249741451424 17.156662298788888 13.56249741451424 L 17.156662298788888 13.56249741451424 Z " fill="rgb(138,17,43)"/><path d=" M 44.97035995185479 0.09187348901565429 C 77.65384803692041 0.3325508329281561 107.99837830323668 -0.892267761405023 137.97015817259125 1.7517203130268655 C 140.4673821434926 2.222699605581255 143.21168055784483 2.915184039253603 145.32983978079756 3.5633789021940743 C 148.89989235322764 4.675232993540945 161.7318756908171 6.400495729942435 166.62631246053888 6.427019823250831 C 167.8221690619389 6.433531497705943 169.2052156167856 6.025498391551039 169.7150485367829 5.515589088275725 C 170.96875274077138 4.261853057921428 172.5870597920607 4.8871965901738434 174.20577422083352 7.249642266927964 C 174.9400721339739 8.32102595144626 177.0207526284894 10.003017560823409 178.83032340805585 10.987629841458826 C 189.37977070829447 17.004117870149372 198.90934847979725 24.189601047453266 207.43229649076193 31.001207174444062 C 221.29107477429898 31.764486176337158 236.16014921572105 32.84801480206792 249.22617091730444 35.598894908879885 C 254.99708034174 36.96257830273689 264.03454611375673 37.79411212885505 267.97225686461024 40.1724391621737 C 270.6980196034847 43.05663991557654 272.7760521443606 49.755364288132256 273.42093069997827 53.27567861599479 C 274.7320751290722 58.452580748004394 275.12824973130773 64.15671845686394 275.06021769164363 68.012953711114 C 274.92007983748545 75.44587415243922 274.80275512237586 76.17906450804753 273.4294856271217 78.2542708676348 C 272.61595279353423 79.48367245865194 270.8122889874717 81.25390585001475 269.4215022604476 82.18800968802907 C 268.0307155334235 83.12210079549706 266.80186135589884 84.40717306567788 266.69166574674273 85.04389134108897 C 266.5158823628203 85.81860873887243 266.162075018819 86.57932253567716 265.5565083903125 86.9262553846525 C 265.5565083903125 86.92959078779472 265.55691576779554 86.9340974012006 265.53980591350864 86.93743280434282 L 265.53980591350864 86.93654166609872 C 264.9802729405833 87.3718117761573 262.83706000242455 87.67207444223439 260.2919691772686 87.67207444223439 L 256.08661142007213 87.67207444223439 L 255.99658099632506 87.67295284993213 L 255.99658099632506 87.67207444223439 C 255.92814157917792 74.05065719528736 250.7542438561054 61.266693478508586 238.1980550745193 58.45191875959449 C 226.3160760273281 55.394003336050275 213.4610758619483 64.02727426163491 211.50973771829103 76.34081882989844 C 211.3693961753911 78.77400815268794 209.83236093196365 81.53159725742336 209.02534613810485 82.49714554490814 C 208.6705203503957 82.6377416987348 206.43727698849034 82.68414454015982 201.69336619874366 82.60271996574158 C 165.20517611103014 81.43313921199638 130.24791060449888 80.91140323116721 96.06893977927393 81.1980569432022 C 93.67865239766479 81.24384871840272 91.2003714797238 81.1555114573195 89.09484095874404 82.11638763429593 C 87.63846645695412 82.3648242462053 85.52376994260703 82.59904083784807 84.34278261933696 81.92408000121867 C 83.68120158691545 80.9320012551523 83.59239329561751 79.57717832155095 83.5166210837765 78.70777112005845 C 81.23978833118781 59.77733413114048 65.58854912237075 52.626980896473725 51.86827918306017 59.28658430011336 C 43.601164231431085 62.96781273376807 40.460080148619454 70.6637080709279 39.80501715592618 78.40856508932794 C 29.161669345851806 77.21806804793906 17.256673470869828 75.64361772880551 5.589586045970918 73.34437921465093 C 4.795403642826841 72.82405632446597 3.264682750386328 70.61110545343317 2.187984062768919 68.42591990397732 C 0.10750725699517716 63.46597174276758 0.0673805749179337 61.283879716073415 0.01238461471075425 56.88599790651166 C -0.0644060408385485 54.95651811092779 0.20955531649133263 52.73522873203946 1.0780841102859995 51.3234111424546 C 1.7278511957001683 50.28393657234834 2.156412307835126 49.79709501904894 2.9163750024058572 49.57555805156511 C 2.9163750024058572 49.574679643867356 2.915967624922814 49.573890349994 2.9330774792092598 49.57306286448163 C 4.112842670030204 49.14474363272704 7.454763851969801 49.59441199070105 6.420228733844851 48.82114587520083 C 5.697337390229222 47.954991328299286 5.708132893529182 46.80845922871049 4.405747080319998 44.19537455552944 L 7.8792511892747825 43.895493805842676 L 7.564348394901572 40.59152874782866 C 6.641638395865357 33.88844416315001 7.187931600592947 32.95862415398054 8.806034963140974 28.807574907488757 C 10.52414949776994 24.744226394763004 15.09981338703028 15.721769936886218 16.05185456484378 14.151730752060999 C 16.68369704100496 13.005835179789415 17.179271749096642 12.196471600129883 16.121923491922644 11.791417441819547 C 15.870571584900517 11.695059936539408 15.768116147921774 11.538105030660304 15.542429022329543 11.404561599508412 C 15.803557988944249 10.758448180895243 16.16143910777555 9.546105521979484 16.237211319617018 9.63990418744443 C 13.494746103938724 9.991031751440232 12.28137227076877 8.348778542476865 13.691713116978008 6.195947676555107 C 14.447602036718308 5.042133704457363 15.247080347141491 4.802990391379353 19.412922488485037 4.481728689107314 C 21.302950320948185 4.232744663705141 23.65718479531006 4.222942143020013 25.10581912492262 3.351275269551394 C 25.390779674293753 3.124245071319997 25.637243051519818 2.8657704236181374 25.906723256536225 2.6907699682959674 C 31.447668091808282 -0.8492385147612254 38.73442913055442 0.14037050531432982 44.96954519688916 0.09189258483517193 L 44.97035995185479 0.09187348901565429 Z  M 34.35939865168075 0.8471895341703828 C 31.44603858187611 1.0929081744352374 27.87354174454822 1.8658369304573341 25.851116230104253 4.289414690756871 C 26.04971275307571 4.427108280017016 26.220200229719012 4.421634145088959 26.403927474560078 4.404963494651078 C 26.721274533831092 4.033556170328772 69.88658525695428 3.440280884317687 104.20752713501088 4.038495622310364 C 109.92909021995047 4.072604773948235 115.68467082852885 4.196852202036219 121.41961725277224 4.350235788234137 C 129.82984775320256 4.575170987184549 138.1957026398286 4.862766036364697 146.34482077973735 5.02063181168181 C 145.91116744906458 4.743385973395256 143.9229616431944 4.183642946455109 140.5932617857452 3.4530050653888367 C 124.81532817970992 1.0313623481336336 108.7129184084506 1.5876617622876381 93.9422256291773 1.2541851007982316 C 73.01096686296205 0.8750885264839567 53.68783071096095 0.8471958994435553 34.35939865168075 0.8471958994435553 L 34.35939865168075 0.8471895341703828 Z  M 107.54455978715441 7.028028916166079 L 107.52785731035056 7.028028916166079 L 94.49544425111617 7.028028916166079 C 92.02653301528471 11.595698022321997 89.6771870707189 22.9248594597843 88.0291414631688 29.386146412472158 C 88.30738028406995 29.645715887159625 95.1582474159868 30.035245144203074 103.25181955985045 30.251880851344325 C 111.34579908119713 30.4685356543051 128.8286074536636 31.026069931454515 142.1027990490693 31.490983118675828 C 155.37678695573368 31.955889940623976 171.21256816435744 32.511501905275395 177.29267709840406 32.725769730796614 C 187.4424870878015 33.083453526159744 188.316108100134 33.03605133684668 187.97187412698395 32.13941986199684 C 187.60747496842396 31.19023669183767 186.9096373400139 30.902615458280493 186.54320129403914 31.474598905530698 C 186.51977708876575 32.140132772592125 185.48707516931427 32.195224211897155 176.7252002645596 31.721208684039652 C 166.79700362592348 31.80961596312777 156.00150032594183 30.634962086664373 147.10661667298154 30.57353083527987 C 126.7660552571424 29.497455944433696 108.47888004445667 29.430245025008873 90.17500235496709 28.627100317238543 C 91.72018514805495 21.776194993682836 93.90780223186266 13.932816277124104 95.93878267344962 7.911032341154325 L 104.57375949224433 7.974837839432041 C 122.57190038072895 8.233032415114323 139.58378038282626 7.893877929955352 156.45124506719412 9.30361407521292 C 167.5865011880128 10.077001130903412 171.69449572676785 11.394880019013556 177.359079628136 14.228107664853738 C 180.3333426316517 15.715729292645847 183.81947544257946 17.87132268712432 185.71622500351214 19.2966028294683 C 186.82306962487246 19.66915590296159 186.95322673069677 21.137274333754206 188.0030385044347 21.15568906904126 C 189.14491758933445 21.15568906904126 189.10092082116853 20.70087757034416 187.77898088877464 19.63548360788087 C 186.87175123409315 18.935564535143442 186.0643290627513 18.373160824017333 185.18765271929624 17.79623155951235 C 180.80651157817692 14.915824508920139 175.79597222579514 12.363521829260023 171.95175460729388 11.002314526666993 C 170.13892480786308 10.455900381749345 168.17271738607587 10.013354764455002 165.97002733539648 9.638179198414775 C 159.06762695187808 8.678245081867814 146.27475185265848 7.863821110036412 131.75724417908123 7.41090646274462 C 123.21189040655054 7.271506980274339 115.20325646789615 7.030422258878815 107.5425228997392 7.028054377258769 L 107.54455978715441 7.028028916166079 Z  M 186.76929579711395 22.76381804852869 C 186.7358908435067 22.751138424369742 186.7124666382333 22.89645761089014 186.69413465149728 23.15874505722212 L 186.66235920782174 23.807181800543134 C 186.64565673101833 24.1072853347909 186.63913869128965 24.384002855404177 186.62569523435013 24.834161339412432 L 186.54890457880128 27.630540418858985 L 189.49281795983234 27.630540418858985 C 191.1115323886047 27.630540418858985 192.43591658589685 27.868608000770905 192.43591658589685 28.159984745499656 C 192.43591658589685 28.950545308208632 196.55389187298624 28.80467234292226 196.573853369654 28.013392504344836 C 196.573853369654 27.819487187701355 196.72234246221433 27.825044071180642 196.94456687920047 27.95821195121539 C 197.2148618391834 28.086631337463686 197.65503320958442 28.505599982928373 198.33983475853802 29.25853541591671 C 199.5369134923867 30.574485626255694 200.1455354520158 31.432257108389493 200.08076243221603 31.986793341874815 L 200.08076243221603 32.02819307858654 C 200.08076243221603 32.65112417230671 199.1079450027687 32.93295300727722 196.40153269433722 33.09397532271332 C 193.22215512812227 33.28321489412161 193.3710515981652 33.31547409855811 197.50165558722802 33.332825833225414 C 200.1302587964028 33.343837755813254 202.56209868127962 33.52664203604449 202.90551789946403 33.738962087975025 C 203.2491408063902 33.95128213990556 203.7282167264193 33.80475355148246 203.96958788510756 33.413881221799684 C 204.22236561332056 33.005224318873914 204.05147075919422 32.58572735573594 203.5687284418177 32.42570438818787 C 203.10655868733375 32.27270868222185 201.03198885506345 30.493194722574046 198.9582337777597 28.471278429984082 C 196.57039066104835 26.14337072546209 194.86592327210064 24.917616435972604 194.31290833890307 25.12993648790315 C 193.58675797542355 25.408544494648538 193.62729203498384 25.603251835711717 194.55183523269352 26.28194272242 C 195.24437695382449 26.790216150490068 195.3452028808715 26.959468764137767 194.55183523269352 26.89502673854284 C 194.49846878241806 26.98529904267039 194.39153219312584 27.04161261442448 194.23530292838814 27.04161261442448 C 194.02611459085847 27.04161261442448 193.84157259105132 26.94273446096817 193.72832165077216 26.792418535007627 C 193.4959127967104 26.760363019312635 193.3254253200671 26.741871900747512 193.02294753892602 26.69583824516647 C 192.57177697648376 26.62716967818521 192.1265133875445 26.53364471946668 191.69774858666824 26.432837888239206 C 191.29077848113275 26.45151359972631 190.8381820974996 26.325245675810194 190.42673083965155 26.06809500492814 C 190.074960383065 25.944048561349106 189.77676006549564 25.8209569087459 189.63865909875267 25.71197070149219 C 189.13575159596667 25.315541488330126 188.90212060945578 25.356406542095385 188.90212060945578 25.841306687077292 C 188.90212060945578 27.39528628768916 187.40745262426208 25.93855533060153 187.06647767097593 24.0520729552956 C 186.91961808834776 23.239437625225577 186.8301987308255 22.793607526974384 186.77051792956308 22.76381804852869 L 186.76929579711395 22.76381804852869 Z  M 194.1658450675336 29.985436881630932 L 194.1658450675336 29.985436881630932 C 193.905530855885 29.985869720206637 193.68656545876274 30.17971138411839 193.62871785617426 30.43813510963487 C 193.69043554485143 30.783132915565886 193.94932393530962 31.058004506959236 194.28154027271103 31.13744311614778 C 194.29824274951443 31.14061302218751 194.31311202764482 31.144623144285973 194.32981450444868 31.146959199540163 C 194.348350179926 31.150129105579893 194.36831167659375 31.150962956365447 194.38664366332932 31.1529616521415 C 194.4249371467331 31.156965408966784 194.46180480894645 31.159969817904056 194.50009829235023 31.160803668689596 C 194.91195692768133 31.151962304253473 195.11523829170756 30.924289213431692 195.0708341460586 30.55721027486645 C 194.86734909329107 30.241594569898126 194.46648965000122 29.985958834031038 194.16727088872403 29.985513264908988 L 194.1658450675336 29.985436881630932 Z  M 94.90343280035904 37.43038132397837 C 95.06027313132108 37.587718146247795 98.12965877712122 37.83047693448759 101.72333924356599 37.96930990764555 C 106.92941978779709 38.17046527043212 108.25747038243617 38.06036514037329 108.25747038243617 37.42952201210012 C 106.0932775039023 35.87405930283914 95.99194543498334 35.56577639256514 94.90343280035904 37.43040041979788 L 94.90343280035904 37.43038132397837 Z  M 248.0836807661799 38.22885392124033 C 249.72113455917133 40.141338437454536 252.2855758147707 41.00258535874035 254.31350092523553 41.44085987773617 C 259.47171461521157 42.520085578802565 262.47001289022546 43.83694602320516 262.47001289022546 45.02363663123711 C 263.8312647497305 49.72134826830025 264.58980162311036 54.013706579213945 268.066157374446 55.94531237603731 C 269.1903155388345 56.20925479339405 271.4231515232573 56.729654066857094 272.05499399941846 55.853054106680034 C 272.4627788599196 53.360031216072244 267.690555335103 42.162847352561485 266.5839144024844 41.460694068940626 C 265.3110634567938 40.85141648617474 258.62599896046595 38.70635125352301 253.80509382642867 38.31748398488948 C 251.88369792777348 38.092363368609725 250.0012065787464 38.23910837632069 248.0836807661799 38.228866651786674 L 248.0836807661799 38.22885392124033 Z  M 148.74264464478256 39.322229624568436 C 149.1375971145685 39.56632512017438 152.39295058136668 39.805334762515784 155.97726136570236 39.85339257496558 C 164.7102124691628 39.540583955466175 162.06633260437502 38.50325448241894 155.93041295515513 38.35129631597998 C 154.0992511689883 38.420945135029754 150.70905575531106 38.201222270399995 148.74345939974864 39.322229624568436 L 148.74264464478256 39.322229624568436 Z  M 97.08412446695502 57.20596745832975 C 94.80606958191765 57.20684586602751 93.54095880840441 57.321726316238625 93.54095880840441 57.544841871469146 C 93.8943587749227 58.40550318762311 94.75270313164219 58.528263846021375 95.47335389910131 58.64080187570514 C 100.29548116558726 59.12905651964877 125.1208612919736 60.30476066618557 167.1222945461136 62.02870579104042 C 177.47681172072816 62.50010519162417 187.8376432463292 62.85468909895246 198.18584606995728 63.45492162854072 C 200.7358254249093 63.44658312068519 201.56626442404195 63.27258201325105 201.8532618608283 62.91341510923881 L 201.8532618608283 60.12478893251594 C 190.40554721053422 59.80503579998572 179.7848088507676 60.264901325581505 168.00508155181387 59.71177181746724 C 164.443787595269 59.5336332824712 150.13954203405183 59.0046281596794 136.21802761813024 58.535622101808386 C 122.2963095134669 58.06660331339103 106.99867395990987 57.52368370344489 102.22339510397114 57.32928826076716 C 100.48817071505482 57.27240817970075 98.68898806130528 57.207215051871486 97.08412446695502 57.20595472778341 L 97.08412446695502 57.20596745832975 Z  M 96.67878387135215 76.60213875470825 L 96.67878387135215 76.60213875470825 C 93.88600753652099 76.61932499227308 92.18439178995413 76.70360120907247 91.84239839296015 76.85997050981973 C 99.62697471595447 77.87674651579405 105.27831884912439 77.7678876140038 111.64359202128344 77.903327896561 C 113.8198025355664 78.08899018444652 146.87481888514412 78.69318191394785 165.65268027612547 79.15881437703763 C 206.26678951184704 80.16588970669758 204.2087184676393 80.14671750390306 204.2087184676393 79.51579162707864 C 204.2087184676393 79.23824025567984 196.06340938343237 78.83264504914987 186.10771476469245 78.61471082628148 C 169.65903413286787 78.25462732293244 153.5474583682403 77.87106869212448 107.52296878055449 76.74183103974445 C 103.87184808900383 76.65993543511146 100.2455774239179 76.61778459616542 96.67959862631824 76.60213875470825 L 96.67878387135215 76.60213875470825 Z " fill-rule="evenodd" fill="rgb(0,0,0)"/></g></svg>