<svg id="road" version="1.1" viewBox="0 0 793.70081 1122.5197" xmlns="http://www.w3.org/2000/svg">
 <path id="asphalt" d="m-4079 473.4 4945 2e-4 61 98.2-5055-2e-4z" style="fill:#4d4d4d"/>
 <path id="yellowLine" d="m-4091 515.3h40v-5h-40zm80 0h40v-5h-40zm80 0h40v-5h-40zm80 0h40v-5h-40zm80 0h40v-5h-40zm80 0h40v-5h-40zm80 0h40v-5h-40zm80 0h40v-5h-40zm80 0h40v-5h-40zm80 0h40v-5h-40zm80 0h40v-5h-40zm80 0h40v-5h-40zm80 0h40v-5h-40zm80 0h40v-5h-40zm80 0h40v-5h-40zm80 0h40v-5h-40zm80 0h40v-5h-40zm80 0h40v-5h-40zm80 0h40v-5h-40zm80 0h40v-5h-40zm80 0h40v-5h-40zm80 0h40v-5h-40zm80 0h40v-5h-40zm80 0h40v-5h-40zm80 0h40v-5h-40zm80 0h40v-5h-40zm80 0h40v-5h-40zm80 0h40v-5h-40zm80 0h40v-5h-40zm80 0h40v-5h-40zm80 0h40v-5h-40zm80 0h40v-5h-40zm80 0h40v-5h-40zm80 0h40v-5h-40zm80 0h40v-5h-40zm80 0h40v-5h-40zm80 0h40v-5h-40zm80 0h40v-5h-40zm80 0h40v-5h-40zm80 0h40v-5h-40zm80 0h40v-5h-40zm80 0h40v-5h-40zm80 0h40v-5h-40zm80 0h40v-5h-40zm80 0h40v-5h-40zm80 0h40v-5h-40zm80 0h40v-5h-40zm80 0h40v-5h-40zm80 0h40v-5h-40zm80 0h40v-5h-40zm80 0h40v-5h-40zm80 0h40v-5h-40zm80 0h40v-5h-40zm80 0h40v-5h-40zm80 0h40v-5h-40zm80 0h40v-5h-40zm80 0h40v-5h-40zm80 0h40v-5h-40zm80 0h40v-5h-40zm80 0h40v-5h-40zm80 0h40v-5h-40zm80 0h40v-5h-40zm80 0h40v-5h-40z" style="fill:#ffff00"/>
</svg>
